<svg width="132" height="110" viewBox="0 0 132 110" fill="none" xmlns="http://www.w3.org/2000/svg">
<path d="M28.3205 96.0389C28.4482 96.4078 28.6993 96.7222 29.0905 96.7222C29.2382 96.7222 29.3571 96.8411 29.3571 96.9889C29.3571 97.1367 29.2371 97.2555 29.0905 97.2567H25.7249C25.5771 97.2567 25.4571 97.1367 25.4571 96.9889C25.4571 96.8411 25.5771 96.7211 25.7249 96.7211C26.1282 96.7211 26.3571 96.4178 26.3571 96.0389C26.3571 94.4855 24.5527 93.4011 23.1538 93.4011L22.366 95.5444C22.1593 96.17 22.076 96.7222 22.9738 96.7211C23.1216 96.7211 23.2405 96.84 23.2405 96.9878C23.2405 97.1355 23.1205 97.2544 22.9738 97.2555H19.9016C19.7538 97.2555 19.6338 97.1355 19.6338 96.9878C19.6338 96.84 19.7538 96.72 19.9016 96.7211C20.6427 96.6478 20.8582 96.1078 21.0882 95.4911L23.7749 88.2767L23.6193 87.8289C23.4716 87.8289 23.3527 87.71 23.3527 87.5622C23.3527 87.4144 23.4716 87.2944 23.6193 87.2944C24.8282 87.2944 25.2982 87.2978 25.6716 88.3778L28.3216 96.04L28.3205 96.0389ZM24.3705 89.9889L23.4671 92.3689C24.1305 92.3689 24.7827 92.58 25.4238 93.0055L24.3705 89.9889Z" fill="white"/>
<path d="M39.125 95.6776C39.125 96.3321 39.3328 96.721 39.9661 96.721C40.1139 96.721 40.2328 96.841 40.2328 96.9887C40.2328 97.1365 40.1128 97.2554 39.9661 97.2554H37.0217C36.8739 97.2554 36.7539 97.1354 36.7539 96.9887C36.7539 96.8421 36.8739 96.721 37.0217 96.721C37.655 96.721 37.8628 96.3321 37.8628 95.6776V88.8721C37.8628 88.2176 37.655 87.8287 37.0217 87.8287C36.8739 87.8287 36.7539 87.7099 36.7539 87.5621C36.7539 87.4143 36.8739 87.2954 37.0161 87.2954H38.1328C39.6939 87.2954 41.7884 88.2743 43.3339 89.821C43.4028 89.8898 43.4717 89.961 43.5384 90.0321V88.8743C43.5384 88.2199 43.3306 87.831 42.6972 87.831C42.5495 87.831 42.4295 87.7121 42.4295 87.5643C42.4295 87.4165 42.5495 87.2976 42.6972 87.2976H45.6417C45.7895 87.2976 45.9084 87.4176 45.9084 87.5643C45.9084 87.711 45.7884 87.831 45.6417 87.831C45.0084 87.831 44.8006 88.2199 44.8006 88.8743V95.6799C44.8006 96.3343 45.0084 96.7232 45.6417 96.7232C45.7895 96.7232 45.9084 96.8421 45.9084 96.9899C45.9084 97.1376 45.7884 97.2565 45.6417 97.2565H42.6972C42.5495 97.2565 42.4295 97.1365 42.4295 96.9899C42.4295 96.8432 42.5495 96.7232 42.6972 96.7232C43.3306 96.7232 43.5384 96.3343 43.5384 95.6799V94.4999C43.4572 93.2821 42.7972 92.1499 41.9006 91.2532C41.0506 90.4032 40.0295 89.7776 39.1239 89.4921V95.6787L39.125 95.6776Z" fill="white"/>
<path d="M53.587 97.2565C53.4392 97.2565 53.3203 97.1365 53.3203 96.9899C53.3203 96.8432 53.4403 96.7221 53.587 96.7221C54.157 96.7221 54.1092 96.0432 54.1092 95.4287V89.1221C54.1092 88.5076 54.157 87.8287 53.587 87.8287C53.4392 87.8287 53.3203 87.7099 53.3203 87.5621C53.3203 87.4143 53.4403 87.2954 53.587 87.2954H58.3103C60.7881 87.2954 62.2081 89.0554 62.0348 91.4132C61.777 94.9087 58.6248 97.2565 55.2114 97.2565H53.587ZM57.4659 88.2821H56.8925C56.197 88.2821 55.927 88.4854 55.927 89.1765V95.3699C55.927 96.1232 56.3236 96.1799 56.8125 96.0676C60.9336 95.0476 61.1848 88.2821 57.4659 88.2821Z" fill="white"/>
<path d="M72.0084 94.1366V95.4244C72.0084 96.0388 71.9606 96.7177 72.5306 96.7177C72.6784 96.7177 72.7984 96.8377 72.7984 96.9844C72.7984 97.131 72.6784 97.251 72.5306 97.251H69.6695C69.5217 97.251 69.4028 97.131 69.4028 96.9844C69.4028 96.8377 69.5228 96.7177 69.6695 96.7177C70.2395 96.7177 70.1917 96.0388 70.1917 95.4244V89.1188C70.1917 88.5044 70.2395 87.8255 69.6695 87.8255C69.5217 87.8255 69.4028 87.7055 69.4028 87.5577C69.4028 87.4099 69.5228 87.291 69.6695 87.291H74.8106C76.0906 87.291 76.6073 87.941 76.5817 88.7266C76.5473 89.8299 75.5051 90.5955 74.4139 91.4066L76.385 95.101C76.8139 95.9066 77.2717 96.7166 77.8417 96.7166C77.9895 96.7166 78.1084 96.8366 78.1084 96.9832C78.1084 97.1299 77.9884 97.2499 77.8417 97.2499C76.4528 97.2499 75.4806 97.2499 74.6662 95.7188L72.9906 92.5721C72.535 93.0266 72.1706 93.5321 72.0073 94.1344L72.0084 94.1366ZM72.0084 92.1655C72.5117 91.471 73.1751 91.0599 73.8473 90.5621C75.0951 89.7121 75.1428 88.2788 73.6973 88.2788H73.1573C72.3151 88.2788 71.9773 88.5532 72.0084 89.4555V92.1655Z" fill="white"/>
<path d="M85.5524 97.2565C85.4047 97.2565 85.2847 97.1365 85.2847 96.9898C85.2847 96.8432 85.4047 96.7221 85.5524 96.7232C86.1224 96.7232 86.0747 96.0443 86.0747 95.4298V89.1243C86.0747 88.5098 86.1224 87.8309 85.5524 87.8309C85.4047 87.8309 85.2847 87.712 85.2847 87.5643C85.2847 87.4165 85.4047 87.2976 85.5524 87.2976H91.8713L92.4969 90.1132C92.558 90.4298 92.1736 90.5832 92.0336 90.2354C91.4824 88.4776 90.2002 88.2854 88.8236 88.2854C88.1491 88.2854 87.8913 88.7554 87.8913 89.4365V90.6576H89.4236C89.9213 90.6576 89.9702 90.2987 89.908 89.9587C89.8202 89.4776 90.2947 89.3843 90.378 89.7187C90.5824 90.8387 90.788 91.9576 90.9924 93.0776C91.0691 93.4987 90.6469 93.6487 90.5091 93.2709C90.308 92.5365 90.0169 92.0732 89.6347 91.8821C89.3569 91.7432 88.7758 91.6754 87.8913 91.6754V95.4676C87.8913 96.2254 88.5191 96.2443 89.158 96.2443C90.7536 96.2443 91.9647 95.3987 92.7902 93.7065C92.9413 93.342 93.3847 93.4721 93.2869 93.8109C92.908 94.9598 92.5291 96.1098 92.1502 97.2587H85.5524V97.2565Z" fill="white"/>
<path d="M108.915 96.0389C109.042 96.4078 109.294 96.7222 109.685 96.7222C109.832 96.7222 109.952 96.8411 109.952 96.9889C109.952 97.1367 109.832 97.2555 109.685 97.2567H106.319C106.171 97.2567 106.052 97.1367 106.052 96.9889C106.052 96.8411 106.171 96.7211 106.319 96.7211C106.722 96.7211 106.951 96.4178 106.951 96.0389C106.951 94.4855 105.147 93.4011 103.748 93.4011L102.96 95.5444C102.754 96.17 102.669 96.7222 103.567 96.7211C103.715 96.7211 103.835 96.84 103.835 96.9878C103.835 97.1355 103.715 97.2544 103.567 97.2555H100.495C100.347 97.2555 100.228 97.1355 100.228 96.9878C100.228 96.84 100.348 96.72 100.495 96.7211C101.236 96.6478 101.451 96.1078 101.681 95.4911L104.368 88.2767L104.212 87.8289C104.065 87.8289 103.945 87.71 103.945 87.5622C103.945 87.4144 104.064 87.2944 104.212 87.2944C105.421 87.2944 105.891 87.2978 106.265 88.3778L108.915 96.0389ZM104.966 89.9889L104.062 92.3689C104.726 92.3689 105.378 92.58 106.019 93.0055L104.966 89.9889Z" fill="white"/>
<path d="M25.9316 107.371C25.9316 107.271 25.9516 107.178 25.9905 107.092C26.0294 107.006 26.0828 106.93 26.1494 106.866C26.2161 106.801 26.2939 106.75 26.3828 106.712C26.4716 106.674 26.5672 106.656 26.6694 106.656C26.7716 106.656 26.8672 106.674 26.9561 106.712C27.045 106.75 27.1228 106.801 27.1894 106.866C27.2561 106.93 27.3094 107.006 27.3483 107.092C27.3872 107.179 27.4072 107.272 27.4072 107.371C27.4072 107.47 27.3872 107.564 27.3483 107.652C27.3094 107.74 27.2561 107.816 27.1894 107.881C27.1228 107.947 27.045 107.997 26.9561 108.034C26.8672 108.072 26.7716 108.091 26.6694 108.091C26.5672 108.091 26.4716 108.072 26.3828 108.034C26.2939 107.997 26.2161 107.946 26.1494 107.881C26.0828 107.817 26.0294 107.74 25.9905 107.652C25.9516 107.564 25.9316 107.471 25.9316 107.371Z" fill="white"/>
<path d="M39.7704 106.436V107.553H37.8526V109.544H36.6582V104.309H40.1438V105.427H37.8526V106.434L39.7704 106.436Z" fill="white"/>
<path d="M52.6306 109.546H49.145V104.31H52.6306V105.428H50.3395V106.345H52.2028V107.462H50.3395V108.427H52.6306V109.545V109.546Z" fill="white"/>
<path d="M63.005 109.546H61.8105V104.31H63.8639C64.0617 104.31 64.2428 104.336 64.4105 104.387C64.5772 104.438 64.7283 104.507 64.8639 104.593C64.9994 104.68 65.1183 104.782 65.2217 104.9C65.325 105.018 65.4117 105.145 65.4817 105.28C65.5505 105.415 65.6039 105.555 65.6383 105.698C65.6739 105.841 65.6917 105.985 65.6917 106.126C65.6917 106.265 65.6761 106.402 65.6461 106.54C65.6161 106.678 65.5672 106.812 65.5017 106.943C65.4361 107.075 65.3505 107.201 65.2461 107.321C65.1417 107.442 65.015 107.555 64.8661 107.659L66.2617 109.545H65.2428C65.2205 109.545 65.1839 109.541 65.1317 109.533C65.0794 109.526 65.0205 109.509 64.9539 109.482C64.8883 109.456 64.8183 109.415 64.7461 109.361C64.6728 109.308 64.6039 109.233 64.5383 109.138L63.6617 107.951H63.0072V109.545L63.005 109.546ZM63.9261 106.75C63.9994 106.75 64.0694 106.731 64.1383 106.696C64.2061 106.659 64.2672 106.611 64.3194 106.553C64.3717 106.495 64.4139 106.428 64.445 106.355C64.4761 106.28 64.4928 106.205 64.4928 106.13C64.4928 106.056 64.4772 105.98 64.445 105.906C64.4128 105.831 64.3717 105.766 64.3194 105.707C64.2672 105.648 64.2061 105.601 64.1383 105.565C64.0705 105.528 63.9994 105.51 63.9261 105.51H63.005V106.752H63.9261V106.75Z" fill="white"/>
<path d="M76.256 109.546H75.0615V104.31H77.1149C77.3115 104.31 77.4937 104.336 77.6604 104.387C77.8271 104.438 77.9782 104.507 78.1137 104.593C78.2493 104.68 78.3682 104.782 78.4715 104.9C78.5749 105.018 78.6615 105.145 78.7304 105.28C78.8004 105.415 78.8526 105.555 78.8882 105.698C78.9237 105.841 78.9415 105.985 78.9415 106.126C78.9415 106.265 78.926 106.402 78.896 106.54C78.866 106.678 78.8171 106.812 78.7515 106.943C78.686 107.075 78.6004 107.201 78.496 107.321C78.3915 107.442 78.2648 107.555 78.116 107.659L79.5115 109.545H78.4926C78.4704 109.545 78.4337 109.541 78.3815 109.533C78.3293 109.526 78.2704 109.509 78.2049 109.482C78.1393 109.456 78.0693 109.415 77.996 109.361C77.9226 109.308 77.8537 109.233 77.7882 109.138L76.9115 107.951H76.2582V109.545L76.256 109.546ZM77.1771 106.75C77.2504 106.75 77.3204 106.731 77.3893 106.696C77.4582 106.659 77.5182 106.611 77.5704 106.553C77.6226 106.495 77.6649 106.428 77.696 106.355C77.7282 106.28 77.7437 106.205 77.7437 106.13C77.7437 106.056 77.7282 105.98 77.696 105.906C77.6649 105.831 77.6226 105.766 77.5704 105.707C77.5182 105.648 77.4582 105.601 77.3893 105.565C77.3215 105.528 77.2504 105.51 77.1771 105.51H76.2571V106.752H77.1771V106.75Z" fill="white"/>
<path d="M90.7892 109.545H89.5948V107.324C89.5948 107.275 89.5781 107.223 89.547 107.168C89.5159 107.112 89.4781 107.054 89.437 106.997L87.4492 104.311H88.4248C88.6048 104.311 88.7626 104.347 88.8981 104.419C89.0337 104.491 89.147 104.59 89.2403 104.717L90.0692 105.842C90.0937 105.877 90.1137 105.909 90.1281 105.939C90.1426 105.969 90.1548 105.998 90.1648 106.024C90.1748 106.053 90.1837 106.082 90.1903 106.109C90.1981 106.082 90.2059 106.054 90.2159 106.024C90.2259 105.998 90.2381 105.969 90.2526 105.939C90.267 105.909 90.2859 105.877 90.3103 105.842L91.1359 104.724C91.2259 104.585 91.3403 104.482 91.477 104.413C91.6148 104.345 91.7737 104.311 91.9537 104.311H92.937L90.9459 107.003C90.9014 107.062 90.8648 107.117 90.8348 107.168C90.8048 107.219 90.7892 107.271 90.7892 107.324V109.545Z" fill="white"/>
<path d="M101.537 107.371C101.537 107.271 101.557 107.178 101.596 107.092C101.635 107.007 101.688 106.93 101.755 106.866C101.822 106.801 101.899 106.75 101.989 106.712C102.078 106.674 102.174 106.656 102.276 106.656C102.378 106.656 102.474 106.674 102.563 106.712C102.652 106.75 102.729 106.801 102.796 106.866C102.863 106.93 102.916 107.006 102.955 107.092C102.994 107.179 103.013 107.272 103.013 107.371C103.013 107.47 102.993 107.564 102.955 107.652C102.916 107.74 102.863 107.816 102.796 107.881C102.729 107.946 102.652 107.997 102.563 108.034C102.474 108.072 102.378 108.091 102.276 108.091C102.174 108.091 102.078 108.072 101.989 108.034C101.9 107.997 101.823 107.946 101.755 107.881C101.688 107.817 101.635 107.74 101.596 107.652C101.557 107.564 101.537 107.471 101.537 107.371Z" fill="white"/>
<path d="M106.637 34.8566C106.035 32.1555 105.109 29.3955 103.885 26.6499C102.714 24.0666 101.255 21.5332 99.5494 19.121C97.8316 16.731 95.8983 14.5299 93.8027 12.5799C91.7216 10.6543 89.3894 8.88323 86.8705 7.31434C81.8783 4.27212 76.4449 2.21101 70.7227 1.19101C68.0116 0.702124 65.2416 0.454346 62.4883 0.454346C59.4738 0.454346 56.4649 0.751011 53.5438 1.33657C47.8927 2.45879 42.5549 4.60212 37.6771 7.70879L37.3694 7.8999C37.1671 8.02435 36.966 8.14768 36.7605 8.28434L34.1849 10.1821C33.8049 10.4577 33.4505 10.771 33.1083 11.0732C32.9216 11.2388 32.7349 11.4032 32.5394 11.5677C32.3527 11.7332 32.1627 11.8955 31.9738 12.0588C31.6227 12.361 31.2716 12.6621 30.9349 12.9843C28.4838 15.411 26.7583 17.3966 25.3427 19.4177C21.9905 24.0655 19.5616 29.2088 18.1249 34.7055C18.0794 34.8855 18.1838 35.0677 18.3616 35.1199L18.4283 35.1332H18.456C18.6083 35.1332 18.7427 35.0321 18.7838 34.8877C21.9894 24.1321 29.2238 14.7888 38.6338 9.25323C43.3783 6.39768 48.5305 4.47546 53.9471 3.54101C56.3716 3.11768 58.8616 2.90323 61.3516 2.90323C64.326 2.90323 67.3083 3.20768 70.2171 3.80879C75.506 4.90546 80.6705 7.05323 85.1538 10.0221C87.3616 11.4477 89.5016 13.1321 91.5172 15.0288C93.5227 16.9043 95.3483 18.9266 96.9449 21.0388C100.239 25.3432 102.723 30.1988 104.324 35.4699C105.12 38.1143 105.689 40.8199 106.015 43.5132L106.149 44.5343L106.26 45.8743C106.309 46.4532 106.359 47.051 106.375 47.6399C106.417 48.9888 106.413 50.3932 106.36 51.8132C106.354 51.9821 106.474 52.1321 106.642 52.1643L106.703 52.1699C106.868 52.1699 107.009 52.0521 107.04 51.8888C108.062 46.3799 107.922 40.4888 106.637 34.8566Z" fill="white"/>
<path d="M131.845 61.3354L125.078 60.3776C126.799 59.8054 128.529 59.2554 130.267 58.7288C130.307 58.7165 130.332 58.6765 130.325 58.6354C130.317 58.591 130.274 58.561 130.229 58.5699C127.941 58.9888 125.678 59.5187 123.416 60.0643C123.35 60.081 123.285 60.0987 123.219 60.1154L115.434 59.0132C109.966 58.2221 104.504 57.4021 99.0447 56.5554C93.9791 55.7876 88.918 54.9943 83.8602 54.181C83.318 53.4021 82.6558 52.7465 81.9636 52.1954C81.4991 51.8288 81.0169 51.5065 80.5247 51.2154C80.5213 51.1288 80.5158 51.0421 80.5136 50.9554C80.4613 49.9399 80.408 48.9232 80.3813 47.9054C80.2947 45.871 80.3036 43.8343 80.2702 41.7954C80.2569 40.7754 80.2702 39.7565 80.2702 38.7354L80.3247 35.6732C80.3569 33.6299 80.4436 31.5865 80.5325 29.5388C80.7102 25.4432 81.0202 21.3454 81.328 17.2188C81.3347 17.1232 81.2747 17.031 81.1791 17.0032C81.0691 16.9721 80.9558 17.0354 80.9236 17.1443C80.3513 19.1365 79.8147 21.1432 79.3725 23.1699C79.1413 24.1821 78.9291 25.1976 78.7247 26.2165C78.5402 27.2376 78.3369 28.2576 78.1691 29.2832C77.9869 30.3065 77.8313 31.3354 77.6913 32.3654C77.538 33.3943 77.4136 34.4265 77.2825 35.4599C77.0347 37.5265 76.8613 39.6021 76.7091 41.681C76.638 42.721 76.5669 43.761 76.5391 44.8032C76.4958 45.8443 76.4613 46.8865 76.4447 47.9299C76.4313 48.4176 76.4225 48.9065 76.4169 49.3954C76.3269 49.3643 76.2391 49.3343 76.1491 49.3021C75.648 49.1176 75.1491 48.9821 74.6502 48.8354C74.1513 48.6832 73.6525 48.5487 73.1536 48.4276C71.1491 47.9154 69.1425 47.4921 67.1347 47.1154C67.448 45.8665 67.7591 44.6165 68.0691 43.3665C68.5458 41.391 68.9969 39.4099 69.4525 37.4299C69.9158 35.4521 70.2936 33.4521 70.7169 31.4643C71.5291 27.481 72.3158 23.4921 72.9802 19.4776C72.9947 19.3899 72.9447 19.3021 72.858 19.2721C72.7613 19.2388 72.6558 19.2899 72.6225 19.3865V19.3899C71.288 23.2388 70.078 27.1143 68.8913 30.9943L65.3825 42.6399L64.2069 46.5965C63.1947 46.4254 62.1825 46.2621 61.1691 46.101C60.2347 45.9565 59.3002 45.8165 58.3658 45.681C58.3036 44.0654 58.2925 42.4454 58.338 40.8254C58.3836 38.6865 58.5769 36.5543 58.8169 34.4276C59.0991 32.3065 59.4369 30.1899 59.9002 28.0999C60.778 23.9088 62.0625 19.8099 63.6136 15.831C63.7302 15.5299 63.6691 15.1732 63.4269 14.9288C63.098 14.5965 62.5625 14.5932 62.2302 14.9221L62.1936 14.9588C58.9347 18.1821 55.848 21.6154 53.088 25.3221C50.3247 29.0254 47.9191 33.011 45.898 37.1932C44.8569 39.3465 43.928 41.5554 43.0958 43.7954C37.0891 43.1576 31.0769 42.6054 25.0636 42.0988C17.028 41.4176 8.98468 40.8443 0.936899 40.3665C0.826899 40.3599 0.731344 40.441 0.720232 40.5521C0.709121 40.6654 0.792455 40.7654 0.904677 40.7765C1.08579 40.7943 1.26579 40.8132 1.4469 40.831C6.62801 42.1543 11.8313 43.3599 17.0436 44.5199C19.7413 45.1288 22.4402 45.7076 25.1491 46.2732L33.2836 47.9032C35.9336 48.4099 38.5869 48.901 41.2447 49.3665C41.1613 49.6465 41.0758 49.9254 40.9958 50.2054C39.7669 54.4599 38.7647 58.7654 38.1247 63.181C37.6913 62.7743 37.2513 62.3776 36.808 61.9888C35.0536 60.4421 33.2025 59.0454 31.3258 57.6999C30.3847 57.031 29.4336 56.3787 28.4725 55.7443C27.5058 55.1176 26.5302 54.5065 25.5447 53.9143C23.5758 52.7254 21.5669 51.6065 19.5147 50.5765C15.4213 48.4988 11.1513 46.7599 6.76468 45.4954C6.67801 45.4699 6.58357 45.5121 6.54468 45.5965C6.50245 45.6899 6.54357 45.7999 6.6369 45.8421C10.7736 47.7243 14.7469 49.8765 18.5625 52.2665C20.4658 53.4688 22.338 54.7154 24.1702 56.0132C25.0858 56.6632 25.9891 57.3299 26.8791 58.0099C27.7758 58.6821 28.6591 59.3688 29.5291 60.071C31.2702 61.4721 32.9436 62.9487 34.5447 64.4654C35.3413 65.2276 36.1125 66.0087 36.8325 66.811C37.1113 67.121 37.3813 67.4376 37.6425 67.7554C37.618 68.1943 37.5991 68.6365 37.5947 69.0888C37.5902 69.7088 37.6002 70.3365 37.6813 71.0365C37.7269 71.391 37.7813 71.7554 37.9213 72.2154C37.9558 72.3288 38.0002 72.4565 38.0602 72.5976C37.0391 72.8354 36.018 73.071 35.0091 73.3721C32.198 74.1432 29.4091 75.041 26.7513 76.2932C26.6947 76.3199 26.6602 76.381 26.6702 76.4465C26.6825 76.5254 26.7569 76.5799 26.8358 76.5676H26.8436C32.5713 75.6732 38.2602 74.9754 43.958 74.3076C44.6669 74.2088 45.3825 74.1454 46.0947 74.0632L48.228 73.7976C48.938 73.6987 49.6502 73.6154 50.3625 73.531L52.4969 73.251C53.9169 73.0343 55.3447 72.8776 56.7736 72.7121C58.2025 72.5565 59.6302 72.3776 61.0636 72.2688L65.3647 71.9121C66.8002 71.8088 68.238 71.7399 69.6758 71.651C72.5502 71.451 75.4313 71.401 78.3125 71.2943C79.7536 71.2199 81.1947 71.2232 82.6369 71.1943L86.9658 71.1276L95.6302 71.1754H95.6336C95.708 71.1754 95.7713 71.1188 95.7769 71.0432C95.7836 70.9643 95.7236 70.8954 95.6447 70.8888C92.7625 70.6621 89.878 70.4288 86.9891 70.2432L82.6513 70.0343C81.2047 69.971 79.758 69.8754 78.3102 69.8588C75.4136 69.8221 72.5158 69.7288 69.6158 69.7854C68.1658 69.8021 66.7147 69.7999 65.2647 69.8321L60.9136 69.9754C59.4613 70.0021 58.0125 70.0988 56.5613 70.1732C55.1102 70.2476 53.6558 70.2999 52.2069 70.421C50.7569 70.5421 49.3058 70.6421 47.8613 70.8288C46.418 71.0188 44.9769 71.221 43.5413 71.4654C43.4625 71.481 43.3825 71.4965 43.3025 71.5121C43.3736 70.9665 43.3147 70.5021 43.2291 70.1165C43.1247 69.6732 42.9802 69.3032 42.8269 68.9588C42.5147 68.2865 42.1558 67.7232 41.7813 67.2021C41.7358 67.1388 41.6869 67.0799 41.6413 67.0176C41.7302 66.1221 41.8402 65.2188 41.9647 64.311C42.6102 59.9343 43.5291 55.5387 44.6525 51.221C44.7613 50.8088 44.8747 50.3988 44.988 49.9888L49.6258 50.751L56.6402 51.8065C56.658 52.4765 56.6813 53.1454 56.7147 53.8154C56.8236 55.9999 57.0258 58.1821 57.3291 60.3532C57.6213 62.5265 58.0225 64.6854 58.5258 66.8221C58.6525 67.3554 59.0491 67.8143 59.6113 67.991C60.4613 68.2588 61.3669 67.7876 61.6358 66.9376L61.6525 66.8854C62.8758 63.0099 63.9713 59.0965 65.0425 55.1776C65.2269 54.5032 65.4047 53.8276 65.5847 53.1521L66.028 53.2188C69.5158 53.7376 73.0047 54.241 76.4958 54.7376C76.5236 55.5988 76.568 56.4599 76.6147 57.3199C76.6702 58.3621 76.7447 59.4032 76.8547 60.441C77.0547 62.5188 77.3691 64.5854 77.7147 66.6421L77.7447 66.8188C77.8147 67.2332 78.0258 67.6265 78.3702 67.921C79.1491 68.5843 80.318 68.4899 80.9813 67.711C82.388 66.0576 83.6869 64.2565 84.5225 62.0854C84.9325 61.0032 85.2269 59.8176 85.2314 58.5621C85.238 57.6665 85.0714 56.7476 84.758 55.8921C89.4636 56.5388 94.1702 57.1699 98.8802 57.7765C106.507 58.7421 114.141 59.6421 121.781 60.4921C120.078 60.9454 118.382 61.4321 116.696 61.9576C115.577 62.2888 114.469 62.6654 113.352 63.0165C112.249 63.411 111.154 63.8321 110.105 64.3699C109.05 64.8865 108.025 65.4843 107.04 66.1376C106.554 66.4788 106.075 66.8265 105.609 67.191C105.165 67.5921 104.724 67.9888 104.314 68.4132C104.29 68.4376 104.284 68.4743 104.298 68.5065C104.317 68.5476 104.367 68.5665 104.408 68.5465H104.411C106.537 67.5543 108.646 66.7165 110.775 65.8687C112.904 65.0399 114.972 64.0232 117.128 63.1976C119.276 62.3576 121.455 61.5788 123.651 60.8532C123.765 60.8143 123.88 60.7788 123.994 60.7399C126.601 61.0265 129.21 61.3076 131.819 61.5821C131.885 61.5888 131.945 61.5421 131.954 61.4765C131.962 61.4088 131.916 61.3465 131.848 61.3376L131.845 61.3354ZM60.7802 48.4021C61.6925 48.571 62.6047 48.741 63.5158 48.9176L62.9913 50.6832C61.5436 50.4299 60.0969 50.1788 58.6502 49.9199C58.5902 49.281 58.538 48.6421 58.4936 48.001C59.2569 48.1321 60.0191 48.2643 60.7802 48.4021ZM48.9713 38.6154C49.8747 36.5876 50.8525 34.5876 51.9236 32.6354C52.9913 30.6821 54.108 28.7476 55.3313 26.8776C57.008 24.2276 58.8591 21.681 60.8358 19.2254C60.0402 22.0832 59.3458 24.9643 58.768 27.8688L58.4591 29.4654L58.1913 31.0688C57.9969 32.1354 57.8602 33.211 57.6936 34.2821C57.4125 36.431 57.1458 38.5854 56.9802 40.751C56.8491 42.3121 56.7502 43.8776 56.6858 45.4465C54.1758 45.0954 51.6647 44.771 49.1502 44.471C48.358 44.3787 47.5647 44.2954 46.7725 44.2065C47.4302 42.3143 48.1547 40.4476 48.9713 38.6154ZM41.878 46.8754L37.798 46.1676L33.7147 45.4788C25.9058 44.2043 18.0958 42.8854 10.2525 41.731C11.1425 41.8254 12.0336 41.9165 12.9236 42.0132C16.9302 42.4376 20.9336 42.8776 24.9347 43.3443C30.7858 44.0265 36.6313 44.7532 42.4613 45.5576C42.3069 46.0043 42.1536 46.451 42.0058 46.8999L41.8758 46.8765L41.878 46.8754ZM39.5802 70.9843C39.5758 71.0332 39.5836 71.0299 39.5802 70.9843V70.9843ZM50.0291 48.3432L45.6836 47.561C45.8336 47.0665 45.9869 46.5732 46.1447 46.0821C47.058 46.2132 47.9713 46.3399 48.8836 46.4754C51.4669 46.8576 54.0469 47.2565 56.6202 47.6832C56.6091 48.3043 56.6036 48.9254 56.6047 49.5465C54.4113 49.1499 52.2191 48.7532 50.0291 48.3432ZM61.918 54.2921C61.3558 56.2143 60.7869 58.1343 60.2258 60.0554C60.2113 59.9888 60.1947 59.9221 60.1802 59.8554C59.7502 57.781 59.3769 55.691 59.078 53.5854C59.0102 53.1054 58.948 52.6232 58.8891 52.141L62.4002 52.6699L61.918 54.2921ZM66.0836 51.2265C66.2302 50.6599 66.378 50.0932 66.5236 49.5254C68.528 49.951 70.5147 50.421 72.4625 50.971C72.9402 51.0999 73.4102 51.2388 73.8713 51.3932C74.3347 51.5421 74.8058 51.6832 75.2458 51.8587C75.6347 52.0054 76.0313 52.151 76.4269 52.3165C76.4302 52.5343 76.4347 52.7521 76.4391 52.9699C73.0691 52.4121 69.7002 51.8488 66.3336 51.271C66.2502 51.2565 66.1669 51.241 66.0836 51.2265ZM81.6769 56.2988C82.3791 57.6454 82.1725 59.2454 81.4458 60.8021C81.3558 60.9921 81.2591 61.1799 81.1558 61.3676L80.7547 55.3376C80.8613 55.3521 80.968 55.3676 81.0758 55.3832C81.3125 55.6754 81.518 55.9788 81.6769 56.2988Z" fill="white"/>
<path d="M3.59912 43.8753C2.77689 43.5353 2.03578 43.442 1.94356 43.6653C1.85134 43.8887 2.44245 44.3442 3.26467 44.6842C4.08689 45.0242 4.828 45.1176 4.92023 44.8942C5.01245 44.6709 4.42134 44.2153 3.59912 43.8753Z" fill="white"/>
<path d="M7.59012 101.281L11.1712 101.084L14.7523 100.936L21.9146 100.644C26.689 100.491 31.4646 100.353 36.239 100.265C41.0135 100.145 45.789 100.118 50.5634 100.048L64.8879 99.9753L79.2123 100.044C83.9868 100.118 88.7623 100.141 93.5368 100.262C95.9246 100.318 98.3112 100.354 100.699 100.425L107.861 100.641L115.023 100.935L118.605 101.084L122.186 101.282H122.19C122.232 101.284 122.265 101.321 122.262 101.363C122.26 101.404 122.226 101.435 122.186 101.435L64.8868 101.512L7.5879 101.435C7.54568 101.435 7.51123 101.401 7.51123 101.359C7.51123 101.318 7.54345 101.284 7.58345 101.282H7.5879L7.59012 101.281Z" fill="white"/>
</svg>
