<svg width="108" height="146" viewBox="0 0 108 146" fill="none" xmlns="http://www.w3.org/2000/svg">
<path d="M79.9546 134.32C79.6668 134.339 79.3813 134.371 79.0957 134.373C78.3035 134.381 77.5113 134.376 76.6602 134.376C76.6313 133.723 76.6068 133.165 76.5802 132.547C73.2357 135.556 68.6568 135.531 66.0035 132.477C64.2268 130.432 63.8757 127.933 64.0124 125.317C64.1391 122.895 64.8524 120.718 66.7879 119.153C69.5124 116.952 73.5846 117.302 76.3379 120.005V112.083H79.9546V134.319V134.32ZM76.7324 126.209C76.3968 125.008 76.2524 123.78 75.7257 122.749C74.2768 119.911 70.1568 119.805 68.5624 122.565C67.2446 124.848 67.2079 127.29 68.3557 129.672C69.0779 131.171 70.3268 131.923 72.0368 131.92C73.7446 131.917 75.0179 131.161 75.7079 129.662C76.1957 128.601 76.3902 127.405 76.7324 126.209Z" fill="white"/>
<path d="M52.6368 123.109H49.1824C49.1824 121.461 49.819 120.158 51.0946 119.188C53.5002 117.358 58.5335 117.205 61.0646 118.868C62.4202 119.758 63.0357 121.035 63.019 122.66C62.9924 125.207 63.0079 127.753 63.0079 130.3C63.0079 131.865 63.0168 131.871 64.6368 131.942V134.301C62.4635 135.348 60.6413 134.915 59.6124 133.039C57.3402 134.669 54.8168 135.18 52.1079 134.531C49.8557 133.991 48.5768 132.362 48.549 130.18C48.5168 127.697 49.5835 126.149 51.9813 125.55C53.6302 125.139 55.3346 124.929 57.0246 124.702C58.7979 124.463 59.6046 123.905 59.6124 122.766C59.6202 121.588 58.7502 120.877 57.0324 120.659C54.699 120.363 53.479 121.035 52.6368 123.109ZM59.4157 126.549C58.0868 126.753 56.8024 126.917 55.5335 127.159C54.7924 127.3 54.0235 127.465 53.3602 127.801C52.0124 128.483 51.709 130.338 52.8046 131.151C54.2902 132.255 55.9457 132.147 57.5546 131.462C58.9424 130.872 59.5324 129.738 59.4235 128.226C59.3824 127.653 59.4168 127.075 59.4168 126.548L59.4157 126.549Z" fill="white"/>
<path d="M16.4125 127.232H4.70363C4.5303 129.423 5.6003 131.132 7.44697 131.719C9.57141 132.393 11.4503 131.678 12.5836 129.804C12.7236 129.572 13.0347 129.316 13.2814 129.3C14.2181 129.241 15.1614 129.277 16.1125 129.277C15.7403 132.03 13.4014 134.226 10.4014 134.708C6.03585 135.409 2.47363 133.318 1.35919 129.401C0.00363338 124.637 1.86141 119.989 5.79141 118.307C11.087 116.04 16.6403 120.141 16.4981 126.216C16.4914 126.505 16.4503 126.792 16.4125 127.232ZM4.69919 124.756H12.7014C12.6647 122.355 10.8336 120.481 8.67919 120.575C6.33697 120.677 4.59141 122.489 4.69919 124.756Z" fill="white"/>
<path d="M80.8335 127.06C80.8613 119.542 87.0724 115.617 92.9813 118.59C96.1624 120.191 97.7135 123.786 97.0546 128.01C96.5568 131.201 94.9068 133.52 91.7457 134.399C88.5235 135.295 85.4446 134.946 82.9768 132.383C81.3457 130.689 80.8446 128.552 80.8335 127.06ZM93.7902 126.512C93.4724 125.232 93.3391 124.21 92.9635 123.287C92.2557 121.549 90.8791 120.617 88.9891 120.589C87.1991 120.562 85.6824 121.645 84.9968 123.432C84.1635 125.606 84.1935 127.781 85.3624 129.828C86.9168 132.549 90.7268 132.752 92.4168 130.128C93.1302 129.02 93.3857 127.618 93.7902 126.512Z" fill="white"/>
<path d="M33.48 118.198H36.9667C36.9667 118.614 36.9667 118.998 36.9667 119.381C36.9722 122.436 36.9567 125.491 36.9934 128.546C37.0056 129.611 37.19 130.662 38.1278 131.373C39.7834 132.627 42.7545 131.866 43.5189 129.932C43.8045 129.21 43.9334 128.383 43.9445 127.602C43.9911 124.513 43.9634 121.422 43.9634 118.248H47.5256V134.323H43.9878V132.32C42.4267 134.36 40.5334 134.964 38.29 134.763C35.5134 134.514 33.6511 132.963 33.5245 130.172C33.3456 126.227 33.4789 122.267 33.4789 118.199L33.48 118.198Z" fill="white"/>
<path d="M28.7888 128.326H32.2821C32.0799 131.839 29.4566 134.465 26.0355 134.759C18.2821 135.428 15.9033 128.752 17.5555 123.116C19.1455 117.693 26.501 115.773 30.601 119.682C31.6966 120.727 32.2721 122.008 32.3544 123.59H28.8533C28.0033 121.382 26.8488 120.485 25.0066 120.593C22.8633 120.72 21.2977 121.93 20.9555 124.165C20.7244 125.669 20.771 127.29 21.0677 128.785C21.4733 130.836 23.0455 131.926 24.9644 131.906C26.9399 131.885 28.0855 130.907 28.6744 128.738C28.711 128.605 28.7477 128.47 28.7877 128.326H28.7888Z" fill="white"/>
<path d="M32.4824 17.0668C31.8124 15.7757 31.1735 14.4668 30.4624 13.1979C29.6102 11.6779 28.7113 10.1824 27.798 8.69794C27.4935 8.2035 27.6724 8.00239 28.1168 7.8035C31.1568 6.44683 34.1868 5.06794 37.2402 3.74128C37.4113 3.66683 37.9302 3.94017 37.998 4.14572C38.7913 6.57128 39.5002 9.02461 40.3024 11.4468C40.5113 12.0791 40.9657 12.6302 41.3068 13.2191C40.5313 13.4802 39.7291 13.6835 38.9868 14.0179C38.2135 14.3657 37.498 14.8413 36.758 15.2602C35.428 15.8546 34.098 16.4502 32.768 17.0446C32.6735 17.0513 32.578 17.0579 32.4835 17.0646L32.4824 17.0668Z" fill="white"/>
<path d="M96.1657 45.1913C98.4735 44.7379 100.781 44.2879 103.088 43.8302C104.146 43.6202 105.2 43.3946 106.55 43.1157C106.943 46.8824 107.321 50.4991 107.725 54.3546C104.037 54.3546 100.64 54.3546 97.2424 54.3546C97.1668 53.2757 97.1013 52.1957 97.0101 51.1179C96.9724 50.6702 96.8768 50.2268 96.8079 49.7813C96.5879 48.3046 96.3679 46.8279 96.1479 45.3513C96.1224 45.2946 96.1268 45.2413 96.1657 45.1913Z" fill="white"/>
<path d="M12.2812 63.2734C8.92008 63.9545 5.55897 64.6345 1.89897 65.3767C1.50564 61.6334 1.12564 58.0189 0.721191 54.1689C4.41897 54.1689 7.81452 54.1689 11.2101 54.1689C11.2745 54.5089 11.3812 54.8478 11.3967 55.1901C11.4567 56.4478 11.4867 57.7078 11.529 58.9667C11.7845 60.3656 12.039 61.7645 12.2945 63.1634C12.2623 63.1967 12.2579 63.2334 12.2812 63.2745V63.2734Z" fill="white"/>
<path d="M25.8079 14.8779C25.8101 14.9512 25.829 15.0212 25.8645 15.0857C25.9279 15.1512 25.9923 15.2168 26.0556 15.2812C27.0679 16.6379 28.0812 17.9946 29.0934 19.3512C27.8634 20.3701 26.6345 21.3901 25.4045 22.409C24.6779 23.1279 23.8556 23.7768 23.2512 24.5879C22.6834 25.349 22.2012 25.539 21.4723 24.9079C21.1945 24.6546 20.9168 24.4012 20.6379 24.149C20.5701 24.1035 20.5034 24.0579 20.4356 24.0123C19.4634 23.1668 18.4901 22.3212 17.5179 21.4757L17.4701 21.4401C17.3479 21.2957 17.2256 21.1501 17.1034 21.0057L17.0723 20.9523H17.0101C16.9045 20.8468 16.799 20.7423 16.6934 20.6368C16.4879 20.4512 16.2812 20.2646 16.0756 20.079C15.8512 19.8501 15.6556 19.5812 15.3968 19.4012C14.8501 19.0235 14.7079 18.5612 14.9723 17.9612L14.9612 17.9723C15.2479 17.6712 15.5345 17.3701 15.8201 17.0701L15.8134 17.0757C15.9634 16.929 16.1134 16.7835 16.2634 16.6368L16.2545 16.6446C16.4068 16.499 16.5579 16.3535 16.7101 16.2068L16.7023 16.2168C17.5179 15.4857 18.3345 14.7546 19.1501 14.0235C19.2168 14.0312 19.2612 14.0046 19.2845 13.9423C19.4245 13.8101 19.5645 13.6779 19.7045 13.5457L19.7156 13.5368C19.8668 13.4001 20.019 13.2635 20.1701 13.1268H20.169C20.3234 12.9868 20.4779 12.8468 20.6323 12.7068L20.6234 12.7157C20.7779 12.5723 20.9312 12.429 21.0856 12.2846L21.0745 12.2957C21.3812 12.1279 21.7256 12.0046 21.9879 11.7835C22.5723 11.2901 23.1001 11.3501 23.6334 11.8346L23.6268 11.8257C23.7745 12.0546 23.9223 12.2823 24.0701 12.5112C24.049 12.5846 24.0701 12.6401 24.1356 12.6779C24.2656 12.8246 24.3956 12.9712 24.5256 13.1179C24.6634 13.2835 24.8001 13.4479 24.9379 13.6135C25.1001 13.8846 25.2634 14.1546 25.4256 14.4257C25.5523 14.5757 25.6801 14.7257 25.8068 14.8746L25.8079 14.8779Z" fill="white"/>
<path d="M14.9999 36.7201C13.9132 36.2735 12.8187 35.8446 11.7399 35.3768C9.70541 34.4957 7.67985 33.5924 5.4043 32.589C6.73207 30.1157 8.00874 27.739 9.28541 25.3624C9.41985 25.139 9.5543 24.9157 9.68763 24.6912C9.75874 24.5457 9.82985 24.399 9.90207 24.2535C10.1099 24.0346 10.3176 23.8157 10.5254 23.5968C10.5499 23.4701 10.5754 23.3446 10.5999 23.2179L10.6121 23.2057C10.6687 23.2579 10.721 23.2546 10.7699 23.1946C11.2765 23.3346 11.7832 23.4757 12.2899 23.6157L12.2865 23.6124C12.5732 23.839 12.8599 24.0668 13.1465 24.2935C13.1465 24.2935 13.1399 24.2735 13.141 24.2735C13.2254 24.3401 13.3099 24.4068 13.3954 24.4735C13.4399 24.5168 13.4899 24.5268 13.5476 24.5035C13.8621 24.769 14.1765 25.0346 14.491 25.3001C14.5254 25.3668 14.5776 25.3901 14.6499 25.3701C15.0365 25.6412 15.4243 25.9135 15.811 26.1857L15.8332 26.2046C16.101 26.3679 16.3687 26.5312 16.6354 26.6946L16.6332 26.6912C16.7887 26.8257 16.9432 26.9601 17.0987 27.0946L17.1065 27.1001C17.8799 27.7157 18.6521 28.3301 19.4254 28.9457C18.6521 30.2457 17.8799 31.5457 17.1065 32.8457C16.4132 34.129 15.721 35.4124 15.0276 36.6957L14.9999 36.7201Z" fill="white"/>
<path d="M25.431 86.2222C23.1733 88.7633 20.9155 91.3055 18.4855 94.0411C15.9388 91.23 13.4944 88.5322 10.9199 85.6922C13.8821 83.5166 16.6144 81.5089 19.3466 79.5022C20.3955 80.7278 21.4444 81.9544 22.4933 83.18C23.4733 84.1578 24.4521 85.1344 25.4321 86.1122C25.4588 86.15 25.4577 86.1866 25.4299 86.2233L25.431 86.2222Z" fill="white"/>
<path d="M71.6802 14.8878C73.0591 11.8222 74.4391 8.75666 75.8702 5.57666C79.3157 7.07333 82.4791 8.91444 85.5646 11.1678C83.5313 13.9722 81.5357 16.7233 79.5391 19.4744C78.2368 18.6844 76.9357 17.8933 75.6335 17.1033C74.3291 16.44 73.0235 15.7767 71.7191 15.1133C71.7057 15.0378 71.6924 14.9633 71.6802 14.8878Z" fill="white"/>
<path d="M11.4378 49.7945C8.29673 49.4833 5.1545 49.1845 2.01673 48.8367C1.76117 48.8089 1.32673 48.4267 1.34117 48.2367C1.60673 44.69 2.44562 41.2633 3.51895 37.76C5.34228 38.3422 7.02673 38.8622 8.69895 39.4189C10.1989 39.9178 11.6867 40.4578 13.1789 40.9789C13.1067 41.3656 13.0356 41.7522 12.9601 42.1389C12.7478 43.2278 12.5345 44.3156 12.3212 45.4045C12.0201 46.8722 11.7189 48.34 11.4167 49.8078L11.4378 49.7945Z" fill="white"/>
<path d="M75.7746 91.4866C77.4524 94.4088 79.1302 97.3322 80.8768 100.373C77.6557 102.288 74.289 103.786 70.6457 104.934C69.5813 101.633 68.5502 98.4322 67.519 95.2311C67.8746 95.0811 68.2313 94.9333 68.5846 94.7799C69.6246 94.3299 70.6624 93.8777 71.7013 93.4266C73.0124 92.7788 74.3246 92.1311 75.6368 91.4822L75.7057 91.5033L75.7757 91.4855L75.7746 91.4866Z" fill="white"/>
<path d="M16.7143 75.9112C13.9021 77.5556 11.0899 79.2012 8.13987 80.9268C6.14764 77.7456 4.76653 74.3312 3.50098 70.6812C6.73431 69.6534 9.89653 68.649 13.0576 67.6445C13.2454 67.9234 13.4732 68.1834 13.6154 68.4834C14.1165 69.5334 14.5876 70.5968 15.071 71.6545C15.6921 72.9601 16.3132 74.2656 16.9343 75.5701C16.861 75.6834 16.7876 75.7979 16.7143 75.9112Z" fill="white"/>
<path d="M58.9823 8.31327C59.23 6.04216 59.4778 3.77105 59.7478 1.29883C63.4823 1.58438 67.0634 2.43105 70.7389 3.58216C69.66 6.87883 68.6267 10.0355 67.5945 13.1922C67.4289 13.2377 67.2445 13.3555 67.0989 13.3199C65.7223 12.9822 64.3523 12.6166 62.9811 12.2599C61.5156 11.9999 60.05 11.7399 58.5845 11.4811L58.5989 11.4866C58.7267 10.4288 58.8545 9.37216 58.9823 8.31438V8.31327Z" fill="white"/>
<path d="M91.5291 32.6501C94.4468 30.979 97.3657 29.3067 100.531 27.4934C102.072 30.939 103.558 34.2612 105.131 37.7779C101.718 38.8545 98.5535 39.8534 95.3891 40.8523C95.2513 40.8179 95.0202 40.8201 94.9891 40.7423C94.6302 39.829 94.3246 38.8945 93.9524 37.9878C93.7946 37.6034 93.5135 37.2701 93.2879 36.9123C93.0824 36.3856 92.878 35.8601 92.6724 35.3334C92.2835 34.5556 91.8946 33.7767 91.5068 32.999C91.5146 32.8823 91.5213 32.7667 91.5291 32.6501Z" fill="white"/>
<path d="M36.7667 93.5811C35.5189 96.3933 34.2734 99.2077 33.0189 102.017C32.8178 102.468 32.68 102.993 31.9378 102.661C28.76 101.238 25.7878 99.4766 22.8345 97.3366C24.9045 94.5388 26.9145 91.821 28.9256 89.1033C30.2211 89.8766 31.5156 90.6511 32.8111 91.4255C34.1189 92.1077 35.4256 92.7888 36.7334 93.4699L36.7922 93.5122L36.7667 93.5811Z" fill="white"/>
<path d="M45.3347 12.1912C44.957 10.6201 44.567 9.05116 44.2036 7.47561C43.927 6.28005 43.7358 5.06228 43.4136 3.87894C42.9681 2.2445 43.1492 1.95117 44.8203 1.78005C47.417 1.51561 50.0103 1.21228 52.607 0.944499C53.0736 0.896721 53.5503 0.937832 54.2558 0.937832C54.2558 4.13672 54.2558 7.31561 54.2558 10.4956C54.2558 10.7801 54.2558 11.0645 54.2558 11.3478C53.5758 11.3556 52.8914 11.3134 52.2192 11.3856C51.4281 11.4712 50.6481 11.6556 49.8636 11.7967C49.357 11.7623 48.8403 11.6467 48.347 11.7089C47.3658 11.8323 46.3981 12.0523 45.4236 12.2334L45.3347 12.1901V12.1912Z" fill="white"/>
<path d="M86.4876 82.5868C86.0432 83.2135 86.6643 83.4101 86.9676 83.6857C89.2199 85.7335 91.4877 87.7624 93.9843 90.0057C91.2032 92.5235 88.4843 94.9835 85.6243 97.5724C83.4865 94.5957 81.5099 91.8435 79.5332 89.0913C79.7021 88.9424 79.8821 88.8024 80.0388 88.6413C80.9343 87.7257 82.4699 87.3968 82.6376 85.8124C82.8143 85.8646 83.0865 86.0168 83.1532 85.9535C84.041 85.1079 84.9176 84.2479 85.7488 83.3479C85.8721 83.2146 85.7532 82.859 85.7476 82.6057C85.9943 82.599 86.241 82.5935 86.4876 82.5868Z" fill="white"/>
<path d="M83.027 22.2078C85.2825 19.7033 87.537 17.1989 89.9781 14.4878C92.5003 17.28 94.9425 19.9833 97.5259 22.8433C94.6114 24.95 91.8903 26.9156 89.1703 28.8811C88.8003 28.5033 88.4336 28.1233 88.0603 27.75C87.3892 27.0778 86.7148 26.4089 86.0414 25.7389C85.0292 24.6556 84.0181 23.5722 83.0059 22.4889C83.0125 22.3956 83.0203 22.3011 83.027 22.2078Z" fill="white"/>
<path d="M96.9922 58.79C100.373 59.1134 103.753 59.4367 107.413 59.7867C106.626 63.5345 105.873 67.1178 105.089 70.8545C101.699 69.7234 98.5855 68.6834 95.4722 67.6445C95.4666 67.2034 95.3933 66.7512 95.4677 66.3245C95.6544 65.2545 95.9077 64.1956 96.1344 63.1323C96.3933 61.7456 96.6522 60.3578 96.91 58.9712C96.9533 58.9178 96.9811 58.8578 96.9922 58.79Z" fill="white"/>
<path d="M49.8377 96.9666C49.4899 100.027 49.1421 103.086 48.7943 106.146C48.7577 106.464 48.7177 106.782 48.6388 107.429C44.9766 106.664 41.3966 105.917 37.6621 105.137C38.7899 101.648 39.8232 98.4511 40.8577 95.2544C41.2354 95.3388 41.611 95.4377 41.991 95.5044C43.1154 95.7011 44.2421 95.8844 45.3677 96.0733C46.8243 96.3699 48.2799 96.6666 49.7366 96.9633L49.8377 96.9666Z" fill="white"/>
<path d="M93.5202 71.6367C96.6168 73.0545 99.7135 74.4734 103.087 76.0178C101.216 79.2512 99.3791 82.4245 97.4624 85.7356C94.4979 83.5689 91.8068 81.6023 89.1157 79.6356C89.2257 79.4212 89.3235 79.1989 89.4479 78.9923C90.1357 77.8434 90.8302 76.6989 91.5224 75.5523C92.1157 74.2534 92.7091 72.9534 93.3024 71.6545L93.5202 71.6367Z" fill="white"/>
<path d="M63.2021 96.8978C63.9177 99.9945 64.6332 103.092 65.3832 106.332C61.6754 107.171 57.9999 107.528 54.1743 107.526C54.1743 104.019 54.1743 100.612 54.1743 97.2045C55.6743 97.0945 57.1743 96.9856 58.6743 96.8756C60.1765 96.6867 61.6788 96.4978 63.181 96.3101C63.1876 96.5056 63.1954 96.7012 63.2021 96.8978Z" fill="white"/>
<path d="M101.612 134.341H98.0303V118.22H101.404V120.854C102.964 118.519 104.799 117.366 107.45 117.833V121.197C107.329 121.214 107.187 121.272 107.058 121.25C103.441 120.622 101.711 123.329 101.629 126.071C101.548 128.791 101.612 131.516 101.612 134.341Z" fill="white"/>
<path d="M86.0411 25.739C86.7144 26.409 87.3889 27.0779 88.06 27.7501C88.4333 28.1246 88.8 28.5035 89.17 28.8812C89.9566 30.1368 90.7422 31.3923 91.5278 32.649C91.52 32.7657 91.5122 32.8812 91.5055 32.9979C91.3 33.0412 91.0666 33.0368 90.8933 33.1368C88.71 34.3912 86.5355 35.6612 84.3589 36.9268C84.0944 36.6046 83.82 36.2901 83.5678 35.9601C83.0844 35.3279 82.6133 34.6868 82.1366 34.049C81.41 33.0868 80.6822 32.1246 79.9555 31.1623L79.9478 31.079C80.3678 30.689 80.7789 30.2868 81.2111 29.9112C82.8178 28.5157 84.43 27.129 86.0411 25.739Z" fill="white"/>
<path d="M12.3223 45.4035C12.5356 44.3146 12.7489 43.2268 12.9612 42.1379C13.0367 41.7512 13.1067 41.3646 13.18 40.9779C13.7867 39.559 14.3934 38.139 15 36.7201L15.0278 36.6946C17.4689 37.799 19.91 38.9024 22.3512 40.0068C22.2845 40.3924 22.2578 40.7901 22.1423 41.1601C21.8767 42.0146 21.5667 42.8568 21.2756 43.7035C21.0212 44.6012 20.81 45.5157 20.4878 46.389C20.3912 46.6524 19.9878 46.8035 19.7256 47.0057C19.5923 46.9835 19.4589 46.9612 19.3256 46.9401C19.2478 46.9024 19.1689 46.8657 19.0912 46.8279C16.8356 46.3535 14.5789 45.879 12.3234 45.4046L12.3223 45.4035Z" fill="white"/>
<path d="M32.8102 91.4256C31.5146 90.6512 30.2191 89.8778 28.9246 89.1045C27.7602 88.1445 26.5957 87.1834 25.4302 86.2234C25.458 86.1867 25.4591 86.1501 25.4324 86.1123C27.2468 84.1234 29.0624 82.1356 30.8768 80.1467C31.1224 80.2812 31.378 80.4001 31.6102 80.5545C32.3824 81.069 33.1468 81.5956 33.9146 82.1178C34.8635 82.7856 35.8113 83.4534 36.7602 84.1212C36.7668 84.2412 36.7746 84.3612 36.7813 84.4801C35.458 86.7956 34.1335 89.1112 32.8102 91.4256Z" fill="white"/>
<path d="M83.0265 22.2078C83.0199 22.3012 83.0121 22.3956 83.0054 22.4889C82.7188 22.7589 82.4154 23.0123 82.1488 23.3012C80.5765 25.0034 79.0143 26.7145 77.4488 28.4223C76.411 27.6212 75.3732 26.82 74.3354 26.0189C73.4499 25.4678 72.5654 24.9178 71.6799 24.3678C71.5476 24.1356 71.4154 23.9034 71.2832 23.6712C71.7065 23.2589 72.2343 22.9112 72.5332 22.4245C73.6088 20.6767 74.6065 18.8812 75.6332 17.1045C76.9354 17.8945 78.2365 18.6845 79.5388 19.4756C80.701 20.3867 81.8632 21.2978 83.0254 22.2078H83.0265Z" fill="white"/>
<path d="M93.2881 36.9124C93.5136 37.269 93.7948 37.6035 93.9525 37.9879C94.3248 38.8946 94.6303 39.829 94.9892 40.7424C95.0192 40.819 95.2514 40.8179 95.3892 40.8524C95.5303 41.7079 95.6648 42.5635 95.8159 43.4168C95.9214 44.0101 96.0481 44.6001 96.1659 45.1924C96.1281 45.2424 96.1214 45.2957 96.147 45.3524C93.5248 45.9112 90.9025 46.4712 88.2792 47.0301C88.1348 46.7179 87.9603 46.4168 87.8503 46.0924C87.5759 45.2824 87.3303 44.4635 87.0736 43.6479C86.6914 42.4768 86.3092 41.3068 85.9292 40.1401C86.4448 39.8679 86.9403 39.6068 87.437 39.3457L87.4303 39.3535C88.4381 38.9068 89.4459 38.459 90.4548 38.0124L90.4681 38.0068C90.7703 37.8735 91.0714 37.7401 91.3736 37.6068L91.3659 37.6168C92.007 37.3824 92.6481 37.149 93.2892 36.9146L93.2881 36.9124Z" fill="white"/>
<path d="M25.4043 22.41C26.6343 21.39 27.8632 20.3711 29.0932 19.3522C30.2221 18.59 31.3521 17.8289 32.481 17.0666C32.5754 17.06 32.671 17.0533 32.7665 17.0466C32.8687 17.2377 32.9654 17.4311 33.0721 17.62C34.2987 19.7822 35.5265 21.9433 36.7543 24.1055C36.4065 24.3811 36.051 24.6477 35.7121 24.9344C35.1054 25.4477 34.5087 25.9733 33.9087 26.4944C32.9976 27.1377 32.0865 27.78 31.1754 28.4233C31.0965 28.4233 31.0165 28.4255 30.9376 28.4266C29.0932 26.4211 27.2487 24.4155 25.4043 22.41Z" fill="white"/>
<path d="M63.2025 96.8978C63.1958 96.7022 63.188 96.5067 63.1814 96.31C62.5925 93.6167 62.0036 90.9244 61.4136 88.2311C62.5391 87.8178 63.6647 87.4033 64.7891 86.99C65.9236 86.6567 67.058 86.3233 68.1925 85.99C68.2547 85.99 68.3147 86.0011 68.3725 86.0244C69.4825 88.4922 70.5914 90.9589 71.7014 93.4267C70.6625 93.8778 69.6236 94.33 68.5847 94.78C68.2302 94.9333 67.8747 95.0811 67.5191 95.2311C66.2891 95.5344 65.0491 95.8055 63.8358 96.1655C63.5758 96.2433 63.4114 96.6444 63.2036 96.8967L63.2025 96.8978Z" fill="white"/>
<path d="M45.368 96.0734C44.2424 95.8846 43.1158 95.7012 41.9913 95.5046C41.6102 95.4379 41.2358 95.339 40.858 95.2546C39.4935 94.6968 38.1302 94.139 36.7658 93.5812L36.7913 93.5134L36.7324 93.4712C37.8346 90.999 38.9369 88.5279 40.0402 86.0557C41.198 86.4157 42.3558 86.7757 43.5135 87.1357C44.6869 87.449 45.8591 87.7623 47.0324 88.0757C46.9869 88.1068 46.978 88.1468 47.0069 88.1946C46.4613 90.8212 45.9146 93.4479 45.3691 96.0757L45.368 96.0734Z" fill="white"/>
<path d="M15.0713 71.6545C14.588 70.5956 14.1169 69.5323 13.6157 68.4823C13.4724 68.1823 13.2446 67.9223 13.058 67.6434C12.8991 66.7112 12.7424 65.7778 12.578 64.8456C12.4857 64.32 12.3813 63.7967 12.2813 63.2723C12.258 63.2323 12.2624 63.1945 12.2946 63.1612C14.7157 62.6378 17.138 62.1223 19.5546 61.5823C19.8024 61.5267 20.018 61.3256 20.248 61.1912C20.3535 61.6367 20.4246 62.0945 20.5713 62.5267C20.8469 63.3389 21.1669 64.1367 21.468 64.94C21.728 65.7578 21.9657 66.5845 22.2546 67.3912C22.478 68.0167 22.4902 68.4312 21.7357 68.7434C19.4957 69.6689 17.2902 70.6778 15.0702 71.6534L15.0713 71.6545Z" fill="white"/>
<path d="M82.6391 85.8134C82.4713 87.3978 80.9358 87.7267 80.0402 88.6423C79.8824 88.8034 79.7036 88.9422 79.5347 89.0922C78.2813 89.8911 77.0291 90.69 75.7758 91.4889L75.7058 91.5056L75.6369 91.4845C74.3169 89.14 72.9969 86.7956 71.6758 84.4511C71.8936 84.2411 72.1058 84.0234 72.3313 83.8211C73.0047 83.2167 73.6824 82.6178 74.3591 82.0167C74.6991 81.8889 75.0747 81.8167 75.3713 81.6245C76.1336 81.1289 76.8613 80.58 77.6024 80.0522C79.2813 81.9734 80.9602 83.8934 82.638 85.8145L82.6391 85.8134Z" fill="white"/>
<path d="M93.5202 71.6366C93.448 71.6422 93.3746 71.6477 93.3024 71.6533C90.8513 70.5655 88.4013 69.4789 85.9502 68.3922L86.9635 64.9133C87.3258 63.7655 87.6869 62.6177 88.0491 61.47C90.7446 62.0244 93.4391 62.5777 96.1346 63.1322C95.908 64.1955 95.6546 65.2544 95.468 66.3244C95.3935 66.7511 95.4669 67.2033 95.4724 67.6444C95.2602 67.8833 94.9713 68.0889 94.8491 68.3666C94.378 69.4433 93.9591 70.5444 93.5213 71.6355L93.5202 71.6366Z" fill="white"/>
<path d="M62.9801 12.259C64.3523 12.6157 65.7212 12.9801 67.0978 13.319C67.2434 13.3546 67.4278 13.2379 67.5934 13.1913C68.9556 13.7568 70.3178 14.3224 71.6801 14.889C71.6934 14.9646 71.7056 15.039 71.7189 15.1146C70.6223 17.5113 69.5256 19.9079 68.4278 22.3046C67.5167 22.249 66.5423 22.4913 65.8456 21.5513C65.7312 21.3968 65.1323 21.6013 64.7567 21.6401C64.5901 21.439 64.4567 21.1135 64.2512 21.059C63.3201 20.8124 62.3678 20.6424 61.4234 20.4446L61.4189 20.3868C61.5889 19.579 61.7734 18.7735 61.9267 17.9635C62.2856 16.0635 62.6301 14.1601 62.9801 12.259Z" fill="white"/>
<path d="M45.3346 12.1912L45.4235 12.2345C45.488 12.8034 45.5068 13.3812 45.6235 13.9389C46.0091 15.7823 46.4302 17.6178 46.8368 19.4567C46.8713 19.7212 46.9068 19.9856 46.9413 20.25C46.6846 20.3534 46.4324 20.4667 46.1713 20.5578C45.3057 20.8567 44.4357 21.1478 43.5679 21.4412C43.2668 21.5156 42.9668 21.5989 42.6624 21.6645C41.7168 21.8701 40.7691 22.0689 39.8224 22.2701C38.8002 19.9345 37.7779 17.5989 36.7568 15.2634C37.4979 14.8434 38.2135 14.3689 38.9857 14.0212C39.7279 13.6867 40.5302 13.4834 41.3057 13.2223C42.6491 12.8789 43.9924 12.5356 45.3346 12.1934V12.1912Z" fill="white"/>
<path d="M91.5224 75.5512C90.8302 76.6979 90.1358 77.8423 89.448 78.9912C89.3246 79.1979 89.2269 79.4201 89.1157 79.6346C88.2402 80.6179 87.3646 81.6012 86.4891 82.5857C86.2424 82.5934 85.9946 82.6001 85.748 82.6057C83.8869 80.9201 82.0269 79.2346 80.168 77.549C80.3991 77.2179 80.6391 76.8923 80.8591 76.5546C81.3002 75.8779 81.7291 75.1946 82.1635 74.5134C82.8002 73.4979 83.4369 72.4812 84.0735 71.4657C84.148 71.4523 84.2224 71.439 84.2969 71.4246C86.0991 72.519 87.8924 73.6279 89.7091 74.699C90.2824 75.0368 90.9157 75.2701 91.5224 75.5512Z" fill="white"/>
<path d="M11.5289 58.9655C11.4877 57.7067 11.4566 56.4467 11.3966 55.1889C11.38 54.8467 11.2744 54.5078 11.21 54.1678C11.2855 52.71 11.3622 51.2522 11.4377 49.7944L11.4177 49.8078C13.1733 49.9489 14.9277 50.09 16.6833 50.2311C17.6888 50.3611 18.6944 50.4922 19.7 50.6222L19.7177 54.3078C19.72 55.5022 19.7222 56.6967 19.7244 57.8911L19.7377 57.8755C17.5522 58.1078 15.3644 58.3244 13.1822 58.5811C12.6244 58.6467 12.0811 58.8355 11.5311 58.9667L11.5289 58.9655Z" fill="white"/>
<path d="M96.9925 58.79C96.9814 58.8578 96.9536 58.9178 96.9103 58.9711C96.3647 58.8434 95.8259 58.6611 95.2736 58.5978C93.0992 58.3489 90.9203 58.1367 88.7425 57.91C88.7381 57.5145 88.7247 57.1178 88.7314 56.7222C88.7514 55.4434 88.7792 54.1645 88.8036 52.8845L88.647 50.7734L88.6759 50.69C91.387 50.3867 94.097 50.0834 96.8081 49.78C96.877 50.2256 96.9725 50.6689 97.0103 51.1167C97.1025 52.1945 97.167 53.2745 97.2425 54.3534C97.1592 55.8311 97.0759 57.3111 96.9925 58.79Z" fill="white"/>
<path d="M16.7144 75.9113C16.7877 75.7979 16.861 75.6846 16.9332 75.5702C17.2599 75.4368 17.6044 75.3379 17.9099 75.1657C19.9832 73.9979 22.0477 72.8157 24.1144 71.6379C24.8455 72.6068 25.5777 73.5757 26.3088 74.5435C27.0266 75.4779 27.7444 76.4135 28.4632 77.3479C28.4632 77.3979 28.4599 77.4479 28.4577 77.4979C26.861 78.9302 25.2532 80.349 23.6766 81.8013C23.2344 82.209 22.8855 82.7168 22.4944 83.1779C21.4455 81.9524 20.3966 80.7257 19.3477 79.5002C18.6721 78.4346 18.0077 77.3602 17.3088 76.3102C17.1866 76.1257 16.9166 76.0402 16.7144 75.909V75.9113Z" fill="white"/>
<path d="M58.6746 96.8756C57.1746 96.9856 55.6746 97.0944 54.1746 97.2044C52.7301 97.1255 51.2846 97.0456 49.839 96.9667L49.7368 96.9633C49.9801 94.2044 50.2235 91.4444 50.4668 88.6855C51.7257 88.7411 52.9846 88.7967 54.2435 88.8511C55.4279 88.7889 56.6135 88.7256 57.7979 88.6633H57.8535L57.9079 88.67C58.1635 91.4055 58.419 94.1411 58.6746 96.8756Z" fill="white"/>
<path d="M49.8634 11.799C50.6479 11.6579 51.4279 11.4724 52.219 11.3879C52.8912 11.3157 53.5767 11.3579 54.2556 11.3501C55.1167 11.3457 55.9767 11.3401 56.8379 11.3357C57.129 11.3379 57.4212 11.3412 57.7123 11.3435C58.0079 11.3912 58.3023 11.439 58.5979 11.4868L58.5834 11.4812C58.309 14.2135 58.0345 16.9457 57.7612 19.6768C56.5734 19.6835 55.3867 19.6901 54.199 19.6968C53.0767 19.6968 51.9556 19.6968 50.8956 19.6968C50.6701 19.3524 50.4867 19.0724 50.3034 18.7924L50.2723 17.9246C50.1379 16.749 50.0034 15.5735 49.8679 14.3968C49.8656 13.5312 49.8645 12.6657 49.8623 11.8001L49.8634 11.799Z" fill="white"/>
<path d="M21.0858 12.2866C20.9313 12.43 20.778 12.5733 20.6235 12.7177C20.778 12.5744 20.9313 12.4311 21.0858 12.2866Z" fill="white"/>
<path d="M16.7124 16.209C16.5602 16.3545 16.4091 16.5001 16.2568 16.6468C16.4091 16.5012 16.5602 16.3557 16.7124 16.209Z" fill="white"/>
<path d="M17.0979 27.0933C16.9423 26.9588 16.7879 26.8244 16.6323 26.6899C16.7868 26.8244 16.9423 26.9588 17.0979 27.0933Z" fill="white"/>
<path d="M13.3946 24.4734C13.3101 24.4068 13.2257 24.3401 13.1401 24.2734C13.2246 24.3401 13.309 24.4068 13.3946 24.4734Z" fill="white"/>
<path d="M16.6943 20.6379C16.7999 20.7435 16.9043 20.8479 17.011 20.9535C16.9054 20.8491 16.7999 20.7435 16.6943 20.6379Z" fill="white"/>
<path d="M19.4244 28.9445C19.9821 28.2011 20.5399 27.4589 21.0977 26.7156C21.4888 26.3489 21.8799 25.9823 22.361 25.53C24.3788 27.3523 26.3988 29.1789 28.4199 31.0045C28.0032 31.5123 27.5599 32 27.1766 32.5323C26.8421 32.9967 26.5744 33.51 26.2766 34.0011L24.2932 36.9611C24.2399 36.9411 24.1888 36.9467 24.141 36.9756C21.7955 35.5989 19.451 34.2223 17.1055 32.8445C17.8788 31.5445 18.651 30.2445 19.4244 28.9445Z" fill="white"/>
<path d="M77.4491 28.4235C78.2825 29.3079 79.1147 30.1935 79.948 31.079L79.9558 31.1624C78.3447 32.6424 76.7325 34.1224 75.1213 35.6024C74.8358 35.339 74.5658 35.0557 74.2613 34.8157C73.7502 34.4146 73.2169 34.0413 72.6936 33.6557C72.2458 33.1935 71.8047 32.7246 71.3491 32.2713C70.9447 31.869 70.448 31.579 71.1302 30.9135C71.7558 30.3035 72.2458 29.539 72.7225 28.7957C73.3002 27.8957 73.8013 26.9468 74.3347 26.019C75.3725 26.8202 76.4102 27.6213 77.448 28.4224L77.4491 28.4235Z" fill="white"/>
<path d="M85.5901 39.1356C85.6245 39.269 85.659 39.4012 85.6934 39.5345C85.5467 39.8612 85.4856 40.3723 85.2401 40.4867C83.4434 41.3212 81.6101 42.0767 79.7879 42.8567C79.3345 42.0234 78.8834 41.1901 78.4212 40.3612C78.4134 40.3467 78.2901 40.3956 78.2212 40.4145C77.7245 39.5923 77.2268 38.7712 76.7301 37.949C76.7268 37.8478 76.7245 37.7467 76.7212 37.6445C76.9179 37.5745 77.1412 37.5423 77.3067 37.4267C78.9223 36.3079 80.5279 35.1756 82.1367 34.0479C82.6134 34.6856 83.0845 35.3267 83.5679 35.959C83.8212 36.2901 84.0945 36.6045 84.359 36.9256C84.6401 37.4345 84.9223 37.9445 85.2034 38.4534C85.3323 38.6801 85.4612 38.909 85.5901 39.1356Z" fill="white"/>
<path d="M22.3512 40.0067C22.9478 38.9956 23.5445 37.9845 24.1412 36.9745C24.1901 36.9467 24.2412 36.9412 24.2945 36.9612C26.1712 38.0656 28.0478 39.1701 29.9256 40.2745C29.5312 41.1845 29.1356 42.0945 28.7412 43.0045C28.4312 43.8423 28.1223 44.6812 27.8123 45.5189C27.2867 45.4067 26.7512 45.3256 26.2367 45.1767C24.5801 44.6989 22.9301 44.1967 21.2778 43.7034C21.5689 42.8567 21.8789 42.0145 22.1445 41.1601C22.2601 40.7901 22.2867 40.3923 22.3534 40.0067H22.3512Z" fill="white"/>
<path d="M40.0403 86.0556C38.9536 85.5312 37.868 85.0056 36.7814 84.4801C36.7747 84.3601 36.7669 84.2401 36.7603 84.1201C36.998 83.8123 37.2714 83.5256 37.4691 83.1945C38.3747 81.6734 39.2603 80.1412 40.1525 78.6123C41.0914 78.9067 42.0314 79.2012 42.9703 79.4956C43.8125 79.9323 44.6547 80.3701 45.498 80.8067C45.5191 80.8745 45.5214 80.9423 45.5014 81.0112C44.838 83.0523 44.1758 85.0945 43.5125 87.1356C42.3547 86.7756 41.198 86.4156 40.0403 86.0556Z" fill="white"/>
<path d="M30.878 80.1468C30.0713 79.2646 29.2647 78.3813 28.458 77.4991C28.4602 77.4491 28.4625 77.3991 28.4636 77.3491C30.0647 75.9557 31.6647 74.5624 33.2658 73.1702C34.0547 73.7457 34.8436 74.3213 35.6325 74.8968C36.418 75.4757 37.2036 76.0546 37.9891 76.6346C38.0113 76.7524 38.0347 76.8702 38.0569 76.9879C37.7725 77.2368 37.4391 77.4479 37.2136 77.7413C36.098 79.1891 35.0113 80.6579 33.9147 82.1191C33.1469 81.5968 32.3836 81.0702 31.6102 80.5557C31.378 80.4013 31.1225 80.2835 30.8769 80.1479L30.878 80.1468Z" fill="white"/>
<path d="M68.429 22.3045C69.1234 23.2968 70.1834 23.5268 71.2834 23.6712C71.4157 23.9034 71.5479 24.1357 71.6801 24.3679C71.4023 24.7334 71.089 25.0779 70.8534 25.4679C69.9534 26.9545 69.0768 28.4557 68.1923 29.9512C67.2968 29.5834 66.4023 29.2157 65.5068 28.8479C64.8646 28.5545 64.1946 28.3079 63.5934 27.9468C63.309 27.7757 63.1579 27.3845 62.9468 27.0934C63.5512 25.2757 64.1546 23.4568 64.759 21.639C65.1346 21.6001 65.7334 21.3957 65.8479 21.5501C66.5446 22.4901 67.519 22.2479 68.4301 22.3034L68.429 22.3045Z" fill="white"/>
<path d="M88.279 47.0289C88.4112 48.2489 88.5434 49.4701 88.6745 50.6912C88.6745 50.6912 88.6456 50.7756 88.6456 50.7767C86.4868 50.9623 84.3279 51.1478 82.1679 51.3323C81.8979 50.1656 81.6279 48.9989 81.359 47.8323C81.1934 47.1612 81.0279 46.4889 80.8623 45.8178C80.9167 45.7378 80.9723 45.6578 81.0268 45.5778C81.3979 45.4423 81.7634 45.2934 82.1401 45.1756C83.7834 44.6612 85.429 44.1556 87.0734 43.6467C87.3301 44.4623 87.5756 45.2812 87.8501 46.0912C87.9601 46.4145 88.1334 46.7167 88.279 47.0289Z" fill="white"/>
<path d="M26.2765 34.0013C26.5743 33.5101 26.8421 32.9968 27.1765 32.5324C27.5598 32.0001 28.0032 31.5124 28.4198 31.0046C29.2587 30.1446 30.0976 29.2846 30.9365 28.4257C31.0165 28.4257 31.0954 28.4235 31.1754 28.4224C31.3821 28.7135 31.5654 29.0235 31.7987 29.2913C33.0076 30.6735 34.2287 32.0435 35.4454 33.4179L33.3265 35.6657C32.7854 36.3846 32.2454 37.1046 31.7043 37.8235C31.6521 37.8268 31.6009 37.8201 31.5509 37.8013C29.7921 36.5346 28.0343 35.2679 26.2754 34.0013H26.2765Z" fill="white"/>
<path d="M36.7555 24.1057C37.7777 23.6223 38.7999 23.1379 39.8222 22.6545C39.9855 22.759 40.2344 22.8245 40.2988 22.9723C41.1266 24.8423 41.9277 26.7234 42.7355 28.6023C41.9088 29.1201 41.0822 29.639 40.2544 30.1568C39.4777 30.6312 38.6999 31.1057 37.9233 31.5812C37.8433 31.5557 37.7644 31.529 37.6844 31.5034C36.4255 29.8345 35.1666 28.1657 33.9077 26.4968C34.5088 25.9757 35.1044 25.4501 35.711 24.9368C36.0499 24.6501 36.4055 24.3834 36.7533 24.1079L36.7555 24.1057Z" fill="white"/>
<path d="M61.4136 88.2312C60.2447 88.3779 59.0758 88.5234 57.9069 88.6701L57.8513 88.6635H57.7958C57.568 86.4779 57.3391 84.2935 57.1113 82.1079C57.4513 81.969 57.7802 81.7623 58.1336 81.7068C58.7936 81.6035 59.468 81.5879 60.1369 81.5357C61.0291 81.2868 61.9224 81.0379 62.8147 80.789L62.8669 80.7612L62.9224 80.7801C63.0158 81.1279 63.1002 81.479 63.2058 81.8235C63.7313 83.5468 64.2613 85.2679 64.7902 86.9901C63.6647 87.4035 62.538 87.8179 61.4136 88.2312Z" fill="white"/>
<path d="M71.6759 84.45C70.5748 84.9745 69.4736 85.5 68.3725 86.0245C68.3148 86.0012 68.2548 85.9889 68.1925 85.99C68.1125 85.7167 68.0603 85.4323 67.9492 85.1734C67.1992 83.4412 66.437 81.7145 65.6792 79.9856C66.5236 79.4389 67.367 78.8923 68.2114 78.3456C68.9792 77.8489 69.7459 77.3523 70.5136 76.8545C70.5925 76.8667 70.6725 76.8789 70.7514 76.8912C71.9548 78.5989 73.157 80.3067 74.3603 82.0145C73.6836 82.6156 73.0059 83.2145 72.3325 83.8189C72.107 84.0212 71.8948 84.2389 71.677 84.4489L71.6759 84.45Z" fill="white"/>
<path d="M50.4669 88.6856C49.3135 88.5211 48.1602 88.3567 47.0069 88.1922C46.978 88.1444 46.9869 88.1045 47.0324 88.0733C47.4735 85.9389 47.9146 83.8045 48.3558 81.67H50.9669C51.168 81.1211 51.2958 80.7733 51.4235 80.4233C51.4235 80.9245 51.4235 81.4256 51.4235 82.0178C52.378 82.0867 53.3058 82.1533 54.2346 82.22L54.2202 82.2333C54.228 84.4389 54.2358 86.6456 54.2435 88.8511C52.9846 88.7956 51.7258 88.74 50.4669 88.6856Z" fill="white"/>
<path d="M27.2047 63.05C25.2936 63.68 23.3814 64.31 21.4703 64.94C21.1681 64.1367 20.8492 63.3389 20.5725 62.5267C20.4259 62.0945 20.3547 61.6367 20.2492 61.1911C20.0781 60.0856 19.9081 58.98 19.737 57.8745L19.7236 57.89C21.9025 57.6622 24.0814 57.4333 26.2592 57.2056C26.4925 58.1678 26.7259 59.13 26.9581 60.0922C27.1859 61.0267 27.4125 61.9611 27.6403 62.8956C27.4947 62.9467 27.3492 62.9989 27.2047 63.05Z" fill="white"/>
<path d="M85.9502 68.3922C85.3991 69.4033 84.848 70.4133 84.2969 71.4244C84.2225 71.4377 84.148 71.4522 84.0736 71.4655C82.2124 70.4111 80.3513 69.3566 78.4902 68.3022C78.8936 67.3866 79.2969 66.471 79.7002 65.5555C80.0469 64.6766 80.3925 63.7988 80.738 62.9199L80.8113 62.9077C82.8625 63.5766 84.9125 64.2444 86.9636 64.9133L85.9502 68.3922Z" fill="white"/>
<path d="M57.7611 19.6755C58.9811 19.9122 60.2 20.1489 61.42 20.3855L61.4244 20.4433C61.0166 22.5189 60.6089 24.5944 60.2011 26.6711C60.12 26.6855 60.0389 26.7 59.9578 26.7133C58.9955 26.6466 58.0344 26.5811 57.0722 26.5144C56.1178 26.4178 55.1633 26.32 54.2078 26.2233C54.2044 24.0478 54.2011 21.8711 54.1978 19.6955C55.3855 19.6889 56.5722 19.6822 57.76 19.6755H57.7611Z" fill="white"/>
<path d="M43.5679 21.44C44.4356 21.1466 45.3045 20.8555 46.1712 20.5566C46.4323 20.4666 46.6845 20.3522 46.9401 20.2488C48.1445 20.1155 49.3512 19.9833 50.6456 19.8411C50.8479 22.0133 51.0434 24.12 51.239 26.2255C50.6056 26.37 49.9657 26.4877 49.3434 26.67C49.0423 26.7577 48.7745 26.9633 48.4912 27.1155C47.8556 27.2211 47.2101 27.2866 46.5879 27.4433C45.8901 27.6188 45.4479 27.56 45.2168 26.7388C44.7168 24.9588 44.1234 23.2044 43.5679 21.44Z" fill="white"/>
<path d="M77.4033 79.8656C75.9467 78.3022 74.4889 76.7378 73.0322 75.1745C73.2511 74.8678 73.4611 74.5545 73.6911 74.2578C74.0456 73.7989 74.4144 73.3511 74.7767 72.8978C75.4178 72.1767 76.06 71.4545 76.7011 70.7334C76.7778 70.72 76.8533 70.7067 76.93 70.6934C78.6744 71.9667 80.4189 73.2411 82.1633 74.5145C81.7289 75.1956 81.2989 75.8789 80.8589 76.5556C80.6389 76.8934 80.3989 77.2189 80.1678 77.55C79.3078 78.31 78.4478 79.0689 77.5878 79.8289C77.5878 79.8289 77.5489 79.8078 77.5489 79.8067C77.5222 79.7578 77.4967 79.71 77.47 79.6622C77.4478 79.73 77.4256 79.7978 77.4033 79.8656Z" fill="white"/>
<path d="M19.7732 49.8844C19.9621 48.9811 20.1521 48.0789 20.3598 47.0889C22.5387 47.5178 24.6421 47.9322 26.7454 48.3455C26.6754 49.3544 26.6043 50.3633 26.5343 51.3722C26.4443 52.3322 26.3543 53.2922 26.2632 54.2511L26.2754 54.3078C24.0887 54.3078 21.9032 54.3078 19.7165 54.3066C19.711 53.0778 19.7054 51.85 19.6987 50.6211C19.7087 50.4911 19.7176 50.3622 19.7276 50.2322C19.7432 50.1155 19.7576 50.0011 19.7732 49.8844Z" fill="white"/>
<path d="M88.068 61.4878C85.9614 61.0312 83.8547 60.5745 81.748 60.1178C81.8036 59.1512 81.8592 58.1856 81.9147 57.2201C82.0014 56.1989 82.0892 55.1778 82.1758 54.1578L82.158 54.1667H88.7247C88.7558 53.6689 88.7792 53.2778 88.8036 52.8867C88.7792 54.1656 88.7514 55.4445 88.7314 56.7245C88.7247 57.1201 88.738 57.5167 88.7425 57.9123C88.518 59.1045 88.2936 60.2978 88.068 61.4901V61.4878Z" fill="white"/>
<path d="M24.1146 71.6379C23.6035 70.5701 23.0924 69.5034 22.5312 68.3323C24.5257 67.4523 26.4979 66.5812 28.469 65.7112C28.6235 65.8856 28.8101 66.0401 28.9257 66.2367C29.3401 66.9367 29.7313 67.6512 30.1313 68.3612C30.5979 69.0923 31.0657 69.8234 31.5324 70.5534C31.5157 70.6045 31.5112 70.6556 31.519 70.709C29.7824 71.9879 28.0446 73.2656 26.3079 74.5445C25.5768 73.5756 24.8446 72.6067 24.1135 71.639L24.1146 71.6379Z" fill="white"/>
<path d="M30.1325 68.3611C29.7325 67.6522 29.3425 66.9378 28.9269 66.2366C28.8103 66.04 28.6236 65.8855 28.4703 65.7111C28.2703 64.7178 28.2569 63.6355 27.2036 63.05C27.3492 62.9989 27.4947 62.9478 27.6403 62.8966C29.2614 62.3766 30.8836 61.8578 32.5047 61.3389C32.7581 61.8144 32.9981 62.2978 33.2703 62.7622C33.3958 62.9766 33.5836 63.1544 33.7425 63.35C34.1636 64.0211 34.5858 64.6933 35.0069 65.3644C34.9381 65.4811 34.8681 65.5978 34.7992 65.7144C33.2436 66.5966 31.6881 67.48 30.1314 68.3622L30.1325 68.3611Z" fill="white"/>
<path d="M69.4301 37.4001C70.5179 36.1523 71.6057 34.9045 72.6935 33.6567C73.2179 34.0423 73.7513 34.4156 74.2613 34.8167C74.5657 35.0556 74.8357 35.339 75.1212 35.6034C75.6546 36.2845 76.1879 36.9656 76.7213 37.6467C76.7246 37.7478 76.7268 37.8501 76.729 37.9512C75.3468 38.9134 73.9646 39.8756 72.5824 40.8379C71.9913 40.3256 71.4001 39.8134 70.809 39.3001C70.3468 38.7267 69.8846 38.1545 69.4224 37.5812C69.4324 37.5212 69.4346 37.4601 69.4301 37.4001Z" fill="white"/>
<path d="M79.7865 42.8568C80.1999 43.7635 80.6132 44.6702 81.0265 45.5779C80.971 45.6579 80.9165 45.7379 80.861 45.8179C79.2587 46.2868 77.6565 46.7568 76.0543 47.2257C75.9399 47.2291 75.8265 47.2324 75.7121 47.2357C75.3732 46.5446 75.0343 45.8535 74.6954 45.1624C74.421 44.3735 74.1465 43.5846 73.8721 42.7957C75.321 42.0024 76.771 41.2079 78.2199 40.4146C78.2887 40.3957 78.4121 40.3468 78.4199 40.3613C78.881 41.1891 79.3332 42.0235 79.7865 42.8568Z" fill="white"/>
<path d="M29.9247 40.2735C30.4669 39.449 31.0102 38.6257 31.5525 37.8013C31.6025 37.819 31.6536 37.8268 31.7058 37.8224C32.9247 38.6957 34.1436 39.5702 35.3625 40.4435C35.5302 40.5968 35.6991 40.7502 35.8669 40.9024C35.5725 41.6102 35.278 42.3179 34.9847 43.0257C34.5513 43.689 34.1169 44.3535 33.6836 45.0168C33.6136 45.0046 33.5447 45.0079 33.4769 45.0246C31.898 44.3502 30.3191 43.6768 28.7402 43.0024C29.1347 42.0924 29.5302 41.1824 29.9247 40.2724V40.2735Z" fill="white"/>
<path d="M27.8043 45.5779C29.4632 46.1245 31.1232 46.6701 32.7821 47.2168C32.641 47.9957 32.4988 48.7757 32.3565 49.5557C32.2176 50.0845 32.1243 50.6312 31.9221 51.1334C31.7943 51.4512 31.5043 51.7045 31.2865 51.9868C29.7021 51.7823 28.1176 51.5779 26.5332 51.3734C26.6032 50.3645 26.6743 49.3557 26.7443 48.3468C27.0976 47.4245 27.451 46.5001 27.8043 45.5779Z" fill="white"/>
<path d="M40.1525 78.6124C39.4536 78.0702 38.7547 77.5279 38.0569 76.9857C38.0347 76.8679 38.0125 76.7502 37.9902 76.6324C38.9525 75.3224 39.9147 74.0124 40.8769 72.7024C41.6025 73.0702 42.3291 73.4368 43.0547 73.8046C43.7269 74.1124 44.398 74.4202 45.0702 74.7279C45.088 74.7857 45.088 74.8424 45.0702 74.9002C44.3702 76.4324 43.6702 77.9635 42.9702 79.4957C42.0313 79.2013 41.0913 78.9068 40.1525 78.6124Z" fill="white"/>
<path d="M48.3547 81.6712C47.4036 81.4512 46.4525 81.2312 45.5014 81.0112C45.5203 80.9423 45.5192 80.8745 45.498 80.8067C46.0725 79.1301 46.648 77.4523 47.2225 75.7756C48.0158 75.9212 48.8092 76.0656 49.6025 76.2112C50.2769 76.349 50.9514 76.4867 51.6258 76.6245C51.6936 76.6934 51.7614 76.7623 51.8292 76.8323C51.6936 78.0301 51.558 79.229 51.4225 80.4267C51.2947 80.7756 51.1669 81.1234 50.9658 81.6723L48.3547 81.6712Z" fill="white"/>
<path d="M33.2659 73.169C32.6836 72.349 32.1025 71.529 31.5203 70.709C31.5125 70.6557 31.517 70.6045 31.5336 70.5534C32.9714 69.5868 34.4081 68.6212 35.8459 67.6545C36.4381 68.169 37.0303 68.6834 37.6214 69.199C38.0636 69.7379 38.5059 70.2768 38.9481 70.8156C38.9503 70.9356 38.9525 71.0557 38.9536 71.1745C37.8459 72.4145 36.7392 73.6545 35.6314 74.8945C34.8425 74.319 34.0536 73.7434 33.2648 73.1679L33.2659 73.169Z" fill="white"/>
<path d="M68.1914 29.9523C68.9903 30.5001 69.7891 31.0479 70.6825 31.6601C69.6391 33.0679 68.6169 34.4468 67.5947 35.8268C67.2903 35.6923 66.9891 35.5501 66.6803 35.4246C66.2514 35.2501 65.818 35.0868 65.3858 34.919C64.7247 34.5257 64.0625 34.1312 63.4014 33.7368L63.4214 33.7168C64.1158 32.0935 64.8114 30.4701 65.5058 28.8479C66.4014 29.2157 67.2958 29.5846 68.1914 29.9523Z" fill="white"/>
<path d="M65.3867 34.9202C65.8178 35.0879 66.2522 35.2513 66.6811 35.4257C66.9889 35.5513 67.2911 35.6935 67.5955 35.8279C68.2078 36.3513 68.82 36.8757 69.4311 37.4002C69.4355 37.4613 69.4333 37.5213 69.4233 37.5813C68.44 38.6024 67.4567 39.6224 66.4722 40.6424C65.9022 40.3413 65.3311 40.0402 64.7611 39.7391C64.3022 39.3124 63.8433 38.8857 63.3267 38.4057C63.9967 37.2713 64.6922 36.0957 65.3867 34.9202Z" fill="white"/>
<path d="M82.1689 51.3323C82.1655 52.2767 82.1611 53.2212 82.1578 54.1667L82.1755 54.1578C80.38 54.1845 78.5844 54.2112 76.7889 54.2367C76.6855 53.4734 76.5833 52.7112 76.48 51.9478C76.4855 51.0889 76.4911 50.2289 76.4966 49.3701C77.7533 49.1278 79.0189 48.9178 80.2644 48.6267C80.6978 48.5256 81.4678 48.7378 81.3589 47.8323C81.6289 48.9989 81.9 50.1656 82.1689 51.3323Z" fill="white"/>
<path d="M35.4465 33.4179C36.1932 32.779 36.9399 32.139 37.6865 31.5012C37.7665 31.5279 37.8465 31.5534 37.9254 31.5801C38.9832 33.0179 40.041 34.4557 41.0999 35.8934C40.4454 36.4834 39.7899 37.0746 39.1354 37.6646C38.661 38.0768 38.1876 38.489 37.7132 38.9012C37.6565 38.8923 37.6287 38.9157 37.6265 38.9723C37.3376 38.8434 37.0032 38.7712 36.7676 38.5779C35.6065 37.6246 34.4721 36.6401 33.3276 35.6668L35.4465 33.419V33.4179Z" fill="white"/>
<path d="M42.7367 28.6013C43.6267 28.3279 44.5156 28.0535 45.5756 27.7268C46.14 29.4157 46.6956 31.079 47.2523 32.7413C46.5245 33.1001 45.7956 33.459 45.0678 33.8179C44.3845 34.1335 43.7011 34.4479 43.0189 34.7635L42.96 34.7935L42.9189 34.7424C42.0323 33.2135 41.1456 31.6846 40.2578 30.1557C41.0845 29.6379 41.9111 29.119 42.7389 28.6013H42.7367Z" fill="white"/>
<path d="M65.678 79.9867C64.7591 80.2512 63.8413 80.5156 62.9224 80.7801L62.8669 80.7612L62.8147 80.789C62.2724 79.129 61.7302 77.469 61.188 75.809C61.8713 75.4323 62.5535 75.0556 63.2358 74.679C63.9602 74.3745 64.6858 74.0701 65.4124 73.7656L65.5169 73.7712C66.4147 75.2956 67.3124 76.8212 68.2113 78.3456C67.3669 78.8923 66.5235 79.439 65.6791 79.9856L65.678 79.9867Z" fill="white"/>
<path d="M57.1123 82.109C56.1478 82.1512 55.1834 82.1934 54.2189 82.2345L54.2334 82.2201C54.22 80.4401 54.2067 78.6612 54.1934 76.8823C55.2845 76.7634 56.3756 76.6457 57.4667 76.5268C57.8589 76.4601 58.2511 76.3945 58.6434 76.3279C58.8189 76.3612 58.9945 76.3945 59.1711 76.4279C59.4934 78.1301 59.8145 79.8334 60.1367 81.5357C59.4678 81.5879 58.7945 81.6034 58.1334 81.7068C57.78 81.7623 57.4511 81.969 57.1111 82.1079L57.1123 82.109Z" fill="white"/>
<path d="M74.7759 72.8967C74.4137 73.349 74.0448 73.7979 73.6903 74.2567C73.4603 74.5545 73.2503 74.8679 73.0314 75.1734C72.2703 75.7467 71.5103 76.319 70.7492 76.8923C70.6703 76.8801 70.5903 76.8679 70.5114 76.8556C69.5059 75.4234 68.4992 73.9923 67.4937 72.5612C68.1548 71.9734 68.817 71.3845 69.4781 70.7967C69.937 70.3367 70.3948 69.8767 70.8537 69.4167C70.9603 69.4245 71.067 69.4334 71.1725 69.4412C72.3725 70.5934 73.5737 71.7456 74.7737 72.8967H74.7759Z" fill="white"/>
<path d="M26.2589 57.2068C26.2645 56.2413 26.27 55.2757 26.2756 54.3102L26.2634 54.2524C27.8689 54.2291 29.4734 54.2057 31.0789 54.1835C31.2845 54.1713 31.49 54.1602 31.6956 54.1479C31.7889 54.9624 31.8823 55.778 31.9767 56.5924C32.04 57.3891 32.1045 58.1868 32.1678 58.9835L32.1867 58.9735C30.4434 59.3468 28.7 59.7202 26.9567 60.0924C26.7234 59.1302 26.49 58.1679 26.2578 57.2057L26.2589 57.2068Z" fill="white"/>
<path d="M77.4033 79.8657C77.4255 79.7979 77.4467 79.7301 77.4689 79.6624C77.4955 79.7101 77.5211 79.7579 77.5478 79.8068C77.5111 79.8546 77.4622 79.8735 77.4033 79.8657Z" fill="white"/>
<path d="M78.4899 68.3024C77.9699 69.0991 77.4499 69.8957 76.9288 70.6935C76.8521 70.7068 76.7755 70.7202 76.6999 70.7335C75.3199 69.7113 73.9399 68.6891 72.561 67.6668C72.9199 66.948 73.2788 66.2291 73.6377 65.5102C74.021 64.7802 74.4044 64.0502 74.7877 63.3213L74.891 63.3302C76.4944 64.0724 78.0966 64.8146 79.6999 65.5568C79.2966 66.4724 78.8922 67.388 78.4899 68.3024Z" fill="white"/>
<path d="M81.9143 57.22C81.8588 58.1855 81.8032 59.1522 81.7477 60.1178C81.4354 61.0478 81.1232 61.9778 80.8099 62.9067L80.7365 62.9189C79.3154 62.4233 77.8943 61.9278 76.4732 61.4333C75.8654 61.1111 75.261 60.8311 75.981 59.9978C76.1632 59.7867 76.0377 59.31 76.0543 58.9555C76.1832 58.5233 76.3132 58.09 76.4421 57.6578C76.4477 57.5122 76.4532 57.3666 76.4577 57.2211C76.7654 57.0611 77.0832 56.7478 77.3788 56.7678C78.8932 56.8711 80.4032 57.0611 81.9143 57.22Z" fill="white"/>
<path d="M59.958 26.7145C60.888 27.0456 61.8191 27.3756 62.8602 27.7456C62.3047 29.4367 61.7602 31.0945 61.2158 32.7523C60.4269 32.6078 59.6391 32.4634 58.8502 32.319C58.1035 32.1678 57.3558 32.0167 56.6091 31.8656C56.6291 31.8045 56.6191 31.7478 56.5791 31.6978C56.7435 29.9701 56.908 28.2423 57.0724 26.5156C58.0347 26.5823 58.9958 26.6478 59.958 26.7145Z" fill="white"/>
<path d="M54.2268 26.2168C54.2268 28.0312 54.2279 29.8446 54.229 31.659C53.4279 31.7446 52.6257 31.8301 51.8245 31.9157C51.0857 32.049 50.3457 32.1824 49.6068 32.3168C49.5334 32.3079 49.4712 32.2768 49.4201 32.2235C49.1101 30.5212 48.8012 28.819 48.4912 27.1157C48.7734 26.9635 49.0412 26.7579 49.3423 26.6701C49.9645 26.489 50.6045 26.3701 51.2379 26.2257C52.2334 26.2224 53.2301 26.2201 54.2257 26.2168H54.2268Z" fill="white"/>
<path d="M49.4202 32.2234C49.4713 32.2767 49.5325 32.3078 49.6069 32.3167C49.8402 33.4901 50.0736 34.6634 50.3069 35.8378C50.0847 36.1134 49.9136 36.4745 49.628 36.6434C49.2391 36.8723 48.7625 36.9534 48.3236 37.0978C47.888 37.1934 47.4513 37.2878 47.0158 37.3834C46.9336 37.3878 46.8525 37.3934 46.7702 37.3978C46.2025 36.2045 45.6347 35.0112 45.0669 33.8189C45.7947 33.4601 46.5236 33.1012 47.2513 32.7423C47.9747 32.5689 48.6969 32.3967 49.4202 32.2234Z" fill="white"/>
<path d="M32.5045 61.3379C32.3989 60.5501 32.2934 59.7612 32.1878 58.9734L32.1689 58.9823C33.5512 58.6812 34.9345 58.3812 36.3167 58.0801C36.5634 58.6767 36.8089 59.2745 37.0556 59.8712C37.2445 60.4601 37.4345 61.0501 37.6234 61.639C37.6445 61.6745 37.6489 61.7112 37.6378 61.7512C36.3401 62.2834 35.0412 62.8156 33.7434 63.3479C33.5845 63.1534 33.3967 62.9745 33.2712 62.7601C32.9989 62.2956 32.7589 61.8123 32.5056 61.3367L32.5045 61.3379Z" fill="white"/>
<path d="M35.8458 67.6555C35.497 67.0077 35.1481 66.361 34.8003 65.7133C34.8692 65.5966 34.9392 65.4799 35.0092 65.3633C36.0514 64.6899 37.0925 64.0166 38.1347 63.3433C38.6292 63.9155 39.1247 64.4888 39.6192 65.061C39.9803 65.4622 40.3425 65.8633 40.7036 66.2644C40.6992 66.3455 40.6958 66.4255 40.6914 66.5066C39.6681 67.4044 38.6447 68.3022 37.6225 69.1988C37.0303 68.6844 36.4381 68.1699 35.847 67.6544L35.8458 67.6555Z" fill="white"/>
<path d="M72.5824 40.8356C72.7024 41.0645 72.8224 41.2934 72.9436 41.5223C73.0958 41.7667 73.2491 42.0123 73.4013 42.2567C73.3836 42.3245 73.408 42.3678 73.4747 42.3878C73.5258 42.4667 73.578 42.5456 73.6291 42.6245L73.6213 42.6167C73.4791 42.8567 73.3947 43.1912 73.1847 43.3223C72.2024 43.9312 71.1858 44.4845 70.1813 45.0578C69.7313 44.6001 69.2802 44.1423 68.8302 43.6834L67.7524 42.1745C67.7924 42.1189 67.7969 42.0601 67.768 41.9978C68.7813 41.0989 69.7958 40.2 70.8091 39.3C71.4002 39.8123 71.9913 40.3245 72.5824 40.8378V40.8356Z" fill="white"/>
<path d="M74.6957 45.1624C75.0346 45.8535 75.3734 46.5446 75.7123 47.2357C75.8901 47.999 76.0668 48.7624 76.2479 49.539C74.8223 49.8501 73.4868 50.1412 72.1501 50.4335C71.9168 49.7846 71.6834 49.1346 71.4501 48.4857C71.2357 47.9835 71.0201 47.4801 70.8057 46.9779C70.8223 46.9124 70.8323 46.8446 70.8346 46.7768C72.1212 46.239 73.409 45.7001 74.6957 45.1624Z" fill="white"/>
<path d="M32.358 49.5545C32.5003 48.7745 32.6414 47.9956 32.7836 47.2156C33.0147 46.4856 33.2458 45.7556 33.4769 45.0245C33.5458 45.0067 33.6147 45.0045 33.6836 45.0167C34.9914 45.5978 36.2992 46.18 37.6069 46.7612C37.4047 47.41 37.2025 48.0589 37.0003 48.7089C36.8336 49.2889 36.6669 49.8678 36.4992 50.4478C36.448 50.4656 36.3969 50.4667 36.3447 50.45C35.0158 50.1512 33.6869 49.8523 32.3569 49.5534L32.358 49.5545Z" fill="white"/>
<path d="M34.9845 43.0266C35.279 42.3188 35.5734 41.611 35.8667 40.9033C36.169 40.5988 36.4934 40.3144 36.7678 39.9866C37.2412 39.421 37.7767 39.4466 38.2678 39.8699C39.029 40.5255 39.7345 41.2477 40.4634 41.941C40.1801 42.5199 39.8978 43.0988 39.6145 43.6766C39.2434 44.1944 38.8723 44.711 38.5023 45.2288L38.5134 45.2222C37.3367 44.4899 36.1601 43.7577 34.9834 43.0255L34.9845 43.0266Z" fill="white"/>
<path d="M47.2235 75.7745C46.5057 75.4834 45.788 75.1912 45.0713 74.8989C45.0891 74.8412 45.088 74.7834 45.0713 74.7267C45.6402 73.4178 46.2102 72.1089 46.7791 70.8C47.3668 71.0034 47.9546 71.2078 48.5424 71.4112C49.1446 71.6234 49.748 71.8356 50.4335 72.0767C50.158 73.4478 49.8813 74.8289 49.6046 76.2089L47.2246 75.7734L47.2235 75.7745Z" fill="white"/>
<path d="M40.8765 72.7022C40.2354 72.1933 39.5954 71.6844 38.9543 71.1755C38.9521 71.0555 38.951 70.9355 38.9487 70.8155C39.1565 70.7022 39.4132 70.6333 39.5643 70.4688C40.3898 69.57 41.1887 68.6466 41.9976 67.7322C42.5643 68.1577 43.131 68.5833 43.6976 69.0088C44.0843 69.3588 44.4709 69.71 44.9509 70.1455C44.3243 71.3544 43.6898 72.5788 43.0554 73.8044C42.3298 73.4366 41.6032 73.07 40.8776 72.7022H40.8765Z" fill="white"/>
<path d="M54.1947 76.8822C53.4058 76.8655 52.6181 76.8488 51.8303 76.831C51.7625 76.761 51.6947 76.6922 51.627 76.6233C51.827 75.1988 52.0281 73.7744 52.2292 72.3499C52.897 72.3322 53.5647 72.3155 54.2325 72.2988C54.8181 72.3199 55.4047 72.341 55.9903 72.3622C56.0336 72.4222 56.0892 72.4633 56.1592 72.4866C56.2503 73.5144 56.3647 74.5399 56.4258 75.5699C56.467 76.2588 56.717 76.6477 57.4681 76.5277C56.377 76.6466 55.2858 76.7644 54.1958 76.8833L54.1947 76.8822Z" fill="white"/>
<path d="M58.8499 32.3201C59.6388 32.4645 60.4266 32.609 61.2155 32.7534C61.951 33.0745 62.6855 33.3956 63.421 33.7178L63.401 33.739C62.8099 35.0201 62.2199 36.3012 61.6288 37.5823C60.9966 37.4278 60.3644 37.2734 59.731 37.1201C59.1555 36.9212 58.5799 36.7234 58.0044 36.5245C57.8677 36.4767 57.731 36.4301 57.5933 36.3823C57.7822 36.1223 58.0677 35.8878 58.141 35.599C58.4144 34.5156 58.6188 33.4156 58.8488 32.3223L58.8499 32.3201Z" fill="white"/>
<path d="M62.9191 42.3711C63.5324 41.4933 64.1469 40.6156 64.7602 39.7378C65.3302 40.0389 65.9013 40.34 66.4713 40.6411C66.9035 41.0922 67.3357 41.5434 67.7669 41.9956C67.7957 42.0578 67.7902 42.1167 67.7502 42.1722C66.8902 42.9056 66.0313 43.6389 65.1713 44.3722C64.7324 44.0756 64.2946 43.78 63.8557 43.4834C63.5457 43.1611 63.2357 42.8389 62.9257 42.5167C62.9257 42.4678 62.9235 42.42 62.9191 42.3711Z" fill="white"/>
<path d="M72.318 52.4089C73.7058 52.2555 75.0925 52.1011 76.4802 51.9478C76.5836 52.7111 76.6858 53.4733 76.7891 54.2366C76.7469 54.9789 76.7047 55.7211 76.658 56.5411C75.7725 56.4911 74.9369 56.4444 74.1013 56.3978C73.5091 56.3355 72.918 56.2744 72.3258 56.2122C72.308 55.6 72.2902 54.9878 72.2725 54.3755C72.2947 53.7155 72.318 53.0566 72.3402 52.3966L72.318 52.4089Z" fill="white"/>
<path d="M41.9703 40.6733C41.5148 40.2055 41.0592 39.7389 40.6037 39.2711C40.1137 38.7355 39.6237 38.1989 39.1348 37.6633C39.7903 37.0733 40.4448 36.4822 41.0992 35.8922C41.7048 35.5089 42.3103 35.1255 42.9159 34.7422L42.9581 34.7933L43.017 34.7644C43.707 35.9777 44.397 37.1911 45.0859 38.4044C44.5737 38.83 44.0614 39.2544 43.5481 39.68C43.0959 40.0133 42.6448 40.3455 42.1925 40.6777L41.9681 40.6744L41.9703 40.6733Z" fill="white"/>
<path d="M61.1878 75.8101C60.5156 76.0157 59.8433 76.2224 59.1711 76.4279C58.9956 76.3946 58.8189 76.3613 58.6433 76.329C58.6778 76.1146 58.7733 75.889 58.7378 75.6857C58.5422 74.5701 58.3133 73.4601 58.0967 72.3479C58.6989 72.0379 59.3011 71.7279 59.9033 71.419C60.3278 71.329 60.7522 71.239 61.1767 71.1501C61.3367 71.1557 61.4967 71.1613 61.6567 71.1668C62.1833 72.3379 62.71 73.509 63.2378 74.6813C62.5545 75.0579 61.8722 75.4346 61.1889 75.8113L61.1878 75.8101Z" fill="white"/>
<path d="M67.4943 72.5611C66.8354 72.9655 66.1754 73.3689 65.5165 73.7722L65.4121 73.7667C64.7321 72.5522 64.051 71.3378 63.3721 70.1222C63.8298 69.7222 64.2887 69.3222 64.7465 68.9233C65.251 68.5178 65.7543 68.1122 66.2587 67.7078H66.3376L66.4154 67.72C67.4365 68.7455 68.4587 69.7711 69.4798 70.7967C68.8187 71.3844 68.1554 71.9733 67.4943 72.5611Z" fill="white"/>
<path d="M72.561 67.6656C72.0987 68.2579 71.6365 68.849 71.1743 69.4412C71.0676 69.4334 70.961 69.4245 70.8543 69.4167C70.731 69.2601 70.621 69.0879 70.4821 68.9467C69.6476 68.1012 68.8076 67.2634 67.9688 66.4223C68.1965 65.8556 68.4243 65.289 68.651 64.7223C69.1199 64.2579 69.5899 63.7934 70.0599 63.3301H70.0565C71.2499 64.0567 72.4432 64.7834 73.6376 65.509C73.2787 66.2279 72.9199 66.9467 72.561 67.6656Z" fill="white"/>
<path d="M31.6968 54.1478C31.6968 53.9323 31.6901 53.7178 31.6968 53.5023C31.7368 52.0189 31.9268 51.8611 33.4368 52.0323C34.1135 52.1089 34.7924 52.2345 35.4668 52.2178C35.7379 52.2111 36.0013 51.8845 36.2679 51.7034C36.1701 52.2834 36.0413 52.8611 35.9901 53.4456C35.969 53.6845 36.1146 53.9389 36.1835 54.1856L36.1946 54.2834C36.1601 54.9023 36.1246 55.5223 36.0901 56.1411L36.1079 56.1267C34.7313 56.2823 33.3546 56.4367 31.9768 56.5923L31.6968 54.1478Z" fill="white"/>
<path d="M76.4745 61.4333C75.7989 61.2666 75.4756 61.6511 75.2722 62.21C75.1378 62.58 75.0178 62.9555 74.89 63.3289L74.7867 63.32C73.4689 62.7933 72.1523 62.2677 70.8345 61.7422C71.0256 61.1055 71.2178 60.4689 71.41 59.8322C71.6045 59.3877 71.8 58.9444 71.9945 58.5L72.0489 58.4922C73.0911 58.5077 74.1345 58.5233 75.1767 58.5389C75.4689 58.6777 75.7623 58.8155 76.0545 58.9544C76.0378 59.3089 76.1634 59.7855 75.9811 59.9966C75.2611 60.83 75.8656 61.11 76.4734 61.4322L76.4745 61.4333Z" fill="white"/>
<path d="M51.8247 31.9156C52.6258 31.83 53.428 31.7445 54.2292 31.6589C55.0125 31.6712 55.7969 31.6845 56.5803 31.6967C56.6203 31.7478 56.6303 31.8034 56.6103 31.8656C56.5658 32.1856 56.4947 32.5056 56.4825 32.8267C56.438 33.9556 56.4136 35.0845 56.3825 36.2145C55.6547 36.24 54.9269 36.2645 54.1992 36.29L52.3503 36.28C52.2525 36.2656 52.1547 36.2512 52.058 36.2367C52.1047 35.8612 52.2169 35.48 52.1869 35.1112C52.0969 34.0445 51.9503 32.9812 51.8258 31.9178L51.8247 31.9156Z" fill="white"/>
<path d="M45.0868 38.4034C45.6479 38.0679 46.209 37.7323 46.7702 37.3979C46.8524 37.3934 46.9335 37.3879 47.0157 37.3823C47.3868 38.4668 47.7579 39.5501 48.1279 40.6345C47.7557 41.0101 47.3846 41.3868 47.0135 41.7623C46.5724 41.9701 46.1313 42.1779 45.6913 42.3845C45.6368 42.4012 45.5824 42.4023 45.5279 42.3901C44.869 41.4868 44.2102 40.5823 43.5513 39.679L45.0868 38.4034Z" fill="white"/>
<path d="M50.3066 35.8378C50.6799 36.8922 51.4843 36.0522 52.0566 36.2367C52.1543 36.2511 52.2521 36.2656 52.3488 36.28C52.4355 37.2322 52.5221 38.1844 52.6099 39.1367C52.1188 39.4278 51.6277 39.7189 51.1366 40.01C50.7099 40.0978 50.2843 40.1856 49.8577 40.2722C49.7988 40.2444 49.7377 40.2289 49.6732 40.2256C49.4999 39.7233 49.3577 39.2078 49.1455 38.7211C48.9032 38.1656 48.5999 37.6367 48.3232 37.0967C48.7621 36.9522 49.2377 36.8711 49.6277 36.6422C49.9132 36.4744 50.0844 36.1133 50.3066 35.8378Z" fill="white"/>
<path d="M38.1332 63.3435C37.9676 62.8135 37.8021 62.2824 37.6365 61.7513C37.6476 61.7113 37.6432 61.6746 37.6221 61.639C38.6421 61.1713 39.6621 60.7046 40.6821 60.2368C40.9954 60.6746 41.3087 61.1124 41.6232 61.5501C41.8865 61.9724 42.1498 62.3957 42.4132 62.8179L42.4198 62.7901C41.4854 63.5468 40.5521 64.3035 39.6176 65.0601C39.1232 64.4879 38.6276 63.9157 38.1332 63.3435Z" fill="white"/>
<path d="M36.3169 58.08C36.2469 57.4288 36.178 56.7777 36.108 56.1255C36.108 56.1255 36.0902 56.14 36.0914 56.14C36.5402 56.0688 36.9891 55.9966 37.438 55.9255C38.0336 55.8977 38.628 55.87 39.2236 55.8411C40.2125 55.9866 39.5302 56.9377 39.9536 57.3555C40.0591 57.7577 40.1658 58.1588 40.2714 58.5611C40.2591 58.6544 40.248 58.7477 40.2358 58.8411C39.1758 59.1844 38.1158 59.5277 37.0547 59.8711C36.808 59.2744 36.5636 58.6766 36.3169 58.08Z" fill="white"/>
<path d="M41.9966 67.7311C41.5611 67.3222 41.1255 66.9144 40.6899 66.5055C40.6944 66.4244 40.6988 66.3444 40.7022 66.2633C41.5577 65.5566 42.4133 64.85 43.2688 64.1433C43.6988 64.5144 44.1288 64.8855 44.5588 65.2566C44.8855 65.6355 45.2111 66.0155 45.5377 66.3944C45.3744 66.61 45.2111 66.8255 45.0477 67.0411C44.8977 67.2578 44.7488 67.4733 44.5988 67.69L44.6022 67.6866C44.4755 67.8411 44.3488 67.9955 44.2222 68.15C44.0466 68.4355 43.8711 68.7222 43.6955 69.0078C43.1288 68.5822 42.5622 68.1566 41.9955 67.7311H41.9966Z" fill="white"/>
<path d="M70.1814 45.0568C70.3991 45.6302 70.618 46.2046 70.8358 46.7779C70.8336 46.8457 70.8247 46.9135 70.8069 46.979C69.7803 47.3968 68.7525 47.8135 67.7258 48.2313C67.428 47.7968 67.1303 47.3624 66.8336 46.9279C66.5591 46.5479 66.2847 46.1679 66.0103 45.7879C66.0136 45.6924 66.0169 45.5968 66.0203 45.5013C66.9569 44.8946 67.8936 44.289 68.8291 43.6824C69.2791 44.1402 69.7314 44.5979 70.1814 45.0568Z" fill="white"/>
<path d="M72.1512 50.4334C72.2067 51.0923 72.2623 51.75 72.3178 52.4089L72.339 52.3978C71.3067 52.4889 70.2745 52.58 69.2423 52.6711C69.0401 52.3411 68.789 52.03 68.6501 51.6745C68.4867 51.2578 68.419 50.8034 68.3101 50.3656L68.1834 49.7689C68.1689 49.7223 68.1801 49.6812 68.2156 49.6478C69.2945 49.26 70.3723 48.8734 71.4512 48.4856C71.6845 49.1345 71.9178 49.7845 72.1512 50.4334Z" fill="white"/>
<path d="M37.6067 46.7623C37.9089 46.2489 38.2111 45.7367 38.5133 45.2234L38.5022 45.2301C39.5256 45.7501 40.55 46.2689 41.5733 46.7889C41.4244 47.3312 41.2756 47.8723 41.1278 48.4145C40.9811 48.5823 40.8356 48.7501 40.6889 48.9189C40.6344 48.9534 40.6156 49.0012 40.6322 49.0634C40.5056 49.3112 40.3789 49.5578 40.2511 49.8056C39.1678 49.4412 38.0833 49.0756 37 48.7112C37.2022 48.0623 37.4044 47.4123 37.6067 46.7623Z" fill="white"/>
<path d="M36.1843 54.1856C36.1143 53.939 35.9688 53.6845 35.9899 53.4456C36.0421 52.8612 36.1699 52.2834 36.2676 51.7034C36.2932 51.2868 36.3188 50.869 36.3443 50.4512C36.3954 50.4668 36.4476 50.4668 36.4988 50.449C37.4643 50.6801 38.4299 50.9112 39.3954 51.1423C39.4699 51.7212 39.5454 52.3001 39.6199 52.879C39.5976 53.3168 39.5765 53.7545 39.5543 54.1923C39.4832 54.1912 39.4276 54.2201 39.3888 54.279C39.2354 54.2768 39.0832 54.2745 38.9299 54.2734C38.0143 54.2445 37.0999 54.2156 36.1843 54.1856Z" fill="white"/>
<path d="M41.97 40.6733C42.0445 40.6745 42.12 40.6756 42.1945 40.6767C42.88 41.5278 43.5656 42.3789 44.2511 43.23C44.0034 43.68 43.7556 44.1311 43.5078 44.5811C43.2078 45.01 42.9078 45.4389 42.6078 45.8678C42.4867 45.87 42.3656 45.8722 42.2445 45.8745C41.3689 45.1422 40.4923 44.4089 39.6167 43.6767C39.9 43.0978 40.1823 42.5189 40.4656 41.9411C40.9678 41.5189 41.47 41.0956 41.9723 40.6733H41.97Z" fill="white"/>
<path d="M48.1656 67.4557C48.6278 67.7235 49.09 67.9912 49.6934 68.3412C49.3156 69.3468 48.9289 70.379 48.5412 71.4123C47.9534 71.209 47.3656 71.0046 46.7778 70.8012C46.1989 70.4757 45.62 70.149 45.04 69.8235C45.3023 69.4201 45.5634 69.0168 45.8256 68.6146C45.8634 68.5412 45.9011 68.4668 45.9389 68.3935C46.0734 68.1623 46.2089 67.9312 46.3434 67.7001C46.3989 67.6701 46.4189 67.6246 46.4045 67.5635C46.5289 67.3246 46.6523 67.0868 46.7767 66.8479C47.24 67.0512 47.7034 67.2546 48.1667 67.4579L48.1656 67.4557Z" fill="white"/>
<path d="M58.0969 72.3479C57.4503 72.3946 56.8047 72.4401 56.158 72.4868C56.088 72.4634 56.0325 72.4223 55.9891 72.3623C55.9891 71.2634 55.9891 70.1657 55.9891 69.0034H54.1625C53.7425 68.959 53.3214 68.9146 52.9014 68.8701C53.3369 68.7957 53.7736 68.7212 54.2091 68.6479C55.2291 68.6123 56.2491 68.5768 57.2691 68.5412C57.7236 68.409 58.178 68.2757 58.6325 68.1423C58.7391 68.1546 58.8458 68.1668 58.9525 68.179C59.2691 69.259 59.5858 70.3379 59.9036 71.4179C59.3014 71.7279 58.6991 72.039 58.0969 72.3479Z" fill="white"/>
<path d="M52.9012 68.8712C53.3212 68.9157 53.7424 68.9601 54.1624 69.0035C54.1857 70.1023 54.2079 71.2001 54.2312 72.299C53.5635 72.3157 52.8957 72.3323 52.2279 72.3501C51.7479 72.2323 51.2679 72.1135 50.5312 71.9312C50.7424 70.9612 50.9557 69.9812 51.169 69.0023C51.6657 68.8601 52.1635 68.7179 52.6601 68.5757C52.7279 68.6512 52.7957 68.7268 52.8635 68.8023L52.9012 68.8712Z" fill="white"/>
<path d="M49.8524 67.2657C50.0624 66.7446 50.2724 66.2246 50.5557 65.5212C51.2457 65.6668 52.0324 65.7957 52.7902 66.0224C52.9479 66.069 53.0824 66.4779 53.0768 66.7168C53.069 67.0568 52.9224 67.3935 52.8346 67.7323C52.7768 68.0135 52.7179 68.2946 52.6602 68.5757C52.1635 68.7179 51.6657 68.8601 51.169 69.0024C50.9724 68.8224 50.7957 68.5179 50.5768 68.4846C49.7913 68.3646 49.7446 67.8779 49.8524 67.2657Z" fill="white"/>
<path d="M48.1014 64.2244C48.117 64.2567 48.127 64.3133 48.1492 64.3189C49.3403 64.6356 49.5148 65.3567 48.9692 66.3678C48.7014 66.7311 48.4325 67.0933 48.1648 67.4567C47.7014 67.2533 47.2381 67.05 46.7748 66.8467C46.4892 66.6978 46.2025 66.5478 45.917 66.3989C45.947 64.9733 46.8459 64.0789 48.1014 64.2244Z" fill="white"/>
<path d="M59.9189 40.8557C59.6145 40.7057 59.31 40.5557 59.0067 40.4068C58.9278 40.3379 58.8489 40.269 58.77 40.199C59.0911 39.1724 59.4122 38.1457 59.7334 37.1179C60.3656 37.2724 60.9978 37.4268 61.6311 37.5813C62.1845 37.8901 62.7367 38.2001 63.3289 38.5313C62.7422 39.5524 62.1867 40.5179 61.6311 41.4846C61.0611 41.2746 60.4889 41.0657 59.9189 40.8557Z" fill="white"/>
<path d="M55.6255 39.729C55.4933 39.7024 55.3622 39.6757 55.2311 39.649C54.8989 39.6202 54.5666 39.5902 54.2333 39.5613C54.2211 38.4713 54.21 37.3802 54.1978 36.2902C54.9255 36.2646 55.6533 36.2402 56.3811 36.2146C56.7844 36.269 57.1878 36.3246 57.5933 36.3802C57.7322 36.4279 57.8689 36.4757 58.0055 36.5224C57.7722 37.5979 57.54 38.6746 57.3066 39.7502C56.7466 39.7435 56.1855 39.7357 55.6255 39.729Z" fill="white"/>
<path d="M59.9188 40.8556C60.4888 41.0656 61.0599 41.2745 61.6299 41.4845C62.0599 41.78 62.4899 42.0745 62.9199 42.37C62.9243 42.4189 62.9277 42.4678 62.9277 42.5156C62.341 43.2312 61.7543 43.9467 61.1532 44.6812C60.4465 44.27 59.771 43.8778 59.0977 43.4856C59.3743 42.6012 59.6465 41.7289 59.9188 40.8556Z" fill="white"/>
<path d="M66.0101 45.7878C65.2701 46.2945 64.5301 46.8023 63.7845 47.3123C63.219 46.6734 62.6968 46.0834 62.1323 45.4467C62.7201 44.7767 63.289 44.1301 63.8568 43.4834C64.2957 43.7801 64.7334 44.0756 65.1723 44.3723C65.4545 44.749 65.7368 45.1245 66.0201 45.5012C66.0168 45.5967 66.0134 45.6923 66.0101 45.7878Z" fill="white"/>
<path d="M68.7879 55.4389C68.8091 55.0823 68.8291 54.7245 68.8502 54.3678C69.7802 54.3534 70.7091 54.3378 71.6391 54.3223C71.8502 54.34 72.0613 54.3589 72.2724 54.3767C72.2902 54.9889 72.3079 55.6012 72.3257 56.2134C72.2335 56.9734 72.1424 57.7334 72.0502 58.4934L71.9957 58.5012C71.6857 58.2934 71.4013 57.9812 71.0613 57.9C70.2713 57.7123 69.4546 57.6367 68.6479 57.5156C68.6946 56.8234 68.7413 56.1312 68.7879 55.4389Z" fill="white"/>
<path d="M61.468 66.629C61.7658 66.4667 62.0647 66.3045 62.3625 66.1423C62.6191 66.1078 62.8747 66.0723 63.1314 66.0378C63.2558 66.3878 63.328 66.769 63.5147 67.0812C63.8925 67.7145 64.3314 68.3123 64.7458 68.9234C64.288 69.3234 63.8291 69.7234 63.3714 70.1223C62.7991 70.4701 62.228 70.8178 61.6569 71.1656C61.4969 71.1601 61.3369 71.1545 61.1769 71.149C61.1425 70.6567 61.1858 70.1423 61.0547 69.6767C60.8669 69.0078 60.5525 68.3734 60.2925 67.7245C60.6847 67.359 61.0758 66.9945 61.468 66.629Z" fill="white"/>
<path d="M67.9691 66.4222C67.4514 66.8544 66.9336 67.2867 66.4147 67.7189L66.3369 67.7067H66.258C65.5336 66.8744 64.8102 66.0422 64.0869 65.21C64.4302 64.7878 64.7725 64.3667 65.1158 63.9444C65.4203 63.5922 65.7236 63.2389 66.028 62.8867C66.0736 62.8867 66.1191 62.8855 66.1647 62.8811C66.9936 63.4944 67.8225 64.1089 68.6514 64.7222C68.4236 65.2889 68.1958 65.8555 67.9691 66.4222Z" fill="white"/>
<path d="M67.35 59.9034C67.4622 59.5923 67.5744 59.2812 67.6855 58.9689C67.9078 58.8445 68.13 58.7189 68.3533 58.5945C69.3722 59.0067 70.3911 59.4189 71.4111 59.8323C71.2189 60.4689 71.0277 61.1056 70.8355 61.7423C70.5766 62.2711 70.3166 62.8011 70.0566 63.3311H70.0589C69.0111 62.7834 67.9633 62.2345 66.9155 61.6867C67.06 61.0923 67.2055 60.4978 67.35 59.9034Z" fill="white"/>
<path d="M37.4191 54.3755C37.0102 54.3455 36.6013 54.3155 36.1947 54.2844L36.1846 54.1855C37.1013 54.2144 38.0169 54.2444 38.9324 54.2733C38.7158 54.3133 38.4991 54.3522 38.2824 54.3922C37.9946 54.3867 37.708 54.3811 37.4202 54.3767L37.4191 54.3755Z" fill="white"/>
<path d="M44.2511 43.2301C44.6767 42.9501 45.1023 42.6701 45.5278 42.3901C45.5834 42.4034 45.6378 42.4012 45.6911 42.3845C46.2123 43.1434 46.7345 43.9023 47.22 44.609C46.5623 45.1956 45.95 45.7412 45.2489 46.3679C44.8678 46.0279 44.29 45.5112 43.7123 44.9945C43.6445 44.8567 43.5756 44.719 43.5078 44.5812C43.7556 44.1312 44.0034 43.6801 44.2511 43.2301Z" fill="white"/>
<path d="M49.8576 40.2723C50.081 41.1789 50.3032 42.0845 50.5343 43.0223C49.7976 43.3523 49.081 43.6734 48.2632 44.04C47.8399 43.2689 47.4265 42.5156 47.0132 41.7623C47.3854 41.3867 47.7565 41.01 48.1287 40.6345C48.6432 40.4978 49.1587 40.3623 49.6732 40.2256C49.7376 40.23 49.7998 40.2445 49.8576 40.2723Z" fill="white"/>
<path d="M52.6101 39.1355C52.8545 40.4122 53.6823 39.4577 54.2334 39.5599C54.5667 39.5899 54.8989 39.6188 55.2312 39.6488C54.9167 39.6766 54.6023 39.7044 54.2278 39.7377V42.4355C53.3978 42.5222 52.6234 42.6022 51.7412 42.6944C51.5367 41.7888 51.3367 40.8988 51.1367 40.0099C51.6278 39.7188 52.1189 39.4266 52.6101 39.1355Z" fill="white"/>
<path d="M40.271 58.5624C40.9699 58.4068 41.6766 58.2813 42.3644 58.0879C43.5866 57.7435 43.2744 58.9413 43.6388 59.4057C43.9533 59.8057 43.9755 60.4224 43.2288 60.7068C42.6677 60.9202 42.1566 61.2646 41.6222 61.5502C41.3088 61.1124 40.9944 60.6746 40.681 60.2368C40.5322 59.7713 40.3833 59.3057 40.2344 58.8413C40.2466 58.748 40.2588 58.6557 40.271 58.5624Z" fill="white"/>
<path d="M42.4136 62.8189C43.1036 62.2833 43.7925 61.7467 44.6269 61.0989C45.1902 61.8455 45.7425 62.5778 46.2947 63.31C45.7169 63.96 45.1391 64.61 44.5602 65.2589C44.1302 64.8878 43.7002 64.5155 43.2702 64.1444C42.9869 63.6933 42.7036 63.2422 42.4202 62.7911L42.4136 62.8189Z" fill="white"/>
<path d="M40.6858 54.1611C41.2224 54.19 41.758 54.2189 42.388 54.2534C42.4735 55.0722 42.5547 55.8478 42.6435 56.7011C41.6913 56.9334 40.8224 57.1456 39.9524 57.3578C39.5291 56.9389 40.2113 55.9878 39.2202 55.8422C39.3213 55.43 39.4247 55.0178 39.528 54.6056C39.4813 54.4967 39.4358 54.3878 39.3891 54.2789C39.428 54.22 39.4824 54.1911 39.5547 54.1911C39.9313 54.1811 40.3091 54.1711 40.6858 54.1611Z" fill="white"/>
<path d="M68.1835 49.7701C67.3624 50.0367 66.5424 50.3056 65.719 50.5678C65.6568 50.5878 65.5802 50.5623 65.4568 50.5545C65.1402 49.8623 64.8146 49.149 64.4424 48.3356C65.239 47.8667 66.0357 47.3978 66.8324 46.929C67.1302 47.3634 67.4268 47.7978 67.7246 48.2323C67.8879 48.7045 68.0513 49.1778 68.2146 49.6501C68.179 49.6834 68.1679 49.7245 68.1824 49.7712L68.1835 49.7701Z" fill="white"/>
<path d="M69.2421 52.6711C69.0721 53.0933 68.901 53.5155 68.6754 54.0744C69.8198 54.1699 70.7299 54.2466 71.6399 54.3222C70.7099 54.3366 69.7798 54.3522 68.8498 54.3666C67.9554 54.3666 67.0621 54.3666 66.1332 54.3666C66.0665 53.9955 66.0121 53.7588 65.9832 53.5199C65.7698 51.7966 65.7632 51.7555 67.4487 51.4077C68.1032 51.2722 68.411 51.0322 68.3087 50.3633C68.4187 50.8033 68.4854 51.2577 68.6487 51.6744C68.7887 52.0288 69.0398 52.3399 69.241 52.6711H69.2421Z" fill="white"/>
<path d="M43.3168 49.4411C43.1835 49.4078 43.049 49.3733 42.9157 49.34C42.3202 49.0311 41.7235 48.7222 41.1279 48.4133C41.2768 47.8711 41.4246 47.33 41.5735 46.7878C41.7968 46.4833 42.0202 46.18 42.2435 45.8756C42.3646 45.8733 42.4857 45.8711 42.6068 45.8689C42.9802 46.0967 43.3546 46.3233 43.7279 46.5511C44.0179 46.7945 44.3068 47.0367 44.6202 47.2989C44.309 47.9056 44.009 48.49 43.709 49.0745C43.6546 49.1722 43.6001 49.27 43.5468 49.3678L43.5302 49.3889C43.459 49.4067 43.3879 49.4233 43.3168 49.4411Z" fill="white"/>
<path d="M40.2388 49.7891C40.67 49.8735 41.1011 49.9568 41.5333 50.0413L41.5377 50.0391C41.7611 50.1091 41.9844 50.1791 42.2077 50.2491L42.2 50.2468C42.4177 50.3224 42.6366 50.3968 42.8544 50.4724L42.8511 50.4702C42.7277 51.3091 42.6055 52.1479 42.4977 52.8802H39.62C39.5455 52.3013 39.47 51.7224 39.3955 51.1435C40.4088 51.1491 39.8188 50.1557 40.2388 49.7913V49.7891Z" fill="white"/>
<path d="M60.2922 67.7255C59.8455 67.8767 59.3989 68.0278 58.9522 68.18C58.8455 68.1678 58.7389 68.1555 58.6322 68.1433C58.3889 67.3189 58.1466 66.4933 57.8711 65.5578C58.5722 65.2244 59.3022 64.8767 60.1144 64.49C60.5689 65.2067 61.0178 65.9178 61.4678 66.6278C61.0766 66.9933 60.6844 67.36 60.2922 67.7255Z" fill="white"/>
<path d="M54.208 68.6478V66.0467C55.0858 65.9912 55.8947 65.9401 56.7425 65.8867C56.9347 66.8556 57.1013 67.6989 57.2691 68.5412C56.2491 68.5767 55.228 68.6123 54.208 68.6478Z" fill="white"/>
<path d="M52.6602 68.5755C52.7179 68.2944 52.7768 68.0133 52.8346 67.7322C52.8446 68.0888 52.8546 68.4455 52.8635 68.8022C52.7957 68.7266 52.7279 68.6511 52.6602 68.5755Z" fill="white"/>
<path d="M68.6479 57.5155C68.5501 57.8755 68.4512 58.2355 68.3535 58.5955C68.1312 58.7211 67.9079 58.8455 67.6857 58.97C67.0046 58.6689 66.3224 58.3677 65.6401 58.0677C65.7101 57.2122 65.7801 56.3555 65.8512 55.5L65.829 55.5366C66.1801 55.5189 66.5312 55.5011 66.8824 55.4833C67.5179 55.4677 68.1524 55.4511 68.7879 55.4377C68.7412 56.1322 68.6946 56.8233 68.6479 57.5155Z" fill="white"/>
<path d="M57.3066 39.7501C57.7943 39.9001 58.2821 40.049 58.7688 40.199C58.8477 40.2679 58.9266 40.3379 59.0054 40.4068C58.6099 41.2346 58.2154 42.0612 57.7799 42.9735C57.081 42.8368 56.3088 42.6857 55.4766 42.5223C55.5255 41.589 55.5743 40.659 55.6243 39.729C56.1855 39.7357 56.7466 39.7434 57.3066 39.7501Z" fill="white"/>
<path d="M64.0866 65.2111C63.7689 65.4867 63.45 65.7611 63.1322 66.0367C62.8755 66.0723 62.62 66.1067 62.3633 66.1411C62.0011 65.3845 61.6389 64.6289 61.2422 63.8C61.78 63.2934 62.3755 62.7323 62.9711 62.1711C63.6866 62.7623 64.4011 63.3534 65.1166 63.9456L64.0877 65.2111H64.0866Z" fill="white"/>
<path d="M66.9158 61.6855C66.6658 62.0844 66.4147 62.4833 66.1647 62.8811C66.1191 62.8855 66.0736 62.8866 66.028 62.8866C65.3013 62.3666 64.5758 61.8455 63.8491 61.3244C64.1902 60.5899 64.5313 59.8566 64.9436 58.9722C65.7191 59.2722 66.5347 59.5877 67.3513 59.9033C67.2069 60.4977 67.0613 61.0911 66.9158 61.6855Z" fill="white"/>
<path d="M28.9012 141.46L27.589 141.241C27.7367 140.753 27.9912 140.392 28.3512 140.159C28.7112 139.925 29.2467 139.808 29.9567 139.808C30.6023 139.808 31.0823 139.879 31.3979 140.019C31.7134 140.16 31.9367 140.339 32.0645 140.556C32.1945 140.772 32.2579 141.17 32.2579 141.75L32.2423 143.308C32.2423 143.751 32.2656 144.078 32.3134 144.288C32.359 144.499 32.4456 144.725 32.5734 144.965H31.1412C31.1034 144.876 31.0567 144.745 31.0023 144.57C30.979 144.491 30.9612 144.439 30.9512 144.413C30.7034 144.635 30.4401 144.801 30.1579 144.911C29.8767 145.022 29.5767 145.077 29.2567 145.077C28.6945 145.077 28.2512 144.937 27.9256 144.655C27.6001 144.372 27.439 144.016 27.439 143.586C27.439 143.301 27.5134 143.047 27.6601 142.823C27.8079 142.6 28.0156 142.429 28.2801 142.311C28.5467 142.192 28.9301 142.089 29.4312 142C30.1067 141.882 30.5756 141.773 30.8367 141.672V141.539C30.8367 141.283 30.7679 141.1 30.6301 140.991C30.4923 140.881 30.2334 140.827 29.8534 140.827C29.5956 140.827 29.3956 140.873 29.2512 140.967C29.1067 141.06 28.9901 141.223 28.9012 141.458V141.46ZM30.8367 142.542C30.6512 142.6 30.3579 142.668 29.9567 142.747C29.5556 142.826 29.2923 142.903 29.169 142.98C28.9801 143.103 28.8856 143.26 28.8856 143.45C28.8856 143.637 28.9612 143.799 29.1123 143.935C29.2634 144.07 29.4545 144.138 29.689 144.138C29.949 144.138 30.199 144.06 30.4356 143.901C30.6101 143.781 30.7256 143.633 30.7801 143.459C30.8179 143.346 30.8367 143.129 30.8367 142.809V142.542Z" fill="white"/>
<path d="M33.5768 139.921H34.909V140.609C35.3868 140.075 35.9546 139.807 36.6135 139.807C36.9624 139.807 37.2668 139.872 37.5246 140.007C37.7824 140.139 37.9935 140.341 38.1579 140.609C38.3979 140.341 38.6557 140.139 38.9346 140.007C39.2124 139.874 39.509 139.807 39.8257 139.807C40.2279 139.807 40.5679 139.882 40.8446 140.032C41.1235 140.184 41.3312 140.404 41.469 140.695C41.5679 140.91 41.6179 141.258 41.6179 141.739V144.964H40.1712V142.081C40.1712 141.582 40.1212 141.258 40.0224 141.114C39.889 140.924 39.6823 140.828 39.4035 140.828C39.2012 140.828 39.0112 140.886 38.8323 140.999C38.6535 141.114 38.5246 141.28 38.4468 141.5C38.3668 141.72 38.3279 142.068 38.3279 142.542V144.965H36.8812V142.201C36.8812 141.71 36.8557 141.394 36.8035 141.251C36.7512 141.109 36.6723 141.004 36.5635 140.934C36.4557 140.864 36.309 140.828 36.1235 140.828C35.9012 140.828 35.7001 140.884 35.5212 140.994C35.3423 141.104 35.2157 141.265 35.1379 141.474C35.0612 141.682 35.0224 142.029 35.0224 142.514V144.964H33.5757V139.92L33.5768 139.921Z" fill="white"/>
<path d="M44.14 141.46L42.8277 141.241C42.9755 140.753 43.23 140.392 43.59 140.159C43.95 139.925 44.4855 139.808 45.1955 139.808C45.8411 139.808 46.3211 139.879 46.6366 140.019C46.9522 140.16 47.1755 140.339 47.3033 140.556C47.4333 140.772 47.4966 141.17 47.4966 141.75L47.4811 143.308C47.4811 143.751 47.5044 144.078 47.5522 144.288C47.5977 144.499 47.6844 144.725 47.8122 144.965H46.38C46.3422 144.876 46.2955 144.745 46.2411 144.57C46.2177 144.491 46.2 144.439 46.19 144.413C45.9422 144.635 45.6788 144.801 45.3966 144.911C45.1155 145.022 44.8155 145.077 44.4955 145.077C43.9333 145.077 43.49 144.937 43.1644 144.655C42.8388 144.372 42.6777 144.016 42.6777 143.586C42.6777 143.301 42.7522 143.047 42.8988 142.823C43.0466 142.6 43.2544 142.429 43.5188 142.311C43.7855 142.192 44.1688 142.089 44.67 142C45.3455 141.882 45.8144 141.773 46.0755 141.672V141.539C46.0755 141.283 46.0066 141.1 45.8688 140.991C45.7311 140.881 45.4722 140.827 45.0922 140.827C44.8344 140.827 44.6344 140.873 44.49 140.967C44.3455 141.06 44.2288 141.223 44.14 141.458V141.46ZM46.0755 142.542C45.89 142.6 45.5966 142.668 45.1955 142.747C44.7944 142.826 44.5311 142.903 44.4077 142.98C44.2188 143.103 44.1244 143.26 44.1244 143.45C44.1244 143.637 44.2 143.799 44.3511 143.935C44.5022 144.07 44.6933 144.138 44.9277 144.138C45.1877 144.138 45.4377 144.06 45.6744 143.901C45.8488 143.781 45.9644 143.633 46.0188 143.459C46.0566 143.346 46.0755 143.129 46.0755 142.809V142.542Z" fill="white"/>
<path d="M51.8525 144.965V138.003H53.2992V144.965H51.8525Z" fill="white"/>
<path d="M55.8611 141.46L54.5489 141.241C54.6967 140.753 54.9511 140.392 55.3111 140.159C55.6711 139.925 56.2067 139.808 56.9167 139.808C57.5623 139.808 58.0423 139.879 58.3578 140.019C58.6734 140.16 58.8967 140.339 59.0245 140.556C59.1545 140.772 59.2178 141.17 59.2178 141.75L59.2023 143.308C59.2023 143.751 59.2256 144.078 59.2734 144.288C59.3189 144.499 59.4056 144.725 59.5334 144.965H58.1011C58.0634 144.876 58.0167 144.745 57.9623 144.57C57.9389 144.491 57.9211 144.439 57.9111 144.413C57.6634 144.635 57.4 144.801 57.1178 144.911C56.8367 145.022 56.5367 145.077 56.2167 145.077C55.6545 145.077 55.2111 144.937 54.8856 144.655C54.56 144.372 54.3989 144.016 54.3989 143.586C54.3989 143.301 54.4734 143.047 54.62 142.823C54.7678 142.6 54.9756 142.429 55.24 142.311C55.5067 142.192 55.89 142.089 56.3911 142C57.0667 141.882 57.5356 141.773 57.7967 141.672V141.539C57.7967 141.283 57.7278 141.1 57.59 140.991C57.4523 140.881 57.1934 140.827 56.8134 140.827C56.5556 140.827 56.3556 140.873 56.2111 140.967C56.0667 141.06 55.95 141.223 55.8611 141.458V141.46ZM57.7978 142.542C57.6123 142.6 57.3189 142.668 56.9178 142.747C56.5167 142.826 56.2534 142.903 56.13 142.98C55.9411 143.103 55.8467 143.26 55.8467 143.45C55.8467 143.637 55.9223 143.799 56.0734 143.935C56.2245 144.07 56.4156 144.138 56.65 144.138C56.91 144.138 57.16 144.06 57.3967 143.901C57.5711 143.781 57.6867 143.633 57.7411 143.459C57.7789 143.346 57.7978 143.129 57.7978 142.809V142.542Z" fill="white"/>
<path d="M65.0769 144.964L62.8735 139.921H64.3924L65.4224 142.494L65.7202 143.354C65.7991 143.136 65.8491 142.992 65.8691 142.922C65.918 142.78 65.9691 142.638 66.0235 142.494L67.0635 139.921H68.5502L66.378 144.964H65.0769Z" fill="white"/>
<path d="M69.4365 139.238V138.002H70.8832V139.238H69.4365ZM69.4365 144.965V139.921H70.8832V144.965H69.4365Z" fill="white"/>
<path d="M77.3814 144.965H76.0369V144.223C75.8136 144.511 75.5503 144.726 75.2469 144.867C74.9436 145.008 74.6369 145.078 74.3291 145.078C73.7014 145.078 73.1625 144.845 72.7147 144.378C72.2669 143.911 72.0425 143.259 72.0425 142.423C72.0425 141.568 72.2614 140.919 72.6958 140.475C73.1303 140.03 73.6825 139.807 74.348 139.807C74.9591 139.807 75.488 140.04 75.9336 140.509V138.001H77.3803V144.962L77.3814 144.965ZM73.5203 142.333C73.5203 142.872 73.6014 143.261 73.7614 143.502C73.9947 143.851 74.3203 144.025 74.7403 144.025C75.0736 144.025 75.3558 143.893 75.5903 143.633C75.8236 143.372 75.9403 142.981 75.9403 142.462C75.9403 141.883 75.8269 141.467 75.6003 141.212C75.3736 140.958 75.0825 140.83 74.7303 140.83C74.3869 140.83 74.1003 140.956 73.868 141.208C73.6358 141.459 73.5203 141.835 73.5203 142.336V142.333Z" fill="white"/>
<path d="M79.888 141.46L78.5758 141.241C78.7236 140.753 78.978 140.392 79.338 140.159C79.698 139.925 80.2336 139.808 80.9436 139.808C81.5891 139.808 82.0691 139.879 82.3847 140.019C82.7002 140.16 82.9236 140.339 83.0513 140.556C83.1813 140.772 83.2447 141.17 83.2447 141.75L83.2291 143.308C83.2291 143.751 83.2524 144.078 83.3002 144.288C83.3458 144.499 83.4325 144.725 83.5602 144.965H82.128C82.0902 144.876 82.0436 144.745 81.9891 144.57C81.9658 144.491 81.948 144.439 81.938 144.413C81.6902 144.635 81.4269 144.801 81.1447 144.911C80.8636 145.022 80.5636 145.077 80.2436 145.077C79.6813 145.077 79.238 144.937 78.9125 144.655C78.5869 144.372 78.4258 144.016 78.4258 143.586C78.4258 143.301 78.5002 143.047 78.6469 142.823C78.7947 142.6 79.0025 142.429 79.2669 142.311C79.5336 142.192 79.9169 142.089 80.418 142C81.0936 141.882 81.5625 141.773 81.8236 141.672V141.539C81.8236 141.283 81.7547 141.1 81.6169 140.991C81.4791 140.881 81.2202 140.827 80.8402 140.827C80.5825 140.827 80.3825 140.873 80.238 140.967C80.0936 141.06 79.9769 141.223 79.888 141.458V141.46ZM81.8236 142.542C81.638 142.6 81.3447 142.668 80.9436 142.747C80.5425 142.826 80.2791 142.903 80.1558 142.98C79.9669 143.103 79.8724 143.26 79.8724 143.45C79.8724 143.637 79.948 143.799 80.0991 143.935C80.2502 144.07 80.4413 144.138 80.6758 144.138C80.9358 144.138 81.1858 144.06 81.4225 143.901C81.5969 143.781 81.7125 143.633 81.7669 143.459C81.8047 143.346 81.8236 143.129 81.8236 142.809V142.542Z" fill="white"/>
<path d="M77.1447 124.685H76.4902V127.959H77.1447V124.685Z" fill="white"/>
<path d="M94.1745 124.902H93.52V128.177H94.1745V124.902Z" fill="white"/>
</svg>
