<svg width="97" height="138" viewBox="0 0 97 138" fill="none" xmlns="http://www.w3.org/2000/svg">
<path d="M10.1843 104.933C10.1843 104.881 10.2009 104.847 10.2509 104.847H14.3932C16.4732 104.847 18.8876 105.434 18.8876 108.063C18.8876 110.414 16.9754 111.677 14.6943 111.677C13.6876 111.677 12.7821 111.452 11.8932 111.054C11.8432 111.002 11.7921 111.071 11.7921 111.123V116.864C11.7921 116.917 11.7754 116.951 11.7254 116.951H10.2498C10.1998 116.951 10.1665 116.917 10.1665 116.864C10.1665 115.308 10.1832 107.077 10.1832 104.933H10.1843ZM14.1921 111.159C16.1543 111.159 17.1943 109.897 17.1943 108.098C17.1943 106.351 16.1543 105.47 14.0909 105.47H11.8776C11.8276 105.47 11.7932 105.504 11.7932 105.557V110.606C11.7932 110.64 11.8098 110.658 11.8432 110.674C12.6821 111.003 13.4709 111.159 14.1921 111.159Z" fill="white"/>
<path d="M22.1256 104.847C22.1756 104.847 22.1922 104.881 22.1922 104.933V112.282C22.1922 115.326 23.5678 116.519 25.3622 116.519C27.2578 116.519 28.6656 115.101 28.6656 112.266V104.933C28.6656 104.881 28.6822 104.847 28.7322 104.847H29.1856C29.2356 104.847 29.2689 104.881 29.2689 104.933V112.127C29.2689 115.516 27.4911 117.124 25.0256 117.124C22.6778 117.124 20.5645 115.602 20.5645 112.058V104.933C20.5645 104.881 20.5978 104.847 20.6478 104.847H22.1233H22.1256Z" fill="white"/>
<path d="M31.4513 104.933C31.4513 104.881 31.4846 104.847 31.5346 104.847H38.0424C38.0924 104.847 38.1257 104.881 38.1257 104.933V105.4C38.1257 105.452 38.0924 105.469 38.0424 105.469H33.1446C33.0946 105.469 33.078 105.503 33.078 105.556V110.293C33.078 110.346 33.0946 110.38 33.1446 110.38H37.0024C37.0524 110.38 37.0857 110.397 37.0857 110.449V110.916C37.0857 110.968 37.0524 111.002 37.0024 111.002H33.1613C33.1113 111.002 33.0769 111.019 33.0769 111.071V116.241C33.0769 116.293 33.1102 116.328 33.1613 116.328H38.0413C38.0913 116.328 38.1246 116.346 38.1246 116.397V116.863C38.1246 116.916 38.0913 116.95 38.0413 116.95H31.5335C31.4835 116.95 31.4502 116.916 31.4502 116.863V104.932L31.4513 104.933Z" fill="white"/>
<path d="M43.3257 104.847C45.2712 104.847 47.8201 105.434 47.8201 107.872C47.8201 108.997 47.2168 109.982 45.8746 110.483C47.6857 110.95 48.4912 112.074 48.4912 113.613C48.4912 115.619 47.0823 116.951 43.9457 116.951H39.7357C39.6857 116.951 39.6523 116.917 39.6523 116.864V104.933C39.6523 104.881 39.6857 104.847 39.7357 104.847H43.3257ZM41.279 110.172C41.279 110.224 41.3123 110.259 41.3635 110.259H43.0068C45.0868 110.259 46.1268 109.463 46.1268 107.872C46.1268 106.264 45.0868 105.469 43.0068 105.469H41.3635C41.3135 105.469 41.279 105.503 41.279 105.556V110.172ZM43.6779 116.328C45.7068 116.328 46.7968 115.308 46.7968 113.561C46.7968 111.832 45.6401 110.881 43.6779 110.881H41.3635C41.3135 110.881 41.279 110.898 41.279 110.95V116.241C41.279 116.293 41.3123 116.328 41.3635 116.328H43.6779Z" fill="white"/>
<path d="M50.1691 104.899C50.1691 104.847 50.2024 104.812 50.2524 104.812H51.728C51.778 104.812 51.7946 104.847 51.7946 104.899V116.242C51.7946 116.294 51.828 116.329 51.8791 116.329H56.7591C56.8091 116.329 56.8424 116.347 56.8424 116.398V116.864C56.8424 116.917 56.8091 116.951 56.7591 116.951H50.2513C50.2013 116.951 50.168 116.917 50.168 116.864L50.1691 104.899Z" fill="white"/>
<path d="M61.6747 104.519C65.348 104.657 67.7792 107.389 67.6458 111.072C67.5114 114.738 64.9292 117.262 61.2225 117.124C57.5325 116.986 55.1014 114.219 55.2347 110.571C55.3692 106.974 57.9347 104.381 61.6747 104.519ZM65.7669 112.11C66.0358 108.306 64.6769 105.418 61.608 105.089C59.3269 104.864 57.3481 106.524 56.9958 109.671C56.5936 112.939 58.0858 116.277 61.1725 116.64C63.4369 116.917 65.5836 115.257 65.7681 112.11H65.7669Z" fill="white"/>
<path d="M68.9199 113.666C68.9699 113.649 69.0032 113.666 69.021 113.718C69.5576 115.447 71.0499 116.537 72.7943 116.537C73.5321 116.537 74.421 116.329 74.941 115.759C75.3265 115.361 75.4943 114.756 75.3776 114.202C75.2599 113.666 74.9076 113.217 74.5054 112.853C73.8176 112.213 72.9799 111.781 72.1576 111.315C71.3521 110.848 70.531 110.346 69.9443 109.602C69.341 108.859 68.9888 107.908 69.2399 106.939C69.6421 105.435 71.4876 104.657 72.8965 104.657C74.641 104.657 75.9154 105.798 76.3854 107.476C76.4021 107.528 76.3854 107.545 76.3521 107.562L76.251 107.597C76.201 107.615 76.1676 107.597 76.1499 107.562C75.6965 106.179 74.4387 105.246 73.031 105.246C72.1087 105.246 70.9343 105.712 70.7165 106.767C70.5987 107.199 70.7499 107.666 70.9676 108.063C71.2188 108.461 71.5376 108.738 71.8732 109.015C72.561 109.551 73.3154 109.913 74.0532 110.329C74.791 110.743 75.4954 111.211 76.0821 111.85C76.6354 112.49 77.0376 113.32 76.9876 114.202C76.921 115.24 76.2499 116.139 75.3776 116.623C74.7232 116.987 74.0021 117.125 73.281 117.125C71.0676 117.125 69.3065 116.139 68.7188 113.839C68.7188 113.787 68.7354 113.752 68.7687 113.752C68.8187 113.7 68.8699 113.718 68.9199 113.666Z" fill="white"/>
<path d="M6.82227 131.368C6.82227 128.861 6.83893 124.261 6.83893 122.239C6.83893 122.187 6.8556 122.17 6.9056 122.17H8.41449C8.43115 122.17 8.46449 122.187 8.48116 122.222L12.7578 132.234C12.7745 132.287 12.8756 132.287 12.8923 132.234L17.27 122.222C17.27 122.188 17.2867 122.17 17.3367 122.17H18.8623C18.9123 122.17 18.9467 122.204 18.9467 122.257V134.188C18.9467 134.24 18.9134 134.274 18.8623 134.274H17.3867C17.3367 134.274 17.32 134.24 17.32 134.188V124.003C17.32 123.917 17.2189 123.9 17.1689 123.969L12.6912 134.223C12.6745 134.258 12.6412 134.275 12.6245 134.275H11.9034C11.87 134.275 11.8534 134.258 11.8367 134.223L7.57671 124.211C7.52671 124.124 7.4256 124.159 7.4256 124.229V134.189C7.4256 134.241 7.40893 134.275 7.35893 134.275H6.9056C6.8556 134.275 6.82227 134.241 6.82227 134.189V131.37V131.368Z" fill="white"/>
<path d="M22.5876 130.081C23.0576 129.137 23.5598 128.168 24.0798 127.117L24.6165 126.042C24.6165 126.019 24.6332 126.007 24.6832 126.007H26.1754C26.2087 126.007 26.2421 126.018 26.2587 126.042L28.1376 129.869C28.9932 131.604 29.8821 133.412 30.2843 134.203C30.3009 134.251 30.2676 134.274 30.2176 134.274H28.6409C28.5909 134.274 28.5743 134.262 28.5743 134.239C28.0376 133.175 27.0143 131.05 26.8809 130.767C26.8643 130.743 26.8309 130.731 26.7965 130.731H22.9554C22.9054 130.731 22.8887 130.742 22.8709 130.767L21.1265 134.239C21.1265 134.262 21.1098 134.274 21.0598 134.274H20.5732C20.5065 134.274 20.4898 134.251 20.5065 134.203L22.5865 130.081H22.5876ZM26.5287 130.317C26.5787 130.317 26.6121 130.293 26.5954 130.245L24.9687 126.927C24.9187 126.88 24.8676 126.88 24.8176 126.927L23.1576 130.245C23.1409 130.292 23.1576 130.317 23.2243 130.317H26.5287Z" fill="white"/>
<path d="M40.8014 124.4C40.818 124.452 40.8014 124.487 40.768 124.521L40.5336 124.642C40.4836 124.66 40.4503 124.66 40.4325 124.608C39.7114 123.225 38.2692 122.532 36.7936 122.532C33.9758 122.532 32.3158 124.798 32.3158 127.495C32.3158 130.849 34.2947 133.771 37.4647 133.771C38.3203 133.771 39.1592 133.529 39.9469 132.993C39.9636 132.976 39.9803 132.941 39.9803 132.925V128.809C39.9803 128.619 40.0636 128.532 40.248 128.532H41.288C41.338 128.532 41.3725 128.549 41.3725 128.601V133.357C41.3725 133.373 41.3558 133.409 41.3225 133.443C38.0858 134.326 37.5658 134.447 36.7269 134.447C33.3725 134.447 30.6392 131.888 30.6392 128.221C30.6392 124.693 33.188 122.013 36.5592 122.013C38.3036 122.013 39.9136 122.809 40.8025 124.399L40.8014 124.4Z" fill="white"/>
<path d="M43.5524 122.239C43.5524 122.187 43.5857 122.17 43.6357 122.17H45.0946C45.1446 122.17 45.1779 122.187 45.1779 122.239V134.188C45.1779 134.24 45.1613 134.274 45.1113 134.274H43.5513V122.24L43.5524 122.239Z" fill="white"/>
<path d="M53.2633 122.013C55.0078 122.134 56.3656 123.102 57.1044 124.693C57.1211 124.746 57.1044 124.78 57.0544 124.797L56.9033 124.866C56.8533 124.883 56.8367 124.866 56.82 124.831C56.0322 123.171 54.7744 122.549 52.8289 122.549C50.7489 122.549 48.5356 124.14 48.5356 127.442C48.5356 130.987 51.0344 133.563 53.8689 133.563C55.0767 133.563 56.3011 133.113 57.3067 132.007C57.3233 131.954 57.3567 131.954 57.4078 132.007L57.4578 132.059C57.4911 132.093 57.4911 132.128 57.4744 132.162C56.4011 133.684 54.7578 134.444 52.9467 134.444C49.5922 134.444 46.8589 131.886 46.8589 128.219C46.8589 126.127 47.6811 124.208 49.4244 123.031C50.5644 122.27 51.9233 121.924 53.2656 122.011L53.2633 122.013Z" fill="white"/>
<path d="M65.0199 121.841C68.6933 121.979 71.1244 124.711 70.991 128.395C70.8566 132.06 68.2744 134.585 64.5677 134.447C60.8777 134.308 58.4466 131.541 58.5799 127.893C58.7144 124.297 61.2799 121.703 65.0199 121.841ZM69.1122 129.432C69.381 125.628 68.0222 122.74 64.9533 122.411C62.6722 122.187 60.6933 123.847 60.341 126.993C59.9388 130.261 61.431 133.599 64.5177 133.962C66.7822 134.239 68.9277 132.579 69.1122 129.432Z" fill="white"/>
<path d="M72.2656 130.988C72.3156 130.971 72.3489 130.988 72.3667 131.04C72.9033 132.769 74.3956 133.859 76.14 133.859C76.8778 133.859 77.7667 133.651 78.2867 133.081C78.6722 132.683 78.84 132.078 78.7233 131.525C78.6056 130.988 78.2533 130.539 77.8511 130.176C77.1633 129.536 76.3256 129.103 75.5033 128.637C74.6978 128.17 73.8767 127.668 73.29 126.925C72.6867 126.181 72.3345 125.23 72.5856 124.261C72.9878 122.757 74.8333 121.979 76.2422 121.979C77.9867 121.979 79.2611 123.12 79.7311 124.798C79.7478 124.85 79.7311 124.867 79.6978 124.885L79.5967 124.919C79.5467 124.937 79.5133 124.919 79.4956 124.885C79.0422 123.501 77.7844 122.568 76.3767 122.568C75.4544 122.568 74.28 123.035 74.0622 124.089C73.9444 124.521 74.0956 124.988 74.3133 125.386C74.5645 125.783 74.8833 126.06 75.2189 126.337C75.9067 126.873 76.6611 127.236 77.3989 127.651C78.1367 128.066 78.8411 128.533 79.4278 129.172C79.9811 129.812 80.3833 130.642 80.3333 131.525C80.2667 132.562 79.5956 133.461 78.7233 133.946C78.0689 134.309 77.3478 134.447 76.6267 134.447C74.4133 134.447 72.6522 133.461 72.0645 131.161C72.0645 131.109 72.0811 131.075 72.1145 131.075C72.1645 131.022 72.2156 131.04 72.2656 130.988Z" fill="white"/>
<path d="M21.3901 123.817C21.3901 122.069 22.1057 121.577 23.1401 121.577C24.6768 121.577 26.9035 122.723 28.0957 122.723C28.6257 122.723 28.9701 122.506 28.9701 121.85H29.6057C29.6057 123.57 28.8635 124.063 27.8824 124.063C26.319 124.063 24.0924 122.914 22.9001 122.914C22.3701 122.914 22.0524 123.133 22.0524 123.816L21.3901 123.817Z" fill="white"/>
<path d="M82.1334 136.623H6.69678V137.182H82.1334V136.623Z" fill="white"/>
<path d="M45.4932 44.4589C44.9888 43.1166 44.6154 41.7055 43.9521 40.4489C42.8899 38.4366 41.7188 36.4689 40.4288 34.5955C39.7177 33.5622 39.1465 32.4544 38.2254 31.49C36.881 30.0811 36.1943 28.0689 35.0221 26.4633C33.8666 24.88 32.4988 23.4433 31.1443 22.0177C30.1132 20.9322 29.0054 19.9033 27.841 18.9622C26.8965 18.1989 25.841 17.5589 24.7877 16.9444C23.9199 16.4377 23.0154 15.9533 22.0677 15.6333C20.9132 15.2433 19.7054 14.84 18.5054 14.79C15.6688 14.6711 12.8232 14.7522 9.98099 14.7722C9.71544 14.7744 9.44988 14.9189 9.06544 15.0333C8.80877 13.8177 10.0666 13.9033 10.5254 13.4811C11.2032 12.8566 12.2421 12.6011 13.1521 12.2544C14.4232 11.7722 15.7221 11.3633 16.9999 10.9C17.9843 10.5433 18.9466 10.12 19.9388 9.78774C20.4643 9.61219 21.031 9.54663 21.5843 9.46774C22.6788 9.31219 23.7921 8.98996 24.8677 9.08441C26.4899 9.22552 28.1221 9.54774 29.6832 10.0166C30.7754 10.3455 31.8632 10.9111 32.7577 11.6177C33.8532 12.4833 34.7754 13.5777 35.7132 14.6266C36.4088 15.4055 37.0977 16.2177 37.631 17.1089C38.3865 18.3711 39.0377 19.7011 39.6577 21.0377C40.2499 22.3155 40.7554 23.6355 41.2799 24.9433C41.5721 25.6722 41.8354 26.4144 42.0988 27.1544C42.6243 28.6289 43.1477 30.1044 43.6565 31.5844C43.7999 32.0011 43.8865 32.4377 44.0065 32.8622C44.3443 34.0611 44.6865 35.2577 45.0265 36.4555C45.0565 36.9066 44.2999 37.6877 45.5221 37.64C45.5377 38.2055 45.4832 38.7844 45.5977 39.3289C45.6565 39.61 46.0177 39.8289 46.241 40.0755C46.3232 40.6633 46.3765 41.2577 46.4965 41.8389C46.631 42.4822 46.8265 43.1133 46.9954 43.75C46.9954 43.9766 46.9977 44.2033 46.9977 44.43C46.8154 44.7711 46.6343 45.1111 46.4521 45.4522C46.131 45.1211 45.8099 44.79 45.4877 44.4589H45.4932Z" fill="white"/>
<path d="M8.61425 73.1933C8.25647 70.4066 8.83647 67.7011 10.1954 65.3689C11.5009 63.1289 13.3254 61.1855 15.7865 59.9689C16.8131 59.4611 17.6109 58.5044 18.6142 57.9289C19.6598 57.3289 20.8154 56.9089 21.9454 56.47C23.8809 55.7189 25.8187 54.9666 27.7854 54.3066C29.0798 53.8722 30.4309 53.6044 31.7531 53.2511C32.7042 52.9966 33.6509 52.7233 34.5987 52.4589C35.1631 52.1455 35.7276 51.8311 36.2931 51.5177C36.9298 51.3411 37.5665 51.1655 38.2031 50.9889C38.6176 51.0466 39.0454 51.1966 39.4454 51.1444C41.1442 50.9266 42.6987 49.8978 44.502 50.2389C44.6009 50.2766 44.6998 50.3133 44.7976 50.3511C44.8054 50.6566 44.8142 50.9622 44.822 51.2689C44.6542 51.4389 44.4865 51.61 44.3187 51.78C44.1465 51.7755 43.9731 51.7722 43.8009 51.7678C42.8931 51.9989 41.9376 52.12 41.0876 52.4866C39.5798 53.1366 38.102 53.8755 36.6742 54.6877C35.0987 55.5833 33.5642 56.56 32.0665 57.5822C30.4842 58.6622 28.9398 59.8011 27.4287 60.98C25.5154 62.4733 23.752 64.1811 21.7409 65.5211C19.5931 66.9533 18.1576 68.9733 16.6842 70.9511C15.3709 72.7144 14.9087 74.9244 14.3754 77.0311C13.9798 78.5955 14.1065 80.3289 13.522 81.7966C12.9842 83.1477 13.8787 84.2089 13.6609 85.4055C13.6609 85.8289 13.732 86.2711 13.6342 86.6722C13.5776 86.9044 13.2465 87.0689 13.0398 87.2633C12.9954 86.9911 12.9509 86.72 12.9065 86.4489C12.712 86.2255 12.5165 86.0022 12.322 85.7777C11.7742 84.2589 11.1776 82.7544 10.692 81.2155C10.1509 79.5033 9.71091 77.76 9.22758 76.0311C9.21425 75.3178 9.24869 74.5989 9.16202 73.8944C9.13091 73.6422 8.80536 73.4255 8.61425 73.1933Z" fill="white"/>
<path d="M52.0812 46.5856C53.3168 46.06 54.5679 45.5667 55.7812 44.9934C56.4434 44.68 56.9956 44.1034 57.6756 43.8678C59.3745 43.2767 60.6823 42.0511 62.2034 41.18C64.6779 39.7623 66.9112 37.93 69.2923 36.3389C72.1334 34.44 74.7979 32.3478 77.1879 29.8934C78.6512 28.3911 79.5256 26.5556 80.3345 24.7011C81.159 22.8111 81.7967 20.8334 82.4101 18.86C82.619 18.1889 82.5301 17.4189 82.5334 16.6934C82.5401 14.9134 82.5223 13.1334 82.5134 11.3534C82.6801 10.9423 82.1301 10.1467 83.1401 10.1878C83.1679 10.4356 83.1945 10.6845 83.2223 10.9323C83.4368 11.1689 83.6512 11.4056 83.8656 11.6423C84.5223 13.5867 85.2134 15.5211 85.8234 17.48C86.2434 18.8289 86.5512 20.2123 86.909 21.58C86.9034 24.4145 86.8968 27.2478 86.8912 30.0823C86.6368 31.8845 85.6079 33.3223 84.4567 34.5945C83.3468 35.8234 82.0623 36.96 80.6712 37.8523C79.0267 38.9078 77.2079 39.7023 75.4268 40.5267C73.849 41.2567 72.2345 41.9145 70.6079 42.5289C69.4079 42.9823 68.1556 43.2978 66.9379 43.7067C65.7356 44.11 64.5545 44.58 63.3468 44.9667C62.8645 45.1211 62.3367 45.1311 61.829 45.2078C60.8623 45.6767 59.8945 46.1445 58.9279 46.6134C58.4356 46.7134 57.9434 46.8134 57.4512 46.9145C56.3934 46.8089 55.3556 46.7845 54.5334 47.6334C53.6901 47.61 52.8468 47.5856 52.0034 47.5623C52.0301 47.2356 52.0568 46.91 52.0823 46.5834L52.0812 46.5856Z" fill="white"/>
<path d="M67.6642 87.921C66.6986 87.5243 65.6675 87.2355 64.782 86.7043C63.6153 86.0032 62.4709 85.2099 61.4897 84.2755C60.5342 83.3666 59.6642 82.3066 58.9964 81.1721C58.1597 79.7521 57.8131 77.9943 56.812 76.7332C55.2586 74.7777 54.7653 72.481 54.0009 70.2499C54.402 70.2421 54.8097 70.2754 55.2009 70.2088C55.3897 70.1766 55.6698 69.9755 55.692 69.8199C55.7331 69.5288 55.712 69.0221 55.5509 68.9432C54.822 68.5855 54.0353 68.3466 53.2698 68.0643C52.8842 66.731 52.5875 65.3632 52.0786 64.0799C51.8042 63.3866 51.1653 62.8388 50.6909 62.2243C50.6698 61.9877 50.6498 61.7499 50.6286 61.5132L50.722 61.4599C50.9242 61.3399 51.1264 61.221 51.3286 61.101C51.1142 60.9943 50.8998 60.8877 50.6853 60.781C50.6575 60.5199 50.6309 60.2588 50.6031 59.9977C50.112 58.2199 49.622 56.441 49.1309 54.6632C49.152 54.4277 49.1742 54.191 49.1953 53.9555C49.4375 53.6766 49.6809 53.3977 49.9242 53.1177C50.1731 53.1455 50.422 53.1743 50.6698 53.2021C50.9709 54.0343 51.2109 54.8955 51.5886 55.6921C52.1909 56.9632 52.8753 58.1955 53.5409 59.4355C54.0742 60.4299 54.5864 61.441 55.1898 62.3932C56.4275 64.3477 57.6575 66.3132 59.0098 68.1877C60.2464 69.901 61.6664 71.481 62.9553 73.1588C63.6253 74.0321 64.0864 75.0799 64.8209 75.8866C65.7153 76.8699 66.7875 77.6921 67.802 78.5632C68.2142 78.9166 68.6742 79.2132 69.1131 79.5355C69.1209 80.2143 69.0709 80.9021 69.1697 81.5677C69.2031 81.791 69.6131 82.1077 69.8542 82.111C70.0942 82.1143 70.4209 81.821 70.5564 81.5743C70.6742 81.3599 70.5798 81.0288 70.5786 80.7499C71.5831 81.1355 72.5797 81.5466 73.5964 81.8966C74.112 82.0732 74.6653 82.1399 75.202 82.2555C75.2364 82.6799 75.2709 83.1055 75.312 83.6232C77.462 83.6232 79.482 83.6232 81.502 83.6232C81.9253 83.621 82.3498 83.6188 82.7731 83.6166C83.4209 83.6221 84.0786 83.5643 84.7109 83.6632C84.9742 83.7043 85.1853 84.0821 85.4197 84.3066C84.3631 84.7955 83.3309 85.3477 82.2453 85.7588C80.4298 86.4455 78.6053 87.1321 76.7353 87.641C75.632 87.941 74.4353 87.8999 73.2798 88.0132C72.8698 87.9932 72.4609 87.9732 72.0509 87.9521C72.2498 86.7743 71.7242 86.3732 70.5909 86.5266C70.0797 86.5955 69.5431 86.5988 69.0342 86.5266C67.9009 86.3643 67.4931 86.8421 67.6653 87.9232L67.6642 87.921Z" fill="white"/>
<path d="M38.2021 50.9877C37.5655 51.1644 36.9288 51.3399 36.2921 51.5166C35.2388 50.7344 33.3566 50.8066 32.7988 51.6499C32.2521 51.6833 31.7043 51.7155 31.1577 51.7488C30.2877 51.771 29.4121 51.7433 28.551 51.8421C28.261 51.8755 28.0088 52.2333 27.7388 52.4421C23.6821 52.5755 19.6199 52.8977 15.5699 52.781C12.3432 52.6888 9.26101 51.7755 6.59879 49.7033C4.72435 48.2444 3.09546 46.6788 2.39657 44.331C2.04435 43.1477 1.64546 41.9788 1.26768 40.8033C1.65768 40.5466 2.31768 40.3499 2.38879 40.0233C2.65768 38.8021 1.65657 39.1655 1.02324 39.0999C0.988793 39.0299 0.967682 38.9566 0.959904 38.8777C0.934349 37.2455 0.934349 35.6121 0.857682 33.981C0.84546 33.7244 0.488793 33.4844 0.291016 33.2366V27.061C0.336571 27.081 0.382127 27.101 0.427682 27.1199C1.09879 29.1166 1.61768 31.1821 2.49213 33.0855C3.12213 34.4566 4.13879 35.6833 5.13768 36.8421C6.43657 38.3488 7.88879 39.7221 9.27324 41.1544C9.53324 41.4233 9.78546 41.6977 10.041 41.9699C9.76213 41.9866 9.39768 41.8999 9.22435 42.0444C8.9299 42.2888 8.63657 42.6588 8.57879 43.0144C8.54768 43.2066 9.00435 43.4788 9.24213 43.7144C9.4899 43.4488 9.81324 43.2199 9.96435 42.9077C10.0921 42.6433 10.0199 42.2821 10.0355 41.9633C10.9243 41.7999 11.221 42.6388 11.8088 42.9855C12.6255 43.4677 13.511 43.8299 14.3677 44.2444C14.1643 45.3744 15.1321 45.0999 15.6977 45.291C15.7977 45.7421 15.8899 46.1577 15.9999 46.6566C16.4188 46.6044 16.9699 46.6833 17.081 46.4977C17.6899 45.4821 18.4688 46.0255 19.211 46.1599C20.111 46.2466 21.011 46.3344 21.911 46.421C21.9166 46.821 21.8443 47.2455 21.9577 47.611C22.0221 47.8199 22.3877 48.0544 22.6232 48.0599C22.8621 48.0655 23.2199 47.8577 23.3221 47.6466C23.4488 47.3844 23.3655 47.021 23.3732 46.701C26.1232 47.1433 28.8655 47.6377 31.6255 48.0055C32.981 48.1855 34.3666 48.1299 35.7388 48.1821C36.0188 48.3799 36.2821 48.7155 36.581 48.7499C37.4143 48.8444 38.271 48.7477 39.0988 48.8633C39.4566 48.9133 39.7677 49.2988 40.0999 49.5321C39.8088 49.781 39.5288 50.0444 39.2243 50.2766C38.8932 50.5288 38.541 50.751 38.1977 50.9855L38.2021 50.9877Z" fill="white"/>
<path d="M50.6279 61.5121C50.649 61.7488 50.669 61.9866 50.6901 62.2232C50.8645 63.4788 51.0512 64.7321 51.209 65.9899C51.2734 66.5054 51.2768 67.0288 51.3079 67.5488C50.8601 67.4154 50.4112 67.2832 49.9945 67.1599C49.9101 66.7088 49.839 66.3254 49.7456 65.8232C49.2656 65.9088 48.8623 65.9821 48.1856 66.1032C48.759 66.5354 49.0534 66.7566 49.2023 66.8688C48.9134 67.3943 48.4123 67.911 48.5201 68.2077C48.6556 68.581 49.289 68.7732 49.8245 69.1188C49.7845 69.9699 50.289 70.4088 51.3079 70.2377C51.3268 70.7132 51.2756 71.2066 51.3879 71.6599C51.4623 71.9577 51.7701 72.1988 51.9734 72.4643C52.0134 74.9666 52.1656 77.4743 52.0568 79.971C51.969 81.9721 51.6234 83.9699 51.269 85.9477C51.1401 86.6643 50.6523 87.3154 50.3279 87.9966C50.0945 87.2766 49.8612 86.5566 49.6145 85.7943C48.1223 87.2743 48.0045 88.6665 49.179 90.1943C48.5645 90.9754 48.0368 91.8521 47.3145 92.5154C46.2934 93.4532 44.9068 93.8532 43.7434 94.5077C42.4034 95.261 41.0834 95.5932 39.6745 95.8721C38.7923 96.0466 37.8934 96.1377 37.0023 96.2666C35.6301 96.2688 34.2556 96.2366 32.8856 96.3032C32.619 96.3166 32.3712 96.7143 32.1145 96.9343C30.2834 96.9343 28.4523 96.9343 26.6212 96.9343C26.5923 96.751 26.5645 96.5677 26.5356 96.3843C27.5479 96.1032 28.5934 95.9088 29.5634 95.5221C31.0956 94.9121 32.6679 94.3199 34.0556 93.451C35.7034 92.4199 37.2068 91.1454 38.7034 89.8943C39.3323 89.3688 39.8134 88.6543 40.309 87.9854C41.0756 86.9499 41.9423 85.9521 42.5001 84.8088C43.2901 83.191 43.8279 81.4499 44.4945 79.771C44.6356 79.4143 44.8656 79.0921 45.0556 78.7543C46.2268 79.501 46.979 79.4177 47.9968 78.5621C48.5056 78.1343 49.1212 77.8354 49.8201 77.3954V74.9566C49.2734 74.8932 48.7956 74.8666 48.3301 74.7788C47.339 74.591 46.8868 74.9466 46.9734 75.9821C47.019 76.5299 46.9812 77.0854 46.9812 77.6021C46.2401 77.7599 45.6601 77.8821 45.0801 78.0054C45.0345 77.7777 44.9079 77.531 44.9545 77.3243C45.3768 75.4477 45.8279 73.5777 46.2712 71.7054C46.4956 71.4054 46.8856 71.121 46.9134 70.8043C47.0056 69.731 46.9701 68.6454 46.9834 67.5654C46.999 66.7599 47.0156 65.9543 47.0312 65.1488C47.9712 65.0777 47.9223 64.3054 47.9201 63.721C47.9134 62.3288 47.7901 60.9366 47.7145 59.5443C47.7523 58.1754 47.789 56.8066 47.8268 55.4377C48.2612 55.1788 48.6956 54.921 49.1301 54.6621C49.6212 56.4399 50.1112 58.2188 50.6023 59.9966C50.3701 60.2266 49.9145 60.5099 49.9545 60.6743C50.0301 60.9888 50.3879 61.2366 50.6279 61.511V61.5121ZM45.5223 85.0777C45.9823 85.0499 46.4423 85.0221 46.9801 84.9899C46.9801 84.211 47.0612 83.5599 46.9456 82.9443C46.8901 82.6488 46.4634 82.4221 46.2056 82.1643C45.979 82.4132 45.5923 82.641 45.5556 82.9154C45.4623 83.6254 45.5223 84.3554 45.5223 85.0777C45.0023 85.2321 44.0845 84.6499 44.1056 85.7621C44.1101 86.0232 44.5768 86.4899 44.8379 86.4943C45.9501 86.5154 45.3668 85.5966 45.5223 85.0777Z" fill="white"/>
<path d="M14.2841 22.0832C14.3164 22.1621 14.3486 22.241 14.3808 22.3199C14.3819 22.4854 14.3841 22.6521 14.3853 22.8177C14.6719 24.3654 14.9319 25.9188 15.2564 27.4588C15.3841 28.0654 15.6164 28.6599 15.8775 29.2243C15.9619 29.4066 16.293 29.4754 16.5108 29.5966C16.8641 30.3132 17.063 31.1843 17.5997 31.7166C18.943 33.051 20.3864 34.2999 21.8897 35.4521C23.0575 36.3477 24.3608 37.071 25.6319 37.8243C26.5197 38.351 27.4653 38.7777 28.3641 39.2866C30.3975 40.4354 32.423 41.5966 34.4375 42.7788C34.8719 43.0343 35.1997 43.4921 35.6497 43.6954C37.3541 44.4654 39.0808 45.1854 40.813 45.891C42.3664 46.5232 43.9386 47.1121 45.5019 47.7199C45.3275 47.9321 45.153 48.1454 44.9786 48.3577C44.7341 48.361 44.4897 48.3632 44.2453 48.3666C43.2908 48.0577 42.3364 47.7488 41.3819 47.4399C38.0997 46.6977 34.8175 45.9532 31.5341 45.2154C30.3019 44.9388 29.0486 44.7421 27.8375 44.3954C25.8641 43.8321 23.8497 43.3543 22.0964 42.2043C21.9397 42.101 21.7375 42.0621 21.5519 42.0066C20.6275 41.7266 19.6153 41.6043 18.7919 41.1443C16.8464 40.0566 14.8553 38.9743 13.1364 37.5777C11.5508 36.2888 10.3386 34.5532 10.0141 32.4177C9.80636 31.0466 9.44748 29.6166 9.64081 28.2832C9.96192 26.0677 10.6008 23.8877 11.2453 21.7354C11.6819 20.2788 12.3486 18.8899 12.9364 17.481C13.023 17.2721 13.2486 17.1221 13.4108 16.9443C13.5775 17.1188 13.7441 17.2932 13.9097 17.4677C13.8408 18.8943 13.7597 20.321 13.7308 21.7488C13.7286 21.8554 14.0919 21.971 14.2853 22.0821L14.2841 22.0832Z" fill="white"/>
<path d="M49.9033 40.8245C50.2711 38.9134 50.5889 36.9912 51.0211 35.0956C51.4944 33.0134 52.0733 30.9545 52.6055 28.8845C53.1155 28.8845 53.6255 28.8845 54.0567 28.8845C54.1722 29.1101 54.21 29.1778 54.2433 29.2489C54.4111 29.6067 54.5078 30.0378 54.7733 30.2934C54.8978 30.4134 55.3467 30.1978 55.6478 30.1345C55.53 29.6734 55.4955 29.1678 55.2767 28.7612C54.9089 28.0767 54.8867 27.5423 55.4422 26.9267C55.9167 26.4012 56.0378 25.8245 55.0244 25.7189C54.7989 25.6956 54.5789 25.6189 54.5689 25.6167C54.2833 25.0567 54.0844 24.6667 53.8855 24.2767C54.2678 23.1856 54.6055 22.0756 55.0444 21.0067C55.62 19.6023 56.3067 18.2545 57.2333 17.0312C58.3311 15.5823 59.2411 13.9656 60.4855 12.6623C61.2689 11.8423 62.5144 11.4645 63.5533 10.8878C66.2978 10.8878 69.0422 10.8878 71.7867 10.8867C73.0822 11.2289 74.4244 11.4534 75.6611 11.9423C77.2 12.5501 78.6567 13.3667 80.1344 14.1212C80.3155 14.2134 80.4067 14.4823 80.6811 14.8667C80.1589 14.8667 79.8111 14.8723 79.4633 14.8667C77.7444 14.8323 75.9622 14.2834 74.4 15.5001C73.6167 15.5034 72.8322 15.5056 72.0489 15.5089H69.2611C69.1889 15.1823 69.1389 15.0656 69.1411 14.9489C69.1511 14.4056 69.0178 13.8867 68.3678 14.0934C68.0655 14.1889 67.76 14.6845 67.6989 15.0412C67.5911 15.6634 67.67 16.3178 67.6711 16.9589C67.6667 17.2056 67.6622 17.4523 67.6578 17.6989C65.4578 17.2689 64.4267 19.0356 63.3722 20.2967C61.6189 22.3923 59.9444 24.5834 58.7222 27.0889C57.8622 28.8523 56.6611 30.4467 55.7089 32.1701C54.8855 33.6601 54.1822 35.2167 53.4544 36.7578C52.6322 38.4967 51.8411 40.2501 51.0355 41.9967H49.98C49.95 41.5278 49.9267 41.1767 49.9044 40.8267L49.9033 40.8245Z" fill="white"/>
<path d="M16.5108 29.5956C16.293 29.4745 15.9619 29.4067 15.8775 29.2234C15.6164 28.6589 15.3841 28.0645 15.2564 27.4578C14.9319 25.9178 14.6719 24.3645 14.3853 22.8156C15.1286 22.5867 16.1253 23.29 16.6375 22.2056C17.5597 22.2011 18.4819 22.1967 19.4041 22.1934C19.9241 23.3189 20.9319 22.5589 21.6841 22.7822C23.2341 23.5356 24.9053 24.1122 26.3019 25.0845C28.0875 26.3278 29.7508 27.7911 31.2875 29.3367C33.4564 31.5189 35.4786 33.8489 37.533 36.1423C38.7597 37.5122 39.9153 38.9467 41.1264 40.33C42.3397 41.7167 43.5841 43.0778 44.8153 44.45C45.0586 44.9334 45.303 45.4156 45.5464 45.8989C45.533 46.0778 45.5208 46.2567 45.5075 46.4356C45.103 46.2311 44.6986 46.0267 44.2953 45.8222C44.2786 45.7411 44.2308 45.6934 44.1497 45.6767C43.8541 45.3722 43.5786 45.0434 43.2597 44.7667C40.8986 42.7211 38.5675 40.6489 35.8764 39.01C34.2575 38.0245 32.8064 36.7689 31.243 35.6867C30.0041 34.83 28.7397 34.0011 27.4319 33.2567C26.3019 32.6145 25.0875 32.1222 23.9208 31.5411C21.5853 30.3778 19.2019 29.4089 16.5119 29.5956H16.5108Z" fill="white"/>
<path d="M95.8412 61.4923C96.0179 64.0912 96.1957 66.6901 96.3723 69.2878L95.9612 69.5056C95.6968 69.2101 95.3301 68.9567 95.1846 68.6112C94.6579 67.3578 94.3412 65.9989 93.6901 64.8212C92.879 63.3556 92.2468 61.7767 90.7901 60.6734C89.8146 59.9345 89.289 58.6267 88.3668 57.7878C87.1146 56.6501 85.7923 55.4778 84.2901 54.7545C82.1001 53.7001 79.7235 53.0312 77.4257 52.1978C77.4235 52.0501 77.4212 51.9012 77.419 51.7534C79.0401 51.9023 78.669 50.3689 79.0912 49.5601C79.6979 50.0945 80.2068 50.5445 80.8301 51.0934C81.5168 49.6234 79.6812 49.3089 79.6379 48.1845C80.1046 48.2134 80.5112 48.2378 80.9401 48.2634C81.2179 47.3612 80.8501 46.9278 80.0579 46.8889C77.8457 46.7801 75.6312 46.7234 73.4179 46.6367C72.9723 46.6189 72.529 46.5589 72.0112 46.5112C72.3357 45.9512 72.5557 45.5712 72.7757 45.1912C75.4235 44.5889 78.0735 44.5989 80.7312 45.1334C81.0835 45.2045 81.4568 45.2045 81.8179 45.1889C83.5835 45.1112 85.0835 46.0156 86.7046 46.4267C88.5023 46.8823 89.5379 48.3612 91.1523 48.9901C91.6446 49.1823 91.8846 50.0223 92.2401 50.5656C92.0035 50.8412 91.7668 51.1178 91.5601 51.3578C91.8079 51.7623 92.0257 52.1189 92.2446 52.4756C91.4346 52.4756 90.6235 52.4756 89.8135 52.4756C89.6579 51.9567 90.239 51.0389 89.1279 51.0589C88.8668 51.0634 88.4001 51.5301 88.3957 51.7912C88.3746 52.9023 89.2923 52.3223 89.8123 52.4767C89.8379 52.9401 89.8635 53.4034 89.9068 54.2023C90.8523 53.8001 91.549 53.5034 92.2457 53.2067C92.5723 53.9078 92.899 54.6101 93.2657 55.3945H94.6423C94.8179 56.2089 94.9946 57.0234 95.1701 57.8367C95.1801 58.7912 95.1446 59.7501 95.2301 60.6978C95.2557 60.9767 95.6279 61.2245 95.8412 61.4878V61.4923ZM85.4301 49.7034C85.7446 49.6334 85.9001 49.5645 86.0501 49.5723C86.6668 49.6067 87.049 49.3212 86.8479 48.7312C86.7523 48.4512 86.2812 48.2201 85.9368 48.1256C85.5612 48.0223 85.0957 48.0001 84.7446 48.1356C84.4346 48.2556 84.0379 48.6212 84.0079 48.9123C83.9135 49.8312 83.9135 50.7712 84.0079 51.6889C84.0379 51.9734 84.4901 52.2134 84.749 52.4745C84.9757 52.2223 85.3546 51.9945 85.3979 51.7145C85.4968 51.0889 85.429 50.4367 85.429 49.7045L85.4301 49.7034Z" fill="white"/>
<path d="M47 43.751C46.8311 43.1144 46.6344 42.4832 46.5 41.8399C46.3789 41.2599 46.3266 40.6655 46.2444 40.0766C46.2344 39.2777 46.2233 38.4788 46.2122 37.6799C46.0911 37.1821 45.97 36.6843 45.8489 36.1866C45.7355 35.4599 45.6222 34.7321 45.5089 34.0055C45.49 32.7955 45.4711 31.5844 45.4511 30.3743C46.0178 30.241 46.86 30.6288 46.9622 29.6055C47.06 28.6266 46.2133 29.0155 45.7789 28.8066C45.71 28.7732 45.6589 28.7044 45.7589 28.7921C45.4111 27.1032 45.1189 25.581 44.7644 24.0732C44.7133 23.8532 44.3633 23.7043 44.1511 23.5221C44.1444 22.0666 44.1378 20.611 44.1311 19.1566C45.1178 19.1844 45.0011 18.4832 45.0433 17.8377C45.09 17.1388 44.7833 16.8932 44.1322 16.9643C44.1289 16.7321 44.1244 16.501 44.1211 16.2688C44.3366 16.0055 44.6644 15.7721 44.7433 15.4732C44.8622 15.0221 44.8089 14.5255 44.8289 14.0488C45.06 14.291 45.2989 14.5255 45.5189 14.7766C45.7222 15.0077 45.96 15.4843 46.0867 15.4532C46.4078 15.3766 46.7189 15.1121 46.9478 14.8499C47.0778 14.6999 47.0411 14.4043 47.08 14.171C47.5522 14.0699 47.9666 13.981 48.4111 13.8866C48.1411 11.1988 50.4222 12.9344 51.2766 12.1121C51.3389 11.7666 51.4078 11.3821 51.48 10.9788C51.9222 10.9099 52.3066 10.8488 52.8166 10.7688V9.42324C54.1189 9.15546 54.2633 9.26879 54.28 10.5755C54.2833 10.8521 54.2878 11.1288 54.2922 11.4055C53.8055 12.4477 53.3055 13.4844 52.8378 14.5343C52.7022 14.8377 52.6566 15.1821 52.57 15.5077C51.7622 15.0099 50.9544 14.511 49.9 13.861C49.9 14.841 49.8633 15.511 49.9178 16.1743C49.94 16.4388 50.1255 16.8777 50.3 16.911C51.5 17.1432 51.3733 18.021 51.3444 18.8688C51.3211 19.2043 51.2966 19.5399 51.2733 19.8755C50.3911 20.4366 50.11 21.4021 49.9444 22.2932C49.7555 23.3088 49.8889 24.3855 49.8822 25.4355C49.86 26.3277 49.8366 27.221 49.8144 28.1132C49.6011 28.3821 49.2311 28.6366 49.2033 28.9244C49.12 29.7955 49.1689 30.6799 49.1666 31.5599C49.1455 32.1177 49.1255 32.6743 49.1044 33.2321C48.8866 33.5388 48.49 33.8388 48.4789 34.1532C48.4133 35.9621 48.44 37.7744 48.4344 39.5855C48.4044 40.961 48.3755 42.3355 48.3455 43.711C47.8967 43.7255 47.4467 43.7388 46.9967 43.7532L47 43.751ZM48.5144 18.3799C48.4266 17.9366 48.4589 17.421 48.2189 17.1299C48.0711 16.951 47.18 17.0932 47.1766 17.1332C47.1111 17.9877 47.1055 18.8499 47.1689 19.7055C47.1722 19.751 48.1078 19.8921 48.2067 19.7343C48.4389 19.3655 48.4266 18.8432 48.5144 18.3799ZM45.5889 20.1632C45.3755 20.0577 45.2366 19.9288 45.1311 19.9521C45.0155 19.9777 44.9311 20.1444 44.8333 20.2488C44.9689 20.3499 45.0944 20.4888 45.2466 20.531C45.3055 20.5477 45.4266 20.3444 45.5889 20.1632Z" fill="white"/>
<path d="M52.8186 9.42097V10.7665C52.3086 10.8465 51.9241 10.9065 51.4819 10.9765C51.4097 11.3799 51.3408 11.7643 51.2786 12.1099C50.4241 12.9321 48.143 11.1965 48.413 13.8843C47.9686 13.9799 47.5541 14.0676 47.0819 14.1688C47.043 14.4021 47.0797 14.6976 46.9497 14.8476C46.7197 15.111 46.4097 15.3743 46.0886 15.451C45.9619 15.481 45.7241 15.0054 45.5208 14.7743C45.3008 14.5232 45.0608 14.2888 44.8297 14.0465C44.8119 13.8776 44.7941 13.7099 44.7764 13.541C45.0997 7.55431 50.6241 2.79542 55.9797 2.11875C56.7008 2.11653 57.4286 2.17542 58.1375 2.08097C58.4264 2.0432 58.6708 1.67431 58.9353 1.45542C59.4953 1.43653 60.0564 1.41875 60.6164 1.39986C62.643 1.39209 64.6697 1.37875 66.6975 1.37986C67.1597 1.37986 67.7597 1.23653 67.6341 2.0632C66.0886 2.64764 64.4575 3.0732 63.0175 3.85098C60.5519 5.1832 58.4319 6.99097 56.6264 9.16764C55.9441 9.99097 55.0775 10.661 54.2941 11.4021C54.2897 11.1254 54.2853 10.8488 54.2819 10.5721C54.2653 9.26542 54.1208 9.1532 52.8186 9.42097C52.6664 8.90209 53.2475 7.98653 52.1364 8.00764C51.8764 8.01209 51.4108 8.47653 51.4053 8.73653C51.3841 9.84764 52.3019 9.2632 52.8186 9.41875V9.42097Z" fill="white"/>
<path d="M72.7767 45.1943C72.5567 45.5743 72.3367 45.9532 72.0123 46.5143C72.53 46.5621 72.9734 46.6221 73.4189 46.6399C75.6323 46.7266 77.8467 46.7843 80.0589 46.8921C80.8511 46.931 81.2189 47.3632 80.9411 48.2666C80.5134 48.2399 80.1067 48.2154 79.6389 48.1877C79.6823 49.3121 81.5178 49.6266 80.8311 51.0966C80.2089 50.5477 79.6989 50.0977 79.0923 49.5632C78.67 50.3721 79.0411 51.9054 77.4189 51.7566C76.6534 51.5132 75.9023 51.1921 75.1189 51.051C74.4611 50.9321 73.7656 51.0243 73.0867 51.0232C71.2867 50.771 69.4856 50.5177 67.6856 50.2654C67.4189 50.0499 67.1611 49.6654 66.8834 49.6488C65.53 49.5677 64.17 49.5854 62.8123 49.5688C61.5189 49.5388 60.2256 49.5088 58.9323 49.4799C58.5845 49.2721 58.2356 48.8832 57.8878 48.8843C55.7 48.8954 53.4611 48.4566 51.3667 49.4877C51.3678 48.8654 51.3689 48.2432 51.3711 47.6199C51.5811 47.601 51.79 47.5832 52 47.5643C52.8434 47.5877 53.6867 47.6121 54.53 47.6354C55.4256 47.8454 56.3223 48.0554 57.3445 48.2954C57.3956 47.6221 57.4211 47.2688 57.4478 46.9166C57.94 46.8166 58.4323 46.7166 58.9256 46.6154C60.2856 46.5843 61.6478 46.5921 63.0034 46.4966C63.3778 46.4699 63.73 46.1377 64.0934 45.9454C65.2667 45.7943 66.4378 45.5988 67.6156 45.5032C69.3334 45.3632 71.0556 45.2943 72.7767 45.1943ZM68.4667 46.231C68.0611 46.7777 67.6723 47.0832 67.7189 47.291C67.7878 47.5966 68.1667 47.8321 68.4145 48.0977C68.65 47.861 69.0345 47.6488 69.0789 47.3799C69.1211 47.131 68.8011 46.8199 68.4667 46.231Z" fill="white"/>
<path d="M66.2175 69.4188C65.503 68.8855 64.6908 68.4444 64.093 67.8021C62.2463 65.8221 60.4141 63.821 58.7064 61.7222C57.2275 59.9055 55.3841 58.4188 54.2041 56.3099C53.5352 55.1144 52.2997 54.2344 51.3186 53.2122C51.3086 52.9744 51.2986 52.7355 51.2886 52.4977C51.5408 52.4933 51.793 52.4888 52.0452 52.4844C52.2064 52.4999 52.4097 52.4566 52.5208 52.5388C53.9286 53.5822 55.3497 54.611 56.713 55.7099C57.8086 56.5922 58.7786 57.6344 59.8997 58.4788C61.6119 59.7688 63.3997 60.9622 65.1697 62.1755C66.9664 63.4066 68.7808 64.6122 70.5875 65.8299C70.4263 66.281 70.3975 66.9622 70.0819 67.141C68.9386 67.7888 67.693 68.2544 66.5064 68.8299C66.3508 68.9055 66.3108 69.2166 66.2164 69.4177L66.2175 69.4188Z" fill="white"/>
<path d="M66.2178 69.4188C66.3111 69.2166 66.3522 68.9055 66.5078 68.8311C67.6944 68.2555 68.94 67.7911 70.0833 67.1422C70.3989 66.9633 70.4278 66.2822 70.5889 65.8311C71.0578 65.8911 71.6144 65.8088 71.9822 66.0344C74.1833 67.3866 76.5544 68.1599 79.1244 68.3455C80.5078 69.0466 80.9544 70.2844 81.0578 71.7188C81.0867 72.1188 80.9656 72.7466 81.17 72.881C82.1144 73.5022 81.7067 74.3822 81.7644 75.1744C81.6244 75.1599 81.4844 75.1455 81.3455 75.131C80.3822 75.0544 79.42 74.9555 78.4556 74.931C78.3533 74.9288 78.24 75.3555 78.1322 75.5833C75.5433 75.7122 73.1867 75.1533 71.2478 73.3055C71.0856 73.1511 70.8167 73.1099 70.5978 73.0155C70.3811 72.8099 70.1633 72.6033 69.9467 72.3977L69.88 72.3733C69.6344 72.1466 69.3889 71.9199 69.1433 71.6933L69.1356 71.6877C69.28 71.2111 69.4344 70.3199 69.5667 70.3233C70.8233 70.3544 70.5733 69.4977 70.5911 68.7822C71.1089 68.6255 72.0278 69.2077 72.0067 68.0966C72.0022 67.8366 71.5356 67.3699 71.2756 67.3655C70.1644 67.3455 70.7467 68.2633 70.59 68.7811C69.2144 68.5299 68.1633 69.0122 67.4089 70.1788C67.3767 70.2277 67.26 70.2222 67.1833 70.2422C67.1044 70.2066 67.0255 70.1722 66.9467 70.1366C66.7278 69.9188 66.5089 69.7022 66.29 69.4844L66.2222 69.4222L66.2178 69.4188ZM72.0667 71.5055C72.0167 72.4344 71.85 73.3022 73.2444 73.1811C74.4855 73.0733 75.1267 72.5166 75.2322 71.3844C75.3422 70.1944 74.6711 70.1822 73.8311 70.2322C72.9222 70.2866 71.6844 69.8688 72.0667 71.5055Z" fill="white"/>
<path d="M81.7643 75.1734C81.7065 74.3812 82.1143 73.5012 81.1699 72.8801C80.9654 72.7456 81.0865 72.1179 81.0577 71.7179C80.9543 70.2834 80.5076 69.0457 79.1243 68.3445C79.2676 67.9734 79.6221 67.5145 79.511 67.2501C79.2965 66.739 78.8221 66.3368 78.4521 65.8923C77.8499 65.1701 77.2454 64.4501 76.6421 63.729C76.9465 63.4657 77.2188 63.0445 77.5632 62.9745C78.1699 62.8501 78.821 62.9401 79.5943 62.9401C79.5943 62.3434 79.5943 61.9101 79.5943 61.4779C80.0554 61.4512 80.5165 61.4245 81.0499 61.3934C81.0499 60.8068 80.9732 60.3479 81.0788 59.9368C81.141 59.6923 81.4921 59.5223 81.7132 59.3179L81.7643 59.3434C82.0032 59.5734 82.2421 59.8034 82.481 60.0345L82.4976 60.0545C82.5021 61.0168 82.5065 61.9779 82.511 62.9401C81.7632 63.2012 81.0154 63.4623 80.2888 63.7156C80.6421 64.3834 80.8021 64.809 81.0688 65.1523C81.2876 65.4357 81.6321 65.6212 81.921 65.8501C82.1176 65.5679 82.4454 65.3023 82.4843 65.0001C82.571 64.3234 82.5121 63.629 82.5132 62.9412C83.4188 62.9357 84.3254 62.9301 85.231 62.9245C85.551 63.7479 85.871 64.5712 86.191 65.3945C86.1888 67.4012 86.1876 69.4079 86.1865 71.4145C86.1532 71.5056 86.1199 71.5968 86.0865 71.6879C85.3821 71.6923 84.6788 71.6956 83.9743 71.7001C83.9743 70.8934 83.9732 70.0868 83.9721 69.279C83.9721 67.1468 83.9421 67.1201 81.8221 67.3201C81.7421 67.3279 81.6243 67.2945 81.5865 67.3368C81.3988 67.5456 81.1076 67.7645 81.0932 67.9957C81.0777 68.239 81.2732 68.5934 81.4843 68.7279C81.7243 68.8812 82.0854 68.8445 82.5288 68.9101V71.7001H83.9743V73.0012C84.521 73.1201 84.9354 73.2112 85.4143 73.3157V74.5701C85.1854 75.1568 84.9576 75.7434 84.7288 76.3301C83.9765 76.3312 83.2254 76.3334 82.4732 76.3345C82.3376 76.2501 82.2021 76.1668 82.0665 76.0823C81.9654 75.7801 81.8643 75.4768 81.7632 75.1745L81.7643 75.1734ZM84.6154 66.2701C85.0299 65.7323 85.4243 65.4334 85.3799 65.2279C85.3143 64.9212 84.9399 64.6801 84.6976 64.4112C84.4588 64.6434 84.0732 64.849 84.0243 65.1168C83.9788 65.3645 84.291 65.6779 84.6154 66.2701Z" fill="white"/>
<path d="M65.7012 24.2566C66.1223 22.9654 66.5645 21.681 66.9578 20.3821C67.2256 19.4977 67.4267 18.5932 67.6567 17.6977C67.6612 17.451 67.6656 17.2043 67.6701 16.9577C69.0912 17.0921 70.5356 17.8343 72.0478 16.5277V15.5077C72.8312 15.5043 73.6156 15.5021 74.3989 15.4988C74.4312 15.8199 74.4623 16.141 74.4945 16.4621C74.4901 16.9866 74.5378 17.5188 74.4656 18.0343C74.4023 18.4899 74.0767 18.931 74.0945 19.3699C74.1267 20.1766 74.3245 20.9777 74.4545 21.781C74.2923 22.0399 74.1301 22.2977 73.9678 22.5566C73.8078 22.2988 73.7001 21.9766 73.4767 21.7988C73.2112 21.5877 72.8345 21.3777 72.5312 21.4088C72.3478 21.4277 72.0667 21.9221 72.0956 22.171C72.1234 22.4032 72.4723 22.6877 72.7378 22.7777C73.0634 22.8877 73.4501 22.8177 73.8101 22.8254C73.3801 23.791 72.9501 24.7554 72.5201 25.721C71.8812 25.5632 70.8101 25.5577 70.689 25.2154C70.3867 24.3599 69.9123 24.3577 69.2356 24.3666C69.1389 25.2999 69.3589 26.5566 68.8823 26.9332C68.2923 27.3988 67.1256 27.1321 66.2078 27.1821C66.2078 26.5077 66.2601 25.8277 66.1845 25.1621C66.149 24.8466 65.8701 24.5577 65.7012 24.2566Z" fill="white"/>
<path d="M47.2445 53.4989C47.1501 53.8767 47.0545 54.2545 46.9612 54.6322C46.6179 56.0122 46.2712 57.39 45.9345 58.7711C45.7945 59.3445 45.6556 59.9189 45.5512 60.4989C45.2634 62.0989 45.0956 63.7278 44.6923 65.2978C44.2456 67.0378 43.5523 68.7134 43.0379 70.4378C42.5901 71.9389 42.269 73.4767 41.8334 74.9811C41.7168 75.3856 41.3834 75.7278 41.1501 76.0978C41.1468 75.3789 41.2034 74.6522 41.1112 73.9456C41.0745 73.6622 40.7145 73.2034 40.4956 73.1989C39.6256 73.1834 39.669 72.6433 39.6812 72.0622C39.7045 70.9422 39.1212 70.3633 38.0356 70.2411C38.3379 69.75 38.6745 69.2756 38.9368 68.7645C40.139 66.4178 41.3345 64.0678 42.5045 61.7045C43.2868 60.1256 44.049 58.5356 44.7679 56.9267C45.1123 56.1545 45.2012 55.2411 45.6479 54.5478C46.2212 53.6611 45.9556 52.2834 47.2323 51.8245C47.2368 52.3834 47.2412 52.94 47.2445 53.4989ZM41.8423 69.1989C42.2279 68.6345 42.6045 68.3156 42.5501 68.1089C42.4701 67.8045 42.0834 67.5822 41.8268 67.3245C41.6001 67.5711 41.2256 67.7967 41.1879 68.07C41.1534 68.3189 41.4856 68.6178 41.8423 69.1989Z" fill="white"/>
<path d="M39.672 79.7021C39.3808 80.721 39.1797 81.8044 37.9331 82.1444C36.652 81.9233 36.3297 82.5644 36.5431 83.6888C35.8931 84.3855 35.3286 85.2044 34.5675 85.7421C33.8686 86.2355 32.9553 86.4255 32.1375 86.7499C32.1375 86.2377 32.1375 85.7255 32.1375 85.1988C31.5886 85.1066 31.2031 85.0421 30.752 84.9666V80.8444C31.2364 80.7344 31.652 80.6388 32.0353 80.5521C32.1264 80.0844 32.2008 79.701 32.2697 79.3488C32.7397 79.2544 33.1242 79.1777 33.5642 79.0899C33.5642 78.3466 33.5642 77.6644 33.5642 76.9821C34.0864 76.2766 34.6075 75.571 35.1297 74.8655C36.3631 74.871 37.7142 76.2155 37.8697 77.5933C36.052 78.0966 36.0297 78.2933 37.6175 79.9377C38.3053 79.9133 38.8353 78.4266 39.672 79.7044V79.7021ZM35.4664 82.9755C34.9297 82.5621 34.6297 82.1666 34.422 82.2088C34.1142 82.2721 33.872 82.6488 33.6031 82.8921C33.8364 83.1321 34.0431 83.5177 34.312 83.5677C34.5597 83.6133 34.8753 83.2988 35.4664 82.9755Z" fill="white"/>
<path d="M19.7124 85.0921C18.5401 85.2788 17.7413 84.471 16.8135 84.0065C17.6224 83.8743 18.429 83.7132 19.2424 83.621C19.719 83.5677 20.2501 83.6865 20.2301 82.9454C20.859 82.7777 21.4879 82.6099 22.1168 82.441C23.0235 82.3421 23.9301 82.2432 24.8368 82.1432C25.8979 81.8232 26.959 81.5032 28.019 81.1843C28.9413 81.2799 29.3746 81.7421 29.2268 82.7077C29.1668 83.1032 29.2735 83.5254 29.2068 83.9188C28.9568 85.3943 29.7179 86.2299 30.9501 86.7921C30.5757 86.9621 30.1857 87.3077 29.8313 87.2754C27.4213 87.0543 25.0168 86.7643 22.6146 86.4621C22.3668 86.431 22.1468 86.1777 21.9146 86.0277C21.9579 85.4077 21.789 85.0088 21.0457 85.0843C20.6057 85.1288 20.1579 85.091 19.7135 85.091L19.7124 85.0921Z" fill="white"/>
<path d="M53.5455 49.7966C54.0111 50.0443 54.4533 50.421 54.9477 50.5155C56.5822 50.8243 58.2555 50.9377 59.8777 51.2955C62.7155 51.921 65.5677 52.541 68.33 53.4266C69.5666 53.8232 71.08 53.5755 72.0411 54.7543C71.7877 54.971 71.5555 55.3343 71.2777 55.3732C70.6211 55.4655 69.9433 55.4032 69.13 55.4032V56.8521C69.1344 57.4177 69.1389 57.9821 69.1433 58.5477C69.1144 58.5777 69.0844 58.6066 69.0555 58.6366C68.6222 58.5777 68.1889 58.5177 68.0144 58.4943C67.5377 57.921 67.28 57.3888 66.8555 57.1432C65.7055 56.4777 64.4844 55.9355 63.2922 55.3432C63.5111 54.9721 63.7311 54.601 63.9955 54.1521C63.7677 54.0799 63.56 53.961 63.3511 53.9566C62.5633 53.941 61.6622 54.151 61.7444 52.841C61.7511 52.7399 61.2511 52.5188 60.9866 52.5188C60.7877 52.5188 60.4844 52.7477 60.4144 52.9421C60.3111 53.2277 60.3733 53.5732 60.3655 53.8921C59.9255 53.7643 59.4655 53.6821 59.0511 53.4977C58.4166 53.2143 57.8355 52.8055 57.1922 52.5477C55.5822 51.9032 53.9488 51.3132 52.3255 50.7021C52.1744 49.6499 52.9155 49.7977 53.5455 49.7966Z" fill="white"/>
<path d="M28.0175 81.1856C26.9564 81.5056 25.8953 81.8256 24.8353 82.1445V79.3589C24.3009 79.27 23.9142 79.2067 23.512 79.14C23.4097 78.6811 23.3175 78.2656 23.2086 77.7756H21.9486C21.7853 77.6111 21.6209 77.4467 21.4575 77.2822C22.0664 75.0622 22.9409 72.9556 24.1842 71.0133C24.3709 70.7222 24.6586 70.4956 24.8997 70.2389C25.852 70.2389 26.8031 70.2389 27.7553 70.2378C27.6109 70.7178 27.4553 71.6156 27.3231 71.6122C26.0642 71.58 26.3075 72.4345 26.2953 73.1567C25.8353 73.1845 25.3753 73.2122 24.8364 73.2445C24.8364 74.1045 24.762 74.8333 24.872 75.5345C24.9175 75.8256 25.3542 76.0556 25.6131 76.3134C25.8397 76.0645 26.232 75.8333 26.2631 75.5611C26.352 74.7678 26.2942 73.9589 26.2953 73.1567C26.7586 73.1822 27.2231 73.2089 27.6864 73.2345C27.6097 73.34 27.532 73.4467 27.4553 73.5522C27.7842 73.9867 28.0597 74.7311 28.4509 74.7967C29.7297 75.0145 28.892 73.6889 29.5409 73.1567H30.5809C30.4253 73.6233 30.282 74.0945 30.112 74.5567C29.8931 75.1478 29.652 75.7311 29.4209 76.3178H27.8697C27.7853 76.8645 27.7253 77.25 27.6642 77.64C27.1931 77.7467 26.7797 77.8411 26.3997 77.9278V80.55C27.0097 80.7 27.512 80.8245 28.0131 80.9478C28.0086 81.0267 28.0109 81.1056 28.0186 81.1845L28.0175 81.1856Z" fill="white"/>
<path d="M62.5931 30.351C62.862 29.6865 63.102 29.0077 63.4098 28.361C63.6453 27.8643 63.9664 27.4077 64.2487 26.9343C64.9009 27.0165 65.5542 27.0988 66.2064 27.181V27.541C66.2064 29.4232 67.1501 30.3547 69.0375 30.3354C68.4609 31.0521 67.9398 31.8243 67.2942 32.4732C65.9842 33.7888 64.6242 35.0554 63.2531 36.3088C62.3131 37.1688 61.3209 37.971 60.352 38.7999C60.3564 37.7232 60.4087 36.6443 60.3342 35.5732C60.3131 35.2799 59.9109 35.0132 59.6831 34.7332C60.3742 33.7454 61.0642 32.7588 61.7553 31.771C62.2631 31.781 62.772 31.7899 63.2798 31.7999C63.4442 32.3165 62.8564 33.241 63.9698 33.2199C64.2309 33.2154 64.6987 32.7477 64.7031 32.4865C64.7242 31.3732 63.7987 31.9621 63.282 31.7965C63.1042 31.2888 63.7431 30.3921 62.5909 30.3499L62.5931 30.351Z" fill="white"/>
<path d="M79.5946 61.4789V62.9412C78.8201 62.9412 78.1701 62.8512 77.5634 62.9756C77.219 63.0456 76.9468 63.4667 76.6423 63.73C75.6012 63.1478 74.5557 62.5745 73.5268 61.97C73.4401 61.9189 73.4723 61.6667 73.449 61.5067C73.689 61.4978 73.929 61.4812 74.169 61.48C74.6979 61.4778 75.2312 61.5478 75.2146 60.7267C75.1979 59.8845 74.6212 60.0256 74.1212 60.0245C73.1601 60.0223 72.2001 60.0412 71.239 60.0523C70.3079 59.8912 69.5379 59.4845 69.0557 58.6345C69.0846 58.6045 69.1134 58.5756 69.1434 58.5456C69.5379 58.5512 69.9323 58.56 70.3279 58.5612C71.4723 58.5626 72.0471 57.9938 72.0523 56.8545C72.5368 56.8545 73.0212 56.8545 73.5057 56.8545C73.5323 57.4 73.559 57.9467 73.6057 58.91C74.4979 58.4212 75.1001 58.0912 75.7568 57.7312C75.8734 57.93 76.0568 58.2423 76.2401 58.5534L76.5568 58.54C76.5957 57.98 76.6345 57.4212 76.6734 56.8612C77.0734 56.8612 77.4734 56.8623 77.8734 56.8634C78.4434 57.1345 79.0146 57.4056 79.5845 57.6756C79.5868 57.97 79.589 58.2656 79.5912 58.56C79.129 58.5856 78.6668 58.6112 78.2445 58.6345C78.1434 59.17 78.0712 59.5534 78.0034 59.9145C77.809 59.9578 77.6923 60.0078 77.5768 60.0045C77.0301 59.9923 76.5112 60.1289 76.719 60.78C76.8157 61.0834 77.3145 61.3867 77.6723 61.4489C78.2968 61.5567 78.9534 61.4778 79.5968 61.4767L79.5946 61.4789Z" fill="white"/>
<path d="M50.6124 45.9133C51.1357 45.2444 51.659 44.5744 52.1835 43.9067C52.8879 43.0089 53.5979 42.1144 54.299 41.2133C55.1957 40.0622 56.0801 38.9022 56.9912 37.7633C57.0601 37.6767 57.3012 37.7289 57.4624 37.7156C57.2801 38.7511 57.6024 39.2967 58.7601 39.1144C59.1835 39.0478 59.6235 39.09 60.0568 39.0833C58.9157 40.0589 57.8601 41.1667 56.6135 41.98C54.8957 43.1 53.6512 44.7033 52.0957 45.9767C51.8824 46.0322 51.6524 46.0544 51.4601 46.1522C51.089 46.3433 50.739 46.5767 50.3801 46.7933C50.3257 46.6889 50.2712 46.5844 50.2168 46.4789C50.349 46.2911 50.4801 46.1011 50.6124 45.9133Z" fill="white"/>
<path d="M43.8001 51.7667C43.9723 51.7712 44.1456 51.7745 44.319 51.779C44.0801 52.5867 44.0245 53.5201 43.5701 54.1801C42.0267 56.4234 40.3434 58.5701 38.7134 60.7534C37.8579 60.5001 36.9923 60.2745 36.1556 59.969C35.9812 59.9045 35.9145 59.5445 35.7979 59.3201L35.8223 59.3067C36.059 59.0734 36.2967 58.8412 36.5334 58.6078L36.5623 58.579C36.9923 58.5523 37.4212 58.5267 37.9801 58.4923C37.9801 57.9278 37.9801 57.4567 37.9801 56.9845C39.3423 55.9356 40.7456 54.9356 42.0501 53.819C42.7245 53.2412 43.2223 52.4567 43.799 51.7656L43.8001 51.7667Z" fill="white"/>
<path d="M26.2266 68.7401C26.9988 67.7845 27.771 66.8301 28.5432 65.8745C28.8721 66.2601 29.1999 66.6456 29.7355 67.2723C30.1943 67.2967 31.3443 67.0312 31.7688 67.469C32.2377 67.9523 32.0399 69.0801 32.1332 69.9278C31.7377 70.5212 31.3421 71.1145 30.9466 71.7067C29.9799 71.7334 28.8999 71.9212 29.151 70.2367H27.7555C28.0255 68.9423 27.3455 68.6167 26.2266 68.7401Z" fill="white"/>
<path d="M30.6932 63.7345C31.0087 63.4678 31.3232 63.2001 31.6387 62.9334C32.2909 62.9367 32.9443 62.939 33.5965 62.9423C33.5965 63.429 33.5965 63.9145 33.5965 64.4012C33.372 64.5467 33.1487 64.6934 32.9243 64.839C33.002 64.9167 33.0798 64.9945 33.1576 65.0723C33.3043 64.8478 33.4498 64.6256 33.5965 64.4012C34.1509 64.2667 35.0998 64.8145 35.0443 63.6112C34.9932 62.5123 34.112 63.0967 33.5965 62.9401C33.5998 62.3023 33.602 61.6645 33.6054 61.0278C34.0876 60.6901 34.5709 60.3534 35.0532 60.0156C35.0798 60.4801 35.1054 60.9445 35.1298 61.3701C35.6676 61.4712 36.052 61.5445 36.5065 61.6301C36.5065 62.2556 36.5065 62.8167 36.5065 63.3778C35.6687 64.6878 34.832 65.9978 33.9943 67.3078C33.7909 66.879 33.5865 66.4501 33.3387 65.929C33.1665 65.9123 32.8943 65.8701 32.6232 65.8634C31.3098 65.8316 30.6646 65.1619 30.6876 63.8545C30.6876 63.8145 30.6909 63.7745 30.6932 63.7345Z" fill="white"/>
<path d="M38.0345 70.2411C39.1201 70.3633 39.7034 70.9422 39.6801 72.0622C39.6679 72.6444 39.6245 73.1833 40.4945 73.1989C40.7145 73.2033 41.0734 73.6622 41.1101 73.9455C41.2023 74.6522 41.1456 75.3789 41.149 76.0978C40.8678 76.6444 41.6723 77.6133 40.4834 77.8056C40.099 77.4267 39.7145 77.0489 39.0778 76.42C36.819 76.5511 38.5367 74.2444 37.7167 73.3978C37.3167 73.1544 36.9156 72.91 36.5156 72.6667C37.0223 71.8578 37.5278 71.05 38.0345 70.2411Z" fill="white"/>
<path d="M69.0377 30.3368C67.1502 30.3553 66.2065 29.4238 66.2065 27.5423V27.1823C67.1243 27.1323 68.291 27.3979 68.881 26.9334C69.3577 26.5579 69.1388 25.3001 69.2343 24.3668C69.911 24.3568 70.3854 24.3601 70.6877 25.2156C70.8088 25.5568 71.8799 25.5623 72.5188 25.7212C71.7965 26.7779 71.0754 27.8334 70.3532 28.8901C69.9732 28.9123 69.5932 28.9345 69.1899 28.9579C69.1543 29.4756 69.1265 29.8679 69.0999 30.2601L69.0388 30.339L69.0377 30.3368Z" fill="white"/>
<path d="M28.0176 81.1854C28.0098 81.1065 28.0087 81.0276 28.012 80.9488C28.1598 80.861 28.3065 80.7721 28.4542 80.6843C28.9876 80.5532 29.812 81.1465 29.9676 80.0754C30.4676 79.6477 30.9687 79.2199 31.4676 78.7899C32.1676 78.1876 32.8654 77.5832 33.5631 76.9788C33.5631 77.661 33.5631 78.3432 33.5631 79.0865C33.122 79.1743 32.7387 79.2521 32.2687 79.3454C32.1998 79.6965 32.1254 80.081 32.0342 80.5488C31.652 80.6354 31.2354 80.731 30.7509 80.841V84.9632C31.202 85.0388 31.5876 85.1032 32.1365 85.1954C32.1365 85.7232 32.1365 86.2354 32.1365 86.7465C31.7398 86.761 31.3442 86.7754 30.9476 86.791C29.7154 86.2288 28.9542 85.3932 29.2042 83.9177C29.2709 83.5243 29.1642 83.1021 29.2242 82.7065C29.372 81.7399 28.9387 81.2788 28.0165 81.1832L28.0176 81.1854Z" fill="white"/>
<path d="M36.5154 72.6677C36.9154 72.9111 37.3165 73.1555 37.7165 73.3988C38.5377 74.2455 36.8188 76.5522 39.0777 76.4211C39.7143 77.0488 40.0988 77.4277 40.4832 77.8066C40.3443 78.4944 40.5999 79.3522 39.6721 79.7033C38.8354 78.4255 38.3043 79.9122 37.6177 79.9366C36.0299 78.2922 36.051 78.0944 37.8699 77.5922C37.7132 76.2144 36.3632 74.8699 35.1299 74.8644C35.5921 74.1322 36.0543 73.3999 36.5154 72.6677Z" fill="white"/>
<path d="M47.2445 53.4988C47.2401 52.9399 47.2356 52.3821 47.2323 51.8232C47.2734 51.2477 47.0979 50.9232 46.4323 51.051C45.9012 51.1532 45.3601 51.1966 44.8223 51.2666C44.8145 50.961 44.8056 50.6555 44.7979 50.3488C45.3667 49.9388 45.9367 49.5299 46.5056 49.1199C46.8923 49.1121 47.2801 49.1032 47.6667 49.0955C48.169 49.7355 48.6723 50.3755 49.1745 51.0143C49.189 51.2543 49.2023 51.4943 49.2167 51.7343C49.2101 51.9766 49.2045 52.2199 49.1979 52.4621C49.1979 52.9588 49.1967 53.4566 49.1956 53.9532C49.1745 54.1888 49.1523 54.4255 49.1312 54.661C48.6967 54.9188 48.2623 55.1777 47.8278 55.4355C47.6334 54.7899 47.4401 54.1432 47.2456 53.4977L47.2445 53.4988Z" fill="white"/>
<path d="M77.8711 56.8656C77.4711 56.8656 77.0711 56.8645 76.6711 56.8634C75.6156 56.8612 74.56 56.8579 73.5034 56.8556C73.0189 56.8556 72.5345 56.8556 72.05 56.8556C71.0767 56.8545 70.1022 56.8523 69.1289 56.8512V55.4023C69.9411 55.4023 70.62 55.4645 71.2767 55.3723C71.5545 55.3334 71.7867 54.9701 72.04 54.7534C73.4867 55.1745 74.9456 55.5623 76.3756 56.0334C76.9078 56.209 77.3745 56.5812 77.87 56.8634L77.8711 56.8656Z" fill="white"/>
<path d="M45.0811 78.0066C45.6611 77.8833 46.2411 77.761 46.9822 77.6032C46.9822 77.0866 47.02 76.5321 46.9744 75.9833C46.8878 74.9477 47.34 74.5921 48.3311 74.7799C48.7966 74.8677 49.2744 74.8944 49.8211 74.9577V77.3966C49.1222 77.8366 48.5055 78.1355 47.9978 78.5633C46.98 79.4188 46.2278 79.5021 45.0566 78.7555C45.0655 78.5055 45.0722 78.2555 45.0811 78.0066Z" fill="white"/>
<path d="M30.6935 63.7344C30.6912 63.7744 30.689 63.8144 30.6879 63.8544C30.6649 65.1633 31.3101 65.8329 32.6235 65.8633C32.8957 65.8699 33.1668 65.9122 33.339 65.9288C33.5868 66.4499 33.7901 66.8788 33.9946 67.3077C33.3746 68.1821 32.7546 69.0555 32.1335 69.9299C32.0401 69.0821 32.2379 67.9544 31.769 67.471C31.3446 67.0333 30.1946 67.2988 29.7357 67.2744C29.2012 66.6477 28.8723 66.2622 28.5435 65.8766C29.2601 65.1633 29.9768 64.4488 30.6923 63.7355L30.6935 63.7344Z" fill="white"/>
<path d="M21.9498 77.7766H23.2098C23.3187 78.2666 23.4109 78.6822 23.5131 79.1411C23.9142 79.2077 24.3009 79.2711 24.8365 79.3599V82.1455C23.9298 82.2444 23.0231 82.3433 22.1165 82.4422C21.8809 81.7011 21.6454 80.9599 21.4087 80.2188C21.5798 79.9633 21.8554 79.7233 21.8987 79.4477C21.9842 78.9011 21.9398 78.3344 21.9498 77.7766Z" fill="white"/>
<path d="M53.8855 24.2767C54.0844 24.6667 54.2832 25.0567 54.5688 25.6167C54.5788 25.619 54.7988 25.6956 55.0244 25.719C56.0377 25.8245 55.9166 26.4012 55.4421 26.9267C54.8866 27.5423 54.9088 28.0779 55.2766 28.7612C55.4955 29.1679 55.5299 29.6734 55.6477 30.1345C55.3466 30.1979 54.8977 30.4134 54.7732 30.2934C54.5077 30.0379 54.4099 29.6079 54.2432 29.249C54.2099 29.1779 54.1721 29.1101 54.0566 28.8845C53.6255 28.8845 53.1155 28.8845 52.6055 28.8845C53.0321 27.3479 53.4588 25.8123 53.8855 24.2756V24.2767Z" fill="white"/>
<path d="M60.0575 39.0833C59.6253 39.091 59.1842 39.0477 58.7609 39.1144C57.6031 39.2966 57.2809 38.751 57.4631 37.7155L57.4953 37.6633C57.7109 37.3888 57.9264 37.1144 58.142 36.8399C58.4653 35.9988 58.7609 35.1377 59.6842 34.7344C59.912 35.0133 60.3142 35.2799 60.3353 35.5744C60.4098 36.6455 60.3575 37.7255 60.3531 38.801C60.2542 38.8955 60.1564 38.9888 60.0575 39.0833Z" fill="white"/>
<path d="M38.2021 50.9877C38.5454 50.7521 38.8987 50.5299 39.2287 50.2788C39.5332 50.0477 39.8132 49.7843 40.1043 49.5343C39.7721 49.301 39.4609 48.9154 39.1032 48.8654C38.2754 48.7499 37.4187 48.8466 36.5854 48.7521C36.2876 48.7188 36.0232 48.3821 35.7432 48.1843C37.5376 48.241 39.3309 48.2977 41.1254 48.3543C41.1376 48.4988 41.1498 48.6432 41.1621 48.7865C40.9354 48.9988 40.7087 49.2121 40.4821 49.4243C40.4998 49.531 40.5187 49.6388 40.5365 49.7454C40.9265 49.7177 41.3154 49.671 41.7054 49.6643C42.6787 49.6465 43.7687 49.0765 44.5021 50.2354C42.6987 49.8954 41.1454 50.9232 39.4465 51.1421C39.0454 51.1932 38.6187 51.0432 38.2043 50.9865L38.2021 50.9877Z" fill="white"/>
<path d="M67.6345 2.06553C67.76 1.23997 67.16 1.38331 66.6978 1.3822C64.6711 1.3822 62.6445 1.39442 60.6167 1.4022C60.7423 1.2622 60.8656 1.00553 60.9956 1.00108C63.8867 0.911084 66.7778 0.798862 69.6689 0.819973C70.3034 0.824417 70.9356 1.32331 71.4734 1.78664C70.1934 1.87886 68.9145 1.97331 67.6345 2.06553Z" fill="white"/>
<path d="M44.1523 23.5222C44.3646 23.7044 44.7135 23.8533 44.7657 24.0733C45.1201 25.5811 45.4123 27.1033 45.7601 28.7922C45.6601 28.7044 45.7112 28.7733 45.7801 28.8067C46.2146 29.0156 47.0612 28.6267 46.9635 29.6055C46.8612 30.6289 46.019 30.2411 45.4535 30.3744C45.2512 30.3567 45.049 30.34 44.8468 30.3233C44.6157 28.0567 44.3835 25.7889 44.1523 23.5222Z" fill="white"/>
<path d="M51.3078 70.2377C50.29 70.4088 49.7844 69.9699 49.8244 69.1188C49.29 68.7732 48.6567 68.581 48.52 68.2077C48.4122 67.911 48.9133 67.3932 49.2022 66.8688C49.0522 66.7566 48.7589 66.5344 48.1855 66.1032C48.8622 65.9821 49.2655 65.9099 49.7455 65.8232C49.8389 66.3266 49.9111 66.7088 49.9944 67.1599C50.4111 67.2832 50.8589 67.4166 51.3078 67.5488C51.3255 68.041 51.3422 68.5344 51.36 69.0266C51.3422 69.4299 51.3255 69.8344 51.3078 70.2377Z" fill="white"/>
<path d="M51.3476 18.8676C51.3765 18.0188 51.5032 17.141 50.3032 16.9099C50.1287 16.8765 49.9421 16.4376 49.921 16.1732C49.8665 15.5099 49.9032 14.8399 49.9032 13.8599C50.9576 14.511 51.7654 15.0088 52.5732 15.5065C52.1643 16.6265 51.7565 17.7476 51.3476 18.8676Z" fill="white"/>
<path d="M36.5066 63.3767V61.629C36.0532 61.5434 35.6688 61.4712 35.1299 61.369C35.1054 60.9445 35.0799 60.479 35.0532 60.0145C35.3021 59.7834 35.5499 59.5512 35.7988 59.3201C35.9154 59.5445 35.981 59.9045 36.1566 59.969C36.9932 60.2745 37.8588 60.5001 38.7143 60.7534C37.9788 61.6278 37.2421 62.5023 36.5066 63.3767Z" fill="white"/>
<path d="M48.4312 44.4533C48.6046 44.6933 48.7768 44.9333 48.9501 45.1733C48.5524 46.5167 49.6301 46.9467 50.4235 47.5522C49.6712 48.4933 48.6124 47.9455 47.7001 48.1122L47.6968 48.1267C47.7046 47.1711 47.7679 46.2111 47.6857 45.2633C47.6601 44.9678 47.2412 44.7067 47.0024 44.43C47.0024 44.2033 47.0001 43.9767 46.999 43.75C47.449 43.7367 47.8979 43.7222 48.3479 43.7078C48.3757 43.9567 48.4024 44.2044 48.4301 44.4522L48.4312 44.4533Z" fill="white"/>
<path d="M67.6642 87.9211C67.4909 86.84 67.8998 86.3622 69.0331 86.5244C69.5431 86.5977 70.0798 86.5944 70.5898 86.5244C71.7231 86.3711 72.2487 86.7722 72.0498 87.95C70.9087 87.97 69.7676 87.99 68.6264 88.01C68.3053 87.98 67.9853 87.95 67.6642 87.9211Z" fill="white"/>
<path d="M53.5456 49.7967C52.9156 49.7978 52.1744 49.6512 52.3267 50.7034C51.3111 50.9201 51.4578 50.1423 51.3589 49.5734L51.3689 49.4867C53.4622 48.4545 55.7022 48.8945 57.89 48.8834C58.2367 48.8812 58.5867 49.2701 58.9344 49.479C57.5356 49.4345 56.1378 49.3545 54.74 49.3678C54.3411 49.3712 53.9444 49.6467 53.5467 49.7978L53.5456 49.7967Z" fill="white"/>
<path d="M67.1788 70.2387C67.2566 70.2187 67.3733 70.2243 67.4044 70.1754C68.16 69.0087 69.21 68.5265 70.5855 68.7776C70.5688 69.4954 70.82 70.3521 69.5622 70.3199C69.43 70.3165 69.2755 71.2087 69.1311 71.6843C68.48 71.2021 67.8288 70.7198 67.1777 70.2376L67.1788 70.2387Z" fill="white"/>
<path d="M49.1787 90.1932C48.0043 88.6654 48.1221 87.2732 49.6143 85.7932C49.861 86.5554 50.0943 87.2754 50.3276 87.9954C49.9443 88.7277 49.5621 89.4599 49.1787 90.1932Z" fill="white"/>
<path d="M79.5887 58.5622C79.5865 58.2677 79.5843 57.9722 79.582 57.6777C80.292 58.2244 81.002 58.7711 81.712 59.3177C81.4909 59.5211 81.1409 59.6922 81.0776 59.9366C80.972 60.3477 81.0487 60.8066 81.0487 61.3933C80.5165 61.4244 80.0543 61.4511 79.5931 61.4777C79.5909 60.5055 79.5898 59.5333 79.5876 58.5611L79.5887 58.5622Z" fill="white"/>
<path d="M71.7856 10.8856C69.0411 10.8856 66.2967 10.8867 63.5522 10.8867C64.0745 10.6622 64.5956 10.25 65.12 10.2456C67.0934 10.2256 69.0678 10.3222 71.04 10.4222C71.2956 10.4356 71.5378 10.7245 71.7856 10.8856Z" fill="white"/>
<path d="M81.4997 83.6222H75.3097C75.2675 83.1033 75.233 82.6788 75.1997 82.2544C76.8797 82.5733 78.5553 82.9166 80.243 83.1911C80.6119 83.2511 81.0208 83.0622 81.4275 82.9855C81.4297 83.0088 81.4653 83.3155 81.4997 83.6222Z" fill="white"/>
<path d="M85.2309 62.9243C84.3253 62.9299 83.4187 62.9354 82.5131 62.941L82.5109 62.9388C82.5064 61.9766 82.502 61.0154 82.4976 60.0532C83.2164 60.6466 83.9676 61.2066 84.6398 61.8488C84.922 62.1177 85.0387 62.5599 85.2298 62.9232L85.2309 62.9243Z" fill="white"/>
<path d="M19.2142 46.1634C18.472 46.0278 17.6931 45.4845 17.0842 46.5011C16.9731 46.6867 16.422 46.6078 16.0031 46.66C15.892 46.1611 15.8009 45.7456 15.7009 45.2945C15.1353 45.1034 14.1675 45.3778 14.3709 44.2478C15.5609 44.5845 16.7664 44.8745 17.932 45.28C18.4053 45.4445 18.7898 45.8622 19.2142 46.1645V46.1634Z" fill="white"/>
<path d="M50.4234 47.5523C49.6301 46.9467 48.5523 46.5167 48.9501 45.1734C49.3512 45.0012 49.7501 44.7078 49.9368 45.4556C49.9857 45.6512 50.3779 45.7623 50.6123 45.9123C50.4801 46.1001 50.349 46.2889 50.2168 46.4767C50.2712 46.5812 50.3257 46.6856 50.3801 46.7912C50.739 46.5756 51.0879 46.3412 51.4601 46.1501C51.6512 46.0523 51.8823 46.0301 52.0957 45.9745C52.0912 46.1778 52.0857 46.3812 52.0812 46.5856C52.0545 46.9112 52.029 47.2378 52.0023 47.5634C51.7923 47.5823 51.5823 47.6 51.3734 47.6189C51.0568 47.5967 50.7412 47.5745 50.4245 47.5512L50.4234 47.5523Z" fill="white"/>
<path d="M82.0679 76.0823C82.2034 76.1667 82.339 76.2501 82.4745 76.3345C82.499 76.8212 82.5223 77.3078 82.5456 77.7945C82.5456 78.3945 82.5456 78.9945 82.5456 79.6901C83.1668 79.4801 83.5323 79.3567 83.8968 79.2334C83.6112 79.5545 83.3256 79.8745 82.9334 80.3156C82.7945 80.7712 82.5868 81.4567 82.3779 82.1412L81.8945 82.1023C81.9434 81.1467 82.0112 80.1912 82.0379 79.2345C82.0668 78.1845 82.0601 77.1334 82.0679 76.0823Z" fill="white"/>
<path d="M64.0931 45.9455C63.7308 46.1377 63.3775 46.47 63.0031 46.4966C61.6475 46.5922 60.2853 46.5844 58.9253 46.6155C59.892 46.1466 60.8597 45.6788 61.8264 45.21C62.0631 45.4433 62.2675 45.8133 62.5442 45.88C63.0364 45.9989 63.5753 45.9333 64.0931 45.9455Z" fill="white"/>
<path d="M86.1865 71.4155C86.1876 69.4088 86.1899 67.4011 86.191 65.3955C87.1687 66.2555 87.1654 70.5011 86.1865 71.4155Z" fill="white"/>
<path d="M85.4186 84.3055C85.1842 84.0811 84.9731 83.7033 84.7097 83.6622C84.0764 83.5622 83.4198 83.6211 82.772 83.6155C83.7853 83.3777 84.7909 83.1077 85.812 82.9155C86.432 82.7988 87.0742 82.8044 87.7075 82.7544C87.7575 83.4355 86.682 84.1933 85.4186 84.3055Z" fill="white"/>
<path d="M74.4554 21.7801C74.3265 20.9767 74.1277 20.1767 74.0954 19.369C74.0777 18.9301 74.4032 18.489 74.4665 18.0334C74.5388 17.5178 74.491 16.9856 74.4954 16.4612C74.6077 16.5001 74.7665 16.5056 74.8243 16.5845C75.4043 17.3823 75.3043 20.8812 74.681 21.7278C74.6465 21.7745 74.531 21.7634 74.4543 21.779L74.4554 21.7801Z" fill="white"/>
<path d="M49.8842 25.4345C49.8909 24.3845 49.7576 23.3078 49.9465 22.2923C50.1131 21.4012 50.3931 20.4356 51.2753 19.8745C50.812 21.7278 50.3476 23.5812 49.8842 25.4345Z" fill="white"/>
<path d="M47.7146 59.5444C47.7901 60.9367 47.9135 62.3289 47.9201 63.7211C47.9224 64.3055 47.9712 65.0789 47.0312 65.1489C47.1379 63.4267 47.2357 61.7044 47.3657 59.9844C47.3768 59.83 47.5935 59.69 47.7146 59.5444Z" fill="white"/>
<path d="M83.9741 71.7C84.6786 71.6955 85.3819 71.6922 86.0863 71.6877C85.8619 72.6477 85.6386 73.6089 85.4141 74.5689V73.3144C84.9352 73.21 84.5219 73.12 83.9741 73V71.7Z" fill="white"/>
<path d="M51.0341 41.9945C50.8863 42.4956 50.8419 43.0678 50.5597 43.4767C50.3341 43.8045 49.8208 43.9356 49.4352 44.1534C49.0152 42.9622 49.1597 41.8511 49.9041 40.8245C49.9263 41.1745 49.9497 41.5256 49.9797 41.9945H51.0341Z" fill="white"/>
<path d="M53.2697 68.0632C54.0352 68.3455 54.8219 68.5843 55.5508 68.9421C55.7119 69.021 55.7341 69.5277 55.6919 69.8188C55.6697 69.9743 55.3897 70.1755 55.2008 70.2077C54.8097 70.2743 54.4019 70.241 54.0008 70.2488C53.7563 69.5199 53.5141 68.791 53.2697 68.0632Z" fill="white"/>
<path d="M26.2266 68.7401C27.3466 68.6179 28.0255 68.9445 27.7555 70.2379C26.8032 70.2379 25.8521 70.2379 24.8999 70.239C25.3421 69.739 25.7843 69.239 26.2255 68.739L26.2266 68.7401Z" fill="white"/>
<path d="M48.4379 39.5833C48.4434 37.7722 48.4167 35.96 48.4823 34.1511C48.4934 33.8366 48.8901 33.5366 49.1078 33.23C49.0256 35.1811 48.9534 37.1333 48.8445 39.0833C48.8345 39.2566 48.579 39.4166 48.4379 39.5833Z" fill="white"/>
<path d="M70.5764 80.7489C70.5764 81.0289 70.672 81.36 70.5542 81.5733C70.4175 81.82 70.092 82.1122 69.852 82.11C69.6109 82.1066 69.2009 81.7911 69.1675 81.5666C69.0686 80.9011 69.1186 80.2133 69.1109 79.5344C69.5998 79.9389 70.0875 80.3444 70.5764 80.7489Z" fill="white"/>
<path d="M82.5452 77.7945C82.5219 77.3079 82.4975 76.8212 82.4741 76.3345C83.2252 76.3334 83.9775 76.3312 84.7286 76.3301C84.4763 76.9756 84.2252 77.6201 83.973 78.2656C83.4975 78.109 83.0208 77.9523 82.5452 77.7945Z" fill="white"/>
<path d="M68.6265 88.01C69.7676 87.99 70.9087 87.97 72.0498 87.95C72.4598 87.97 72.8687 87.99 73.2787 88.01C73.042 88.2433 72.8187 88.66 72.5676 88.6766C71.4976 88.7511 70.4165 88.75 69.3465 88.6744C69.092 88.6566 68.8654 88.2422 68.6265 88.01Z" fill="white"/>
<path d="M32.1143 96.9334C32.3709 96.7134 32.6187 96.3145 32.8854 96.3023C34.2543 96.2356 35.6287 96.2679 37.002 96.2656C35.9376 96.4945 34.8809 96.7623 33.8076 96.9345C33.2576 97.0223 32.6798 96.939 32.1143 96.9334Z" fill="white"/>
<path d="M73.0879 51.0223C73.7668 51.0234 74.4623 50.9323 75.1201 51.0501C75.9034 51.1912 76.6546 51.5123 77.4201 51.7556C77.4223 51.9045 77.4246 52.0523 77.4268 52.2001C75.9801 51.8068 74.5346 51.4145 73.0879 51.0223Z" fill="white"/>
<path d="M62.8135 49.5679C64.1713 49.5845 65.5301 49.5679 66.8846 49.6479C67.1635 49.6645 67.4201 50.049 67.6868 50.2645C66.2257 50.1801 64.7646 50.109 63.3057 49.9923C63.1313 49.9779 62.9768 49.7156 62.8135 49.5679Z" fill="white"/>
<path d="M20.2288 82.9468C20.2488 83.6879 19.7177 83.5679 19.2411 83.6223C18.4277 83.7145 17.6211 83.8757 16.8122 84.0079C16.6111 83.9268 16.4111 83.8457 16.21 83.7634C16.3433 83.6512 16.48 83.5434 16.6089 83.4257C17.7055 82.429 19.0188 83.0812 20.2288 82.9468Z" fill="white"/>
<path d="M41.1612 48.7879C41.149 48.6434 41.1367 48.499 41.1245 48.3556C41.2101 48.0501 41.2945 47.7445 41.3801 47.439C42.3345 47.7479 43.289 48.0567 44.2434 48.3656C43.9201 48.509 43.6056 48.7467 43.2734 48.7756C42.5745 48.8379 41.8656 48.7901 41.1612 48.7879Z" fill="white"/>
<path d="M14.2844 22.0832C14.0911 21.9721 13.7278 21.8565 13.73 21.7499C13.76 20.3221 13.8411 18.8954 13.9089 17.4688C14.02 17.5688 14.2255 17.6665 14.2278 17.7699C14.2622 19.2076 14.27 20.6443 14.2844 22.0832Z" fill="white"/>
<path d="M32.7998 51.65C33.3576 50.8056 35.2398 50.7345 36.2931 51.5167C35.7287 51.83 35.1631 52.1445 34.5987 52.4578C34.5798 52.1878 34.562 51.9178 34.5431 51.65H32.7998Z" fill="white"/>
<path d="M13.041 87.2621C13.2488 87.0676 13.5788 86.9021 13.6355 86.671C13.7332 86.2699 13.6621 85.8276 13.6621 85.4043C14.4443 86.3121 14.6043 88.2154 13.8921 89.0321C13.5988 88.421 13.3199 87.841 13.041 87.2621Z" fill="white"/>
<path d="M46.9842 67.5654C46.9709 68.6465 47.0064 69.731 46.9142 70.8043C46.8864 71.121 46.4964 71.4054 46.272 71.7054C46.5098 70.3254 46.7464 68.9454 46.9842 67.5654Z" fill="white"/>
<path d="M33.5955 62.9411C32.9432 62.9377 32.2899 62.9355 31.6377 62.9322C32.2933 62.2966 32.9499 61.6622 33.6055 61.0266C33.6021 61.6644 33.5999 62.3022 33.5966 62.9388L33.5955 62.9411Z" fill="white"/>
<path d="M21.9498 77.7765C21.9398 78.3343 21.9842 78.901 21.8987 79.4476C21.8554 79.7232 21.5798 79.9632 21.4087 80.2188C20.6342 79.2265 21.0298 78.2543 21.4587 77.2832C21.622 77.4476 21.7865 77.6121 21.9498 77.7765Z" fill="white"/>
<path d="M82.5454 77.7944C83.021 77.9511 83.4976 78.1078 83.9732 78.2655C83.9476 78.5878 83.9221 78.91 83.8965 79.2333C83.531 79.3567 83.1665 79.48 82.5454 79.69V77.7944Z" fill="white"/>
<path d="M27.7388 52.4433C28.0088 52.2344 28.261 51.8767 28.551 51.8433C29.4121 51.7433 30.2877 51.7711 31.1577 51.75C30.4943 51.9822 29.8432 52.27 29.1632 52.4256C28.711 52.5289 28.2154 52.4444 27.7388 52.4433Z" fill="white"/>
<path d="M73.8088 22.8245C73.4488 22.8167 73.0632 22.8856 72.7366 22.7767C72.471 22.6879 72.1221 22.4023 72.0943 22.1701C72.0655 21.9212 72.3466 21.4267 72.5299 21.4078C72.8332 21.3767 73.211 21.5878 73.4755 21.7978C73.6988 21.9756 73.8077 22.2979 73.9666 22.5556C73.9132 22.6456 73.861 22.7345 73.8088 22.8245Z" fill="white"/>
<path d="M51.3076 70.2378C51.3254 69.8345 51.3421 69.4312 51.3598 69.0278C51.5643 70.1734 51.7687 71.3189 51.9732 72.4645C51.7698 72.1978 51.4621 71.9578 51.3876 71.66C51.2754 71.2067 51.3254 70.7145 51.3076 70.2378Z" fill="white"/>
<path d="M83.1386 10.1889C82.1286 10.1478 82.6786 10.9434 82.5119 11.3545C81.7597 10.5645 81.7441 9.66448 81.9164 8.7367C82.0297 8.6967 82.143 8.6567 82.2552 8.6167C82.5497 9.14114 82.8441 9.66448 83.1386 10.1889Z" fill="white"/>
<path d="M23.3768 46.7043C23.369 47.0243 23.4524 47.3877 23.3257 47.6499C23.2235 47.8621 22.8657 48.0688 22.6268 48.0632C22.3912 48.0577 22.0257 47.8243 21.9612 47.6143C21.8479 47.2476 21.9201 46.8243 21.9146 46.4243C22.4024 46.5176 22.889 46.6121 23.3768 46.7043Z" fill="white"/>
<path d="M44.8467 30.3223C45.0489 30.3389 45.2511 30.3567 45.4533 30.3734C45.4722 31.5845 45.4911 32.7945 45.51 34.0056C45.2889 32.7778 45.0678 31.55 44.8467 30.3223Z" fill="white"/>
<path d="M44.1334 16.9634C44.7857 16.8923 45.0912 17.139 45.0445 17.8367C45.0012 18.4834 45.119 19.1845 44.1323 19.1556C44.1323 18.4245 44.1323 17.6945 44.1334 16.9634Z" fill="white"/>
<path d="M49.17 31.5577C49.1722 30.6789 49.1233 29.7944 49.2066 28.9222C49.2344 28.6355 49.6044 28.3811 49.8177 28.1111C49.6022 29.26 49.3866 30.41 49.17 31.5577Z" fill="white"/>
<path d="M8.61447 73.1932C8.80558 73.4255 9.13113 73.641 9.16225 73.8932C9.24891 74.5977 9.21447 75.3177 9.2278 76.0299C8.14225 75.2744 8.69891 74.1655 8.61447 73.1932Z" fill="white"/>
<path d="M78.131 75.5822C78.2388 75.3544 78.3521 74.9277 78.4543 74.9299C79.4188 74.9544 80.381 75.0533 81.3443 75.1299C80.2732 75.2799 79.201 75.431 78.1299 75.581L78.131 75.5822Z" fill="white"/>
<path d="M37.9812 56.9856V58.4934C37.4223 58.5278 36.9923 58.5534 36.5634 58.58C36.4889 57.5623 37.3967 57.4167 37.9812 56.9856Z" fill="white"/>
<path d="M58.9355 1.45783C58.6711 1.6756 58.4255 2.04449 58.1378 2.08338C57.4289 2.17672 56.7 2.11783 55.98 2.12116C56.7922 1.12894 57.9222 1.55116 58.9366 1.45894L58.9355 1.45783Z" fill="white"/>
<path d="M45.8499 36.1865C45.971 36.6843 46.0922 37.1821 46.2133 37.6799C45.9844 37.6676 45.7544 37.6543 45.5255 37.6421C44.3022 37.6899 45.0599 36.9087 45.0299 36.4576C45.3033 36.3676 45.5766 36.2776 45.8499 36.1865Z" fill="white"/>
<path d="M44.7764 13.5422C44.7942 13.7111 44.8119 13.8789 44.8297 14.0478C44.8097 14.5256 44.8642 15.0222 44.7442 15.4722C44.6653 15.7711 44.3386 16.0045 44.1219 16.2678C44.2319 15.3333 43.6375 14.23 44.7764 13.5422Z" fill="white"/>
<path d="M45.5465 45.901C45.3032 45.4177 45.0588 44.9355 44.8154 44.4521C45.041 44.4544 45.2665 44.4566 45.4932 44.4588C45.8143 44.7899 46.1354 45.121 46.4577 45.4521C46.4621 45.5977 46.4665 45.7444 46.471 45.8899C46.1632 45.8933 45.8554 45.8966 45.5477 45.8999L45.5465 45.901Z" fill="white"/>
<path d="M19.7119 85.0922C20.1564 85.0922 20.6041 85.1311 21.0441 85.0856C21.7875 85.01 21.9552 85.4089 21.913 86.0289C21.1108 85.8789 20.1686 86.0567 19.713 85.0922H19.7119Z" fill="white"/>
<path d="M51.2898 52.4976C51.2998 52.7354 51.3098 52.9743 51.3198 53.2121C51.1031 53.2088 50.8865 53.2054 50.6698 53.201C50.4209 53.1732 50.172 53.1443 49.9242 53.1165C49.9242 52.921 49.922 52.7243 49.9209 52.5276C49.9298 52.2788 49.9398 52.031 49.9498 51.7832C50.1653 51.8876 50.3853 51.9843 50.5965 52.0965C50.832 52.2221 51.0598 52.3621 51.2909 52.4965L51.2898 52.4976Z" fill="white"/>
<path d="M36.5441 83.6888C36.3308 82.5655 36.653 81.9233 37.9341 82.1444C37.8541 83.0033 37.3264 83.4599 36.5441 83.6888Z" fill="white"/>
<path d="M21.6853 22.7833C20.9319 22.56 19.9253 23.32 19.4053 22.1945C20.2364 22.1167 21.0997 21.9133 21.6853 22.7833Z" fill="white"/>
<path d="M16.639 22.2078C16.1268 23.2922 15.1301 22.5889 14.3868 22.8178C14.3857 22.6522 14.3834 22.4855 14.3823 22.32C15.1345 22.2833 15.8868 22.2455 16.639 22.2078Z" fill="white"/>
<path d="M69.0988 30.2577C69.1265 29.8655 69.1532 29.4732 69.1888 28.9555C69.5921 28.9321 69.9721 28.9099 70.3521 28.8877C69.9343 29.3444 69.5165 29.801 69.0988 30.2577Z" fill="white"/>
<path d="M82.4808 60.0345C82.2419 59.8045 82.003 59.5745 81.7642 59.3434C82.3497 59.2134 82.5631 59.4712 82.4808 60.0345Z" fill="white"/>
<path d="M12.3232 85.7766C12.5177 86.0011 12.7132 86.2244 12.9077 86.4477C12.7132 86.2233 12.5177 85.9999 12.3232 85.7766Z" fill="white"/>
<path d="M46.4697 45.891C46.4653 45.7444 46.4608 45.5988 46.4564 45.4522C46.6386 45.1122 46.8197 44.771 47.0019 44.4299C47.2408 44.7066 47.6597 44.9677 47.6853 45.2633C47.7675 46.211 47.703 47.171 47.6964 48.1255C47.2808 47.8422 46.8653 47.5577 46.4497 47.2744C46.4564 46.8133 46.463 46.3522 46.4697 45.891Z" fill="white"/>
<path d="M45.5254 37.641C45.7543 37.6532 45.9843 37.6666 46.2132 37.6788C46.2243 38.4777 46.2343 39.2766 46.2454 40.0754C46.0209 39.8288 45.6609 39.611 45.6009 39.3288C45.4865 38.7843 45.5409 38.2054 45.5254 37.641Z" fill="white"/>
<path d="M41.161 48.7878C41.8654 48.79 42.5743 48.8378 43.2732 48.7756C43.6065 48.7456 43.921 48.5089 44.2432 48.3656C44.4876 48.3622 44.7321 48.36 44.9765 48.3567C45.4854 48.6111 45.9954 48.8667 46.5043 49.1211C45.9354 49.5311 45.3654 49.94 44.7965 50.35C44.6976 50.3134 44.5987 50.2756 44.501 50.2389C43.7676 49.0789 42.6776 49.6489 41.7043 49.6667C41.3143 49.6734 40.9254 49.72 40.5354 49.7478C40.5176 49.6411 40.4987 49.5334 40.481 49.4267C40.7076 49.2145 40.9343 49.0011 41.161 48.7889V48.7878Z" fill="white"/>
<path d="M57.449 46.9167C57.4224 47.2689 57.3957 47.6223 57.3457 48.2956C56.3235 48.0556 55.4268 47.8456 54.5312 47.6356C55.3535 46.7867 56.3912 46.8112 57.449 46.9167Z" fill="white"/>
<path d="M49.9199 52.5299C49.9199 52.7255 49.9221 52.9221 49.9221 53.1177C49.6799 53.3966 49.4366 53.6755 49.1943 53.9555C49.1943 53.4588 49.1954 52.961 49.1966 52.4644C49.4377 52.4866 49.6788 52.5088 49.9199 52.5299Z" fill="white"/>
<path d="M50.6275 61.5123C50.3875 61.2367 50.0297 60.99 49.9541 60.6756C49.9141 60.5111 50.3697 60.2267 50.6019 59.9978C50.6297 60.2589 50.6564 60.52 50.683 60.7811C50.6952 61.0078 50.7075 61.2334 50.7208 61.46L50.6275 61.5123Z" fill="white"/>
<path d="M50.7209 61.4589C50.7087 61.2323 50.6953 61.0067 50.6831 60.78C50.8975 60.8867 51.112 60.9934 51.3264 61.1C51.1242 61.22 50.9231 61.3389 50.7209 61.4589Z" fill="white"/>
<path d="M10.0378 41.9667C10.0211 42.2856 10.0933 42.6467 9.96665 42.9111C9.81665 43.2233 9.49332 43.4522 9.24443 43.7178C9.00777 43.4822 8.54999 43.21 8.5811 43.0178C8.63888 42.6622 8.93221 42.2922 9.22665 42.0478C9.39999 41.9045 9.76443 41.9911 10.0433 41.9733L9.99443 42.0145L10.0367 41.9667H10.0378Z" fill="white"/>
<path d="M45.5209 85.0765C45.5209 84.3543 45.4609 83.6254 45.5543 82.9154C45.5909 82.641 45.9776 82.4132 46.2043 82.1643C46.4632 82.4221 46.8887 82.6488 46.9443 82.9443C47.0598 83.5588 46.9787 84.211 46.9787 84.9899C46.4409 85.0221 45.9809 85.0488 45.5209 85.0765Z" fill="white"/>
<path d="M45.5221 85.0779C45.3665 85.5967 45.9488 86.5145 44.8365 86.4945C44.5754 86.4901 44.1088 86.0234 44.1043 85.7623C44.0843 84.6512 45.0021 85.2323 45.521 85.0767L45.5221 85.0779Z" fill="white"/>
<path d="M45.5011 47.719C45.61 47.5923 45.7189 47.4645 45.8278 47.3379C46.0356 47.3167 46.2423 47.2967 46.45 47.2756C46.8656 47.559 47.2811 47.8423 47.6967 48.1267L47.7 48.1134C47.7167 48.3567 47.7334 48.6001 47.7489 48.8445C47.7211 48.929 47.6934 49.0134 47.6645 49.0979C47.2778 49.1056 46.89 49.1134 46.5034 49.1223C45.9945 48.8679 45.4856 48.6134 44.9756 48.3579C45.15 48.1456 45.3245 47.9323 45.4989 47.7201L45.5011 47.719Z" fill="white"/>
<path d="M72.0489 15.5078V16.5278C70.5367 17.8345 69.0922 17.0923 67.6711 16.9578C67.6711 16.3167 67.5911 15.6623 67.6989 15.04C67.7611 14.6834 68.0656 14.1889 68.3678 14.0923C69.0189 13.8856 69.1511 14.4056 69.1411 14.9478C69.1389 15.0634 69.1889 15.1811 69.2611 15.5078H72.0489Z" fill="white"/>
<path d="M46.45 47.2756C46.2423 47.2967 46.0356 47.3178 45.8278 47.3378C45.7211 47.0378 45.6145 46.7378 45.5078 46.4378C45.5211 46.2589 45.5334 46.08 45.5467 45.9011C45.8545 45.8978 46.1623 45.8944 46.47 45.8911C46.4634 46.3522 46.4578 46.8144 46.45 47.2756Z" fill="white"/>
<path d="M44.2955 45.8245C44.2466 45.7756 44.1988 45.7267 44.1499 45.679C44.231 45.6956 44.2788 45.7445 44.2955 45.8245Z" fill="white"/>
<path d="M85.4298 49.7034C85.4298 50.4367 85.4976 51.0879 85.3987 51.7134C85.3542 51.9934 84.9765 52.2212 84.7498 52.4734C84.4909 52.2134 84.0387 51.9723 84.0087 51.6879C83.9131 50.7701 83.9131 49.829 84.0087 48.9112C84.0387 48.6201 84.4353 48.2534 84.7453 48.1345C85.0976 47.999 85.5631 48.0223 85.9376 48.1245C86.282 48.219 86.7531 48.4512 86.8487 48.7301C87.0487 49.3201 86.6676 49.6067 86.0509 49.5712C85.9009 49.5623 85.7453 49.6323 85.4309 49.7023L85.4298 49.7034Z" fill="white"/>
<path d="M48.5145 18.3799C48.4268 18.8432 48.439 19.3654 48.2068 19.7343C48.1079 19.891 47.1723 19.751 47.169 19.7054C47.1057 18.851 47.1101 17.9888 47.1768 17.1332C47.1801 17.0932 48.0712 16.951 48.219 17.1299C48.4601 17.421 48.4279 17.9377 48.5145 18.3799Z" fill="white"/>
<path d="M45.5889 20.1633C45.4267 20.3445 45.3067 20.5478 45.2478 20.5311C45.0956 20.4889 44.97 20.3489 44.8345 20.2489C44.9323 20.1445 45.0167 19.9778 45.1322 19.9522C45.2378 19.9289 45.3756 20.0578 45.5889 20.1633Z" fill="white"/>
<path d="M66.2068 27.1823C65.5546 27.1 64.9012 27.0178 64.249 26.9356C64.7335 26.0434 65.2168 25.15 65.7012 24.2578C65.8701 24.5589 66.149 24.8478 66.1846 25.1634C66.2601 25.8289 66.2079 26.5089 66.2079 27.1834L66.2068 27.1823Z" fill="white"/>
<path d="M63.2808 31.8011C62.773 31.7911 62.2641 31.7822 61.7563 31.7722C61.9119 31.2266 61.5975 30.4033 62.593 30.3511C63.7452 30.3933 63.1063 31.29 63.2841 31.7977L63.2808 31.8011Z" fill="white"/>
<path d="M52.819 9.42099C52.3012 9.26432 51.3845 9.84988 51.4056 8.73877C51.4101 8.47877 51.8767 8.01432 52.1367 8.00988C53.2479 7.98877 52.6667 8.90432 52.819 9.4221V9.42099Z" fill="white"/>
<path d="M47.7501 48.8434C47.7334 48.6 47.7167 48.3567 47.7012 48.1122C48.6134 47.9456 49.6712 48.4934 50.4245 47.5522C50.7401 47.5745 51.0567 47.5967 51.3734 47.62C51.3723 48.2422 51.3712 48.8645 51.3701 49.4878L51.3601 49.5745C51.2767 49.5622 51.1934 49.5489 51.1101 49.5367C50.799 49.3834 50.4867 49.23 50.1756 49.0756C49.3678 48.9978 48.559 48.92 47.7512 48.8434H47.7501Z" fill="white"/>
<path d="M68.4664 46.2311C68.8009 46.82 69.1209 47.13 69.0787 47.3789C69.0331 47.6478 68.6498 47.86 68.4142 48.0966C68.1676 47.8311 67.7875 47.5955 67.7187 47.29C67.672 47.0822 68.0609 46.7789 68.4664 46.2311Z" fill="white"/>
<path d="M50.6267 50.9978C51.1 51.4934 51.5733 51.99 52.0467 52.4856C51.7944 52.49 51.5422 52.4945 51.29 52.4989C51.0589 52.3645 50.8311 52.2245 50.5956 52.0989C50.3844 51.9856 50.1656 51.8889 49.9489 51.7856C49.7044 51.77 49.46 51.7534 49.2156 51.7378C49.2011 51.4978 49.1878 51.2578 49.1733 51.0178H49.1778L50.6267 50.9978Z" fill="white"/>
<path d="M72.0664 71.5056C71.6841 69.869 72.9219 70.2879 73.8308 70.2334C74.6719 70.1834 75.343 70.1956 75.2319 71.3856C75.1275 72.5167 74.4852 73.0745 73.2441 73.1823C71.8486 73.3034 72.0164 72.4345 72.0664 71.5056Z" fill="white"/>
<path d="M70.5866 68.7777C70.7444 68.2599 70.161 67.3421 71.2722 67.3621C71.5333 67.3666 71.9988 67.8332 72.0033 68.0932C72.0233 69.2032 71.1055 68.621 70.5877 68.7788L70.5866 68.7777Z" fill="white"/>
<path d="M83.9744 71.6999H82.5288V68.9099C82.0855 68.8444 81.7244 68.8811 81.4844 68.7277C81.2722 68.5933 81.0766 68.2388 81.0933 67.9955C81.1088 67.7644 81.3988 67.5455 81.5866 67.3366C81.6244 67.2944 81.7422 67.3277 81.8222 67.3199C83.9422 67.1211 83.9711 67.1466 83.9722 69.2788C83.9722 70.0855 83.9733 70.8922 83.9744 71.6999Z" fill="white"/>
<path d="M82.513 62.9411C82.513 63.6288 82.5697 64.3233 82.4841 64.9999C82.4452 65.3022 82.1175 65.5677 81.9208 65.8499C81.6319 65.6211 81.2875 65.4355 81.0686 65.1522C80.8019 64.8088 80.6419 64.3833 80.2886 63.7155C81.0152 63.4611 81.763 63.1999 82.5108 62.9399L82.513 62.9411Z" fill="white"/>
<path d="M84.6157 66.27C84.2923 65.6778 83.9779 65.3634 84.0235 65.1167C84.0735 64.8489 84.4579 64.6434 84.6968 64.4111C84.9401 64.68 85.3135 64.9211 85.379 65.2278C85.4235 65.4334 85.0301 65.7322 84.6157 66.27Z" fill="white"/>
<path d="M41.8422 69.1989C41.4855 68.6167 41.1555 68.3189 41.1889 68.07C41.2255 67.7978 41.6 67.5711 41.8277 67.3245C42.0833 67.5822 42.4711 67.8056 42.5511 68.1089C42.6055 68.3145 42.2277 68.6345 41.8422 69.1989Z" fill="white"/>
<path d="M35.4664 82.9756C34.8741 83.3001 34.5597 83.6145 34.3119 83.5689C34.043 83.5189 33.8364 83.1323 33.603 82.8934C33.873 82.65 34.1152 82.2734 34.4219 82.21C34.6308 82.1667 34.9297 82.5612 35.4664 82.9756Z" fill="white"/>
<path d="M63.2912 55.3422C62.3157 54.8589 61.3401 54.3767 60.3646 53.8934C60.3724 53.5734 60.3101 53.2278 60.4135 52.9434C60.4846 52.7489 60.7868 52.52 60.9857 52.52C61.2501 52.52 61.749 52.7411 61.7435 52.8422C61.6612 54.1522 62.5635 53.9422 63.3501 53.9578C63.5601 53.9622 63.7668 54.0811 63.9946 54.1534C63.7301 54.6011 63.5101 54.9722 63.2912 55.3445V55.3422Z" fill="white"/>
<path d="M69.1299 56.8511C70.1032 56.8522 71.0777 56.8544 72.051 56.8555C72.0458 57.994 71.471 58.5629 70.3265 58.5622C69.9321 58.5622 69.5377 58.5522 69.1421 58.5466C69.1377 57.9811 69.1332 57.4166 69.1299 56.8511Z" fill="white"/>
<path d="M30.9466 71.7077C30.8243 72.191 30.7032 72.6743 30.581 73.1577C30.1843 73.1577 29.7866 73.1577 29.541 73.1577C28.8921 73.6899 29.7299 75.0154 28.451 74.7977C28.0599 74.731 27.7843 73.9865 27.4555 73.5532C27.5321 73.4477 27.6099 73.341 27.6866 73.2354C27.2232 73.2099 26.7599 73.1832 26.2966 73.1577C26.3088 72.4354 26.0655 71.581 27.3243 71.6132C27.4566 71.6165 27.6121 70.7188 27.7566 70.2388H29.151C28.8999 71.9232 29.9799 71.7354 30.9466 71.7088V71.7077Z" fill="white"/>
<path d="M29.42 76.3188C29.3211 76.7944 29.2211 77.2711 29.1223 77.7466C28.9078 78.0089 28.5456 78.2511 28.5067 78.5366C28.41 79.2422 28.4623 79.9666 28.4545 80.6844C28.3067 80.7722 28.16 80.86 28.0123 80.9488C27.5111 80.8255 27.0089 80.7022 26.3989 80.5511V77.9289C26.7789 77.8422 27.1923 77.7489 27.6634 77.6411C27.7245 77.25 27.7845 76.8644 27.8689 76.3188H29.42Z" fill="white"/>
<path d="M26.2957 73.1577C26.2957 73.9599 26.3512 74.7688 26.2623 75.5622C26.2323 75.8333 25.8401 76.0644 25.6123 76.3144C25.3535 76.0566 24.9168 75.8266 24.8712 75.5355C24.7623 74.8355 24.8357 74.1066 24.8357 73.2455C25.3735 73.2133 25.8357 73.1855 26.2957 73.1577Z" fill="white"/>
<path d="M63.2832 31.7979C63.7999 31.9634 64.7254 31.3745 64.7043 32.4879C64.6999 32.749 64.2321 33.2167 63.971 33.2212C62.8576 33.2423 63.4454 32.3179 63.281 31.8012L63.2832 31.7979Z" fill="white"/>
<path d="M79.589 58.5623C79.5912 59.5345 79.5923 60.5067 79.5945 61.4789C78.9512 61.4789 78.2945 61.5589 77.6701 61.4511C77.3123 61.3889 76.8134 61.0856 76.7168 60.7823C76.509 60.1311 77.0279 59.9945 77.5745 60.0067C77.6901 60.0089 77.8068 59.9589 78.0012 59.9167C78.069 59.5556 78.1412 59.1734 78.2423 58.6367C78.6645 58.6134 79.1268 58.5878 79.589 58.5623Z" fill="white"/>
<path d="M73.4488 61.5078C72.7121 61.0233 71.9754 60.5378 71.2388 60.0533C72.1999 60.0433 73.1599 60.0233 74.121 60.0256C74.621 60.0256 75.1988 59.8856 75.2143 60.7278C75.2299 61.5489 74.6977 61.48 74.1688 61.4811C73.9288 61.4811 73.6888 61.4978 73.4488 61.5078Z" fill="white"/>
<path d="M73.5034 56.8555C74.559 56.8577 75.6145 56.861 76.6712 56.8632C76.6323 57.4232 76.5934 57.9821 76.5545 58.5421L76.2379 58.5555C76.0545 58.2432 75.8712 57.9321 75.7545 57.7332C75.0979 58.0932 74.4956 58.4232 73.6034 58.9121C73.5567 57.9488 73.5301 57.4021 73.5034 56.8555Z" fill="white"/>
<path d="M33.5967 64.3999C33.5967 63.9133 33.5967 63.4277 33.5967 62.9411L33.5978 62.9399C34.1133 63.0966 34.9945 62.5122 35.0456 63.6111C35.1011 64.8155 34.1522 64.2655 33.5978 64.3999H33.5967Z" fill="white"/>
<path d="M33.5965 64.3999C33.4499 64.6243 33.3043 64.8477 33.1576 65.0721C33.0799 64.9943 33.0021 64.9166 32.9243 64.8388C33.1488 64.6932 33.3721 64.5455 33.5965 64.3999Z" fill="white"/>
<path d="M28.4555 80.6844C28.4632 79.9677 28.411 79.2421 28.5077 78.5366C28.5466 78.2499 28.9077 78.0088 29.1232 77.7466C29.0499 78.4866 28.9755 79.2266 28.891 80.0766C29.3066 80.0766 29.6377 80.0766 29.9688 80.0766C29.8132 81.1466 28.9888 80.5521 28.4555 80.6844Z" fill="white"/>
<path d="M47.7498 48.8433C48.5576 48.921 49.3665 48.9988 50.1743 49.0755C49.5898 49.5933 48.8521 50.0321 49.1787 51.0166H49.1743C48.6721 50.3766 48.1687 49.7366 47.6665 49.0977C47.6943 49.0133 47.7221 48.9277 47.7498 48.8433Z" fill="white"/>
<path d="M49.2157 51.7366C49.4601 51.7521 49.7046 51.7688 49.949 51.7843C49.939 52.0321 49.9301 52.281 49.9201 52.5299C49.679 52.5088 49.4379 52.4866 49.1968 52.4643C49.2034 52.2221 49.209 51.9788 49.2157 51.7366Z" fill="white"/>
<path d="M49.179 51.0165C48.8523 50.0321 49.589 49.5932 50.1746 49.0754C50.4868 49.2288 50.7979 49.3821 51.109 49.5354C50.9479 50.0221 50.7879 50.5099 50.6268 50.9966C50.1446 51.0032 49.6612 51.0099 49.179 51.0165Z" fill="white"/>
</svg>
