<svg width="129" height="150" viewBox="0 0 129 150" fill="none" xmlns="http://www.w3.org/2000/svg">
<path d="M49.85 47.5467C45.9466 46.6422 40.6633 47.9444 36.5744 50.2255C35.8311 50.6378 35.1644 51.0878 34.5666 51.57C33.4977 52.4266 32.65 53.3744 32.0055 54.3533C29.5744 54.6889 26.7877 53.6155 26.6777 52.4144C26.6766 52.4 26.6755 52.3855 26.6755 52.3722C26.6755 52.3644 26.6755 52.3589 26.6744 52.3522C26.6677 51.93 26.9989 51.4944 27.7989 51.1022C30.6389 49.7055 32.0266 48.3144 31.9077 46.9C32.7355 47.0833 33.6066 47.1833 34.5677 47.08C35.0977 47.0222 35.6566 46.9089 36.2477 46.7155C41.2411 45.0866 48.2233 44.5811 49.8511 47.5489L49.85 47.5467Z" fill="white"/>
<path d="M24.7035 59.2889C20.5813 57.2712 17.5057 58.2167 15.7401 56.8389C15.5013 56.6545 15.2857 56.4256 15.0957 56.1412C15.1657 56.0378 15.2368 55.9334 15.3035 55.8289C16.899 53.3634 17.9401 51.4556 18.9101 49.9734C17.6279 52.5101 17.7613 55.7112 20.5579 56.3356C23.2646 56.9412 24.6235 59.1512 24.7035 59.2889Z" fill="white"/>
<path d="M38.9291 114.652L38.6035 118.161L31.8013 119.866L26.0113 116.065L30.2824 120.261L28.2935 123.878L20.7991 122.923C20.7991 122.923 17.978 119.321 13.8557 119.321C9.73353 119.321 3.22019 119.937 1.80908 116.738C4.85686 115.402 6.78797 113.41 8.01353 111.383C8.52019 110.547 8.90464 109.703 9.19797 108.899C10.2391 106.022 10.1113 103.602 10.1113 103.602C10.1113 103.602 10.8491 105.221 12.138 107.043C13.4246 108.871 15.2613 110.901 17.438 111.692C21.7791 113.263 26.968 113.221 30.5346 107.347C36.0702 98.2301 34.5724 83.0378 34.5724 83.0378C34.5724 83.0378 34.5724 83.039 34.5735 83.0412C38.3824 93.1878 39.7402 103.172 38.0035 103.115C36.2657 103.063 34.5724 100.402 34.5724 100.402C34.5724 100.402 35.2935 105.428 32.5969 112.41L38.928 114.653L38.9291 114.652Z" fill="white"/>
<path d="M32.2813 54.3101C32.1913 54.3245 32.1013 54.3389 32.0068 54.3523L32.2813 54.3101Z" fill="white"/>
<path d="M76.1681 33.8433C71.397 29.0722 64.8081 26.1233 57.5292 26.1233H8.0148V36.5455C10.2915 36.5455 12.137 38.3911 12.137 40.6677V55.44C18.0626 44.5822 24.8737 40.4166 34.567 40.4166H48.5581C55.2104 40.4166 60.7237 45.7388 60.7692 52.3911C60.8159 59.0944 55.3926 64.5411 48.7048 64.5411L35.3926 64.5033C32.4448 64.4955 30.0548 62.0011 30.2959 59.0633C30.3015 58.9977 30.3081 58.9322 30.3159 58.8655C30.4915 57.4033 31.0215 55.8366 32.0059 54.35C28.6781 54.8088 24.6837 52.6266 27.7981 51.0977C30.6381 49.7011 32.0248 48.31 31.907 46.8944C29.3792 46.3222 27.2926 44.8922 24.3104 45.7344C21.6226 46.4922 20.3492 47.7555 18.9104 49.9711C17.6281 52.5077 17.7604 55.7077 20.557 56.3322C23.2648 56.9377 24.6226 59.1488 24.7037 59.2855C20.0226 56.9944 16.6904 58.5233 15.0948 56.1377C14.1626 57.5666 13.1448 58.9544 12.137 60.4122C8.89035 65.1022 5.75146 70.4744 5.75146 79.9222C5.75146 88.4611 9.11258 97 12.137 101.86C13.5659 104.166 14.9248 105.637 15.8104 105.898C18.5748 107.706 17.5992 97.7377 17.547 89.9233C17.4904 82.1088 18.8492 72.3588 21.8115 66.4988C24.7426 60.7111 30.0704 61.5855 32.5148 69.2844C33.7748 73.2555 34.757 77.2522 35.057 78.8333H57.2937C71.9048 78.8333 83.9992 66.8788 83.887 52.2677C83.8315 45.07 80.8937 38.5611 76.1681 33.84V33.8433ZM25.087 50.8022C24.367 50.8022 23.7859 50.22 23.7859 49.5011C23.7859 48.7822 24.3681 48.1944 25.087 48.1944C25.8059 48.1944 26.3881 48.7811 26.3881 49.5011C26.3881 50.2211 25.8059 50.8022 25.087 50.8022ZM55.2592 73.7866C54.877 75.7377 54.1604 77.0844 53.1026 77.8211C52.4192 77.0277 51.5292 76.4444 50.4848 76.1166L50.3637 76.0788C49.5126 75.8122 48.6515 75.74 47.8148 75.8633L47.8059 75.84C47.4381 74.7788 47.3981 73.6144 47.6859 72.3455C47.9726 71.0822 48.5404 69.9133 49.3948 68.8411C50.0526 68.0211 50.8937 67.2844 51.9248 66.6244V66.6266C51.537 67.6622 51.3315 68.6822 51.3081 69.6855C52.5037 66.1244 52.0192 66.1144 55.7892 64.8122L57.0926 64.3622L57.0948 64.36L55.2581 73.7877L55.2592 73.7866Z" fill="white"/>
<path d="M30.5347 107.344C26.968 113.22 21.7791 113.262 17.438 111.69C15.2602 110.899 13.4247 108.869 12.138 107.041C10.8502 105.219 10.1113 103.6 10.1113 103.6C13.6958 108.598 17.4469 108.874 18.8791 107.081C19.9324 105.763 18.5569 100.492 18.8791 93.6421C19.1435 95.1565 23.718 99.9121 28.1247 99.5198C33.2802 99.061 34.6091 92.0687 34.5724 83.0354C34.5724 83.0354 36.0702 98.2276 30.5347 107.344Z" fill="white"/>
<path d="M49.85 47.5467C45.9466 46.6422 40.6633 47.9444 36.5744 50.2256C35.8311 50.6378 35.1644 51.0878 34.5666 51.57C33.4977 52.4267 32.65 53.3744 32.0055 54.3533C29.5744 54.6889 26.7877 53.6156 26.6777 52.4144C26.7455 52.8933 27.9411 53.4567 29.5133 53.3467C31.1311 53.2322 31.59 51.6278 35.9155 49.2222C40.24 46.8167 46.5711 46.0144 49.8488 47.5478L49.85 47.5467Z" fill="white"/>
<path d="M33.6014 48.0845C33.5847 48.0312 33.4214 48.0356 33.2369 48.0934C33.0525 48.1512 32.9158 48.2412 32.9314 48.2934C32.9469 48.3456 33.1114 48.3423 33.2958 48.2845C33.4803 48.2267 33.6169 48.1367 33.6014 48.0845Z" fill="white"/>
<path d="M54.0412 111.834H50.2456V111.743H50.3634C50.6834 111.743 50.9434 111.487 50.95 111.168V106.041C50.9189 105.747 50.6701 105.517 50.3667 105.517H50.2512V105.425H52.9245C53.3189 105.422 53.8467 105.331 54.0156 105.259V106.415L53.9234 106.413V106.251C53.9234 105.96 53.6967 105.723 53.4112 105.705H51.5445V108.535H53.0912C53.3367 108.532 53.5345 108.331 53.5345 108.084V107.95L53.6234 107.948V109.398L53.5345 109.395V109.261C53.5345 109.018 53.3423 108.82 53.1012 108.81H51.5445V111.553H52.8567C53.8267 111.553 54.1989 111.051 54.4823 110.353H54.5734L54.0412 111.832V111.834Z" fill="white"/>
<path d="M64.0121 105.426V105.518H63.8421C63.5354 105.518 63.2865 105.761 63.2765 106.065V110.795C63.2765 111.385 63.3598 111.962 63.3598 111.962H63.2776L58.2843 106.637V111.195C58.2943 111.499 58.5432 111.742 58.8498 111.742H59.0187V111.833H57.1343V111.742H57.3043C57.6132 111.742 57.8632 111.495 57.8698 111.188V106.432C57.8698 105.808 57.7854 105.288 57.7854 105.288H57.8754L62.8609 110.611V106.071C62.8554 105.763 62.6043 105.517 62.2954 105.517H62.1265V105.425L64.0121 105.426Z" fill="white"/>
<path d="M72.578 109.163L72.4658 110.6C71.9835 111.39 71.1646 111.964 69.8935 111.964C67.9791 111.954 66.6235 110.646 66.6235 108.623C66.6235 106.637 67.9324 105.3 69.9469 105.3C70.8435 105.3 71.5758 105.566 72.1124 105.918L72.2969 107.21H72.2213C71.9435 106.142 71.0458 105.574 69.9458 105.573C68.3369 105.573 67.3113 106.792 67.3113 108.613C67.3113 110.454 68.3546 111.652 69.8946 111.69C71.1946 111.687 72.2946 111.039 72.5024 109.163H72.578Z" fill="white"/>
<path d="M80.6065 111.167C80.7921 111.573 81.1298 111.743 81.4109 111.743H81.4876V111.835H79.4254V111.745H79.5054C79.7421 111.745 79.9876 111.537 79.8532 111.169L79.2676 109.61H76.8021L76.1887 111.175C76.0598 111.538 76.3032 111.745 76.5387 111.745H76.6187V111.835H74.7754V111.743H74.8576C75.1354 111.743 75.4743 111.575 75.6598 111.167L77.7354 106.24C77.7354 106.24 78.0743 105.498 78.0743 105.298H78.1565L80.6043 111.167H80.6065ZM79.1643 109.336L78.0609 106.398L76.9098 109.336H79.1643Z" fill="white"/>
<path d="M90.5135 105.426V105.518H90.3435C90.0368 105.518 89.788 105.761 89.778 106.065V110.795C89.778 111.385 89.8613 111.962 89.8613 111.962H89.7791L84.7857 106.637V111.195C84.7957 111.499 85.0446 111.742 85.3513 111.742H85.5202V111.833H83.6357V111.742H83.8057C84.1146 111.742 84.3646 111.495 84.3713 111.188V106.432C84.3713 105.808 84.2869 105.288 84.2869 105.288H84.3769L89.3624 110.611V106.071C89.3569 105.763 89.1057 105.517 88.7968 105.517H88.628V105.425L90.5135 105.426Z" fill="white"/>
<path d="M97.1367 105.417C97.5323 105.414 98.0679 105.322 98.239 105.25V106.401L98.1467 106.399V106.237C98.1467 105.942 97.9156 105.704 97.6245 105.691H95.889V111.174C95.899 111.489 96.1567 111.742 96.4745 111.742H96.5901V111.833H94.5879V111.742H94.7045C95.0201 111.742 95.2767 111.494 95.2901 111.181V105.691H93.5534C93.2634 105.703 93.0312 105.942 93.0312 106.237V106.399L92.939 106.401V105.25C93.1112 105.322 93.6456 105.414 94.0412 105.417H97.1345H97.1367Z" fill="white"/>
<path d="M105.348 111.167C105.533 111.573 105.871 111.743 106.152 111.743H106.229V111.835H104.167V111.745H104.247C104.483 111.745 104.729 111.537 104.594 111.169L104.009 109.61H101.543L100.93 111.175C100.801 111.538 101.044 111.745 101.28 111.745H101.36V111.835H99.5166V111.743H99.5988C99.8766 111.743 100.215 111.575 100.401 111.167L102.477 106.24C102.477 106.24 102.815 105.498 102.815 105.298H102.898L105.345 111.167H105.348ZM103.907 109.336L102.803 106.398L101.652 109.336H103.907Z" fill="white"/>
<path d="M111.612 105.428C113.568 105.428 114.9 106.71 114.9 108.634C114.9 110.559 113.568 111.836 111.612 111.836H108.512V111.744H108.629C108.949 111.744 109.209 111.489 109.216 111.17V106.042C109.216 105.748 108.934 105.518 108.632 105.518H108.517V105.428H111.612ZM109.813 111.557H111.613C113.182 111.557 114.214 110.388 114.214 108.633C114.214 106.879 113.173 105.702 111.613 105.702H109.813V111.557Z" fill="white"/>
<path d="M124.411 108.63C124.411 110.629 123.067 111.963 121.12 111.963C119.174 111.963 117.829 110.63 117.829 108.63C117.829 106.63 119.172 105.298 121.12 105.298C123.068 105.298 124.411 106.63 124.411 108.63ZM123.709 108.63C123.709 106.796 122.674 105.572 121.12 105.572C119.567 105.572 118.531 106.796 118.531 108.63C118.531 110.465 119.567 111.689 121.12 111.689C122.674 111.689 123.709 110.466 123.709 108.63Z" fill="white"/>
<path d="M54.0412 111.834H50.2456V111.743H50.3634C50.6834 111.743 50.9434 111.487 50.95 111.168V106.041C50.9189 105.747 50.6701 105.517 50.3667 105.517H50.2512V105.425H52.9245C53.3189 105.422 53.8467 105.331 54.0156 105.259V106.415L53.9234 106.413V106.251C53.9234 105.96 53.6967 105.723 53.4112 105.705H51.5445V108.535H53.0912C53.3367 108.532 53.5345 108.331 53.5345 108.084V107.95L53.6234 107.948V109.398L53.5345 109.395V109.261C53.5345 109.018 53.3423 108.82 53.1012 108.81H51.5445V111.553H52.8567C53.8267 111.553 54.1989 111.051 54.4823 110.353H54.5734L54.0412 111.832V111.834Z" fill="white"/>
<path d="M64.0121 105.426V105.518H63.8421C63.5354 105.518 63.2865 105.761 63.2765 106.065V110.795C63.2765 111.385 63.3598 111.962 63.3598 111.962H63.2776L58.2843 106.637V111.195C58.2943 111.499 58.5432 111.742 58.8498 111.742H59.0187V111.833H57.1343V111.742H57.3043C57.6132 111.742 57.8632 111.495 57.8698 111.188V106.432C57.8698 105.808 57.7854 105.288 57.7854 105.288H57.8754L62.8609 110.611V106.071C62.8554 105.763 62.6043 105.517 62.2954 105.517H62.1265V105.425L64.0121 105.426Z" fill="white"/>
<path d="M72.578 109.163L72.4658 110.6C71.9835 111.39 71.1646 111.964 69.8935 111.964C67.9791 111.954 66.6235 110.646 66.6235 108.623C66.6235 106.637 67.9324 105.3 69.9469 105.3C70.8435 105.3 71.5758 105.566 72.1124 105.918L72.2969 107.21H72.2213C71.9435 106.142 71.0458 105.574 69.9458 105.573C68.3369 105.573 67.3113 106.792 67.3113 108.613C67.3113 110.454 68.3546 111.652 69.8946 111.69C71.1946 111.687 72.2946 111.039 72.5024 109.163H72.578Z" fill="white"/>
<path d="M80.6065 111.167C80.7921 111.573 81.1298 111.743 81.4109 111.743H81.4876V111.835H79.4254V111.745H79.5054C79.7421 111.745 79.9876 111.537 79.8532 111.169L79.2676 109.61H76.8021L76.1887 111.175C76.0598 111.538 76.3032 111.745 76.5387 111.745H76.6187V111.835H74.7754V111.743H74.8576C75.1354 111.743 75.4743 111.575 75.6598 111.167L77.7354 106.24C77.7354 106.24 78.0743 105.498 78.0743 105.298H78.1565L80.6043 111.167H80.6065ZM79.1643 109.336L78.0609 106.398L76.9098 109.336H79.1643Z" fill="white"/>
<path d="M90.5135 105.426V105.518H90.3435C90.0368 105.518 89.788 105.761 89.778 106.065V110.795C89.778 111.385 89.8613 111.962 89.8613 111.962H89.7791L84.7857 106.637V111.195C84.7957 111.499 85.0446 111.742 85.3513 111.742H85.5202V111.833H83.6357V111.742H83.8057C84.1146 111.742 84.3646 111.495 84.3713 111.188V106.432C84.3713 105.808 84.2869 105.288 84.2869 105.288H84.3769L89.3624 110.611V106.071C89.3569 105.763 89.1057 105.517 88.7968 105.517H88.628V105.425L90.5135 105.426Z" fill="white"/>
<path d="M97.1367 105.417C97.5323 105.414 98.0679 105.322 98.239 105.25V106.401L98.1467 106.399V106.237C98.1467 105.942 97.9156 105.704 97.6245 105.691H95.889V111.174C95.899 111.489 96.1567 111.742 96.4745 111.742H96.5901V111.833H94.5879V111.742H94.7045C95.0201 111.742 95.2767 111.494 95.2901 111.181V105.691H93.5534C93.2634 105.703 93.0312 105.942 93.0312 106.237V106.399L92.939 106.401V105.25C93.1112 105.322 93.6456 105.414 94.0412 105.417H97.1345H97.1367Z" fill="white"/>
<path d="M105.348 111.167C105.533 111.573 105.871 111.743 106.152 111.743H106.229V111.835H104.167V111.745H104.247C104.483 111.745 104.729 111.537 104.594 111.169L104.009 109.61H101.543L100.93 111.175C100.801 111.538 101.044 111.745 101.28 111.745H101.36V111.835H99.5166V111.743H99.5988C99.8766 111.743 100.215 111.575 100.401 111.167L102.477 106.24C102.477 106.24 102.815 105.498 102.815 105.298H102.898L105.345 111.167H105.348ZM103.907 109.336L102.803 106.398L101.652 109.336H103.907Z" fill="white"/>
<path d="M111.612 105.428C113.568 105.428 114.9 106.71 114.9 108.634C114.9 110.559 113.568 111.836 111.612 111.836H108.512V111.744H108.629C108.949 111.744 109.209 111.489 109.216 111.17V106.042C109.216 105.748 108.934 105.518 108.632 105.518H108.517V105.428H111.612ZM109.813 111.557H111.613C113.182 111.557 114.214 110.388 114.214 108.633C114.214 106.879 113.173 105.702 111.613 105.702H109.813V111.557Z" fill="white"/>
<path d="M124.411 108.63C124.411 110.629 123.067 111.963 121.12 111.963C119.174 111.963 117.829 110.63 117.829 108.63C117.829 106.63 119.172 105.298 121.12 105.298C123.068 105.298 124.411 106.63 124.411 108.63ZM123.709 108.63C123.709 106.796 122.674 105.572 121.12 105.572C119.567 105.572 118.531 106.796 118.531 108.63C118.531 110.465 119.567 111.689 121.12 111.689C122.674 111.689 123.709 110.466 123.709 108.63Z" fill="white"/>
<path d="M36.5901 120.478L38.3223 120.992L52.789 78.3667C51.8146 77.3922 48.8934 75.4445 46.9446 77.3922L36.5879 120.474L36.5901 120.478Z" fill="white"/>
<path d="M34.5723 83.0354C34.5723 83.0354 42.5934 105.999 42.5934 108.545V111.092C42.5934 111.092 40.6612 112.729 38.2623 111.092C35.8634 109.455 34.5723 100.401 34.5723 100.401" fill="white"/>
<path d="M52.4147 103.766C51.588 103.889 51.0069 103.864 50.6703 103.691C50.3336 103.519 50.2414 103.061 50.3947 102.32C50.5169 101.53 50.6314 100.74 50.7391 99.9499C50.8458 99.1599 50.9603 98.3444 51.0836 97.5044C50.288 97.2088 49.9825 96.7022 50.1658 95.9866C50.5325 94.2322 50.8925 92.4922 51.2447 90.7622C51.5958 89.0344 51.9714 87.3177 52.3691 85.6133C52.4914 85.0455 52.6214 84.4833 52.7592 83.9277C52.8969 83.3722 53.118 82.8222 53.4247 82.2788C53.8836 82.2788 54.3725 82.3155 54.8936 82.3899C54.9547 82.2411 55.008 82.0755 55.0547 81.8899C55.1003 81.7044 55.138 81.5499 55.1691 81.4266C55.8725 81.4266 56.4547 81.5877 56.9136 81.9088C57.3725 82.2288 57.6636 82.6377 57.7858 83.1311C57.8469 83.2544 57.8925 83.3722 57.9236 83.4833C57.9547 83.5944 57.9991 83.6988 58.0614 83.7977C58.5503 84.9333 59.048 86.0755 59.5525 87.2244C60.058 88.3722 60.5703 89.5155 61.0903 90.6511C61.1203 90.8244 61.1747 90.9711 61.2514 91.0955C61.3269 91.2188 61.4269 91.3799 61.5492 91.5766C61.6103 91.4044 61.6714 91.2755 61.7325 91.1877C61.7936 91.1022 61.8247 91.0333 61.8247 90.9844C62.1303 89.8977 62.4369 88.8299 62.7436 87.7799C63.0492 86.7311 63.3703 85.6877 63.7069 84.6499C64.0436 83.7866 64.3958 82.9155 64.7625 82.0388C65.1291 81.1633 65.4969 80.2911 65.8636 79.4266C66.0158 79.0322 66.2003 78.8099 66.4147 78.7599C66.628 78.7099 66.9503 78.7844 67.3791 78.9822C67.5314 79.1055 67.6847 79.1977 67.838 79.2599C67.9903 79.3222 68.1591 79.4144 68.3425 79.5377C68.8314 79.8099 68.9847 80.2166 68.8014 80.7599C68.0358 83.4033 67.2869 86.0144 66.5525 88.5955C65.818 91.1766 65.068 93.7633 64.3036 96.3566C64.2114 96.6044 64.1503 96.8566 64.1203 97.1155C64.0891 97.3755 64.0436 97.6155 63.9825 97.8388C63.5536 97.8144 63.148 97.8022 62.7669 97.8022C62.3858 97.8022 61.9936 97.7899 61.5969 97.7655C61.1991 97.7155 60.8858 97.5988 60.6558 97.4133C60.4258 97.2277 60.2347 96.9999 60.0814 96.7288C59.8358 96.0622 59.5691 95.4133 59.278 94.7833C58.9869 94.1533 58.7191 93.5177 58.4747 92.8755C58.168 92.2333 57.908 91.5977 57.6947 90.9688C57.4803 90.3388 57.2514 89.6777 57.0058 88.9866C56.8225 88.8144 56.6691 88.5299 56.5469 88.1344C56.1491 89.5666 55.7591 90.9199 55.3769 92.1911C54.9936 93.4633 54.6347 94.7655 54.298 96.0988C53.9925 97.3588 53.6858 98.6188 53.3803 99.8777C53.0736 101.137 52.7525 102.433 52.4169 103.768L52.4147 103.766ZM52.9658 103.803C53.1491 103.013 53.3325 102.217 53.5169 101.414C53.7003 100.612 53.868 99.8155 54.0214 99.0255C53.9603 99.8655 53.8758 100.681 53.7691 101.471C53.6614 102.261 53.4703 103.063 53.1947 103.879C53.1647 103.879 53.1336 103.867 53.1025 103.842C53.0714 103.818 53.0258 103.806 52.9647 103.806L52.9658 103.803Z" fill="white"/>
<path d="M88.6737 92.3566C88.4593 92.48 88.2759 92.6044 88.1226 92.7266C87.9692 92.8511 87.817 92.9866 87.6637 93.1344C87.5415 93.2833 87.4037 93.4122 87.2504 93.5233C87.097 93.6344 87.0515 93.8133 87.1126 94.0611C87.1737 94.16 87.1359 94.2522 86.9981 94.3389C86.8604 94.4255 86.7459 94.53 86.6537 94.6533C86.3781 94.9489 86.0804 95.2333 85.7581 95.5044C85.437 95.7766 85.1393 96.0611 84.8637 96.3566C84.4348 96.8511 83.9448 97.2777 83.3948 97.6355C82.8448 97.9933 82.2781 98.3455 81.697 98.6911C80.7793 99.2344 79.8448 99.7277 78.897 100.172C77.9481 100.618 76.9537 101.012 75.9137 101.359C74.9337 101.679 73.9404 101.569 72.9304 101.026C72.777 100.928 72.647 100.834 72.5404 100.748C72.4326 100.661 72.3026 100.593 72.1504 100.544C70.8348 100.026 69.9015 99.3277 69.3504 98.4511C68.7993 97.5755 68.447 96.5933 68.2948 95.5066C68.0815 93.7789 68.2948 92.0611 68.937 90.3577C69.7326 88.3577 70.7804 86.5111 72.0815 84.82C73.3815 83.1289 75.0415 81.6277 77.0615 80.3189C77.5204 80.0477 77.9937 79.8 78.4837 79.5777C78.9726 79.3555 79.4626 79.1455 79.9526 78.9477C80.4426 78.75 80.9315 78.6455 81.4215 78.6333C81.9104 78.6211 82.3848 78.7622 82.8437 79.06C82.9659 79.1589 83.0959 79.2333 83.2337 79.2811C83.3715 79.3311 83.5015 79.3811 83.6237 79.43C83.8681 79.5533 84.1437 79.7511 84.4504 80.0222C84.7559 80.2944 85.047 80.6089 85.3226 80.9666C85.5981 81.3255 85.827 81.6966 86.0104 82.0789C86.1937 82.4622 86.3159 82.8011 86.377 83.0977C86.1626 82.9 86.0026 82.74 85.8948 82.6166C85.787 82.4933 85.6426 82.3322 85.4581 82.1344C85.2748 83.0733 84.9759 83.9377 84.5626 84.7277C84.1493 85.5189 83.7137 86.2966 83.2548 87.0622C83.1015 87.3577 82.9481 87.6366 82.7959 87.8955C82.6426 88.1555 82.4748 88.4211 82.2904 88.6922C82.0459 88.9144 81.8381 89.0322 81.6704 89.0444C81.5015 89.0577 81.2348 88.9644 80.867 88.7666C80.7448 88.6689 80.6059 88.5822 80.4537 88.5077C80.3004 88.4333 80.147 88.3589 79.9948 88.2855C80.3004 87.7666 80.5759 87.3477 80.8215 87.0266C81.0659 86.4833 81.3104 85.9455 81.5559 85.4155C81.8004 84.8844 82.0448 84.3344 82.2904 83.7666C82.3826 83.5689 82.4426 83.3466 82.4737 83.1C82.5037 82.8533 82.5659 82.5944 82.657 82.3222C82.0148 82.4455 81.5326 82.6555 81.2115 82.9522C80.8904 83.2489 80.5304 83.5077 80.1326 83.73C79.9793 83.8044 79.857 83.9155 79.7659 84.0633C79.6737 84.2122 79.5515 84.3355 79.3993 84.4344C77.4404 85.9166 75.8348 87.54 74.5804 89.3055C73.3248 91.0722 72.4381 93.0289 71.9181 95.1777C71.6426 96.2889 71.6115 97.3755 71.8259 98.4377C71.887 98.8077 71.9937 99.0489 72.147 99.16C72.2993 99.2711 72.6059 99.2777 73.0648 99.1789C73.4315 99.1044 73.7681 99.0244 74.0748 98.9377C74.3804 98.8511 74.7015 98.7466 75.0381 98.6233C75.2215 98.5489 75.3981 98.4811 75.5659 98.42C75.7337 98.3577 75.9259 98.2777 76.1404 98.1789C76.9048 97.8333 77.6615 97.4877 78.4126 97.1422C79.1615 96.7966 79.9037 96.4511 80.6381 96.1044C81.4937 95.6111 82.3281 95.1111 83.1392 94.6044C83.9492 94.0989 84.7837 93.5989 85.6404 93.1044C85.8848 92.9555 86.0993 92.7966 86.2826 92.6233C86.4659 92.45 86.6493 92.2655 86.8337 92.0666C87.2315 91.7466 87.5226 91.5989 87.7059 91.6222C87.8892 91.6466 88.2115 91.8944 88.6704 92.3633L88.6737 92.3566ZM78.347 97.7277C78.2848 97.6044 78.2393 97.5422 78.2093 97.5422C77.7504 97.74 77.307 97.9444 76.8781 98.1533C76.4493 98.3633 75.9904 98.5666 75.5004 98.7644C75.0115 98.9122 74.5293 99.0666 74.0548 99.2266C73.5804 99.3889 73.0837 99.5666 72.5637 99.7644C72.9304 99.7889 73.3737 99.7466 73.8948 99.6355C74.4148 99.5244 74.9426 99.37 75.4781 99.1722C76.0137 98.9744 76.5337 98.7522 77.0381 98.5055C77.5437 98.2589 77.9793 98 78.347 97.7277ZM82.8448 81.0211C82.3248 80.9222 81.7737 81.0022 81.1926 81.2622C80.6115 81.5222 80.1215 81.8733 79.7237 82.3177C80.2437 82.0955 80.7481 81.8789 81.2381 81.6689C81.727 81.46 82.2637 81.2433 82.8448 81.0211ZM82.3859 80.4655V80.3544C82.3859 80.3044 82.3704 80.2555 82.3404 80.2055C82.187 80.2555 82.0259 80.2922 81.8581 80.3166C81.6892 80.3411 81.5293 80.3911 81.3759 80.4655C81.3759 80.54 81.4226 80.5766 81.5137 80.5766C81.6659 80.5766 81.8115 80.5644 81.9493 80.54C82.087 80.5155 82.2326 80.49 82.3859 80.4655ZM82.2937 89.2822C82.5993 88.9855 82.8981 88.6777 83.1893 88.3555C83.4804 88.0355 83.7937 87.6889 84.1304 87.3189C84.0693 87.9111 83.8704 88.3933 83.5337 88.7633C83.197 89.1344 82.7826 89.3077 82.2937 89.2822ZM83.5337 79.9833C83.5637 80.1566 83.587 80.2922 83.6026 80.3911C83.617 80.49 83.6559 80.5644 83.717 80.6122C83.7781 80.6377 83.847 80.6689 83.9237 80.7055C83.9993 80.7422 84.1304 80.8111 84.3137 80.9089C84.2515 80.76 84.2059 80.6433 84.1759 80.5566C84.1448 80.47 84.0993 80.39 84.0381 80.3155C83.977 80.2655 83.9159 80.2289 83.8548 80.2044C83.7937 80.1811 83.6859 80.1077 83.5337 79.9833ZM84.3137 82.0944C84.1915 82.0944 84.0681 82.0711 83.9459 82.02C83.8848 82.3411 83.8159 82.65 83.7393 82.9466C83.6626 83.2433 83.5937 83.5266 83.5326 83.7989C83.5626 83.7989 83.5859 83.8111 83.6015 83.8355C83.6159 83.86 83.6548 83.8722 83.7159 83.8722C83.8381 83.5755 83.9526 83.28 84.0604 82.9833C84.167 82.6866 84.2515 82.3911 84.3126 82.0944H84.3137ZM86.8837 95.7277C87.067 95.5055 87.2892 95.2644 87.5492 95.0055C87.8092 94.7455 88.0693 94.5055 88.3293 94.2822C88.5893 94.0611 88.8337 93.8689 89.0637 93.7089C89.2926 93.5477 89.4837 93.4433 89.637 93.3933C89.5759 93.6155 89.4537 93.8455 89.2704 94.0789C89.087 94.3133 88.8648 94.5366 88.6048 94.7455C88.3437 94.9555 88.0615 95.1466 87.7559 95.32C87.4504 95.4933 87.1593 95.63 86.8837 95.7277Z" fill="white"/>
<path d="M106.068 87.319C106.252 87.4912 106.413 87.6268 106.55 87.7257C106.688 87.8246 106.757 87.9357 106.757 88.059C106.757 88.2079 106.658 88.3135 106.459 88.3735C106.26 88.4368 106.084 88.4912 105.932 88.5412C105.412 88.5912 104.906 88.6457 104.417 88.7079C103.927 88.7701 103.437 88.8501 102.948 88.949C102.184 88.999 101.418 89.0724 100.654 89.1712C99.8882 89.2701 99.0938 89.3812 98.2671 89.5046C97.8693 90.7401 97.4482 91.9624 97.0049 93.1724C96.5615 94.3824 96.1093 95.6412 95.6504 96.9501C96.3538 96.8279 96.9893 96.7035 97.5549 96.5801C98.1204 96.4568 98.7093 96.3579 99.3215 96.2835C100.699 96.1612 102.06 96.0057 103.406 95.8201C104.753 95.6357 106.129 95.5057 107.537 95.4312C108.516 95.3335 109.158 95.4379 109.465 95.7468C109.77 96.0546 109.893 96.629 109.832 97.469C109.312 97.519 108.799 97.5746 108.294 97.6368C107.789 97.699 107.292 97.7657 106.803 97.8401C106.282 97.8646 105.762 97.8768 105.243 97.8768C104.724 97.8768 104.202 97.889 103.683 97.9135V98.1346C104.203 98.1346 104.715 98.129 105.219 98.1168C105.725 98.1046 106.237 98.1112 106.757 98.1346C107.246 98.1846 107.545 98.2901 107.653 98.449C107.759 98.6112 107.783 98.9012 107.722 99.3201C106.834 99.1968 105.962 99.1712 105.105 99.2457C104.248 99.3201 103.376 99.419 102.488 99.5412C101.295 99.6657 100.109 99.8079 98.9315 99.9679C97.7538 100.129 96.5682 100.282 95.3749 100.431C95.0082 100.481 94.7471 100.567 94.5949 100.691C94.4427 100.816 94.3349 101 94.2738 101.247C94.2427 101.519 94.1971 101.772 94.136 102.006C94.0749 102.24 94.0282 102.481 93.9982 102.729C93.7838 103.076 93.4627 103.235 93.0338 103.21C92.4827 103.136 92.2538 102.89 92.346 102.469C92.376 102.222 92.4071 101.988 92.4382 101.766C92.4682 101.543 92.5138 101.297 92.576 101.025C91.9638 101.099 91.4749 101.136 91.1071 101.136C90.8315 100.766 90.7171 100.538 90.7626 100.451C90.8093 100.365 91.0915 100.26 91.6115 100.136C91.5493 99.9146 91.4893 99.6857 91.4271 99.4512C91.366 99.2168 91.3204 98.9757 91.2893 98.729C91.0449 98.779 90.8304 98.8212 90.6471 98.8579C90.4638 98.8946 90.2804 98.9379 90.096 98.9868C90.096 98.9635 90.0893 98.9501 90.0727 98.9501C90.0571 98.9501 90.0493 98.9379 90.0493 98.9135C90.1115 98.839 90.1804 98.7779 90.256 98.729C90.3327 98.679 90.4015 98.6057 90.4627 98.5068C90.8915 98.3579 91.2126 98.1668 91.426 97.9324C91.6404 97.6979 91.656 97.3712 91.4726 96.9512C91.1671 96.1357 91.0827 95.3224 91.2204 94.5068C91.3582 93.6912 91.5026 92.8646 91.6571 92.0246C91.6871 91.8757 91.7326 91.7279 91.7949 91.579C91.856 91.4301 91.8704 91.2835 91.8404 91.1346C91.4438 90.3446 91.6415 89.6157 92.4371 88.949C92.2838 88.8746 92.1382 88.8568 92.0004 88.8935C91.8627 88.9301 91.7249 88.9679 91.5871 89.0046C91.4493 89.0412 91.3193 89.0546 91.1971 89.0412C91.0749 89.0301 90.9527 88.949 90.8304 88.8001C90.8615 88.579 90.976 88.4179 91.1749 88.319C91.3738 88.2212 91.5949 88.1579 91.8404 88.1335C92.2071 88.0357 92.4749 87.8923 92.6438 87.7068C92.8115 87.5223 92.926 87.2935 92.9882 87.0224C93.1404 86.6024 93.286 86.1835 93.4238 85.7635C93.5615 85.3435 93.7527 84.9235 93.9982 84.5046C94.1504 84.1335 94.2049 83.7879 94.1593 83.4668C94.1126 83.1468 93.9682 82.8135 93.7226 82.4668C93.5393 82.3179 93.386 82.1335 93.2638 81.9112C93.1104 81.639 93.0649 81.3679 93.126 81.0957C93.1871 80.8235 93.386 80.6268 93.7226 80.5035C94.7626 79.9846 95.8804 79.6512 97.0738 79.5024C98.5115 79.2801 99.9426 79.1012 101.365 78.9646C102.788 78.829 104.217 78.6868 105.656 78.539C105.9 78.5146 106.162 78.5079 106.436 78.5201C106.71 78.5324 106.972 78.6124 107.216 78.7612C107.308 78.8601 107.437 78.9168 107.606 78.9279C107.774 78.9412 107.934 78.9712 108.088 79.0212H109.189C110.26 79.0712 110.948 79.299 111.255 79.7057C111.56 80.1135 111.56 80.749 111.255 81.6135C109.847 81.4901 108.478 81.4779 107.147 81.5768C105.816 81.6757 104.477 81.7868 103.13 81.9101C102.518 81.9346 102.067 81.9601 101.777 81.9835C101.486 82.009 101.279 82.0712 101.157 82.169C101.035 82.2679 100.943 82.4235 100.882 82.6324C100.819 82.8424 100.713 83.1324 100.56 83.5024C100.315 83.9968 100.132 84.4779 100.009 84.9468C99.8871 85.4168 99.7493 85.8857 99.596 86.3546V86.6879C100.207 86.6146 100.819 86.5457 101.432 86.4846C102.043 86.4235 102.64 86.3801 103.222 86.3557C103.589 86.3057 103.964 86.2757 104.346 86.2635C104.728 86.2512 105.118 86.2201 105.516 86.1701C105.729 86.1701 105.936 86.189 106.136 86.2268C106.334 86.2635 106.464 86.3812 106.526 86.579C106.556 86.7768 106.564 86.9435 106.549 87.0779C106.534 87.2135 106.374 87.2946 106.068 87.319ZM97.026 83.0957C96.9649 83.0712 96.9115 83.0524 96.8649 83.039C96.8193 83.0279 96.7804 82.9957 96.7504 82.9468C96.5971 83.219 96.4527 83.4968 96.3138 83.7801C96.176 84.0646 96.016 84.3424 95.8315 84.6146C95.8927 84.6146 95.9304 84.6201 95.946 84.6324C95.9615 84.6446 95.9838 84.6501 96.0149 84.6501C96.1671 84.379 96.336 84.119 96.5204 83.8735C96.7038 83.6257 96.8726 83.3679 97.026 83.0957ZM100.974 98.3201H102.167V98.099C101.922 98.1235 101.715 98.1546 101.547 98.1912C101.378 98.2279 101.187 98.2712 100.974 98.3201H99.8727V98.5057C100.086 98.4557 100.286 98.419 100.469 98.3946C100.653 98.3712 100.819 98.3446 100.974 98.3201ZM106.206 89.2823C105.503 89.3557 104.798 89.4246 104.095 89.4857C103.39 89.5479 102.672 89.6023 101.937 89.6523V89.5035C102.64 89.3812 103.345 89.2824 104.048 89.2079C104.752 89.1335 105.455 89.059 106.159 88.9857V89.1346C106.159 89.1846 106.174 89.2335 106.205 89.2835L106.206 89.2823Z" fill="white"/>
<path d="M118.46 83.7623C118.002 86.0101 117.512 88.2512 116.992 90.4856C116.47 92.7212 116.043 95.0112 115.706 97.3578C116.073 97.2834 116.417 97.2223 116.738 97.1723C117.059 97.1223 117.388 97.0856 117.725 97.0612C118.613 96.9867 119.484 96.9256 120.342 96.8756C121.198 96.8267 122.069 96.79 122.958 96.7645C123.295 96.7645 123.624 96.7778 123.945 96.8012C124.266 96.8267 124.61 96.9 124.977 97.0234C125.283 97.0978 125.574 97.2089 125.849 97.3567C126.125 97.5045 126.263 97.7512 126.263 98.0978C126.263 98.1712 126.3 98.2456 126.378 98.3189C126.454 98.3934 126.523 98.4801 126.585 98.5789C126.829 98.9001 126.982 99.1523 127.044 99.3378C127.105 99.5234 127.089 99.7889 126.997 100.134C124.61 100.012 122.277 100.098 119.998 100.394C117.718 100.691 115.477 101.136 113.274 101.728C113.09 101.778 112.922 101.802 112.769 101.802H112.539C112.203 101.358 111.874 100.92 111.553 100.487C111.232 100.056 111.025 99.5556 110.933 98.9867C111.086 98.9123 111.247 98.8078 111.415 98.6723C111.584 98.5367 111.743 98.4067 111.897 98.2834C111.805 98.1345 111.706 97.9756 111.599 97.8023C111.493 97.6301 111.408 97.4445 111.347 97.2467C111.286 97.0734 111.272 96.8889 111.3 96.6912C111.332 96.4934 111.363 96.32 111.393 96.1723C111.576 94.8645 111.79 93.5734 112.036 92.3023C112.28 91.03 112.525 89.7645 112.77 88.5056C113.137 86.9 113.519 85.3189 113.917 83.7634C114.315 82.2067 114.819 80.6767 115.432 79.17C115.493 78.9967 115.577 78.8178 115.684 78.6323C115.79 78.4467 115.875 78.2556 115.936 78.0578C116.149 78.1078 116.326 78.1456 116.464 78.1689C116.602 78.1934 116.793 78.2312 117.038 78.2801C117.13 78.2301 117.214 78.1689 117.29 78.0945C117.366 78.0201 117.482 77.9589 117.635 77.9089C118.002 78.0823 118.277 78.23 118.462 78.3545C118.646 78.4789 118.775 78.6201 118.852 78.7812C118.927 78.9423 118.95 79.1278 118.92 79.3367C118.89 79.5467 118.828 79.8123 118.737 80.1334C118.523 80.9234 118.316 81.7145 118.118 82.5045C117.918 83.2945 117.712 84.06 117.498 84.8012C116.977 86.6545 116.435 88.4812 115.869 90.2834C115.303 92.0867 114.759 93.9023 114.24 95.7289C114.178 96.05 114.126 96.3712 114.079 96.6923C114.034 97.0123 113.979 97.3223 113.918 97.6178C114.347 97.6678 114.607 97.6 114.698 97.4145C114.789 97.2289 114.866 97.0378 114.927 96.84C115.049 96.2723 115.164 95.6923 115.272 95.0989C115.378 94.5067 115.539 93.9012 115.754 93.2845C116.12 91.8023 116.51 90.3201 116.924 88.8389C117.337 87.3567 117.757 85.8756 118.186 84.3945C118.247 84.2956 118.293 84.1912 118.324 84.08C118.354 83.9689 118.399 83.8645 118.462 83.7656L118.46 83.7623ZM114.559 98.6545C114.498 98.6301 114.467 98.58 114.467 98.5056C114.375 98.5056 114.29 98.4934 114.215 98.4689C114.138 98.4445 114.069 98.4567 114.008 98.5056C113.886 98.6045 113.779 98.6667 113.687 98.6912C113.687 98.8145 113.733 98.8889 113.825 98.9123C113.917 98.8889 114.024 98.8445 114.146 98.7834C114.268 98.7212 114.406 98.6789 114.559 98.6545ZM124.06 97.7645C122.653 97.69 121.238 97.6723 119.815 97.7089C118.393 97.7456 116.976 97.9245 115.569 98.2456V98.4312C116.977 98.3334 118.393 98.2278 119.815 98.1167C121.238 98.0056 122.653 97.8889 124.06 97.7645Z" fill="white"/>
<path d="M32.0603 72.7544C31.6614 72.6389 31.2758 72.5056 30.8803 72.4167C29.8658 72.1889 28.9136 72.4189 27.9881 72.8345C27.3814 73.1067 26.7869 73.4378 26.1514 73.6056C24.7969 73.9633 23.6147 73.5345 22.5869 72.6256C22.5758 72.6156 22.5758 72.5911 22.5625 72.5433C22.7847 72.6022 22.9936 72.6522 23.1992 72.7122C24.5547 73.1045 25.8436 72.9289 27.0725 72.2611C27.7136 71.9122 28.3747 71.6389 29.1092 71.5456C30.1303 71.4167 31.4958 71.9589 32.0603 72.7556V72.7544Z" fill="white"/>
<path d="M25.1549 74.2611C25.4916 74.2922 25.746 74.3288 26.0005 74.3355C26.7516 74.3555 27.4249 74.1188 28.0338 73.6877C28.6083 73.2811 29.2283 73.0122 29.9549 73.0944C30.376 73.1422 30.7616 73.2811 31.1383 73.5822C31.0338 73.5822 30.9794 73.5922 30.9294 73.5811C29.9216 73.3377 29.0505 73.6599 28.2405 74.2299C27.2683 74.9144 26.1438 74.9466 25.1538 74.2622L25.1549 74.2611Z" fill="white"/>
</svg>
