<svg width="50" height="50" viewBox="0 0 50 50" fill="none" xmlns="http://www.w3.org/2000/svg">
<path d="M37.5 3.34971C41.3004 5.54391 44.4564 8.69986 46.6506 12.5003C48.8448 16.3008 49.9999 20.6119 49.9999 25.0003C49.9998 29.3888 48.8447 33.6998 46.6504 37.5003C44.4562 41.3008 41.3002 44.4567 37.4997 46.6508C33.6992 48.845 29.3881 50.0001 24.9997 50C20.6113 49.9999 16.3002 48.8447 12.4997 46.6504C8.69931 44.4561 5.54343 41.3001 3.34931 37.4996C1.15519 33.6991 0.000132667 29.388 0.000244149 24.9995L0.0127443 24.1896C0.152751 19.8721 1.4091 15.6645 3.65932 11.9771C5.90953 8.28973 9.07681 5.24832 12.8524 3.14941C16.6279 1.05051 20.883 -0.0342767 25.2026 0.000825608C29.5222 0.0359279 33.759 1.18972 37.5 3.34971ZM22.5001 12.4996V25.0545L22.5076 25.1895L22.5576 25.527L22.5701 25.5895C22.6047 25.7309 22.6515 25.8689 22.7101 26.002L22.8101 26.207L22.9101 26.3695L27.92 33.887C28.1022 34.1601 28.3365 34.3947 28.6093 34.5773C28.8822 34.76 29.1884 34.8871 29.5104 34.9514C29.8323 35.0157 30.1638 35.0159 30.4859 34.9521C30.808 34.8883 31.1144 34.7617 31.3875 34.5795C31.6607 34.3973 31.8952 34.163 32.0779 33.8902C32.2605 33.6173 32.3876 33.3111 32.4519 32.9892C32.5162 32.6672 32.5165 32.3357 32.4526 32.0136C32.3888 31.6915 32.2622 31.3851 32.08 31.112L27.5 24.2421V12.4996C27.5 11.8873 27.2752 11.2963 26.8683 10.8387C26.4614 10.3811 25.9007 10.0888 25.2926 10.0172L25.0001 9.99966C24.337 9.99966 23.7011 10.263 23.2323 10.7319C22.7635 11.2007 22.5001 11.8366 22.5001 12.4996Z" fill="white"/>
</svg>
