<svg width="50" height="50" viewBox="0 0 50 50" fill="none" xmlns="http://www.w3.org/2000/svg">
<path d="M42.7854 23.8272V22.7714C42.7835 19.7733 41.5916 16.8986 39.4716 14.7786C37.3516 12.6586 34.4769 11.4668 31.4788 11.4648H11.3066C8.30852 11.4668 5.43379 12.6586 3.31382 14.7786C1.19385 16.8986 0.00198352 19.7733 0 22.7714L0 23.8272C0.00198352 26.8253 1.19385 29.7 3.31382 31.82C5.43379 33.9399 8.30852 35.1318 11.3066 35.1338H31.4788C34.4769 35.1318 37.3516 33.9399 39.4716 31.82C41.5916 29.7 42.7835 26.8253 42.7854 23.8272ZM12.164 32.6216C9.69153 32.6216 7.32036 31.6395 5.57208 29.8912C3.8238 28.1429 2.84163 25.7717 2.84163 23.2993C2.84163 20.8269 3.8238 18.4557 5.57208 16.7074C7.32036 14.9591 9.69153 13.9769 12.164 13.9769H30.6233C33.0958 13.9769 35.4669 14.9591 37.2152 16.7074C38.9635 18.4557 39.9457 20.8269 39.9457 23.2993C39.9457 25.7717 38.9635 28.1429 37.2152 29.8912C35.4669 31.6395 33.0958 32.6216 30.6233 32.6216C28.4155 32.3358 26.4041 31.206 25.0112 29.4693L24.9981 29.4524C24.6219 29.0555 24.1688 28.7394 23.6664 28.5235C23.164 28.3075 22.6228 28.1962 22.076 28.1963C20.891 28.1963 19.8278 28.7074 19.0902 29.5217L19.0865 29.5254C18.218 30.5008 17.1527 31.2812 15.9608 31.8152C14.769 32.3492 13.4775 32.6247 12.1715 32.6235H12.1602L12.164 32.6216Z" fill="white"/>
<path d="M48.8826 2.54305H45.3577C45.0591 2.54404 44.773 2.66308 44.5619 2.87421C44.3508 3.08533 44.2317 3.37139 44.2308 3.66997V9.66023C44.2308 10.2462 44.6819 10.7272 45.2547 10.774H45.2585V32.3876C45.256 34.5902 44.3799 36.7019 42.8224 38.2594C41.265 39.8168 39.1533 40.6929 36.9507 40.6954H25.9586C25.5882 39.7944 24.9588 39.0235 24.15 38.4803C23.3413 37.9371 22.3896 37.6461 21.4153 37.6441C20.1136 37.6441 18.8652 38.1612 17.9447 39.0817C17.0242 40.0022 16.5071 41.2506 16.5071 42.5524C16.5071 43.8541 17.0242 45.1026 17.9447 46.023C18.8652 46.9435 20.1136 47.4606 21.4153 47.4606H21.4285C22.3964 47.4611 23.3427 47.1739 24.1473 46.6357C24.9518 46.0974 25.5783 45.3323 25.9474 44.4374L25.9586 44.4056H36.9507C40.1413 44.4026 43.2004 43.134 45.4567 40.8781C47.7129 38.6222 48.9821 35.5633 48.9855 32.3727V10.7759C49.2628 10.7503 49.5204 10.6221 49.7081 10.4164C49.8958 10.2107 49.9999 9.94239 50.0001 9.66397V3.65874C49.9991 3.36279 49.8814 3.0792 49.6725 2.86958C49.4636 2.65997 49.1804 2.54128 48.8844 2.53931L48.8826 2.54305Z" fill="white"/>
</svg>
