<svg width="50" height="50" viewBox="0 0 50 50" fill="none" xmlns="http://www.w3.org/2000/svg">
<path d="M10 5H5V0H45V5H40V10C40 14.0375 37.96 17.2875 35.39 19.9425C33.6325 21.7575 31.495 23.43 29.3275 25C31.495 26.57 33.6325 28.2425 35.39 30.0575C37.96 32.7125 40 35.9625 40 40V45H45V50H5V45H10V40C10 35.9625 12.04 32.7125 14.61 30.0575C16.3675 28.2425 18.505 26.57 20.6725 25C18.505 23.43 16.3675 21.7575 14.61 19.9425C12.04 17.2875 10 14.0375 10 10V5ZM15 5V10C15 11.7125 15.65 13.3375 16.9275 15H33.0725C34.3475 13.3375 35 11.7125 35 10V5H15ZM25 28.055C22.3875 29.9 20.02 31.6575 18.2025 33.535C17.7507 33.9994 17.3251 34.4884 16.9275 35H33.0725C32.6749 34.4884 32.2493 33.9994 31.7975 33.535C29.98 31.6575 27.6125 29.9 25 28.055Z" fill="white"/>
</svg>
