<svg width="51" height="50" viewBox="0 0 51 50" fill="none" xmlns="http://www.w3.org/2000/svg">
<path fill-rule="evenodd" clip-rule="evenodd" d="M16.0521 2.221C18.4959 2.1085 19.275 2.0835 25.5 2.0835C31.725 2.0835 32.5042 2.11058 34.9459 2.221C37.3875 2.33141 39.0542 2.721 40.5125 3.28558C42.0396 3.86266 43.425 4.76475 44.5709 5.93141C45.7375 7.07516 46.6375 8.4585 47.2125 9.98766C47.7792 11.446 48.1667 13.1127 48.2792 15.5502C48.3917 17.9981 48.4167 18.7772 48.4167 25.0002C48.4167 31.2252 48.3896 32.0043 48.2792 34.4481C48.1688 36.8856 47.7792 38.5522 47.2125 40.0106C46.6375 41.5399 45.736 42.9256 44.5709 44.071C43.425 45.2377 42.0396 46.1377 40.5125 46.7127C39.0542 47.2793 37.3875 47.6668 34.95 47.7793C32.5042 47.8918 31.725 47.9168 25.5 47.9168C19.275 47.9168 18.4959 47.8897 16.0521 47.7793C13.6146 47.6689 11.948 47.2793 10.4896 46.7127C8.96029 46.1376 7.57467 45.2361 6.42921 44.071C5.26333 42.9266 4.36111 41.5416 3.78546 40.0127C3.22087 38.5543 2.83337 36.8877 2.72087 34.4502C2.60837 32.0022 2.58337 31.2231 2.58337 25.0002C2.58337 18.7752 2.61046 17.996 2.72087 15.5543C2.83129 13.1127 3.22087 11.446 3.78546 9.98766C4.36196 8.45866 5.26487 7.07373 6.43129 5.92933C7.57512 4.76371 8.95936 3.8615 10.4875 3.28558C11.9459 2.721 13.6125 2.3335 16.05 2.221H16.0521ZM34.7605 6.346C32.3438 6.23558 31.6188 6.21266 25.5 6.21266C19.3813 6.21266 18.6563 6.23558 16.2396 6.346C14.0042 6.44808 12.7917 6.821 11.9834 7.13558C10.9146 7.55225 10.15 8.046 9.34796 8.84808C8.58763 9.58777 8.0025 10.4882 7.63546 11.4835C7.32087 12.2918 6.94796 13.5043 6.84587 15.7397C6.73546 18.1564 6.71254 18.8814 6.71254 25.0002C6.71254 31.1189 6.73546 31.8439 6.84587 34.2606C6.94796 36.496 7.32087 37.7085 7.63546 38.5168C8.00212 39.5106 8.58754 40.4127 9.34796 41.1522C10.0875 41.9127 10.9896 42.4981 11.9834 42.8647C12.7917 43.1793 14.0042 43.5522 16.2396 43.6543C18.6563 43.7647 19.3792 43.7877 25.5 43.7877C31.6209 43.7877 32.3438 43.7647 34.7605 43.6543C36.9959 43.5522 38.2084 43.1793 39.0167 42.8647C40.0855 42.4481 40.85 41.9543 41.6521 41.1522C42.4125 40.4127 42.998 39.5106 43.3646 38.5168C43.6792 37.7085 44.0521 36.496 44.1542 34.2606C44.2646 31.8439 44.2875 31.1189 44.2875 25.0002C44.2875 18.8814 44.2646 18.1564 44.1542 15.7397C44.0521 13.5043 43.6792 12.2918 43.3646 11.4835C42.948 10.4147 42.4542 9.65016 41.6521 8.84808C40.9124 8.08781 40.0119 7.50268 39.0167 7.13558C38.2084 6.821 36.9959 6.44808 34.7605 6.346V6.346ZM22.573 32.0647C24.2077 32.7452 26.0279 32.8371 27.7228 32.3246C29.4177 31.8121 30.8821 30.7271 31.8659 29.2548C32.8497 27.7826 33.2918 26.0145 33.1168 24.2525C32.9418 22.4904 32.1605 20.8439 30.9063 19.5939C30.1068 18.7949 29.1401 18.1831 28.0757 17.8025C27.0114 17.422 25.8759 17.2822 24.7511 17.3931C23.6262 17.5041 22.5399 17.863 21.5705 18.4442C20.601 19.0253 19.7724 19.8142 19.1444 20.754C18.5164 21.6938 18.1046 22.7612 17.9386 23.8792C17.7726 24.9973 17.8566 26.1383 18.1845 27.22C18.5124 28.3017 19.076 29.2973 19.8349 30.135C20.5937 30.9727 21.5288 31.6318 22.573 32.0647ZM17.1709 16.671C18.2647 15.5772 19.5632 14.7095 20.9923 14.1176C22.4214 13.5256 23.9532 13.2209 25.5 13.2209C27.0469 13.2209 28.5786 13.5256 30.0077 14.1176C31.4369 14.7095 32.7354 15.5772 33.8292 16.671C34.923 17.7648 35.7907 19.0633 36.3826 20.4924C36.9746 21.9216 37.2793 23.4533 37.2793 25.0002C37.2793 26.547 36.9746 28.0788 36.3826 29.5079C35.7907 30.937 34.923 32.2355 33.8292 33.3293C31.6202 35.5384 28.6241 36.7794 25.5 36.7794C22.376 36.7794 19.3799 35.5384 17.1709 33.3293C14.9618 31.1203 13.7208 28.1242 13.7208 25.0002C13.7208 21.8761 14.9618 18.88 17.1709 16.671V16.671ZM39.8917 14.9752C40.1628 14.7195 40.3797 14.412 40.5298 14.0709C40.6799 13.7299 40.7601 13.3622 40.7655 12.9896C40.7709 12.617 40.7015 12.2471 40.5615 11.9018C40.4214 11.5566 40.2134 11.2429 39.95 10.9794C39.6865 10.7159 39.3728 10.508 39.0275 10.3679C38.6822 10.2278 38.3123 10.1584 37.9398 10.1639C37.5672 10.1693 37.1995 10.2494 36.8584 10.3995C36.5174 10.5496 36.2099 10.7666 35.9542 11.0377C35.4569 11.5648 35.1847 12.265 35.1952 12.9896C35.2058 13.7142 35.4984 14.4062 36.0108 14.9186C36.5232 15.431 37.2152 15.7236 37.9398 15.7341C38.6644 15.7447 39.3646 15.4724 39.8917 14.9752V14.9752Z" fill="#003C6A"/>
</svg>
