<svg width="31" height="42" viewBox="0 0 31 42" fill="none" xmlns="http://www.w3.org/2000/svg">
<path d="M15.5 19.9582C14.1187 19.9582 12.7939 19.4094 11.8171 18.4327C10.8404 17.4559 10.2917 16.1312 10.2917 14.7498C10.2917 13.3685 10.8404 12.0437 11.8171 11.067C12.7939 10.0902 14.1187 9.5415 15.5 9.5415C16.8813 9.5415 18.2061 10.0902 19.1828 11.067C20.1596 12.0437 20.7083 13.3685 20.7083 14.7498C20.7083 15.4338 20.5736 16.1111 20.3119 16.743C20.0501 17.3749 19.6665 17.949 19.1828 18.4327C18.6992 18.9163 18.125 19.3 17.4931 19.5617C16.8612 19.8235 16.184 19.9582 15.5 19.9582ZM15.5 0.166504C11.6323 0.166504 7.92292 1.70296 5.18802 4.43786C2.45311 7.17277 0.916656 10.8821 0.916656 14.7498C0.916656 25.6873 15.5 41.8332 15.5 41.8332C15.5 41.8332 30.0833 25.6873 30.0833 14.7498C30.0833 10.8821 28.5469 7.17277 25.812 4.43786C23.0771 1.70296 19.3677 0.166504 15.5 0.166504Z" fill="#003C6A"/>
</svg>
