<svg width="51" height="50" viewBox="0 0 51 50" fill="none" xmlns="http://www.w3.org/2000/svg">
<path d="M38.0556 7.83333C36.1567 5.66562 35.1103 2.88176 35.1111 0H26.5278V34.4444C26.4616 36.3084 25.6746 38.0739 24.3327 39.3693C22.9907 40.6646 21.1985 41.3886 19.3333 41.3889C15.3889 41.3889 12.1111 38.1667 12.1111 34.1667C12.1111 29.3889 16.7222 25.8056 21.4722 27.2778V18.5C11.8889 17.2222 3.5 24.6667 3.5 34.1667C3.5 43.4167 11.1667 50 19.3056 50C28.0278 50 35.1111 42.9167 35.1111 34.1667V16.6944C38.5917 19.194 42.7705 20.5351 47.0556 20.5278V11.9444C47.0556 11.9444 41.8333 12.1944 38.0556 7.83333Z" fill="#003C6A"/>
</svg>
