<svg width="124" height="150" viewBox="0 0 124 150" fill="none" xmlns="http://www.w3.org/2000/svg">
<path d="M95.8363 43.7856C99.4674 40.7322 102.175 37.2644 104.027 33.1489C104.161 32.8511 104.092 32.3922 103.972 32.0622C101.884 26.3433 98.6552 21.3367 94.4207 16.9789C93.944 16.4889 93.8396 16.1611 94.2307 15.5867C94.6807 14.9244 95.024 14.19 95.4963 13.3378C102.98 20.57 107.625 29.1733 109.43 39.4433C111.264 38.2044 113.108 38.1767 115.145 38.8244C113.853 40.8733 112.296 42.7456 112.075 45.28C111.774 45.2633 111.524 45.25 111.273 45.2356C110.482 45.19 109.984 45.6156 109.996 46.42C110.082 52.3278 109.052 58.0333 106.956 63.5533C106.882 63.7489 106.823 64.0478 106.917 64.1922C107.59 65.2167 107.891 66.4889 109.153 67.1378C109.477 67.3044 109.557 68.2344 109.501 68.7889C109.42 69.5967 108.85 70.2522 108.011 70.1656C107.106 70.0722 106.226 69.6955 105.347 69.4067C105.08 69.3189 104.85 69.1133 104.578 68.9467C103.573 70.5122 102.648 72.1067 101.576 73.5956C93.7996 84.4 83.3518 91.0889 70.1585 92.84C53.6352 95.0344 39.7096 89.64 28.5329 77.2589C27.3852 75.9878 26.4574 74.5211 25.3685 73.1944C25.0529 72.81 24.5707 72.4689 24.0985 72.3233C22.3285 71.78 20.7463 70.9733 19.4896 69.5744C18.3307 68.2844 18.0674 66.8556 18.6974 65.25C18.7207 65.19 18.7318 65.12 18.7707 65.07C20.1118 63.3233 19.5585 61.5789 19.0652 59.6478C14.5718 42.0456 18.5974 26.6133 31.4618 13.7578C39.6763 5.54667 49.834 1.35111 61.444 0.743333C69.4141 0.325556 76.9718 1.95667 84.1441 5.43C84.494 5.6 84.8341 5.79111 85.1729 5.98111C85.2529 6.02556 85.3118 6.10889 85.4285 6.22111C84.9596 7.16 84.4896 8.10333 84.064 8.95556C66.9329 1.12889 50.6952 2.10222 36.0574 14.1689C23.6163 24.4256 19.1318 38.1 21.1229 54.2667C26.0307 49.7678 31.5363 46.8522 38.0729 45.3744C36.3074 44.5433 36.5029 43.34 36.7707 41.9644C37.3007 39.2456 36.5374 36.6411 35.854 34.0256C35.4307 32.4033 34.5118 31.1222 33.5985 29.7856C32.5052 28.1844 32.5729 28.1711 34.0574 26.9756C37.654 24.08 41.0374 20.9667 43.7663 17.2078C44.4885 16.2133 45.0885 15.1167 45.8929 14.1967C47.8252 11.9889 50.3229 10.7444 53.2118 10.3278C54.1663 10.19 54.9374 9.88111 55.7052 9.24444C58.6718 6.78111 62.0163 6.09111 65.8107 7.06667C68.3041 7.70889 70.8874 8.04111 73.4496 8.35667C74.264 8.45667 75.1418 8.06555 75.9863 7.88222C76.2374 7.82778 76.4707 7.69222 76.7229 7.63667C79.4107 7.05111 80.3696 7.78444 80.3629 10.5278C80.3596 11.8167 80.3063 13.1289 80.0618 14.3889C79.7885 15.7967 79.2629 15.9433 78.0674 15.2244C77.5463 14.9111 77.0107 14.6189 76.2507 14.1844C76.3896 14.6033 76.4074 14.8167 76.5163 14.9589C78.1596 17.1078 81.6029 17.2033 83.084 14.9456C84.7485 12.4067 86.1507 9.69111 87.6052 7.02C88.5318 5.31889 89.3307 3.55 90.2163 1.82556C90.8018 0.685556 91.734 0.123333 93.0552 0.162222C93.8207 0.183333 94.5918 0 95.3607 0C96.834 0.00222222 98.3163 -0.0111111 99.7785 0.138889C100.775 0.241111 101.175 1.10556 101.395 1.99778C102.03 4.56222 101.238 5.35889 98.674 4.78222C98.1096 4.65556 97.5196 4.55333 96.9474 4.58C96.5741 4.59778 96.2129 4.86778 95.7607 5.06222C97.1663 5.25778 98.3529 5.44333 99.5463 5.57667C99.8885 5.61556 100.245 5.48 100.597 5.47111C100.915 5.46333 101.235 5.51889 101.554 5.54667C101.481 5.99667 101.565 6.60333 101.303 6.86889C100.501 7.68444 99.8385 8.88 98.3329 8.44778C98.1818 8.40444 97.9452 8.64111 97.7541 8.75556C96.8941 9.26778 96.0185 9.75667 95.1863 10.3122C94.8852 10.5133 94.6574 10.8533 94.454 11.1678C91.8196 15.2478 89.2252 19.3544 86.5463 23.4044C85.9863 24.2511 85.104 24.8811 84.4107 25.6478C84.0463 26.05 83.7229 26.5067 83.4629 26.9844C82.6963 28.3956 82.8974 28.8322 84.3885 29.4156C87.5318 30.6456 90.6418 31.9389 93.2874 34.12C94.6552 35.2478 95.5363 36.5267 95.384 38.4433C95.2752 39.8222 95.4674 41.2267 95.554 42.6178C95.5752 42.9511 95.7085 43.2778 95.8363 43.7878V43.7856ZM37.7129 58.5878L37.6507 58.2856C38.2396 57.94 38.8196 57.5767 39.4207 57.2533C40.2452 56.81 41.154 56.4911 41.9052 55.9489C43.0318 55.1344 43.0274 54.2656 41.8218 53.5956C40.4185 52.8156 38.9029 52.2222 37.4029 51.6322C35.6207 50.9311 33.9096 51.2211 32.2718 52.1722C31.1807 52.8056 30.0452 53.3633 28.9574 54.0011C27.9885 54.57 26.8696 55.0355 26.1507 55.8433C24.504 57.6944 23.0563 59.7244 21.5418 61.6922C21.3674 61.9189 21.2685 62.2078 21.1596 62.4778C20.7252 63.5567 20.3029 64.64 19.8718 65.72C19.3863 66.9344 19.5363 68.1022 20.534 68.9133C21.5485 69.7378 22.6607 70.5811 23.874 70.9922C26.7696 71.9756 28.1885 71.4411 29.3374 68.6044C30.3285 66.1578 30.6829 66.1511 32.5252 68.0889C32.6818 68.2533 32.8252 68.4322 32.9929 68.5833C34.114 69.5889 35.2407 70.5889 36.3596 71.5844C36.714 70.75 36.9385 70.04 37.3118 69.4178C37.4963 69.11 37.9518 68.9633 38.2852 68.7444C38.1552 69.0878 38.0874 69.4744 37.8863 69.7689C36.9218 71.1778 37.1629 72.3033 38.5063 72.8067C38.6874 72.0733 38.8063 71.3089 39.0785 70.6022C39.2152 70.2467 39.804 69.6978 39.8885 69.7467C40.5818 70.1533 39.8763 70.4889 39.7163 70.8133C38.9985 72.2644 39.4107 73.6167 40.4974 73.9378C40.8318 72.9133 41.1485 71.89 41.514 70.8844C41.5596 70.7578 41.8629 70.7244 42.0474 70.6478C42.0718 70.8433 42.1563 71.0567 42.104 71.2289C42.0307 71.47 41.834 71.67 41.7274 71.9044C41.1585 73.1422 41.4085 74.08 42.4885 74.94C42.6507 75.0689 42.764 75.2878 42.8452 75.4867C44.4596 79.4556 46.9296 82.8456 49.9463 85.8433C50.6696 86.5622 51.564 87.1311 52.4429 87.6644C52.9518 87.9733 53.5852 88.0689 54.1352 87.5133C52.1352 84.9233 51.6274 82.0622 52.0907 78.8822C53.3907 78.9889 54.5874 79.0322 55.7674 79.1933C60.5696 79.8522 65.3396 79.6111 70.1018 78.8011C70.5052 78.7322 70.9863 78.8278 71.3718 78.9889C72.8652 79.6111 74.3296 80.3033 75.8185 80.9367C76.134 81.07 76.5096 81.06 76.7485 81.0989C76.4896 79.9989 76.1852 79.0233 76.0685 78.0244C76.0341 77.7244 76.4674 77.1378 76.7785 77.0644C80.4218 76.1967 83.424 74.0544 86.6085 72.2667C87.3374 71.8578 88.1985 71.6167 89.0296 71.4711C90.5729 71.2 92.1307 71.0278 93.4763 70.2578C92.8718 69.6011 92.3196 69.0022 91.5896 68.2089C93.6418 66.2378 95.6152 64.4089 97.4985 62.4933C98.1129 61.8678 98.5374 61.8955 99.1029 62.4255C100.498 63.7344 101.838 65.1122 103.318 66.3178C104.534 67.3078 105.904 68.1144 107.24 68.9478C107.703 69.2367 108.19 69.1778 108.32 68.5544C107.807 67.9078 107.222 67.3589 106.87 66.6878C105.637 64.3411 104.453 61.9656 103.325 59.5667C103.057 58.9967 102.837 58.5456 102.172 58.4378C101.981 58.4067 101.808 58.2644 101.488 58.1033C101.814 57.9789 101.983 57.8744 102.162 57.8522C103.225 57.7244 103.677 57.18 103.942 56.0822C104.954 51.8733 106.751 48.0111 109.585 44.6922C109.93 44.2889 110.47 44.0533 111.027 43.6644C111.607 42.51 112.274 41.1867 113.053 39.6356C112.213 39.8656 111.434 39.9133 110.848 40.2733C109.477 41.1189 108.07 41.9778 106.905 43.0733C102.623 47.1033 99.2185 51.8356 96.3029 56.9222C95.1074 59.0089 93.6263 60.8078 91.2585 61.5256C88.9896 62.2133 89.2174 62.2156 88.0829 60.2589C87.9596 60.0456 87.834 59.8333 87.6052 59.4411C86.9596 60.1356 86.3574 60.7078 85.844 61.35C84.6885 62.7944 83.264 63.7311 81.4352 64.1622C76.7329 65.2711 71.9852 65.2056 67.2141 64.9211C65.9007 64.8422 64.9729 64.2144 64.7785 62.9667C64.5307 61.3833 64.3907 59.75 64.4863 58.1544C64.5929 56.36 65.0118 54.5833 65.3063 52.7322C64.1018 52.3878 63.2263 53.0644 62.384 53.6811C59.4263 55.8478 57.064 58.6156 54.7996 61.4567C53.7407 62.7844 52.4863 63.1567 50.9396 62.6867C47.9363 61.7733 44.9452 60.8189 41.9485 59.8856C40.5407 59.4478 39.1307 59.0189 37.7218 58.5867L37.7129 58.5878ZM79.314 35.6189C79.314 36.0389 79.4374 36.4611 79.2952 36.5911C77.9429 37.8211 76.3552 37.3522 74.7663 37.09C74.8396 37.2244 74.8685 37.3233 74.9318 37.3889C77.5218 40.0911 78.4163 43.2489 77.7329 46.9489C77.4941 48.2422 77.6952 49.6156 77.6952 51.0211C81.2341 50.7589 84.4518 49.9989 87.5763 48.71C87.494 48.2489 87.3529 47.84 87.3607 47.4344C87.3996 45.4356 87.5729 43.4333 87.4952 41.4411C87.4618 40.5956 87.1185 39.62 86.5918 38.9622C84.7396 36.6489 82.2307 35.6144 79.314 35.6189ZM67.4563 50.3922C67.5329 50.2922 67.6085 50.1922 67.6852 50.0922C66.8652 48.2522 66.9585 46.4744 67.7285 44.6322C68.244 43.4 67.694 42.4744 66.4163 42.0678C65.2507 41.6967 64.0818 41.44 62.8152 41.8067C61.8007 42.1011 60.7185 42.1844 59.6607 42.3044C57.2507 42.5767 57.8374 42.4278 58.0185 44.4911C58.1996 46.5544 59.2829 47.3422 60.9896 47.9267C63.1707 48.6744 65.3029 49.5633 67.4563 50.3922ZM74.9429 8.99778C73.5407 9.71555 72.9952 10.6278 73.2518 12.0244C73.6374 14.1244 73.3852 16.1633 72.8485 18.1822C71.3229 23.9267 68.1907 28.2556 62.2618 30.1056C62.034 30.1767 61.7452 30.44 61.7029 30.6567C61.0718 33.8378 58.7452 35.1956 55.9129 35.6189C49.4096 36.59 43.2896 35.2422 37.5596 32.0533C37.3529 31.9389 37.1207 31.87 36.9007 31.7789C36.8418 31.8833 36.7818 31.9889 36.7229 32.0933C37.1829 32.4 37.6174 32.7589 38.1085 33.0033C43.504 35.6989 49.1996 36.9678 55.2296 36.3711C57.6296 36.1333 59.8996 35.3944 61.3729 33.2789C61.944 32.4578 62.1285 31.2867 62.8329 30.6611C63.5885 29.99 64.8285 29.9022 65.7174 29.3389C71.9374 25.3967 74.3796 19.5578 74.0318 12.3867C73.9829 11.3789 73.8974 10.4478 74.8352 9.75778C74.9596 9.66667 74.9018 9.32889 74.9429 8.99778ZM51.2585 44.8878C51.4007 44.1067 51.5285 43.3444 51.6796 42.5867C51.8474 41.7456 51.6018 41.1511 50.7807 40.7867C49.034 40.0122 47.284 39.2422 45.5763 38.39C44.8452 38.0256 44.2496 37.9867 43.7685 38.4333C44.4018 40.4733 45.0174 42.4578 45.6518 44.5033C47.3518 44.62 49.2496 44.75 51.2585 44.8878ZM95.7718 3.14889C96.1118 2.85667 96.294 2.7 96.4752 2.54222C96.164 2.18222 95.8996 1.74889 95.5152 1.50222C95.3829 1.41667 94.9518 1.79444 94.6574 1.96C94.9985 2.32333 95.3396 2.68778 95.7718 3.14889Z" fill="white"/>
<path d="M92.5487 131.419C91.6876 131.419 90.912 131.399 90.1387 131.426C89.532 131.447 89.2154 131.248 89.2876 130.589C89.3231 130.269 89.2131 129.913 89.3154 129.626C89.4076 129.367 89.6943 128.994 89.9054 128.988C91.622 128.936 93.3398 128.966 95.0576 128.956C95.8454 128.951 95.7265 129.498 95.6909 129.972C95.3887 134.004 91.6898 136.544 87.6765 135.481C84.2809 134.582 82.1954 131.187 82.9387 127.768C83.6687 124.403 86.9498 122.219 90.3987 122.734C92.1343 122.994 93.6076 123.667 94.8543 125.101C94.242 125.646 93.6509 126.171 92.982 126.766C91.7765 125.508 90.2231 124.931 88.4031 125.323C87.3043 125.56 86.4754 126.224 85.9087 127.192C84.7709 129.134 85.5565 131.722 87.6187 132.746C89.4365 133.648 92.0931 133.133 92.5476 131.42L92.5487 131.419Z" fill="white"/>
<path d="M13.7254 129.019C14.1509 131.97 12.1876 134.808 9.30203 135.519C5.92314 136.352 2.55314 134.639 1.38537 131.495C0.207588 128.323 1.5287 124.87 4.4887 123.381C7.34537 121.946 11.412 122.787 12.9465 125.181C12.4054 125.708 11.8531 126.245 11.3076 126.777C7.89981 124.645 5.41648 124.789 4.05537 127.178C2.93648 129.141 3.68425 131.563 5.69314 132.69C7.18648 133.528 10.0909 133.367 10.7798 131.387H7.53981V129.018L13.7254 129.019Z" fill="white"/>
<path d="M99.1652 129.123C99.1919 125.528 102.105 122.646 105.68 122.678C109.229 122.71 112.065 125.649 112.053 129.28C112.041 132.877 109.117 135.758 105.53 135.71C101.922 135.661 99.1386 132.781 99.1652 129.123ZM101.757 129.238C101.767 131.518 103.413 133.189 105.641 133.181C107.805 133.173 109.491 131.401 109.471 129.153C109.451 126.921 107.735 125.202 105.543 125.217C103.319 125.231 101.747 126.901 101.757 129.238Z" fill="white"/>
<path d="M53.0307 135.373C52.3296 135.373 51.5896 135.436 50.8707 135.338C50.6418 135.307 50.3973 134.88 50.2851 134.587C49.6351 132.896 49.6485 132.89 47.8529 132.888C47.6585 132.888 47.4596 132.912 47.2696 132.883C45.6296 132.636 44.3507 132.93 44.0385 134.876C44.0062 135.078 43.6018 135.337 43.3485 135.364C42.7118 135.434 42.0618 135.388 41.2451 135.388C41.5129 134.628 41.7251 133.971 41.9729 133.329C43.2085 130.126 44.4685 126.93 45.6818 123.718C45.8918 123.162 46.1896 122.893 46.7507 123.018C47.3918 123.16 48.2973 122.539 48.6573 123.454C50.174 127.31 51.6285 131.191 53.1007 135.066C53.1196 135.114 53.0751 135.187 53.0318 135.374L53.0307 135.373ZM47.254 126.702C46.7251 128.042 46.2951 129.132 45.8262 130.319H48.6373C48.1851 129.134 47.7718 128.057 47.254 126.702Z" fill="white"/>
<path d="M28.8596 135.386C28.0129 135.386 27.2985 135.46 26.6152 135.349C26.3496 135.306 26.0629 134.88 25.9363 134.568C25.2596 132.89 25.2763 132.883 23.4852 132.889C23.2263 132.889 22.9596 132.927 22.7085 132.883C21.1185 132.609 20.0352 133.059 19.7207 134.805C19.6796 135.035 19.2596 135.325 18.9852 135.36C18.353 135.442 17.7018 135.387 16.9141 135.387C17.0407 134.979 17.1152 134.679 17.2252 134.392C18.5785 130.889 19.9552 127.395 21.2774 123.88C21.5196 123.237 21.8041 122.975 22.5196 122.991C24.1263 123.029 24.1296 122.985 24.7396 124.56C25.9996 127.821 27.2585 131.082 28.5141 134.346C28.6263 134.637 28.7129 134.938 28.8618 135.387L28.8596 135.386ZM21.4963 130.299H24.3063C23.8296 129.103 23.4007 128.027 22.8863 126.738C22.3663 128.071 21.9407 129.162 21.4963 130.299Z" fill="white"/>
<path d="M67.5942 135.386C68.1309 133.958 68.6076 132.663 69.1053 131.377C70.0842 128.841 71.0987 126.319 72.0431 123.771C72.2653 123.172 72.5665 122.993 73.1709 122.993C74.8765 122.993 74.8853 122.968 75.4976 124.56C76.7631 127.85 78.0198 131.145 79.2765 134.439C79.3776 134.705 79.4476 134.982 79.572 135.383C78.7698 135.383 78.0565 135.457 77.3731 135.348C77.1009 135.305 76.8042 134.897 76.672 134.589C75.9453 132.9 75.9609 132.893 74.1587 132.893C73.6076 132.893 73.0453 132.966 72.5087 132.878C71.5309 132.719 70.9631 133.068 70.7865 134.038C70.5809 135.165 69.9276 135.599 68.802 135.396C68.4642 135.335 68.1065 135.387 67.5965 135.387L67.5942 135.386ZM72.2109 130.312H75.0365C74.5576 129.1 74.1209 127.993 73.622 126.73C73.1265 127.988 72.6898 129.093 72.2109 130.312Z" fill="white"/>
<path d="M115.149 132.822C115.791 132.437 116.448 132.044 117.126 131.637C117.526 132.081 117.838 132.546 118.259 132.869C118.886 133.351 119.611 133.404 120.181 132.776C120.771 132.126 120.339 131.568 119.844 131.108C118.873 130.206 117.828 129.379 116.896 128.437C115.425 126.949 115.276 125.282 116.393 123.917C117.512 122.548 119.642 122.26 121.238 123.32C121.813 123.702 122.298 124.221 122.899 124.744C122.206 125.361 121.635 125.871 121.019 126.421C120.636 126.084 120.325 125.62 119.913 125.5C119.432 125.359 118.864 125.519 118.333 125.548C118.489 125.957 118.538 126.471 118.82 126.754C119.935 127.876 121.25 128.818 122.255 130.023C123.826 131.906 122.916 134.701 120.619 135.48C118.328 136.257 116.106 135.207 115.146 132.822H115.149Z" fill="white"/>
<path d="M57.0254 123.065C58.4954 123.065 59.8598 122.98 61.2087 123.085C63.2943 123.248 64.4365 124.609 64.4265 126.727C64.4165 128.608 63.1321 129.965 61.1709 130.169C60.6598 130.222 60.1487 130.277 59.5165 130.344C59.5165 131.685 59.4665 133.007 59.5343 134.322C59.5787 135.179 59.3198 135.518 58.4476 135.391C58.0087 135.328 57.5532 135.38 57.0265 135.38L57.0254 123.065ZM59.6021 125.544V127.668C61.2887 127.797 61.9098 127.524 61.9232 126.692C61.9365 125.788 61.311 125.465 59.6021 125.544Z" fill="white"/>
<path d="M35.19 132.95H38.4833V135.307H32.6533V123.013C33.34 123.013 34.0178 122.944 34.6678 123.052C34.8789 123.087 35.1567 123.58 35.1611 123.867C35.2011 126.523 35.1878 129.181 35.19 131.839C35.19 132.159 35.19 132.478 35.19 132.95Z" fill="white"/>
<path d="M59.2521 103.178C61.1477 105.328 63.0443 107.478 65.1254 109.839V103.321H66.3077V112.663C66.2188 112.72 66.131 112.777 66.0421 112.832C64.1443 110.68 62.2477 108.528 60.1843 106.188V112.565C58.9499 112.861 58.8799 112.812 58.8799 111.737C58.8799 109.239 58.8799 106.74 58.8854 104.242C58.8854 103.957 58.9132 103.671 58.9277 103.386C59.0354 103.316 59.1432 103.248 59.2521 103.178Z" fill="white"/>
<path d="M31.4918 112.108C29.0341 113.26 27.3263 113.043 26.1552 111.5C25.0718 110.072 25.1196 108.063 26.2674 106.743C27.5463 105.273 29.2929 105.104 31.0441 106.078C31.7029 105.852 32.1285 105.707 32.7041 105.51V114.999C31.5752 115.281 31.5018 115.23 31.4929 114.153C31.4874 113.488 31.4929 112.822 31.4929 112.107L31.4918 112.108ZM26.6363 109.23C26.6474 110.571 27.7696 111.698 29.1118 111.716C30.4463 111.733 31.5507 110.62 31.5685 109.238C31.5863 107.819 30.4641 106.699 29.0541 106.728C27.6563 106.757 26.6252 107.824 26.6363 109.23Z" fill="white"/>
<path d="M75.5943 150C74.9721 149.732 74.5965 149.572 74.051 149.338C72.2576 150.347 70.591 150.174 69.3699 148.68C68.2665 147.33 68.3143 145.361 69.4821 144.044C70.7032 142.667 72.4276 142.544 74.3865 143.757V140.732C75.0221 140.576 75.5876 140.397 75.591 141.3C75.6021 144.082 75.5943 146.864 75.5943 150ZM72.1376 144.103C70.8054 144.1 69.8265 145.086 69.8199 146.436C69.8132 147.76 70.8343 148.829 72.1021 148.826C73.4054 148.822 74.431 147.792 74.4443 146.474C74.4565 145.168 73.4243 144.107 72.1376 144.103Z" fill="white"/>
<path d="M51.4244 109.449H45.4978C45.6144 110.597 46.1311 111.264 47.0756 111.592C48.0589 111.933 49.1389 111.569 49.8667 110.727C50.0511 110.512 50.3433 110.22 50.5633 110.239C51.2589 110.299 51.3433 110.828 50.8089 111.524C49.8289 112.803 47.7422 113.275 46.2244 112.563C44.7678 111.879 43.9056 110.044 44.2667 108.395C44.6978 106.424 46.4567 105.219 48.4689 105.514C50.3067 105.784 51.5544 107.384 51.4244 109.449ZM49.9767 108.247C49.6411 107.227 48.9056 106.717 47.8411 106.702C46.7956 106.688 46.1067 107.184 45.7556 108.247H49.9767Z" fill="white"/>
<path d="M116.384 106.134C116.986 105.878 117.39 105.704 118.047 105.423C118.047 106.66 118.049 107.644 118.047 108.629C118.045 109.698 118.073 110.768 118.016 111.833C118 112.14 117.769 112.656 117.581 112.681C117.276 112.723 116.926 112.441 116.424 112.221C114.604 113.277 112.775 113.111 111.505 111.613C110.35 110.25 110.353 108.161 111.512 106.789C112.797 105.267 114.553 105.078 116.383 106.133L116.384 106.134ZM111.909 109.209C111.912 110.577 113.005 111.701 114.352 111.72C115.713 111.74 116.889 110.539 116.856 109.16C116.824 107.77 115.726 106.702 114.351 106.724C112.947 106.747 111.905 107.808 111.909 109.209Z" fill="white"/>
<path d="M74.8442 112.184C72.9998 113.281 71.0709 113.104 69.852 111.572C68.6853 110.106 68.7398 108.026 69.9809 106.673C71.312 105.223 73.2164 105.097 75.1231 106.383C75.1342 105.47 75.7009 105.598 76.4553 105.783C76.4553 106.622 76.4553 107.509 76.4553 108.397C76.4553 109.529 76.492 110.663 76.4331 111.793C76.4164 112.118 76.1887 112.591 75.9353 112.692C75.7198 112.779 75.3309 112.429 74.8442 112.184ZM75.2375 109.26C75.2475 107.81 74.1742 106.72 72.742 106.727C71.382 106.733 70.2631 107.851 70.2664 109.201C70.2687 110.568 71.4598 111.731 72.8398 111.717C74.1242 111.703 75.2287 110.571 75.2375 109.26Z" fill="white"/>
<path d="M17.9256 105.487C17.9256 107.941 17.9378 110.008 17.9078 112.076C17.9045 112.291 17.6378 112.691 17.52 112.681C17.1689 112.652 16.8311 112.462 16.2756 112.257C14.3145 113.294 12.5789 113.096 11.3245 111.52C10.2378 110.156 10.2756 108.064 11.41 106.771C12.7345 105.262 14.5222 105.081 16.2867 106.15C16.8456 105.923 17.2923 105.743 17.9256 105.487ZM16.7011 109.286C16.7189 107.822 15.7478 106.759 14.3622 106.726C12.93 106.69 11.8523 107.686 11.8178 109.077C11.7811 110.517 12.8478 111.693 14.2167 111.724C15.5711 111.754 16.6845 110.661 16.7011 109.286Z" fill="white"/>
<path d="M39.8233 144.346V145.559C38.7444 145.559 37.7144 145.589 36.6878 145.548C36.0667 145.523 35.7922 145.699 35.8378 146.363C35.8867 147.068 35.8489 147.778 35.8489 148.573H39.8122C39.8367 148.988 39.8567 149.319 39.88 149.726H34.6811C34.6589 149.236 34.6211 148.761 34.62 148.287C34.6133 146.113 34.6444 143.94 34.6022 141.767C34.5867 140.993 34.8456 140.741 35.61 140.781C36.71 140.839 37.8167 140.839 38.9167 140.783C39.83 140.737 40.0867 141.097 39.7978 142.037C38.7633 142.037 37.6989 142.094 36.6444 142.019C35.7267 141.953 35.81 142.521 35.86 143.071C35.9078 143.601 35.5222 144.402 36.6244 144.356C37.6544 144.312 38.6889 144.347 39.8222 144.347L39.8233 144.346Z" fill="white"/>
<path d="M2.23 103.16C3.79555 103.288 5.27777 103.289 6.70777 103.564C7.77 103.769 8.35444 104.922 8.28555 106.062C8.21777 107.188 7.50333 108.103 6.36666 108.322C5.48666 108.492 4.57666 108.506 3.56222 108.6V112.558C2.32222 112.869 2.23444 112.816 2.23222 111.76C2.22666 108.982 2.23 106.206 2.23 103.16ZM3.59 107.309C4.45777 107.24 5.29888 107.317 6.02111 107.06C6.42111 106.918 6.85222 106.213 6.84333 105.771C6.83666 105.383 6.29333 104.778 5.88444 104.674C5.17 104.493 4.37777 104.624 3.59 104.624V107.309Z" fill="white"/>
<path d="M64.581 143.486C65.2199 143.272 65.6099 143.141 66.1288 142.968V149.899C65.611 149.728 65.201 149.592 64.5977 149.392C62.6744 150.328 61.0666 150.106 59.9232 148.587C58.9277 147.262 58.9921 145.372 60.0766 144.103C61.2599 142.718 62.911 142.546 64.5799 143.487L64.581 143.486ZM62.7766 148.821C64.0777 148.802 65.0766 147.757 65.0588 146.432C65.041 145.092 64.0366 144.088 62.731 144.103C61.4044 144.119 60.451 145.116 60.4644 146.473C60.4777 147.806 61.4955 148.84 62.7755 148.822L62.7766 148.821Z" fill="white"/>
<path d="M95.8752 105.487C97.9719 105.517 99.5363 107.131 99.5074 109.237C99.4785 111.342 97.8663 112.932 95.783 112.91C93.7052 112.888 92.1274 111.253 92.1496 109.147C92.1719 107.042 93.7852 105.457 95.8752 105.487ZM95.8796 106.728C94.5174 106.708 93.4374 107.778 93.4108 109.172C93.3852 110.57 94.4208 111.681 95.7852 111.718C97.1541 111.755 98.2208 110.691 98.2396 109.271C98.2585 107.843 97.2419 106.748 95.8796 106.728Z" fill="white"/>
<path d="M77.9731 146.445C77.9709 144.47 79.4865 142.921 81.4387 142.901C83.3987 142.882 85.0131 144.514 84.982 146.487C84.952 148.42 83.3509 150.003 81.442 149.988C79.4809 149.972 77.9754 148.435 77.9731 146.445ZM81.4598 148.827C82.7687 148.821 83.7643 147.794 83.7554 146.458C83.7476 145.203 82.7243 144.138 81.5109 144.121C80.2187 144.103 79.192 145.134 79.192 146.452C79.192 147.824 80.1543 148.832 81.4598 148.827Z" fill="white"/>
<path d="M103.255 112.596C102.378 112.889 101.962 112.748 101.983 111.782C102.027 109.807 101.997 107.829 101.997 105.829C102.61 105.589 103.144 105.412 103.358 106.297C103.621 106.137 103.861 105.974 104.115 105.841C105.905 104.903 107.83 105.756 108.097 107.744C108.294 109.212 108.239 110.721 108.208 112.21C108.191 113.029 107.553 112.658 106.963 112.676C106.963 111.372 106.971 110.121 106.961 108.87C106.949 107.344 106.523 106.727 105.479 106.681C104.303 106.629 103.414 107.499 103.321 108.821C103.275 109.468 103.268 110.117 103.257 110.766C103.247 111.376 103.255 111.986 103.255 112.596Z" fill="white"/>
<path d="M86.1277 107.304C85.8188 107.501 85.5566 107.669 85.3888 107.775C84.7399 107.403 84.2232 106.978 83.631 106.793C82.3343 106.39 81.011 106.959 80.4555 108.032C79.9243 109.06 80.1943 110.349 81.1032 111.119C82.0499 111.92 83.4655 111.962 84.5121 111.124C85.0977 110.655 85.5666 110.403 86.0721 111.161C85.2955 112.567 83.4943 113.232 81.6921 112.779C80.051 112.365 78.9155 110.914 78.9121 109.227C78.9088 107.502 80.0343 106.074 81.7566 105.62C83.5043 105.158 85.2988 105.81 86.1288 107.305L86.1277 107.304Z" fill="white"/>
<path d="M35.4141 105.797C36.4952 105.47 36.7685 105.83 36.7307 106.692C36.6841 107.758 36.7163 108.83 36.7552 109.897C36.7963 111.022 37.4029 111.59 38.5363 111.631C39.6829 111.672 40.3729 111.161 40.4329 110.031C40.5085 108.617 40.4507 107.194 40.4507 105.713C40.9118 105.688 41.253 105.67 41.8807 105.635C41.7441 107.507 41.7396 109.31 41.4396 111.062C41.2318 112.274 39.9129 112.962 38.5752 112.913C36.9963 112.854 35.8907 112.185 35.6974 110.824C35.4629 109.173 35.4963 107.484 35.4141 105.797Z" fill="white"/>
<path d="M50.833 143.139H52.1508C52.1508 144.403 52.1363 145.653 52.1552 146.903C52.1741 148.129 52.7708 148.747 53.9008 148.765C54.9208 148.781 55.5763 148.231 55.6308 147.212C55.6875 146.147 55.6563 145.077 55.673 144.009C55.6886 143.031 55.6941 143.031 56.9663 143.213C56.8819 144.79 56.9219 146.408 56.673 147.981C56.4563 149.353 55.2752 150.033 53.7619 149.985C52.3274 149.938 51.2863 149.185 51.103 147.795C50.9052 146.301 50.9197 144.779 50.8341 143.141L50.833 143.139Z" fill="white"/>
<path d="M48.6178 144.595C48.1634 145.202 47.7722 145.122 47.2089 144.635C46.0511 143.637 44.2511 143.899 43.4367 145.09C42.67 146.212 43.0645 147.91 44.2967 148.515C45.2922 149.004 46.3345 149.024 47.1989 148.231C47.7556 147.72 48.17 147.71 48.6134 148.301C47.91 149.669 46.2945 150.278 44.52 149.843C42.8556 149.437 41.7611 148.044 41.8045 146.393C41.8489 144.722 43.0278 143.349 44.7334 142.981C46.3422 142.633 48.0178 143.33 48.6178 144.595Z" fill="white"/>
<path d="M20.3988 105.52C21.0011 105.69 21.4077 105.805 21.9544 105.96C22.4788 105.513 23.2211 105.249 24.1122 105.784C23.9755 106.387 23.8077 106.768 23.0544 106.764C22.1766 106.76 21.8688 107.51 21.7988 108.241C21.6844 109.431 21.6688 110.631 21.6333 111.828C21.62 112.281 21.7533 112.759 21.0155 112.753C20.3611 112.748 20.3988 112.329 20.3988 111.898C20.3988 109.862 20.3988 107.825 20.3988 105.52Z" fill="white"/>
<path d="M120.788 103.024C121.226 103.043 121.539 103.058 121.996 103.078C121.996 103.971 121.996 104.806 121.996 105.64C121.996 107.682 121.952 109.726 122.01 111.766C122.038 112.736 121.642 112.882 120.787 112.63L120.788 103.024Z" fill="white"/>
<path d="M88.1875 149.733H86.9797C86.9797 147.627 86.9653 145.57 87.0108 143.514C87.0142 143.368 87.5764 143.05 87.6786 143.118C88.263 143.499 88.7064 143.13 89.2253 142.997C89.6175 142.897 90.0719 143.037 90.4986 143.07C90.543 143.171 90.5875 143.273 90.6319 143.374C90.3353 143.632 90.0453 144.1 89.7419 144.108C88.8142 144.132 88.4419 144.688 88.3475 145.427C88.2175 146.445 88.2286 147.482 88.1897 148.511C88.1753 148.892 88.1875 149.274 88.1875 149.733Z" fill="white"/>
<path d="M88.5466 105.726H89.8199C89.8199 107.408 89.8199 109.079 89.8199 110.749C89.8199 111.233 89.8899 111.73 89.8033 112.199C89.7644 112.41 89.4244 112.704 89.2188 112.708C88.9966 112.711 88.5788 112.42 88.5755 112.25C88.531 110.094 88.5466 107.937 88.5466 105.726Z" fill="white"/>
<path d="M50.5475 119.468C49.2931 120.316 48.8997 122.397 46.5786 121.973C47.1253 121.067 47.4664 120.076 48.1542 119.501C48.6653 119.073 49.6275 119.186 50.3886 119.058C50.4419 119.195 50.4942 119.331 50.5475 119.468Z" fill="white"/>
<path d="M88.9877 104.792C88.7566 104.448 88.3344 104.094 88.3511 103.761C88.3655 103.459 88.8922 102.919 89.1299 102.951C89.4822 102.999 89.9744 103.421 90.0388 103.754C90.0955 104.048 89.6466 104.439 89.4211 104.788C89.2766 104.789 89.1322 104.79 88.9877 104.791V104.792Z" fill="white"/>
<path d="M22.7788 68.7411C22.5166 68.8934 22.2677 69.1411 21.991 69.1778C21.3977 69.2567 20.4988 68.4845 20.5899 67.9689C20.6288 67.7445 21.0666 67.3689 21.1777 67.4156C21.7521 67.6534 22.2799 68.0056 22.8233 68.3178L22.7788 68.7411Z" fill="white"/>
</svg>
