<?xml version="1.0" encoding="utf-8"?>
<!-- Generator: Adobe Illustrator 25.4.1, SVG Export Plug-In . SVG Version: 6.00 Build 0)  -->
<svg version="1.1" id="Capa_1" xmlns="http://www.w3.org/2000/svg" xmlns:xlink="http://www.w3.org/1999/xlink" x="0px" y="0px"
	 viewBox="0 0 1080 1350" style="enable-background:new 0 0 1080 1350;" xml:space="preserve">
<style type="text/css">
	.st0{fill:none;stroke:#D9D3D7;stroke-width:4.0077;stroke-miterlimit:10;}
	.st1{fill:#00143A;}
	.st2{fill:#FF4F19;}
	.st3{fill:#FFFFFF;}
	.st4{fill:#D9D3D7;}
	.st5{fill:#00347B;}
	.st6{fill:#FFD600;}
	.st7{fill:#4BBAED;}
	.st8{fill:#7ED8F6;}
	.st9{opacity:0.5;fill:#00347B;}
	.st10{fill:#CBEFFC;}
	.st11{fill:#89909B;}
	.st12{clip-path:url(#XMLID_00000155861772845768828270000011078286895237235363_);fill:#7ED8F6;}
	.st13{clip-path:url(#XMLID_00000090273490326007742430000010783713577248192406_);fill:#7ED8F6;}
	.st14{clip-path:url(#XMLID_00000052071446267158539350000003823576460782899610_);fill:#7ED8F6;}
</style>
<g>
	<path class="st0" d="M392.6,642c22.1,22.1,22.2,57.9,0,80l-43.7,43.7c-22.1,22.1-57.7,22-79.9-0.2l-43.7-43.7
		c-22.1-22.1-22.1-57.5,0-79.7l43.7-43.7c22.1-22.1,57.7-22.3,79.8-0.2L392.6,642z"/>
	<g>
		<path class="st1" d="M265.4,630.4c2,2,2,5.2,0,7.2l-0.2,0.2c-2,2-5.2,2-7.2,0l-17.8-17.8c-2-2-2-5.2,0-7.2l0.2-0.2
			c2-2,5.2-2,7.2,0L265.4,630.4z"/>
		<path class="st1" d="M264.8,725.1c2,2,2,5.2,0,7.2L247.1,750c-2,2-5.2,2-7.2,0l-0.2-0.2c-2-2-2-5.2,0-7.2l17.8-17.8
			c2-2,5.2-2,7.2,0L264.8,725.1z"/>
		<path class="st1" d="M377,743.2c2,2,2,5.2,0,7.2l-0.2,0.2c-2,2-5.2,2-7.2,0l-17.8-17.8c-2-2-2-5.2,0-7.2l0.2-0.2c2-2,5.2-2,7.2,0
			L377,743.2z"/>
		<path class="st1" d="M377.6,613.4c2,2,2,5.2,0,7.2l-17.8,17.8c-2,2-5.2,2-7.2,0l-0.2-0.2c-2-2-2-5.2,0-7.2l17.8-17.8
			c2-2,5.2-2,7.2,0L377.6,613.4z"/>
	</g>
	
		<ellipse transform="matrix(0.2442 -0.9697 0.9697 0.2442 -427.7792 814.9567)" class="st2" cx="308.9" cy="681.9" rx="88.5" ry="88.5"/>
	<path class="st3" d="M357.8,681.9c0,27-21.9,48.9-48.9,48.9c-27,0-48.9-21.9-48.9-48.9c0-27,21.9-48.9,48.9-48.9
		C336,633,357.8,654.9,357.8,681.9z"/>
	<polygon class="st4" points="318.4,635.5 299.5,635.5 296.4,591.5 321.5,591.5 	"/>
	<polygon class="st4" points="262.5,673.3 262.5,692.2 219.2,694.5 219.2,669.3 	"/>
	<polygon class="st4" points="299.5,729.3 318.4,729.3 321.5,773.4 296.4,773.4 	"/>
	<polygon class="st4" points="356.3,691.3 356.3,672.5 401.1,669.3 401.1,694.5 	"/>
	<path class="st5" d="M367.2,681.9c0,32.1-26.1,58.2-58.2,58.2c-32.1,0-58.2-26.1-58.2-58.2c0-32.1,26.1-58.2,58.2-58.2
		C341.1,623.7,367.2,649.8,367.2,681.9z"/>
</g>
<g>
	<path class="st5" d="M799.1,399.3L799.1,399.3c-8.2-1.8-29.7,8.9-63.1,8.9c-33.4,0-54.9-10.8-63.1-9v0l-9.3,43l72.6,68.2l72.3-68.2
		L799.1,399.3z"/>
	<path class="st6" d="M834.5,486.5c0-32.6-1-75.8-1-75.8c-17.1-6.7-33.7-11.4-33.7-11.4s-25.4,97-63.8,97c-38.4,0-63.8-97-63.8-97
		s-16.6,4.8-33.7,11.4c0,0-1,43.3-1,75.8s-29.5,65.8-29.5,65.8s3.8,85.6,10.4,137.9H736h117.6c6.7-52.3,10.4-137.9,10.4-137.9
		S834.5,519.1,834.5,486.5z"/>
	<path class="st1" d="M745.1,494.4c-3,1.2-6,1.8-9.1,1.8c-2.5,0-4.9-0.4-7.3-1.2v195.1h16.5V494.4z"/>
	<path class="st7" d="M649.8,478.6c15.8-5.8,32.6-9.5,49.2-12.9c-16.9-28.4-26.8-66.4-26.8-66.4s-16.6,4.8-33.7,11.4
		c0,0-1,40.8-1,73C641.4,481.8,645.5,480.2,649.8,478.6z"/>
	<path class="st7" d="M822.2,478.6c-15.8-5.8-32.6-9.5-49.2-12.9c16.9-28.4,26.8-66.4,26.8-66.4s16.6,4.8,33.7,11.4c0,0,1,40.8,1,73
		C830.6,481.8,826.5,480.2,822.2,478.6z"/>
	<g>
		<polygon class="st5" points="860.9,602.4 609.7,602.4 608.4,581.8 862.2,581.8 		"/>
		<rect x="628.9" y="581.8" class="st7" width="212.7" height="20.6"/>
		<rect x="666" y="581.8" class="st8" width="140" height="20.6"/>
		<rect x="711.3" y="581.8" class="st5" width="49.4" height="20.6"/>
	</g>
	<g>
		<polygon class="st5" points="858.1,649 612.5,649 609.7,628.5 860.9,628.5 		"/>
		<rect x="630.3" y="628.5" class="st7" width="210" height="20.6"/>
		<rect x="667.4" y="628.5" class="st8" width="137.2" height="20.6"/>
		<rect x="711.3" y="628.5" class="st5" width="49.4" height="20.6"/>
	</g>
	<rect x="715.4" y="421.2" class="st1" width="42.5" height="13.7"/>
</g>
<g>
	<path class="st1" d="M191.8,441.2c0,0-20.1,4.4-23.6,10.5c-3.5,6.1-10.5,56.8,9.6,87.4l27.1,6.5l-13.1-106.1"/>
	<path class="st1" d="M467.6,441.2c0,0,20.1,4.4,23.6,10.5c3.5,6.1,10.5,56.8-9.6,87.4l-27.1,6.5l13.1-106.1"/>
	<path class="st7" d="M329,497.2l-105.8,65.8c13.5,6,37.6,12.9,73.3,0.1c17.3-6.2,19.8-11.5,32.5-15.8c12.7,4.3,15.2,9.6,32.5,15.8
		c35.7,12.7,59.7,5.8,73.3-0.1L329,497.2z"/>
	<path class="st9" d="M329,482.4l-97.9,60.9c12.5,5.5,34.8,11.9,67.8,0.1c16-5.7,15.3-14.6,30.1-14.6c14.7,0,14.1,8.9,30.1,14.6
		c33,11.8,55.3,5.4,67.8-0.1L329,482.4z"/>
	<path class="st7" d="M330.6,389.4c-101.4,0-132.2,46.4-132.2,46.4v5h264.3v-5C462.8,435.7,432,389.4,330.6,389.4z"/>
	<path class="st1" d="M485.7,476.5c-4.1-50.5-50.6-69.7-89.2-70.8c-1.3,0-2.6-0.1-3.9-0.1c-14.4,0-46.5,3-61.9,28.4
		c-15.4-25.4-47.5-28.4-61.9-28.4c-1.3,0-2.6,0-3.9,0.1c-38.6,1.1-85.1,20.3-89.2,70.8c-2.2,27,6.6,54.7,22.8,72.4
		c11.7,12.7,26.6,19.5,43,19.5c14.3,0,29.2-5.2,44.2-15.4c20.4-13.9,36.1-33,44.9-52.9c8.9,19.9,24.5,39,44.9,52.9
		c15,10.2,29.9,15.4,44.2,15.4c16.4,0,31.2-6.7,43-19.5C479.1,531.3,487.9,503.5,485.7,476.5z"/>
	<path class="st10" d="M265.5,423.2c-25.6,0.7-68.7,11.7-72.2,54.8c-3.5,43.1,28,97.9,82.7,60.6
		C330.8,501.2,345.9,420.8,265.5,423.2z"/>
	<path class="st10" d="M396,423.2c25.6,0.7,68.7,11.7,72.2,54.8c3.5,43.1-28,97.9-82.7,60.6C330.8,501.2,315.6,420.8,396,423.2z"/>
	<path class="st7" d="M208.5,490.8c0-20.6,5.4-40.1,14.7-57.3c-15.4,8.1-28.1,21.8-30,44.4c-2.1,25.8,8.3,55.7,28.7,67.7
		C213.4,529.1,208.5,510.4,208.5,490.8z"/>
	<path class="st7" d="M468.3,477.9c-2-24.2-16.4-38.3-33.3-46.1c9.9,17.5,15.7,37.6,15.7,58.9c0,20.3-5.2,39.6-14.4,56.5
		C458.8,536.7,470.4,505,468.3,477.9z"/>
</g>
<g>
	<path class="st11" d="M874,804c0,16.1-13,29.1-29.1,29.1h-53.2c-16.1,0-29.1-13-29.1-29.1v-0.6c0-16.1,13-29.1,29.1-29.1h53.2
		c16.1,0,29.1,13,29.1,29.1V804z"/>
	<g>
		<defs>
			<path id="XMLID_00000052826735186640368320000010767886012979295643_" d="M624.5,803.4c0,14.7-7.6,15.8-7.6,52.5
				c110.1,0,202-23.1,202-23.1v-29.4V774c0,0-91.9-23.1-202-23.1C616.9,787.6,624.5,788.7,624.5,803.4z"/>
		</defs>
		<use xlink:href="#XMLID_00000052826735186640368320000010767886012979295643_"  style="overflow:visible;fill:#4BBAED;"/>
		<clipPath id="XMLID_00000108281862487950739180000006312081977343654070_">
			<use xlink:href="#XMLID_00000052826735186640368320000010767886012979295643_"  style="overflow:visible;"/>
		</clipPath>
		<path style="clip-path:url(#XMLID_00000108281862487950739180000006312081977343654070_);fill:#7ED8F6;" d="M787.8,803.3
			c0,20.2-6,39.3-16.2,55.4c2.8,0.4,5.7,0.7,8.7,0.7c31.9,0,57.8-25.9,57.8-57.8c0-31.9-25.9-57.8-57.8-57.8c-3.6,0-7.2,0.4-10.6,1
			C781,761.7,787.8,781.8,787.8,803.3z"/>
		<path style="clip-path:url(#XMLID_00000108281862487950739180000006312081977343654070_);fill:#7ED8F6;" d="M613.8,776.2v27.2
			v27.2c40-43.3,175.6-16.9,175.6-8.6l10.9-18.6l-10.9-18.6C789.4,793.1,653.8,819.5,613.8,776.2z"/>
	</g>
	<g>
		<path class="st3" d="M808.3,782.8c-30.2,0.4-54.4,9.4-54.4,20.7c0,11.4,24.5,20.6,55,20.8c0.2,0,0.5,0,0.7,0h33.8
			c11.5,0,21.8-9.3,21.8-20.8v-0.3c0-11.5-10.3-20.2-21.8-20.2h-33.8C809.2,783,808.8,782.7,808.3,782.8z"/>
		<path class="st1" d="M819,824.2v-41.6h-10c-0.5,0-0.9-0.1-1.4,0c-30.2,0.4-54.4,9.6-54.4,20.9c0,11.4,24.5,20.5,55,20.8
			c0.2,0,0.5,0,0.7,0H819z"/>
	</g>
</g>
<g>
	<path class="st11" d="M727.6,907.2c0-16.1-13-29.1-29.1-29.1h-53.2c-16.1,0-29.1,13-29.1,29.1v0.6c0,16.1,13,29.1,29.1,29.1h53.2
		c16.1,0,29.1-13,29.1-29.1V907.2z"/>
	<g>
		<defs>
			<path id="XMLID_00000066491670993557352450000009090538638075887492_" d="M866.8,907.2c0,14.7,7.1,15.8,7.1,52.5
				c-110.1,0-202.5-23.1-202.5-23.1v-29.4v-29.4c0,0,92.4-23.1,202.5-23.1C873.8,891.4,866.8,892.5,866.8,907.2z"/>
		</defs>
		<use xlink:href="#XMLID_00000066491670993557352450000009090538638075887492_"  style="overflow:visible;fill:#4BBAED;"/>
		<clipPath id="XMLID_00000016054108806038005760000014760095200642348932_">
			<use xlink:href="#XMLID_00000066491670993557352450000009090538638075887492_"  style="overflow:visible;"/>
		</clipPath>
		<path style="clip-path:url(#XMLID_00000016054108806038005760000014760095200642348932_);fill:#7ED8F6;" d="M703.3,907.2
			c0,20.2,6,39.3,16.2,55.4c-2.8,0.4-5.7,0.7-8.7,0.7c-31.9,0-57.8-25.9-57.8-57.8c0-31.9,25.9-57.8,57.8-57.8c3.6,0,7.2,0.4,10.6,1
			C710,865.5,703.3,885.7,703.3,907.2z"/>
		<path style="clip-path:url(#XMLID_00000016054108806038005760000014760095200642348932_);fill:#7ED8F6;" d="M876.5,880v27.2v27.2
			c-40-43.3-175.1-16.9-175.1-8.6l-10.6-18.6l10.5-18.6C701.3,897,836.5,923.4,876.5,880z"/>
	</g>
	<g>
		<path class="st3" d="M682.9,886.6c30.2,0.4,54.4,9.4,54.4,20.7c0,11.4-24.5,20.6-55,20.8c-0.2,0-0.5,0-0.7,0h-33.8
			c-11.5,0-22.8-9.3-22.8-20.8V907c0-11.5,11.3-20.2,22.8-20.2h33.8C682,886.9,682.5,886.6,682.9,886.6z"/>
		<path class="st1" d="M672,928v-41.6h10c0.5,0,0.9-0.1,1.4,0c30.2,0.4,54.4,9.6,54.4,20.9c0,11.4-24.5,20.5-55,20.8
			c-0.2,0-0.5,0-0.7,0H672z"/>
	</g>
</g>
<g>
	<g>
		<defs>
			<path id="XMLID_3_" d="M474,871c0,22.5-18.3,40.8-40.8,40.8H257.5c-22.5,0-40.8-18.3-40.8-40.8v-0.9c0-22.5,18.3-40.8,40.8-40.8
				h175.7c22.5,0,40.8,18.3,40.8,40.8V871z"/>
		</defs>
		<use xlink:href="#XMLID_3_"  style="overflow:visible;fill:#4BBAED;"/>
		<clipPath id="XMLID_00000008841356953236441520000007351671502955281295_">
			<use xlink:href="#XMLID_3_"  style="overflow:visible;"/>
		</clipPath>
		<path style="clip-path:url(#XMLID_00000008841356953236441520000007351671502955281295_);fill:#7ED8F6;" d="M479.9,910.2v-40.4
			v-40.4c-58.9,64.5-278.6,25.2-278.6,12.7l1.3,27.7l-1.3,27.7C201.2,884.9,420.9,845.7,479.9,910.2z"/>
	</g>
	<path class="st3" d="M440.9,869.7c0,6.7-5.4,12.1-12.1,12.1c-6.7,0-12.1-5.4-12.1-12.1s5.4-12.1,12.1-12.1
		C435.5,857.6,440.9,863,440.9,869.7z"/>
	<path class="st1" d="M222.5,814.9h-42.1v111.6h42.1c30.8,0,55.8-25,55.8-55.8S253.3,814.9,222.5,814.9z"/>
	<rect x="167.5" y="811.6" class="st5" width="37.3" height="119.8"/>
	<g>
		<rect x="173.4" y="819.5" class="st1" width="25.5" height="5.9"/>
		<rect x="173.4" y="829.3" class="st1" width="25.5" height="5.9"/>
		<rect x="173.4" y="841.1" class="st1" width="25.5" height="5.9"/>
		<rect x="173.4" y="850.9" class="st1" width="25.5" height="7.9"/>
		<rect x="173.4" y="862.7" class="st1" width="25.5" height="5.9"/>
		<rect x="173.4" y="874.5" class="st1" width="25.5" height="5.9"/>
		<rect x="173.4" y="884.3" class="st1" width="25.5" height="7.9"/>
		<rect x="173.4" y="896.1" class="st1" width="25.5" height="5.9"/>
		<rect x="173.4" y="907.9" class="st1" width="25.5" height="5.9"/>
		<rect x="173.4" y="917.7" class="st1" width="25.5" height="5.9"/>
	</g>
	<g>
		<path class="st5" d="M391.5,868.7c0,8.6-7,15.6-15.6,15.6h-51.2c-8.6,0-15.6-7-15.6-15.6v-0.2c0-8.6,7-15.6,15.6-15.6h51.2
			c8.6,0,15.6,7,15.6,15.6V868.7z"/>
		<path class="st1" d="M350.8,853.3h-26.6c-8.6,0-15.6,7-15.6,15.6c0,8.6,7,15.6,15.6,15.6h26.6V853.3z"/>
	</g>
</g>
</svg>
