<?xml version="1.0" encoding="utf-8"?>
<!-- Generator: Adobe Illustrator 25.4.1, SVG Export Plug-In . SVG Version: 6.00 Build 0)  -->
<svg version="1.1" id="Capa_1" xmlns="http://www.w3.org/2000/svg" xmlns:xlink="http://www.w3.org/1999/xlink" x="0px" y="0px"
	 viewBox="0 0 1080 1350" style="enable-background:new 0 0 1080 1350;" xml:space="preserve">
<style type="text/css">
	.st0{fill:#FDC59F;}
	.st1{fill:#508EED;}
	.st2{fill:#282828;}
	.st3{fill:#E8AA80;}
	.st4{fill:#00A1B2;}
	.st5{fill:#E8A044;}
	.st6{fill:#7CB2F4;}
	.st7{fill:#FDB855;}
	.st8{fill:#F7D7C0;}
	.st9{fill:#3A80D4;}
	.st10{fill:#FFFFFF;}
	.st11{fill:#F76B7D;}
	.st12{fill:#DE2F45;}
	.st13{fill:#0A7FB5;}
	.st14{fill:#57646F;}
	.st15{fill:#354E5A;}
	.st16{fill:#C9DBE5;}
	.st17{fill:#B9E3FD;}
	.st18{fill:#FC6477;}
	.st19{fill:#F53E4D;}
	.st20{fill:#F37C1E;}
	.st21{fill:#E69B3B;}
	.st22{fill:#F56677;}
	.st23{fill:#FABC6B;}
	.st24{fill:#FDCE90;}
	.st25{fill:#DB3348;}
	.st26{fill:#ED425E;}
	.st27{fill:#A9B8C2;}
	.st28{fill:#F0F0F0;}
	.st29{fill:#D6D6D6;}
</style>
<g>
	<g>
		<path class="st0" d="M578.5,532.1c0,0,4.9-27.4,6.8-38c-1.3-0.5-2.4-1.1-3.4-1.7c-2.4-1.4-4.2-3.2-5.7-5.2
			c-1.9,4-7.6,16.5-12.7,29.2c-6,15.2-9,19.6-9.1,22.3c-0.1,2.7,3.6,10.3,6,11.3s36.8-2.3,37-2.5c0.2-0.3,7.4-2.6,8.4-7
			s-2.1-13.3-2.1-13.3S586.8,528.5,578.5,532.1z"/>
		<g>
			<path class="st1" d="M573.7,460.5c0,0,6.4-13.5,18.9-10.5c12.5,3,23.8,10.5,23.8,10.5s16.5-3,23.8,6.2c0,0,20.5,2.2,26.2,11.5
				c5.6,9.3,4,20.3-19.7,22.6c-23.8,2.2-53.8-1.8-64.7-8.3C571,486.1,571,471.8,573.7,460.5z"/>
			<path class="st2" d="M612.5,470.2c0,0-3.1,2-5.7,10.9s-0.3,18-5.6,24.6c-5.4,6.6-7.8,11.6-6.7,16.9c1.1,5.4,3.1,11,13.3,17.3
				s27.7,2.7,36.9,9.8c9.3,7.1,21.1,10.4,30.1,6.4c9-4,7.8-16.4,5.8-22.6c-2-6.2-9.5-13.8-17.3-16.4s-17.8-10.1-18.6-16.3
				c-0.8-6.1,0.5-18.4-3.8-24.2C640.8,476.8,620.7,478.9,612.5,470.2z"/>
			<path class="st3" d="M592.6,544.9c-3.8,2-15.3,4.5-15.9,3.6c0,0-0.3,0.4-0.6,1c10.1-0.8,21.4-1.9,21.5-2c0.1-0.2,3.3-1.2,5.7-3.2
				c0.2-0.8,0.4-1.6,0.5-2.4c0.5-4.4,0-14.7,0-14.7s-3.3,8.5-3.5,9.1C600.1,536.8,596.4,542.9,592.6,544.9z"/>
			<path class="st0" d="M644,527.8c0,0,3,0.9,6.2,4.8s4.2,19.9,5,29c0.8,9.1,2.6,29.4,2.6,37.9c0,8.5,0.1,13.9-5.2,14.3
				c-5.3,0.4-14.3-16.9-16.5-26.6c-2.2-9.7-3-24.6-3.2-30.2C632.7,551.3,644,527.8,644,527.8z"/>
			<path class="st0" d="M588.4,672c0,2.2-9.9,70.9-9.9,70.9h14.1c0,0,2-9.5,2.6-16.7s4.2-20.5,6.4-30.4c2.2-9.9,5.7-20.7,5.7-25
				c0-4.3,1.2-7.7-1.1-9.7C604.1,659.1,588.4,672,588.4,672z"/>
			<path class="st4" d="M630.3,521.4c0,0,12.2,5.6,13.7,6.4c1.5,0.8-1.6,29.5-0.3,41.4c1.3,11.8,7.4,37.7,7.4,37.7
				s-6.8,35.7-10.3,47.8S620.7,685,620.7,685l1.1-6.7c0,0-25.4-5.4-41-0.3c-15.5,5.1-15.8,0.1-17.2-3.1l3-14.4
				c0,0,13.3-20.5,17-28.8c5-11.1,6.7-18.7,9.7-25.5c3-6.8,6.3-29.9,6-32.8s-4.7-8.3-5.1-15.6c-0.4-7.3,4.5-11.5,6.4-15
				s3.4-11,3.1-15.7c0,0,9.4-4.2,11-5.1S630.3,521.4,630.3,521.4z"/>
			<path class="st5" d="M616.6,599.3c-0.4,2-3.6,16.9-4.8,21.2c-1.2,4.2-1.4,16.1-1.4,16.1l1.8,35.5c0,0,4-23.5,4.4-27.4
				c0.4-3.9-0.8-19.4,0-24.2c0.8-4.8,3.2-25.6,3.2-26.8c0-1.2,0-2.2,0-2.2L616.6,599.3z"/>
			<path class="st6" d="M668.1,481.8c-0.5-1.2-1-2.4-1.8-3.6c-5.6-9.3-26.2-11.5-26.2-11.5c-7.3-9.3-23.8-6.2-23.8-6.2
				s-11.3-7.5-23.8-10.5c-1.3-0.3-2.5-0.4-3.6-0.4c2.6,0.2,9.7,1.5,16.2,11.2c8.2,12.1,11.2,14.6,27.2,15.9
				C648.4,478,663,471.2,668.1,481.8z"/>
			<path class="st1" d="M616.4,460.5c0,0,12.6,6.2,23.8,6.2C632.9,457.4,616.4,460.5,616.4,460.5z"/>
			<path class="st0" d="M614,478.5c-0.3-0.3-2.6,3.4-6.7,6.3c0,0-0.7,21.7,10.3,25.6c11,3.9,19.6-4.8,21.4-20
				C638.9,490.5,623.6,489.7,614,478.5z"/>
			<path class="st0" d="M615.7,505.1c0,0,1.9,11.7-0.9,16.9c0,0-2.1,8.2,2.3,12.2c0,0,9.7-4.9,12.1-8.2c2.4-3.2,1.2-4.7,1.2-4.7
				s0.5-9.8,0.1-17.2C630.1,496.8,616.4,503.1,615.7,505.1z"/>
			<path class="st3" d="M617.6,510.5c-0.5-0.2-0.9-0.4-1.4-0.6c0,0.2,0,0.5,0,0.7c0,0,1.2,1.6,6.2,3.5c3.1,1.2,6.1,1.5,8.1,1.3
				c0-2,0.1-4.4,0-6.7C627,511.4,622.6,512.2,617.6,510.5z"/>
			<path class="st3" d="M651.1,606.9c0.7-1.3,1.4-2.7,2.1-4c-1.7-7.5-6.7-29.7-7.9-37.1c-1.1-6.6-1.1-23.8-1-31.5
				c-0.3,9.4-1.6,26.4-0.6,34.9C645.1,581,651.1,606.9,651.1,606.9z"/>
			<g>
				<path class="st3" d="M587.9,676.4C587.9,676.4,587.9,676.4,587.9,676.4C587.9,676.4,587.9,676.4,587.9,676.4z"/>
				<path class="st3" d="M590.3,676.1c1.6,0.1,3.9,0.8,6.2,3.4c4.2,4.8,5,17.5,4.5,19.4c0.3-1.1,0.5-2.1,0.7-3.1
					c1.6-6.9,3.8-14.4,4.9-19.6C601.5,675.7,595.7,675.6,590.3,676.1z"/>
			</g>
			<path class="st5" d="M601.1,580.5c2.8-3.1,10.7-9.9,10.7-9.9s-1.8,0.4-5.7,1.7c-3.9,1.2-7.6-1.5-7.6-1.5c0.5,1.1,0.8,2,0.9,2.7
				c0.2,1.7-0.9,10.4-2.5,18.7C598.5,586.5,600,581.7,601.1,580.5z"/>
		</g>
	</g>
	<g>
		<path class="st0" d="M337.6,587.9c0,0-1.5-0.9-2.4-1.9s-4-4.2-5.3-4.4c-1.3-0.2-1.9,1.2-2,1.6c-0.1,0.4-0.3,1.5-0.3,1.5
			s-11.2-0.3-12.2,0s-0.8,2.1,0,2.6c0.8,0.6,7.3,0.9,7.3,0.9s-0.5,2.5,0.8,3.3c0,0-0.6,1.2,0.1,2.6c0.6,1.3,2.2,1.7,2.2,1.7
			s-0.5,1.7,0.7,2.7c1.2,0.9,3.1,0,3.1,0s2.4,0.6,4.5,0.4c2-0.2,3-1.4,3-1.4s2.7,0.3,3.4-1.7c0.8-1.9,1.2-2.2,0.5-4.1
			C340.3,590,337.6,587.9,337.6,587.9z"/>
		<g>
			<path class="st3" d="M339,590.6c-0.1,0.5-0.7,4-1,4.9c-0.3,0.9-1,2.2-1,2.2s2.2,0.2,3.2-1.2c0.1-0.5,0.1-1,0.1-1.4
				c0.1-1.6-0.4-4.1-0.7-5.3c-0.1-0.1-0.3-0.3-0.4-0.4C339.1,589.7,339.1,590.2,339,590.6z"/>
			<path class="st3" d="M328.6,598.5c-0.6,0.4-1.8,0.3-1.8,0.3c1.2,0.5,2.7-0.2,2.7-0.2s0.7,0.2,1.6,0.3c-0.3-0.6-0.1-1.6,0.5-3
				c0.7-1.6,1.4-1.6,2-1.9c0.6-0.3,1.5-0.4,1.8-0.5c0.3-0.1,0.2-0.8-0.8-1.1c-1-0.4-2.1-1.3-2.5-1.9c-0.4-0.6-0.7-1.2-0.8-2.2
				c0-0.9-0.7-2.3-0.7-2.3s0,0.3,0,0.6c0,0.3-0.1,1.5-0.2,2c-0.2,0.4-1.2,1.6-1.6,1.9c-0.4,0.3-0.9,0.5-0.9-0.2
				c0-0.7-0.4-5.2-0.4-5.2s-0.3,0.2-0.3,0.4c0,0.2-0.4,2.4-0.8,2.4c-0.4,0.1-6.1-0.1-8.7-0.4c-2.5-0.2-3-1.5-3-1.7
				c-0.1,0.6,0.2,1.3,0.7,1.7c0.8,0.6,7.3,0.9,7.3,0.9s0,0.2-0.1,0.5c0.8-0.2,1.4-0.4,1.6-0.3c0.6,0.1,2.8,1.4,3,1.8
				c0.2,0.4,1.1,1.7,0.3,2c-0.8,0.3-2.8-0.3-2.8-0.3s1.6,0.8,2.4,1c0.7,0.2,2.4,1,2.4,1s0.1,0.9-0.4,1.4c-0.6,0.5-2.6,0.9-2.6,0.9
				s1.6,0.1,2.1,0.1c0.5,0,0.9,0.1,0.9,0.4C329.5,597.2,329.3,598.1,328.6,598.5z"/>
		</g>
		<path class="st7" d="M385.5,733.2c0,0-8.5,4-12.1,4.7s-6,1.5-6.6,2.6c-0.5,1.1,0.7,2.5,0.7,2.5h29.3c0,0,2.4-2.5,0-10.2
			c0,0,2.3-6-0.4-8.8C393.7,721.1,385.5,733.2,385.5,733.2z"/>
		<path class="st7" d="M424.1,732c0,0-0.6,0.7-1.6,3.9c-1.1,3.2,0,7.1,0,7.1h26.5c0,0,0.5-2.1-1.3-4.4s-5.4-2.6-8.6-3.6
			c-3.2-1.1-4.3-2.4-4.6-3c-0.3-0.5-1.9-5.9-5.8-5.6S424.1,732,424.1,732z"/>
		<path class="st0" d="M437.5,669c0,0,0.2,1.4,1,2.4s1.9,1.6,2.4,2.5s2.9,1.6,3.7,0.9c0.8-0.8,1.3-2,1.7-1.2
			c0.4,0.9-0.2,3.1-1.4,3.6c-1.2,0.6-2.8,0.5-3.3,0.3c-0.5-0.2,0.5,2.9,1.2,5.1c0.7,2.2,0.6,3.4,0.4,4.5s-0.6,1.2-1.2,0.4
			s-1.1-3.3-1.4-4.1c-0.3-0.8-0.2,0.8,0.2,2.7c0.4,1.9,0.7,3.4,0.4,3.8c-0.4,0.4-1,0-1.4-1.4c-0.4-1.4-1.2-4.7-1.5-5.6
			c-0.3-0.9-0.4,1.9-0.1,4.8c0.3,2.9,0.4,3.6-0.7,3.7c-1,0.1-1.2-3-1.5-4.9c-0.4-2-1.2-4.5-1.2-4.5s0.8,4.8,0.3,6.2
			c-0.5,1.4-1.7-0.1-1.7-1.3c0-1.2-0.6-4.1-1-5.1s-1.2-3.2-1.3-4.3c-0.1-1.1,0.3-3.1,0.5-4.1c0.2-1-0.3-2.5-0.1-3.1
			c0.2-0.6,1.6-1.4,3-2C435.8,667.6,437.5,669,437.5,669z"/>
		<path class="st4" d="M387.6,672.9c0,0-1.7,58.8-2.1,60.3c0,0,6.2,1.6,12.4-0.8l12.1-42l13.3,41.5c0,0,6.9,1.2,12.9,0.4l-6.3-60.8
			c0,0,1.3-3.6-1-6.8c-2.3-3.2-20.1-2.3-26.1-1.2C396.9,664.4,387.6,672.9,387.6,672.9z"/>
		<path class="st8" d="M331.2,591.2c0-1-0.6-1.5-1-1.8c0.1-0.2,0.3-0.4,0.5-0.6c0.1-0.1,0.1-0.3-0.1-0.4c-0.1-0.1-0.3-0.1-0.4,0.1
			c-1.5,2-1.9,1.9-1.9,1.9c0,0,0,0,0-0.1c-0.2-0.4-0.3-3.4-0.3-5.4c0-0.2-0.1-0.3-0.3-0.3c0,0.2-0.1,0.3-0.1,0.3s-0.1,0-0.3,0
			c0,0,0,0,0,0c0,0.5,0,2.1,0.1,3.5c-1.4,0-4.6-0.2-4.7-0.2c-0.2,0-0.3,0.1-0.3,0.3c0,0,0,0,0,0c0.2,0,0.3,0,0.3,0s0,0.1,0,0.3
			c0,0,0,0,0,0c0.1,0,2.8,0.3,4.4,0.3c0.1,0,0.3,0,0.4,0c0.1,0.8,0.1,1.4,0.3,1.6c0.1,0.2,0.3,0.4,0.5,0.4c0,0,0,0,0.1,0
			c0.3,0,0.7-0.2,1.5-1.1c0.3,0.2,0.8,0.6,0.8,1.3c0,1-0.2,1.4-2.2,1.4c-1.9,0.1-4.7-1.2-4.7-1.2c-0.1-0.1-0.3,0-0.4,0.1
			c0.1,0.1,0.2,0.1,0.2,0.2c0,0-0.1,0.1-0.1,0.3c0.3,0.1,2.9,1.3,4.9,1.3c0,0,0.1,0,0.1,0c0.6,0,1.1-0.1,1.5-0.2
			c0,0.1,0.1,0.1,0.2,0.2c0.1,0.1,0.2,0.6,0.1,1.2c-0.1,0.4-0.3,1-0.9,1.2c-1.3,0.4-3.5,0-3.5,0c-0.2,0-0.3,0.1-0.4,0.2
			c0.2,0.1,0.3,0.1,0.3,0.1s0,0.1-0.1,0.3l0,0c0.1,0,1.1,0.2,2.2,0.2c0.6,0,1.2-0.1,1.7-0.2c0.1,0,0.3-0.1,0.4-0.2
			c0.6,1.1-0.5,2.3-0.6,2.3c-0.1,0.1-0.1,0.2-0.1,0.3c0.2-0.1,0.3-0.1,0.3-0.1s0.1,0,0.4,0.1c0.5-0.6,1.2-1.9,0.5-3.1
			c0.4-0.5,0.6-1.2,0.5-1.9c0-0.5-0.1-0.8-0.3-1C331,592.5,331.2,591.9,331.2,591.2z"/>
		<path class="st2" d="M401.8,563.1c0,0-3.1,0.1-2.2,8.3c0.8,7.2,3.1,12.9,5,13.6c1.9,0.7,17.1-2.6,19.5-4.1c2.5-1.4,4.4-7.5,4-14.8
			c0,0,4.7-3.5,2.2-15c0,0-1,3.5-3.1,5.1c0,0,1-1.5,0.2-4.9c0,0-0.8,2.6-4.9,3C418.5,554.9,404.1,553.9,401.8,563.1z"/>
		<path class="st0" d="M403.5,577.4c0,0-2.4,11.3,5.3,15.8c7.6,4.4,17.5-1.1,17.5-25.2c0,0-0.8-0.9-8.8-0.9c-8,0-10.5,2.6-10.5,2.6
			s-1.8,5.5-2.1,8.3c0,0-1.2-3.9-0.9-7.8c0,0-2.5-0.6-4.4,1.2C397.7,573.2,397.7,578.1,403.5,577.4z"/>
		<path class="st1" d="M418.3,601.4c0,0,10.2,4.2,12.9,7.7c2.7,3.5,4.5,17.5,6,27.8c1.5,10.3,4.2,29.4,4.2,31.6
			c0,2.1-7.5,3.2-11.5,3l-0.8-4c0,0-9.8,8.9-13.7,10.1s-15-0.7-19.3-1.2s-9.7-4.2-9.7-4.2l5.1-56.1c0,0-50.8-15-52.2-15.8
			c-1.5-0.8-0.1-10.9,0.5-12.9c0,0,38.1,7,44.3,7c6.2,0,18.2,3.1,19.8,3.5S418.3,601.4,418.3,601.4z"/>
		<path class="st9" d="M435.5,671.1c-0.7-0.4-2-1.1-2.4-2c-0.6-1.3-0.9-8.7-0.9-8.7l-4.3-41.2c0,0,0,27.7,0.1,32.9
			c0.1,5.1-1,17.1-1,17.1c1.2-1,2-1.8,2-1.8l0.8,4C431.5,671.5,433.6,671.4,435.5,671.1z"/>
		<path class="st10" d="M418.3,601.4l-16.5-4.3c0,0-1.5,4.1,1.7,9.4c3.2,5.3,7,6.5,8.9,6.4c1.9-0.1,7.2-1.3,8.2-10.5
			C419.3,601.8,418.3,601.4,418.3,601.4z"/>
		<path class="st6" d="M429,668c-0.2,0-0.3-0.1-0.4-0.2c-0.2-0.2-0.2-0.6,0-0.9c0.7-0.7,1.8-2,1.8-2.7c0-0.4-0.3-4.7-0.7-9.6
			c-0.9-10.9-2.3-27.5-2.3-34.8c0-0.3,0.3-0.6,0.6-0.6c0.3,0,0.6,0.3,0.6,0.6c0,7.3,1.4,23.8,2.3,34.7c0.6,6.9,0.8,9.4,0.7,9.8
			c-0.2,1.4-2,3.3-2.2,3.5C429.3,667.9,429.2,668,429,668z"/>
		<path class="st0" d="M405.8,585.2c0.1,1.9-0.5,10.6-2,12.5s1.9,10.6,7.1,12.1c6,1.7,7.4-8.3,7.4-8.3s-0.3-2.7,0-10.2
			C418.7,583.7,405.8,585.2,405.8,585.2z"/>
		<path class="st11" d="M410,691c-0.2,0-0.4-0.1-0.5-0.3c-0.2-0.3-0.1-0.7,0.2-0.9c0,0,3.6-2.1,6.1-4.5c0.3-0.2,0.6-0.2,0.9,0
			c0.2,0.3,0.2,0.6,0,0.9c-2.6,2.4-6.1,4.6-6.3,4.7C410.2,690.9,410.1,691,410,691z"/>
		<g>
			<path class="st3" d="M408.8,593.2c-1.4-0.8-2.5-1.8-3.3-3c-0.2,2-0.5,4.3-1,5.8c0.5,0.6,1.4,1.1,2.6,1.1c2.8,0.2,7.5-2,9.8-3.2
				C414.3,595,411.4,594.7,408.8,593.2z"/>
			<path class="st3" d="M418.2,593.2c0.1,0,0.1-0.1,0.1-0.1l0,0C418.2,593.2,418.2,593.2,418.2,593.2z"/>
		</g>
		<path class="st3" d="M400.3,571.7c0.7,0,1.3,0.2,1.9,0.6c0.6,0.3,1.1,0.8,1.5,1.3l0.3,0.4l-0.5,0.1c-0.2,0-0.5,0.1-0.7,0.2
			c-0.2,0.1-0.5,0.2-0.7,0.3c-0.5,0.2-0.9,0.5-1.4,0.8c0.3-0.5,0.7-0.9,1.2-1.2c0.2-0.2,0.5-0.3,0.7-0.4c0.3-0.1,0.5-0.2,0.8-0.3
			l-0.2,0.5c-0.4-0.5-0.8-0.9-1.3-1.3C401.5,572.4,400.9,572,400.3,571.7z"/>
		<path class="st9" d="M384.8,610.8c-3.8-0.4-21.9-3.3-21.9-3.3c13.8,4.1,28.5,8.5,28.5,8.5l1.2-5.2
			C392.7,610.8,388.6,611.2,384.8,610.8z"/>
		<path class="st12" d="M430.5,677.6l-0.6-6.2l-0.8-4c0,0-9.8,8.9-13.7,10.1c-3.9,1.2-15-0.7-19.3-1.2c-3-0.4-6.6-2.3-8.4-3.4
			c0,0,4.4,4.6,7.1,6c2.7,1.4,12.3,2.7,16.2,2.5c3.9-0.2,14.4-1.6,16.2-2.5C428,678.4,429.4,677.9,430.5,677.6z"/>
		<path class="st12" d="M416.8,706.9c0-1.5-1.2-19.9-0.9-20.1l-5.9,3.5l8.9,27.8C418.7,717.7,416.7,708.5,416.8,706.9z"/>
	</g>
	<g>
		<path class="st13" d="M373,952.6c0,0-41.1,10.5-79,16.1s-56.4-10.5-54.8-27.4c1.6-16.9,17.5-26.2-0.1-37.7
			c-17.6-11.5-41,20.4-50.7,0c-9.7-20.4,32.2-25.2,57.2-31.6c25-6.4,38.7,5.6,54.8,9.3c16.1,3.6,30.1,8.4,66.2-4.5
			s157,22.6,196.9,36.3c39.9,13.7,65.1-19.3,106.1-31.8c41-12.5,125.6-5.4,150.6,8c25,13.4,48.6,72.6,48.6,72.6s-46.1,0.4-83.2,14.9
			s-75.7,44.7-139.9,33c-26.7-4.9-93.6-49.4-136.5-40.3c-35.4,7.5-91.1,31.4-119.3,22.6C361.7,983.2,373,952.6,373,952.6z"/>
		<path class="st14" d="M868.8,961.9V742.9H273.5c0,0,12.4,111.9,121.6,181.1c0,0,23-15.7,62.1-20.3c39.1-4.6,54.5,16.7,90.1,40.9
			c35.6,24.2,99.9,25,122.4,5.6c22.4-19.3,2.7-41.5-9-43.5c0,0,38.3,0.4,47.1,23.4c0,0,3.6-12.9-3.2-23c0,0,10.1-3.6,25,16.5
			c14.9,20.1,42.3,28.6,63.3,27.8C813.8,950.6,859.7,953.8,868.8,961.9z"/>
		<path class="st14" d="M592.6,742.9c0,0,61.6-185.1,141-246.8h135.2v246.8H592.6z"/>
		<path class="st15" d="M627.8,654.6c-22,48.7-35.2,88.3-35.2,88.3h276.2v-0.1C754.4,739,627.8,654.6,627.8,654.6z"/>
		
			<ellipse transform="matrix(0.9239 -0.3827 0.3827 0.9239 -257.7759 322.9848)" class="st16" cx="683" cy="809.5" rx="16.9" ry="16.9"/>
		<circle class="st10" cx="683" cy="809.5" r="13.3"/>
		
			<ellipse transform="matrix(0.9239 -0.3827 0.3827 0.9239 -267.0913 276.1528)" class="st16" cx="560.6" cy="809.5" rx="16.9" ry="16.9"/>
		<circle class="st10" cx="560.6" cy="809.5" r="13.3"/>
		<circle class="st16" cx="433.4" cy="810.3" r="16.9"/>
		<circle class="st10" cx="433.4" cy="810.3" r="13.3"/>
		<path class="st13" d="M737.7,903.7c0,0-9.7-27.2,5.2-38.9s23.4-4,25,6.8c1.6,10.9-18.1,10.9-23.4,16.5
			C739.3,893.8,737.7,903.7,737.7,903.7z"/>
		<path class="st13" d="M666.1,881.3c0,0-11.4-17.7-26.7-16.9c-15.3,0.8-17.7,14.5-8.9,23S656.5,873.3,666.1,881.3z"/>
		<path class="st17" d="M745,496.1c0,0-50.9,50-73.9,97.5h197.6v-97.5H745z"/>
		<path class="st14" d="M720.3,484.8H869v11.3H720.3c-3.1,0-5.6-2.5-5.6-5.6C714.7,487.4,717.2,484.8,720.3,484.8z"/>
		<path class="st15" d="M714.9,492.2c0.7,2.3,2.9,4,5.4,4H869v-5.6H717.5C716.4,490.5,715.4,491.2,714.9,492.2z"/>
		<path class="st10" d="M868.8,496.1h-71.5l-98.9,53.2c-10.1,13.9-19.9,29.3-27.2,44.4h68.3c2.5-1,4.2-1.6,4.2-1.6l125.1-95.7V496.1
			z"/>
		<polygon class="st10" points="791.2,593.6 823.1,593.6 868.8,551.9 868.8,534.4 791.8,591.6 		"/>
		<path class="st10" d="M261.8,874.5c0,0-30.2,4.8-42.3,8.1c-12.1,3.2-25,5.6-26.2,12.5c-1.2,6.8,2.4,10.5,7.3,8.9
			c4.8-1.6,6-12.9,14.9-16.5c8.9-3.6,33.8-10.9,47.9-8.9c14.1,2,22.4,5.3,18.1,0C277.3,873.2,266.1,873.8,261.8,874.5z"/>
		<path class="st10" d="M395.2,928.4c-4,2-17.3,18.9-18.5,33.4s6,24.6,20.1,27c14.1,2.4,28.1-2,24.3-11.7c-3.8-9.7-25.9-4-28.8-13.4
			c-2.8-9.4,0.2-24.3,11.3-32.9c14.9-11.7,43.5-17.3,37.9-22.6C435.4,902.6,395.2,928.4,395.2,928.4z"/>
		<path class="st10" d="M643.2,989.2c0,0,30.4,14,49.2,10.2c18.8-3.8,58.8-24.7,71.4-26.6c12.6-1.9,0.3,4-7.5,8.1
			c-7.8,4-54,30.1-72.3,29.8c-18.3-0.3-44.6-5.9-59.1-13.2c-14.5-7.3-29.5-10.2-29.5-15.3S629.3,983.8,643.2,989.2z"/>
		<path class="st10" d="M255,944.6c-0.4,1.6-7.3,10.7,6.8,19.2c14.1,8.6,81.8-9.6,81.8-9.6s-48.1,9.3-60.9,6.1
			c-12.8-3.2-8-15.8-16-19S255,944.6,255,944.6z"/>
	</g>
	<g>
		<rect x="693.3" y="608.5" class="st18" width="114.4" height="48.8"/>
		<rect x="730.7" y="608.5" class="st19" width="77.1" height="48.8"/>
		<rect x="657.9" y="657.3" class="st20" width="182.1" height="85.6"/>
		<rect x="791.2" y="657.3" class="st21" width="48.8" height="85.6"/>
	</g>
	<path class="st7" d="M288,537.4c0,0,21,9.1,33.8,3.8c12.9-5.2,2.8-23.4,2.8-23.4s18.5,7.3,15.3,29c-3.2,21.8-27,33.8-52,32.2V537.4
		z"/>
	<g>
		<path class="st2" d="M517.7,591c0,0-4,9.7-0.5,17.7c0,0,17.8,7.8,24,8.2s9.8,0,12.3-2.7c2.5-2.7,8.1-16.2,2.6-24.7
			c0,0,1.6-5.5-4.3-9.1s-21.5-5.9-25.6-11.1c0,0-1.7,3.6-0.1,7.2c0,0-3.9-3.6-3.8-10.7C522.2,565.8,507.9,573.7,517.7,591z"/>
		<path class="st0" d="M557.7,686.9l22,49.8c0,0,2.8,4.8,5.8,6.2c3,1.4,28.8,0,28.8,0s-2.6-3.6-6.8-5c-4.2-1.4-15.1-5.8-17.3-7.1
			c-2.2-1.2-19-51.4-19-51.4s-6.5-10.1-10.4-8.4C556.9,672.6,557.7,686.9,557.7,686.9z"/>
		<path class="st0" d="M493.7,673.4c0.4,1.3-9.9,36.3-11.1,44.1c-1.2,7.9,2.6,3.6,6.4,1.2c3.8-2.4,14.9-17.9,15.4-23
			c0.5-5,3.3-16.9,3.3-16.9V672L493.7,673.4z"/>
		<path class="st4" d="M522.9,635.9c0,0-5.7-2.4-10.4-2.5c-4.6-0.1-6.6,2.8-9.4,6.8c-2.7,4-12.9,25.1-14.6,27.9
			c-1.7,2.8,9.9,10.4,15.9,10.7c0,0-4.9,19.1-11.4,32.8c0,0,15.1,0.1,26.6,5.7c11.5,5.6,19.5,20.2,26.4,22.9
			c0,0,12.4-26.3,11.6-53.4c0,0,9.9-4.3,15.2-8.7c0,0-12-35.7-15.9-38.1c-4-2.4-15.1-0.9-16.9-1.6s-7.3-1.7-10.5-1.9
			C526.3,636.3,522.9,635.9,522.9,635.9z"/>
		<path class="st0" d="M519.9,593.2c0,0-3.2,16.8-2.4,22.6c0.8,5.7,4.8,10.2,9.8,12c4.9,1.8,13.1-1.1,17.1-5.7
			c4-4.6,5.6-8.2,5.6-8.2s4.2,1.5,6.1-0.5s3.8-6.2,1.1-7.6c-2.6-1.4-5.9,2.2-5.9,2.2s-2,2.8-2.6,4.3c0,0,3.3-8.5,3.7-11.3
			C552.5,601.1,531.8,600.6,519.9,593.2z"/>
		<path class="st0" d="M524.9,624.6c0,0,1.1,10-2,11.4c0,0-0.1,9.2,3.8,12.7c0,0,7.5-2.8,11.2-6s1.4-5.8,1.2-6
			c-0.2-0.2-0.5-6.7,0.2-13.8C540,615.6,525.8,621.1,524.9,624.6z"/>
		<path class="st22" d="M546.2,638.7c0-0.1,0.1-0.2,0.1-0.2c-0.7,0-1.4,0-2.1,0c-5.4,11.2-16.5,13.7-18.9,14.1
			c-7.1-8-4.4-16.9-4.2-17.4c-0.5-0.2-1.1-0.4-1.8-0.6c-0.2,0.5-3.3,10.7,5,19.7c0.2,0.2,0.4,0.3,0.7,0.3c0,0,0.1,0,0.1,0
			C525.6,654.5,539.9,652.8,546.2,638.7z"/>
		<path class="st7" d="M519.7,717.4c-11.5-5.6-26.6-5.7-26.6-5.7s-24.3,9.9-28.7,11.8c-4.4,1.9-21.5,27-22.2,28.5
			c-0.7,1.5,6.6,11,11.6,13.7c5,2.7,12,3.6,12,3.6l-2.7,12c0,0,15.5,14,30.7,10.7c0,0,4.4-15.7,2.5-27.8c0,0,20.8-4.6,32-7.5
			c11.1-3,17.2-16.4,17.2-16.4s0-0.1-0.1-0.4C538.5,736.6,530.7,722.9,519.7,717.4z"/>
		<path class="st5" d="M534.4,753.7c-2.7-17.5-14.2-19.1-14.2-19.1l-3.5,2.6l1.6,2.3l-12.5,6c4.3,3.9,4.8,15.4,4.8,15.4
			c6-1.4,12.7-3,17.5-4.3C530.5,756.1,532.6,755,534.4,753.7z"/>
		<path class="st23" d="M528.1,757c-0.2,0-0.3-0.1-0.3-0.3c-1.3-11.5-10.1-16.9-10.2-16.9c-0.1-0.1-0.2-0.3-0.1-0.4
			c0.1-0.1,0.3-0.2,0.4-0.1c0.1,0.1,9.1,5.5,10.5,17.4C528.5,756.8,528.3,757,528.1,757C528.2,757,528.1,757,528.1,757z"/>
		<path class="st23" d="M509.2,752.3c-0.2,0-0.3-0.1-0.3-0.3c0-0.2,0.1-0.3,0.3-0.4c0.1,0,9.3-1.6,15-5.7c0.1-0.1,0.3-0.1,0.4,0.1
			c0.1,0.1,0.1,0.3-0.1,0.4C518.7,750.7,509.3,752.2,509.2,752.3C509.2,752.3,509.2,752.3,509.2,752.3z"/>
		<path class="st0" d="M489.7,795.5c0.3-1,0.5-2,0.7-3.1c-7.9,0.5-15.6-3.1-20.8-6.4c-0.4,5.9-2.2,30.2-3.1,32.3
			c-1.1,2.3-4,5.4-6.6,8.7c-2.6,3.4-2.7,4.8-8.5,9.7c-5.8,4.8-14.9,12.4-16.7,15c-1.7,2.6,3,3.7,5.6,3.8c2.7,0.1,12-5.2,21.4-7.4
			c9.4-2.1,19.1-5.1,21.6-8.5c2.6-3.4-2.6-9.7-2.1-15.8C481.7,817.6,488.1,801.3,489.7,795.5z"/>
		<path class="st0" d="M453.7,765.7c-3.7-2-8.8-7.8-10.8-11.3c-6.9,9.5-21.5,39.3-24,43.9c-2.8,5.1-20.5,14.4-27.1,17.9
			c-6.6,3.5-15.6,4.8-12.9,7.5c2.7,2.7,11.8,4.7,21.8,2.8c9.9-1.9,16.3,0.1,22.6-0.7s7.7-3.8,8.3-9.9c0.7-6.2-0.1-9.4,2.8-14.9
			c3-5.5,18.5-18.1,24.2-23.6c3.6-3.6,4.7-6.6,5-8.4C461.2,768.5,457,767.4,453.7,765.7z"/>
		<path class="st5" d="M470.4,739.5c-2.1,2.5-13.6,27.5-13.9,27.4c4.4,1.7,9.2,2.4,9.2,2.4l-0.7,3c0.6-1,0.5-2.4,0.5-2.4
			s5.8-25,7.9-27.5s32-21.2,32-21.2S472.5,737.1,470.4,739.5z"/>
		<path class="st5" d="M523,727.5c1.8,2.8,12.7,16.6,16,20.2c0.3,0.3,0.6,0.6,0.9,0.8c3.5-4.2,5.4-8.3,5.4-8.3s0-0.1-0.1-0.4
			c-6.7-3.4-14.5-17.1-25.6-22.5c-11.5-5.6-26.6-5.7-26.6-5.7s8.1,2.3,13.4,4.6C511.8,718.5,521.2,724.7,523,727.5z"/>
		<path class="st5" d="M496.2,764.2c0,0,5.1-1.1,11.6-2.6c-2.1,0.5-13-3.9-13-3.9c-0.5,5.2-3.7,2.4-3.7,2.4
			c6.1,9.1,2.6,31.9,2.6,31.9S498.1,776.3,496.2,764.2z"/>
		<g>
			<path class="st24" d="M465.6,769.9c0,0,0.1,0,0.1,0c0.3,0,0.5-0.2,0.6-0.5c2.5-11.9,5.9-25,7.2-26c2.1-1.6,32.4-20.9,32.7-21.1
				c0.3-0.2,0.4-0.6,0.2-0.9c-0.2-0.3-0.6-0.4-0.9-0.2c-1.3,0.8-30.7,19.5-32.8,21.2c-2.2,1.7-6.7,22.6-7.6,26.8c0,0,0,0,0,0
				c0.4,0.1,0.6,0.1,0.6,0.1L465.6,769.9C465.6,769.9,465.6,769.9,465.6,769.9z"/>
			<path class="st24" d="M495.5,755.8c-0.1-0.3-0.5-0.5-0.8-0.3c-0.3,0.1-0.5,0.5-0.3,0.8c0.7,1.6,0.9,4,1.1,5.7
				c-1.1-1.3-3-2.9-6.2-4c-0.3-0.1-0.7,0.1-0.8,0.4c-0.1,0.3,0.1,0.7,0.4,0.8c5.3,1.8,6.7,5.2,6.7,5.3c0.1,0.2,0.3,0.4,0.6,0.4
				c0,0,0.1,0,0.1,0c0-0.2-0.1-0.4-0.1-0.6c0,0,0.2,0,0.6-0.1C496.8,763.2,496.7,758.6,495.5,755.8z"/>
		</g>
		<path class="st3" d="M493.1,711.7c6.4-13.7,11.4-32.8,11.4-32.8c-3-0.2-7.5-2.1-10.9-4.4c0,0.2-0.1,0.3-0.1,0.5
			c0,0,4.1,5.3,6.1,6.6c1.9,1.3-4.7,23.9-4.9,25.6C494.3,708.9,493.1,711.6,493.1,711.7z"/>
		<path class="st3" d="M564.1,689.4c1-3.6,6.4-9.3,7.1-10c-5.4,3.9-13.5,7.4-13.5,7.4l8.3,18.7C566,705.6,563.1,693,564.1,689.4z"/>
		<path class="st25" d="M504.3,678.8c2.2-7.9,4.1-18.4,4.1-18.4s-5.1,9.1-6.2,10.4c-1.1,1.3-5.9,4.6-6.5,4.9
			C498.7,677.4,501.9,678.7,504.3,678.8z"/>
		<path class="st25" d="M561.2,680.6c-0.8-0.7-3.1-6.8-4.2-10v6.9l0.7,9.4c0,0,4.6-2,9.2-4.7l0,0
			C566.9,682.2,562.3,681.6,561.2,680.6z"/>
		<path class="st22" d="M504.3,679.5c0.1,0,0.1,0,0.2,0c0.3,0,0.5-0.2,0.6-0.5c0.1-0.4,2.7-10.6,3.3-15.8c0-0.3-0.2-0.7-0.6-0.7
			c-0.3,0-0.7,0.2-0.7,0.6c-0.6,5.1-3.3,15.5-3.3,15.6c0,0,0,0.1,0,0.1c0.2,0,0.4,0,0.6,0.1C504.5,678.8,504.4,679.1,504.3,679.5
			L504.3,679.5z"/>
		<path class="st3" d="M539.1,626.1c-3.9,2-8.6,2.9-11.8,1.7c-0.7-0.3-1.5-0.6-2.2-1c0,0.5,0,1,0,1.5l0,0c0,0,6.7,4.8,13.8,4.3
			C538.9,630.8,538.9,628.5,539.1,626.1z"/>
		<path class="st3" d="M557.1,607.1c-0.9,0.4-1.7,1-2.5,1.6c-0.7,0.6-1.4,1.4-1.9,2.2l-0.4-0.4c0.4-0.1,0.7-0.1,1.1-0.1
			c0.3,0.1,0.7,0.2,0.9,0.4c0.3,0.2,0.5,0.4,0.7,0.7c0.2,0.2,0.4,0.5,0.5,0.8c-0.2-0.2-0.4-0.4-0.7-0.6c-0.2-0.2-0.5-0.3-0.7-0.5
			c-0.3-0.1-0.5-0.2-0.8-0.2c-0.3,0-0.6,0-0.8,0.1l-0.9,0.4l0.5-0.8c0.3-0.4,0.6-0.9,0.9-1.3c0.4-0.4,0.7-0.7,1.2-1
			c0.4-0.3,0.9-0.6,1.3-0.8C556.2,607.4,556.6,607.2,557.1,607.1z"/>
	</g>
	<path class="st26" d="M338.2,545.4c-1.7,18.8-27.8,32.5-39.5,25.2c-9.3-5.8-10.6-20.2-10.7-26v34.4c25,1.6,48.8-10.5,52-32.2
		c3.1-20.8-13.8-28.4-15.2-29c-0.1,0-0.1,0-0.1,0S340,526.6,338.2,545.4z"/>
	<g>
		<rect x="278.9" y="537.4" class="st10" width="9.1" height="205.5"/>
		<rect x="283.5" y="537.4" class="st27" width="4.5" height="205.5"/>
		<rect x="278.9" y="638.4" class="st28" width="589.9" height="10.3"/>
		<rect x="278.9" y="643.5" class="st29" width="589.9" height="5.1"/>
		<rect x="338.2" y="648.6" class="st10" width="10.9" height="94.3"/>
		<rect x="343.6" y="648.6" class="st29" width="5.4" height="94.3"/>
		<rect x="442.1" y="648.6" class="st10" width="10.9" height="94.3"/>
		<rect x="447.6" y="648.6" class="st29" width="5.4" height="94.3"/>
		<rect x="546.1" y="648.6" class="st10" width="10.9" height="94.3"/>
		<rect x="551.5" y="648.6" class="st29" width="5.4" height="94.3"/>
		<rect x="650" y="648.6" class="st10" width="10.9" height="94.3"/>
		<rect x="655.5" y="648.6" class="st29" width="5.4" height="94.3"/>
		<rect x="754" y="648.6" class="st10" width="10.9" height="94.3"/>
		<rect x="759.4" y="648.6" class="st29" width="5.4" height="94.3"/>
		<rect x="857.9" y="648.6" class="st10" width="10.9" height="94.3"/>
		<rect x="863.4" y="648.6" class="st29" width="5.4" height="94.3"/>
	</g>
</g>
</svg>
