<?xml version="1.0" encoding="utf-8"?>
<!-- Generator: Adobe Illustrator 25.4.1, SVG Export Plug-In . SVG Version: 6.00 Build 0)  -->
<svg version="1.1" id="Capa_1" xmlns="http://www.w3.org/2000/svg" xmlns:xlink="http://www.w3.org/1999/xlink" x="0px" y="0px"
	 viewBox="0 0 1080 1350" style="enable-background:new 0 0 1080 1350;" xml:space="preserve">
<style type="text/css">
	.Graphic_x0020_Style_x0020_40{opacity:0.3;fill:#FFFFFF;}
	.Graphic_x0020_Style_x0020_41{opacity:0.3;}
	.st0{fill:#8ECDF5;}
	.st1{opacity:0.3;fill:#FFFFFF;}
	.st2{fill:#3B79E4;}
	.st3{fill:#5498EA;}
	.st4{opacity:0.3;}
	.st5{opacity:0.5;fill:#FFFFFF;}
	.st6{fill:#4E4978;}
	.st7{fill:#A3A307;}
	.st8{fill:#BFBF09;}
</style>
<g>
	<g>
		<path class="st0" d="M447.2,900.3c59.5-23.2,68.5-39.1,68.3-45c-0.2-6.7-20.3-85.9-26.2-94.8c-5.9-8.9-34.3-19.1-34.3-19.1
			l-39.2-109.5l16.3-28.5c0,0-8.3-50.6-27.6-81.6c-30-36.2-95.7-54.9-95.7-54.9l-10.6-31.2l-30.6,13.7l-32.6,7.7l10.6,31.2
			c0,0-40.8,54.8-42.6,101.8c3.5,36.4,27.6,81.6,27.6,81.6l30.2,12.7l35.5,110.8c0,0-16.4,25.3-15.6,36c0.7,10.7,33,85.7,36.9,91.2
			c3.4,4.8,20.2,11.9,81.6-5.8L447.2,900.3z"/>
		<path class="st1" d="M295.9,539.3c-45,15.3-80.4,30.7-79.1,34.6c1.3,3.8,38.8-5.4,83.8-20.7c45-15.3,80.4-30.7,79.1-34.6
			C378.5,514.8,340.9,524,295.9,539.3z"/>
		<path class="st2" d="M251.1,431.2L218,444.2c0,0,3.6,15.5,10.1,29.7c13.4,2.3,73.2-17.6,83.5-28.3c-2.2-14.6-11.6-29.2-11.6-29.2
			L251.1,431.2z"/>
		<path class="st1" d="M481.3,765.2c0,0-13.7-8.9-34.9-18c-10.4-33.7-39.5-110.4-39.5-110.4s15.5-33.3,15.5-40.1
			c0-6.8-20.7-60.8-26.1-69.4c-5.4-8.6-16.6-8.7-16.6-8.7c-1.3-3.8-38.8,5.4-83.8,20.7c-45,15.3-80.4,30.7-79.1,34.6
			c0,0,0.6,36.6,24.5,87.2c25.4,16.6,33.7,21.4,33.7,21.4L310,794.3c0,0-18.4,25-16.7,38.1c1.7,13.1,27.4,80.8,38,84
			c10.6,3.2,52.1-37.4,85-47.2c32.8-9.8,77.1,0.3,86.8-13.7C512.7,841.5,481.3,765.2,481.3,765.2z"/>
		<path class="st3" d="M300,416.4c0.6,1.9-17.2,9.6-39.9,17.3c-22.6,7.7-41.5,12.4-42.1,10.5c-0.6-1.9,17.2-9.6,39.9-17.3
			C280.5,419.2,299.4,414.5,300,416.4z"/>
		<path class="st2" d="M455,741.4l-39.2-109.5c-79.3,45.3-155,52.5-155,52.5l35.5,110.8C387.9,791.4,455,741.4,455,741.4z"/>
		<path class="st0" d="M383.7,713.3c3.5,4.4,6.6,9.5,9,15.2c6.1,16.3-2.9,30.1-17.3,35c-14.4,4.9-28.5-2-35-17.3s9.3-58.4,9.3-58.4
			S369.6,695.3,383.7,713.3z"/>
		<path class="st4" d="M455,741.4l-39.2-109.5l16.3-28.5c0,0-8.3-50.6-27.6-81.6c-30-36.2-95.7-54.9-95.7-54.9l-5.4-15.8
			c3.7-2,6.5-3.9,8.2-5.6c-2.2-14.6-11.6-29.2-11.6-29.2c-0.4-1.1-7.7,0.2-18.5,3.2c2,9.6,4.3,23,2.8,27.7c-4.4,6-38,17.6-57.5,23.9
			c0.4,0.9,0.8,1.8,1.2,2.7c2.6,0.4,6.9,0,12.3-0.9l5.2,15.5v0c0,0,45.4-10.6,53.7-7.5c8.3,3.1,55,44.1,62.8,61.9
			c7.9,17.8,4.9,76.1-8.7,89.8c-13.6,13.7-122.9,39.1-122.9,39.1l0,0l0,0l30.2,12.7l3.2,9.9c22.9-2.1,64.6-8.3,108.1-26.1
			c12.5,40.2,25.9,79.3,17.1,107.6c20.1,11.1,25.5,18.1,25.5,18.1s8.2,63.1-9.3,96.1c-26.4,9.4-64.1,18.8-97,13.1
			c4.5,10.1,8,17.6,9.2,19.2c3.4,4.8,20.2,11.9,81.6-5.8l47.9-16.2c59.5-23.2,68.5-39.1,68.3-45c-0.2-6.7-20.3-85.9-26.2-94.8
			C483.4,751.6,455,741.4,455,741.4z"/>
		<path class="st1" d="M209.5,572.7c0,0,27.1-63.7,38.9-74.6c11.8-10.8,42.4-1.2,49.9,7.6c7.5,8.8,24.5,99-27.4,136.6
			C253.6,649.1,221.9,628,209.5,572.7z"/>
		<path class="st1" d="M288.9,832.3c0,0,14.7,50.1,34.1,57.6c16,4.1,44.8-37.9,43.2-67.8C363.1,811.2,292,817.1,288.9,832.3z"/>
		<path class="st1" d="M278.9,703.8c0,0,22.8,79.3,26,83.6c3.3,4.3,35.8-5.8,35.8-5.8l-17.2-84.9
			C323.6,696.6,287.5,706.3,278.9,703.8z"/>
		<path class="st4" d="M334.4,484.9c0,0,42.6,34,52.3,53.9c9.6,19.9,9.4,78,9.4,78s23.7-36.7,7-85.6
			C384.8,499.8,334.4,484.9,334.4,484.9z"/>
		<path class="st4" d="M402,654.3l31.7,100.5c0,0,24.7,11.4,31.7,17.2c6.9,5.8,32.2,76.4,32.2,76.4s-0.8-65.5-14.1-87.2
			c-19.4-12.9-32.3-17.1-32.3-17.1l-37.9-98.6L402,654.3z"/>
		<path class="st5" d="M232,535c0,0,10.8-14.6,23-15.8c12.3-1.2,15,12.4,15.2,13.4c0.2,1-15.9,18.8-27.2,18.7
			C231.8,551.1,232,535,232,535z"/>
		<path class="st5" d="M233.5,585c0,0,1.3,10.9,8.1,12.7c6.8,1.8,13.6-9.1,13.6-9.1s4-8.3-6-12.5C242.7,574.3,233.5,585,233.5,585z"
			/>
		<path class="st5" d="M299.4,837.3c0,0,1.3,10.9,8.1,12.7c6.8,1.8,13.6-9.1,13.6-9.1s4-8.3-6-12.5
			C308.6,826.7,299.4,837.3,299.4,837.3z"/>
	</g>
	<g>
		<path class="st6" d="M894.3,604.4c-7.9-12.3-20.5-18.7-28.3-21.6l-2.4,8.5c9.1,1.4,18.9,12.5,18.9,12.5s-27.3,232.4-27.7,241.5
			c-0.4,9.1,21.1,28.9,30.2,8.6C894.1,833.6,906.4,623.1,894.3,604.4z M863.6,839.1c1.6-17,25.1-202,26.1-228.4
			c0,0,9.1,141.5-11.5,232.6C874.1,857.8,862.1,856,863.6,839.1z"/>
		<path class="st2" d="M834.9,736.4c-45.9-84.2,25.6-152.3,25.6-152.3l-13.1-14.9l-62.3-17.8l-62.3-17.8l-19,5.7
			c0,0,24.7,95.6-58.8,142.7c-29.1,53.8-59,199.6-56.2,233.9c19.6,30.1,60.2,40.9,78.7,46.2c18.5,5.3,58.7,17.6,91.2,2.4
			C779.3,937,831.1,797.5,834.9,736.4z"/>
		<path class="st6" d="M812,428c0,0-70.2-14.4-98.8-8.7c-21.5,5.3-10.7,46.8-1.2,57.7c9.4,10.9,8.4-4.3,8.4-4.3S702.5,451,713,427
			c6.2-8.6,97.1,7.8,97.1,7.8L812,428z"/>
		<path class="st7" d="M888.4,520.8c-20.9-10.5-69.7-23.4-86.6-27.7c-16.5-5.3-64.8-20.2-88.1-22.3c-26.3,32.8-20.3,71.1-20.2,71.4
			c1.6,5.8,38.3,20.6,84.6,33.9c45.4,13,83.7,19.9,89.4,16.3C867.8,592.1,893.3,562.5,888.4,520.8z"/>
		<path class="st8" d="M803.8,486.2c-48.2-13.8-88.6-20.7-90.1-15.4c-1.5,5.3,36.4,20.8,84.6,34.6c48.2,13.8,88.6,20.7,90.1,15.4
			C889.9,515.5,852,500,803.8,486.2z"/>
		<path class="st6" d="M858.9,412.8c1.8-6.4-12-11.2-29.5-16.2c-17.5-5-31.8-8.3-33.6-1.9c-1.8,6.4,13.4,11.6,13.4,11.6l-10.1,28.2
			l15.5,13.8l20.5-3.5l6.3-29.2C841.4,415.6,857.1,419.2,858.9,412.8z"/>
		<path class="st2" d="M818.4,435.1c-70.7-20.2-77.8,36-77.8,36c-1.1,3.8,26,14.8,60.5,24.7c34.5,9.9,63.3,14.8,64.4,11
			C865.4,506.8,889.1,455.4,818.4,435.1z"/>
		<path class="st4" d="M775.9,932.6c21.3-47.2,49.5-129,57.2-179.9c-17.9,0.8-52.9-1.5-117.8-16.7c-30.9-7.2-57.4-19.4-79.8-33.2
			c-19.2,47.5-37.1,125.7-43.9,175.1C627.7,899.8,692.4,930.2,775.9,932.6z"/>
		<path class="st4" d="M758.8,964.7c-32.5,15.2-72.7,2.9-91.2-2.4c-18.4-5.3-58.7-16-78.4-45.8c36.3,15.2,95.4,37.4,108.5,26.7
			c32.3-41.4,89.1-177.1,83.6-217.9c-5.6-31.8,2.5-91.6,14.3-115.6c-44.1-11-72.2-27.7-88.3-40.1c-0.1-7.4-0.7-13.9-1.4-18.9
			c-7.4-3.6-11.9-6.5-12.5-8.5c0,0-0.1-0.9-0.3-2.3c33.2,13.7,123,39.2,131.7,31.1c12.5-20.2,20-45,22.4-53.3
			c23.9,5,40.1,6.5,41.1,3.2c4.9,41.7-20.6,71.3-20.9,71.5c-1.8,1.2-7,1.2-14.7,0.4c-17.1,20.7-54.2,77.2-17.9,143.8
			C831.1,797.5,779.3,937,758.8,964.7z M801,495.8c34.5,9.9,63.3,14.8,64.4,11c0,0,19.5-42.3-29.6-65.3l5.6-26
			c0,0,15.7,3.7,17.5-2.7c1.5-5.3-7.9-9.5-21.1-13.7c0,3.3-1.3,7.3-5.9,10.9c-6.7,0.5-22.7-3.7-22.7-3.7l-1.8,5
			c7,2.3,16.5,5.9,18.6,9.3c3.3,5.5-0.6,16.5-0.6,16.5s10.4,25.1,10.9,47.7c-0.3,11.8-72.8-5.3-94.8-18c-0.7,2.6-0.9,4.3-0.9,4.3
			C739.5,474.9,766.5,485.9,801,495.8z"/>
		<path class="st1" d="M724.4,592.9c0,0-9.1,66-61.3,94.4c-31.3,25.2-70.8,204.4-61.8,216c23.2,13.2,35.7,15.1,35.7,15.1
			s46-52.2,77.2-204.2C716.6,683,743.8,605,743.8,605L724.4,592.9z"/>
		<path class="st1" d="M665.7,704.8c0,0,26.9,8.8,34,14.3c4,14.4-10.9,49.4-19.1,57.3c-8.3,8-37.8,2.8-41.6-1
			C635.1,771.6,644.4,724,665.7,704.8z"/>
		<path class="st1" d="M717.2,486.3c0,0-12,22.6-13.3,39.9c9.9,13.9,99.8,13.9,99.8,13.9l5.8-20.4
			C809.5,519.6,741.6,501.8,717.2,486.3z"/>
		<path class="st1" d="M750.7,464.4c0,0,16.9-36.8,62.3-25.5c-20.5,0.3-31.6,26.1-35.2,33.2C766.1,471.6,761.3,469.5,750.7,464.4z"
			/>
		<path class="st4" d="M836.6,600.5c0,0-50.7,65.6-13.9,133.8c5.1,28.2-43.6,200.5-74.1,225c-26.5,10.9-44.6,3.6-44.6,3.6l19-9.3
			c0,0,72.9-100.6,82.2-216.7c-9.8-26.8-7.4-101.8,19.8-139.8C836.6,600.5,836.6,600.5,836.6,600.5z"/>
		<path class="st4" d="M866.4,529c0,0-1.8,29.9-24.8,54.4c17.9,4,17.9,4,17.9,4s18.4-21.5,22-58.3C873.3,531.5,866.4,529,866.4,529z
			"/>
		<path class="st4" d="M838.8,446.3c0,0,27.4,18.3,22.1,54.1c-8.6,1.4-14.6-0.4-14.6-0.4S857.3,474.9,838.8,446.3z"/>
	</g>
	<g>
		<path class="st0" d="M578.2,437.9c3.1,8.9,5.3,18.7,6,29.1c0.8,29.3-21,46.3-46.5,46.2c-25.5-0.1-44.2-18.8-46.2-46.5
			c-1.9-27.8,46.7-87.8,46.7-87.8S565.6,401.7,578.2,437.9z"/>
		<path class="Graphic_x0020_Style_x0020_41" d="M501.9,495.5c8.3,11,20.8,17.6,35.8,17.6c25.5,0.1,47.3-16.9,46.5-46.2
			c-0.7-10.4-2.9-20.1-6-29.1c-12.6-36.2-40-59.1-40-59.1s15.4,73.8,4,99C537.9,487.8,518.1,492.9,501.9,495.5z"/>
		<path class="st4" d="M558.7,408.2c0,0,23,44.7,16.8,65.4s-20.7,37.5-45.6,30.4c26.2-9.4,31.1-23.3,33.3-34
			C565.5,459.4,558.7,408.2,558.7,408.2z"/>
		<path class="Graphic_x0020_Style_x0020_40" d="M529.9,396.3c0,0-26.2,42.4-29.8,59.2c-3.6,16.8,0.6,26.9,3.6,28.5
			c2.9,1.6,17.8,3.2,20.7-12.3C527.3,456.1,529.9,396.3,529.9,396.3z"/>
		<path class="st1" d="M505.6,463.1c0,0-3.6,7.5,0,11.7c3.6,4.1,11.9,0,12.9-8.3C519.4,458.2,505.6,463.1,505.6,463.1z"/>
		<path class="st1" d="M512.4,442.7c0,0-6.1,9.2-3.2,10.9c2.9,1.7,9.1,1.2,9.3-3.2C518.7,446.1,516.7,440.3,512.4,442.7z"/>
	</g>
</g>
</svg>
