<?xml version="1.0" encoding="utf-8"?>
<!-- Generator: Adobe Illustrator 25.4.1, SVG Export Plug-In . SVG Version: 6.00 Build 0)  -->
<svg version="1.1" id="Capa_1" xmlns="http://www.w3.org/2000/svg" xmlns:xlink="http://www.w3.org/1999/xlink" x="0px" y="0px"
	 viewBox="0 0 1080 1350" style="enable-background:new 0 0 1080 1350;" xml:space="preserve">
<style type="text/css">
	.st0{opacity:0.6;fill:#4B84A4;}
	.st1{fill:#A2DDE9;}
	.st2{fill:#1A4B6C;}
	.st3{fill:#FBFFFC;}
	.st4{fill:#E6E6E6;}
	.st5{fill:#B1B1B1;}
	.st6{fill:#9C9C9C;}
	.st7{fill:#CFCFCF;}
	.st8{fill:#024A74;}
	.st9{fill:#FFFFFF;}
	.st10{enable-background:new    ;}
	.st11{fill:#929292;}
	.st12{fill:#DADADA;}
	.st13{fill:#CACACA;}
	.st14{clip-path:url(#SVGID_00000128446784092158123230000009438854493234898091_);}
	.st15{fill:#C1C1C1;}
	.st16{clip-path:url(#SVGID_00000010299299418582662350000017096476444474195123_);}
	.st17{clip-path:url(#SVGID_00000047757261655308354980000012635010253592053648_);}
	.st18{fill:#EEEEEE;}
	.st19{fill:#D9D9D9;}
	.st20{fill:#9A9A9A;}
	.st21{fill:#C5C5C5;}
	.st22{clip-path:url(#SVGID_00000135662934212415893600000003548224601895569838_);enable-background:new    ;}
	.st23{fill:#A8A8A8;}
	.st24{fill:#D2D2D2;}
</style>
<g>
	<path class="st0" d="M820,688.1l-93.7-85l-92.3-14.4L321,778.4c0,0-61.7,39.7-67.8,83.9c0,0.1,0,0.2,0,0.4c0,0,0,0.1,0,0.1
		c0,0.1,0,0.2,0,0.3c0,0.1,0,0.1,0,0.2c0,0.1,0,0.2,0,0.3c0,0.1,0,0.2,0,0.2c0,0.1,0,0.2,0,0.3c0,0.1,0,0.2,0,0.3c0,0.1,0,0.2,0,0.4
		c0,0.1,0,0.2,0,0.3c0,0.1,0,0.3,0,0.4c0,0.2,0,0.5,0.1,0.8c0,0.1,0,0.2,0,0.3c0,0.2,0,0.3,0.1,0.5c0,0.1,0,0.2,0,0.3
		c0,0.2,0,0.4,0.1,0.6c0,0.1,0,0.2,0,0.4c0,0.2,0,0.4,0.1,0.6c0,0.1,0,0.2,0,0.3c0,0.2,0.1,0.5,0.1,0.7c0,0.1,0,0.2,0,0.2
		c2.7,20.2,12.5,69.3,12.8,70l0,0c0,0,87.7,9,185.2-33.7l24.4-4.6l-0.1-0.1c17.8,1.3,44.5-7,74.7-24.7l4.3-2.6l6.5,0.8
		c-0.8,1.6-1.3,3.2-1.4,4.6c-0.1,2.6,1.3,4.1,3.6,4.4l1.6,0.2c0,0,0,0,0,0c2.3,0.3,5.5-0.6,9.1-2.7c2.3-1.4,4.5-3.1,6.4-5l25.3,1.9
		c0,0,0,0,0,0c0.4,0.1,1-0.1,1.7-0.5c1.3-0.8,2.4-2.2,2.5-3.2c0-0.5-0.3-0.8-0.7-0.8c0,0,0,0,0,0l-23.6-4.1c1.1-1.9,1.7-3.8,1.8-5.4
		c0.1-2.8-1.5-4.2-4-4.4c0.2,0,0.3,0,0.5,0l-1.6-0.2c-1.2-0.1-2.6,0-4.2,0.5l91.4-54.4l0.1-1.3l26.5-2.3l45.2-27.3l0.7-19.2
		l-34.6-0.3L820,688.1z M568.2,867.1l-0.3,0l0.9-0.5C568.6,866.7,568.4,866.9,568.2,867.1z"/>
	<g>
		<g>
			<path class="st1" d="M764.1,528.4l-21.9,84.6c0,0-1.2,16.2-12.4,34.4c-10.4,17-48.4,38.9-48.4,38.9l-321.7,189
				c0,0-63.3,33.5-123.4,2.4c-9.6-4.9-100.8-80-101.9-81.1C133.3,795.7,764.1,528.4,764.1,528.4z"/>
			<g>
				<path class="st2" d="M341,854.7c0,0-58.7,31.5-120.5,11.5c7.9,6.1,13.7,10.4,15.8,11.5c60.1,31.1,123.4-2.4,123.4-2.4l321.7-189
					c0,0,38-21.9,48.4-38.9c11.1-18.2,12.4-34.4,12.4-34.4l0.5-1.8c-16.7,14.2-38.3,26.9-38.3,26.9L341,854.7z"/>
			</g>
			<g>
				<g>
					<path class="st3" d="M246.5,595.7c-108.8,65.7-112.2,201-112.2,201s0.2,0,0.5,0l198-148.8L246.5,595.7z"/>
					<path class="st3" d="M332.9,647.8l-198,148.8c11.7-0.8,208.9-14.9,314.4-78.6L332.9,647.8z"/>
				</g>
				<g>
					<polygon class="st3" points="246.5,595.7 449.3,718.1 764.1,528.4 764.1,528.4 563.3,408.4 					"/>
				</g>
			</g>
			<g>
				<g>
					<polygon class="st4" points="267.4,593.8 453.4,706.1 746.6,529.5 746.6,529.5 562.4,419.3 					"/>
				</g>
			</g>
			<g>
				<polygon class="st5" points="267.4,593.8 284.2,603.9 562.4,439.4 562.4,419.3 				"/>
				<polygon class="st6" points="562.4,419.3 562.4,419.3 562.4,439.4 562.4,439.4 729.9,539.6 746.6,529.5 				"/>
			</g>
			<g>
				<path class="st7" d="M536.6,565.8l-293,41.1c-5.3,3.3-10.2,6.7-14.8,10.2l-8.4-16.3l-23.5,52.3c-1.6,3.1-3,6.1-4.1,9.2l0,0l0,0
					c-9.7,26.6-0.6,52.9,28.9,70.7c51.1,30.8,143.9,24.6,208.3-13.7L536.6,656L536.6,565.8z"/>
				<path class="st8" d="M515.5,578.9l-271.9,28c-5.3,3.3-10.2,6.7-14.8,10.2l-8.4-16.3l-23.5,52.3c-1.6,3.1-3,6.1-4.1,9.2l0,0l0,0
					c-9.7,26.6-0.6,52.9,28.9,70.7c51.1,30.8,143.9,24.6,208.3-13.7l85.5-51V578.9z"/>
				<g>
					<path class="st3" d="M536.6,565.8l-115.2,68.8c-53.7,32-131.2,37.1-173.8,11.4c-42.6-25.7-34.3-72.7,18.3-105.3l114.4-69.5
						L536.6,565.8z"/>
				</g>
			</g>
			<path class="st9" d="M731,590.5c0,12.2-8.2,27.1-18.3,33.2l0,0c-10.1,6.1-18.3,1.2-18.3-11.1v-1.4c0-12.2,8.2-27.1,18.3-33.2l0,0
				c10.1-6.1,18.3-1.2,18.3,11.1L731,590.5z"/>
			<path class="st8" d="M728.8,591.7c0,10.7-7.2,23.8-16.1,29.2l0,0c-8.9,5.4-16.1,1-16.1-9.7V610c0-10.7,7.2-23.8,16.1-29.2l0,0
				c8.9-5.4,16.1-1,16.1,9.7V591.7z"/>
			<path class="st9" d="M676.9,623.4c0,12.2-8.2,27.1-18.3,33.2l0,0c-10.1,6.1-18.3,1.2-18.3-11.1v-1.4c0-12.2,8.2-27.1,18.3-33.2
				l0,0c10.1-6.1,18.3-1.2,18.3,11.1V623.4z"/>
			<path class="st8" d="M674.4,624.8c0,10.5-7.1,23.3-15.8,28.6l0,0c-8.7,5.3-15.8,1-15.8-9.5v-1.2c0-10.5,7.1-23.3,15.8-28.6l0,0
				c8.7-5.3,15.8-1,15.8,9.5V624.8z"/>
			<g>
				<g>
					<g class="st10">
						<g class="st10">
							<g class="st10">
								<path class="st11" d="M282.4,592.4l-0.1,31.6c0,0.3-0.1,0.6-0.2,0.9l0.1-31.6C282.3,592.9,282.4,592.6,282.4,592.4
									L282.4,592.4z"/>
								<path class="st5" d="M282.2,593.2l-0.1,31.6c-0.3,0.6-0.8,1.2-1.6,1.7c-1.2,0.7-2.8,1.1-4.4,1.1l0.1-31.6
									c1.6,0,3.2-0.3,4.4-1.1C281.4,594.5,281.9,593.9,282.2,593.2L282.2,593.2z"/>
								<path class="st12" d="M276.1,596l-0.1,31.6c-1.5,0-3.1-0.4-4.2-1.1c-1.2-0.7-1.8-1.7-1.8-2.6l0.1-31.6c0,1,0.6,1.9,1.8,2.6
									C273.1,595.7,274.6,596,276.1,596L276.1,596z"/>
							</g>
						</g>
						<g>
							<path class="st13" d="M280.5,589.7c2.4,1.4,2.4,3.8,0,5.2c-2.4,1.4-6.3,1.4-8.7,0c-2.4-1.4-2.4-3.8,0-5.2
								C274.3,588.3,278.1,588.3,280.5,589.7z"/>
						</g>
					</g>
				</g>
				<g>
					<g class="st10">
						<g class="st10">
							<defs>
								<path id="SVGID_1_" class="st10" d="M301.1,590.4l0,2.7c0,3.8-2.4,7.7-7.2,10.6c-9.7,5.9-25.5,5.9-35.2,0
									c-4.9-3-7.4-6.9-7.4-10.7l0-2.7c0,3.9,2.4,7.8,7.4,10.7c9.8,5.9,25.5,5.9,35.2,0C298.7,598.1,301.1,594.2,301.1,590.4z"/>
							</defs>
							<clipPath id="SVGID_00000108276044954003874640000013758882556372257467_">
								<use xlink:href="#SVGID_1_"  style="overflow:visible;"/>
							</clipPath>
							<g style="clip-path:url(#SVGID_00000108276044954003874640000013758882556372257467_);">
								<path class="st15" d="M301.1,590.4l0,2.7c0,3.8-2.4,7.7-7.2,10.6c-9.7,5.9-25.5,5.9-35.2,0c-4.9-3-7.4-6.9-7.4-10.7l0-2.7
									c0,3.9,2.4,7.8,7.4,10.7c9.8,5.9,25.5,5.9,35.2,0C298.7,598.1,301.1,594.2,301.1,590.4L301.1,590.4z"/>
							</g>
						</g>
						<g>
							<path class="st9" d="M293.7,579.7c9.8,5.9,9.8,15.4,0.1,21.3c-9.7,5.9-25.5,5.9-35.2,0c-9.8-5.9-9.8-15.4-0.1-21.3
								C268.2,573.8,284,573.8,293.7,579.7z"/>
						</g>
					</g>
				</g>
				<g>
					<g class="st10">
						<g class="st10">
							<g class="st10">
								<path class="st11" d="M282.4,557.6l-0.1,31.6c0,0.3-0.1,0.6-0.2,0.9l0.1-31.6C282.3,558.1,282.4,557.9,282.4,557.6
									L282.4,557.6z"/>
								<path class="st5" d="M282.2,558.4l-0.1,31.6c-0.3,0.6-0.8,1.2-1.6,1.7c-1.2,0.7-2.8,1.1-4.4,1.1l0.1-31.6
									c1.6,0,3.2-0.3,4.4-1.1C281.4,559.7,281.9,559.1,282.2,558.4L282.2,558.4z"/>
								<path class="st12" d="M276.1,561.2l-0.1,31.6c-1.5,0-3.1-0.4-4.2-1.1c-1.2-0.7-1.8-1.7-1.8-2.6l0.1-31.6
									c0,1,0.6,1.9,1.8,2.6C273.1,560.9,274.6,561.2,276.1,561.2L276.1,561.2z"/>
							</g>
						</g>
						<g>
							<path class="st13" d="M280.5,554.9c2.4,1.4,2.4,3.8,0,5.2c-2.4,1.4-6.3,1.4-8.7,0c-2.4-1.4-2.4-3.8,0-5.2
								C274.3,553.5,278.1,553.5,280.5,554.9z"/>
						</g>
					</g>
				</g>
				<g>
					<g class="st10">
						<g class="st10">
							<defs>
								<path id="SVGID_00000044166772193165400080000013466979918569886869_" class="st10" d="M297,553.8l0,2.3
									c0,3.2-2,6.4-6.1,8.9c-8.1,4.9-21.3,4.9-29.5,0c-4.1-2.5-6.2-5.7-6.2-9l0-2.3c0,3.3,2,6.5,6.2,9c8.2,4.9,21.4,4.9,29.5,0
									C295,560.2,297,557,297,553.8z"/>
							</defs>
							<clipPath id="SVGID_00000049184896362716668350000002298268835666899376_">
								<use xlink:href="#SVGID_00000044166772193165400080000013466979918569886869_"  style="overflow:visible;"/>
							</clipPath>
							<g style="clip-path:url(#SVGID_00000049184896362716668350000002298268835666899376_);">
								<path class="st15" d="M297,553.8l0,2.3c0,3.2-2,6.4-6.1,8.9c-8.1,4.9-21.3,4.9-29.5,0c-4.1-2.5-6.2-5.7-6.2-9l0-2.3
									c0,3.3,2,6.5,6.2,9c8.2,4.9,21.4,4.9,29.5,0C295,560.2,297,557,297,553.8L297,553.8z"/>
							</g>
						</g>
						<g>
							<path class="st9" d="M290.9,544.8c8.2,4.9,8.2,12.9,0.1,17.9c-8.1,4.9-21.3,4.9-29.5,0c-8.2-4.9-8.2-12.9-0.1-17.8
								C269.5,539.9,282.7,539.9,290.9,544.8z"/>
						</g>
					</g>
				</g>
				<g>
					<g class="st10">
						<g class="st10">
							<g class="st10">
								<path class="st11" d="M282.4,521.1l-0.1,31.6c0,0.3-0.1,0.6-0.2,0.9l0.1-31.6C282.3,521.7,282.4,521.4,282.4,521.1
									L282.4,521.1z"/>
								<path class="st5" d="M282.2,522l-0.1,31.6c-0.3,0.6-0.8,1.2-1.6,1.7c-1.2,0.7-2.8,1.1-4.4,1.1l0.1-31.6
									c1.6,0,3.2-0.3,4.4-1.1C281.4,523.2,281.9,522.6,282.2,522L282.2,522z"/>
								<path class="st12" d="M276.1,524.8l-0.1,31.6c-1.5,0-3.1-0.4-4.2-1.1c-1.2-0.7-1.8-1.7-1.8-2.6l0.1-31.6
									c0,1,0.6,1.9,1.8,2.6C273.1,524.4,274.6,524.8,276.1,524.8L276.1,524.8z"/>
							</g>
						</g>
						<g>
							<path class="st13" d="M280.5,518.5c2.4,1.4,2.4,3.8,0,5.2c-2.4,1.4-6.3,1.4-8.7,0c-2.4-1.4-2.4-3.8,0-5.2
								C274.3,517,278.1,517,280.5,518.5z"/>
						</g>
					</g>
				</g>
				<g>
					<g class="st10">
						<g class="st10">
							<defs>
								<path id="SVGID_00000116230928467434568700000017430821725620500101_" class="st10" d="M293.9,518.4l0,1.9
									c0,2.7-1.7,5.4-5.1,7.5c-6.9,4.2-18.1,4.2-25,0c-3.5-2.1-5.2-4.9-5.2-7.6l0-1.9c0,2.8,1.7,5.5,5.2,7.6
									c6.9,4.2,18.1,4.2,25,0C292.1,523.8,293.9,521.1,293.9,518.4z"/>
							</defs>
							<clipPath id="SVGID_00000151516764368656731340000003822379533491428250_">
								<use xlink:href="#SVGID_00000116230928467434568700000017430821725620500101_"  style="overflow:visible;"/>
							</clipPath>
							<g style="clip-path:url(#SVGID_00000151516764368656731340000003822379533491428250_);">
								<path class="st15" d="M293.9,518.4l0,1.9c0,2.7-1.7,5.4-5.1,7.5c-6.9,4.2-18.1,4.2-25,0c-3.5-2.1-5.2-4.9-5.2-7.6l0-1.9
									c0,2.8,1.7,5.5,5.2,7.6c6.9,4.2,18.1,4.2,25,0C292.1,523.8,293.9,521.1,293.9,518.4L293.9,518.4z"/>
							</g>
						</g>
						<g>
							<path class="st9" d="M288.6,510.8c6.9,4.2,7,11,0.1,15.2s-18.1,4.2-25,0c-6.9-4.2-7-11-0.1-15.2
								C270.5,506.6,281.7,506.6,288.6,510.8z"/>
						</g>
					</g>
				</g>
				<g>
					<g class="st10">
						<g class="st10">
							<g class="st10">
								<path class="st11" d="M279.6,478.9l2.1,39.9c0,0.3-0.1,0.5-0.2,0.8l-2-40.2C279.6,479.2,279.6,479,279.6,478.9L279.6,478.9z
									"/>
								<path class="st15" d="M279.5,479.3l2,40.2c-0.2,0.6-0.7,1.1-1.4,1.6c-1.1,0.7-2.5,1-4,1l0.2-41.2c0.9,0,1.7-0.2,2.4-0.6
									C279.1,480,279.4,479.7,279.5,479.3L279.5,479.3z"/>
								<path class="st12" d="M276.2,480.9l-0.2,41.2c-1.4,0-2.7-0.3-3.8-1c-1.1-0.7-1.6-1.5-1.6-2.4l2.3-39.9c0,0.5,0.3,1,1,1.4
									C274.6,480.7,275.4,480.9,276.2,480.9L276.2,480.9z"/>
							</g>
						</g>
						<g>
							<path class="st9" d="M278.6,477.5c1.3,0.8,1.3,2,0,2.8c-1.3,0.8-3.4,0.8-4.7,0c-1.3-0.8-1.3-2,0-2.8
								C275.2,476.7,277.3,476.7,278.6,477.5z"/>
						</g>
					</g>
				</g>
			</g>
			<g>
				<g>
					<polygon class="st18" points="415.3,461 389.5,445.3 359.8,553 385.6,568.6 					"/>
				</g>
				<g>
					<polygon class="st9" points="459.2,435 433.4,419.3 389.5,445.3 415.3,461 					"/>
				</g>
				<g>
					<polygon class="st12" points="415.3,461 385.6,568.6 445.5,533 459.2,435 					"/>
				</g>
			</g>
			<g>
				<g>
					<g class="st10">
						<g>
							<polygon class="st9" points="421.6,785.5 622.8,662.1 609.3,653.5 408.1,776.9 							"/>
						</g>
						<g>
							<polygon class="st19" points="421.6,791 622.8,667.6 622.8,662.1 421.6,785.5 							"/>
						</g>
					</g>
				</g>
				<g>
					<polygon class="st20" points="421.6,785.5 421.6,791 408.1,782.4 408.1,776.9 					"/>
				</g>
			</g>
		</g>
		<g>
			<g>
				<g class="st10">
					<g>
						<polygon class="st9" points="543.9,494.5 591.8,465.4 565.7,449.7 517.8,478.8 						"/>
					</g>
					<g>
						<polygon class="st20" points="543.8,504.4 591.7,475.3 591.8,465.4 543.9,494.5 						"/>
					</g>
				</g>
			</g>
			<g>
				<polygon class="st21" points="543.9,494.5 543.8,504.4 517.8,488.7 517.8,478.8 				"/>
			</g>
		</g>
		<g>
			<g class="st10">
				<g class="st10">
					<defs>
						<path id="SVGID_00000017481666638836629190000001741772285533916333_" class="st10" d="M619.3,579.1l0,7.2
							c0,5.4-3.4,10.9-10.3,15c-13.8,8.4-36.2,8.4-50,0c-7-4.2-10.5-9.7-10.4-15.3l0-7.2c0,5.5,3.5,11,10.4,15.2
							c13.9,8.4,36.3,8.4,50,0C615.8,589.9,619.2,584.5,619.3,579.1z"/>
					</defs>
					<clipPath id="SVGID_00000160897447207247938390000014007114577378902152_">
						<use xlink:href="#SVGID_00000017481666638836629190000001741772285533916333_"  style="overflow:visible;"/>
					</clipPath>
					<g style="clip-path:url(#SVGID_00000160897447207247938390000014007114577378902152_);enable-background:new    ;">
						<path class="st23" d="M619.3,579.1l0,7.2c0,5.4-3.4,10.9-10.3,15c-0.8,0.5-1.6,0.9-2.5,1.4l0-7.2c0.9-0.4,1.7-0.9,2.5-1.4
							C615.8,589.9,619.2,584.5,619.3,579.1L619.3,579.1z"/>
						<path class="st24" d="M606.5,595.5l0,7.2c-6.9,3.5-15.6,5.1-24.1,4.9l0-7.2C590.9,600.6,599.5,599,606.5,595.5L606.5,595.5z"
							/>
						<path class="st23" d="M582.4,600.4l0,7.2c-8.5-0.2-16.9-2.3-23.4-6.3c-7-4.2-10.5-9.7-10.4-15.3l0-7.2c0,5.5,3.5,11,10.4,15.2
							C565.5,598,573.9,600.1,582.4,600.4L582.4,600.4z"/>
					</g>
				</g>
				<g>
					<path class="st9" d="M608.8,563.8c13.9,8.4,13.9,21.9,0.2,30.3c-13.8,8.4-36.2,8.4-50,0c-13.9-8.4-13.9-21.9-0.2-30.3
						C572.5,555.4,595,555.4,608.8,563.8z"/>
				</g>
			</g>
		</g>
	</g>
</g>
</svg>
