<?xml version="1.0" encoding="utf-8"?>
<!-- Generator: Adobe Illustrator 25.4.1, SVG Export Plug-In . SVG Version: 6.00 Build 0)  -->
<svg version="1.1" id="Capa_1" xmlns="http://www.w3.org/2000/svg" xmlns:xlink="http://www.w3.org/1999/xlink" x="0px" y="0px"
	 viewBox="0 0 1080 1350" style="enable-background:new 0 0 1080 1350;" xml:space="preserve">
<style type="text/css">
	.st0{fill:#E0E0E0;}
	.st1{fill:#009C59;}
	.st2{fill:#6EA11B;}
	.st3{opacity:0.3;fill:#6EA11B;}
	.st4{fill:#F8D72C;}
	.st5{opacity:0.5;}
	.st6{fill:#7DB92E;}
	.st7{fill:#871217;}
	.st8{fill:#F36B1D;}
	.st9{fill:#E5AC67;}
	.st10{fill:#B5181E;}
	.st11{opacity:0.2;}
	.st12{fill:#FFFFFF;}
	.st13{fill:#C8C3BA;}
	.st14{fill:#EEEEEE;}
	.st15{fill:#461913;}
	.st16{opacity:0.3;fill:#FFFFFF;}
	.st17{opacity:0.1;}
</style>
<g>
	<ellipse class="st0" cx="505.5" cy="874.4" rx="305.5" ry="10.1"/>
	<g>
		<path class="st1" d="M570.9,845l5.8,11.8H337.4l5.8-11.8l2.9-5.9l0.7-1.5c10.1-20.6,15.3-43.2,15.3-66.1v-77.2c0-0.3,0-0.6,0-0.9
			c-0.1-10.4-1.2-20.8-3.4-30.9c-0.6-2.7-1.3-5.4-2-8.1c-0.5-2-1.1-3.9-1.7-5.9c-2.2-6.9-4.9-13.7-8.2-20.3l-9.4-19.2h239.3
			l-9.4,19.2c-3.2,6.6-6,13.3-8.2,20.3c-0.6,1.9-1.2,3.9-1.7,5.9c-0.7,2.7-1.4,5.4-2,8.1c-2.2,10.1-3.4,20.5-3.4,30.9
			c0,0.3,0,0.6,0,0.9v77.2c0,22.9,5.2,45.5,15.3,66.1l0.7,1.5L570.9,845z"/>
		<g>
			<rect x="337.4" y="591.3" class="st2" width="239.3" height="17.6"/>
			<g>
				<rect x="346.2" y="591.3" class="st3" width="6.3" height="17.6"/>
				<rect x="358.1" y="591.3" class="st3" width="6.3" height="17.6"/>
				<rect x="370.1" y="591.3" class="st3" width="6.3" height="17.6"/>
				<rect x="382.1" y="591.3" class="st3" width="6.3" height="17.6"/>
				<rect x="394" y="591.3" class="st3" width="6.3" height="17.6"/>
				<rect x="406" y="591.3" class="st3" width="6.3" height="17.6"/>
				<rect x="418" y="591.3" class="st3" width="6.3" height="17.6"/>
				<rect x="429.9" y="591.3" class="st3" width="6.3" height="17.6"/>
				<rect x="441.9" y="591.3" class="st3" width="6.3" height="17.6"/>
				<rect x="453.9" y="591.3" class="st3" width="6.3" height="17.6"/>
				<rect x="465.8" y="591.3" class="st3" width="6.3" height="17.6"/>
				<rect x="477.8" y="591.3" class="st3" width="6.3" height="17.6"/>
				<rect x="489.8" y="591.3" class="st3" width="6.3" height="17.6"/>
				<rect x="501.7" y="591.3" class="st3" width="6.3" height="17.6"/>
				<rect x="513.7" y="591.3" class="st3" width="6.3" height="17.6"/>
				<rect x="525.7" y="591.3" class="st3" width="6.3" height="17.6"/>
				<rect x="537.6" y="591.3" class="st3" width="6.3" height="17.6"/>
				<rect x="549.6" y="591.3" class="st3" width="6.3" height="17.6"/>
				<rect x="561.6" y="591.3" class="st3" width="6.3" height="17.6"/>
			</g>
		</g>
		<g>
			<rect x="337.4" y="856.8" class="st2" width="239.3" height="17.6"/>
			<g>
				<rect x="346.2" y="856.8" class="st3" width="6.3" height="17.6"/>
				<rect x="358.1" y="856.8" class="st3" width="6.3" height="17.6"/>
				<rect x="370.1" y="856.8" class="st3" width="6.3" height="17.6"/>
				<rect x="382.1" y="856.8" class="st3" width="6.3" height="17.6"/>
				<rect x="394" y="856.8" class="st3" width="6.3" height="17.6"/>
				<rect x="406" y="856.8" class="st3" width="6.3" height="17.6"/>
				<rect x="418" y="856.8" class="st3" width="6.3" height="17.6"/>
				<rect x="429.9" y="856.8" class="st3" width="6.3" height="17.6"/>
				<rect x="441.9" y="856.8" class="st3" width="6.3" height="17.6"/>
				<rect x="453.9" y="856.8" class="st3" width="6.3" height="17.6"/>
				<rect x="465.8" y="856.8" class="st3" width="6.3" height="17.6"/>
				<rect x="477.8" y="856.8" class="st3" width="6.3" height="17.6"/>
				<rect x="489.8" y="856.8" class="st3" width="6.3" height="17.6"/>
				<rect x="501.7" y="856.8" class="st3" width="6.3" height="17.6"/>
				<rect x="513.7" y="856.8" class="st3" width="6.3" height="17.6"/>
				<rect x="525.7" y="856.8" class="st3" width="6.3" height="17.6"/>
				<rect x="537.6" y="856.8" class="st3" width="6.3" height="17.6"/>
				<rect x="549.6" y="856.8" class="st3" width="6.3" height="17.6"/>
				<rect x="561.6" y="856.8" class="st3" width="6.3" height="17.6"/>
			</g>
		</g>
		<path class="st4" d="M555.4,662.4c-2.2,10.1-3.4,20.5-3.4,30.9H362.1c-0.1-10.4-1.2-20.8-3.4-30.9H555.4z"/>
		<path class="st4" d="M559.1,648.4c-0.6,1.9-1.2,3.9-1.7,5.9H356.7c-0.5-2-1.1-3.9-1.7-5.9H559.1z"/>
		<polygon class="st4" points="570.9,845 343.2,845 346,839.1 568,839.1 		"/>
		<g class="st5">
			<path class="st6" d="M401.7,771.5c0,0,0-77.9,0-78.2c-0.1-10.9-1.3-21.9-3.6-32.6c-0.6-2.9-9.2-29.3-12.6-36.2l-2.2-4.5
				c-0.9-1.7-2.6-2.8-4.5-2.8h-20.1c-3.7,0-6.2,3.9-4.5,7.3l0,0c3.4,6.9,12,33.3,12.6,36.2c2.3,10.7,3.5,21.6,3.6,32.6
				c0,0.3,0,78.2,0,78.2c0,24-5.6,48.2-16.2,69.8l0,0c-1.6,3.4,0.8,7.3,4.5,7.3h20.1c1.9,0,3.7-1.1,4.5-2.8l2.2-4.5
				C396.1,819.6,401.7,795.5,401.7,771.5z"/>
		</g>
		<g class="st5">
			<path class="st6" d="M514,771.5c0,0,0-77.9,0-78.2c0.1-10.9,1.3-21.9,3.6-32.6c0.6-2.9,9.2-29.3,12.6-36.2l2.2-4.5
				c0.9-1.7,2.6-2.8,4.5-2.8H557c3.7,0,6.2,3.9,4.5,7.3l0,0c-3.4,6.9-12,33.3-12.6,36.2c-2.3,10.7-3.5,21.6-3.6,32.6
				c0,0.3,0,78.2,0,78.2c0,24,5.6,48.2,16.2,69.8l0,0c1.6,3.4-0.8,7.3-4.5,7.3h-20.1c-1.9,0-3.7-1.1-4.5-2.8l-2.2-4.5
				C519.6,819.6,514,795.5,514,771.5z"/>
		</g>
		<path class="st4" d="M475.5,800.4c-3.2,8.4-18,19.2-34.8,12.9c-16.8-6.3-29.3-27.3-26.1-35.7c3.2-8.4,18.7,3,35.5,9.3
			C466.9,793.2,478.7,792,475.5,800.4z"/>
		<path class="st4" d="M445.1,759.3c-7.7,4.7-18.2,4.5-27.6-10.8c-9.4-15.3-6.3-39.5,1.4-44.2c7.7-4.7,7,21.7,16.4,37
			C444.7,756.6,452.8,754.6,445.1,759.3z"/>
		<path class="st4" d="M464.9,777c6.5,6.2,24.5,9.5,36.9-3.5c12.4-13,14.5-37.3,8-43.5c-6.5-6.2-10.9,13.2-23.3,26.1
			C474.1,769.1,458.3,770.7,464.9,777z"/>
		<g class="st5">
			<path class="st6" d="M412.7,841.2c10.6-21.6,16.2-45.7,16.2-69.8c0,0,0-77.9,0-78.2c-0.1-10.9-1.3-21.9-3.6-32.6
				c-0.5-2.3-9-27.3-14-40.3c-0.7-1.9-2.6-3.2-4.6-3.2h-1.4c-3.7,0-6.2,3.9-4.5,7.3c3.4,6.9,12,33.3,12.6,36.2
				c2.3,10.7,3.5,21.6,3.6,32.6c0,0.3,0,78.2,0,78.2c0,24-5.6,48.2-16.2,69.8c-1.6,3.4,0.8,7.3,4.5,7.3h0.1c2.4,0,4.6-1.4,5.6-3.6
				L412.7,841.2z"/>
		</g>
		<path class="st4" d="M457.3,738.1c-1.3,0-2.5,0.8-2.9,2.1c-1.7,4.5,8.6,6.9,22.7,0.6c16.4-7.4,27.5-29.1,23.8-37.3
			c-3.7-8.2-11.9,21.9-28.3,29.3C462.8,737.1,458.8,738.1,457.3,738.1z"/>
	</g>
	<path class="st4" d="M346.8,859.6c-3.2,8.4-18,19.2-34.8,12.9c-16.8-6.3-29.3-27.3-26.1-35.7c3.2-8.4,18.7,3,35.5,9.3
		C338.2,852.4,350,851.2,346.8,859.6z"/>
	<path class="st4" d="M354.2,868.9c6.5,6.2,24.5,9.5,36.9-3.5c12.4-13,14.5-37.3,8-43.5c-6.5-6.2-10.9,13.2-23.3,26.1
		C363.4,861.1,347.7,862.7,354.2,868.9z"/>
	<g>
		<rect x="504" y="857.8" class="st7" width="115.1" height="11.1"/>
		<path class="st8" d="M608.5,658.9h-46.9h-46.9L503.8,673c-3.9,5.1-6,11.3-6,17.8V855c0,4.2,3.4,7.6,7.6,7.6h112.4
			c4.2,0,7.6-3.4,7.6-7.6V690.8c0-6.4-2.1-12.7-6-17.8L608.5,658.9z"/>
		<path class="st9" d="M625.4,732.2c-11.7,13.7-27.1,23.4-46.4,26.4c-16.1,2.5-32.6,1.4-48.9,2.3c-10.7,0.6-22.1,2.2-32.3,6.1v27.3
			c5-1.5,10.2-2.5,15.4-3.2c22-2.7,44.2,1.3,66.2,2.3c16,0.7,31.6-1,46-5.9V732.2z"/>
		<path class="st9" d="M625.4,806.1c-9.7,2-20.8,2.8-33.5,2.1c-16.2-0.9-32.4-3.4-48.7-5c-15.4-1.5-32.2-2.3-45.5,0.2v11.2
			c8.7-0.6,17.8-0.6,27,0.1c22,1.5,43.8,6,65.6,9.2c11.9,1.7,23.7,2.8,35,3V806.1z"/>
		<g class="st5">
			<path class="st10" d="M619.4,673l-10.9-14.1h-22.8l10.9,14.1c3.9,5.1,6,11.3,6,17.8V855c0,4.2-3.4,7.6-7.6,7.6h22.8
				c4.2,0,7.6-3.4,7.6-7.6V690.8C625.4,684.4,623.3,678.1,619.4,673z"/>
		</g>
		<g class="st11">
			<path class="st12" d="M527,855V690.8c0-6.4,2.1-12.7,6-17.8l10.9-14.1h-14.8L518.3,673c-3.9,5.1-6,11.3-6,17.8V855
				c0,4.2,3.4,7.6,7.6,7.6h14.8C530.4,862.6,527,859.2,527,855z"/>
		</g>
		<path class="st13" d="M617.2,874.4H505.9c-1.7,0-3.2-1.4-3.2-3.2l0,0c0-1.7,1.4-3.2,3.2-3.2h111.2c1.7,0,3.2,1.4,3.2,3.2l0,0
			C620.4,873,618.9,874.4,617.2,874.4z"/>
		<g class="st11">
			<path class="st12" d="M514.6,658.9L503.8,673c-2.1,2.8-3.7,5.9-4.7,9.2h125c-1-3.3-2.6-6.4-4.7-9.2l-10.9-14.1h-46.9H514.6z"/>
		</g>
		<path class="st13" d="M606.6,659.6h-90c-2.4,0-4.3-2-4.3-4.3l0,0c0-2.4,2-4.3,4.3-4.3h90c2.4,0,4.3,2,4.3,4.3l0,0
			C610.9,657.7,609,659.6,606.6,659.6z"/>
		<path class="st13" d="M544.5,652.8h-13.4c-1.7,0-3-1.4-3-3l0,0c0-1.7,1.4-3,3-3h13.4c1.7,0,3,1.4,3,3l0,0
			C547.5,651.5,546.2,652.8,544.5,652.8z"/>
		
			<ellipse transform="matrix(0.2298 -0.9732 0.9732 0.2298 -273.7607 1105.5337)" class="st9" cx="561.6" cy="725.7" rx="22.6" ry="22.6"/>
	</g>
	<g>
		<path class="st14" d="M754.5,697.8c0-9.2,1.4-17.7,4-25.1c2.1-6.1,3.1-12.6,3.1-19l0-7.6c0-10.5-2.7-20.8-7.9-29.9l-18.1-32
			c-6.1-10.7-9.2-22.7-9.2-35V536h-41.2v13.3c0,12.3-3.2,24.3-9.2,35l-18.1,32c-5.2,9.1-7.9,19.4-7.9,29.9v7.6c0,6.5,1,12.9,3.1,19
			c2.5,7.4,4,15.9,4,25.1c0,9.3-1.5,18-4.1,25.5c-2,5.9-2.9,12-2.9,18.2v124.3c0,4.8,3.9,8.6,8.6,8.6h94.5c4.8,0,8.6-3.9,8.6-8.6
			l0-124.3c0-6.2-0.9-12.4-2.9-18.2C756,715.8,754.5,707.1,754.5,697.8z"/>
		<path class="st15" d="M742.1,595.8h-72.9l-11.5,20.4c-5.2,9.1-7.9,19.4-7.9,29.9v7.6c0,6.5,1,12.9,3.1,19c2.5,7.4,4,15.9,4,25.1
			c0,9.3-1.5,18-4.1,25.5c-2,5.9-2.9,12-2.9,18.2l0,124.3c0,4.8,3.9,8.6,8.6,8.6h94.5c4.8,0,8.6-3.9,8.6-8.6l0-124.3
			c0-6.2-0.9-12.4-2.9-18.2c-2.6-7.4-4.1-16.1-4.1-25.5c0-9.2,1.4-17.7,4-25.1c2.1-6.1,3.1-12.6,3.1-19v-7.6
			c0-10.5-2.7-20.8-7.9-29.9L742.1,595.8z"/>
		<path class="st10" d="M649.8,646.4v7.3c0,6.5,1,12.9,3.1,19c2.5,7.4,4,15.9,4,25.1c0,4.9-0.4,9.7-1.2,14.2h100.1
			c-0.8-4.5-1.2-9.3-1.2-14.2c0-9.2,1.4-17.7,4-25.1c2.1-6.1,3.1-12.6,3.1-19v-7.3H649.8z"/>
		<path class="st16" d="M695.2,549v0.2c0,12.3-3.2,24.3-9.2,35l-18.1,32c-5.2,9.1-7.9,19.4-7.9,29.9l0,7.6c0,6.5,1,12.9,3.1,19
			c2.5,7.4,4,15.9,4,25.1c0,9.3-1.5,18-4.1,25.5c-2,5.9-2.9,12-2.9,18.2l0,112c0,4.8,3.9,8.8,8.8,8.8h0c4.8,0,8.8-3.9,8.8-8.8l0-112
			c0-6.2,0.9-12.4,2.9-18.2c2.6-7.4,4.1-16.1,4.1-25.5c0-9.2-1.4-17.7-4-25.1c-2.1-6.1-3.1-12.6-3.1-19v-7.6
			c0-10.5,0.2-20.8,5.4-29.9l15.6-32c6.1-10.7,6.7-22.7,6.7-35V549c0-2.7-2.2-5-5-5l0,0C697.4,544.1,695.2,546.3,695.2,549z"/>
		<path class="st17" d="M761.6,653.7v-7.6c0-10.5-2.7-20.8-7.9-29.9l-18.1-32c-6.1-10.7-9.2-22.7-9.2-35V536h-10.5v13.3
			c0,12.3-1.9,24.3,4.2,35l13.1,32c5.2,9.1,5.4,19.4,5.4,29.9v7.6c0,6.5-1,12.9-3.1,19c-2.5,7.4-4,15.9-4,25.1
			c0,9.3,1.5,18,4.1,25.5c2,5.9,2.9,12,2.9,18.2l0,124.3c0,4.8-3.9,8.6-8.6,8.6h23.2c4.8,0,8.6-3.9,8.6-8.6l0-124.3
			c0-6.2-0.9-12.4-2.9-18.2c-2.6-7.4-4.1-16.1-4.1-25.5c0-9.2,1.4-17.7,4-25.1C760.6,666.6,761.6,660.2,761.6,653.7z"/>
		<path class="st10" d="M726.4,539.3h-41.5c-0.7,0-1.2-0.5-1.2-1.2v-15.9c0-0.7,0.5-1.2,1.2-1.2h41.5c0.7,0,1.2,0.5,1.2,1.2v15.9
			C727.6,538.8,727.1,539.3,726.4,539.3z"/>
	</g>
	<path class="st4" d="M572.5,861.4c-2.1,8.8-9.7,16-27.2,11.8c-17.4-4.3-32.3-23.6-30.2-32.4c2.1-8.8,20.3,10.5,37.7,14.8
		C570.3,859.8,574.6,852.6,572.5,861.4z"/>
	<path class="st4" d="M228.1,858.3c-1-0.8-2.4-1-3.6-0.3c-4.2,2.4,2.1,10.8,16.9,15c17.3,4.9,39.8-4.5,42.2-13.2
		c2.5-8.7-23.2,9.1-40.5,4.2C232.9,861.1,229.3,859.3,228.1,858.3z"/>
</g>
</svg>
