<?xml version="1.0" encoding="utf-8"?>
<!-- Generator: Adobe Illustrator 25.4.1, SVG Export Plug-In . SVG Version: 6.00 Build 0)  -->
<svg version="1.1" id="Capa_1" xmlns="http://www.w3.org/2000/svg" xmlns:xlink="http://www.w3.org/1999/xlink" x="0px" y="0px"
	 viewBox="0 0 1080 1350" style="enable-background:new 0 0 1080 1350;" xml:space="preserve">
<style type="text/css">
	.st0{clip-path:url(#SVGID_00000021814330670986151990000011333164576558189954_);}
	.st1{fill:url(#SVGID_00000108274257597024660740000014850820626293987713_);}
	.st2{fill:url(#SVGID_00000036221797912694630650000009662396037596359614_);}
	.st3{opacity:0.5;}
	.st4{fill:#FFFFFF;}
	.st5{opacity:0.3;}
	.st6{opacity:0.2;}
	.st7{opacity:0.4;}
	.st8{fill:url(#SVGID_00000101805492995404853310000006308218028704591038_);}
	.st9{opacity:0.7;fill:url(#SVGID_00000113313220727370138720000001506599896657202054_);}
	.st10{fill:url(#SVGID_00000096052340324497876180000005837133312171926948_);}
	.st11{fill:url(#SVGID_00000057129893790183134800000003744383769362277807_);}
	.st12{opacity:0.5;fill:#3C536D;}
	.st13{fill:#233444;}
	.st14{opacity:0.4;fill:#3C536D;}
	.st15{fill:url(#SVGID_00000154423423706958508870000003779097993914783384_);}
	.st16{fill:#3E5E7F;}
	.st17{fill:url(#SVGID_00000058572356020470311840000010743423801083735739_);}
	.st18{opacity:0.4;fill:#7691B5;}
	.st19{fill:url(#SVGID_00000121979479211476936170000012792672854707491260_);}
	.st20{fill:url(#SVGID_00000023244607675740797180000017779852231255185087_);}
	.st21{opacity:0.2;fill:#3C536D;}
	.st22{fill:url(#SVGID_00000163788132379111745100000010981826271371520394_);}
	.st23{opacity:0.1;fill:#3C536D;}
	.st24{fill:#808E99;}
	.st25{opacity:0.2;fill:url(#SVGID_00000083067933109315745420000004654963757574673317_);}
	.st26{fill:url(#SVGID_00000051362429463852401510000004541329499490393503_);}
	.st27{opacity:0.2;fill:url(#SVGID_00000071542312262241387140000015935976975468162219_);}
</style>
<g>
	<defs>
		<rect id="SVGID_1_" x="266.2" y="391.3" width="547.1" height="566.7"/>
	</defs>
	<clipPath id="SVGID_00000021804299459276223220000016960408095517058194_">
		<use xlink:href="#SVGID_1_"  style="overflow:visible;"/>
	</clipPath>
	<g style="clip-path:url(#SVGID_00000021804299459276223220000016960408095517058194_);">
		
			<linearGradient id="SVGID_00000035532957166160078510000001002776451024303793_" gradientUnits="userSpaceOnUse" x1="625.4791" y1="305.3549" x2="625.4791" y2="775.7517">
			<stop  offset="0" style="stop-color:#2D5286"/>
			<stop  offset="0.239" style="stop-color:#5B9CD4"/>
			<stop  offset="0.297" style="stop-color:#65A7D8"/>
			<stop  offset="0.5415" style="stop-color:#8CD0E8"/>
			<stop  offset="1" style="stop-color:#DFEFF0"/>
		</linearGradient>
		
			<rect x="253" y="391.3" style="fill:url(#SVGID_00000035532957166160078510000001002776451024303793_);" width="745" height="580.5"/>
		<g>
			
				<linearGradient id="SVGID_00000163054251143044817990000000188411191682472088_" gradientUnits="userSpaceOnUse" x1="-1716.9362" y1="747.0247" x2="-1716.9362" y2="810.144" gradientTransform="matrix(-1 0 0 1 -1091.457 0)">
				<stop  offset="0" style="stop-color:#2D5286"/>
				<stop  offset="0.239" style="stop-color:#5B9CD4"/>
				<stop  offset="0.297" style="stop-color:#65A7D8"/>
				<stop  offset="0.5415" style="stop-color:#8CD0E8"/>
				<stop  offset="1" style="stop-color:#DFEFF0"/>
			</linearGradient>
			
				<rect x="253" y="741.2" style="fill:url(#SVGID_00000163054251143044817990000000188411191682472088_);" width="745" height="85.2"/>
			<g class="st3">
				<path class="st4" d="M988.7,808.1c0,0-1.2,0-3.3,0.1c-2.2,0.1-5.4,0.2-9.4,0.3c-8.1,0.2-19.8,0.6-33.7,0.9
					c-13.9,0.2-30.2,0.5-47.7,0.8c-8.7,0.2-17.7,0.4-26.9,0.6c-9.2,0.2-18.5,0.3-27.9,0.1c-1.2,0-2.3,0-3.6-0.1l-3.8-0.4l-0.1,0
					c-0.2,0,0.1,0,0,0l-0.2,0l-0.4-0.1l-0.9-0.1c-0.6-0.1-1.1-0.1-1.6-0.1c-1.1-0.1-2.1-0.1-3.3-0.2c-4.6-0.2-9.2-0.2-13.8-0.3
					c-9.1-0.1-18.1-0.1-26.9-0.2c-17.4-0.1-33.7-0.1-47.6-0.1c-7,0.1-13.4-0.3-19.1-0.5c-5.7-0.2-10.6-0.3-14.7-0.6
					c-4.1-0.3-7.3-0.5-9.4-0.7c-2.2-0.2-3.3-0.3-3.3-0.3s1.2,0,3.3,0c2.2,0,5.4,0,9.4,0c4.1,0,9-0.2,14.7-0.3c2.8-0.1,5.8-0.1,9-0.2
					c3.2-0.1,6.5,0,10-0.2c7-0.2,14.5-0.5,22.5-0.7c8-0.2,16.4-0.5,25.1-0.6c8.7-0.1,17.7-0.3,26.9-0.2c4.6,0,9.2,0,13.9,0.2
					c1.1,0,2.4,0.1,3.6,0.2c0.6,0,1.3,0,1.8,0.1l1.9,0.2l3.1,0.3c1.1,0.1,2.3,0.1,3.4,0.1c9.2,0.3,18.5,0.1,27.6,0
					c9.1-0.1,18.2-0.2,26.9-0.2c8.7,0,17.2,0.2,25.2,0.3c8,0.1,15.5,0.3,22.5,0.4c14,0.2,25.6,0.7,33.7,0.9c4.1,0.1,7.3,0.3,9.4,0.3
					C987.6,808,988.7,808.1,988.7,808.1z"/>
			</g>
			<g class="st5">
				<path class="st4" d="M725.9,802.5c0,0-4.1,0-11.2,0c-3.6,0-7.9,0-12.8-0.1c-4.9,0-10.5-0.1-16.6-0.3c-6.1-0.2-12.7-0.4-19.7-0.6
					c-1.7,0-3.5-0.1-5.3-0.1c-1.8,0-3.6-0.2-5.4-0.1c-3.5,0.1-7.3,0.3-11.1,0.6c-3.8,0.3-7.6,0.6-11.6,0.8c-3.9,0.3-8,0.4-12,0
					c-2-0.1-4-0.3-6-0.2c-2,0-4,0-5.9,0.1c-4,0.1-8.1,0.2-12.1,0.3c-8.1,0.3-16.2,0.5-24.2,0.8c-4,0.1-8,0.2-11.9,0.2
					c-2,0-3.9,0.1-5.9,0c-1.9-0.1-4-0.1-5.8-0.2c-7.6-0.5-14.9-1-21.9-1.4c-7-0.4-13.5-0.8-19.6-1.1c-3-0.2-5.9-0.3-8.7-0.5
					c-2.8-0.1-5.4-0.2-7.9-0.2c-2.5-0.1-4.8-0.1-6.9,0c-2.1,0.1-4.1,0.1-5.9,0.1c-3.5,0.2-6.3,0.3-8.2,0.4c-1.9,0.1-2.9,0.2-2.9,0.2
					s1-0.1,2.9-0.4c1.9-0.2,4.7-0.6,8.2-0.9c1.8-0.1,3.7-0.3,5.9-0.4c2.1-0.2,4.5-0.3,6.9-0.3c2.5,0,5.1-0.1,7.9-0.1
					c2.8,0,5.7,0.2,8.8,0.2c6.1,0.2,12.7,0.4,19.7,0.6c7,0.3,14.3,0.6,21.9,1c2,0.1,3.8,0.1,5.7,0.1c1.9,0,3.8-0.1,5.8-0.1
					c3.9-0.1,7.9-0.2,11.8-0.3c8-0.3,16.1-0.6,24.2-0.9c4.1-0.1,8.1-0.2,12.2-0.3c2.1,0,4.1,0,6.2,0c2.1-0.1,4,0.2,6,0.2l2.9,0.2
					c0.9,0.1,1.9,0,2.9,0c1.9,0,3.9-0.1,5.8-0.2c3.9-0.2,7.7-0.5,11.5-0.7c3.8-0.2,7.5-0.5,11.3-0.4c1.9-0.1,3.6,0.1,5.4,0.2
					c1.8,0.1,3.6,0.2,5.3,0.3c6.9,0.4,13.5,0.7,19.6,1.1c6.1,0.3,11.6,0.6,16.6,0.9c4.9,0.2,9.2,0.5,12.8,0.6
					C721.9,802.3,725.9,802.5,725.9,802.5z"/>
			</g>
			<g class="st3">
				<path class="st4" d="M540.8,807.3c0,0-2.6,0-7.2-0.1c-4.6-0.1-11.2-0.1-19.1-0.2c-7.9-0.2-17.1-0.3-26.9-0.5
					c-9.9-0.3-20.4-0.5-30.9-0.8c-2.6-0.1-5.2-0.1-7.9,0c-2.6,0-5.2,0.1-7.8,0.1c-5.2,0.1-10.3,0.1-15.2,0.1
					c-4.9,0.1-9.7-0.2-14.3-0.4c-4.5-0.2-8.8-0.6-12.7-0.8c-7.9-0.5-14.4-1.1-19-1.4c-4.6-0.3-7.2-0.5-7.2-0.5s2.6,0.1,7.2,0.3
					c4.6,0.2,11.2,0.4,19.1,0.8c3.9,0.2,8.2,0.4,12.7,0.6c4.5,0.1,9.2,0.3,14.2,0.2c4.9,0,10-0.1,15.2-0.2c2.6-0.1,5.2-0.1,7.8-0.2
					c2.6-0.1,5.3-0.2,7.9,0c10.5,0.3,21,0.7,30.9,1c9.9,0.4,19.1,0.7,26.9,1c7.9,0.4,14.5,0.6,19.1,0.9
					C538.2,807.2,540.8,807.3,540.8,807.3z"/>
			</g>
			<g class="st5">
				<path class="st4" d="M366.6,807.3c0,0-6.8-0.3-17-0.7c-5.1-0.3-11.1-0.4-17.5-0.7c-3.2-0.1-6.5-0.1-9.8-0.2
					c-1.7,0-3.4,0-5.1-0.1c-1.7,0.1-3.4,0.1-5.1,0.2c-6.8,0.1-13.6,0.4-20,0.6c-3.2,0.1-6.3,0.2-9.2,0.2c-1.5,0-2.9-0.1-4.3-0.1
					c-1.3,0-2.7-0.2-4-0.3c-5.1-0.4-9.3-0.8-12.3-1c-3-0.2-4.7-0.4-4.7-0.4s1.7,0,4.7,0.1c3,0.1,7.3,0.2,12.4,0.4
					c1.3,0,2.6,0.2,4,0.2c1.4,0,2.8,0,4.2,0c2.9-0.1,6-0.3,9.2-0.4c6.4-0.3,13.2-0.6,20-0.8c1.7,0,3.4-0.1,5.1-0.1
					c1.7,0,3.4,0.1,5.1,0.1c3.4,0.1,6.7,0.1,9.9,0.3c3.2,0.2,6.3,0.4,9.2,0.6c2.9,0.2,5.7,0.4,8.2,0.6
					C359.8,806.6,366.6,807.3,366.6,807.3z"/>
			</g>
			<g class="st6">
				<path class="st4" d="M397.3,792.8c0,0,12.6-0.3,31.5-0.1c4.7,0,9.8,0.1,15.2,0.2c2.7,0,5.5-0.1,8.3-0.1c2.8-0.1,5.7-0.1,8.7-0.2
					c2.9-0.1,5.9-0.1,9-0.2c3.1,0,6-0.2,9.3-0.1c3.1,0,6.3,0.1,9.4,0.1c3.1,0,6.2,0,9.3-0.1c3.1,0,6.3,0,9.4,0c3.1,0,6.3,0,9.4,0.1
					c6.2,0.1,12.3,0.2,18.2,0.3c11.8,0.3,22.7,0.5,32.2,0.7c4.7,0.1,9.1,0.2,13,0.3c3.8,0.1,7.2,0.3,9.9,0.4
					c2.8,0.1,4.9,0.3,6.4,0.4c0.7,0,1.3,0.1,1.7,0.2c0.4,0.1,0.6,0.1,0.6,0.1s-0.2,0-0.6,0c-0.4,0-0.9,0-1.7,0
					c-1.5,0.1-3.6,0.1-6.4,0.2c-2.8,0.1-6.1,0.3-9.9,0.5c-3.9,0.2-8,0.5-12.8,0.6c-4.7,0.2-9.9,0.4-15.3,0.5
					c-5.5,0.2-11.2,0.2-17.1,0.3c-5.9,0-12,0.1-18.2,0.1c-3,0-6.1,0-9.3,0c-3.1,0-6.3,0.1-9.5,0.1c-3.2,0-6.4,0-9.6,0
					c-3.1-0.1-6.2-0.1-9.3-0.2c-6.2,0-12.2-0.1-18.1-0.1c-3,0-5.9,0-8.7-0.1c-2.8-0.1-5.6-0.2-8.3-0.3c-5.5-0.3-10.5-0.6-15.3-1
					C409.8,794.1,397.3,792.8,397.3,792.8z"/>
			</g>
			<g class="st7">
				<path class="st4" d="M394.6,798.4c0,0-1.7,0.1-4.7,0.2c-3,0.1-7.2,0.2-12.3,0.3c-5.1,0.1-11,0.2-17.4,0.2c-3.2,0-6.5,0-9.8,0.1
					c-1.7,0-3.4,0-5,0c-1.7,0-3.4-0.1-5.1-0.2c-3.4-0.2-6.8-0.5-10.1-0.7c-3.3-0.2-6.6-0.4-9.8-0.5c-3.2-0.1-6.2-0.1-9.1-0.2
					c-2.9,0-5.7,0.1-8.2,0.1c-5.1,0.1-9.3,0-12.3,0c-3,0-4.7,0-4.7,0s1.7-0.1,4.7-0.3c3-0.1,7.2-0.4,12.3-0.6
					c2.5-0.1,5.3-0.2,8.2-0.3c2.9-0.1,6-0.1,9.2-0.1c3.2,0.1,6.5,0.3,9.8,0.4c3.3,0.2,6.7,0.4,10.1,0.6c1.7,0.1,3.4,0.2,5.1,0.2
					c1.7,0,3.4,0,5,0c3.3,0,6.6,0,9.8,0.1c6.4,0,12.3,0.2,17.4,0.2c5.1,0.1,9.3,0.2,12.3,0.3C392.9,798.3,394.6,798.4,394.6,798.4z"
					/>
			</g>
			<g class="st6">
				<path class="st4" d="M740.7,797.3c0,0,2.3-0.1,6.3-0.1c4,0,9.7-0.1,16.5-0.1c3.4,0,7.1,0,11,0.1c3.9,0.1,8,0.2,12.3,0.2
					c4.3,0.1,8.7,0.3,13.2,0.6c2.2,0.1,4.5,0.3,6.7,0.4c2.3,0.2,4.5,0.3,6.7,0.3c4.4,0.1,9,0,13.5-0.1c4.5-0.1,8.9-0.2,13.2-0.2
					c4.5-0.1,8.5,0.6,12.4,0.6c3.9,0.1,7.5,0.3,10.9,0.4c6.8,0.2,12.5,0.5,16.5,0.6c4,0.2,6.3,0.3,6.3,0.3s-2.3,0.1-6.3,0.3
					c-4,0.1-9.7,0.4-16.5,0.6c-3.4,0.1-7.1,0.2-11.1,0.2c-3.9,0.1-8.1-0.4-12.2-0.2c-4.3,0.2-8.6,0.3-13.1,0.5
					c-4.5,0.1-9,0.3-13.7,0.2c-2.3,0-4.6-0.2-6.9-0.4c-2.3-0.2-4.5-0.3-6.8-0.5c-4.4-0.3-8.8-0.7-13-0.8c-8.5-0.5-16.5-0.9-23.3-1.3
					c-6.8-0.4-12.5-0.8-16.5-1.1C742.9,797.5,740.7,797.3,740.7,797.3z"/>
			</g>
			<g class="st6">
				<path class="st4" d="M876.9,795.2c-0.1,0,0.4-0.1,1.3-0.2c0.9-0.1,2.2-0.2,3.8-0.4c3.3-0.2,7.9-0.6,13.5-0.9
					c5.6-0.3,12.1-0.6,19.1-0.7c3.5-0.1,7.1-0.2,10.8-0.1c3.7,0,7.4,0,11.2,0.1c3.7,0.2,7.5,0.2,11.3,0.8c3.6,0.6,7.2,1.2,10.6,1.6
					c3.4,0.4,6.8,0.8,9.9,0.9c1.6,0.1,2.9-0.1,4.5-0.3c1.5-0.2,3.1-0.2,4.5-0.2c2.8-0.1,5.4,0.1,7.7,0.2c2.3,0.2,4.3,0.3,5.9,1
					c1.5,0.7,2.7,0.6,3.6,0.5c0.9-0.1,1.3-0.2,1.3-0.2s-0.4,0.2-1.3,0.4c-0.4,0.1-1,0.2-1.6,0.2c-0.6,0.1-1.5,0-2.2-0.3
					c-1.5-0.5-3.5-0.4-5.7-0.4c-2.3,0.1-4.8,0.2-7.6,0.4c-1.4,0.1-2.7,0.3-4.2,0.5c-1.4,0.3-3.2,0.6-4.8,0.6
					c-3.3,0-6.7-0.2-10.2-0.6c-3.5-0.4-7.1-0.8-10.8-1.4c-3.5-0.5-7.2-0.6-10.9-0.7c-3.7-0.1-7.4-0.2-11.1-0.2
					c-3.7,0-7.3-0.1-10.8-0.1c-7-0.1-13.5-0.2-19.1-0.2c-5.6-0.1-10.3-0.2-13.5-0.3c-1.6,0-2.9-0.1-3.8-0.1
					C877.4,795.2,876.9,795.2,876.9,795.2z"/>
			</g>
		</g>
		
			<linearGradient id="SVGID_00000094585031607228662300000005322156300520880574_" gradientUnits="userSpaceOnUse" x1="625.4791" y1="809.9574" x2="625.4791" y2="988.6731">
			<stop  offset="0" style="stop-color:#FCEBD5"/>
			<stop  offset="0.2634" style="stop-color:#FBCE8A"/>
			<stop  offset="0.3689" style="stop-color:#FAC982"/>
			<stop  offset="0.5311" style="stop-color:#F6BD6D"/>
			<stop  offset="0.6585" style="stop-color:#F3B057"/>
			<stop  offset="0.7258" style="stop-color:#F2AA52"/>
			<stop  offset="0.8165" style="stop-color:#F09946"/>
			<stop  offset="0.9202" style="stop-color:#EC7D31"/>
			<stop  offset="1" style="stop-color:#E9621D"/>
		</linearGradient>
		
			<rect x="253" y="809.2" style="fill:url(#SVGID_00000094585031607228662300000005322156300520880574_);" width="745" height="162.6"/>
		
			<radialGradient id="SVGID_00000144337628390678888160000001309452472728155300_" cx="-5910.4424" cy="60607.6523" r="228.3264" gradientTransform="matrix(-1.2581 0 0 0.1234 -6828.1802 -6588.5254)" gradientUnits="userSpaceOnUse">
			<stop  offset="0" style="stop-color:#884C19"/>
			<stop  offset="0.1975" style="stop-color:#894E1C"/>
			<stop  offset="0.3361" style="stop-color:#8E5525"/>
			<stop  offset="0.4568" style="stop-color:#966135"/>
			<stop  offset="0.5672" style="stop-color:#A2734B"/>
			<stop  offset="0.6706" style="stop-color:#B08967"/>
			<stop  offset="0.7689" style="stop-color:#C2A48A"/>
			<stop  offset="0.863" style="stop-color:#D8C4B3"/>
			<stop  offset="0.9516" style="stop-color:#F0E8E2"/>
			<stop  offset="1" style="stop-color:#FFFFFF"/>
		</radialGradient>
		<path style="opacity:0.7;fill:url(#SVGID_00000144337628390678888160000001309452472728155300_);" d="M314.6,890.5
			c0,17.1,131.3,31,293.2,31s293.2-13.9,293.2-31c0-17.1-131.3-31-293.2-31S314.6,873.4,314.6,890.5z"/>
	</g>
	<g style="clip-path:url(#SVGID_00000021804299459276223220000016960408095517058194_);">
		<g>
			<g>
				
					<linearGradient id="SVGID_00000096017969095045766820000013505343836254292390_" gradientUnits="userSpaceOnUse" x1="554.4437" y1="556.6764" x2="550.4995" y2="611.8956">
					<stop  offset="0" style="stop-color:#637DA3"/>
					<stop  offset="1" style="stop-color:#445F80"/>
				</linearGradient>
				<path style="fill:url(#SVGID_00000096017969095045766820000013505343836254292390_);" d="M749.9,566.6c0,0,13.1,1.1,11,18.9
					c-2.1,17.9-10.3,17.9-10.3,17.9s8.4,4.2,10.2,12.6c1.9,8.4-5.9,16.3-17.4,16.8c-11.6,0.5-53.6-5.3-63.1-5.3
					c-9.5,0-64.3-2.1-80.3-3.7c0,0-40.5-4.7-67.5-2.6c-34.1,2.6-154.8,6.8-161.6,4.2c-6.8-2.6-25.2-1.1-29.5-34.9
					c-3.1-24.5,21-23.1,49.4-28.4c33.7-6.3,61.5-6.4,68.4-6.9c0,0,36.8-7.5,46.3-5.4c0,0,13.7-2.1,23.1-2.1c9.5,0,32.6-1.1,47.3,0
					c0,0,63.1,4.4,79.9,5.1C672.8,553.6,742.7,563.1,749.9,566.6z"/>
				
					<linearGradient id="SVGID_00000004507447147079585650000016237809119476991618_" gradientUnits="userSpaceOnUse" x1="459.3949" y1="542.91" x2="460.4467" y2="626.0073">
					<stop  offset="0" style="stop-color:#263C50"/>
					<stop  offset="6.119705e-02" style="stop-color:#2C445B"/>
					<stop  offset="0.207" style="stop-color:#36526F"/>
					<stop  offset="0.3527" style="stop-color:#3C5B7B"/>
					<stop  offset="0.4976" style="stop-color:#3E5E7F"/>
					<stop  offset="0.6346" style="stop-color:#3B5979"/>
					<stop  offset="0.8244" style="stop-color:#324C67"/>
					<stop  offset="1" style="stop-color:#263C50"/>
				</linearGradient>
				<path style="fill:url(#SVGID_00000004507447147079585650000016237809119476991618_);" d="M557.9,557.1
					c2.6-8.9,20.2-9.1,20.3-9.1c-1.4-0.1-2.2-0.2-2.2-0.2c-14.7-1.1-37.9,0-47.3,0c-9.5,0-23.1,2.1-23.1,2.1
					c-9.5-2.1-46.3,5.4-46.3,5.4c-6.8,0.5-34.7,0.6-68.4,6.9c-28.4,5.3-52.5,3.9-49.4,28.4c4.2,33.8,22.6,32.2,29.5,34.9
					c4.1,1.6,49.7,0.7,92.7-0.9l16.2-2.3l96.4-14.3c2.2-2.5-3.5-4.1-8.3-5.2c-4.7-1.1-5.8-1.3-8.2-4.1c-2.4-2.7-8.7-4.6-10.8-11.7
					c-2.1-7.1,4.2-14.2,4.2-14.2C556.6,568.4,555.3,566,557.9,557.1z"/>
				<path class="st12" d="M759.6,592.7c-1.3,1.3-3.4,2.8-5.8,2.8c-4.2,0-20.5-3.2-26.3-4.7c-5.8-1.6-17.9,0.8-20-2.3
					c-2.1-3-24.7-8.3-30-6.2c-5.3,2.1-13.7-1.5-15.3-0.5c-1.6,1-14.7,2.3-20-0.2c-5.3-2.5-13.7-3.5-15.3-3
					c-1.6,0.5-13.7,1.3-17.9-0.1c-4.2-1.4-11-4.6-14.7-5.1c-3.7-0.5-8.9-4.7-11,0c-2.1,4.7-2.1,6.2,0,9.9c2.1,3.7,6.3,6.4,11,7.4
					c4.7,1.1,17.9,7.4,20.5,4.7c2.6-2.6,12.6,1.3,16.8,0.6c4.2-0.6,15.8-1.3,22.1,0.1c6.3,1.4,13.7,3.5,17.6,3.5
					c3.9,0,19.7-1.6,25.5,0c5.8,1.6,14.7,5.3,18.4,5.3c3.7,0,14.7-1.6,18.4,0c3.7,1.6,13.7,6.8,16.3,5.8c2-0.8,4.4-1.8,7.9-1
					c-3.1-4.2-7.3-6.4-7.3-6.4S756.5,603.4,759.6,592.7z"/>
				<path class="st13" d="M750.6,603.4c0,0,3.1,0,6-4.1c-1.9,0.2-4.7,0.2-8.1-0.6c0,0-5.8,0.5-7.4,0c-1.6-0.5-12.1,1.6-13.7,0
					c-1.6-1.6-10-3.2-12.1-3.2c-2.1,0-10-5.2-12.6-4.5c-2.6,0.8-6.3,6.4-7.9,4.1c-1.6-2.3-15.8-7.3-19.5-6.6
					c-3.7,0.7-11.6,3.8-13.1,2.5c-1.6-1.3-11-2.6-11-2.6s-11.6,1.9-15.8,0c-4.2-1.9-8.4-5.1-13.7-4.5c-5.3,0.5-6.3,1.5-10-0.1
					c-3.7-1.5-17.4-6.8-20-6.3c-2.6,0.5-5.3,2.6-3.2,4.2c2.1,1.6,10,7,12.1,6.6c2.1-0.3,11,3.4,13.7,2.6c2.6-0.8,12.1-0.8,15.3,0
					c3.2,0.8,10,6.9,13.1,4.4c3.2-2.5,17.9-0.9,20-0.9c2.1,0,10.5,1.6,13.1,1.6c2.6,0,22.3,1.4,24.2,3.3c1.9,1.9,21.6,3,24.2,2.5
					c2.1-0.4,19.4,3.1,29.3,3.6C752,604.1,750.6,603.4,750.6,603.4z"/>
				<g>
					<path class="st14" d="M751.5,603.3C751.5,603.3,751.5,603.3,751.5,603.3C751.5,603.3,751.5,603.3,751.5,603.3z"/>
					<path class="st14" d="M751.3,603.4C751.3,603.4,751.3,603.4,751.3,603.4C751.3,603.4,751.3,603.4,751.3,603.4z"/>
					<path class="st14" d="M750.9,603.4C750.9,603.4,751,603.4,750.9,603.4C751,603.4,750.9,603.4,750.9,603.4z"/>
					<path class="st14" d="M751.1,603.4C751.1,603.4,751.1,603.4,751.1,603.4C751.1,603.4,751.1,603.4,751.1,603.4z"/>
					<path class="st14" d="M754.5,601.6L754.5,601.6C754.5,601.7,754.5,601.7,754.5,601.6C754.5,601.7,754.5,601.7,754.5,601.6z"/>
					<path class="st14" d="M750.8,603.4C750.8,603.4,750.8,603.4,750.8,603.4C750.8,603.4,750.8,603.4,750.8,603.4z"/>
					<path class="st14" d="M754.1,602C754.1,602,754.1,602,754.1,602C754.1,602,754.1,602,754.1,602z"/>
					<path class="st14" d="M753.4,602.5C753.4,602.5,753.4,602.5,753.4,602.5C753.4,602.5,753.4,602.5,753.4,602.5z"/>
					<path class="st14" d="M753,602.7C753,602.7,753,602.7,753,602.7C753,602.7,753,602.7,753,602.7z"/>
					<path class="st14" d="M753.7,602.3C753.8,602.2,753.8,602.2,753.7,602.3C753.8,602.2,753.8,602.2,753.7,602.3z"/>
					<path class="st14" d="M751.3,603.8c1,0.6,2.9,1.9,4.8,3.8C754.3,605.7,752.3,604.4,751.3,603.8z"/>
					<polygon class="st14" points="581.9,577.6 581.9,577.6 581.9,577.6 					"/>
					<path class="st14" d="M757.4,609c-0.4-0.5-0.8-0.9-1.2-1.4C756.6,608.1,757,608.5,757.4,609z"/>
					<path class="st14" d="M750.7,603.4C750.7,603.4,750.7,603.4,750.7,603.4C750.7,603.4,750.7,603.4,750.7,603.4z"/>
					<path class="st14" d="M750.6,603.4C750.6,603.4,750.7,603.5,750.6,603.4C750.7,603.5,750.6,603.4,750.6,603.4z"/>
					<path class="st14" d="M751.1,603.7c0.1,0,0.2,0.1,0.3,0.2C751.2,603.8,751.1,603.7,751.1,603.7z"/>
					<path class="st14" d="M750.7,603.4L750.7,603.4L750.7,603.4z"/>
					<path class="st14" d="M750.7,603.5c0,0,0.1,0,0.1,0.1C750.8,603.5,750.7,603.5,750.7,603.5z"/>
					<path class="st14" d="M750.8,603.6c0.1,0,0.1,0.1,0.2,0.1C751,603.6,750.9,603.6,750.8,603.6z"/>
				</g>
			</g>
			<g>
				
					<linearGradient id="SVGID_00000142139156836920420760000015059351970596963767_" gradientUnits="userSpaceOnUse" x1="554.7744" y1="685.6119" x2="550.5671" y2="730.8414">
					<stop  offset="0" style="stop-color:#637DA3"/>
					<stop  offset="1" style="stop-color:#445F80"/>
				</linearGradient>
				<path style="fill:url(#SVGID_00000142139156836920420760000015059351970596963767_);" d="M749.9,688.6c0,0,13.1,1.1,11,18.9
					c-2.1,17.9-10.3,17.9-10.3,17.9s8.4,4.2,10.2,12.6c1.9,8.4-5.9,16.3-17.4,16.8c-11.6,0.5-53.6-5.3-63.1-5.3
					c-9.5,0-64.3-2.1-80.3-3.7c0,0-40.5-4.7-67.5-2.6c-34.1,2.6-154.8,6.8-161.6,4.2c-6.8-2.6-25.2-1.1-29.5-34.8
					c-3.1-24.5,21-23.1,49.4-28.4c33.7-6.3,61.5-6.4,68.4-6.9c0,0,36.8-7.5,46.3-5.4c0,0,13.7-2.1,23.1-2.1c9.5,0,32.6-1.1,47.3,0
					c0,0,63.1,4.4,79.9,5.1C672.8,675.6,742.7,685,749.9,688.6z"/>
				<path class="st16" d="M581.8,677l-13.4-7.6c-14.2-0.4-31.7,0.4-39.7,0.4c-9.5,0-23.1,2.1-23.1,2.1c-9.5-2.1-46.3,5.4-46.3,5.4
					c-6.8,0.5-34.7,0.6-68.4,6.9c-28.4,5.3-52.5,3.9-49.4,28.4c4.2,33.8,22.6,32.2,29.5,34.8c6.8,2.6,127.6-1.7,161.6-4.2
					c9.2-0.7,19.9-0.6,30-0.2c12.3-2.7,19-5,15.6-6.4c-14.5-5.8-18.2-8.9-19.2-16c-1-7,2.1-8.2,0-12.5c-2.1-4.2,0-9.5,3.6-17
					C566.4,683.8,581.8,677,581.8,677z"/>
				
					<linearGradient id="SVGID_00000139974947080957528990000005693395542997362830_" gradientUnits="userSpaceOnUse" x1="461.2602" y1="689.1767" x2="464.1611" y2="736.3167">
					<stop  offset="0" style="stop-color:#263C50"/>
					<stop  offset="6.119705e-02" style="stop-color:#2C445B"/>
					<stop  offset="0.207" style="stop-color:#36526F"/>
					<stop  offset="0.3527" style="stop-color:#3C5B7B"/>
					<stop  offset="0.4976" style="stop-color:#3E5E7F"/>
					<stop  offset="0.6346" style="stop-color:#3B5979"/>
					<stop  offset="0.8244" style="stop-color:#324C67"/>
					<stop  offset="1" style="stop-color:#263C50"/>
				</linearGradient>
				<path style="fill:url(#SVGID_00000139974947080957528990000005693395542997362830_);" d="M581.8,677l-13.4-7.6
					c-14.2-0.4-31.7,0.4-39.7,0.4c-9.5,0-23.1,2.1-23.1,2.1c-9.5-2.1-46.3,5.4-46.3,5.4c-6.8,0.5-34.7,0.6-68.4,6.9
					c-28.4,5.3-52.5,3.9-49.4,28.4c4.2,33.8,22.6,32.2,29.5,34.8c6.8,2.6,127.6-1.7,161.6-4.2c9.2-0.7,19.9-0.6,30-0.2
					c12.3-2.7,19-5,15.6-6.4c-14.5-5.8-18.2-8.9-19.2-16c-1-7,2.1-8.2,0-12.5c-2.1-4.2,0-9.5,3.6-17
					C566.4,683.8,581.8,677,581.8,677z"/>
				<path class="st12" d="M759.6,714.7c-1.3,1.3-3.4,2.8-5.8,2.8c-4.2,0-20.5-3.2-26.3-4.7c-5.8-1.6-17.9,0.8-20-2.3
					c-2.1-3-24.7-8.3-30-6.2c-5.3,2.1-13.7-1.5-15.3-0.5c-1.6,1-14.7,2.3-20-0.2c-5.3-2.5-13.7-3.5-15.3-3
					c-1.6,0.5-13.7,1.3-17.9-0.1c-4.2-1.4-11-4.6-14.7-5.1c-3.7-0.5-8.9-4.7-11,0c-2.1,4.7-2.1,6.2,0,9.9c2.1,3.7,6.3,6.4,11,7.4
					c4.7,1.1,17.9,7.4,20.5,4.7c2.6-2.6,12.6,1.3,16.8,0.6c4.2-0.6,15.8-1.3,22.1,0.1c6.3,1.4,13.7,3.5,17.6,3.5
					c3.9,0,19.7-1.6,25.5,0c5.8,1.6,14.7,5.3,18.4,5.3c3.7,0,14.7-1.6,18.4,0c3.7,1.6,13.7,6.8,16.3,5.8c2-0.8,4.4-1.8,7.9-1
					c-3.1-4.2-7.3-6.4-7.3-6.4S756.5,725.4,759.6,714.7z"/>
				<path class="st13" d="M750.6,725.4c0,0,3.1,0,6-4.1c-1.9,0.2-4.7,0.2-8.1-0.6c0,0-5.8,0.5-7.4,0c-1.6-0.5-12.1,1.6-13.7,0
					c-1.6-1.6-10-3.2-12.1-3.2c-2.1,0-10-5.2-12.6-4.5c-2.6,0.8-6.3,6.4-7.9,4.1c-1.6-2.3-15.8-7.3-19.5-6.6
					c-3.7,0.7-11.6,3.8-13.1,2.5c-1.6-1.3-11-2.6-11-2.6s-11.6,1.9-15.8,0c-4.2-1.9-8.4-5-13.7-4.5c-5.3,0.5-6.3,1.5-10-0.1
					c-3.7-1.5-17.4-6.8-20-6.3c-2.6,0.5-5.3,2.6-3.2,4.2c2.1,1.6,10,7,12.1,6.6c2.1-0.3,11,3.4,13.7,2.6c2.6-0.8,12.1-0.8,15.3,0
					c3.2,0.8,10,6.9,13.1,4.4c3.2-2.5,17.9-0.9,20-0.9c2.1,0,10.5,1.6,13.1,1.6c2.6,0,22.3,1.4,24.2,3.3c1.9,1.9,21.6,3,24.2,2.5
					c2.1-0.4,19.4,3.1,29.3,3.6C752,726.1,750.6,725.4,750.6,725.4z"/>
				<g>
					<path class="st18" d="M605.5,674.2c0,0,0.7,3.9,2.1,3.6c1.4-0.4,2.5-1.8,4.2-2.1c1.8-0.4,2.8,0,5.3-1c2.5-1,3.2,0,3.2,0
						s1.1,2.8,2.5,2.8c1.4,0,2.8,3.2,3.9,2.8c1.1-0.4,1.4-1.1,4.2-1.4c2.8-0.4,0-3.5,0-3.5s5.7-1.4,5.3,0c-0.4,1.4,0,3.2,0,3.2
						s0.7,3.9,1.8,3.7c1.1-0.1,2.8-1.6,2.8-1.6s1.4-1.8,2.5-2.5c1.1-0.7,3.5,0.7,4.6,0.7c1.1,0,1.4-1.8,2.8-3.1
						c1.4-1.3,3.5,0.6,3.9,1.7c0.3,1.1,3.5,0.7,4.6,1.1c1.1,0.3,1.1,2.5,2.1,2.5c1.1,0,2.5-0.4,3.5-0.7c1.1-0.4,2.5-2.8,4.4-4.2l0,0
						c-5.4-0.6-9.9-0.9-12.8-1.1c-15-0.6-66.5-4.2-77.8-5c0,0.8,0,1.8,0.3,2.9c0.6,2.9,3.3,4.2,3.3,4.2s1.6-0.7,2.6-3
						c1.1-2.4,4.6-0.5,6,0c1.4,0.5,4.2-0.1,5.3,0c1.1,0.1,1.4,1.6,2.8,2.3c1.4,0.7,0.7-1.8,3.5-2.2
						C604.8,673.8,605.5,674.2,605.5,674.2z"/>
					<path class="st18" d="M747.5,690.7c1.1,0.7,1.8,3.3,3.2,2.5c1.4-0.8-0.1,1.7,2.8,0c1.6-1,2.4-1.7,3-1.6c-3.1-2.7-6.5-3-6.5-3
						c-3-1.5-16.9-4-33.3-6.5c0.8,1.3,1.4,4.9,2.1,6.2c1.1,1.9,5.6-0.5,7.4,0c1.8,0.5,6-0.1,7,0c1.1,0.1,2.1,0.6,4.9,0
						c0,0,3.5,0.5,5.3,0.7C745,689.3,746.4,690,747.5,690.7z"/>
					<path class="st18" d="M682.6,679.8c1.1,0.4,2.1,1.7,2.1,1.7s1.8-0.7,3.5,0.7c1.8,1.4,0,0,0.7,1.1c0.7,1.1,1.4-1.4,3.2-1.7
						c1.8-0.3,3.9,0,3.9,0c0.8,2.5,3.2,3.4,4.9,3.7c1.8,0.3,1.8-0.6,2.8,0c1.1,0.6,3.2-1.7,5.6-2.1c2.5-0.3,4.6,0.4,6.2-1.4
						c-15.3-2.3-32.6-4.5-45.3-5.8c0.7,0.9,1,3,2.1,3.6c1.6,1-1.6,2.9-1.6,2.9s2.8-0.3,4.2-1.1c1.4-0.7,3.2-2.1,4.6-1.8
						C680.9,680.2,681.6,679.5,682.6,679.8z"/>
				</g>
				<g>
					<path class="st14" d="M751.5,725.2C751.5,725.2,751.5,725.2,751.5,725.2C751.5,725.2,751.5,725.2,751.5,725.2z"/>
					<path class="st14" d="M751.3,725.3C751.3,725.3,751.3,725.3,751.3,725.3C751.3,725.3,751.3,725.3,751.3,725.3z"/>
					<path class="st14" d="M750.9,725.4C750.9,725.4,751,725.4,750.9,725.4C751,725.4,750.9,725.4,750.9,725.4z"/>
					<path class="st14" d="M751.1,725.3C751.1,725.3,751.1,725.3,751.1,725.3C751.1,725.3,751.1,725.3,751.1,725.3z"/>
					<path class="st14" d="M754.5,723.6L754.5,723.6C754.5,723.6,754.5,723.6,754.5,723.6C754.5,723.6,754.5,723.6,754.5,723.6z"/>
					<path class="st14" d="M750.8,725.4C750.8,725.4,750.8,725.4,750.8,725.4C750.8,725.4,750.8,725.4,750.8,725.4z"/>
					<path class="st14" d="M754.1,723.9C754.1,723.9,754.1,723.9,754.1,723.9C754.1,723.9,754.1,723.9,754.1,723.9z"/>
					<path class="st14" d="M753.4,724.4C753.4,724.4,753.4,724.4,753.4,724.4C753.4,724.4,753.4,724.4,753.4,724.4z"/>
					<path class="st14" d="M753,724.6C753,724.6,753,724.6,753,724.6C753,724.6,753,724.6,753,724.6z"/>
					<path class="st14" d="M753.7,724.2C753.8,724.2,753.8,724.2,753.7,724.2C753.8,724.2,753.8,724.2,753.7,724.2z"/>
					<path class="st14" d="M751.3,725.8c1,0.6,2.9,1.9,4.8,3.8C754.3,727.7,752.3,726.4,751.3,725.8z"/>
					<polygon class="st14" points="581.9,699.6 581.9,699.6 581.9,699.6 					"/>
					<path class="st14" d="M757.4,731c-0.4-0.5-0.8-0.9-1.2-1.4C756.6,730,757,730.5,757.4,731z"/>
					<path class="st14" d="M750.7,725.4C750.7,725.4,750.7,725.4,750.7,725.4C750.7,725.4,750.7,725.4,750.7,725.4z"/>
					<path class="st14" d="M750.6,725.4C750.6,725.4,750.7,725.4,750.6,725.4C750.7,725.4,750.6,725.4,750.6,725.4z"/>
					<path class="st14" d="M751.1,725.6c0.1,0.1,0.2,0.1,0.3,0.2C751.2,725.7,751.1,725.7,751.1,725.6z"/>
					<path class="st14" d="M750.7,725.4L750.7,725.4L750.7,725.4z"/>
					<path class="st14" d="M750.7,725.4c0,0,0.1,0,0.1,0.1C750.8,725.5,750.7,725.4,750.7,725.4z"/>
					<path class="st14" d="M750.8,725.5c0.1,0,0.1,0.1,0.2,0.1C751,725.6,750.9,725.5,750.8,725.5z"/>
				</g>
			</g>
			<g>
				
					<linearGradient id="SVGID_00000180340861972521153430000004468851961067845510_" gradientUnits="userSpaceOnUse" x1="547.7991" y1="803.9343" x2="543.8549" y2="859.1534">
					<stop  offset="0" style="stop-color:#637DA3"/>
					<stop  offset="1" style="stop-color:#4D6C91"/>
				</linearGradient>
				<path style="fill:url(#SVGID_00000180340861972521153430000004468851961067845510_);" d="M743.3,813.9c0,0,13.1,1.1,11,18.9
					c-2.1,17.9-10.3,17.9-10.3,17.9s8.4,4.2,10.2,12.6c1.9,8.4-5.9,16.3-17.4,16.8s-53.6-5.3-63.1-5.3c-9.5,0-64.3-2.1-80.3-3.7
					c0,0-40.5-4.7-67.5-2.6c-34.1,2.6-154.8,6.8-161.6,4.2c-6.8-2.6-25.2-1.1-29.5-34.8c-3.1-24.5,21-23.1,49.4-28.4
					c33.7-6.3,61.5-6.4,68.4-6.9c0,0,36.8-7.5,46.3-5.4c0,0,13.7-2.1,23.1-2.1c9.5,0,32.6-1.1,47.3,0c0,0,63.1,4.4,79.9,5.1
					C666.2,800.9,736.1,810.3,743.3,813.9z"/>
				<path class="st16" d="M575.2,802.3l-13.4-7.6c-14.2-0.4-31.7,0.4-39.7,0.4c-9.5,0-23.1,2.1-23.1,2.1c-9.5-2.1-46.3,5.4-46.3,5.4
					c-6.8,0.5-34.7,0.6-68.4,6.9c-28.5,5.3-52.5,3.9-49.4,28.4c4.2,33.8,22.6,32.2,29.5,34.8c6.8,2.6,127.6-1.7,161.6-4.2
					c9.2-0.7,19.9-0.6,30-0.2c12.3-2.7,22,2.4,18.7,1.1c-14.5-5.8-21.2-16.4-22.2-23.4c-1-7,2.1-8.2,0-12.5c-2.1-4.2,0-9.5,3.6-17
					C559.7,809.1,575.2,802.3,575.2,802.3z"/>
				
					<linearGradient id="SVGID_00000152223341947980631080000008358793175925510821_" gradientUnits="userSpaceOnUse" x1="454.6486" y1="815.0404" x2="457.6549" y2="863.8927">
					<stop  offset="0" style="stop-color:#263C50"/>
					<stop  offset="6.119705e-02" style="stop-color:#2C445B"/>
					<stop  offset="0.207" style="stop-color:#36526F"/>
					<stop  offset="0.3527" style="stop-color:#3C5B7B"/>
					<stop  offset="0.4976" style="stop-color:#3E5E7F"/>
					<stop  offset="0.6346" style="stop-color:#3B5979"/>
					<stop  offset="0.8244" style="stop-color:#324C67"/>
					<stop  offset="1" style="stop-color:#263C50"/>
				</linearGradient>
				<path style="fill:url(#SVGID_00000152223341947980631080000008358793175925510821_);" d="M575.2,802.3l-13.4-7.6
					c-14.2-0.4-31.7,0.4-39.7,0.4c-9.5,0-23.1,2.1-23.1,2.1c-9.5-2.1-46.3,5.4-46.3,5.4c-6.8,0.5-34.7,0.6-68.4,6.9
					c-28.5,5.3-52.5,3.9-49.4,28.4c4.2,33.8,22.6,32.2,29.5,34.8c6.8,2.6,127.6-1.7,161.6-4.2c9.2-0.7,19.9-0.6,30-0.2
					c12,0.6,22,2.4,18.7,1.1c-14.5-5.8-21.2-16.4-22.2-23.4c-1-7,2.1-8.2,0-12.5c-2.1-4.2,0-9.5,3.6-17
					C559.7,809.1,575.2,802.3,575.2,802.3z"/>
				<path class="st12" d="M752.9,840c-1.3,1.3-3.4,2.8-5.8,2.8c-4.2,0-20.5-3.2-26.3-4.7c-5.8-1.6-17.9,0.8-20-2.2
					c-2.1-3-24.7-8.3-30-6.2c-5.3,2.1-13.7-1.5-15.2-0.5c-1.6,1-14.7,2.3-20-0.2c-5.3-2.5-13.7-3.5-15.3-3
					c-1.6,0.5-13.7,1.3-17.9-0.1c-4.2-1.4-11-4.6-14.7-5.1c-3.7-0.5-8.9-4.7-11,0c-2.1,4.7-2.1,6.2,0,9.9c2.1,3.7,6.3,6.4,11,7.4
					c4.7,1.1,17.9,7.4,20.5,4.7c2.6-2.6,12.6,1.3,16.8,0.6c4.2-0.6,15.8-1.3,22.1,0.1c6.3,1.4,13.7,3.5,17.6,3.5
					c3.9,0,19.7-1.6,25.5,0c5.8,1.6,14.7,5.3,18.4,5.3c3.7,0,14.7-1.6,18.4,0c3.7,1.6,13.7,6.8,16.3,5.8c2-0.8,4.4-1.8,7.9-1
					c-3.1-4.2-7.3-6.4-7.3-6.4S749.8,850.7,752.9,840z"/>
				<path class="st13" d="M744,850.7c0,0,3.1,0,6-4.1c-1.9,0.2-4.7,0.2-8.1-0.6c0,0-5.8,0.5-7.4,0c-1.6-0.5-12.1,1.6-13.7,0
					c-1.6-1.6-10-3.2-12.1-3.2c-2.1,0-10-5.2-12.6-4.5c-2.6,0.8-6.3,6.4-7.9,4.1c-1.6-2.3-15.8-7.3-19.5-6.6
					c-3.7,0.7-11.6,3.8-13.1,2.5c-1.6-1.3-11-2.6-11-2.6s-11.6,1.9-15.8,0c-4.2-1.9-8.4-5-13.7-4.5c-5.3,0.5-6.3,1.5-10-0.1
					c-3.7-1.5-17.4-6.8-20-6.3c-2.6,0.5-5.3,2.6-3.2,4.2c2.1,1.6,10,7,12.1,6.6c2.1-0.3,11,3.4,13.7,2.6c2.6-0.8,12.1-0.8,15.3,0
					c3.2,0.8,10,6.9,13.1,4.4c3.2-2.5,17.9-0.9,20-0.9s10.5,1.6,13.1,1.6c2.6,0,22.3,1.4,24.2,3.3c1.9,1.9,21.6,3,24.2,2.5
					c2.1-0.4,19.4,3.1,29.3,3.6C745.3,851.4,744,850.7,744,850.7z"/>
				<g>
					<path class="st18" d="M598.8,799.5c0,0,0.7,3.9,2.1,3.6c1.4-0.4,2.5-1.8,4.2-2.1c1.8-0.4,2.8,0,5.3-1c2.5-1,3.2,0,3.2,0
						s1.1,2.8,2.5,2.8s2.8,3.2,3.9,2.8c1.1-0.3,1.4-1.1,4.2-1.4c2.8-0.4,0-3.5,0-3.5s5.7-1.4,5.3,0s0,3.2,0,3.2s0.7,3.9,1.8,3.7
						c1.1-0.1,2.8-1.6,2.8-1.6s1.4-1.8,2.5-2.5c1.1-0.7,3.5,0.7,4.6,0.7c1.1,0,1.4-1.8,2.8-3.1c1.4-1.3,3.5,0.6,3.9,1.7
						c0.3,1.1,3.5,0.7,4.6,1.1c1.1,0.4,1.1,2.5,2.1,2.5s2.5-0.4,3.5-0.7c1-0.3,2.5-2.8,4.4-4.2l0,0c-5.4-0.6-9.9-0.9-12.8-1.1
						c-15-0.6-66.5-4.2-77.8-5c0,0.8,0,1.8,0.3,2.9c0.6,2.9,3.3,4.2,3.3,4.2s1.6-0.7,2.6-3.1c1.1-2.4,4.6-0.5,6,0
						c1.4,0.5,4.2-0.1,5.3,0c1,0.1,1.4,1.6,2.8,2.3c1.4,0.7,0.7-1.8,3.5-2.2C598.1,799.1,598.8,799.5,598.8,799.5z"/>
					<path class="st18" d="M740.8,816c1.1,0.7,1.8,3.3,3.2,2.5c1.4-0.8-0.1,1.7,2.8,0c1.6-1,2.4-1.7,3-1.6c-3.1-2.7-6.5-3-6.5-3
						c-3-1.5-16.9-4-33.3-6.5c0.8,1.3,1.4,4.9,2.1,6.2c1.1,1.9,5.6-0.5,7.4,0c1.8,0.5,6-0.1,7,0c1.1,0.1,2.1,0.6,4.9,0
						c0,0,3.5,0.5,5.3,0.7C738.4,814.6,739.8,815.3,740.8,816z"/>
					<path class="st18" d="M676,805.1c1.1,0.3,2.1,1.7,2.1,1.7s1.8-0.7,3.5,0.7c1.8,1.4,0,0,0.7,1.1s1.4-1.4,3.2-1.7
						c1.8-0.3,3.9,0,3.9,0c0.8,2.5,3.2,3.4,4.9,3.7c1.8,0.3,1.8-0.6,2.8,0c1.1,0.6,3.2-1.7,5.6-2.1c2.5-0.3,4.6,0.3,6.2-1.4
						c-15.3-2.3-32.6-4.5-45.2-5.8c0.7,0.9,1,3,2.1,3.6c1.5,1-1.6,2.9-1.6,2.9s2.8-0.4,4.2-1.1c1.4-0.7,3.2-2.1,4.6-1.8
						C674.2,805.5,674.9,804.8,676,805.1z"/>
				</g>
				<g>
					<path class="st14" d="M744.9,850.6C744.9,850.6,744.9,850.6,744.9,850.6C744.9,850.6,744.9,850.6,744.9,850.6z"/>
					<path class="st14" d="M744.7,850.6C744.7,850.6,744.7,850.6,744.7,850.6C744.7,850.6,744.7,850.6,744.7,850.6z"/>
					<path class="st14" d="M744.3,850.7C744.3,850.7,744.3,850.7,744.3,850.7C744.3,850.7,744.3,850.7,744.3,850.7z"/>
					<path class="st14" d="M744.5,850.7C744.5,850.7,744.5,850.6,744.5,850.7C744.5,850.6,744.5,850.7,744.5,850.7z"/>
					<path class="st14" d="M747.9,848.9L747.9,848.9C747.9,848.9,747.9,848.9,747.9,848.9C747.9,848.9,747.9,848.9,747.9,848.9z"/>
					<path class="st14" d="M744.2,850.7C744.2,850.7,744.2,850.7,744.2,850.7C744.2,850.7,744.2,850.7,744.2,850.7z"/>
					<path class="st14" d="M747.5,849.2C747.5,849.2,747.5,849.2,747.5,849.2C747.5,849.2,747.5,849.2,747.5,849.2z"/>
					<path class="st14" d="M746.7,849.7C746.7,849.7,746.8,849.7,746.7,849.7C746.8,849.7,746.7,849.7,746.7,849.7z"/>
					<path class="st14" d="M746.4,849.9C746.4,849.9,746.4,849.9,746.4,849.9C746.4,849.9,746.4,849.9,746.4,849.9z"/>
					<path class="st14" d="M747.1,849.5C747.1,849.5,747.1,849.5,747.1,849.5C747.1,849.5,747.1,849.5,747.1,849.5z"/>
					<path class="st14" d="M744.7,851.1c1,0.6,2.9,1.9,4.8,3.8C747.6,853,745.7,851.7,744.7,851.1z"/>
					<path class="st21" d="M750.8,856.3c0.2,0.2,0.4,0.5,0.6,0.7c-3.4-0.8-5.8,0.2-7.9,1c-2.6,1.1-12.6-4.2-16.3-5.8
						c-3.7-1.6-14.7,0-18.4,0c-3.7,0-12.6-3.7-18.4-5.3c-5.8-1.6-21.6,0-25.5,0c-3.9,0-11.3-2.1-17.6-3.5
						c-6.3-1.4-17.9-0.7-22.1-0.1c-4.2,0.6-14.2-3.3-16.8-0.6c-2.6,2.6-15.8-3.7-20.5-4.7c-4.7-1.1-8.9-3.7-11-7.4
						c-0.6-1.1-1.1-2-1.3-2.9c0,1.5,0,3.3-0.3,4.4c-0.5,2.1-1,5.1,0.3,6.2c1.3,1.1-1.3,4.3,0,5.7c1.3,1.4-1.6,3.5,0.4,4.6
						c2,1.1,7.2,1.1,9.3,0c2.1-1.1,4.6,1.6,5.6,0.8c1.1-0.8,8.8,0.7,10.5,0.1c1.8-0.6,4.6-0.2,6.3,0.1c1.8,0.3,11.6,0,14.4,0
						c2.8,0,4.6,4,6,3c1.4-0.9,4.6,0.1,4.6,0.1s1.4,1.5,2.5-0.1c1.1-1.6,5.3,0.6,6.3,0c1.1-0.6,7.7,3.3,9.1,2.6
						c1.4-0.7,4.2-1.3,5.3-2.6c1.1-1.3,6-3,7.9-2.7c1.9,0.4,5.4,1.5,6.8,2.7c1.4,1.2,8.4,3.4,10.5,2.6c2.1-0.8,1.8-2.5,5.3-1.1
						c3.5,1.4,6.3,5.5,8,4c1.8-1.5,6.7,0,6.7,0s2.8,3,3.9,3c1.1,0,2.5-3,2.5-3s1.3-1.2,2.8-1.5c1.2-0.3,4.4-0.1,5.5,0
						c-0.4,0-0.6,0.3,0.5,1.6c1.8,2,2.8-1.3,3.9,0c1.1,1.3,2.1,1.6,3.9,3c1.8,1.4,5.4,3.5,6.2,2.1c0.8-1.4,0.1-2.8,1.8-3.5
						c1.8-0.7,2.1-0.7,4.2,0.7c2.1,1.4,1.8,2,2.8,3.3c1.1,1.3,3.2,0,3.2,0s2.1-2.2,3.5-1.9c1.4,0.3-0.7-0.4,1.4,0.3
						c2.1,0.7-0.4,1.9,3.2,0.4c2.9-1.3,2.5-1.4,3.6-1.6C752.8,859.2,751.8,857.7,750.8,856.3z"/>
					<polygon class="st14" points="575.3,824.9 575.3,824.9 575.3,824.9 					"/>
					<path class="st14" d="M750.7,856.3c-0.4-0.5-0.8-0.9-1.2-1.4C749.9,855.3,750.3,855.8,750.7,856.3z"/>
					<path class="st14" d="M744.1,850.7C744.1,850.7,744.1,850.7,744.1,850.7C744.1,850.7,744.1,850.7,744.1,850.7z"/>
					<path class="st14" d="M744,850.7C744,850.7,744,850.7,744,850.7C744,850.7,744,850.7,744,850.7z"/>
					<path class="st14" d="M744.4,850.9c0.1,0,0.2,0.1,0.3,0.2C744.6,851,744.5,851,744.4,850.9z"/>
					<path class="st14" d="M744,850.7C744,850.7,744,850.7,744,850.7C744,850.7,744,850.7,744,850.7z"/>
					<path class="st14" d="M744,850.7c0,0,0.1,0,0.1,0.1C744.1,850.8,744.1,850.7,744,850.7z"/>
					<path class="st14" d="M744.2,850.8c0.1,0,0.1,0.1,0.2,0.1C744.3,850.9,744.2,850.8,744.2,850.8z"/>
				</g>
			</g>
			<g>
				
					<linearGradient id="SVGID_00000069397266607929980320000002783486707278806174_" gradientUnits="userSpaceOnUse" x1="555.5231" y1="614.5273" x2="549.2122" y2="681.5797">
					<stop  offset="0" style="stop-color:#D8E8F7"/>
					<stop  offset="0.27" style="stop-color:#D5E6F5"/>
					<stop  offset="0.4917" style="stop-color:#CBDEEE"/>
					<stop  offset="0.6962" style="stop-color:#B9D1E3"/>
					<stop  offset="0.8892" style="stop-color:#A1C0D3"/>
					<stop  offset="1" style="stop-color:#90B3C7"/>
				</linearGradient>
				<path style="fill:url(#SVGID_00000069397266607929980320000002783486707278806174_);" d="M749.9,625c0,0,13.1,1.1,11,18.9
					c-2.1,17.9-10.3,17.9-10.3,17.9s8.4,4.2,10.2,12.6c1.9,8.4-5.9,16.3-17.4,16.8c-11.6,0.5-53.6-5.3-63.1-5.3
					c-9.5,0-64.3-2.1-80.3-3.7c0,0-40.5-4.7-67.5-2.6c-34.1,2.6-154.8,6.8-161.6,4.2c-6.8-2.6-25.2-1.1-29.5-34.8
					c-3.1-24.5,21-23.1,49.4-28.4c33.7-6.3,61.5-6.4,68.4-6.9c0,0,36.8-7.5,46.3-5.4c0,0,13.7-2.1,23.1-2.1c9.5,0,32.6-1.1,47.3,0
					c0,0,63.1,4.4,79.9,5.1C672.8,612,742.7,621.5,749.9,625z"/>
				<path class="st23" d="M759.6,651.1c-1.3,1.3-3.4,2.8-5.8,2.8c-4.2,0-20.5-3.2-26.3-4.7c-5.8-1.6-17.9,0.8-20-2.3
					c-2.1-3-24.7-8.3-30-6.2c-5.3,2.1-13.7-1.5-15.3-0.5c-1.6,1-14.7,2.3-20-0.2c-5.3-2.5-13.7-3.5-15.3-3
					c-1.6,0.5-13.7,1.3-17.9-0.1c-4.2-1.4-11-4.6-14.7-5.1c-3.7-0.5-8.9-4.7-11,0c-2.1,4.7-2.1,6.2,0,9.9c2.1,3.7,6.3,6.4,11,7.4
					c4.7,1.1,17.9,7.4,20.5,4.7c2.6-2.6,12.6,1.3,16.8,0.6c4.2-0.6,15.8-1.3,22.1,0.1c6.3,1.4,13.7,3.5,17.6,3.5
					c3.9,0,19.7-1.6,25.5,0c5.8,1.6,14.7,5.3,18.4,5.3c3.7,0,14.7-1.6,18.4,0c3.7,1.6,13.7,6.8,16.3,5.8c2-0.8,4.4-1.8,7.9-1
					c-3.1-4.2-7.3-6.4-7.3-6.4S756.5,661.8,759.6,651.1z"/>
				<path class="st24" d="M750.6,661.8c0,0,3.1,0,6-4.1c-1.9,0.2-4.7,0.2-8.1-0.6c0,0-5.8,0.5-7.4,0c-1.6-0.5-12.1,1.6-13.7,0
					c-1.6-1.6-10-3.2-12.1-3.2c-2.1,0-10-5.2-12.6-4.5c-2.6,0.8-6.3,6.4-7.9,4.1c-1.6-2.3-15.8-7.3-19.5-6.6
					c-3.7,0.7-11.6,3.8-13.1,2.5c-1.6-1.3-11-2.6-11-2.6s-11.6,1.9-15.8,0c-4.2-1.9-8.4-5.1-13.7-4.5c-5.3,0.5-6.3,1.5-10-0.1
					c-3.7-1.5-17.4-6.8-20-6.3c-2.6,0.5-5.3,2.6-3.2,4.2c2.1,1.6,10,7,12.1,6.6c2.1-0.3,11,3.4,13.7,2.6c2.6-0.8,12.1-0.8,15.3,0
					c3.2,0.8,10,6.9,13.1,4.4c3.2-2.5,17.9-1,20-1c2.1,0,10.5,1.6,13.1,1.6c2.6,0,22.3,1.4,24.2,3.3c1.9,1.9,21.6,3,24.2,2.5
					c2.1-0.4,19.4,3.1,29.3,3.6C752,662.5,750.6,661.8,750.6,661.8z"/>
				<g>
					<path class="st14" d="M751.5,661.7L751.5,661.7C751.5,661.7,751.5,661.7,751.5,661.7z"/>
					<path class="st14" d="M751.3,661.7C751.3,661.7,751.3,661.7,751.3,661.7C751.3,661.7,751.3,661.7,751.3,661.7z"/>
					<path class="st14" d="M750.9,661.8C750.9,661.8,751,661.8,750.9,661.8C751,661.8,750.9,661.8,750.9,661.8z"/>
					<path class="st14" d="M751.1,661.8C751.1,661.8,751.1,661.8,751.1,661.8C751.1,661.8,751.1,661.8,751.1,661.8z"/>
					<path class="st14" d="M754.5,660L754.5,660C754.5,660,754.5,660,754.5,660C754.5,660,754.5,660,754.5,660z"/>
					<path class="st14" d="M750.8,661.8C750.8,661.8,750.8,661.8,750.8,661.8C750.8,661.8,750.8,661.8,750.8,661.8z"/>
					<path class="st14" d="M754.1,660.4C754.1,660.3,754.1,660.3,754.1,660.4C754.1,660.3,754.1,660.3,754.1,660.4z"/>
					<path class="st14" d="M753.4,660.9C753.4,660.9,753.4,660.8,753.4,660.9C753.4,660.8,753.4,660.9,753.4,660.9z"/>
					<path class="st14" d="M753,661.1C753,661.1,753,661.1,753,661.1C753,661.1,753,661.1,753,661.1z"/>
					<path class="st14" d="M753.7,660.6C753.8,660.6,753.8,660.6,753.7,660.6C753.8,660.6,753.8,660.6,753.7,660.6z"/>
					<path class="st14" d="M751.3,662.2c1,0.6,2.9,1.9,4.8,3.8C754.3,664.1,752.3,662.8,751.3,662.2z"/>
					<polygon class="st14" points="581.9,636 581.9,636 581.9,636 					"/>
					<path class="st14" d="M757.4,667.4c-0.4-0.5-0.8-0.9-1.2-1.4C756.6,666.5,757,666.9,757.4,667.4z"/>
					<path class="st14" d="M750.7,661.8C750.7,661.8,750.7,661.8,750.7,661.8C750.7,661.8,750.7,661.8,750.7,661.8z"/>
					<path class="st14" d="M750.6,661.8C750.6,661.8,750.7,661.8,750.6,661.8C750.7,661.8,750.6,661.8,750.6,661.8z"/>
					<path class="st14" d="M751.1,662c0.1,0,0.2,0.1,0.3,0.2C751.2,662.2,751.1,662.1,751.1,662z"/>
					<path class="st14" d="M750.7,661.8L750.7,661.8L750.7,661.8z"/>
					<path class="st14" d="M750.7,661.8c0,0,0.1,0,0.1,0.1C750.8,661.9,750.7,661.9,750.7,661.8z"/>
					<path class="st14" d="M750.8,661.9c0.1,0,0.1,0.1,0.2,0.1C751,662,750.9,662,750.8,661.9z"/>
				</g>
				
					<linearGradient id="SVGID_00000110435643075770423790000017017292168166074274_" gradientUnits="userSpaceOnUse" x1="458.2785" y1="612.8527" x2="464.5444" y2="673.2761">
					<stop  offset="0" style="stop-color:#2C455C"/>
					<stop  offset="5.703757e-02" style="stop-color:#4A6073"/>
					<stop  offset="0.1874" style="stop-color:#8A98A5"/>
					<stop  offset="0.3062" style="stop-color:#BCC4CC"/>
					<stop  offset="0.4093" style="stop-color:#E1E4E8"/>
					<stop  offset="0.4929" style="stop-color:#F7F8F9"/>
					<stop  offset="0.5463" style="stop-color:#FFFFFF"/>
					<stop  offset="0.5897" style="stop-color:#F6F7F8"/>
					<stop  offset="0.6598" style="stop-color:#DEE2E5"/>
					<stop  offset="0.7479" style="stop-color:#B7BFC5"/>
					<stop  offset="0.8506" style="stop-color:#818E9A"/>
					<stop  offset="0.9642" style="stop-color:#3D5163"/>
					<stop  offset="1" style="stop-color:#263C50"/>
				</linearGradient>
				<path style="opacity:0.2;fill:url(#SVGID_00000110435643075770423790000017017292168166074274_);" d="M528.7,606.2
					c-9.5,0-23.1,2.1-23.1,2.1c-9.5-2.1-46.3,5.4-46.3,5.4c-6.8,0.5-34.7,0.6-68.4,6.9c-28.4,5.3-52.5,3.9-49.4,28.4
					c4.2,33.8,22.6,32.2,29.5,34.8c6.8,2.6,127.6-1.7,161.6-4.2c14.1-1.1,31.9-0.3,45.6,0.7l0,0l-17-4.9c0,0-6.3-10.5-10-13.6
					c-3.7-3.2,2.1-12.6,0-13.3c-2.1-0.7,3.1-18.8,7.9-27.5c4.7-8.7-7.1,2.8,4.7-8.7c4.6-4.4,14.8-3.2,14.4-6
					c-1.4-0.1-2.1-0.2-2.1-0.2C561.3,605.2,538.2,606.2,528.7,606.2z"/>
			</g>
			<g>
				
					<linearGradient id="SVGID_00000037673146378669436260000005249301302142906792_" gradientUnits="userSpaceOnUse" x1="555.5229" y1="741.2695" x2="549.2122" y2="808.321">
					<stop  offset="0" style="stop-color:#D8E8F7"/>
					<stop  offset="0.27" style="stop-color:#D5E6F5"/>
					<stop  offset="0.4917" style="stop-color:#CBDEEE"/>
					<stop  offset="0.6962" style="stop-color:#B9D1E3"/>
					<stop  offset="0.8892" style="stop-color:#A1C0D3"/>
					<stop  offset="1" style="stop-color:#90B3C7"/>
				</linearGradient>
				<path style="fill:url(#SVGID_00000037673146378669436260000005249301302142906792_);" d="M749.9,751.7c0,0,13.1,1.1,11,18.9
					c-2.1,17.9-10.3,17.9-10.3,17.9s8.4,4.2,10.2,12.6c1.9,8.4-5.9,16.3-17.4,16.8c-11.6,0.5-53.6-5.3-63.1-5.3
					c-9.5,0-64.3-2.1-80.3-3.7c0,0-40.5-4.7-67.5-2.6c-34.1,2.6-154.8,6.8-161.6,4.2c-6.8-2.6-25.2-1.1-29.5-34.8
					c-3.1-24.5,21-23.1,49.4-28.4c33.7-6.3,61.5-6.4,68.4-6.9c0,0,36.8-7.5,46.3-5.4c0,0,13.7-2.1,23.1-2.1c9.5,0,32.6-1.1,47.3,0
					c0,0,63.1,4.4,79.9,5.1C672.8,738.8,742.7,748.2,749.9,751.7z"/>
				<path class="st23" d="M759.6,777.8c-1.3,1.3-3.4,2.8-5.8,2.8c-4.2,0-20.5-3.2-26.3-4.7c-5.8-1.6-17.9,0.8-20-2.3
					c-2.1-3-24.7-8.3-30-6.2c-5.3,2.1-13.7-1.5-15.3-0.5c-1.6,1-14.7,2.3-20-0.2c-5.3-2.5-13.7-3.5-15.3-3
					c-1.6,0.5-13.7,1.3-17.9-0.1c-4.2-1.4-11-4.6-14.7-5.1c-3.7-0.5-8.9-4.7-11,0c-2.1,4.7-2.1,6.2,0,9.9c2.1,3.7,6.3,6.4,11,7.4
					c4.7,1.1,17.9,7.4,20.5,4.7c2.6-2.6,12.6,1.3,16.8,0.6c4.2-0.6,15.8-1.3,22.1,0.1c6.3,1.4,13.7,3.5,17.6,3.5
					c3.9,0,19.7-1.6,25.5,0c5.8,1.6,14.7,5.3,18.4,5.3c3.7,0,14.7-1.6,18.4,0c3.7,1.6,13.7,6.8,16.3,5.8c2-0.8,4.4-1.8,7.9-1
					c-3.1-4.2-7.3-6.4-7.3-6.4S756.5,788.6,759.6,777.8z"/>
				<path class="st24" d="M750.6,788.6c0,0,3.1,0,6-4.1c-1.9,0.2-4.7,0.2-8.1-0.6c0,0-5.8,0.5-7.4,0c-1.6-0.5-12.1,1.6-13.7,0
					c-1.6-1.6-10-3.2-12.1-3.2c-2.1,0-10-5.2-12.6-4.5c-2.6,0.8-6.3,6.4-7.9,4.1c-1.6-2.3-15.8-7.3-19.5-6.6
					c-3.7,0.7-11.6,3.8-13.1,2.5c-1.6-1.3-11-2.6-11-2.6s-11.6,1.9-15.8,0c-4.2-1.9-8.4-5.1-13.7-4.5c-5.3,0.5-6.3,1.5-10-0.1
					c-3.7-1.5-17.4-6.8-20-6.3c-2.6,0.5-5.3,2.6-3.2,4.2c2.1,1.6,10,7,12.1,6.6c2.1-0.3,11,3.4,13.7,2.6c2.6-0.8,12.1-0.8,15.3,0
					c3.2,0.8,10,6.9,13.1,4.4c3.2-2.5,17.9-0.9,20-0.9c2.1,0,10.5,1.6,13.1,1.6c2.6,0,22.3,1.4,24.2,3.3c1.9,1.9,21.6,3,24.2,2.5
					c2.1-0.4,19.4,3.1,29.3,3.6C752,789.2,750.6,788.6,750.6,788.6z"/>
				<g>
					<path class="st14" d="M751.5,788.4C751.5,788.4,751.5,788.4,751.5,788.4C751.5,788.4,751.5,788.4,751.5,788.4z"/>
					<path class="st14" d="M751.3,788.5C751.3,788.5,751.3,788.5,751.3,788.5C751.3,788.5,751.3,788.5,751.3,788.5z"/>
					<path class="st14" d="M750.9,788.5L750.9,788.5L750.9,788.5z"/>
					<path class="st14" d="M751.1,788.5C751.1,788.5,751.1,788.5,751.1,788.5C751.1,788.5,751.1,788.5,751.1,788.5z"/>
					<path class="st14" d="M754.5,786.8L754.5,786.8C754.5,786.8,754.5,786.8,754.5,786.8C754.5,786.8,754.5,786.8,754.5,786.8z"/>
					<path class="st14" d="M750.8,788.6C750.8,788.5,750.8,788.5,750.8,788.6C750.8,788.5,750.8,788.5,750.8,788.6z"/>
					<path class="st14" d="M754.1,787.1C754.1,787.1,754.1,787.1,754.1,787.1C754.1,787.1,754.1,787.1,754.1,787.1z"/>
					<path class="st14" d="M753.4,787.6C753.4,787.6,753.4,787.6,753.4,787.6C753.4,787.6,753.4,787.6,753.4,787.6z"/>
					<path class="st14" d="M753,787.8C753,787.8,753,787.8,753,787.8C753,787.8,753,787.8,753,787.8z"/>
					<path class="st14" d="M753.7,787.4C753.8,787.4,753.8,787.3,753.7,787.4C753.8,787.3,753.8,787.4,753.7,787.4z"/>
					<path class="st14" d="M751.3,789c1,0.6,2.9,1.9,4.8,3.8C754.3,790.8,752.3,789.6,751.3,789z"/>
					<polygon class="st14" points="581.9,762.8 581.9,762.8 581.9,762.8 					"/>
					<path class="st14" d="M757.4,794.1c-0.4-0.5-0.8-0.9-1.2-1.4C756.6,793.2,757,793.6,757.4,794.1z"/>
					<path class="st14" d="M750.7,788.6L750.7,788.6L750.7,788.6z"/>
					<path class="st14" d="M750.6,788.6C750.6,788.6,750.7,788.6,750.6,788.6C750.7,788.6,750.6,788.6,750.6,788.6z"/>
					<path class="st14" d="M751.1,788.8c0.1,0,0.2,0.1,0.3,0.2C751.2,788.9,751.1,788.8,751.1,788.8z"/>
					<path class="st14" d="M750.7,788.6L750.7,788.6L750.7,788.6z"/>
					<path class="st14" d="M750.7,788.6c0,0,0.1,0,0.1,0.1C750.8,788.6,750.7,788.6,750.7,788.6z"/>
					<path class="st14" d="M750.8,788.7c0.1,0,0.1,0.1,0.2,0.1C751,788.7,750.9,788.7,750.8,788.7z"/>
				</g>
				
					<linearGradient id="SVGID_00000132784440885551335610000006314125332215104664_" gradientUnits="userSpaceOnUse" x1="458.2786" y1="739.5952" x2="464.5443" y2="800.0168">
					<stop  offset="0" style="stop-color:#2C455C"/>
					<stop  offset="5.703757e-02" style="stop-color:#4A6073"/>
					<stop  offset="0.1874" style="stop-color:#8A98A5"/>
					<stop  offset="0.3062" style="stop-color:#BCC4CC"/>
					<stop  offset="0.4093" style="stop-color:#E1E4E8"/>
					<stop  offset="0.4929" style="stop-color:#F7F8F9"/>
					<stop  offset="0.5463" style="stop-color:#FFFFFF"/>
					<stop  offset="0.5897" style="stop-color:#F6F7F8"/>
					<stop  offset="0.6598" style="stop-color:#DEE2E5"/>
					<stop  offset="0.7479" style="stop-color:#B7BFC5"/>
					<stop  offset="0.8506" style="stop-color:#818E9A"/>
					<stop  offset="0.9642" style="stop-color:#3D5163"/>
					<stop  offset="1" style="stop-color:#263C50"/>
				</linearGradient>
				<path style="opacity:0.2;fill:url(#SVGID_00000132784440885551335610000006314125332215104664_);" d="M528.7,733
					c-9.5,0-23.1,2.1-23.1,2.1c-9.5-2.1-46.3,5.4-46.3,5.4c-6.8,0.5-34.7,0.6-68.4,6.9c-28.4,5.3-52.5,3.9-49.4,28.4
					c4.2,33.8,22.6,32.2,29.5,34.8c6.8,2.6,127.6-1.7,161.6-4.2c14.1-1.1,31.9-0.3,45.6,0.7l0,0l-17-4.9c0,0-6.3-10.5-10-13.6
					c-3.7-3.2,2.1-12.6,0-13.3c-2.1-0.7,3.1-18.8,7.9-27.5c4.7-8.7-7.1,2.8,4.7-8.7c4.6-4.4,14.8-3.2,14.4-6
					c-1.4-0.1-2.1-0.2-2.1-0.2C561.3,731.9,538.2,733,528.7,733z"/>
			</g>
		</g>
	</g>
</g>
</svg>
