<svg width="180" height="181" viewBox="0 0 180 181" fill="none" xmlns="http://www.w3.org/2000/svg">
<g clip-path="url(#clip0_426_1270)">
<path d="M90 1.37169C139.159 1.37169 179.154 41.3667 179.154 90.526C179.154 139.685 139.159 179.68 90 179.68C40.8409 179.68 0.846056 139.685 0.846056 90.526C0.846056 41.3667 40.8409 1.37169 90 1.37169ZM90 171.637C134.724 171.637 171.111 135.25 171.111 90.526C171.111 45.8015 134.724 9.41336 90 9.41336C45.2757 9.41336 8.88938 45.7998 8.88938 90.526C8.88938 135.252 45.2757 171.637 90 171.637ZM90 0.525024C40.2939 0.525024 -0.000610352 40.8197 -0.000610352 90.526C-0.000610352 140.232 40.2939 180.527 90 180.527C139.706 180.527 180.001 140.232 180.001 90.526C180.001 40.8197 139.704 0.525024 90 0.525024ZM90 170.79C45.7431 170.79 9.73605 134.783 9.73605 90.526C9.73605 46.2689 45.7431 10.26 90 10.26C134.257 10.26 170.264 46.2672 170.264 90.5243C170.264 134.781 134.257 170.79 90 170.79Z" fill="#003B71"/>
<path d="M89.9999 10.2854C134.245 10.2854 170.238 46.2807 170.238 90.5242C170.238 134.768 134.243 170.763 89.9999 170.763C45.7566 170.763 9.76147 134.769 9.76147 90.5259C9.76147 46.2824 45.7566 10.2854 89.9999 10.2854ZM89.9999 9.41333C45.2757 9.41333 8.8894 45.7998 8.8894 90.5259C8.8894 135.252 45.2757 171.637 89.9999 171.637C134.724 171.637 171.112 135.25 171.112 90.5259C171.112 45.8014 134.724 9.41333 89.9999 9.41333Z" fill="#003B71"/>
<path d="M149.861 100.34C150.142 101.155 149.964 101.888 149.795 102.557C148.826 106.372 148.268 108.248 147.998 109.037C144.481 119.338 138.091 128.355 129.753 135.223C129.561 135.377 129.37 135.536 129.18 135.687C129.131 135.726 129.096 135.779 129.077 135.843C128.119 139.179 125.712 142.836 122.192 145.898C119.945 147.85 117.534 149.307 115.205 150.221C114.921 150.333 114.658 150.016 114.821 149.754C115.496 148.661 116.172 147.388 116.787 145.993C117.214 145.029 117.578 144.084 117.876 143.183C117.92 143.051 117.791 142.933 117.672 142.99C115.61 143.996 113.483 144.892 111.297 145.663C108.784 146.562 106.195 147.293 103.542 147.857C99.5351 148.722 95.3712 149.197 91.1125 149.246C90.5622 149.256 90.0118 149.252 89.4615 149.246C83.7651 149.164 78.255 148.328 73.0447 146.836C72.9498 146.809 72.8533 146.829 72.7737 146.89C71.7814 147.667 70.5301 148.282 69.1127 148.624C67.7395 148.956 66.4 148.997 65.2062 148.788C65.0504 148.761 64.9472 148.617 64.9539 148.457C64.9996 147.395 64.8134 146.259 64.3697 145.151C64.0598 144.376 63.6433 143.685 63.1658 143.094C63.1336 143.055 63.0946 143.024 63.0506 143.004C62.5054 142.747 61.9686 142.476 61.4335 142.186C60.58 141.744 59.7385 141.28 58.9138 140.792C54.4112 138.161 50.2897 134.979 46.649 131.345C46.4153 131.112 46.29 130.973 46.0817 130.761C45.9226 130.6 45.8023 130.485 45.799 130.482C45.1623 129.865 39.7842 130.737 39.7842 130.737C37.649 131.081 34.247 131.225 33.8627 130.16C33.756 129.864 33.8813 129.469 34.1116 129.247C34.9328 128.458 36.6905 130.255 39.5218 130.058C40.0484 130.021 41.0068 129.955 42.0431 129.401C43.4672 128.639 43.8855 127.574 44.7017 127.661C45.4823 127.744 45.9564 128.805 46.1038 129.114C47.8631 132.771 55.329 137.005 59.2474 138.959C64.0819 141.37 68.7165 141.455 68.6877 142.862C68.6691 143.773 66.715 144.387 66.842 145.722C66.886 146.187 67.1807 146.692 67.6006 146.933C68.9841 147.722 70.9212 145.204 73.678 144.347C76.8056 143.375 79.7079 144.938 81.044 145.49C88.2609 148.467 108.041 145.932 122.839 135.716C122.839 135.716 136.099 126.999 139.176 115.017C139.728 112.868 139.245 112.277 139.017 112.089C137.053 110.456 128.828 117.704 128.642 117.455C128.466 117.22 135.874 110.885 135.921 110.837C135.921 110.837 138.163 108.379 141.782 106.765C142.177 106.589 142.849 106.321 143.531 106.555C144.688 106.95 144.706 108.389 145.255 108.414C146.264 108.462 148.43 103.7 146.83 100.108C146.263 98.8368 145.463 98.2458 145.687 97.941C146.076 97.411 149.158 98.3118 149.858 100.339L149.861 100.34Z" fill="#EDC7A2"/>
<path d="M115.888 121.119C116.64 120.454 116.287 120.755 117.618 119.633C121.919 116.011 124.925 114.08 130.911 109.957C144.923 100.303 146.676 100.737 147.406 101.275C149.099 102.523 148.278 106.548 148.63 106.565C148.913 106.579 149.285 103.983 149.631 100.894C149.631 100.894 149.311 99.3261 147.514 98.2356C142.805 95.3756 127.958 105.639 113.217 120.75C113.053 120.918 113.08 120.891 112.992 120.982C112.992 120.982 112.692 121.531 113.305 121.649C115.126 122.005 115.886 121.118 115.886 121.118L115.888 121.119Z" fill="#0075A9"/>
<path d="M100.521 132.538C97.2238 135.926 85.4297 143.251 69.2177 140.252C56.0622 137.817 49.0366 130.257 47.4415 127.287C47.4042 127.217 46.0767 124.747 46.3662 124.553C46.5373 124.438 47.1147 125.207 48.5794 126.492C49.5192 127.315 50.4268 127.908 51.519 128.628C51.9745 128.927 52.4334 129.217 52.9059 129.495C54.5975 130.506 56.3891 131.405 58.2687 132.18C58.3296 132.133 58.3906 132.074 58.4515 132.009C59.2525 131.159 59.5556 130.031 59.3778 128.949C59.3388 128.716 59.5793 128.528 59.8028 128.623C60.3718 128.866 60.9424 129.166 61.5029 129.522C63.6077 130.856 65.0437 132.653 65.4789 134.285C65.5093 134.4 65.5957 134.487 65.7109 134.512C69.277 135.303 73.0413 135.689 76.9173 135.609C78.2534 135.587 79.6013 135.508 80.961 135.374C84.0259 135.072 86.4999 134.532 88.8367 133.94C97.007 131.87 101.168 129.715 101.667 130.568C101.958 131.064 100.814 132.24 100.524 132.538H100.521Z" fill="#0075A9"/>
<path d="M32.6908 110.709C32.5605 110.438 32.8754 110.197 33.0227 109.474C33.0227 109.474 33.126 108.668 32.9313 107.8C32.6671 106.624 32.0287 105.634 31.2126 104.984C30.9535 104.777 31.1533 104.379 31.4818 104.457C33.4071 104.918 35.3053 105.9 37.0681 107.302C37.7912 107.869 38.4871 108.514 39.1543 109.22C41.9855 112.212 44.2885 116.348 45.5026 121.119C46.0258 123.177 46.2019 123.522 46.0258 123.626C45.401 123.988 41.9415 121.096 39.7165 117.213C37.9097 114.06 37.6252 111.483 35.6017 111.017C34.4282 110.748 32.9533 111.252 32.6925 110.71L32.6908 110.709Z" fill="#0075A9"/>
<path d="M94.2807 109.716C94.0555 109.518 93.8302 109.322 93.605 109.126C93.3307 108.899 92.9311 108.585 92.4248 108.247C91.6323 107.715 90.198 106.755 88.4183 106.355C86.1205 105.84 84.1765 106.47 83.1605 106.801C82.1513 107.127 81.0507 107.773 78.8629 109.083C77.4642 109.921 76.0926 110.822 74.6075 111.561C73.7101 111.997 72.7753 112.375 71.8118 112.676C78.1771 113.044 82.7355 112.412 84.1918 112.19C87.443 111.694 90.4199 110.946 93.0818 110.108C93.4814 109.977 93.8794 109.847 94.2807 109.716Z" fill="#00AFAA"/>
<path d="M146.29 92.3615C146.29 92.3615 140.705 91.0457 137.71 90.6038C133.833 90.0314 130.791 90.4802 124.866 91.403C114.828 92.966 105.45 94.4256 98.1889 98.9181C97.8976 99.0976 95.8047 100.4 92.755 101.556C89.2345 102.891 86.2103 104.039 83.4518 102.755C81.8499 102.01 80.1905 100.378 79.9111 98.278C79.6503 96.3171 80.7019 94.7745 81.1455 94.1208C84.2375 89.5793 92.0421 89.6572 93.0107 89.6826C93.0107 89.6826 92.6991 89.4777 92.3791 89.2677C91.9981 89.0171 91.7085 88.8292 91.7 88.8241C91.0058 88.372 81.005 87.4152 72.6653 92.3361C71.6916 92.9101 70.2405 93.7771 68.6589 95.2672C67.267 96.5762 67.0553 97.1621 66.041 98.0612C65.6261 98.4287 64.1123 99.7055 60.3429 100.65C54.7262 102.058 49.5733 101.355 48.6336 101.219C40.9374 100.105 34.9108 96.3273 34.2893 95.633C33.8948 95.1893 33.5138 95.0217 32.7687 94.6559C32.7467 94.6441 32.6875 94.617 32.6129 94.6221C32.3234 94.6458 32.1422 95.1623 32.0474 95.4755C31.7493 96.4577 41.8416 106.604 59.8197 110.912C60.2142 111.007 60.5986 111.085 60.9881 111.171C60.751 111.027 60.5106 110.885 60.282 110.729C59.9365 110.495 59.5979 110.252 59.2677 109.999L58.7834 109.608L58.6631 109.51L58.6327 109.484L58.6174 109.473C58.592 109.452 58.5649 109.424 58.5446 109.4C58.4633 109.295 58.4396 109.195 58.4362 109.098C58.4362 109.002 58.4566 108.902 58.526 108.8C58.5903 108.702 58.7495 108.58 58.9527 108.597C59.2084 108.651 59.1288 108.662 59.1728 108.67L59.2406 108.706C59.9585 109.081 60.6799 109.452 61.4216 109.779C62.9016 110.436 64.4594 110.949 66.0799 111.169C67.6954 111.401 69.3718 111.193 70.9415 110.734C74.1182 109.777 76.6599 107.647 79.4572 105.92C80.878 105.051 82.3969 104.316 84.1207 103.979C85.8377 103.656 87.6784 103.939 89.2345 104.704C90.8093 105.47 92.0963 106.64 93.1275 107.962C93.3832 108.296 93.6237 108.64 93.8472 108.993L94.1723 109.529L94.2773 109.718C98.5123 108.294 101.857 106.687 104.065 105.617C110.488 102.501 111.732 101.087 114.655 99.4159C114.655 99.4159 117.23 97.9444 120.51 96.7184C129.798 93.2471 143.079 93.1523 145.528 93.6433C145.729 93.684 146.567 93.8702 146.776 93.5519C146.952 93.281 146.603 92.756 146.288 92.3632L146.29 92.3615Z" fill="#00AFAA"/>
<path d="M95.2291 69.7538C96.0317 70.5953 96.2366 70.8053 96.0893 71.2795C96.0893 71.2828 96.0723 71.332 96.0453 71.3692C95.6152 71.9399 92.6332 70.531 89.4125 68.8156C88.4625 68.3093 85.2469 66.5635 82.2886 64.3198C81.9262 64.0455 80.619 63.0363 79.1102 61.834C76.6938 59.9087 76.0995 59.3634 75.7879 59.1416C72.916 57.1079 62.9084 60.6826 51.1448 69.3863C45.9226 73.2505 37.9673 81.2363 31.1262 89.7876C30.8468 90.4514 30.9281 90.6936 31.0602 90.7884C31.348 90.9984 32.2015 90.7579 32.2015 90.7579C33.2835 90.1856 34.838 89.3999 36.7396 88.5549C49.1873 83.0228 63.9176 80.5996 69.4718 80.5522C70.1796 80.5454 72.1811 80.5657 74.6195 79.6937C76.787 78.9181 76.8699 78.3102 78.3177 77.792C82.3479 76.3527 84.2207 80.1593 89.0636 79.3719C91.8255 78.9232 92.0947 77.5414 94.6533 77.7345C96.8462 77.9004 97.0917 78.9469 99.7655 79.3905C100.914 79.5819 100.805 79.377 105.719 79.0976C109.47 78.8842 110.367 78.9554 111.446 79.4007C113.202 80.1272 112.928 81.0043 114.352 81.0907C115.481 81.1584 118.558 80.4929 119.657 80.5742C121.484 80.7097 121.664 79.6158 123.396 79.7868C125.311 79.9764 126.938 81.3006 128.725 81.5326C137.386 82.6553 144.454 86.3129 149.177 88.245C149.641 88.4347 150.068 87.93 149.704 87.6219C146.307 84.7432 132.764 73.0371 121.366 67.759C121.366 67.759 105.479 60.4032 101.418 63.8203C101.361 63.8694 101.237 63.9795 101.052 64.1285C99.9721 64.9938 98.9155 65.4493 98.5057 65.6152C97.2848 66.1097 96.1773 66.2926 95.4136 66.3637C94.5991 66.4399 94.4129 66.6312 94.2622 66.8446C93.7897 67.5118 94.4095 68.8935 95.2291 69.7538Z" fill="#00946E"/>
<path d="M52.9228 77.5329C52.9228 77.5329 38.99 81.4513 33.1785 87.019C32.5825 87.5897 30.7401 89.3541 31.0602 89.8283C31.2126 90.0535 31.8086 89.9146 32.2032 89.7978C33.3005 89.2491 34.8515 88.5142 36.7498 87.7438C49.3109 82.6468 64.5035 81.1431 69.2871 80.9924C70.0559 80.9687 72.1065 80.9298 74.5703 80.0289C77.0443 79.1247 76.8462 78.5642 78.4565 78.0138C82.7864 76.5339 85.555 80.7757 89.1398 79.1281C91.59 78.002 92.1336 77.9461 93.1936 77.6989C93.6169 77.6007 94.108 77.5549 94.7379 77.599C96.9325 77.748 97.1763 78.7217 99.8518 79.1297C101.002 79.3042 100.893 80.095 105.812 79.8274C109.568 79.6225 110.466 78.7081 111.544 79.1213C113.302 79.7935 113.026 80.608 114.452 80.6859C115.583 80.7469 118.663 80.1237 119.762 80.1966C121.591 80.3202 121.774 79.3025 123.506 79.4583C125.423 79.631 127.05 80.8587 128.837 81.0703C137.505 82.0982 144.573 85.4848 149.299 87.2713C149.46 87.3323 149.944 87.1172 149.963 86.9106C149.971 86.8073 149.863 86.7193 149.829 86.6905C149.422 86.362 137.525 79.8985 131.239 76.4136C128.29 74.7779 122.593 72.0211 115.644 71.7282C110.493 71.5097 107.277 72.7086 106.158 73.1794C103.582 74.2648 103.43 75.0234 101.655 75.7549C96.8715 77.7277 93.1953 74.192 86.4355 72.6629C81.9262 71.6418 77.4541 72.3496 68.5082 73.7619C63.12 74.6136 59.6385 75.8582 52.9245 77.5363L52.9228 77.5329Z" fill="#EDC7A2"/>
<path d="M78.4142 126.635C80.9254 124.587 93.7626 125.495 93.7626 125.495C93.7626 125.495 108.32 126.525 109.043 128.094C109.226 128.489 109.226 128.883 109.226 128.883C109.111 129.573 108.224 129.947 107.956 130.059C106.204 130.795 104.017 129.869 103.696 129.733C97.9841 127.346 88.161 127.475 87.4092 127.485C81.64 127.561 78.7546 127.598 78.719 127.607C78.5361 127.647 77.7369 127.834 77.6251 127.607C77.51 127.373 78.189 126.818 78.4142 126.635Z" fill="#EDC7A2"/>
<path d="M149.548 97.1891C149.072 96.7506 148.498 96.4119 147.876 96.2578C147.26 96.1105 146.627 96.0444 146.007 96.0902C144.764 96.1528 143.565 96.4627 142.409 96.8505C140.096 97.6413 137.93 98.7673 135.84 99.995C131.683 102.496 127.831 105.451 124.143 108.573C122.3 110.14 120.504 111.757 118.749 113.42C117.004 115.091 115.3 116.805 113.634 118.552C113.59 118.6 113.581 118.673 113.62 118.727C113.664 118.791 113.751 118.808 113.815 118.764L113.839 118.749C115.415 117.679 116.948 116.588 118.465 115.491C118.385 115.965 118.357 116.447 118.367 116.928C118.399 117.636 118.521 118.346 118.783 119.021C119.036 119.694 119.391 120.356 120.001 120.872L120.019 120.889C120.033 120.901 120.052 120.904 120.07 120.899C120.099 120.891 120.114 120.86 120.106 120.832C119.904 120.2 119.779 119.538 119.674 118.881C119.576 118.22 119.522 117.553 119.498 116.886C119.474 116.219 119.467 115.55 119.511 114.881C119.515 114.83 119.52 114.781 119.523 114.73C120.148 114.275 120.768 113.821 121.389 113.367C121.281 113.902 121.249 114.448 121.261 114.991C121.293 115.699 121.415 116.409 121.677 117.084C121.93 117.756 122.285 118.419 122.895 118.935L122.913 118.952C122.927 118.964 122.946 118.967 122.964 118.962C122.993 118.954 123.008 118.923 123 118.894C122.798 118.263 122.673 117.601 122.568 116.944C122.47 116.283 122.415 115.616 122.392 114.949C122.368 114.282 122.361 113.613 122.405 112.944C122.412 112.83 122.424 112.719 122.432 112.605C123.487 111.83 124.541 111.058 125.596 110.292C129.451 107.508 133.329 104.797 137.288 102.43C139.261 101.25 141.284 100.173 143.277 99.3888C144.263 98.9892 145.264 98.6861 146.132 98.5861C146.579 98.515 146.945 98.554 147.26 98.5794C147.573 98.6065 147.753 98.6962 147.956 98.786C148.13 98.8943 148.31 99.0941 148.456 99.4328C148.606 99.7952 148.679 100.136 148.72 100.574C148.733 100.801 148.738 100.991 148.71 101.279L148.621 102.159C148.559 102.747 148.479 103.331 148.405 103.92C148.279 105.104 148.081 106.279 147.898 107.471C147.802 108.065 147.68 108.653 147.573 109.251C147.482 109.854 147.37 110.453 147.292 111.069L147.287 111.108C147.279 111.171 147.314 111.232 147.375 111.256C147.446 111.283 147.528 111.246 147.555 111.174L148.833 107.778C149.223 106.631 149.575 105.473 149.888 104.303C150.044 103.717 150.186 103.129 150.32 102.538C150.444 101.947 150.603 101.362 150.655 100.73C150.709 100.107 150.655 99.4633 150.482 98.8571C150.313 98.2492 150.012 97.6548 149.549 97.1925L149.548 97.1891Z" fill="#003B71"/>
<path d="M118.973 141.831C119.04 141.776 119.062 141.682 119.024 141.604C119.002 141.56 118.964 141.528 118.919 141.511C118.869 141.494 118.822 141.499 118.778 141.521C111.852 144.962 104.38 147.077 96.5683 147.805C89.0872 148.567 81.6535 148.054 74.4721 146.279C74.6295 145.908 74.7328 145.537 74.7802 145.173L74.787 145.112C74.7938 145.053 74.7701 144.994 74.7244 144.955C74.6888 144.924 74.6431 144.909 74.5957 144.914C74.5483 144.919 74.5059 144.941 74.4754 144.979C74.0064 145.546 73.3985 146.064 72.6162 146.565C71.9439 146.994 71.1972 147.344 70.3962 147.603C69.5987 147.859 68.7909 148.02 67.9917 148.081C67.1806 148.14 66.4575 148.121 65.7853 148.02C65.8107 147.056 65.66 146.105 65.3332 145.192C65.152 144.667 64.8912 144.14 64.5576 143.622C65.2874 143.836 66.0782 144.054 67.0299 144.308C67.1196 144.332 67.2128 144.286 67.2483 144.201C67.289 144.108 67.2449 144 67.1501 143.959L64.0886 142.655C63.7482 142.52 63.4112 142.354 63.0861 142.195C62.9202 142.113 62.7525 142.032 62.5849 141.953C62.0786 141.717 61.5841 141.455 61.1066 141.199C59.2338 140.247 57.3068 139.116 55.3815 137.841C53.4934 136.581 51.7036 135.245 50.0627 133.872C49.2228 133.169 48.3863 132.431 47.5735 131.676C47.0503 131.193 46.5389 130.678 46.0461 130.18C45.7701 129.901 45.4924 129.622 45.2079 129.341C45.125 129.261 44.998 129.241 44.8964 129.291C43.2843 130.084 41.5131 130.572 39.6318 130.739C38.7885 130.817 37.8894 130.822 36.8869 130.756C36.1842 130.704 35.4628 130.595 34.6788 130.424C35.7287 129.317 36.4941 127.861 36.9547 126.091C37.3865 124.45 37.5118 122.642 37.3272 120.711C37.1358 118.842 36.6973 117.086 36.0233 115.491C35.3054 113.782 34.3706 112.284 33.2463 111.036C33.7695 109.661 33.7018 108.035 33.06 106.565C32.9228 106.257 32.7552 105.957 32.5605 105.669C33.248 106.122 33.9253 106.638 34.6636 107.27C36.0572 108.523 37.3577 109.925 38.6361 111.557C39.896 113.152 41.0576 114.863 42.1379 116.478C42.5393 117.091 42.9253 117.702 43.3334 118.347C44.0599 119.497 44.8117 120.684 45.6601 121.897L45.6838 121.931C45.7261 121.991 45.8006 122.02 45.8734 122.002C45.9716 121.978 46.0309 121.88 46.0089 121.783C45.4823 119.562 44.7711 117.494 43.8939 115.638C42.9321 113.572 41.7976 111.696 40.5225 110.062C39.0578 108.226 37.4423 106.74 35.7202 105.642C34.7601 105.029 33.7627 104.55 32.7586 104.218C32.2184 104.045 31.6782 103.918 31.155 103.837C30.7909 103.775 30.4184 103.761 30.056 103.747C29.8782 103.741 29.6987 103.736 29.5159 103.722H29.5125C29.5125 103.722 29.504 103.722 29.5006 103.722C29.4261 103.722 29.3584 103.768 29.333 103.834L29.3245 103.864V103.876V103.896L29.3279 103.905C29.3279 103.929 29.3313 103.959 29.3482 103.988C29.3618 104.015 29.3804 104.032 29.4058 104.047L29.4549 104.083L29.4752 104.086L29.4871 104.015L29.4989 104.093C29.8037 104.21 30.1204 104.344 30.4845 104.511C30.7537 104.691 31.0026 104.912 31.2261 105.17C31.6528 105.647 31.983 106.257 32.1829 106.933C32.3776 107.595 32.4572 108.267 32.4115 108.877C32.3708 109.486 32.2015 110.087 31.9187 110.612C31.729 110.966 31.7646 111.4 32.0118 111.716L32.127 111.864C33.0278 113.012 33.761 114.417 34.3723 116.16C34.6483 116.964 34.8566 117.753 34.9938 118.505C35.1174 119.219 35.2055 120.003 35.2613 120.899C35.3579 122.582 35.1919 124.132 34.7669 125.503C34.2775 127.095 33.5663 128.323 32.7146 129.051C32.3979 129.322 32.1744 129.679 32.0677 130.082C31.7815 131.171 32.4335 132.29 33.5223 132.577L33.5917 132.595C34.6094 132.863 35.6525 133.044 36.6939 133.135C37.6676 133.225 38.6971 133.213 39.8435 133.1C41.4979 132.93 43.0998 132.539 44.6068 131.933C45.1436 132.439 45.6025 132.863 46.0817 133.276C46.9419 134.024 47.8343 134.759 48.7351 135.462C50.4539 136.771 52.3741 138.048 54.44 139.26C56.0757 140.171 58.25 141.329 60.5749 142.223C61.4334 142.598 62.3681 142.941 63.5162 143.302C63.5636 143.629 63.6093 143.971 63.6517 144.316C63.7008 144.846 63.7143 145.341 63.7211 145.713C63.7262 146.552 63.6517 147.354 63.4993 148.098C63.3147 148.999 63.8633 149.888 64.749 150.123L65.1215 150.223C65.8344 150.412 66.5659 150.507 67.2974 150.507C68.5928 150.507 69.8882 150.211 71.082 149.63C72.0252 149.171 72.8295 148.568 73.4713 147.839C73.7693 147.488 74.0233 147.127 74.2282 146.763C77.3761 148.231 80.9406 149.275 84.82 149.869C86.8435 150.209 88.8874 150.324 90.794 150.399C92.5314 150.445 94.4381 150.377 96.802 150.191C99.0033 149.938 100.944 149.625 102.737 149.232C103.746 148.992 104.723 148.734 105.641 148.47C106.513 148.235 107.421 147.938 108.493 147.532C112.509 146.062 116.028 144.145 118.951 141.837L118.971 141.822L118.973 141.831Z" fill="#003B71"/>
<path d="M146.127 111.84C146.06 111.633 145.97 111.386 145.826 111.117C145.724 110.902 145.58 110.673 145.374 110.397C145.011 109.92 144.539 109.508 144.045 109.239C142.984 108.643 141.982 108.597 141.235 108.623C139.677 108.706 138.562 109.18 137.366 109.747C135.104 110.848 133.25 112.346 131.731 113.669C129.837 115.42 128.413 116.976 127.248 118.569L127.23 118.595C127.172 118.673 127.176 118.779 127.236 118.854C127.272 118.898 127.323 118.925 127.379 118.93C127.438 118.933 127.49 118.918 127.535 118.882C129.335 117.404 131.016 116.149 132.677 115.042C134.147 114.06 136.108 112.824 138.253 111.964C139.144 111.621 140.197 111.269 141.261 111.256H141.274C141.852 111.256 142.299 111.359 142.642 111.574C143.103 111.833 143.323 112.302 143.426 112.649C143.702 113.64 143.481 114.774 143.257 115.65C143.027 116.532 142.692 117.447 142.168 118.617C140.414 122.484 138.055 126.062 135.16 129.251C133.783 130.773 132.228 132.265 130.54 133.684C128.898 135.101 127.187 136.417 125.453 137.594C125.374 137.648 125.34 137.748 125.372 137.838C125.391 137.892 125.43 137.934 125.48 137.96C125.531 137.983 125.589 137.987 125.643 137.968L125.675 137.956C126.734 137.58 127.831 137.089 129.026 136.459C128.606 137.394 128.088 138.344 127.484 139.284C126.53 140.735 125.386 142.113 124.078 143.382C122.758 144.655 121.359 145.779 119.923 146.724C118.623 147.576 117.258 148.287 115.861 148.838C116.226 148.245 116.516 147.734 116.767 147.242C117.154 146.489 117.52 145.696 117.854 144.892C117.883 144.823 117.866 144.743 117.813 144.691C117.742 144.621 117.629 144.625 117.559 144.696L117.53 144.724C117.165 145.102 116.873 145.415 116.616 145.707C116.294 146.054 116.008 146.37 115.744 146.675C115.625 146.807 115.503 146.939 115.381 147.068C115.216 147.246 115.044 147.43 114.887 147.617C114.647 147.891 114.393 148.153 114.145 148.407L114.04 148.516C113.725 148.844 113.59 149.305 113.678 149.745C113.751 150.106 113.959 150.417 114.264 150.621C114.492 150.773 114.755 150.851 115.024 150.851C115.116 150.851 115.205 150.843 115.297 150.824L115.722 150.739C116.685 150.546 117.635 150.279 118.548 149.943C119.439 149.6 120.324 149.173 121.183 148.673C122.825 147.722 124.351 146.499 125.716 145.041C126.4 144.308 127.013 143.544 127.536 142.77C128.107 141.937 128.581 141.021 128.97 140.23C129.66 138.64 130.037 137.209 130.13 135.855C130.606 135.584 131.091 135.296 131.612 134.976C132.518 134.395 133.443 133.752 134.36 133.062C135.237 132.405 136.044 131.682 136.931 130.871C137.305 130.526 137.705 130.14 138.155 129.694C138.538 129.298 138.907 128.878 139.264 128.474L139.298 128.435C140.045 127.574 140.763 126.677 141.433 125.769C142.819 123.837 143.946 121.895 144.886 119.832C145.331 118.8 145.785 117.665 146.097 116.381C146.258 115.723 146.363 115.04 146.408 114.351C146.447 113.609 146.441 112.792 146.127 111.84Z" fill="#003B71"/>
<path d="M98.2889 131.479C98.3261 131.447 98.338 131.393 98.316 131.345C98.2889 131.289 98.2228 131.267 98.1669 131.295C96.7699 131.975 95.3391 132.585 93.8811 133.12C92.4232 133.653 90.9483 134.139 89.4429 134.522C86.4305 135.264 83.3689 135.843 80.2701 136.014C77.1798 136.305 74.0624 136.231 70.9788 135.87C69.3397 135.67 67.7124 135.386 66.1003 135.027C66.0969 134.248 65.9039 133.455 65.5805 132.725C65.4111 132.336 65.2029 131.967 64.9861 131.598C64.7541 131.242 64.5018 130.897 64.2275 130.57C63.6907 129.901 63.0506 129.327 62.3648 128.805C61.6807 128.275 60.9204 127.84 60.1161 127.493C59.8638 127.385 59.5759 127.351 59.2881 127.417C58.565 127.581 58.1129 128.299 58.2754 129.022L58.3127 129.183C58.4211 129.662 58.3686 130.141 58.2636 130.572C58.2331 130.682 58.1959 130.787 58.1518 130.89C57.4271 130.568 56.7057 130.241 56.003 129.876C55.4662 129.622 54.9294 129.364 54.4011 129.088C53.8711 128.817 53.3614 128.511 52.8229 128.245C52.2844 127.977 51.7697 127.669 51.2447 127.374C50.713 127.085 50.1881 126.784 49.6699 126.467C48.6167 125.854 47.6227 125.149 46.4746 124.567L46.4475 124.553C46.4153 124.536 46.3747 124.543 46.3493 124.572C46.3188 124.606 46.3222 124.657 46.3544 124.687C47.2688 125.515 48.1493 126.384 49.0925 127.18C50.0492 127.96 51.0381 128.704 52.0711 129.379C54.1166 130.766 56.3027 131.941 58.5718 132.922C58.631 132.947 58.7039 132.937 58.753 132.888C59.2999 132.37 59.6775 131.684 59.8485 130.954C59.9976 130.319 59.9823 129.654 59.8316 129.022C61.1812 129.561 62.436 130.346 63.5011 131.34C64.5645 132.336 65.4738 133.565 65.8734 134.972C64.5323 134.666 63.2013 134.312 61.8907 133.89C61.8433 133.875 61.7908 133.892 61.7637 133.936C61.7298 133.989 61.7451 134.056 61.7976 134.09L61.8196 134.105C64.5289 135.86 67.604 136.982 70.7638 137.655C72.3436 138.026 73.9574 138.183 75.5745 138.324C76.3839 138.39 77.1967 138.388 78.0061 138.373L80.4361 138.271C82.0583 138.2 83.6551 137.868 85.2502 137.597C85.6448 137.507 86.0461 137.452 86.4355 137.335L87.6022 136.994C88.3812 136.778 89.1516 136.527 89.9136 136.264C92.9549 135.177 95.8352 133.618 98.2702 131.498L98.2906 131.481L98.2889 131.479Z" fill="#003B71"/>
<path d="M89.9898 140.484C88.4285 140.716 86.8571 140.879 85.2789 140.972C85.2603 140.972 85.2417 140.986 85.2332 141.004C85.2214 141.031 85.2332 141.063 85.2603 141.075L85.284 141.086C86.0934 141.446 86.9096 141.597 87.7207 141.665C88.1288 141.715 88.5301 141.693 88.9365 141.7C89.3396 141.685 89.7409 141.639 90.1422 141.604C90.5384 141.534 90.9364 141.468 91.3292 141.378C91.7187 141.262 92.1115 141.179 92.4908 141.019C93.2545 140.738 93.9996 140.374 94.6854 139.809L94.7057 139.792C94.721 139.78 94.7277 139.76 94.7243 139.739C94.7176 139.711 94.6905 139.692 94.66 139.699C93.1157 140.027 91.5561 140.291 89.9898 140.484Z" fill="#003B71"/>
<path d="M115.72 130.016L113.769 131.349C113.104 131.771 112.45 132.207 111.78 132.619C110.435 133.438 109.057 134.199 107.65 134.903C104.856 136.353 101.924 137.519 98.9373 138.525C98.9069 138.535 98.8831 138.564 98.8814 138.598C98.8781 138.644 98.9136 138.683 98.9593 138.684H98.9881C100.675 138.786 102.299 138.54 103.872 138.131C105.445 137.721 106.971 137.15 108.415 136.415C109.859 135.682 111.236 134.81 112.487 133.769C113.117 133.262 113.705 132.682 114.282 132.109C114.829 131.491 115.366 130.866 115.818 130.152L115.833 130.128C115.85 130.101 115.85 130.065 115.832 130.037C115.806 129.999 115.754 129.989 115.717 130.015L115.72 130.016Z" fill="#003B71"/>
<path d="M120.727 123.057C120.748 122.997 120.717 122.933 120.658 122.913L120.644 122.908C117.208 121.699 113.615 120.964 110.003 120.467C106.386 119.965 102.732 119.758 99.0661 119.775C97.2339 119.787 95.3983 119.887 93.5611 120.009C91.7238 120.176 89.8916 120.405 88.0561 120.735C86.2222 121.069 84.3815 121.46 82.5595 122.091C81.6468 122.408 80.7341 122.759 79.8197 123.214C79.3625 123.448 78.907 123.676 78.4464 123.99C77.9926 124.252 77.5286 124.655 77.0816 125.034C76.6295 125.422 76.3552 126.022 76.4076 126.662C76.494 127.723 77.4236 128.512 78.4854 128.426L78.5616 128.419C80.8239 128.235 83.1471 128.179 85.4737 128.26C87.8021 128.325 90.1473 128.441 92.4858 128.68C94.8362 128.855 97.1747 129.168 99.5284 129.473C100.702 129.64 101.875 129.821 103.052 130.009C104.231 130.196 105.401 130.419 106.591 130.612L106.61 130.616C106.664 130.624 106.718 130.592 106.735 130.538C106.754 130.478 106.722 130.416 106.662 130.397C104.385 129.676 102.089 129.005 99.7604 128.472C97.4337 127.928 95.0851 127.476 92.7229 127.114C90.3607 126.751 87.9833 126.475 85.5974 126.32C83.4197 126.177 81.2319 126.13 79.0442 126.233C80.282 125.312 81.7755 124.713 83.2639 124.218C84.9624 123.673 86.7082 123.26 88.4659 122.918C91.988 122.252 95.5677 121.895 99.1525 121.731C102.739 121.563 106.334 121.587 109.919 121.804C113.502 122.025 117.08 122.427 120.6 123.133C120.654 123.143 120.71 123.112 120.729 123.06L120.727 123.057Z" fill="#003B71"/>
<path d="M39.752 127.029C39.3846 127.22 39.1729 127.542 39.2796 127.749C39.3863 127.955 39.7723 127.967 40.1398 127.778C40.5072 127.586 40.7189 127.264 40.6122 127.058C40.5056 126.851 40.1195 126.839 39.752 127.029Z" fill="#003B71"/>
<path d="M123.834 123.986C124.202 123.795 124.413 123.473 124.307 123.267C124.2 123.06 123.814 123.048 123.447 123.238C123.079 123.429 122.867 123.751 122.974 123.957C123.081 124.164 123.467 124.176 123.834 123.986Z" fill="#003B71"/>
<path d="M41.9923 125.16C41.7316 125.439 41.7316 125.861 41.9889 126.101C42.248 126.342 42.668 126.311 42.9287 126.032C43.1895 125.752 43.1895 125.331 42.9321 125.09C42.6747 124.85 42.2531 124.88 41.9923 125.16Z" fill="#003B71"/>
<path d="M91.8507 99.7698C91.2056 99.8985 90.5638 99.9696 89.9508 99.9814C89.2921 99.9798 88.6605 99.9256 88.0204 99.8138C87.3211 99.6902 86.725 99.5005 86.1984 99.233C85.6057 98.9417 85.1113 98.5201 84.7625 98.0087C84.6829 97.8953 84.5322 97.8563 84.4119 97.9224C84.3476 97.9562 84.2985 98.0138 84.2782 98.0849C84.2562 98.1543 84.2646 98.2288 84.2985 98.2898C84.6338 98.9197 85.1553 99.4718 85.8072 99.8866C86.366 100.244 87.0163 100.52 87.7901 100.732C88.4302 100.908 89.1177 101.023 89.895 101.087C90.11 101.099 90.3267 101.106 90.5452 101.106C91.0295 101.106 91.5256 101.075 92.0252 101.016C93.3832 100.843 94.7497 100.445 96.0959 99.8307C97.5895 99.0958 98.7528 98.5675 99.8636 98.1154C104.62 96.1816 109.809 94.6237 115.722 93.3537C118.482 92.756 121.228 92.2666 123.885 91.8992C125.079 91.7298 126.566 91.5199 128.003 91.381C129.233 91.232 130.489 91.1389 131.707 91.0474L132.13 91.0152C135.359 90.8222 137.987 90.8087 140.405 90.9746C141.682 91.0491 143.022 91.2134 144.493 91.4741C145.722 91.7247 147.136 92.0482 148.352 92.7255C148.472 92.7916 148.625 92.7577 148.706 92.6425C148.791 92.5206 148.76 92.3513 148.64 92.2649C147.434 91.4149 146.031 90.939 144.686 90.5513C143.948 90.3599 143.281 90.1906 142.61 90.0754C141.867 89.9213 141.128 89.8113 140.504 89.7249C137.901 89.3896 135.132 89.2643 132.034 89.3355C126.63 89.4929 120.998 90.1754 115.293 91.3624C112.32 92.0279 109.648 92.7357 107.126 93.5315C104.559 94.3816 101.824 95.3366 99.2134 96.5592C98.597 96.8437 97.94 97.1536 97.2948 97.4855C96.7716 97.7429 96.2179 98.051 95.7285 98.322L95.4525 98.4744C94.2942 99.0941 93.0818 99.5293 91.8541 99.7681L91.8507 99.7698Z" fill="#003B71"/>
<path d="M48.7809 99.6174C48.9993 99.6225 49.2178 99.6242 49.4362 99.6242C50.8129 99.6242 52.193 99.5328 53.5459 99.3533C55.0361 99.1382 56.6024 98.8114 58.2026 98.3779C61.701 97.4313 64.5577 96.2003 66.9385 94.6153C69.6275 92.8644 72.408 91.4217 75.2003 90.3261L76.2823 89.9096L77.3982 89.5455C77.9062 89.366 78.4362 89.2254 78.951 89.09C79.1796 89.0307 79.4065 88.9698 79.625 88.9088C81.4131 88.4973 82.866 88.2569 84.1987 88.1569C85.8429 88.0316 87.394 88.0604 88.813 88.2416C89.6427 88.3483 90.3742 88.499 91.0482 88.7056C91.4004 88.8123 91.7679 88.9342 92.0693 89.1001C92.2318 89.1882 92.2369 89.2085 92.2437 89.2441C92.2505 89.283 92.2318 89.3304 92.2047 89.3474C92.1726 89.3626 92.0489 89.3863 91.9677 89.4032C91.8982 89.4168 91.8271 89.4303 91.7645 89.4456L91.5748 89.4896C91.4427 89.5201 91.3107 89.5506 91.1837 89.5861C90.8111 89.6826 90.4233 89.7995 90.0288 89.9366C89.2346 90.2127 88.493 90.5462 87.8241 90.9289C86.3238 91.7807 85.1232 92.944 84.3544 94.2919C84.2766 94.4291 84.307 94.6018 84.4289 94.7051C84.5661 94.8202 84.7727 94.8016 84.9031 94.6458C85.8293 93.5367 87.0248 92.6832 88.4557 92.1058C89.1957 91.8196 89.8747 91.6114 90.5283 91.4691C90.9009 91.3878 91.248 91.3252 91.5951 91.2795C91.7103 91.2608 91.8254 91.249 91.9406 91.2371L92.3961 91.1931L92.6552 91.1525C92.8414 91.1101 93.0311 91.0356 93.2021 90.934C93.8998 90.5225 94.2774 89.7064 94.1453 88.9037C94.086 88.5109 93.893 88.118 93.617 87.8284C93.5475 87.7522 93.4747 87.6879 93.3968 87.6252L92.8143 87.2375C92.7669 87.2104 92.7297 87.1934 92.6924 87.1765L92.3233 86.9987C92.1624 86.9174 92.0083 86.8582 91.8525 86.7989L91.673 86.7278C90.8992 86.4281 90.0661 86.1893 89.1296 85.9946C87.6514 85.6847 86.0766 85.5611 84.0124 85.5882C77.9638 85.7626 71.4817 87.9639 65.2638 91.9534C63.8295 92.8797 62.7441 93.4689 61.5114 93.9888C60.1686 94.5967 58.6886 95.0793 57.4067 95.4857C55.9386 95.9463 54.5027 96.3087 53.1429 96.561C51.6325 96.8082 50.2236 96.9623 48.8402 97.0334C48.3068 97.052 47.7564 97.0453 47.2213 97.0368L46.6541 97.0317C46.3357 97.0046 46.014 96.9843 45.6939 96.964C45.2723 96.9369 44.8524 96.9115 44.429 96.8675L44.0362 96.8268C43.4333 96.7642 42.8085 96.6998 42.1955 96.5881C41.5775 96.5034 40.9509 96.3747 40.3447 96.2511L39.9654 96.1749C37.1833 95.6212 34.2792 94.7559 31.0568 93.5181C30.9078 93.4605 30.7418 93.5181 30.6605 93.6535C30.6148 93.728 30.603 93.8144 30.6233 93.899C30.6453 93.9837 30.6978 94.0548 30.7723 94.1006C33.3749 95.6635 36.2875 96.9674 39.4286 97.9732C42.8 99.0078 45.8565 99.5446 48.7809 99.6174Z" fill="#003B71"/>
<path d="M149.26 93.4706C147.827 93.0506 146.368 92.9423 145.252 92.8932C144.038 92.8508 142.724 92.8864 141.237 93.0032C138.69 93.22 136.03 93.6315 133.331 94.2258L131.378 94.6508C130.955 94.7524 130.535 94.8642 130.115 94.9777C129.891 95.0369 129.668 95.0979 129.448 95.1538C128.523 95.3773 127.604 95.6719 126.716 95.9564C126.349 96.0749 125.982 96.1935 125.606 96.3086C123.003 97.2247 120.534 98.3017 118.265 99.5124C115.713 100.867 113.261 102.455 110.889 103.991C108.876 105.295 106.794 106.641 104.671 107.834C103.768 108.364 102.825 108.86 101.911 109.339L101.191 109.718L98.5157 111.007L97.6115 111.395C95.3289 112.319 92.8566 113.057 90.0592 113.655C84.942 114.751 79.6469 115.223 74.3298 115.054C73.0599 115 71.7086 114.937 70.3776 114.8L69.3955 114.71L66.4389 114.311C65.4957 114.207 64.5458 114.021 63.628 113.841C63.2656 113.77 62.9016 113.699 62.5358 113.633C61.5672 113.472 60.5952 113.227 59.6554 112.988C59.3303 112.905 59.0052 112.824 58.6801 112.744L57.7183 112.504C57.5168 112.45 57.3186 112.387 57.1188 112.324C57.0037 112.287 56.8902 112.251 56.7768 112.218L54.8769 111.625C54.3909 111.486 53.9066 111.301 53.4392 111.124L51.1718 110.269C48.8418 109.244 46.3763 108.125 44.1208 106.689C39.2559 103.712 35.3764 100.137 32.5909 96.0631C32.5029 95.9344 32.3284 95.8955 32.1947 95.9734C32.1252 96.014 32.0761 96.0783 32.0558 96.1562C32.0355 96.2341 32.0457 96.3154 32.0897 96.3899C32.7518 97.5261 33.5087 98.6556 34.3418 99.7495C34.6127 100.105 34.9074 100.449 35.1919 100.779C35.3426 100.953 35.4916 101.128 35.6457 101.312C35.9454 101.644 36.2553 101.969 36.5635 102.296L37.0342 102.796C38.8258 104.611 40.9356 106.364 43.3063 108.006C43.8719 108.386 44.4442 108.755 45.0267 109.126L46.7946 110.133C47.3991 110.497 48.0256 110.805 48.6132 111.091L50.4522 111.999C53.0616 113.142 55.6473 114.085 58.1399 114.802C58.465 114.89 58.7901 114.983 59.1136 115.076C60.0855 115.352 61.0897 115.638 62.0972 115.835C62.4088 115.899 62.7221 115.967 63.0336 116.034C64.0361 116.251 65.0741 116.475 66.1053 116.608L69.133 117.072L70.1473 117.186C71.5409 117.353 72.9345 117.443 74.2435 117.523C75.1833 117.563 76.1231 117.582 77.0646 117.582C81.5926 117.582 86.1358 117.116 90.6078 116.194C93.5526 115.542 96.162 114.741 98.5868 113.74L99.5724 113.308L102.329 111.955L103.022 111.584C103.978 111.075 104.967 110.548 105.902 109.969C108.278 108.56 110.557 107.033 112.689 105.588L113.199 105.246C115.261 103.863 117.208 102.557 119.269 101.38C121.279 100.224 123.489 99.1738 126.224 98.0765C126.583 97.9495 126.942 97.8191 127.301 97.687C128.144 97.3771 129.016 97.0571 129.898 96.8065C130.127 96.737 130.354 96.6659 130.582 96.5948C130.977 96.4712 131.371 96.3493 131.766 96.2375L132.43 96.0648C132.843 95.9581 133.258 95.8514 133.668 95.7363C136.275 95.0081 138.858 94.4629 141.34 94.1107C142.735 93.921 144.009 93.8143 145.236 93.7856C146.307 93.7517 147.717 93.7517 149.116 94.0531C149.275 94.087 149.422 93.9938 149.466 93.8431C149.512 93.6856 149.421 93.5197 149.263 93.4723L149.26 93.4706Z" fill="#003B71"/>
<path d="M104.622 105.214C108.098 102.462 111.742 100.11 115.517 98.2492C119.274 96.3272 123.166 94.8947 127.125 93.9718C127.155 93.9651 127.179 93.9295 127.182 93.8855C127.186 93.833 127.157 93.7873 127.118 93.7822H127.101C125.032 93.5485 122.976 93.7788 120.957 94.2546L120.197 94.4273L119.449 94.6593C118.949 94.8151 118.45 94.9726 117.955 95.1538C116.966 95.5246 115.994 95.9683 115.027 96.4272C114.074 96.9385 113.121 97.4584 112.195 98.0511C111.736 98.3626 111.273 98.6641 110.821 98.9943C110.364 99.3075 109.917 99.6513 109.48 100.017C107.716 101.434 106.036 103.063 104.551 105.046L104.539 105.061C104.517 105.09 104.51 105.139 104.527 105.178C104.546 105.224 104.59 105.239 104.622 105.214Z" fill="#003B71"/>
<path d="M70.4454 109.366C70.0796 109.447 69.7139 109.566 69.343 109.622C68.6014 109.701 67.8563 109.855 67.1028 109.862C64.0819 109.935 61.0068 108.943 57.9639 107.471L57.9503 107.464C57.9147 107.447 57.8707 107.461 57.8487 107.502C57.8233 107.547 57.8352 107.608 57.8724 107.637C60.5987 109.723 63.7347 111.215 67.03 111.422C70.3303 111.654 73.5815 110.485 76.5346 108.863C78.018 108.05 79.4658 107.161 80.9593 106.409C82.4477 105.661 84.0056 105.058 85.6143 104.931C87.2162 104.802 88.8468 105.146 90.3167 105.927C91.7915 106.696 93.1208 107.828 94.2757 109.161C94.3027 109.193 94.3468 109.198 94.3806 109.171C94.4179 109.141 94.4281 109.08 94.4027 109.034L94.3942 109.019C93.4527 107.4 92.1861 106.015 90.6807 104.97C89.177 103.946 87.3669 103.348 85.5381 103.375C83.6991 103.355 81.9516 103.995 80.3548 104.691C78.758 105.426 77.2966 106.311 75.8404 107.061C74.4095 107.881 72.9854 108.545 71.5342 109.024C71.1735 109.154 70.8129 109.293 70.4454 109.366Z" fill="#003B71"/>
<path d="M73.7169 98.3694C70.7756 99.6817 67.7073 100.711 64.5695 101.422C61.4335 102.142 58.2195 102.518 55.0056 102.554C51.7916 102.618 48.5692 102.335 45.4129 101.704C42.2565 101.074 39.1679 100.108 36.2045 98.8435C36.169 98.8283 36.1266 98.8401 36.1029 98.874C36.0775 98.9112 36.0877 98.9637 36.1266 98.9874L36.1385 98.9959C38.8732 100.82 41.95 102.123 45.1504 102.987C46.7472 103.446 48.3914 103.715 50.0407 103.949C51.6951 104.14 53.3631 104.213 55.0293 104.213C56.6955 104.174 58.3601 104.034 60.006 103.791C61.6485 103.521 63.2792 103.194 64.8625 102.692C68.0358 101.748 71.077 100.383 73.7846 98.5184L73.7965 98.5099C73.8287 98.4879 73.8405 98.4456 73.8253 98.4083C73.8067 98.366 73.7575 98.3491 73.7169 98.366V98.3694Z" fill="#003B71"/>
<path d="M100.114 89.4421C100.212 88.6767 99.4182 87.9435 98.3396 87.8064C97.2609 87.6692 95.7979 88.1755 95.6997 88.9409C95.6015 89.7063 96.9053 90.4395 97.984 90.5767C99.0626 90.7155 100.016 90.2075 100.114 89.4421Z" fill="#003B71"/>
<path d="M103.943 90.1381C103.999 89.7012 103.545 89.2829 102.93 89.205C102.316 89.1271 101.77 89.415 101.714 89.8519C101.659 90.2888 102.111 90.707 102.727 90.7849C103.343 90.8628 103.887 90.5749 103.943 90.1381Z" fill="#003B71"/>
<path d="M115.153 71.4708C115.209 71.0339 114.757 70.6157 114.14 70.5378C113.526 70.4582 112.98 70.7477 112.924 71.1846C112.869 71.6215 113.322 72.0397 113.937 72.1176C114.552 72.1972 115.097 71.9077 115.153 71.4708Z" fill="#003B71"/>
<path d="M118.577 71.293C118.702 71.0474 118.448 70.6698 118.013 70.448C117.576 70.2262 117.122 70.2448 116.997 70.4903C116.873 70.7359 117.126 71.1135 117.562 71.3353C117.999 71.5571 118.453 71.5385 118.577 71.293Z" fill="#003B71"/>
<path d="M69.3345 73.1607C69.2312 73.3639 69.4412 73.6771 69.8035 73.8617C70.1659 74.0463 70.5418 74.0311 70.6451 73.8279C70.7484 73.6247 70.5384 73.3114 70.1761 73.1268C69.8137 72.9422 69.4378 72.9575 69.3345 73.1607Z" fill="#003B71"/>
<path d="M116.04 72.9202C115.996 73.264 116.26 73.5806 116.631 73.6281C117.002 73.6755 117.337 73.4367 117.381 73.093C117.425 72.7492 117.161 72.4326 116.79 72.3851C116.419 72.3377 116.084 72.5765 116.04 72.9202Z" fill="#003B71"/>
<path d="M73.7627 63.7271C73.639 63.9727 73.8913 64.3503 74.3282 64.5721C74.7651 64.7939 75.2189 64.7753 75.3425 64.5298C75.4661 64.2842 75.2138 63.9066 74.777 63.6848C74.3401 63.463 73.8863 63.4816 73.7627 63.7271Z" fill="#003B71"/>
<path d="M72.1928 74.3782C72.1488 74.722 72.413 75.0387 72.7838 75.0861C73.1547 75.1335 73.4916 74.8947 73.5357 74.551C73.5797 74.2072 73.3155 73.8906 72.9447 73.8432C72.5738 73.7957 72.2386 74.0345 72.1928 74.3782Z" fill="#003B71"/>
<path d="M150.438 86.4906C150.376 86.367 150.301 86.2468 150.22 86.1553C150.183 86.1113 150.129 86.0504 150.101 86.0233L150.059 85.9843C149.157 85.158 148.286 84.3011 147.357 83.507C146.435 82.7026 145.516 81.9 144.556 81.1431C143.614 80.3658 142.649 79.6174 141.682 78.8723C137.801 75.9124 133.84 73.098 129.827 70.3497C127.826 68.9663 125.804 67.6065 123.753 66.2773C121.692 64.9446 119.593 63.7136 117.461 62.535C115.314 61.3717 113.097 60.2795 110.725 59.4633C109.528 59.0772 108.325 58.6894 107.05 58.4693C105.784 58.2543 104.475 58.1239 103.149 58.2526C101.831 58.366 100.507 58.6911 99.3167 59.2906C98.1263 59.8714 97.173 60.5555 96.1332 61.1245C94.0894 62.2878 91.8711 63.1175 89.4666 63.4342C89.4039 63.4426 89.3514 63.4934 89.3464 63.5595C89.3396 63.6357 89.3955 63.7034 89.4734 63.7102C91.0041 63.8575 92.5739 63.7102 94.0962 63.3393C94.1216 63.3529 94.1436 63.3732 94.1724 63.3817L94.1893 63.3868C94.7616 63.5696 95.3746 63.8287 95.9554 64.0963C96.5413 64.3672 97.1205 64.6652 97.6894 64.9802C98.824 65.6186 99.9229 66.3365 100.974 67.1273C100.045 66.1977 99.0492 65.3239 97.9942 64.5162C97.4642 64.1149 96.9206 63.7305 96.3585 63.3681C96.1045 63.2056 95.8521 63.0481 95.5931 62.8957C95.9927 62.7585 96.3889 62.6129 96.7767 62.4486C97.0222 62.3487 97.2661 62.2421 97.5065 62.1354L97.7622 62.215C98.5005 62.4436 99.2913 62.7551 100.045 63.0786C100.803 63.4088 101.557 63.7627 102.294 64.1538C103.77 64.9277 105.198 65.8184 106.561 66.8124C105.379 65.6084 104.102 64.4806 102.739 63.4528C102.06 62.9346 101.355 62.447 100.632 61.9796C100.238 61.7273 99.845 61.4834 99.4386 61.2481C99.6503 61.1532 99.8603 61.0635 100.067 60.9907C101.088 60.5843 102.18 60.4403 103.271 60.3929C104.366 60.3438 105.484 60.5335 106.588 60.7722C107.699 60.9924 108.799 61.3802 109.895 61.7662C112.074 62.6146 114.243 63.5967 116.431 64.5924L119.732 66.0842C120.831 66.5753 121.921 67.0765 123.005 67.6048C125.174 68.6513 127.289 69.818 129.338 71.0931C133.419 73.6704 137.205 76.7048 140.7 80.0238C142.378 81.5952 143.985 83.2377 145.589 84.8752C141.477 83.2563 137.23 82.154 132.955 81.3446C131.747 81.1295 130.542 80.9162 129.329 80.7468C128.752 80.6588 128.022 80.5775 127.704 80.4911C127.28 80.3828 126.788 80.1677 126.264 79.9154C125.739 79.6631 125.172 79.3684 124.534 79.1111C123.894 78.8537 123.186 78.6285 122.363 78.5861C121.948 78.5607 121.471 78.6081 121.032 78.7572C120.592 78.9028 120.234 79.1246 119.987 79.2787C119.488 79.5903 119.32 79.6716 118.878 79.6885H118.705L118.416 79.6834C118.231 79.6851 118.057 79.6953 117.886 79.7071C117.549 79.7342 117.232 79.7799 116.924 79.8273C116.309 79.9222 115.723 80.0288 115.171 80.0898C115.036 80.1034 114.902 80.1152 114.777 80.122L114.594 80.1271C114.528 80.1288 114.528 80.122 114.489 80.1254C114.32 80.1067 114.047 80.0136 113.791 79.9222C113.263 79.7291 112.706 79.4785 112.132 79.2431C111.839 79.1263 111.549 79.0078 111.226 78.9062C111.062 78.8571 110.901 78.8063 110.709 78.7707C110.532 78.7301 110.269 78.7199 110.135 78.7301C109.475 78.747 108.843 78.8571 108.239 78.9874C107.03 79.2601 105.9 79.6208 104.703 79.697C103.907 79.5361 103.11 79.4074 102.311 79.2855L99.9534 78.962C99.3557 78.8418 98.6953 78.4845 98.0179 78.1154C97.3355 77.7445 96.6277 77.3195 95.7895 76.9792C95.3679 76.8081 94.8988 76.6608 94.3654 76.5948C94.2266 76.5829 94.0928 76.5694 93.9505 76.5643C93.7981 76.5711 93.6186 76.5778 93.4849 76.5982L93.1005 76.6642L92.7567 76.7472C91.8864 76.9876 91.1278 77.2755 90.3776 77.5617C89.6393 77.8377 88.8909 78.1357 88.2575 78.3203C88.1746 78.3474 88.1052 78.3643 88.0408 78.3778L87.9409 78.4016L87.8799 78.41C87.8562 78.4134 87.8495 78.4185 87.8139 78.4219L87.6852 78.4253L87.4278 78.4337C87.0841 78.4354 86.7386 78.4185 86.3898 78.3846C84.9962 78.2695 83.4688 77.6785 81.7162 77.4905C81.2861 77.4397 80.8441 77.4313 80.409 77.4431C79.9738 77.4567 79.5487 77.4973 79.0865 77.6023C78.1992 77.8292 77.4558 78.2458 76.7547 78.6572C76.052 79.0687 75.3815 79.4904 74.6821 79.7935C74.335 79.9459 73.9811 80.0593 73.6305 80.1254C73.3037 80.1762 72.8719 80.1914 72.4791 80.2134C71.6781 80.2625 70.8772 80.2998 70.0728 80.3201L67.6615 80.4065C66.0512 80.4539 64.4391 80.5216 62.8322 80.6334C61.2252 80.7654 59.6233 80.9297 58.0231 81.1414C54.8244 81.5461 51.6223 82.0168 48.4744 82.7687C47.687 82.9482 46.9013 83.1514 46.1207 83.3664C45.3383 83.5713 44.5577 83.7948 43.7855 84.0454C42.2345 84.5145 40.6969 85.0428 39.1865 85.6406C36.1706 86.8361 33.1971 88.2483 30.5725 90.1736C30.5251 90.2109 30.5013 90.2769 30.5234 90.3345C30.5505 90.4073 30.6317 90.4429 30.7029 90.4158C36.7548 88.2754 42.9084 86.941 49.1145 85.6541C52.2116 85.0039 55.3104 84.3231 58.4346 83.7254C61.5588 83.1463 64.688 82.5299 67.8292 81.9118C69.4006 81.6104 70.9771 81.3361 72.5654 81.1481C72.9685 81.0906 73.3359 81.055 73.7999 80.9754C74.23 80.8738 74.6398 80.7299 75.0242 80.5589C75.7895 80.2117 76.4855 79.7935 77.1865 79.4396C77.8842 79.0823 78.6005 78.791 79.2914 78.7182C79.6199 78.6979 79.9975 78.7148 80.3615 78.7605C80.7256 78.8029 81.0829 78.8808 81.4368 78.9891C82.8389 79.3905 84.2291 80.2591 86.0071 80.6588C86.4474 80.7519 86.8995 80.8213 87.355 80.8467L87.6971 80.862L87.8681 80.8687C87.9324 80.8687 88.0239 80.8603 88.1001 80.8552L88.3371 80.8315L88.5319 80.7959C88.664 80.7722 88.791 80.7451 88.8993 80.7146C89.8103 80.4759 90.5419 80.1542 91.2937 79.8477C92.032 79.5463 92.7567 79.2245 93.4188 79.0044L93.6542 78.9299L93.8574 78.8757C93.9201 78.8604 93.9438 78.8621 93.9878 78.8486H94.1724C94.4348 78.8605 94.7464 78.9146 95.0783 79.0095C95.7472 79.2076 96.4685 79.5158 97.239 79.8121C98.0128 80.0966 98.8426 80.4149 99.8501 80.4268C100.123 80.4319 100.284 80.4098 100.494 80.3997C100.693 80.3895 100.893 80.3726 101.093 80.354L102.292 80.2507C103.093 80.1711 103.894 80.0881 104.698 79.9696C105.933 80.1372 107.192 79.9645 108.373 79.8866C108.965 79.846 109.544 79.8341 110.095 79.9018C110.503 79.9408 111.006 80.232 111.521 80.5131C112.037 80.8027 112.552 81.1194 113.129 81.4191C113.427 81.5664 113.715 81.7137 114.138 81.8238C114.25 81.8458 114.399 81.8763 114.484 81.8814C114.574 81.8881 114.67 81.9 114.755 81.9034C114.931 81.9135 115.1 81.9152 115.268 81.9152C115.927 81.9101 116.543 81.8593 117.132 81.8306C117.425 81.817 117.713 81.8052 117.981 81.8052C118.113 81.8052 118.241 81.8102 118.358 81.8187L118.522 81.8373L118.804 81.861C119.198 81.8881 119.638 81.8644 120.063 81.7442C120.487 81.6307 120.863 81.4394 121.134 81.2989C121.697 81.0059 121.804 81.0076 122.194 81.0432C123 81.1261 123.946 81.6782 125.028 82.2894C125.58 82.5892 126.175 82.9245 126.918 83.1531C127.101 83.2123 127.292 83.2631 127.494 83.3021C127.717 83.3512 127.816 83.363 127.976 83.3952L128.86 83.5578C130.039 83.7813 131.216 84.0014 132.388 84.2419C137.064 85.2121 141.747 86.2468 146.141 87.9249C146.686 88.1399 147.231 88.3567 147.76 88.5971L148.195 88.7885C148.645 89.012 149.365 88.9917 149.82 88.6649C150.283 88.3584 150.567 87.8859 150.606 87.317C150.626 87.0359 150.562 86.7328 150.438 86.4822V86.4906ZM148.313 87.7064L148.31 87.7013L148.32 87.7115L148.359 87.7522C148.359 87.7522 148.325 87.7217 148.313 87.7064Z" fill="#003B71"/>
<path d="M44.048 71.618C44.1327 71.6434 44.2224 71.6604 44.3156 71.6587H44.3206C44.8066 71.6451 45.3942 71.6925 45.9378 71.7603C46.4915 71.8297 47.0486 71.9245 47.6023 72.0498C48.7081 72.2987 49.8053 72.6493 50.8738 73.098C49.9425 72.4088 48.94 71.7924 47.88 71.2675C47.35 71.0034 46.8031 70.768 46.2426 70.5529C45.9869 70.4581 45.738 70.3683 45.4806 70.2837C46.1664 69.6605 46.8623 69.0476 47.5685 68.443C47.6887 68.46 47.814 68.4633 47.941 68.4379C47.8936 68.4447 47.919 68.4379 47.9376 68.4329C47.9528 68.4278 47.9715 68.4227 48.0019 68.421C48.0578 68.4176 48.1035 68.4041 48.1696 68.4041C48.2932 68.399 48.4202 68.3939 48.5574 68.4041C48.8249 68.4092 49.1128 68.4481 49.3989 68.4921C49.9747 68.5785 50.564 68.7326 51.1482 68.9121C52.3182 69.2762 53.4799 69.7604 54.6178 70.3074C55.1834 70.5868 55.7472 70.8797 56.3077 71.1795C56.8581 71.4978 57.4202 71.7975 57.9638 72.1328C58.5057 72.4715 59.056 72.7966 59.5928 73.1471L61.1947 74.2105L59.7587 72.9253C59.2761 72.4986 58.7749 72.0972 58.2822 71.679C57.786 71.2658 57.2662 70.8831 56.7582 70.4818C56.2366 70.0974 55.71 69.7181 55.1732 69.349C54.0912 68.6208 52.9634 67.9435 51.7544 67.3644C51.1465 67.0782 50.5233 66.8124 49.8528 66.6075C49.8324 66.6007 49.8104 66.5956 49.7901 66.5888C50.0898 66.345 50.3862 66.0961 50.6893 65.8539C52.5028 64.3841 54.3452 62.9482 56.24 61.5935C56.3467 61.646 56.4601 61.6883 56.5837 61.7053H56.5905C57.0037 61.7628 57.5202 61.8831 57.9892 62.005C58.4701 62.1337 58.9527 62.2725 59.4285 62.4385C60.3836 62.7602 61.3301 63.1395 62.2564 63.5713C63.1759 64.0133 64.0954 64.4806 64.9742 65.0208C65.8649 65.5457 66.7166 66.135 67.5616 66.748C66.8402 65.9995 66.0969 65.2596 65.301 64.5738C64.517 63.8727 63.6737 63.236 62.8135 62.6146C61.9465 62.0033 61.0406 61.4377 60.0991 60.9195C59.63 60.6571 59.1458 60.4166 58.653 60.1846C58.5802 60.1525 58.5091 60.1203 58.4379 60.0881C58.675 59.9323 58.9053 59.7681 59.1458 59.6157C59.879 59.1466 60.6206 58.6911 61.3759 58.261H61.3793C61.7298 58.2881 62.2039 58.4049 62.6205 58.5303C63.0489 58.6606 63.4773 58.8198 63.8989 59.0044C64.7388 59.3786 65.555 59.8477 66.3272 60.3997C65.748 59.6479 65.086 58.9417 64.3443 58.3016C63.9717 57.985 63.5789 57.6836 63.1606 57.4059C63.1335 57.3889 63.1081 57.372 63.0827 57.3551C63.291 57.2518 63.4959 57.1434 63.7076 57.0452C65.2807 56.3001 66.9232 55.6905 68.6233 55.3586C70.315 55.0267 72.0862 55.003 73.727 55.5076C74.5432 55.765 75.3289 56.1257 76.013 56.6337C76.7005 57.1417 77.2898 57.7818 77.8808 58.4286C79.0475 59.7376 80.248 61.0432 81.5485 62.237C82.8439 63.4358 84.2003 64.5653 85.5989 65.6372C88.4014 67.7775 91.3868 69.6724 94.5126 71.2997C94.5719 71.3302 94.6464 71.3149 94.687 71.259C94.7311 71.1981 94.7175 71.1117 94.6566 71.066L94.6396 71.0542C91.7779 68.9663 89.0229 66.8327 86.4879 64.4789C85.2112 63.3173 83.9717 62.1235 82.8219 60.8755C82.2495 60.249 81.6874 59.6225 81.137 58.9807C80.5884 58.3372 80.0651 57.6734 79.4962 56.9707C78.9255 56.2764 78.2888 55.4941 77.4015 54.771C76.5058 54.048 75.4728 53.5518 74.4433 53.1929C72.3402 52.48 70.1287 52.4698 68.1373 52.7983C67.1349 52.9575 66.1663 53.2132 65.2468 53.5332C64.3223 53.8448 63.4265 54.2038 62.5663 54.6017C60.834 55.3874 59.2169 56.3086 57.6556 57.2806C54.5822 59.2973 51.7493 61.5325 49.04 63.8287L47.0384 65.5847C46.3628 66.1824 45.6973 66.7903 45.042 67.4084C44.385 68.0265 43.7381 68.653 43.1048 69.2914C42.4834 69.9433 41.8653 70.5986 41.2642 71.2675C36.4196 76.5812 32.3573 82.5739 29.4193 89.0492L29.4126 89.0661C29.3838 89.1271 29.4058 89.2016 29.4634 89.2389C29.5277 89.2795 29.6124 89.2609 29.653 89.1965C33.4275 83.2783 37.8216 77.7513 42.8068 72.8135C43.2149 72.4071 43.6332 72.0126 44.0497 71.6163L44.048 71.618Z" fill="#003B71"/>
<path d="M142.847 71.911C143.012 71.9804 143.159 72.0075 143.298 72.0177C143.57 72.0245 143.838 72.0143 144.012 71.784C144.187 71.5537 144.28 71.1304 144.483 70.9712C144.683 70.8036 144.959 70.8171 145.271 70.9119C145.584 71.0135 145.88 71.0745 146.131 71.0288C146.393 71.0102 146.657 70.9949 146.874 70.8662C147.089 70.7358 147.281 70.5428 147.443 70.2888C147.611 70.0416 147.748 69.7249 147.839 69.2965C147.856 69.2203 147.824 69.1373 147.753 69.0916C147.384 68.8562 147.062 68.7326 146.767 68.6784C146.471 68.6175 146.202 68.6192 145.956 68.6801C145.713 68.7428 145.516 68.9223 145.32 69.095C145.111 69.2423 144.947 69.4963 144.8 69.7909C144.651 70.0788 144.466 70.2854 144.205 70.3108C143.95 70.3447 143.581 70.1127 143.296 70.0771C143.01 70.0399 142.817 70.2227 142.629 70.4226C142.539 70.5309 142.455 70.6546 142.389 70.8188C142.319 70.9746 142.26 71.1558 142.228 71.4047C142.219 71.4809 142.248 71.5588 142.314 71.6096C142.514 71.762 142.685 71.8467 142.844 71.9059L142.847 71.911Z" fill="#003B71"/>
<path d="M130.459 63.2225C131.71 63.1683 132.694 62.7603 133.576 62.215C134.01 61.9339 134.369 61.5529 134.731 61.1753C135.107 60.818 135.422 60.3777 135.701 59.8917C135.984 59.4108 136.329 59.0112 136.788 58.7606C137.24 58.5032 137.867 58.4778 138.365 58.2814C138.614 58.1832 138.83 58.0426 139.02 57.8648C139.217 57.6955 139.396 57.5075 139.564 57.3009C139.896 56.8844 140.189 56.4153 140.348 55.7685C140.349 55.76 140.351 55.7498 140.351 55.7397C140.354 55.6601 140.292 55.5941 140.214 55.5924C139.548 55.567 139.017 55.7194 138.526 55.9226C138.282 56.0276 138.05 56.1495 137.833 56.29C137.61 56.4221 137.415 56.5931 137.252 56.8048C136.927 57.2298 136.729 57.8259 136.357 58.1883C135.991 58.5591 135.512 58.7809 134.97 58.9215C134.424 59.0569 133.916 59.2381 133.468 59.5006C133.005 59.7427 132.54 59.9849 132.15 60.3235C131.383 61.0212 130.719 61.8543 130.323 63.043C130.318 63.0583 130.316 63.0752 130.316 63.0905C130.32 63.165 130.382 63.2225 130.457 63.2191L130.459 63.2225Z" fill="#003B71"/>
<path d="M119.598 57.2213C121.005 56.6083 122.063 55.7159 122.991 54.7169C123.445 54.2106 123.804 53.6264 124.165 53.0422C124.546 52.4749 124.846 51.845 125.101 51.1778C125.365 50.5174 125.699 49.9129 126.187 49.4337C126.666 48.946 127.369 48.6395 127.907 48.2009C128.176 47.9808 128.402 47.7268 128.595 47.4457C128.794 47.1697 128.976 46.8784 129.138 46.5736C129.462 45.9606 129.732 45.307 129.831 44.5128C129.832 44.4942 129.831 44.4722 129.824 44.4536C129.8 44.3858 129.726 44.3503 129.658 44.374C128.904 44.6398 128.322 45.0445 127.794 45.4916C127.531 45.7168 127.286 45.9556 127.059 46.2096C126.825 46.4585 126.624 46.7328 126.468 47.0427C126.153 47.6624 126.004 48.416 125.63 48.9866C125.265 49.5657 124.744 50.0196 124.156 50.4192C123.559 50.8103 123.007 51.2388 122.534 51.7315C122.041 52.2073 121.547 52.6832 121.149 53.2352C120.372 54.3545 119.725 55.5805 119.425 57.0858C119.42 57.1096 119.422 57.1349 119.434 57.1603C119.461 57.223 119.535 57.2535 119.598 57.2247V57.2213Z" fill="#003B71"/>
<path d="M109.114 53.1184C110.411 52.0076 111.302 50.7088 112.04 49.3405C112.399 48.6514 112.645 47.9097 112.894 47.1697C113.166 46.4399 113.344 45.6677 113.471 44.8718C113.608 44.0793 113.825 43.3241 114.221 42.6536C114.608 41.9762 115.256 41.4208 115.712 40.7773C115.94 40.4556 116.116 40.1102 116.255 39.7461C116.402 39.3871 116.528 39.0163 116.631 38.637C116.836 37.8767 116.982 37.0892 116.926 36.207C116.926 36.1833 116.916 36.1596 116.9 36.1393C116.858 36.0834 116.78 36.0716 116.724 36.1139C116.016 36.6422 115.51 37.2637 115.065 37.9122C114.845 38.2373 114.643 38.5726 114.465 38.9181C114.279 39.2584 114.13 39.6174 114.033 40.0001C113.839 40.7655 113.837 41.6189 113.571 42.3521C113.317 43.0904 112.882 43.7441 112.369 44.3604C111.844 44.9734 111.372 45.6101 110.992 46.2892C110.589 46.958 110.185 47.6269 109.892 48.3466C109.328 49.7961 108.918 51.3167 108.911 53.0236C108.911 53.0523 108.921 53.0811 108.94 53.1031C108.984 53.1539 109.06 53.1607 109.111 53.1167L109.114 53.1184Z" fill="#003B71"/>
<path d="M97.9163 54.0548C97.9722 54.0903 98.045 54.0734 98.0806 54.0175C98.6326 53.1455 99.0187 52.2395 99.3709 51.3285C99.7214 50.4175 99.9991 49.4912 100.218 48.5548C100.434 47.6184 100.529 46.6566 100.626 45.6965C100.751 44.7414 100.765 43.7661 100.736 42.7822C100.712 41.7984 100.775 40.8332 101.034 39.9036C101.279 38.9722 101.811 38.0951 102.133 37.1773C102.294 36.7184 102.4 36.2493 102.465 35.7735C102.537 35.2977 102.587 34.8185 102.615 34.3342C102.666 33.3656 102.651 32.3835 102.419 31.3607C102.412 31.3319 102.395 31.3065 102.37 31.2879C102.314 31.2506 102.239 31.2642 102.202 31.3183C101.608 32.1836 101.232 33.0896 100.922 34.0091C100.77 34.4696 100.638 34.9336 100.531 35.4027C100.414 35.87 100.339 36.3442 100.321 36.8302C100.282 37.8004 100.451 38.8114 100.336 39.7681C100.233 40.7265 99.9348 41.6477 99.5487 42.5536C99.1575 43.4579 98.8087 44.3689 98.5733 45.3019C98.3092 46.2299 98.0433 47.1578 97.8977 48.1078C97.7555 49.0594 97.6725 50.0213 97.6606 50.9983C97.6522 51.9754 97.6759 52.9575 97.8672 53.9735C97.874 54.0057 97.8926 54.0345 97.9214 54.0531L97.9163 54.0548Z" fill="#003B71"/>
<path d="M86.5116 37.0452C86.7148 38.1577 87.1314 39.2584 87.2584 40.376C87.3972 41.4919 87.338 42.618 87.1907 43.7508C87.128 44.3164 87.0366 44.882 86.9993 45.4459C86.9536 46.0097 86.9434 46.5719 86.9316 47.1341C86.9113 48.2585 86.8808 49.3846 86.9773 50.5022C87.0772 51.6198 87.2364 52.7357 87.4684 53.8465C87.7037 54.9573 87.973 56.0665 88.4098 57.1654C88.4234 57.1976 88.4505 57.2247 88.4877 57.2349C88.5504 57.2518 88.6147 57.2162 88.6317 57.1536C88.9483 56.0123 89.0973 54.8811 89.2108 53.7517C89.3226 52.6222 89.3615 51.4961 89.3395 50.3752C89.3141 49.2525 89.1651 48.1383 89.0228 47.0224C88.9517 46.4652 88.8806 45.9064 88.7739 45.351C88.6757 44.7939 88.525 44.2402 88.4014 43.6865C88.1338 42.5773 87.9527 41.4631 87.9713 40.3388C87.9781 39.2144 88.2727 38.0765 88.3557 36.947C88.398 36.3831 88.3828 35.8226 88.3269 35.2638C88.2795 34.705 88.2067 34.1462 88.1135 33.5908C88.0187 33.0337 87.9069 32.4783 87.7511 31.9246C87.6038 31.3709 87.4294 30.8188 87.1822 30.2702C87.1686 30.2414 87.1432 30.2177 87.1111 30.2058C87.0484 30.1855 86.9824 30.2194 86.9604 30.282C86.7741 30.8544 86.6589 31.4217 86.5726 31.9872C86.4761 32.5545 86.4253 33.1184 86.3897 33.6823C86.3558 34.2461 86.344 34.8083 86.3575 35.3688C86.3609 35.931 86.4083 36.4898 86.5116 37.0452Z" fill="#003B71"/>
<path d="M72.0405 36.3916C72.1201 36.7404 72.2403 37.0791 72.413 37.3991C72.7602 38.0409 73.3088 38.62 73.5831 39.2855C73.8676 39.9459 73.9624 40.6656 73.9726 41.4107C73.9726 42.1591 74.0268 42.8906 74.1792 43.5917C74.3079 44.2995 74.4332 45.009 74.677 45.683C75.1867 47.0224 75.859 48.3127 76.958 49.4727C76.9766 49.4913 77.0003 49.5048 77.0274 49.5099C77.0951 49.5218 77.1578 49.476 77.1696 49.4083C77.4304 47.8318 77.2661 46.3874 76.9393 44.9904C76.7649 44.2961 76.472 43.6374 76.1807 42.9787C75.9149 42.3115 75.5508 41.6748 75.1308 41.0551C74.7228 40.4319 74.3976 39.7834 74.2639 39.0772C74.1182 38.3728 74.2503 37.5854 74.1775 36.859C74.1419 36.4966 74.0522 36.1495 73.9218 35.8159C73.8016 35.4789 73.656 35.1487 73.49 34.8253C73.1547 34.1801 72.7551 33.5536 72.1438 32.9931C72.1286 32.9795 72.1082 32.9677 72.0862 32.9626C72.0168 32.9457 71.9474 32.988 71.9321 33.0574C71.7391 33.8634 71.7577 34.6068 71.8407 35.3282C71.8847 35.6889 71.9491 36.0428 72.0371 36.3899L72.0405 36.3916Z" fill="#003B71"/>
<path d="M58.377 41.7527C58.4736 41.9695 58.6107 42.1625 58.7936 42.3268C59.1594 42.657 59.708 42.8771 60.0077 43.2463C60.3159 43.612 60.4632 44.0726 60.5225 44.5857C60.5767 45.1022 60.68 45.5898 60.873 46.025C61.0424 46.4721 61.2117 46.9208 61.4843 47.3069C62.0516 48.0655 62.7645 48.7361 63.8601 49.178C63.8719 49.1831 63.8838 49.1865 63.8973 49.1865C63.9735 49.195 64.0412 49.1391 64.0497 49.0629C64.1733 47.8894 63.9159 46.9445 63.5129 46.0877C63.3013 45.666 62.9829 45.307 62.668 44.9464C62.375 44.5721 61.994 44.2521 61.5622 43.9608C61.1372 43.6662 60.7985 43.3208 60.6207 42.8771C60.4344 42.4385 60.4971 41.8509 60.3786 41.3734C60.3176 41.1347 60.2126 40.923 60.067 40.735C59.9315 40.542 59.774 40.3625 59.5979 40.1932C59.2423 39.8579 58.8292 39.5565 58.2246 39.3685C58.2196 39.3668 58.2145 39.3651 58.2077 39.3651C58.1264 39.3499 58.0502 39.4024 58.035 39.4837C57.9165 40.1034 57.9893 40.6097 58.118 41.0822C58.184 41.3175 58.2704 41.5428 58.377 41.7527Z" fill="#003B71"/>
<path d="M46.6778 50.9848C46.7913 51.1372 46.9369 51.2574 47.1198 51.3387C47.4872 51.5012 48.0054 51.5148 48.3187 51.7332C48.6387 51.9449 48.8267 52.2886 48.9418 52.7052C49.0519 53.1268 49.2043 53.5061 49.4295 53.8126C49.6361 54.1378 49.841 54.4646 50.1322 54.705C50.7317 55.1673 51.4513 55.5111 52.4859 55.5365H52.4944C52.5791 55.5331 52.6451 55.4636 52.6417 55.379C52.6113 54.3443 52.2658 53.6264 51.8018 53.0286C51.5614 52.7374 51.2329 52.5342 50.9078 52.3293C50.5996 52.1057 50.2203 51.955 49.7986 51.845C49.3821 51.7315 49.0366 51.5453 48.825 51.2252C48.6065 50.9119 48.5913 50.3955 48.427 50.028C48.3441 49.8451 48.2238 49.6995 48.0714 49.5861C47.9258 49.4658 47.7633 49.3625 47.5855 49.2745C47.2265 49.1035 46.8201 48.9782 46.2562 49.012C46.1732 49.0171 46.1038 49.0831 46.1004 49.1695C46.0699 49.7334 46.1952 50.1381 46.3679 50.4971C46.456 50.6749 46.5593 50.8374 46.6812 50.9814L46.6778 50.9848Z" fill="#003B71"/>
<path d="M37.5101 63.1684C37.693 63.3191 37.9385 63.3615 38.1824 63.4089C38.411 63.48 38.6988 63.4529 39.0104 63.3886C39.3169 63.3293 39.5794 63.3462 39.7402 63.5308C39.9062 63.7086 39.9265 64.1336 40.0535 64.3758C40.1805 64.6196 40.4294 64.6586 40.6868 64.6806C40.8206 64.6857 40.9628 64.6738 41.1271 64.6247C41.2862 64.5841 41.4606 64.5197 41.6723 64.391C41.7367 64.3521 41.7824 64.2809 41.7858 64.2014C41.7959 63.9541 41.7705 63.7696 41.7282 63.6104C41.6926 63.441 41.6334 63.3124 41.5656 63.1972C41.4217 62.9822 41.2693 62.7806 40.995 62.7874C40.7207 62.7925 40.338 62.9771 40.1026 62.9178C39.8621 62.8653 39.7216 62.6435 39.6268 62.3455C39.5353 62.0423 39.4219 61.7765 39.2492 61.6089C39.0917 61.4175 38.9359 61.2211 38.7158 61.133C38.4956 61.0467 38.2416 61.0162 37.9538 61.0433C37.6693 61.0653 37.3475 61.15 36.9615 61.3396C36.892 61.3735 36.8446 61.448 36.848 61.531C36.8649 61.9594 36.9445 62.2828 37.0614 62.5436C37.1748 62.8094 37.3238 63.0177 37.505 63.1701L37.5101 63.1684Z" fill="#003B71"/>
</g>
<defs>
<clipPath id="clip0_426_1270">
<rect width="180.001" height="180" fill="white" transform="translate(-0.000610352 0.525024)"/>
</clipPath>
</defs>
</svg>
