<svg width="499" height="192" viewBox="0 0 499 192" fill="none" xmlns="http://www.w3.org/2000/svg">
<g clip-path="url(#clip0_1054_4400)">
<path d="M312.544 129.111C312.425 128.973 312.395 128.781 312.46 128.606C312.706 127.938 312.874 127.211 312.933 126.448C313.019 125.522 312.962 124.531 312.746 123.539C312.31 121.504 311.303 119.805 310.033 118.7C309.63 118.35 309.925 117.65 310.43 117.776C313.393 118.513 316.329 120.153 319.07 122.534C320.193 123.495 321.279 124.592 322.321 125.798C326.743 130.905 330.331 137.218 332.325 145.473C332.676 146.928 332.767 147.412 333.398 149.778C333.426 149.884 333.824 150.098 333.898 150.174C335.021 151.322 335.69 153.151 336.921 154.204C338.415 155.495 339.972 156.713 341.609 157.859C342.335 158.372 343.069 158.868 343.822 159.345C346.522 161.079 349.383 162.624 352.387 163.961C352.485 163.88 352.584 163.78 352.682 163.672C353.974 162.236 354.471 160.323 354.196 158.485C354.137 158.089 354.523 157.77 354.88 157.935C355.79 158.354 356.7 158.87 357.595 159.478C360.954 161.766 363.236 164.832 363.916 167.607C363.964 167.801 364.101 167.951 364.284 167.996C369.99 169.375 376.016 170.069 382.227 169.974C384.369 169.951 386.529 169.828 388.707 169.615C393.064 169.179 397.29 168.379 401.339 167.259C408.188 165.36 416.837 162.002 422.501 158.427C422.683 158.312 422.644 158.014 422.44 157.959C419.331 157.125 416.05 156.365 412.642 155.709C403.18 153.893 391.607 152.912 384.642 153.168C384.153 153.186 383.957 152.499 384.37 152.216C390.57 147.961 407.917 144.434 426.109 144.768C429.468 144.826 432.728 144.991 435.854 145.247C436.033 145.048 436.203 144.859 436.364 144.66C436.57 144.434 436.784 144.208 436.99 143.982C462.516 116.329 487.787 100.962 495.077 107.832C495.931 108.633 496.486 109.745 496.751 111.103C496.977 112.26 496.913 113.464 496.675 114.619C495.953 118.131 495.037 121.561 493.917 124.917C488.488 141.293 479.321 156.188 466.22 167.181C465.92 167.428 465.62 167.682 465.32 167.925C465.243 167.988 465.188 168.072 465.16 168.172C463.685 173.474 459.101 178.782 453.571 183.68C450.042 186.804 446.246 189.143 442.573 190.623C442.123 190.804 441.758 190.334 441.959 189.886C443.065 187.415 445.361 185.505 445.312 182.584C445.305 182.173 445.236 181.732 444.951 181.436C444.459 180.925 443.62 181.087 442.939 181.287C440.018 182.146 437.088 183.008 434.293 184.215C433.256 184.663 432.235 185.159 431.16 185.512C430.305 185.792 429.432 185.861 428.569 186.074C427.089 186.439 425.581 186.687 424.094 187.021C417.767 188.444 411.187 189.248 404.45 189.378C403.579 189.4 402.708 189.403 401.837 189.398C392.823 189.341 385.34 186.865 377.079 184.564C376.93 184.522 375.973 185.139 375.849 185.237C374.288 186.48 371.876 188.106 369.637 188.668C367.47 189.212 364.912 189.62 363.021 189.304C362.775 189.263 362.609 189.036 362.618 188.782C362.677 187.099 362.721 185.715 362.532 183.875C362.338 181.985 362.451 180.447 361.688 179.517C361.638 179.455 361.575 179.408 361.505 179.375C360.638 178.975 359.787 178.55 358.937 178.099C357.582 177.409 354.715 177.143 353.404 176.38C346.248 172.264 339.685 167.27 333.88 161.555C332.995 160.689 332.132 159.807 331.284 158.904C331.134 158.744 330.911 158.701 330.718 158.795C327.246 160.468 323.138 161.307 318.794 161.033C317.41 160.943 315.151 160.85 313.856 160.555C313.499 160.474 313.362 159.989 313.62 159.712C317.238 155.834 319.713 148.687 318.21 141.221C318.141 140.839 318.055 140.457 317.959 140.075C316.903 135.714 314.958 131.925 312.542 129.114L312.544 129.111Z" fill="white"/>
<path d="M495.577 100.75C490.522 99.526 490.668 98.727 473.215 101.668C443.826 106.619 439.097 119.104 415.902 130.289C407.15 134.509 389.368 138.814 369.301 136.361C330.301 131.593 315.46 112.095 310.815 104.159C310.304 103.286 311.157 102.222 311.995 102.689C317.457 105.735 329.439 110.712 343.058 109.022C350.226 108.133 356.456 105.634 357.361 105.265C363.615 102.715 364.943 100.871 370.914 97.499C388.641 87.489 401.643 89.823 405.819 91.799C407.183 92.445 408.45 94.095 408.45 94.095C404.253 95.124 399.819 94.92 394.196 101.539C393.68 102.146 392.245 105.004 393.616 107.819C395.03 110.722 398.26 111.616 399.792 111.978C405.943 113.433 411.545 110.411 412.684 109.805C419.456 106.205 434.413 100.313 454.252 97.245C486.673 92.231 494.804 98.602 494.804 98.602C497.056 100 496.578 100.991 495.578 100.749L495.577 100.75Z" fill="white"/>
<path d="M405.995 61.726C406.367 62.065 405.964 62.686 405.537 62.43C401.962 60.284 397.62 57.36 393.028 53.491C383.171 45.185 382.751 41.444 377.875 39.249C365.535 33.695 348.003 48.556 337.16 57.747C336.761 58.085 336.365 58.425 335.97 58.767C334.487 60.053 333.031 61.371 331.603 62.718C329.968 64.261 328.37 65.844 326.81 67.463C325.061 69.279 323.36 71.141 321.708 73.045C319.883 75.148 318.117 77.304 316.412 79.506C314.549 81.913 312.758 84.375 311.04 86.888C310.126 88.224 309.234 89.574 308.361 90.938C307.994 91.512 307.688 92.127 307.296 92.684C306.843 93.326 305.881 94.537 306.496 95.408C306.832 95.884 307.633 95.724 308.126 95.584C308.798 95.394 309.385 94.994 310.001 94.679C310.809 94.265 311.628 93.87 312.453 93.491C314.262 92.661 316.105 91.908 317.969 91.209C320.042 90.432 322.141 89.722 324.255 89.064C326.573 88.342 328.91 87.682 331.259 87.071C333.802 86.409 336.36 85.803 338.927 85.244C341.676 84.645 344.437 84.1 347.206 83.599C350.143 83.068 353.09 82.587 356.043 82.151C359.15 81.692 362.265 81.281 365.384 80.914C368.643 80.531 371.908 80.196 375.176 79.904C375.376 79.886 375.576 79.868 375.777 79.851C379.108 79.56 382.256 76.009 385.709 75.801C390.657 75.502 393.542 78.435 398.697 78.318C400.772 78.271 406.31 75.192 408.355 75.177C411.354 75.155 415.054 78.4 417.98 78.444C421.051 78.49 422.293 78.54 425.272 78.656C428.35 78.775 431.107 77.644 434.073 77.835C435.63 77.935 439.206 80.455 440.729 80.574C442.545 80.716 445.505 80.027 447.269 80.195C450.205 80.475 450.486 78.327 453.269 78.676C456.345 79.062 458.97 81.674 461.839 82.14C475.758 84.404 487.115 87.588 494.715 91.413C495.461 91.789 496.143 90.8 495.557 90.193C477.139 71.118 460.358 60.624 449.926 55.056C436.918 48.112 426.059 42.501 417.088 46.742C413.837 48.279 408.734 52.842 401.086 52.998C400.491 53.214 400.163 53.522 399.995 53.861C399.059 55.753 402.785 58.798 405.994 61.726H405.995Z" fill="white"/>
<path d="M497.686 111.343C498.131 112.635 497.851 113.799 497.581 114.862C496.043 120.917 495.157 123.897 494.73 125.149C489.148 141.501 479.002 155.814 465.766 166.717C465.463 166.962 465.16 167.214 464.857 167.454C464.779 167.516 464.723 167.6 464.694 167.7C463.171 172.997 459.353 178.801 453.763 183.66C450.197 186.76 446.369 189.071 442.671 190.524C442.218 190.702 441.802 190.2 442.061 189.781C443.134 188.047 444.205 186.025 445.182 183.811C445.859 182.282 446.437 180.781 446.911 179.351C446.98 179.141 446.777 178.952 446.588 179.044C443.314 180.642 439.939 182.064 436.469 183.287C432.481 184.713 428.371 185.874 424.158 186.77C417.798 188.145 411.189 188.897 404.428 188.974C403.554 188.989 402.68 188.945 401.806 188.974C389.709 189.364 379.275 184.302 376.725 184.611C376.571 184.63 375.441 185.137 375.316 185.235C373.74 186.468 371.754 187.443 369.504 187.988C367.325 188.515 365.199 188.58 363.304 188.249C363.058 188.206 362.893 187.978 362.904 187.723C362.977 186.039 362.68 184.234 361.976 182.477C361.484 181.246 361.983 180.526 361.225 179.589C361.175 179.527 361.112 179.479 361.042 179.446C360.175 179.039 358.166 178.229 357.316 177.772C355.962 177.07 354.626 176.333 353.317 175.559C346.171 171.382 339.626 166.331 333.849 160.563C333.479 160.193 333.28 159.971 332.947 159.635C332.693 159.379 332.503 159.197 332.498 159.192C331.487 158.212 322.949 159.598 322.949 159.598C319.559 160.144 314.159 160.372 313.549 158.683C313.379 158.212 313.579 157.586 313.943 157.235C315.245 155.982 318.036 158.835 322.531 158.522C323.368 158.464 324.889 158.358 326.535 157.478C328.795 156.269 329.458 154.577 330.756 154.714C331.995 154.845 332.747 156.531 332.982 157.02C335.776 162.826 347.626 169.547 353.846 172.648C361.521 176.475 368.878 176.609 368.832 178.845C368.802 180.292 365.699 181.267 365.903 183.386C365.974 184.125 366.44 184.925 367.108 185.307C369.303 186.56 372.38 182.561 376.756 181.201C381.72 179.658 386.329 182.14 388.448 183.015C399.904 187.74 431.302 183.715 454.794 167.499C454.794 167.499 475.844 153.66 480.729 134.642C481.605 131.231 480.838 130.294 480.477 129.994C477.358 127.402 464.303 138.907 464.007 138.514C463.727 138.141 475.487 128.084 475.562 128.008C475.562 128.008 479.122 124.104 484.866 121.545C485.493 121.266 486.558 120.841 487.642 121.211C489.477 121.838 489.507 124.122 490.378 124.164C491.98 124.241 495.418 116.68 492.878 110.979C491.979 108.961 490.709 108.023 491.064 107.539C491.682 106.697 496.575 108.128 497.684 111.344L497.686 111.343Z" fill="#EDC7A2"/>
<path d="M443.757 144.328C444.95 143.272 444.39 143.75 446.505 141.968C453.333 136.217 458.105 133.156 467.607 126.609C489.85 111.285 492.634 111.974 493.791 112.828C496.479 114.81 495.175 121.199 495.735 121.226C496.184 121.248 496.774 117.126 497.323 112.225C497.323 112.225 496.814 109.736 493.964 108.005C486.49 103.465 462.92 119.757 439.522 143.746C439.261 144.013 439.304 143.969 439.164 144.113C439.164 144.113 438.687 144.983 439.66 145.173C442.551 145.738 443.757 144.328 443.757 144.328Z" fill="#0075A9"/>
<path d="M419.363 162.453C414.129 167.831 395.406 179.461 369.672 174.698C348.79 170.833 337.638 158.83 335.104 154.116C335.045 154.005 332.938 150.085 333.398 149.778C333.669 149.597 334.586 150.815 336.912 152.855C338.403 154.163 339.846 155.102 341.578 156.244C342.3 156.72 343.031 157.178 343.779 157.62C346.464 159.225 349.308 160.652 352.293 161.884C352.39 161.807 352.486 161.714 352.583 161.612C353.855 160.262 354.335 158.471 354.052 156.754C353.991 156.385 354.371 156.084 354.726 156.236C355.631 156.622 356.535 157.099 357.425 157.662C360.766 159.781 363.046 162.633 363.736 165.223C363.784 165.405 363.921 165.544 364.103 165.584C369.765 166.839 375.739 167.452 381.891 167.327C384.013 167.293 386.152 167.166 388.309 166.953C393.174 166.474 397.101 165.617 400.81 164.677C413.781 161.391 420.384 157.971 421.177 159.326C421.638 160.114 419.823 161.979 419.362 162.452L419.363 162.453Z" fill="#0075A9"/>
<path d="M311.69 127.803C311.482 127.372 311.982 126.99 312.216 125.843C312.216 125.843 312.38 124.562 312.071 123.184C311.653 121.318 310.639 119.747 309.343 118.713C308.932 118.385 309.248 117.753 309.77 117.878C312.825 118.61 315.839 120.167 318.637 122.395C319.784 123.295 320.89 124.318 321.949 125.44C326.442 130.191 330.098 136.754 332.026 144.328C332.857 147.594 333.137 148.142 332.856 148.305C331.864 148.881 326.372 144.29 322.842 138.126C319.975 133.12 319.522 129.03 316.311 128.291C314.449 127.862 312.107 128.664 311.692 127.804L311.69 127.803Z" fill="#0075A9"/>
<path d="M409.459 126.226C409.102 125.913 408.744 125.6 408.387 125.287C407.951 124.927 407.317 124.43 406.514 123.891C405.257 123.048 402.98 121.521 400.153 120.888C396.505 120.07 393.421 121.071 391.807 121.595C390.205 122.115 388.457 123.138 384.984 125.22C382.764 126.551 380.587 127.981 378.23 129.153C376.805 129.847 375.321 130.447 373.791 130.924C383.895 131.508 391.131 130.506 393.444 130.153C398.606 129.365 403.33 128.178 407.555 126.848C408.19 126.641 408.825 126.434 409.459 126.228V126.226Z" fill="#00AFAA"/>
<path d="M495.225 98.677C495.225 98.677 491.139 95.997 480.13 95.492C473.916 95.207 467.415 95.69 458.009 97.155C442.075 99.636 427.189 101.955 415.663 109.084C415.2 109.37 411.878 111.436 407.037 113.272C401.448 115.391 396.648 117.211 392.268 115.176C389.724 113.994 387.091 111.403 386.648 108.069C386.234 104.957 387.903 102.507 388.609 101.47C393.519 94.26 405.907 94.386 407.443 94.423C407.443 94.423 406.948 94.098 406.441 93.766C405.836 93.369 405.376 93.069 405.364 93.061C404.261 92.342 388.385 90.825 375.147 98.636C373.601 99.549 371.299 100.925 368.786 103.289C366.577 105.368 366.241 106.295 364.631 107.724C363.972 108.309 361.57 110.335 355.586 111.834C346.671 114.067 338.49 112.953 336.998 112.737C324.781 110.967 315.214 104.972 314.228 103.868C313.6 103.165 312.884 102.7 311.702 102.118C311.666 102.1 311.204 102.01 311.087 102.019C310.786 102.043 310.601 102.379 310.487 102.621C310.328 102.956 310.269 103.325 310.371 103.687C310.48 104.072 310.745 104.371 311.003 104.665C311.279 104.98 311.536 105.314 311.82 105.625C312.184 106.024 312.562 106.41 312.948 106.788C313.413 107.243 313.889 107.686 314.374 108.119C314.937 108.622 315.511 109.112 316.094 109.592C316.753 110.134 317.423 110.663 318.102 111.18C318.855 111.754 319.619 112.312 320.393 112.858C321.239 113.454 322.096 114.034 322.962 114.599C323.898 115.209 324.846 115.802 325.804 116.377C326.829 116.993 327.867 117.589 328.914 118.166C330.027 118.779 331.152 119.37 332.287 119.94C333.486 120.541 334.696 121.119 335.918 121.672C337.201 122.253 338.496 122.808 339.802 123.337C341.168 123.89 342.545 124.413 343.933 124.908C345.38 125.423 346.839 125.907 348.307 126.359C349.834 126.829 351.372 127.264 352.919 127.664C353.53 127.822 354.143 127.975 354.757 128.122C355.384 128.272 355.993 128.396 356.612 128.533C356.235 128.304 355.854 128.079 355.49 127.831C354.942 127.459 354.405 127.073 353.881 126.672L353.112 126.051L352.921 125.894L352.873 125.855L352.849 125.835C352.808 125.802 352.765 125.758 352.733 125.718C352.604 125.552 352.567 125.393 352.562 125.241C352.56 125.087 352.595 124.93 352.704 124.769C352.805 124.612 353.058 124.421 353.382 124.448C353.787 124.535 353.66 124.551 353.733 124.565L353.84 124.621C354.979 125.217 356.123 125.806 357.301 126.326C359.651 127.368 362.125 128.182 364.697 128.532C367.263 128.9 369.923 128.57 372.414 127.842C377.456 126.322 381.491 122.942 385.931 120.2C388.186 118.822 390.596 117.654 393.333 117.119C396.058 116.607 398.98 117.054 401.452 118.27C403.952 119.484 405.995 121.343 407.631 123.441C408.037 123.97 408.418 124.516 408.775 125.077L409.29 125.928L409.457 126.228C416.179 123.966 421.488 121.418 424.994 119.717C435.19 114.771 437.166 112.527 441.805 109.873C441.805 109.873 445.894 107.537 451.099 105.592C465.844 100.083 486.553 99.367 490.44 100.148C490.759 100.212 496.111 100.974 496.28 100.789C496.795 100.222 496.41 99.364 495.223 98.679L495.225 98.677Z" fill="#00AFAA"/>
<path d="M410.964 62.791C412.239 64.128 412.563 64.46 412.329 65.214C412.327 65.219 412.303 65.297 412.259 65.356C411.577 66.261 406.843 64.024 401.729 61.302C400.22 60.499 395.117 57.726 390.422 54.164C389.847 53.728 387.77 52.126 385.376 50.218C381.54 47.162 380.598 46.295 380.103 45.945C375.543 42.718 359.658 48.39 340.985 62.207C332.696 68.34 320.067 81.017 309.206 94.592C308.761 95.646 315.276 92.033 318.296 90.691C338.055 81.91 361.261 80.008 370.075 79.932C371.197 79.922 374.376 79.954 378.248 78.57C381.688 77.34 381.82 76.373 384.119 75.552C390.517 73.267 393.489 79.31 401.176 78.06C405.562 77.347 405.988 75.154 410.049 75.46C413.529 75.722 413.919 77.386 418.165 78.09C419.988 78.392 419.816 78.069 427.617 77.625C433.572 77.286 434.996 77.399 436.707 78.107C439.495 79.261 439.06 80.652 441.321 80.789C443.115 80.897 447.998 79.839 449.742 79.969C452.643 80.185 452.928 78.446 455.678 78.719C458.717 79.02 461.302 81.123 464.136 81.49C477.886 83.272 489.104 89.08 496.603 92.146C497.34 92.447 498.016 91.645 497.439 91.156C492.046 86.587 470.547 68.003 452.454 59.626C452.454 59.626 427.236 47.95 420.788 53.374C420.695 53.452 420.5 53.627 420.206 53.862C418.491 55.236 416.815 55.958 416.163 56.222C414.225 57.007 412.467 57.296 411.254 57.41C409.962 57.531 409.666 57.835 409.427 58.173C408.676 59.232 409.664 61.427 410.964 62.791Z" fill="#00946E"/>
<path d="M343.807 75.137C343.807 75.137 321.691 81.356 312.464 90.194C311.519 91.099 308.594 93.901 309.102 94.653C309.344 95.012 310.291 94.79 310.916 94.605C312.657 93.735 315.119 92.567 318.132 91.344C338.071 83.252 362.189 80.865 369.783 80.626C371.003 80.588 374.258 80.527 378.17 79.097C382.098 77.661 381.783 76.773 384.339 75.899C391.213 73.55 395.606 80.283 401.296 77.668C405.185 75.881 406.049 75.791 407.732 75.399C408.405 75.242 409.184 75.171 410.183 75.239C413.666 75.477 414.053 77.021 418.302 77.668C420.127 77.946 419.955 79.2 427.764 78.775C433.725 78.45 435.15 76.999 436.862 77.653C439.651 78.72 439.213 80.013 441.476 80.136C443.272 80.233 448.162 79.243 449.907 79.36C452.811 79.555 453.099 77.94 455.851 78.189C458.893 78.464 461.477 80.413 464.313 80.749C478.074 82.381 489.293 87.757 496.794 90.592C497.05 90.689 497.818 90.347 497.847 90.019C497.861 89.856 497.689 89.717 497.633 89.671C496.989 89.149 478.103 78.89 468.123 73.356C463.439 70.759 454.398 66.383 443.367 65.917C435.189 65.572 430.086 67.473 428.31 68.222C424.222 69.945 423.98 71.149 421.162 72.31C413.567 75.44 407.733 69.829 397.002 67.4C389.844 65.78 382.744 66.901 368.544 69.144C359.991 70.495 354.464 72.473 343.807 75.137Z" fill="#EDC7A2"/>
<path d="M384.272 153.082C388.259 149.833 408.636 151.273 408.636 151.273C408.636 151.273 431.745 152.906 432.894 155.398C433.183 156.025 433.183 156.652 433.183 156.652C432.999 157.747 431.591 158.339 431.166 158.518C428.383 159.687 424.913 158.216 424.404 158.003C415.338 154.213 399.746 154.418 398.55 154.434C389.391 154.554 384.812 154.614 384.755 154.627C384.464 154.691 383.196 154.986 383.019 154.627C382.835 154.255 383.915 153.375 384.273 153.084L384.272 153.082Z" fill="#EDC7A2"/>
<path d="M497.191 106.342C496.435 105.645 495.525 105.109 494.539 104.863C493.561 104.629 492.554 104.524 491.572 104.598C489.598 104.698 487.695 105.188 485.861 105.806C482.189 107.062 478.751 108.848 475.435 110.797C468.835 114.768 462.722 119.458 456.866 124.414C453.943 126.9 451.089 129.467 448.305 132.106C445.534 134.759 442.829 137.478 440.184 140.254C440.113 140.328 440.101 140.444 440.161 140.532C440.23 140.634 440.368 140.66 440.47 140.591L440.507 140.566C443.009 138.868 445.441 137.135 447.851 135.395C447.724 136.149 447.68 136.913 447.696 137.676C447.748 138.801 447.941 139.927 448.357 140.999C448.757 142.067 449.323 143.118 450.289 143.937L450.319 143.963C450.341 143.981 450.371 143.988 450.4 143.979C450.445 143.965 450.47 143.917 450.456 143.871C450.137 142.868 449.936 141.818 449.77 140.774C449.613 139.725 449.529 138.666 449.491 137.607C449.453 136.548 449.443 135.485 449.512 134.425C449.517 134.345 449.526 134.265 449.531 134.185C450.523 133.463 451.508 132.743 452.492 132.021C452.321 132.87 452.268 133.736 452.287 134.6C452.339 135.725 452.532 136.851 452.948 137.923C453.348 138.991 453.914 140.042 454.88 140.861L454.911 140.887C454.933 140.905 454.963 140.912 454.992 140.903C455.037 140.889 455.062 140.841 455.048 140.795C454.729 139.792 454.528 138.742 454.362 137.697C454.205 136.648 454.121 135.589 454.083 134.53C454.045 133.471 454.035 132.408 454.104 131.348C454.114 131.168 454.133 130.989 454.146 130.809C455.822 129.578 457.494 128.352 459.168 127.138C465.289 122.718 471.443 118.416 477.729 114.657C480.861 112.785 484.073 111.073 487.236 109.829C488.801 109.195 490.388 108.714 491.769 108.555C492.479 108.443 493.059 108.504 493.56 108.545C494.056 108.588 494.342 108.73 494.664 108.872C494.941 109.043 495.227 109.36 495.457 109.898C495.696 110.474 495.813 111.012 495.875 111.711C495.896 112.071 495.903 112.373 495.858 112.829L495.717 114.226C495.618 115.158 495.491 116.086 495.372 117.021C495.172 118.901 494.859 120.766 494.569 122.657C494.417 123.6 494.222 124.534 494.054 125.483C493.908 126.44 493.731 127.391 493.607 128.371L493.599 128.434C493.586 128.533 493.643 128.631 493.74 128.668C493.854 128.711 493.981 128.653 494.024 128.54L496.053 123.147C496.671 121.328 497.231 119.488 497.728 117.631C497.974 116.702 498.2 115.767 498.413 114.829C498.61 113.892 498.862 112.961 498.946 111.959C499.033 110.97 498.946 109.949 498.673 108.987C498.406 108.022 497.925 107.079 497.193 106.346L497.191 106.342Z" fill="#003B71"/>
<path d="M448.655 177.204C448.762 177.119 448.797 176.968 448.734 176.845C448.699 176.775 448.639 176.723 448.567 176.698C448.49 176.672 448.413 176.679 448.343 176.714C437.348 182.177 425.486 185.533 413.088 186.688C401.213 187.899 389.412 187.083 378.012 184.266C378.263 183.677 378.427 183.088 378.5 182.511L378.512 182.414C378.523 182.319 378.486 182.226 378.412 182.164C378.355 182.116 378.283 182.092 378.207 182.1C378.132 182.108 378.064 182.143 378.016 182.201C377.271 183.101 376.306 183.925 375.064 184.72C373.997 185.401 372.811 185.955 371.54 186.368C370.273 186.775 368.99 187.029 367.723 187.126C366.435 187.221 365.289 187.19 364.22 187.029C364.261 185.499 364.02 183.989 363.503 182.539C363.216 181.706 362.802 180.869 362.271 180.046C363.43 180.384 364.684 180.732 366.197 181.134C366.339 181.171 366.487 181.101 366.544 180.966C366.608 180.818 366.538 180.646 366.389 180.581L361.528 178.511C360.987 178.295 360.453 178.033 359.937 177.78C359.673 177.651 359.409 177.521 359.142 177.397C358.338 177.025 357.554 176.606 356.794 176.202C353.822 174.69 350.764 172.896 347.706 170.871C344.708 168.871 341.867 166.751 339.263 164.571C337.93 163.456 336.601 162.283 335.313 161.086C334.481 160.319 333.671 159.502 332.887 158.711C332.448 158.267 332.007 157.823 331.556 157.379C331.423 157.251 331.224 157.221 331.06 157.3C328.501 158.559 325.689 159.333 322.704 159.598C321.365 159.723 319.939 159.73 318.347 159.624C317.232 159.54 316.085 159.368 314.843 159.098C316.509 157.34 317.724 155.027 318.456 152.219C319.142 149.615 319.341 146.743 319.048 143.679C318.745 140.712 318.048 137.924 316.979 135.393C315.839 132.68 314.356 130.302 312.571 128.322C313.4 126.14 313.295 123.558 312.275 121.226C312.058 120.737 311.792 120.261 311.481 119.805C312.573 120.524 313.647 121.342 314.819 122.346C317.032 124.335 319.096 126.561 321.126 129.153C323.126 131.685 324.969 134.4 326.684 136.963C327.322 137.937 327.935 138.906 328.583 139.932C329.737 141.756 330.929 143.642 332.275 145.567L332.313 145.622C332.381 145.718 332.499 145.764 332.615 145.736C332.77 145.699 332.866 145.544 332.829 145.389C331.993 141.862 330.863 138.58 329.473 135.634C327.947 132.355 326.146 129.378 324.121 126.784C321.795 123.87 319.231 121.509 316.498 119.767C314.973 118.793 313.391 118.032 311.796 117.506C310.94 117.233 310.082 117.03 309.251 116.902C308.672 116.802 308.08 116.781 307.507 116.761C307.224 116.751 306.941 116.741 306.651 116.721H306.647C306.64 116.721 306.634 116.72 306.628 116.72C306.51 116.72 306.402 116.794 306.363 116.898L306.35 116.948L306.353 116.967L306.35 116.999L306.354 117.012C306.354 117.051 306.358 117.099 306.385 117.143C306.407 117.185 306.437 117.213 306.476 117.238L306.554 117.295L306.586 117.301L306.606 117.189L306.626 117.311C307.111 117.496 307.613 117.71 308.189 117.974C308.617 118.26 309.013 118.611 309.365 119.02C310.042 119.777 310.568 120.745 310.885 121.819C311.194 122.871 311.32 123.938 311.247 124.906C311.183 125.875 310.914 126.828 310.464 127.661C310.162 128.223 310.22 128.911 310.613 129.413L310.796 129.647C312.225 131.469 313.391 133.7 314.362 136.467C314.799 137.744 315.13 138.997 315.349 140.189C315.546 141.324 315.685 142.567 315.773 143.989C315.926 146.66 315.663 149.119 314.988 151.298C314.21 153.824 313.083 155.772 311.729 156.931C311.226 157.361 310.872 157.927 310.703 158.568C310.248 160.297 311.285 162.073 313.013 162.528L313.123 162.557C314.737 162.982 316.395 163.27 318.047 163.415C319.592 163.558 321.227 163.539 323.047 163.359C325.674 163.092 328.217 162.468 330.608 161.506C331.461 162.309 332.189 162.981 332.948 163.638C334.313 164.825 335.729 165.993 337.16 167.108C339.888 169.185 342.935 171.212 346.216 173.136C348.811 174.581 352.264 176.421 355.955 177.84C357.318 178.434 358.802 178.981 360.624 179.554C360.699 180.073 360.771 180.615 360.838 181.165C360.916 182.007 360.937 182.793 360.948 183.382C360.956 184.713 360.838 185.988 360.595 187.167C360.303 188.596 361.174 190.008 362.578 190.382L363.17 190.54C364.302 190.842 365.462 190.992 366.624 190.992C368.681 190.992 370.737 190.523 372.632 189.601C374.13 188.873 375.406 187.915 376.424 186.756C376.898 186.201 377.301 185.628 377.625 185.049C382.623 187.378 388.279 189.036 394.439 189.978C397.65 190.518 400.894 190.702 403.924 190.82C406.682 190.893 409.708 190.786 413.461 190.489C416.955 190.089 420.037 189.591 422.883 188.967C424.486 188.585 426.037 188.178 427.492 187.756C428.877 187.384 430.316 186.911 432.02 186.268C438.396 183.935 443.982 180.893 448.622 177.228L448.653 177.205L448.655 177.204Z" fill="#003B71"/>
<path d="M491.758 129.597C491.65 129.269 491.509 128.876 491.281 128.448C491.119 128.108 490.892 127.744 490.564 127.305C489.988 126.547 489.238 125.894 488.455 125.467C486.774 124.52 485.182 124.448 483.997 124.489C481.524 124.621 479.754 125.374 477.856 126.273C474.264 128.021 471.32 130.4 468.911 132.499C465.905 135.277 463.645 137.749 461.797 140.278L461.768 140.319C461.677 140.442 461.681 140.612 461.779 140.731C461.835 140.8 461.915 140.843 462.004 140.852C462.098 140.858 462.18 140.834 462.25 140.777C465.106 138.431 467.776 136.437 470.414 134.681C472.746 133.122 475.86 131.158 479.266 129.795C480.68 129.252 482.352 128.693 484.04 128.671H484.061C484.977 128.671 485.687 128.836 486.233 129.177C486.963 129.588 487.314 130.334 487.478 130.885C487.916 132.457 487.565 134.258 487.211 135.65C486.846 137.05 486.312 138.503 485.483 140.36C482.698 146.501 478.954 152.18 474.356 157.24C472.17 159.657 469.702 162.024 467.023 164.276C464.416 166.527 461.7 168.615 458.949 170.483C458.822 170.568 458.769 170.728 458.821 170.871C458.851 170.957 458.911 171.025 458.993 171.064C459.074 171.101 459.165 171.106 459.251 171.076L459.302 171.058C460.982 170.462 462.725 169.683 464.621 168.681C463.954 170.166 463.133 171.673 462.173 173.165C460.66 175.468 458.842 177.658 456.768 179.669C454.671 181.689 452.451 183.474 450.172 184.974C448.108 186.325 445.942 187.453 443.724 188.329C444.305 187.388 444.765 186.577 445.161 185.798C445.775 184.601 446.356 183.345 446.886 182.068C446.932 181.959 446.905 181.832 446.82 181.749C446.707 181.64 446.526 181.643 446.415 181.756L446.368 181.802C445.788 182.401 445.326 182.898 444.915 183.362C444.403 183.913 443.951 184.416 443.531 184.901C443.342 185.112 443.149 185.319 442.957 185.525C442.694 185.808 442.422 186.101 442.171 186.395C441.79 186.831 441.385 187.247 440.993 187.649L440.826 187.821C440.325 188.344 440.111 189.073 440.252 189.772C440.367 190.344 440.697 190.838 441.183 191.161C441.546 191.403 441.962 191.528 442.389 191.528C442.533 191.528 442.678 191.514 442.823 191.485L443.499 191.35C445.028 191.043 446.536 190.619 447.984 190.087C449.398 189.542 450.805 188.863 452.167 188.071C454.776 186.559 457.197 184.619 459.363 182.305C460.45 181.141 461.422 179.928 462.252 178.699C463.157 177.377 463.91 175.922 464.53 174.667C465.623 172.144 466.225 169.872 466.371 167.721C467.126 167.29 467.895 166.834 468.722 166.326C470.159 165.404 471.626 164.383 473.083 163.289C474.475 162.247 475.754 161.097 477.162 159.811C477.755 159.261 478.391 158.65 479.105 157.942C479.711 157.313 480.298 156.647 480.864 156.003L480.917 155.942C482.102 154.576 483.242 153.153 484.306 151.711C486.503 148.643 488.296 145.561 489.787 142.286C490.493 140.645 491.214 138.846 491.709 136.809C491.964 135.764 492.131 134.68 492.203 133.586C492.265 132.409 492.254 131.11 491.756 129.599L491.758 129.597Z" fill="#003B71"/>
<path d="M415.82 160.773C415.879 160.722 415.899 160.635 415.863 160.562C415.82 160.474 415.714 160.438 415.626 160.48C413.408 161.562 411.136 162.528 408.822 163.377C406.508 164.224 404.165 164.995 401.777 165.603C396.995 166.78 392.135 167.698 387.216 167.971C382.31 168.434 377.361 168.315 372.468 167.742C369.867 167.426 367.282 166.974 364.723 166.402C364.716 165.167 364.411 163.907 363.899 162.749C363.63 162.131 363.301 161.544 362.955 160.959C362.588 160.394 362.186 159.846 361.75 159.329C360.899 158.266 359.883 157.355 358.794 156.528C357.708 155.686 356.501 154.995 355.223 154.444C354.823 154.271 354.367 154.219 353.909 154.323C352.762 154.583 352.042 155.724 352.302 156.872L352.36 157.127C352.532 157.886 352.448 158.647 352.281 159.33C352.233 159.504 352.173 159.672 352.103 159.835C350.953 159.324 349.807 158.804 348.692 158.224C347.839 157.821 346.988 157.412 346.151 156.974C345.31 156.543 344.5 156.058 343.645 155.635C342.79 155.211 341.974 154.721 341.14 154.252C340.297 153.794 339.464 153.314 338.64 152.811C336.967 151.838 335.39 150.72 333.567 149.795L333.524 149.773C333.473 149.747 333.409 149.757 333.368 149.802C333.32 149.855 333.324 149.938 333.377 149.986C334.828 151.3 336.225 152.68 337.724 153.942C339.243 155.18 340.811 156.362 342.452 157.434C345.699 159.635 349.17 161.502 352.772 163.057C352.866 163.096 352.982 163.08 353.06 163.004C353.928 162.182 354.528 161.092 354.799 159.935C355.037 158.926 355.011 157.87 354.772 156.868C356.915 157.723 358.906 158.971 360.597 160.548C362.286 162.129 363.728 164.079 364.363 166.313C362.234 165.827 360.122 165.265 358.04 164.597C357.966 164.573 357.882 164.601 357.837 164.669C357.784 164.751 357.807 164.861 357.889 164.914L357.925 164.937C362.226 167.722 367.106 169.505 372.122 170.571C374.629 171.159 377.193 171.41 379.759 171.634C381.043 171.738 382.334 171.737 383.619 171.712L387.477 171.55C390.053 171.437 392.586 170.91 395.119 170.48C395.747 170.339 396.383 170.249 397.001 170.065L398.853 169.523C400.09 169.178 401.311 168.782 402.521 168.365C407.348 166.638 411.922 164.164 415.787 160.8L415.82 160.773Z" fill="#003B71"/>
<path d="M402.648 175.067C400.17 175.434 397.674 175.693 395.171 175.842C395.14 175.844 395.112 175.862 395.098 175.892C395.079 175.935 395.098 175.985 395.141 176.004L395.179 176.021C396.465 176.593 397.759 176.834 399.047 176.942C399.694 177.023 400.333 176.989 400.976 177C401.616 176.977 402.251 176.902 402.889 176.846C403.519 176.735 404.15 176.63 404.774 176.488C405.391 176.303 406.016 176.17 406.618 175.918C407.831 175.472 409.014 174.893 410.1 173.996L410.132 173.969C410.155 173.949 410.168 173.918 410.161 173.886C410.151 173.84 410.106 173.811 410.06 173.821C407.607 174.343 405.133 174.758 402.647 175.067H402.648Z" fill="#003B71"/>
<path d="M443.492 158.449L440.396 160.564C439.341 161.233 438.301 161.925 437.237 162.58C435.104 163.88 432.916 165.089 430.682 166.205C426.246 168.506 421.593 170.359 416.854 171.954C416.805 171.97 416.768 172.015 416.765 172.07C416.761 172.142 416.816 172.204 416.888 172.208L416.934 172.211C419.612 172.37 422.19 171.979 424.686 171.33C427.182 170.68 429.606 169.774 431.899 168.608C434.192 167.443 436.378 166.06 438.364 164.406C439.365 163.601 440.297 162.68 441.215 161.773C442.084 160.791 442.934 159.799 443.653 158.665L443.677 158.627C443.704 158.584 443.705 158.527 443.674 158.483C443.633 158.423 443.552 158.408 443.492 158.449Z" fill="#003B71"/>
<path d="M451.439 147.403C451.472 147.31 451.423 147.208 451.33 147.175L451.308 147.167C445.854 145.247 440.151 144.082 434.416 143.293C428.674 142.496 422.874 142.168 417.055 142.193C414.146 142.211 411.233 142.369 408.316 142.563C405.401 142.828 402.491 143.193 399.578 143.715C396.667 144.244 393.746 144.865 390.854 145.868C389.404 146.371 387.956 146.927 386.504 147.649C385.778 148.019 385.054 148.382 384.325 148.881C383.604 149.297 382.867 149.938 382.159 150.539C381.442 151.156 381.006 152.106 381.088 153.121C381.225 154.805 382.702 156.06 384.386 155.922L384.506 155.912C388.097 155.619 391.785 155.531 395.478 155.659C399.173 155.76 402.896 155.947 406.61 156.326C410.34 156.604 414.054 157.1 417.789 157.583C419.652 157.848 421.515 158.137 423.383 158.434C425.253 158.729 427.112 159.084 429.001 159.391L429.03 159.396C429.116 159.41 429.202 159.359 429.229 159.274C429.259 159.18 429.207 159.08 429.113 159.05C425.498 157.904 421.853 156.84 418.156 155.992C414.463 155.129 410.735 154.412 406.985 153.837C403.235 153.263 399.462 152.824 395.674 152.576C392.216 152.351 388.743 152.273 385.273 152.439C387.238 150.975 389.61 150.024 391.972 149.239C394.669 148.372 397.438 147.718 400.228 147.176C405.818 146.121 411.501 145.554 417.192 145.292C422.884 145.026 428.593 145.064 434.283 145.408C439.971 145.762 445.65 146.399 451.238 147.519C451.324 147.536 451.412 147.488 451.442 147.403H451.439Z" fill="#003B71"/>
<path d="M322.899 153.709C322.315 154.012 321.979 154.523 322.149 154.851C322.319 155.179 322.93 155.199 323.514 154.896C324.098 154.593 324.434 154.081 324.264 153.754C324.094 153.426 323.483 153.406 322.898 153.71L322.899 153.709Z" fill="#003B71"/>
<path d="M456.371 148.878C456.955 148.575 457.291 148.063 457.121 147.736C456.951 147.408 456.34 147.388 455.755 147.692C455.17 147.996 454.835 148.506 455.005 148.834C455.175 149.162 455.786 149.181 456.371 148.878Z" fill="#003B71"/>
<path d="M326.457 150.74C326.044 151.184 326.042 151.853 326.453 152.236C326.864 152.619 327.531 152.569 327.945 152.125C328.358 151.682 328.36 151.012 327.949 150.63C327.538 150.248 326.871 150.297 326.457 150.74Z" fill="#003B71"/>
<path d="M405.601 110.438C404.576 110.641 403.559 110.755 402.585 110.775C401.54 110.772 400.537 110.685 399.519 110.51C398.408 110.315 397.464 110.014 396.627 109.587C395.686 109.124 394.901 108.456 394.347 107.642C394.222 107.461 393.981 107.4 393.79 107.505C393.687 107.559 393.611 107.651 393.578 107.762C393.544 107.873 393.557 107.99 393.611 108.088C394.143 109.089 394.971 109.965 396.005 110.622C396.893 111.19 397.923 111.629 399.153 111.964C400.169 112.243 401.26 112.427 402.495 112.528C402.836 112.548 403.179 112.557 403.527 112.557C404.297 112.557 405.083 112.509 405.875 112.414C408.03 112.139 410.2 111.508 412.336 110.534C414.708 109.367 416.552 108.528 418.317 107.812C425.868 104.742 434.103 102.269 443.491 100.253C447.872 99.304 452.233 98.526 456.45 97.943C458.346 97.675 460.706 97.341 462.987 97.12C464.938 96.883 466.934 96.734 468.865 96.591L469.536 96.541C474.662 96.233 478.833 96.214 482.672 96.477C484.699 96.596 486.825 96.855 489.162 97.27C491.113 97.667 493.357 98.181 495.288 99.256C495.479 99.362 495.72 99.306 495.85 99.125C495.985 98.931 495.937 98.662 495.745 98.526C493.833 97.177 491.603 96.422 489.469 95.804C488.297 95.499 487.239 95.232 486.173 95.048C484.992 94.803 483.821 94.63 482.829 94.493C478.698 93.961 474.304 93.761 469.383 93.874C460.805 94.125 451.866 95.207 442.808 97.092C438.087 98.147 433.846 99.273 429.843 100.535C425.767 101.884 421.426 103.399 417.282 105.341C416.305 105.794 415.259 106.285 414.238 106.811C413.406 107.22 412.528 107.709 411.753 108.139L411.315 108.382C409.475 109.365 407.552 110.056 405.602 110.436L405.601 110.438Z" fill="#003B71"/>
<path d="M337.231 110.195C337.578 110.202 337.925 110.206 338.272 110.206C340.457 110.206 342.648 110.062 344.797 109.776C347.162 109.436 349.648 108.915 352.19 108.227C357.742 106.724 362.279 104.769 366.057 102.255C370.326 99.476 374.739 97.185 379.171 95.447L380.888 94.787L382.659 94.209C383.464 93.924 384.308 93.702 385.123 93.487C385.485 93.392 385.847 93.296 386.194 93.199C389.032 92.545 391.339 92.165 393.455 92.006C396.065 91.807 398.527 91.853 400.779 92.141C402.096 92.31 403.257 92.551 404.327 92.877C404.886 93.046 405.468 93.239 405.948 93.503C406.207 93.643 406.214 93.674 406.226 93.731C406.238 93.794 406.206 93.869 406.163 93.896C406.111 93.921 405.916 93.959 405.786 93.985C405.675 94.006 405.562 94.028 405.465 94.052L405.163 94.123C404.952 94.171 404.742 94.22 404.541 94.277C403.949 94.429 403.333 94.616 402.707 94.833C401.447 95.27 400.27 95.801 399.208 96.409C396.827 97.761 394.921 99.607 393.699 101.747C393.575 101.964 393.623 102.24 393.816 102.402C394.033 102.584 394.362 102.556 394.569 102.308C396.04 100.548 397.938 99.192 400.209 98.277C401.384 97.822 402.46 97.492 403.499 97.266C404.091 97.136 404.643 97.037 405.193 96.964C405.375 96.935 405.557 96.915 405.74 96.895L406.463 96.825L406.873 96.761C407.17 96.695 407.471 96.574 407.74 96.413C408.846 95.76 409.447 94.464 409.237 93.191C409.142 92.566 408.836 91.945 408.399 91.484C408.289 91.363 408.174 91.262 408.049 91.162L407.125 90.547C407.051 90.505 406.991 90.477 406.933 90.449L406.346 90.167C406.091 90.038 405.846 89.943 405.599 89.848L405.316 89.736C404.087 89.261 402.766 88.881 401.278 88.572C398.932 88.079 396.431 87.885 393.155 87.926C383.554 88.203 373.263 91.698 363.393 98.031C361.116 99.502 359.392 100.437 357.435 101.263C355.303 102.228 352.954 102.995 350.918 103.64C348.587 104.371 346.308 104.946 344.149 105.346C341.752 105.739 339.516 105.983 337.32 106.095C336.474 106.125 335.599 106.113 334.751 106.101L333.85 106.092C333.344 106.048 332.835 106.016 332.327 105.984C331.659 105.942 330.99 105.9 330.32 105.83L329.697 105.764C328.74 105.665 327.749 105.562 326.774 105.385C325.792 105.25 324.798 105.048 323.836 104.851L323.235 104.729C318.82 103.85 314.208 102.476 309.093 100.51C308.858 100.419 308.593 100.51 308.465 100.726C308.393 100.844 308.372 100.983 308.405 101.116C308.439 101.251 308.522 101.364 308.642 101.436C312.774 103.918 317.397 105.986 322.384 107.584C327.735 109.226 332.591 110.079 337.232 110.194L337.231 110.195Z" fill="#003B71"/>
<path d="M496.734 100.437C494.461 99.77 492.142 99.597 490.372 99.522C488.443 99.453 486.358 99.51 483.997 99.696C479.955 100.04 475.732 100.693 471.446 101.636L468.346 102.312C467.674 102.474 467.007 102.652 466.34 102.831C465.985 102.926 465.631 103.021 465.281 103.112C463.813 103.467 462.355 103.935 460.946 104.387C460.362 104.575 459.78 104.762 459.184 104.945C455.053 106.399 451.132 108.11 447.53 110.03C443.479 112.179 439.586 114.701 435.821 117.139C432.625 119.208 429.322 121.347 425.951 123.239C424.519 124.081 423.02 124.867 421.571 125.628L420.429 126.229L416.181 128.276L414.746 128.892C411.122 130.359 407.199 131.533 402.757 132.48C394.634 134.218 386.229 134.969 377.788 134.699C375.772 134.614 373.628 134.512 371.514 134.296L369.955 134.153L365.261 133.518C363.763 133.354 362.255 133.059 360.798 132.775C360.223 132.662 359.646 132.55 359.065 132.444C357.526 132.19 355.984 131.798 354.494 131.42C353.978 131.289 353.462 131.158 352.946 131.032L351.42 130.65C351.1 130.565 350.785 130.465 350.468 130.364C350.286 130.306 350.105 130.249 349.924 130.194L346.908 129.252C346.137 129.032 345.368 128.739 344.626 128.456L341.027 127.097C337.328 125.471 333.416 123.693 329.834 121.415C322.112 116.69 315.954 111.015 311.53 104.548C311.39 104.343 311.114 104.281 310.9 104.404C310.79 104.468 310.711 104.571 310.678 104.694C310.645 104.818 310.663 104.946 310.732 105.064C311.783 106.866 312.985 108.66 314.306 110.398C314.736 110.963 315.204 111.507 315.656 112.033C315.894 112.31 316.133 112.588 316.375 112.88C316.852 113.407 317.342 113.923 317.832 114.441L318.58 115.234C321.425 118.114 324.773 120.897 328.536 123.506C329.432 124.107 330.342 124.694 331.266 125.284L334.071 126.884C335.032 127.461 336.025 127.952 336.957 128.404L339.877 129.844C344.018 131.66 348.123 133.156 352.082 134.292C352.598 134.433 353.113 134.58 353.628 134.726C355.171 135.165 356.766 135.618 358.365 135.931C358.861 136.034 359.356 136.141 359.852 136.248C361.445 136.591 363.091 136.947 364.729 137.16L369.535 137.896L371.146 138.075C373.357 138.341 375.57 138.485 377.65 138.611C379.141 138.675 380.634 138.706 382.128 138.706C389.316 138.706 396.527 137.967 403.626 136.501C408.302 135.467 412.443 134.194 416.292 132.606L417.855 131.92L422.231 129.773L423.331 129.185C424.848 128.376 426.419 127.539 427.904 126.621C431.675 124.384 435.295 121.959 438.679 119.669L439.489 119.126C442.762 116.931 445.854 114.857 449.126 112.99C452.316 111.153 455.824 109.486 460.165 107.744C460.736 107.543 461.305 107.335 461.874 107.126C463.212 106.635 464.596 106.128 465.997 105.729C466.359 105.62 466.721 105.507 467.082 105.394C467.708 105.199 468.335 105.004 468.962 104.826L470.017 104.551C470.673 104.382 471.331 104.213 471.983 104.028C476.123 102.873 480.222 102.005 484.162 101.448C486.378 101.147 488.399 100.978 490.346 100.931C492.045 100.877 494.283 100.878 496.505 101.357C496.757 101.41 496.993 101.262 497.061 101.024C497.134 100.774 496.989 100.51 496.739 100.435L496.734 100.437Z" fill="#003B71"/>
<path d="M425.874 119.08C431.392 114.711 437.177 110.978 443.168 108.026C449.132 104.975 455.31 102.7 461.595 101.236C461.644 101.225 461.682 101.169 461.686 101.098C461.691 101.014 461.645 100.941 461.584 100.934L461.558 100.931C458.274 100.564 455.011 100.927 451.806 101.684L450.6 101.958L449.411 102.327C448.618 102.574 447.825 102.823 447.039 103.111C445.47 103.7 443.927 104.405 442.39 105.132C440.876 105.945 439.365 106.768 437.893 107.711C437.164 108.205 436.431 108.685 435.714 109.207C434.988 109.705 434.279 110.248 433.585 110.831C430.783 113.081 428.117 115.666 425.761 118.814L425.742 118.839C425.707 118.886 425.698 118.962 425.724 119.024C425.755 119.097 425.822 119.122 425.875 119.08H425.874Z" fill="#003B71"/>
<path d="M371.622 125.672C371.04 125.801 370.461 125.989 369.873 126.077C368.696 126.203 367.513 126.449 366.316 126.459C361.521 126.575 356.64 124.998 351.808 122.665L351.786 122.654C351.728 122.626 351.66 122.65 351.624 122.714C351.584 122.787 351.601 122.883 351.663 122.93C355.992 126.242 360.97 128.609 366.199 128.938C371.437 129.306 376.599 127.452 381.287 124.877C383.642 123.585 385.941 122.175 388.312 120.981C390.676 119.792 393.147 118.835 395.701 118.634C398.243 118.431 400.832 118.975 403.165 120.215C405.507 121.435 407.618 123.234 409.45 125.349C409.494 125.4 409.564 125.409 409.617 125.366C409.677 125.317 409.693 125.22 409.651 125.149L409.637 125.125C408.143 122.557 406.131 120.358 403.742 118.698C401.355 117.07 398.48 116.123 395.577 116.165C392.658 116.133 389.883 117.149 387.349 118.253C384.815 119.42 382.493 120.824 380.183 122.018C377.911 123.318 375.65 124.373 373.348 125.133C372.776 125.34 372.203 125.557 371.62 125.672H371.622Z" fill="#003B71"/>
<path d="M376.815 108.215C372.145 110.299 367.276 111.934 362.293 113.062C357.314 114.204 352.213 114.802 347.111 114.859C342.009 114.962 336.893 114.513 331.884 113.51C326.874 112.511 321.97 110.979 317.268 108.971C317.211 108.947 317.143 108.965 317.108 109.019C317.068 109.079 317.084 109.16 317.144 109.2L317.163 109.213C321.505 112.108 326.388 114.178 331.469 115.548C334.004 116.277 336.614 116.705 339.23 117.076C341.856 117.38 344.503 117.495 347.15 117.495C349.796 117.434 352.437 117.209 355.05 116.826C357.656 116.396 360.247 115.876 362.759 115.082C367.797 113.581 372.625 111.415 376.922 108.456L376.941 108.443C376.992 108.408 377.012 108.341 376.986 108.282C376.957 108.216 376.879 108.186 376.813 108.216L376.815 108.215Z" fill="#003B71"/>
<path d="M418.718 94.044C418.874 92.829 417.613 91.666 415.902 91.446C414.19 91.226 411.868 92.033 411.712 93.247C411.556 94.462 413.625 95.625 415.337 95.845C417.049 96.065 418.563 95.258 418.719 94.044H418.718Z" fill="#003B71"/>
<path d="M424.796 95.148C424.885 94.455 424.166 93.791 423.189 93.666C422.213 93.54 421.349 94.001 421.26 94.694C421.171 95.387 421.89 96.051 422.867 96.176C423.844 96.302 424.708 95.841 424.797 95.148H424.796Z" fill="#003B71"/>
<path d="M442.591 65.515C442.68 64.822 441.961 64.158 440.984 64.033C440.007 63.908 439.144 64.368 439.054 65.061C438.965 65.754 439.684 66.418 440.661 66.543C441.638 66.669 442.502 66.208 442.591 65.515Z" fill="#003B71"/>
<path d="M448.026 65.232C448.223 64.844 447.822 64.243 447.13 63.892C446.437 63.54 445.716 63.57 445.519 63.958C445.322 64.346 445.723 64.946 446.415 65.298C447.107 65.65 447.829 65.62 448.026 65.232Z" fill="#003B71"/>
<path d="M369.859 68.199C369.695 68.521 370.028 69.019 370.603 69.311C371.177 69.603 371.776 69.578 371.939 69.256C372.103 68.934 371.77 68.436 371.195 68.144C370.621 67.852 370.022 67.877 369.859 68.199Z" fill="#003B71"/>
<path d="M444 67.817C443.93 68.362 444.35 68.865 444.939 68.941C445.527 69.017 446.061 68.636 446.131 68.091C446.201 67.546 445.781 67.043 445.192 66.967C444.603 66.891 444.07 67.272 444 67.817Z" fill="#003B71"/>
<path d="M376.889 53.224C376.692 53.612 377.093 54.213 377.785 54.564C378.477 54.915 379.199 54.886 379.396 54.498C379.593 54.11 379.192 53.51 378.5 53.158C377.808 52.806 377.086 52.836 376.889 53.224Z" fill="#003B71"/>
<path d="M374.395 70.13C374.325 70.675 374.745 71.178 375.334 71.254C375.923 71.33 376.456 70.949 376.526 70.404C376.596 69.859 376.176 69.356 375.587 69.28C374.998 69.204 374.465 69.585 374.395 70.13Z" fill="#003B71"/>
<path d="M498.603 89.358C498.503 89.162 498.385 88.971 498.255 88.825C498.196 88.754 498.11 88.658 498.066 88.614L497.999 88.552C496.567 87.241 495.184 85.881 493.708 84.62C492.246 83.345 490.785 82.07 489.262 80.867C487.767 79.633 486.234 78.446 484.702 77.263C478.541 72.565 472.254 68.096 465.884 63.734C462.708 61.539 459.498 59.38 456.241 57.269C452.97 55.153 449.638 53.2 446.252 51.329C442.845 49.483 439.325 47.75 435.559 46.453C433.658 45.839 431.749 45.224 429.726 44.876C427.714 44.535 425.637 44.329 423.533 44.533C421.442 44.713 419.339 45.229 417.45 46.18C415.559 47.101 414.048 48.189 412.397 49.092C409.153 50.939 405.63 52.255 401.815 52.758C401.715 52.772 401.633 52.853 401.624 52.958C401.613 53.08 401.703 53.187 401.825 53.198C404.255 53.431 406.747 53.195 409.163 52.61C409.205 52.631 409.238 52.663 409.284 52.678L409.31 52.686C410.218 52.977 411.19 53.388 412.112 53.812C413.043 54.243 413.96 54.714 414.863 55.216C416.664 56.23 418.407 57.37 420.076 58.625C418.6 57.149 417.02 55.763 415.345 54.48C414.504 53.843 413.64 53.233 412.748 52.656C412.345 52.398 411.944 52.149 411.534 51.907C412.169 51.69 412.798 51.459 413.413 51.199C413.804 51.039 414.189 50.871 414.572 50.702L414.978 50.827C416.15 51.189 417.406 51.683 418.601 52.198C419.805 52.722 421.001 53.284 422.17 53.904C424.515 55.133 426.779 56.545 428.943 58.125C427.068 56.213 425.04 54.425 422.877 52.791C421.799 51.968 420.68 51.196 419.534 50.454C418.907 50.053 418.283 49.667 417.639 49.294C417.975 49.143 418.308 49 418.637 48.884C420.259 48.238 421.991 48.01 423.723 47.935C425.462 47.858 427.236 48.157 428.99 48.537C430.754 48.886 432.502 49.503 434.24 50.116C437.698 51.463 441.144 53.021 444.617 54.602L449.856 56.97C451.601 57.749 453.333 58.546 455.052 59.383C458.496 61.044 461.852 62.897 465.105 64.919C471.583 69.011 477.592 73.828 483.142 79.096C485.807 81.59 488.356 84.199 490.903 86.798C484.376 84.228 477.636 82.478 470.847 81.194C468.931 80.853 467.017 80.514 465.093 80.244C464.176 80.103 463.018 79.976 462.512 79.837C461.841 79.666 461.057 79.323 460.227 78.923C459.395 78.524 458.494 78.056 457.48 77.647C456.464 77.238 455.341 76.882 454.033 76.814C453.375 76.775 452.617 76.848 451.919 77.087C451.22 77.317 450.652 77.671 450.26 77.915C449.467 78.409 449.2 78.539 448.498 78.564L448.225 78.567L447.766 78.557C447.472 78.56 447.196 78.576 446.925 78.596C446.39 78.638 445.888 78.711 445.398 78.786C444.421 78.936 443.491 79.106 442.617 79.204C442.402 79.226 442.19 79.245 441.99 79.255L441.701 79.263C441.595 79.266 441.596 79.255 441.535 79.26C441.267 79.232 440.834 79.083 440.427 78.937C439.588 78.63 438.705 78.232 437.793 77.859C437.329 77.673 436.867 77.485 436.356 77.323C436.095 77.244 435.84 77.163 435.535 77.108C435.253 77.045 434.837 77.026 434.623 77.044C433.576 77.072 432.574 77.245 431.612 77.454C429.692 77.886 427.9 78.458 426 78.581C424.737 78.325 423.47 78.123 422.202 77.928L418.46 77.413C417.512 77.223 416.462 76.655 415.388 76.069C414.305 75.48 413.182 74.807 411.85 74.265C411.181 73.994 410.437 73.76 409.589 73.654C409.37 73.635 409.157 73.614 408.93 73.606C408.687 73.617 408.403 73.627 408.191 73.659L407.58 73.764L407.034 73.895C405.651 74.277 404.447 74.734 403.258 75.189C402.086 75.626 400.897 76.101 399.892 76.394C399.761 76.437 399.65 76.463 399.549 76.485L399.39 76.524L399.292 76.536C399.255 76.54 399.243 76.55 399.186 76.554L398.982 76.56L398.573 76.573C398.028 76.577 397.48 76.548 396.925 76.496C394.713 76.312 392.289 75.376 389.507 75.078C388.823 74.999 388.122 74.984 387.432 75.003C386.742 75.026 386.066 75.09 385.332 75.256C383.924 75.617 382.743 76.279 381.629 76.93C380.512 77.583 379.449 78.253 378.339 78.735C377.787 78.978 377.227 79.156 376.669 79.262C376.151 79.342 375.465 79.365 374.84 79.401C373.569 79.479 372.296 79.539 371.02 79.572L367.191 79.709C364.635 79.783 362.077 79.893 359.524 80.07C356.974 80.28 354.429 80.539 351.891 80.877C346.813 81.519 341.731 82.266 336.732 83.459C335.481 83.743 334.235 84.067 332.996 84.408C331.753 84.733 330.516 85.087 329.29 85.485C326.828 86.229 324.388 87.067 321.988 88.018C317.202 89.916 312.48 92.158 308.313 95.213C308.237 95.271 308.201 95.376 308.237 95.47C308.28 95.585 308.408 95.643 308.523 95.6C318.131 92.203 327.897 90.084 337.75 88.042C342.666 87.009 347.587 85.931 352.544 84.98C357.505 84.06 362.47 83.082 367.456 82.101C369.95 81.624 372.454 81.188 374.973 80.888C375.612 80.797 376.196 80.741 376.931 80.613C377.615 80.451 378.264 80.223 378.873 79.951C380.087 79.4 381.193 78.736 382.307 78.175C383.414 77.608 384.551 77.144 385.649 77.03C386.17 76.997 386.769 77.024 387.347 77.098C387.925 77.166 388.492 77.289 389.053 77.461C391.278 78.098 393.485 79.477 396.309 80.111C397.008 80.259 397.725 80.371 398.449 80.411L398.993 80.435L399.265 80.446C399.367 80.446 399.512 80.432 399.633 80.423L400.009 80.385L400.317 80.328C400.528 80.29 400.727 80.248 400.9 80.199C402.347 79.82 403.509 79.31 404.701 78.823C405.874 78.344 407.024 77.835 408.074 77.484L408.448 77.367L408.771 77.282C408.872 77.257 408.907 77.261 408.979 77.238L409.271 77.236C409.687 77.257 410.182 77.343 410.71 77.494C411.772 77.809 412.916 78.297 414.141 78.769C415.368 79.221 416.686 79.726 418.285 79.746C418.718 79.754 418.972 79.718 419.306 79.702C419.623 79.684 419.94 79.658 420.257 79.629L422.161 79.465C423.432 79.339 424.704 79.205 425.981 79.019C427.94 79.284 429.939 79.012 431.815 78.888C432.755 78.823 433.674 78.806 434.55 78.913C435.197 78.974 435.995 79.437 436.814 79.884C437.634 80.345 438.452 80.847 439.369 81.322C439.842 81.556 440.299 81.788 440.972 81.965C441.149 82 441.385 82.047 441.52 82.057C441.663 82.069 441.815 82.087 441.951 82.091C442.232 82.107 442.5 82.11 442.765 82.111C443.811 82.102 444.789 82.023 445.724 81.978C446.19 81.956 446.646 81.939 447.071 81.937C447.281 81.939 447.485 81.945 447.671 81.959L447.932 81.987L448.379 82.024C449.004 82.067 449.705 82.03 450.379 81.839C451.051 81.659 451.647 81.354 452.078 81.131C452.973 80.667 453.142 80.669 453.761 80.726C455.04 80.858 456.543 81.733 458.26 82.704C459.137 83.181 460.08 83.711 461.26 84.076C461.55 84.17 461.854 84.25 462.175 84.312C462.53 84.389 462.684 84.41 462.942 84.459L464.346 84.717C466.216 85.071 468.084 85.422 469.945 85.802C477.369 87.343 484.801 88.984 491.776 91.648C492.64 91.99 493.506 92.333 494.346 92.714L495.036 93.018C495.752 93.374 496.894 93.34 497.617 92.823C498.351 92.337 498.803 91.588 498.864 90.682C498.897 90.235 498.793 89.756 498.597 89.357L498.603 89.358ZM495.23 91.289C495.23 91.289 495.227 91.283 495.225 91.281L495.241 91.297L495.303 91.361C495.303 91.361 495.25 91.315 495.23 91.289Z" fill="#003B71"/>
<path d="M329.72 65.75C329.855 65.791 329.997 65.818 330.146 65.813H330.155C330.927 65.791 331.858 65.868 332.722 65.974C333.602 66.085 334.486 66.235 335.364 66.433C337.121 66.827 338.861 67.385 340.558 68.097C339.079 67.003 337.489 66.025 335.805 65.19C334.963 64.771 334.095 64.396 333.205 64.055C332.8 63.904 332.403 63.762 331.996 63.629C333.086 62.639 334.19 61.665 335.309 60.707C335.501 60.735 335.699 60.738 335.9 60.698C335.824 60.708 335.865 60.697 335.895 60.691C335.919 60.684 335.948 60.676 335.997 60.673C336.086 60.667 336.159 60.647 336.263 60.647C336.46 60.64 336.66 60.63 336.88 60.647C337.304 60.654 337.763 60.715 338.217 60.785C339.131 60.924 340.066 61.168 340.994 61.452C342.852 62.03 344.695 62.799 346.501 63.668C347.4 64.11 348.293 64.576 349.183 65.052C350.056 65.556 350.95 66.034 351.813 66.565C352.671 67.101 353.548 67.618 354.398 68.174L356.942 69.862L354.663 67.822C353.898 67.146 353.102 66.506 352.319 65.844C351.532 65.188 350.707 64.579 349.899 63.943C349.072 63.333 348.235 62.73 347.382 62.145C345.665 60.99 343.876 59.913 341.955 58.995C340.991 58.541 340 58.119 338.935 57.793C338.902 57.783 338.868 57.774 338.835 57.764C339.311 57.376 339.782 56.983 340.262 56.598C343.141 54.264 346.066 51.986 349.074 49.836C349.243 49.92 349.424 49.986 349.621 50.013H349.631C350.286 50.104 351.107 50.295 351.852 50.488C352.614 50.692 353.38 50.914 354.136 51.176C355.652 51.688 357.153 52.288 358.624 52.974C360.084 53.677 361.544 54.416 362.938 55.275C364.351 56.108 365.704 57.045 367.045 58.016C365.899 56.827 364.72 55.652 363.456 54.565C362.211 53.451 360.874 52.441 359.508 51.454C358.131 50.484 356.694 49.585 355.199 48.762C354.454 48.345 353.686 47.964 352.904 47.597C352.789 47.545 352.676 47.495 352.563 47.443C352.939 47.196 353.306 46.935 353.686 46.693C354.849 45.948 356.027 45.226 357.227 44.543C357.229 44.543 357.232 44.544 357.232 44.544C357.789 44.587 358.542 44.772 359.202 44.97C359.883 45.177 360.561 45.431 361.23 45.722C362.563 46.316 363.858 47.06 365.084 47.938C364.164 46.745 363.115 45.625 361.937 44.609C361.345 44.106 360.721 43.629 360.059 43.187C360.017 43.16 359.976 43.134 359.935 43.108C360.265 42.944 360.592 42.773 360.925 42.617C363.422 41.435 366.031 40.466 368.727 39.94C371.412 39.413 374.224 39.376 376.83 40.177C378.125 40.586 379.372 41.157 380.459 41.965C381.549 42.77 382.487 43.789 383.423 44.815C385.275 46.894 387.181 48.966 389.245 50.86C391.301 52.764 393.454 54.556 395.674 56.259C400.121 59.656 404.862 62.665 409.823 65.247C409.917 65.296 410.036 65.271 410.101 65.182C410.172 65.085 410.151 64.948 410.053 64.876L410.027 64.857C405.483 61.543 401.11 58.156 397.087 54.419C395.06 52.576 393.092 50.68 391.267 48.699C390.357 47.704 389.465 46.71 388.593 45.692C387.722 44.671 386.892 43.616 385.988 42.502C385.081 41.399 384.072 40.158 382.662 39.01C381.239 37.861 379.6 37.074 377.966 36.505C374.629 35.374 371.118 35.357 367.956 35.878C366.365 36.132 364.826 36.537 363.366 37.044C361.897 37.54 360.477 38.107 359.11 38.739C356.361 39.986 353.794 41.447 351.315 42.99C346.437 46.192 341.939 49.739 337.639 53.385L334.463 56.171C333.39 57.119 332.334 58.086 331.293 59.067C330.251 60.047 329.223 61.041 328.218 62.057C327.23 63.092 326.252 64.133 325.296 65.194C317.605 73.63 311.156 83.142 306.493 93.42L306.481 93.447C306.437 93.545 306.47 93.663 306.563 93.722C306.665 93.787 306.8 93.757 306.865 93.655C312.857 84.26 319.831 75.486 327.744 67.649C328.391 67.003 329.056 66.377 329.717 65.747L329.72 65.75Z" fill="#003B71"/>
<path d="M486.554 66.214C486.814 66.323 487.047 66.366 487.269 66.384C487.703 66.395 488.126 66.38 488.402 66.014C488.679 65.65 488.826 64.977 489.149 64.724C489.467 64.458 489.905 64.479 490.398 64.631C490.895 64.792 491.365 64.888 491.764 64.817C492.181 64.787 492.601 64.764 492.944 64.558C493.286 64.35 493.588 64.045 493.849 63.642C494.114 63.249 494.333 62.748 494.477 62.068C494.503 61.946 494.452 61.815 494.341 61.744C493.755 61.37 493.244 61.175 492.778 61.088C492.308 60.991 491.879 60.993 491.491 61.091C491.103 61.191 490.793 61.474 490.479 61.751C490.148 61.986 489.887 62.388 489.653 62.855C489.416 63.313 489.123 63.641 488.711 63.68C488.304 63.733 487.721 63.366 487.267 63.308C486.813 63.249 486.505 63.54 486.209 63.857C486.066 64.028 485.934 64.225 485.829 64.486C485.718 64.733 485.624 65.022 485.575 65.417C485.56 65.537 485.608 65.662 485.711 65.741C486.027 65.983 486.299 66.118 486.553 66.212L486.554 66.214Z" fill="#003B71"/>
<path d="M466.889 52.422C468.877 52.338 470.438 51.688 471.838 50.824C472.527 50.377 473.097 49.773 473.67 49.173C474.268 48.605 474.767 47.907 475.211 47.135C475.661 46.371 476.209 45.737 476.935 45.34C477.653 44.932 478.647 44.89 479.439 44.579C479.834 44.423 480.179 44.2 480.479 43.917C480.79 43.649 481.077 43.349 481.343 43.022C481.871 42.361 482.335 41.616 482.587 40.59C482.59 40.576 482.593 40.56 482.593 40.544C482.598 40.419 482.5 40.314 482.375 40.309C481.319 40.269 480.475 40.51 479.694 40.835C479.306 41.001 478.939 41.194 478.595 41.419C478.241 41.63 477.932 41.9 477.673 42.236C477.156 42.911 476.842 43.856 476.252 44.433C475.67 45.022 474.91 45.374 474.052 45.596C473.188 45.81 472.379 46.098 471.669 46.516C470.934 46.902 470.196 47.284 469.577 47.822C468.361 48.93 467.306 50.252 466.677 52.139C466.669 52.163 466.665 52.189 466.666 52.216C466.671 52.334 466.771 52.425 466.888 52.42L466.889 52.422Z" fill="#003B71"/>
<path d="M449.647 42.895C451.88 41.922 453.562 40.505 455.034 38.919C455.756 38.114 456.324 37.187 456.896 36.262C457.5 35.363 457.977 34.361 458.382 33.301C458.802 32.254 459.33 31.293 460.105 30.531C460.864 29.757 461.982 29.271 462.836 28.573C463.264 28.225 463.622 27.82 463.927 27.373C464.244 26.936 464.531 26.473 464.79 25.99C465.303 25.018 465.734 23.979 465.891 22.719C465.895 22.689 465.891 22.656 465.881 22.625C465.843 22.517 465.725 22.461 465.617 22.499C464.42 22.921 463.497 23.563 462.657 24.272C462.24 24.629 461.849 25.007 461.49 25.411C461.119 25.805 460.8 26.241 460.551 26.733C460.052 27.717 459.815 28.912 459.221 29.819C458.642 30.738 457.816 31.459 456.882 32.093C455.933 32.715 455.056 33.394 454.307 34.176C453.525 34.932 452.74 35.686 452.108 36.562C450.873 38.339 449.847 40.284 449.373 42.673C449.365 42.711 449.369 42.752 449.386 42.791C449.43 42.892 449.547 42.939 449.647 42.895Z" fill="#003B71"/>
<path d="M433.006 36.381C435.064 34.617 436.48 32.557 437.652 30.384C438.221 29.29 438.611 28.113 439.006 26.938C439.438 25.78 439.721 24.554 439.921 23.289C440.138 22.032 440.481 20.833 441.112 19.768C441.725 18.694 442.755 17.813 443.479 16.79C443.842 16.279 444.122 15.73 444.343 15.153C444.577 14.582 444.774 13.995 444.941 13.393C445.267 12.186 445.497 10.935 445.408 9.537C445.406 9.5 445.393 9.462 445.369 9.43C445.303 9.342 445.177 9.323 445.089 9.389C443.966 10.228 443.163 11.213 442.455 12.244C442.105 12.761 441.786 13.292 441.503 13.84C441.206 14.382 440.971 14.951 440.817 15.559C440.508 16.773 440.504 18.129 440.083 19.292C439.68 20.463 438.99 21.501 438.174 22.481C437.34 23.453 436.59 24.464 435.989 25.543C435.35 26.605 434.707 27.665 434.243 28.808C433.348 31.109 432.697 33.522 432.688 36.233C432.688 36.278 432.703 36.323 432.735 36.36C432.805 36.441 432.927 36.451 433.008 36.381H433.006Z" fill="#003B71"/>
<path d="M415.23 37.868C415.318 37.924 415.435 37.897 415.491 37.809C416.367 36.423 416.98 34.987 417.539 33.541C418.095 32.094 418.535 30.625 418.884 29.138C419.227 27.65 419.378 26.126 419.532 24.602C419.732 23.087 419.753 21.538 419.705 19.975C419.668 18.415 419.767 16.88 420.177 15.405C420.568 13.927 421.41 12.534 421.921 11.079C422.177 10.351 422.345 9.607 422.447 8.85C422.564 8.096 422.642 7.334 422.686 6.566C422.767 5.028 422.743 3.47 422.374 1.846C422.364 1.801 422.337 1.759 422.295 1.73C422.208 1.67 422.088 1.692 422.028 1.78C421.086 3.153 420.488 4.592 419.995 6.051C419.752 6.781 419.543 7.518 419.373 8.262C419.188 9.003 419.069 9.757 419.039 10.528C418.976 12.069 419.245 13.674 419.062 15.192C418.899 16.714 418.424 18.177 417.813 19.613C417.191 21.047 416.639 22.495 416.266 23.977C415.847 25.45 415.424 26.922 415.193 28.432C414.969 29.942 414.835 31.47 414.817 33.02C414.803 34.57 414.842 36.131 415.144 37.743C415.154 37.792 415.183 37.839 415.229 37.868H415.23Z" fill="#003B71"/>
<path d="M397.126 10.869C397.45 12.635 398.11 14.383 398.311 16.155C398.532 17.926 398.437 19.715 398.203 21.511C398.103 22.408 397.959 23.308 397.899 24.202C397.825 25.098 397.811 25.99 397.792 26.883C397.759 28.668 397.713 30.454 397.864 32.229C398.023 34.004 398.274 35.773 398.644 37.537C399.017 39.3 399.444 41.061 400.139 42.806C400.16 42.858 400.204 42.9 400.262 42.916C400.361 42.943 400.463 42.886 400.49 42.787C400.993 40.977 401.229 39.181 401.41 37.387C401.588 35.594 401.648 33.808 401.615 32.026C401.575 30.245 401.337 28.474 401.112 26.703C400.998 25.818 400.887 24.932 400.718 24.049C400.562 23.166 400.322 22.287 400.126 21.406C399.701 19.646 399.414 17.878 399.444 16.093C399.454 14.309 399.923 12.501 400.055 10.71C400.122 9.815 400.099 8.924 400.009 8.037C399.934 7.149 399.82 6.264 399.671 5.38C399.521 4.497 399.343 3.614 399.094 2.736C398.861 1.857 398.584 0.98 398.191 0.11C398.17 0.0640005 398.13 0.0250005 398.078 0.00800049C397.979 -0.0239995 397.872 0.0300005 397.84 0.129C397.543 1.037 397.361 1.938 397.225 2.837C397.072 3.737 396.99 4.633 396.936 5.528C396.883 6.422 396.864 7.315 396.885 8.206C396.891 9.097 396.964 9.985 397.126 10.868V10.869Z" fill="#003B71"/>
<path d="M374.155 9.831C374.281 10.386 374.471 10.922 374.747 11.431C375.297 12.45 376.17 13.37 376.604 14.425C377.056 15.474 377.206 16.615 377.222 17.798C377.221 18.986 377.307 20.147 377.55 21.26C377.754 22.385 377.953 23.511 378.34 24.58C379.15 26.707 380.217 28.755 381.961 30.596C381.989 30.626 382.027 30.647 382.071 30.655C382.178 30.673 382.279 30.6 382.297 30.493C382.712 27.992 382.45 25.697 381.932 23.481C381.655 22.379 381.19 21.334 380.729 20.287C380.307 19.229 379.73 18.218 379.064 17.235C378.416 16.246 377.901 15.216 377.689 14.094C377.458 12.977 377.667 11.726 377.553 10.574C377.497 9.998 377.354 9.448 377.148 8.917C376.956 8.382 376.726 7.859 376.463 7.345C375.93 6.321 375.296 5.328 374.325 4.437C374.3 4.414 374.269 4.397 374.234 4.389C374.124 4.363 374.014 4.43 373.988 4.54C373.682 5.821 373.712 6.999 373.843 8.146C373.913 8.718 374.015 9.281 374.155 9.831Z" fill="#003B71"/>
<path d="M352.463 18.342C352.617 18.686 352.835 18.991 353.125 19.254C353.706 19.778 354.576 20.127 355.052 20.714C355.54 21.293 355.774 22.025 355.869 22.841C355.955 23.662 356.12 24.435 356.426 25.125C356.696 25.835 356.962 26.548 357.397 27.16C358.298 28.364 359.43 29.429 361.168 30.13C361.186 30.137 361.207 30.143 361.227 30.145C361.348 30.158 361.456 30.07 361.469 29.949C361.666 28.085 361.256 26.586 360.616 25.225C360.28 24.554 359.776 23.985 359.275 23.413C358.81 22.82 358.204 22.311 357.52 21.85C356.844 21.383 356.307 20.833 356.025 20.13C355.73 19.434 355.83 18.502 355.64 17.743C355.544 17.364 355.377 17.028 355.146 16.731C354.93 16.424 354.68 16.138 354.401 15.87C353.836 15.337 353.179 14.859 352.222 14.561C352.214 14.558 352.205 14.556 352.196 14.555C352.068 14.531 351.945 14.615 351.92 14.743C351.733 15.728 351.848 16.532 352.053 17.281C352.159 17.654 352.295 18.008 352.464 18.343L352.463 18.342Z" fill="#003B71"/>
<path d="M333.893 32.995C334.072 33.238 334.305 33.427 334.596 33.557C335.18 33.816 336.001 33.837 336.499 34.183C337.006 34.519 337.304 35.065 337.487 35.726C337.663 36.394 337.904 36.997 338.261 37.484C338.589 38 338.913 38.52 339.376 38.9C340.329 39.634 341.471 40.178 343.113 40.221C343.117 40.221 343.122 40.221 343.126 40.221C343.26 40.217 343.365 40.106 343.361 39.972C343.313 38.33 342.765 37.19 342.028 36.24C341.646 35.778 341.125 35.456 340.608 35.13C340.12 34.775 339.516 34.536 338.847 34.362C338.185 34.181 337.638 33.885 337.3 33.379C336.952 32.883 336.929 32.061 336.668 31.479C336.536 31.189 336.346 30.957 336.103 30.778C335.873 30.587 335.614 30.424 335.332 30.285C334.761 30.013 334.115 29.816 333.222 29.867C333.09 29.875 332.981 29.981 332.974 30.116C332.925 31.01 333.125 31.655 333.399 32.225C333.539 32.507 333.703 32.765 333.895 32.995H333.893Z" fill="#003B71"/>
<path d="M319.34 52.335C319.629 52.574 320.021 52.642 320.408 52.716C320.772 52.829 321.229 52.786 321.722 52.683C322.21 52.588 322.625 52.615 322.881 52.91C323.144 53.193 323.176 53.867 323.378 54.253C323.579 54.64 323.974 54.701 324.384 54.737C324.596 54.744 324.822 54.726 325.084 54.648C325.338 54.584 325.615 54.48 325.95 54.278C326.052 54.216 326.124 54.104 326.13 53.976C326.147 53.584 326.105 53.292 326.04 53.038C325.983 52.771 325.89 52.564 325.783 52.381C325.555 52.038 325.313 51.721 324.876 51.729C324.44 51.736 323.834 52.031 323.459 51.936C323.077 51.852 322.855 51.5 322.705 51.027C322.56 50.545 322.379 50.123 322.105 49.858C321.854 49.554 321.607 49.243 321.259 49.103C320.91 48.965 320.507 48.917 320.05 48.96C319.598 48.994 319.087 49.129 318.476 49.432C318.365 49.487 318.291 49.603 318.296 49.734C318.323 50.415 318.45 50.929 318.636 51.342C318.817 51.764 319.052 52.095 319.34 52.335Z" fill="#003B71"/>
<path d="M64.395 69.186C64.395 69.65 64.46 70.048 64.593 70.378C64.593 70.378 65.917 72.829 67.639 72.829C68.103 72.829 68.566 72.631 69.03 72.232C71.415 70.113 81.679 57.86 84.195 55.808C84.725 55.344 85.057 55.213 85.256 55.213C85.388 55.213 85.454 55.278 85.454 55.476C85.454 56.338 84.395 58.522 83.401 60.379C82.672 61.77 82.075 63.425 82.075 64.881C82.075 66.472 82.804 67.796 84.593 68.193C84.858 68.26 85.057 68.26 85.322 68.26C87.956 68.26 91.808 65.998 96.193 62.194C96.191 62.273 96.182 62.354 96.182 62.433C96.182 66.406 98.435 69.52 102.475 69.52C103.003 69.52 103.6 69.453 104.195 69.322C108.852 68.39 115.006 64.481 119.346 61.23C117.62 64.942 116.117 68.786 116.117 71.176C116.117 71.969 116.315 72.633 116.712 73.03C117.309 73.692 117.904 73.957 118.435 73.957C119.959 73.957 121.415 71.639 123.204 68.328C125.72 63.891 131.02 56.472 133.536 54.816C134.198 54.353 134.728 54.154 135.058 54.154C135.92 54.154 135.92 55.611 135.985 57.996C136.119 60.644 136.781 63.558 139.961 63.558C140.821 63.558 141.88 63.36 143.139 62.896C145.216 62.111 147.036 61.167 148.535 60.268C148.137 61.276 147.91 62.272 147.91 63.228C147.91 64.22 148.175 65.214 148.639 66.074C149.499 67.467 151.021 67.995 152.744 67.995C155.924 67.995 159.962 66.274 161.883 65.082C164.002 63.89 165.658 62.697 166.786 62.697C167.314 62.697 167.713 62.962 167.976 63.557C168.573 64.881 169.5 65.875 171.553 65.875C172.547 65.875 173.806 65.677 175.328 65.082C177.782 64.186 180.634 62.095 182.888 60.18C181.135 63.996 179.834 67.591 179.834 69.849C179.834 70.513 179.899 71.041 180.164 71.44C180.893 72.632 181.621 73.096 182.482 73.096C184.802 73.096 187.516 69.187 190.233 66.074C193.941 61.902 198.71 56.34 199.769 55.876H199.836C199.903 55.876 199.968 55.876 199.968 55.941C199.968 56.803 197.187 61.439 197.187 64.485C197.187 64.75 197.254 64.948 197.254 65.147C197.584 66.87 199.041 68.129 201.294 68.129C203.547 68.129 206.524 66.937 209.903 63.823C212.62 61.307 215.599 57.465 218.182 53.821C216.328 57.797 214.672 61.703 213.48 65.082C211.691 70.312 210.897 74.288 210.897 77.134C210.897 81.11 212.419 82.964 214.739 82.964C215.136 82.964 215.465 82.897 215.864 82.83C219.255 82.162 227.088 72.506 232.708 64.713C233.248 67.307 235.243 68.791 238.054 68.791C240.106 68.791 242.622 67.995 245.404 66.34C247.179 65.29 248.755 64.226 250.149 63.202C249.678 64.375 249.446 65.415 249.446 66.275C249.446 68.657 250.97 70.05 253.023 70.05C254.082 70.05 255.274 69.718 256.533 68.989C261.367 66.208 270.706 58.99 270.706 58.99C270.706 58.99 266.4 64.354 266.4 68.459C266.4 69.386 266.665 70.248 267.196 70.977C267.66 71.639 268.388 71.969 269.249 71.969C273.356 71.969 280.971 65.083 287.793 57.466L288.323 56.804C288.323 56.804 288.256 56.67 288.125 56.67C287.927 56.67 287.662 56.804 287.131 57.334C286.006 58.459 281.569 62.168 277.065 65.546C274.879 67.135 273.357 67.931 272.561 67.931C272.164 67.931 271.964 67.731 271.964 67.334C271.964 66.871 272.229 66.209 272.76 65.282C274.748 61.772 289.583 36.206 289.583 36.206C289.583 36.206 289.714 35.544 289.714 34.684C289.714 33.757 289.516 32.629 288.655 32.034C288.125 31.702 287.594 31.504 287.131 31.504C286.072 31.504 285.143 32.3 284.35 33.822C283.091 36.075 273.885 52.896 273.885 52.896C273.885 52.896 272.363 49.785 267.13 49.785C266.733 49.785 266.27 49.785 265.806 49.85C260.282 50.321 254.971 54.754 251.67 60.234C249.293 61.851 246.421 63.612 243.882 64.685C241.763 65.612 240.174 66.011 238.915 66.011C237.061 66.011 236.134 65.084 236 63.163C236 63.163 241.961 61.507 244.611 58.327C245.538 57.135 246.002 55.811 246.002 54.619C246.002 52.963 245.075 51.639 242.956 51.639C242.426 51.639 241.764 51.704 241.102 51.904C241.102 51.904 233.882 54.817 232.756 61.638C232.712 61.839 232.686 62.021 232.656 62.206C229.432 66.313 224.971 71.857 221.959 74.951C219.773 77.202 218.382 78.263 217.587 78.263C217.059 78.263 216.794 77.733 216.794 76.739C216.794 75.946 216.925 74.753 217.257 73.296C218.516 67.268 221.563 59.254 228.516 46.605C229.178 45.346 229.84 44.156 230.504 43.095C237.259 42.83 243.153 42.632 244.345 42.565C247.391 42.433 255.603 42.433 255.735 41.705V41.638C255.735 41.174 254.344 40.976 252.756 40.976C252.292 40.976 251.762 41.043 251.298 41.043C249.245 41.175 249.642 41.308 247.523 41.44H246.531C243.22 41.44 234.742 41.043 234.742 41.043C234.742 41.043 233.614 40.976 231.696 40.976C236.926 32.035 240.372 27.464 240.637 26.537C240.637 26.406 240.702 26.272 240.702 26.207C240.702 25.213 239.775 24.551 238.518 24.219C238.518 24.219 238.055 24.021 237.326 24.021C236.332 24.021 235.006 24.353 233.682 26.009C232.49 27.4 228.848 33.426 224.808 40.844C220.634 40.777 215.8 40.71 211.894 40.71C207.988 40.71 205.006 40.777 204.475 40.908C203.679 41.106 203.216 41.77 203.216 42.432C203.216 43.292 203.88 44.088 205.601 44.088H206C207.589 43.954 215.337 43.625 223.483 43.359C222.556 45.082 221.629 46.869 220.702 48.723C216.728 53.956 210.703 61.439 206.992 63.625C205.073 64.751 203.747 65.281 202.954 65.281C202.225 65.281 201.893 64.818 201.893 64.022C201.893 63.095 202.29 61.836 202.887 60.314C203.747 57.996 204.543 55.81 204.543 54.154C204.543 52.763 204.013 51.77 202.491 51.504C202.29 51.504 202.159 51.439 201.961 51.439C198.979 51.439 195.933 55.477 191.231 60.048L186.33 64.949C186.33 64.949 188.648 59.652 191.563 54.618C193.682 50.843 195.47 47.266 195.47 45.147C195.47 44.485 195.272 43.955 194.875 43.625C193.948 42.963 193.152 42.631 192.49 42.631C191.895 42.631 191.432 42.896 191.166 43.491C191.166 43.491 190.105 46.604 187.986 50.379C186.625 52.773 185.121 55.55 183.779 58.307C181.937 59.701 179.432 61.41 177.188 62.3C175.401 63.029 174.077 63.361 173.148 63.361C171.958 63.361 171.361 62.764 170.897 61.638C170.434 60.049 170.101 58.99 168.646 58.99C168.116 58.99 167.454 59.122 166.591 59.387C163.611 60.446 158.247 63.757 156.79 63.757C156.659 63.757 156.525 63.757 156.458 63.692C156.326 63.558 156.193 63.293 156.193 62.963C156.193 61.771 157.784 59.188 162.816 56.34C165.731 54.684 167.652 54.285 168.909 54.285C170.5 54.285 171.03 54.949 171.03 54.949C171.692 54.419 171.957 53.757 171.957 53.028C171.957 51.504 170.765 49.716 168.71 48.789C167.85 48.392 166.658 48.192 165.398 48.192C162.22 48.192 158.113 49.451 154.67 52.431C152.373 54.407 150.376 56.675 149.16 58.94C147.115 60.04 144.455 61.275 142.416 61.506C142.086 61.573 141.821 61.573 141.556 61.573C138.973 61.573 138.973 59.717 138.775 57.201C138.641 54.752 138.775 51.108 136.324 51.108C135.992 51.108 135.528 51.175 135.065 51.373C131.29 52.764 124.602 61.771 124.602 61.771C124.602 61.771 128.31 53.956 131.424 47.994C134.537 42.035 143.942 28.39 143.942 28.39C143.942 28.39 144.537 27.463 144.537 26.471C144.537 25.807 144.207 25.08 143.146 24.682C142.484 24.417 141.887 24.285 141.423 24.285C139.901 24.285 139.105 25.279 138.245 26.734C137.12 28.722 135.729 31.04 135.729 31.04C135.729 31.04 125.794 48.458 122.946 54.023C122.225 55.425 121.315 57.176 120.398 59.045C114.695 62.952 107.965 66.34 104.403 66.34C103.607 66.34 102.945 66.208 102.547 65.812C101.82 65.215 101.488 64.355 101.488 63.294C101.488 60.381 104.071 56.406 106.587 54.42C108.575 52.831 109.898 52.499 110.694 52.499C111.157 52.499 111.423 52.633 111.423 52.633C111.423 53.493 112.283 54.42 113.012 54.42H113.21C114.07 54.286 114.601 53.426 115.064 51.505C115.131 50.977 115.198 50.38 115.198 49.849C115.198 48.394 114.668 47.068 112.68 46.604C112.217 46.537 111.688 46.473 111.158 46.473C108.179 46.473 103.806 47.928 99.171 54.286C97.576 56.394 96.668 58.62 96.338 60.688C93.942 62.589 90.975 64.671 89.104 65.282C88.44 65.48 87.845 65.612 87.381 65.612C86.521 65.612 86.057 65.215 86.057 64.42C86.057 63.56 86.521 62.236 87.579 60.248C88.97 57.598 89.567 55.546 89.567 54.024C89.567 52.698 89.103 51.838 88.109 51.374C87.777 51.24 87.38 51.109 87.048 51.109C84.995 51.109 82.214 53.228 79.034 56.473C75.591 60.117 71.816 64.554 71.154 64.554V64.487C71.154 63.493 80.492 47.731 80.492 44.751C80.492 44.619 80.425 44.553 80.425 44.486C80.028 43.095 78.506 42.3 77.314 42.3C76.65 42.3 76.122 42.565 75.988 43.162C75.723 44.684 74.862 46.01 73.472 48.858C73.472 48.858 71.997 51.205 70.237 54.392C43.121 88.758 25.832 92.538 19.574 92.538C14.017 92.538 10.097 89.735 8.813 84.834C8.394 83.337 8.181 81.772 8.181 80.181C8.181 63.345 25.764 49.398 40.82 42.57C40.911 42.529 40.994 42.472 41.064 42.401C41.808 41.66 42.155 41.051 42.155 40.484C42.155 39.291 41.043 38.686 38.849 38.686L38.37 38.688C36.64 38.806 35.039 38.866 33.609 38.866C27.477 38.866 20.167 37.736 20.167 32.352C20.167 26.15 29.079 17.377 37.695 12.478C42.263 9.878 51.694 5.479 58.064 5.479C62.285 5.479 64.337 7.432 64.337 11.45V12.384C63.961 17.48 61.535 23.083 57.126 29.039C56.732 29.452 56.507 29.933 56.507 30.366C56.507 31.002 57.006 31.501 57.642 31.501C58.104 31.501 58.618 31.205 59.034 30.686C64.11 23.898 66.978 17.642 67.332 12.535V11.511C67.332 5.093 63.315 1.701 55.714 1.701C47.868 1.701 38.235 5.363 33.916 7.955C21.905 14.819 15.424 25.027 15.424 31.149C15.424 35.711 18.406 41.094 32.105 41.738C21.856 47.343 13.815 53.896 8.172 61.247C2.828 68.211 0.0019989 75.466 0.0019989 82.229C0.0019989 84.119 0.163999 85.621 0.503999 86.926C2.247 94.767 8.158 99.447 16.318 99.447C24.478 99.447 40.979 94.774 64.968 65.972C64.61 67.188 64.396 68.288 64.396 69.188L64.395 69.186ZM266.135 54.683C267.526 54.021 268.718 53.821 269.712 53.821C271.7 53.821 272.758 54.815 272.758 54.815L271.831 56.206C271.831 56.206 270.572 57.2 266.797 59.386C263.022 61.637 259.182 64.683 256.664 64.683C256.334 64.683 256.136 64.552 256.136 64.286C256.136 62.63 262.229 56.537 266.135 54.683Z" fill="white"/>
<path d="M81.781 138.332C89.076 125.604 104.255 99.118 103.358 86.088C102.98 80.593 99.684 77.842 93.855 78.157C90.316 78.343 85.975 79.572 80.574 81.92C74.363 84.714 67.519 88.864 60.782 93.924C60.604 94.058 43.015 107.536 43.516 114.811C43.724 117.827 46.696 119.31 52.363 119.196C52.763 119.189 53.093 118.922 53.136 118.573L53.171 118.285C53.195 118.087 53.121 117.888 52.967 117.74C52.813 117.593 52.59 117.512 52.367 117.513C48.329 117.571 46.217 116.679 46.092 114.867C45.726 109.547 58.919 98.48 62.473 95.807C68.519 91.247 75.262 87.259 81.939 84.288C85.921 82.716 89.208 81.852 91.708 81.72C95.636 81.519 97.585 83.039 97.825 86.523C98.441 95.468 87.62 114.087 78.925 129.047C72.312 140.426 68.58 146.989 68.757 149.563C68.834 150.675 70.132 151.358 72.113 151.361C72.276 151.361 72.443 151.358 72.615 151.348C74.051 151.273 75.946 150.814 76.751 149.775C77.208 149.467 77.501 148.849 77.911 147.984C78.088 147.611 78.279 147.206 78.51 146.785C78.776 146.237 78.9 145.693 78.866 145.215C78.84 144.842 78.737 144.543 78.654 144.303C78.622 144.21 78.59 144.116 78.573 144.047C78.577 144.04 78.58 144.034 78.581 144.03C79.206 142.826 80.343 140.843 81.782 138.333L81.781 138.332Z" fill="white"/>
<path d="M278.185 114.811C276.615 115.504 267.763 119.15 258.878 124.24C256.162 122.657 252.982 122.601 251.665 121.989C249.909 121.171 250.571 119.058 255.159 115.246C260.312 111.056 264.488 110.576 264.383 109.422C264.207 108.272 263.213 106.279 262.982 105.85C262.754 105.424 260.535 106.138 260.535 106.138C260.535 106.138 245.653 113.636 244.775 118.356C244.698 118.744 244.646 119.107 244.607 119.46C242.552 121.273 239.813 123.593 237.041 125.798C234.708 127.597 233.074 128.51 232.207 128.535C231.775 128.547 231.55 128.335 231.538 127.903C231.524 127.398 231.792 126.668 232.342 125.642C234.4 121.756 249.777 93.441 249.777 93.441C249.777 93.441 249.9 92.716 249.873 91.778C249.844 90.768 249.593 89.545 248.638 88.923C248.05 88.577 247.466 88.378 246.961 88.392C245.807 88.425 244.82 89.32 244.002 91.003C242.699 93.497 233.186 112.109 233.186 112.109C233.186 112.109 231.432 108.766 225.73 108.927C225.298 108.939 224.793 108.953 224.289 109.038C217.615 109.797 211.378 115.882 208.145 122.856C206.075 124.466 203.903 125.94 202.383 126.484C201.666 126.721 201.021 126.882 200.516 126.897C199.579 126.923 199.061 126.506 199.037 125.639C199.011 124.702 199.475 123.245 200.567 121.046C202.001 118.116 202.588 115.861 202.541 114.202C202.5 112.757 201.969 111.834 200.871 111.36C200.505 111.225 200.069 111.094 199.707 111.104C197.471 111.167 194.505 113.562 191.14 117.196C187.501 121.272 183.524 126.224 182.803 126.244L182.801 126.171C182.77 125.088 192.459 107.625 192.368 104.378C192.364 104.235 192.289 104.164 192.287 104.091C191.812 102.588 190.129 101.768 188.83 101.805C188.106 101.825 187.539 102.131 187.412 102.786C187.17 104.453 186.273 105.924 184.846 109.07C184.846 109.07 180.538 116.379 177.798 123.102C177.198 123.44 176.599 123.745 176.016 123.996C174.091 124.845 172.659 125.248 171.646 125.276C170.349 125.313 169.68 124.68 169.14 123.468C168.586 121.751 168.192 120.608 166.606 120.652C166.028 120.668 165.311 120.832 164.379 121.148C161.165 122.393 155.422 126.167 153.834 126.212C153.691 126.216 153.545 126.22 153.47 126.152C153.323 126.01 153.169 125.726 153.159 125.366C153.122 124.067 154.777 121.203 160.172 117.945C163.297 116.051 165.378 115.557 166.748 115.518C168.482 115.469 169.08 116.176 169.08 116.176C169.785 115.578 170.054 114.848 170.031 114.054C169.984 112.393 168.63 110.482 166.362 109.535C165.412 109.129 164.107 108.948 162.735 108.986C159.272 109.084 154.836 110.582 151.176 113.935C147.162 117.589 144.04 122.081 144.148 125.908C144.156 126.202 144.19 126.495 144.24 126.785C138.614 134.011 132.092 141.097 130.263 142.483C129.839 142.782 129.483 143.011 129.124 143.021C128.619 143.035 128.316 142.538 128.287 141.526C128.236 139.722 129.073 136.16 131.224 130.465C132.837 126.232 135.241 119.301 138.656 112.344C143.846 101.725 150.195 91.29 150.195 91.29C152.354 88.483 153.018 86.442 152.979 85.072C152.94 83.7 152.196 82.926 151.249 82.591C150.811 82.387 150.447 82.327 150.015 82.339C148.643 82.378 147.516 83.348 147.114 84.514C146.508 86.048 143.44 89.964 139.133 98.536C136.421 103.979 132.527 112.151 129.081 120.206C125.429 121.807 119.045 124.722 112.63 128.398C109.914 126.815 106.734 126.759 105.417 126.147C103.661 125.329 104.323 123.216 108.911 119.404C114.064 115.214 118.24 114.734 118.134 113.58C117.958 112.431 116.964 110.437 116.733 110.008C116.505 109.582 114.287 110.296 114.287 110.296C114.287 110.296 99.405 117.794 98.527 122.514C97.579 127.307 99.367 129.278 106.476 130.307C107.345 130.426 108.145 130.619 108.8 130.747C108.517 130.971 108.232 131.123 107.876 131.349C106.955 131.953 105.963 132.633 105.113 133.233L105.045 133.308C101.718 135.713 96.341 139.693 94.739 141.76C92.443 144.858 96.15 150.821 104.847 146.748C113.614 142.672 118.154 134.599 115.227 130.709C114.853 130.287 114.552 129.86 114.182 129.511C118.604 126.661 123.925 123.452 128.648 121.233C126.793 125.615 125.088 129.928 123.805 133.708C122.872 136.48 122.505 138.802 122.556 140.606C122.668 144.574 124.746 146.537 127.344 146.464C128.427 146.433 129.572 146.112 130.781 145.356C134.266 143.177 140.515 134.662 144.783 128.486C144.862 128.655 144.94 128.826 145.032 128.987C146.012 130.478 147.687 131.007 149.564 130.954C153.029 130.856 157.376 128.857 159.433 127.498C161.706 126.134 163.473 124.783 164.702 124.749C165.278 124.733 165.72 125.009 166.025 125.65C166.717 127.074 167.757 128.129 169.994 128.065C171.077 128.034 172.443 127.779 174.083 127.084C174.97 126.731 175.902 126.223 176.839 125.632C176.05 127.901 175.545 129.973 175.588 131.501C175.602 132.006 175.685 132.439 175.841 132.794C175.841 132.794 177.359 135.424 179.236 135.371C179.741 135.357 180.24 135.126 180.733 134.677C183.266 132.294 194.073 118.627 196.752 116.313C197.316 115.792 197.673 115.638 197.89 115.632C198.033 115.628 198.108 115.696 198.114 115.912C198.141 116.852 197.054 119.264 196.029 121.317C195.278 122.855 194.678 124.677 194.723 126.263C194.772 127.997 195.607 129.417 197.569 129.794C197.86 129.859 198.076 129.853 198.365 129.844C200.653 129.779 203.739 128.124 207.255 125.292C207.052 126.086 206.954 126.809 206.972 127.438C207.045 130.034 208.749 131.505 210.986 131.441C212.14 131.408 213.428 131.01 214.778 130.177C219.959 126.997 229.914 118.844 229.914 118.844C229.914 118.844 225.388 124.822 225.514 129.295C225.542 130.305 225.858 131.237 226.458 132.014C226.984 132.721 227.788 133.058 228.725 133.031C232.404 132.927 238.522 127.676 244.583 121.084C244.866 123.947 247.16 125.337 252.726 126.143C253.595 126.262 254.395 126.456 255.05 126.583C254.767 126.807 254.482 126.959 254.127 127.185C253.206 127.789 252.214 128.469 251.364 129.069L251.296 129.144C247.969 131.549 242.592 135.529 240.99 137.596C238.693 140.694 242.401 146.657 251.098 142.584C259.865 138.508 264.405 130.435 261.478 126.545C261.104 126.123 260.803 125.697 260.433 125.347C266.531 121.417 274.345 116.793 279.931 115.045C279.931 115.045 280.183 113.811 278.189 114.805L278.185 114.811ZM109.388 136.367C106.453 139.843 99.739 145.017 98.164 143.04C97.19 141.767 103.199 137.191 106.595 134.641C107.653 133.816 109.213 132.761 110.986 131.627C112.53 132.594 111.345 134.072 109.388 136.367ZM225.664 119.402C221.62 121.971 217.53 125.409 214.786 125.486C214.427 125.496 214.206 125.359 214.198 125.07C214.147 123.266 220.598 116.439 224.798 114.298C226.293 113.534 227.586 113.279 228.669 113.248C230.835 113.187 232.019 114.237 232.019 114.237L231.052 115.781C231.052 115.781 229.711 116.904 225.664 119.402ZM255.638 132.205C252.703 135.681 245.989 140.855 244.414 138.878C243.44 137.605 249.449 133.029 252.845 130.479C253.903 129.654 255.463 128.599 257.236 127.465C258.78 128.432 257.594 129.909 255.637 132.205H255.638Z" fill="white"/>
<path d="M84.314 167.196H81.017C80.951 167.196 80.897 167.249 80.897 167.316V167.576C80.897 167.642 80.951 167.696 81.017 167.696C81.757 167.696 82.059 167.836 82.059 168.182V170.004C81.644 170.277 81.104 170.41 80.412 170.41C78.783 170.41 77.508 168.816 77.508 166.783C77.508 164.582 78.557 163.214 80.246 163.214C81.56 163.214 82.469 164.013 83.026 165.659C83.042 165.708 83.088 165.74 83.139 165.74H83.352C83.386 165.74 83.418 165.726 83.44 165.701C83.463 165.676 83.474 165.643 83.471 165.609L83.234 163.142C83.23 163.099 83.203 163.061 83.163 163.044C83.113 163.021 81.9 162.488 80.316 162.488C77.802 162.488 75.832 164.515 75.832 167.103C75.832 169.621 77.591 171.313 80.209 171.313C81.175 171.313 81.984 171.039 82.617 170.498L83.074 171.189C83.096 171.222 83.133 171.242 83.174 171.242H83.518C83.584 171.242 83.638 171.189 83.638 171.122V168.217C83.638 167.879 83.746 167.696 84.313 167.696C84.379 167.696 84.433 167.643 84.433 167.576V167.316C84.433 167.25 84.38 167.196 84.314 167.196Z" fill="white"/>
<path d="M106.565 170.67C106.189 170.67 105.961 170.514 105.822 170.163L102.727 162.703C102.709 162.658 102.665 162.629 102.617 162.629H101.325C101.28 162.629 101.238 162.655 101.218 162.695L101.135 162.862C101.119 162.893 101.118 162.929 101.131 162.961L101.469 163.783L99.054 170.166C98.926 170.492 98.654 170.67 98.288 170.67C98.222 170.67 98.168 170.723 98.168 170.79V171.05C98.168 171.116 98.222 171.17 98.288 171.17H100.802C100.868 171.17 100.922 171.117 100.922 171.05V170.79C100.922 170.724 100.868 170.67 100.802 170.67C100.575 170.67 99.972 170.67 99.836 170.474C99.821 170.454 99.778 170.392 99.835 170.238L100.553 168.348H103.354L104.082 170.123C104.138 170.262 104.14 170.366 104.088 170.442C103.986 170.593 103.67 170.669 103.15 170.669C103.084 170.669 103.03 170.722 103.03 170.789V171.049C103.03 171.115 103.084 171.169 103.15 171.169H106.565C106.631 171.169 106.685 171.116 106.685 171.049V170.789C106.685 170.723 106.631 170.67 106.565 170.67ZM103.042 167.599H100.833L101.886 164.806L103.042 167.599Z" fill="white"/>
<path d="M127.137 168.037H126.912C126.857 168.037 126.809 168.074 126.795 168.129L126.784 168.174C126.649 168.73 126.239 170.421 125.12 170.421H123.331V163.651C123.331 163.306 123.437 163.131 124.017 163.131C124.083 163.131 124.137 163.078 124.137 163.011V162.75C124.137 162.684 124.083 162.63 124.017 162.63H121.005C120.939 162.63 120.885 162.683 120.885 162.75V163.011C120.885 163.077 120.939 163.131 121.005 163.131C121.585 163.131 121.691 163.306 121.691 163.651V170.162C121.691 170.492 121.581 170.671 121.005 170.671C120.939 170.671 120.885 170.724 120.885 170.791V171.051C120.885 171.117 120.939 171.171 121.005 171.171H126.732C126.792 171.171 126.842 171.127 126.851 171.068L127.254 168.174C127.259 168.139 127.248 168.105 127.225 168.078C127.202 168.052 127.169 168.037 127.135 168.037H127.137Z" fill="white"/>
<path d="M144.214 161.988C144.237 162.013 144.27 162.027 144.303 162.027C144.323 162.027 144.342 162.022 144.361 162.012C144.495 161.939 144.63 161.866 144.762 161.795C145.249 161.534 145.708 161.287 145.975 161.069C146.219 160.841 146.246 160.546 146.042 160.299C145.838 160.067 145.529 160.05 145.271 160.262C145.27 160.262 145.269 160.264 145.268 160.265C145.007 160.495 144.681 160.936 144.335 161.402L144.101 161.717C144.067 161.763 144.07 161.827 144.107 161.87L144.214 161.988Z" fill="white"/>
<path d="M149.675 170.67C149.299 170.67 149.07 170.514 148.931 170.163L145.836 162.703C145.818 162.658 145.774 162.629 145.726 162.629H144.434C144.389 162.629 144.347 162.655 144.327 162.695L144.244 162.862C144.228 162.893 144.227 162.929 144.24 162.961L144.578 163.783L142.163 170.166C142.035 170.492 141.763 170.67 141.397 170.67C141.331 170.67 141.277 170.723 141.277 170.79V171.05C141.277 171.116 141.331 171.17 141.397 171.17H143.911C143.977 171.17 144.031 171.117 144.031 171.05V170.79C144.031 170.724 143.977 170.67 143.911 170.67C143.684 170.67 143.081 170.67 142.945 170.474C142.931 170.454 142.887 170.392 142.944 170.238L143.662 168.348H146.463L147.191 170.123C147.247 170.262 147.249 170.366 147.197 170.442C147.095 170.593 146.779 170.669 146.259 170.669C146.193 170.669 146.139 170.722 146.139 170.789V171.049C146.139 171.115 146.193 171.169 146.259 171.169H149.674C149.74 171.169 149.794 171.116 149.794 171.049V170.789C149.794 170.723 149.74 170.669 149.674 170.669L149.675 170.67ZM146.153 167.599H143.943L144.997 164.806L146.153 167.599Z" fill="white"/>
<path d="M166.986 162.63H164.116C164.05 162.63 163.996 162.683 163.996 162.75V163.011C163.996 163.077 164.05 163.131 164.116 163.131C164.686 163.131 164.791 163.302 164.791 163.64V170.15C164.791 170.495 164.687 170.671 164.116 170.671C164.05 170.671 163.996 170.724 163.996 170.791V171.051C163.996 171.117 164.05 171.171 164.116 171.171H167.484C167.55 171.171 167.604 171.118 167.604 171.051V170.791C167.604 170.725 167.55 170.671 167.484 170.671C166.744 170.671 166.442 170.531 166.442 170.185V167.779H166.986C169.088 167.779 170.343 166.817 170.343 165.205C170.343 163.593 169.088 162.63 166.986 162.63ZM166.442 163.379H166.915C168.055 163.379 168.609 163.976 168.609 165.204C168.609 166.432 168.055 167.029 166.915 167.029H166.442V163.379Z" fill="white"/>
<path d="M191.718 170.67C191.342 170.67 191.113 170.514 190.974 170.163L187.879 162.703C187.861 162.658 187.817 162.629 187.769 162.629H186.476C186.431 162.629 186.389 162.655 186.369 162.695L186.286 162.862C186.271 162.893 186.269 162.929 186.282 162.961L186.62 163.783L184.206 170.166C184.078 170.491 183.806 170.67 183.44 170.67C183.374 170.67 183.32 170.723 183.32 170.79V171.05C183.32 171.116 183.374 171.17 183.44 171.17H185.954C186.02 171.17 186.074 171.117 186.074 171.05V170.79C186.074 170.724 186.02 170.67 185.954 170.67C185.727 170.67 185.124 170.67 184.988 170.474C184.974 170.454 184.931 170.392 184.987 170.238L185.705 168.348H188.506L189.234 170.123C189.29 170.262 189.292 170.366 189.24 170.442C189.138 170.593 188.822 170.669 188.302 170.669C188.236 170.669 188.182 170.722 188.182 170.789V171.049C188.182 171.115 188.236 171.169 188.302 171.169H191.717C191.783 171.169 191.837 171.116 191.837 171.049V170.789C191.837 170.723 191.783 170.669 191.717 170.669L191.718 170.67ZM188.195 167.599H185.985L187.039 164.806L188.195 167.599Z" fill="white"/>
<path d="M213.667 167.196H210.371C210.305 167.196 210.251 167.249 210.251 167.316V167.576C210.251 167.642 210.305 167.696 210.371 167.696C211.112 167.696 211.413 167.836 211.413 168.182V170.004C210.997 170.277 210.457 170.41 209.765 170.41C208.137 170.41 206.861 168.816 206.861 166.783C206.861 164.582 207.91 163.214 209.599 163.214C210.912 163.214 211.821 164.013 212.379 165.659C212.395 165.708 212.441 165.74 212.492 165.74H212.706C212.74 165.74 212.772 165.726 212.794 165.701C212.817 165.676 212.828 165.643 212.825 165.609L212.588 163.142C212.584 163.099 212.557 163.061 212.517 163.044C212.466 163.021 211.254 162.488 209.67 162.488C207.155 162.488 205.186 164.515 205.186 167.103C205.186 169.621 206.945 171.313 209.563 171.313C210.53 171.313 211.339 171.039 211.97 170.498L212.428 171.189C212.45 171.222 212.487 171.242 212.528 171.242H212.872C212.938 171.242 212.992 171.189 212.992 171.122V168.217C212.992 167.879 213.1 167.696 213.667 167.696C213.733 167.696 213.787 167.643 213.787 167.576V167.316C213.787 167.25 213.733 167.196 213.667 167.196Z" fill="white"/>
<path d="M232.414 162.487C229.858 162.487 227.93 164.384 227.93 166.901C227.93 169.418 229.858 171.313 232.414 171.313C234.97 171.313 236.897 169.416 236.897 166.901C236.897 164.386 234.97 162.487 232.414 162.487ZM235.188 166.901C235.188 169.175 234.125 170.587 232.415 170.587C230.705 170.587 229.641 169.175 229.641 166.901C229.641 164.627 230.704 163.214 232.415 163.214C234.126 163.214 235.188 164.627 235.188 166.901Z" fill="white"/>
<path d="M254.312 165.956C253.431 165.474 252.671 165.058 252.671 164.399C252.671 163.712 253.159 163.214 253.832 163.214C254.937 163.214 255.788 164.131 256.11 165.668C256.122 165.724 256.171 165.763 256.228 165.763H256.453C256.487 165.763 256.519 165.749 256.542 165.724C256.565 165.699 256.576 165.665 256.573 165.631C256.431 164.216 256.318 163.334 256.276 163.019C256.27 162.973 256.238 162.935 256.194 162.921C255.594 162.728 254.848 162.488 253.893 162.488C252.408 162.488 251.33 163.481 251.33 164.849C251.33 166.439 252.56 167.087 253.645 167.658C254.509 168.113 255.255 168.506 255.255 169.273C255.255 170.109 254.819 170.588 254.059 170.588C252.9 170.588 251.945 169.497 251.567 167.741C251.555 167.686 251.507 167.646 251.45 167.646H251.225C251.192 167.646 251.16 167.66 251.137 167.683C251.115 167.707 251.103 167.74 251.105 167.773C251.105 167.773 251.235 169.79 251.295 170.596C251.298 170.638 251.322 170.675 251.359 170.694C251.934 170.992 252.918 171.312 253.951 171.312C255.638 171.312 256.728 170.301 256.728 168.738C256.728 167.275 255.445 166.574 254.314 165.956H254.312Z" fill="white"/>
<path d="M95.353 180.802C95.353 180.29 95.758 179.874 96.271 179.874C96.784 179.874 97.2 180.29 97.2 180.802C97.2 181.314 96.784 181.731 96.271 181.731C95.758 181.731 95.353 181.315 95.353 180.802Z" fill="white"/>
<path d="M106.374 177.814V177.579H109.523V177.814C108.915 177.814 108.37 177.92 108.562 178.465L110.462 183.557L112.458 178.349C112.64 177.857 112.021 177.815 111.476 177.815V177.58H113.749V177.815C113.397 177.815 113.098 177.986 112.959 178.327L110.365 185.115H109.789L107.131 178.337C106.992 177.985 106.758 177.814 106.374 177.814Z" fill="white"/>
<path d="M122.622 181.315C122.622 179.202 124.234 177.452 126.55 177.452C128.866 177.452 130.478 179.203 130.478 181.315C130.478 183.427 128.866 185.179 126.55 185.179C124.234 185.179 122.622 183.428 122.622 181.315ZM126.55 184.741C128.236 184.741 129.154 183.332 129.154 181.314C129.154 179.296 128.236 177.888 126.55 177.888C124.864 177.888 123.946 179.297 123.946 181.314C123.946 183.331 124.864 184.741 126.55 184.741Z" fill="white"/>
<path d="M142.32 184.261V181.849L140.217 178.337C140.025 178.006 139.652 177.814 139.299 177.814V177.579H142.426V177.814C141.839 177.814 141.37 177.963 141.668 178.465L143.312 181.294L145.009 178.338C145.276 177.89 144.721 177.815 144.166 177.815V177.58H146.493V177.815C146.119 177.815 145.724 178.007 145.543 178.327L143.579 181.785V184.262C143.579 184.678 143.888 184.817 144.401 184.817V185.051H141.498V184.817C142 184.817 142.32 184.677 142.32 184.261Z" fill="white"/>
<path d="M155.883 184.292L158.071 178.507L157.751 177.728L157.826 177.579H158.989L161.775 184.292C161.914 184.645 162.159 184.815 162.544 184.815V185.049H159.47V184.815C160.067 184.815 160.623 184.708 160.409 184.174L159.726 182.509H157.058L156.386 184.281C156.204 184.772 156.824 184.815 157.357 184.815V185.049H155.094V184.815C155.446 184.815 155.745 184.644 155.884 184.292H155.883ZM159.534 182.051L158.328 179.137L157.229 182.051H159.535H159.534Z" fill="white"/>
<path d="M171.473 181.496C171.473 179.276 173.17 177.451 175.401 177.451C176.82 177.451 177.92 177.942 177.92 177.942L178.134 180.162H177.942C177.504 178.87 176.735 177.889 175.338 177.889C173.694 177.889 172.766 179.234 172.766 181.208C172.766 183.001 173.876 184.581 175.487 184.581C176.17 184.581 176.682 184.442 177.077 184.165V182.468C177.077 182.01 176.607 181.924 176.031 181.924V181.689H178.999V181.924C178.487 181.924 178.284 182.084 178.284 182.501V185.116H177.974L177.494 184.39C177.014 184.839 176.31 185.18 175.306 185.18C172.936 185.18 171.474 183.654 171.474 181.498L171.473 181.496Z" fill="white"/>
<path d="M189.065 182.105V178.38C189.065 177.964 188.852 177.814 188.34 177.814V177.579H191.051V177.814C190.528 177.814 190.325 177.963 190.325 178.38V182.158C190.325 183.94 191.435 184.559 192.428 184.559C193.859 184.559 194.499 183.513 194.499 182.179V178.39C194.499 177.899 193.998 177.814 193.378 177.814V177.579H195.673V177.814C195.172 177.814 194.958 177.985 194.958 178.38V182.18C194.958 183.845 193.965 185.179 192.194 185.179C190.369 185.179 189.065 184.218 189.065 182.105Z" fill="white"/>
<path d="M206.091 184.25V178.39C206.091 177.963 205.877 177.814 205.365 177.814V177.579H210.392L210.744 180.184H210.541C210.423 179.703 210.05 178.039 208.929 178.039H207.349V180.91H208.416C209.174 180.91 209.27 180.152 209.28 179.554H209.494V182.724H209.28C209.27 182.116 209.173 181.368 208.416 181.368H207.349V184.591H209.068C210.178 184.591 210.562 182.926 210.68 182.446H210.872L210.52 185.05H205.365V184.816C205.877 184.816 206.091 184.667 206.091 184.25Z" fill="white"/>
<path d="M220.892 184.634C220.839 183.908 220.721 182.094 220.721 182.094H220.924C221.287 183.78 222.226 184.741 223.272 184.741C224.03 184.741 224.456 184.25 224.456 183.449C224.456 181.773 220.924 181.954 220.924 179.467C220.924 178.314 221.831 177.45 223.123 177.45C223.955 177.45 224.596 177.653 225.161 177.834C225.225 178.314 225.321 179.125 225.428 180.182H225.225C224.948 178.859 224.2 177.887 223.069 177.887C222.375 177.887 221.916 178.421 221.916 179.061C221.916 180.534 225.567 180.705 225.567 182.967C225.567 184.301 224.638 185.177 223.176 185.177C222.344 185.177 221.468 184.931 220.892 184.632V184.634Z" fill="white"/>
<path d="M235.42 180.802C235.42 180.29 235.825 179.874 236.338 179.874C236.851 179.874 237.267 180.29 237.267 180.802C237.267 181.314 236.851 181.731 236.338 181.731C235.825 181.731 235.42 181.315 235.42 180.802Z" fill="white"/>
</g>
<defs>
<clipPath id="clip0_1054_4400">
<rect width="498.976" height="191.525" fill="white"/>
</clipPath>
</defs>
</svg>
