<?xml version="1.0" encoding="utf-8"?>
<!-- Generator: Adobe Illustrator 25.4.1, SVG Export Plug-In . SVG Version: 6.00 Build 0)  -->
<svg version="1.1" id="Capa_1" xmlns="http://www.w3.org/2000/svg" xmlns:xlink="http://www.w3.org/1999/xlink" x="0px" y="0px"
	 viewBox="0 0 1080 1350" style="enable-background:new 0 0 1080 1350;" xml:space="preserve">
<style type="text/css">
	.st0{fill:none;stroke:#FFFFFF;stroke-width:2.1147;stroke-miterlimit:10;}
	.st1{fill:none;stroke:#FFFFFF;stroke-width:1.0573;stroke-miterlimit:10;}
	.st2{fill:#22497B;}
	.st3{fill:#BCCCDA;}
	.st4{fill:#E2E5ED;}
	.st5{fill:none;stroke:#22497B;stroke-width:4.9746;stroke-miterlimit:10;}
	.st6{fill:#335681;}
	.st7{fill:#4273A9;}
	.st8{opacity:0.22;clip-path:url(#XMLID_00000054242625235385020630000012252221104478719891_);fill:#FFFFFF;}
	.st9{clip-path:url(#XMLID_00000000211762519073306260000004711901161676927136_);fill:#E2E5ED;}
	.st10{clip-path:url(#XMLID_00000000211762519073306260000004711901161676927136_);fill:#E45C31;}
	.st11{clip-path:url(#XMLID_00000054231978432463480370000017557244591855193775_);fill:#E2E5ED;}
	.st12{clip-path:url(#XMLID_00000054231978432463480370000017557244591855193775_);fill:#E45C31;}
</style>
<circle class="st0" cx="932.3" cy="618.1" r="18.6"/>
<circle class="st0" cx="1002.4" cy="687.7" r="18.6"/>
<circle class="st1" cx="903.7" cy="669.1" r="9.3"/>
<g id="XMLID_168_">
	<rect id="XMLID_71_" x="816.3" y="649.7" class="st2" width="19.7" height="89.6"/>
	<rect id="XMLID_70_" x="816.3" y="649.7" class="st3" width="19.7" height="21.5"/>
	<rect id="XMLID_69_" x="810.8" y="649.7" class="st2" width="30.6" height="14.9"/>
	<path id="XMLID_47_" class="st2" d="M621.9,548.7h28.8v-51.9c0-1.7-1.4-3.1-3.1-3.1h-17.5c-4.6,0-8.3,3.7-8.3,8.3V548.7z"/>
	<path id="XMLID_61_" class="st2" d="M662.4,548.7h3c2.8,0,5.1-2.3,5.1-5.1V515c0-2.8-2.3-5.1-5.1-5.1h-3c-2.8,0-5.1,2.3-5.1,5.1
		v28.5C657.3,546.4,659.6,548.7,662.4,548.7z"/>
	<polygon id="XMLID_2_" class="st4" points="160.9,665.6 275.3,542.8 673.1,542.8 746.4,739.3 245.5,739.3 	"/>
	<polygon id="XMLID_7_" class="st3" points="679.1,558.9 673.1,542.8 275.3,542.8 260.3,558.9 	"/>
	<polygon id="XMLID_8_" class="st4" points="239.3,581.4 160.9,665.6 245.5,739.3 746.4,739.3 687.5,581.4 	"/>
	<g id="XMLID_211_">
		<path id="XMLID_217_" class="st5" d="M687.6,661.8h94.5c4.5,0,8.1,3.6,8.1,8.1v26.2"/>
		<line id="XMLID_216_" class="st5" x1="768.8" y1="659.7" x2="768.8" y2="697"/>
		<line id="XMLID_215_" class="st5" x1="746.4" y1="659.7" x2="746.4" y2="697"/>
		<line id="XMLID_214_" class="st5" x1="726.5" y1="659.7" x2="726.5" y2="697"/>
		<line id="XMLID_213_" class="st5" x1="706.6" y1="659.7" x2="706.6" y2="697"/>
		<line id="XMLID_212_" class="st5" x1="684.3" y1="659.7" x2="684.3" y2="697"/>
	</g>
	<rect id="XMLID_210_" x="682.8" y="688.8" class="st6" width="128.1" height="29"/>
	<path id="XMLID_17_" class="st7" d="M842.1,781.6H179.5c-8.3,0-15.7-5.6-18.5-13.4l-22.6-62.1c-3.7-10-9.2-19.7-16.3-27.7
		l-29.4-33.6h594.8l21.7,67.2h137.9c5.4,0,10,4.6,10.5,10l0.7,7.2l3.2,30.1C862.9,770.8,853.8,781.6,842.1,781.6z"/>
	<path id="XMLID_208_" class="st7" d="M857.8,722.5c-0.6-5.4-5.1-9.5-10.5-9.5H709.3l-8.4-26.3H128.6c4.1,5.9,7.4,12.3,9.9,19.1
		l22.6,61.9c2.8,7.8,10.2,12.9,18.5,12.9h662.6c11.7,0,20.8-10.1,19.6-21.8L857.8,722.5z"/>
	<path id="XMLID_57_" class="st3" d="M637.7,682.4c-18.6,0-33.7,15.1-33.7,33.7c0,18.6,15.1,33.7,33.7,33.7
		c18.6,0,33.7-15.1,33.7-33.7C671.4,697.5,656.3,682.4,637.7,682.4z M637.7,735.7c-10.8,0-19.6-8.8-19.6-19.6
		c0-10.8,8.8-19.6,19.6-19.6c10.8,0,19.6,8.8,19.6,19.6C657.3,726.9,648.5,735.7,637.7,735.7z"/>
	<path id="XMLID_54_" class="st3" d="M556.8,682.4c-18.6,0-33.7,15.1-33.7,33.7c0,18.6,15.1,33.7,33.7,33.7s33.7-15.1,33.7-33.7
		C590.5,697.5,575.4,682.4,556.8,682.4z M556.8,735.7c-10.8,0-19.6-8.8-19.6-19.6c0-10.8,8.8-19.6,19.6-19.6
		c10.8,0,19.6,8.8,19.6,19.6C576.4,726.9,567.7,735.7,556.8,735.7z"/>
	<path id="XMLID_9_" class="st3" d="M861.7,759.3l-3.2-30h-618c-27.4,0-52.6-15.1-65.4-39.4l-13.4-25.3h532l-6.1-19.9H151.9h-0.2
		H92.8h0.5h-0.5l16.7,19.9h0.3l12.4,13.9c7.1,8,12.6,17.6,16.3,27.6l22.6,62.1c2.8,7.8,10.2,13.3,18.5,13.3h662.6
		C853.8,781.6,862.9,771,861.7,759.3z"/>
	<path id="XMLID_112_" class="st2" d="M628.2,582.6h-18.5l0,0h-150h-220l-56.3,57.2H642v-45C642,587.8,635.2,582.6,628.2,582.6z"/>
	<g id="XMLID_113_">
		<defs>
			<path id="XMLID_114_" d="M628.2,582.6h-18.5l0,0h-150h-220l-56.3,57.2H642v-45C642,587.8,635.2,582.6,628.2,582.6z"/>
		</defs>
		<clipPath id="XMLID_00000064340606684945865060000000849527555031658368_">
			<use xlink:href="#XMLID_114_"  style="overflow:visible;"/>
		</clipPath>
		
			<path id="XMLID_111_" style="opacity:0.22;clip-path:url(#XMLID_00000064340606684945865060000000849527555031658368_);fill:#FFFFFF;" d="
			M428.6,652.2l48.7-99h-57.8l-48.7,98.9C390.1,652.1,409.3,652,428.6,652.2z"/>
		
			<path id="XMLID_109_" style="opacity:0.22;clip-path:url(#XMLID_00000064340606684945865060000000849527555031658368_);fill:#FFFFFF;" d="
			M357.2,652.2l48.7-99h-17.8l-48.7,98.9C345.4,652.1,351.3,652.2,357.2,652.2z"/>
		
			<path id="XMLID_118_" style="opacity:0.22;clip-path:url(#XMLID_00000064340606684945865060000000849527555031658368_);fill:#FFFFFF;" d="
			M239.9,652.2l48.7-99H256l-48.7,98.9C213.3,652.1,234,652.2,239.9,652.2z"/>
		
			<path id="XMLID_116_" style="opacity:0.22;clip-path:url(#XMLID_00000064340606684945865060000000849527555031658368_);fill:#FFFFFF;" d="
			M569,652.2l48.7-99h-35.1l-48.7,98.9C539.8,652.1,563,652.2,569,652.2z"/>
	</g>
	<path id="XMLID_193_" class="st2" d="M682.8,543.8H258.3l0,0c0-8.9,7.2-16.1,16.1-16.1h408.4V543.8z"/>
	<path id="XMLID_192_" class="st2" d="M858,742.8H152.6l8.5,24.6c2.7,7.9,10.2,13.2,18.6,13.2h664.6c10.9,0,19.7-8.8,19.7-19.7
		v-12.1C864,745.5,861.3,742.8,858,742.8z"/>
	<path id="XMLID_1_" class="st7" d="M690.8,652.2H91.6v-13.7h592.6c3.6,0,6.5,2.9,6.5,6.5V652.2z"/>
	<g id="XMLID_182_">
		<defs>
			<path id="XMLID_183_" d="M632.1,676.6c-18.6,0-33.7,15.1-33.7,33.7s15.1,33.7,33.7,33.7c18.6,0,33.7-15.1,33.7-33.7
				S650.7,676.6,632.1,676.6z M632.1,729.9c-10.8,0-19.6-8.8-19.6-19.6s8.8-19.6,19.6-19.6c10.8,0,19.6,8.8,19.6,19.6
				S642.9,729.9,632.1,729.9z"/>
		</defs>
		<clipPath id="XMLID_00000034778649782719506410000013166920972888996523_">
			<use xlink:href="#XMLID_183_"  style="overflow:visible;"/>
		</clipPath>
		<path id="XMLID_188_" style="clip-path:url(#XMLID_00000034778649782719506410000013166920972888996523_);fill:#E2E5ED;" d="
			M632.1,676.6c-18.6,0-33.7,15.1-33.7,33.7s15.1,33.7,33.7,33.7c18.6,0,33.7-15.1,33.7-33.7S650.7,676.6,632.1,676.6z M632.1,729.9
			c-10.8,0-19.6-8.8-19.6-19.6s8.8-19.6,19.6-19.6c10.8,0,19.6,8.8,19.6,19.6S642.9,729.9,632.1,729.9z"/>
		
			<rect id="XMLID_20_" x="628.5" y="669" transform="matrix(-1.836970e-16 1 -1 -1.836970e-16 1343.1818 78.0054)" style="clip-path:url(#XMLID_00000034778649782719506410000013166920972888996523_);fill:#E45C31;" width="8.2" height="83.2"/>
		
			<rect id="XMLID_19_" x="628.5" y="669" style="clip-path:url(#XMLID_00000034778649782719506410000013166920972888996523_);fill:#E45C31;" width="8.2" height="83.2"/>
	</g>
	<g id="XMLID_25_">
		<defs>
			<path id="XMLID_26_" d="M551.2,676.6c-18.6,0-33.7,15.1-33.7,33.7s15.1,33.7,33.7,33.7c18.6,0,33.7-15.1,33.7-33.7
				S569.8,676.6,551.2,676.6z M551.2,729.9c-10.8,0-19.6-8.8-19.6-19.6s8.8-19.6,19.6-19.6s19.6,8.8,19.6,19.6
				S562.1,729.9,551.2,729.9z"/>
		</defs>
		<clipPath id="XMLID_00000171687108930120770220000018403361382596505224_">
			<use xlink:href="#XMLID_26_"  style="overflow:visible;"/>
		</clipPath>
		<path id="XMLID_31_" style="clip-path:url(#XMLID_00000171687108930120770220000018403361382596505224_);fill:#E2E5ED;" d="
			M551.2,676.6c-18.6,0-33.7,15.1-33.7,33.7s15.1,33.7,33.7,33.7c18.6,0,33.7-15.1,33.7-33.7S569.8,676.6,551.2,676.6z M551.2,729.9
			c-10.8,0-19.6-8.8-19.6-19.6s8.8-19.6,19.6-19.6s19.6,8.8,19.6,19.6S562.1,729.9,551.2,729.9z"/>
		
			<rect id="XMLID_30_" x="547.6" y="669" transform="matrix(-1.836970e-16 1 -1 -1.836970e-16 1262.3063 158.8808)" style="clip-path:url(#XMLID_00000171687108930120770220000018403361382596505224_);fill:#E45C31;" width="8.2" height="83.2"/>
		
			<rect id="XMLID_29_" x="547.6" y="669" style="clip-path:url(#XMLID_00000171687108930120770220000018403361382596505224_);fill:#E45C31;" width="8.2" height="83.2"/>
	</g>
	<rect id="XMLID_172_" x="305.9" y="574" class="st4" width="21.7" height="64.4"/>
	<rect id="XMLID_117_" x="497.4" y="574" class="st4" width="21.7" height="64.4"/>
	<path id="XMLID_6_" class="st2" d="M190.5,721.1h-10.9c-3,0-5.4-2.4-5.4-5.4v-10.9c0-3,2.4-5.4,5.4-5.4h10.9c3,0,5.4,2.4,5.4,5.4
		v10.9C196,718.7,193.5,721.1,190.5,721.1z"/>
	<path id="XMLID_5_" class="st2" d="M223.7,721.1h-10.9c-3,0-5.4-2.4-5.4-5.4v-10.9c0-3,2.4-5.4,5.4-5.4h10.9c3,0,5.4,2.4,5.4,5.4
		v10.9C229.1,718.7,226.7,721.1,223.7,721.1z"/>
	<path id="XMLID_4_" class="st2" d="M256.8,721.1h-10.9c-3,0-5.4-2.4-5.4-5.4v-10.9c0-3,2.4-5.4,5.4-5.4h10.9c3,0,5.4,2.4,5.4,5.4
		v10.9C262.3,718.7,259.8,721.1,256.8,721.1z"/>
</g>
</svg>
