<svg width="70" height="70" viewBox="0 0 70 70" fill="none" xmlns="http://www.w3.org/2000/svg">
<path d="M27.6734 12.1105C32.8771 5.13303 40.7011 3.09551 47.8984 5.05608C55.6674 7.17056 62.4982 13.8438 64.7666 23.1373C64.8839 23.6137 64.9852 24.0901 65.0707 24.5665C61.7962 23.3997 58.2344 23.3098 54.9051 24.3099C50.1888 20.8212 44.3474 20.2349 39.1546 22.1478C32.6499 24.5481 27.5708 30.6351 26.3944 38.2941C24.8919 48.1006 30.8653 56.9103 39.3122 64.4008L40.7341 65.6321C39.587 65.7127 38.4217 65.5332 37.3077 65.295C36.7352 65.1718 36.1658 65.035 35.5999 64.8845L33.632 64.3348C16.1372 59.4133 4.42509 51.7139 1.06464 40.207C-1.61786 31.0235 0.962031 21.829 6.63485 16.1122C11.8899 10.8168 19.6809 8.66938 27.6734 12.1105ZM33.6394 39.4045C35.2078 29.1729 47.0409 24.1304 53.1168 32.9108C53.175 32.9924 53.2631 33.0478 53.3618 33.0649C53.4606 33.0821 53.5622 33.0596 53.6445 33.0024C62.3553 26.8312 71.7477 35.6153 69.7211 45.7663C68.5485 51.6541 63.0882 56.5402 53.3403 60.4247L51.7462 61.0477L50.7824 61.4435C49.9506 61.7696 49.0711 62.0298 48.2758 61.8906C47.4843 61.7513 46.7477 61.2016 46.0771 60.6153L44.941 59.5892C36.4636 52.2942 32.6964 45.5659 33.6394 39.4045Z" fill="white"/>
</svg>
