<?xml version="1.0" encoding="UTF-8"?>
<svg id="Capa_2" data-name="Capa 2" xmlns="http://www.w3.org/2000/svg" viewBox="0 0 113.38 110.53">
  <defs>
    <style>
      .cls-1 {
        fill: #f8d6b1;
      }

      .cls-2 {
        fill: #aca8a6;
      }

      .cls-3 {
        fill: #70696a;
      }

      .cls-4 {
        fill: #291d1d;
      }

      .cls-5 {
        fill: #f6f1b6;
      }

      .cls-6 {
        fill: #817f80;
      }

      .cls-7 {
        fill: #494040;
      }

      .cls-8 {
        fill: #fdfdfd;
      }
    </style>
  </defs>
  <g id="Capa_1-2" data-name="Capa 1">
    <path class="cls-1" d="M106,8.98c2.24.35,4.43,1.02,6.48,2.01-1.63-.33-3.28-.88-4.93-1.11-.52-.07-1.04-.03-1.55-.07v-.83Z"/>
    <path class="cls-1" d="M104.99,13.72c.47.51.82,1.11,1.16,1.71,1.05,1.88,1.79,4.17,2.04,6.31-.3-.46-.42-1.18-.61-1.7-.7-1.89-1.66-4.11-3.11-5.55l.52-.77Z"/>
    <path class="cls-1" d="M105.83,11.38l.13-.88.09.04c.41.19.85.29,1.26.5,2.22,1.16,4.12,2.93,6.07,4.47l-.08.02c-2.41-1.47-4.78-3.23-7.47-4.16Z"/>
    <path class="cls-1" d="M105.59,12.33c.59.14,1.03.5,1.48.89.96.84,1.83,1.84,2.5,2.93.73,1.19,1.32,2.53,1.73,3.86-.13-.19-.24-.37-.34-.58-.22-.46-.52-.9-.78-1.33-.88-1.43-1.8-2.6-3.06-3.72-.52-.46-1.08-.96-1.75-1.18l-.08-.02.29-.84Z"/>
    <path class="cls-2" d="M105.81,7.91l.19,1.07v.83s-.04.69-.04.69l-.13.88-.24.94-.29.84-.12.21-1.35-.08c.61-1.08.8-2.24.88-3.46.08-.32.52-.68.71-.99.18-.3.29-.62.4-.95Z"/>
    <path class="cls-4" d="M101.03,4.83c1.48.21,3.34.37,4.34,1.64.3.39.43.96.44,1.44-.11.33-.21.65-.4.95-.19.31-.63.66-.71.99l-.09-.17h-.31c-.08.14-.08.26-.1.42-.01-.21.03-.36-.14-.5l-.19-.13c-.28-.24-.5-.61-.76-.89-1.06-1.15-2.03-2.05-2.24-3.69l.15-.07Z"/>
    <path class="cls-7" d="M83.3.53l.03.1c-2.24,2.21-4.11,4.5-5.41,7.39-.27.6-.57,1.22-.76,1.85-1.23.23-2.79.45-3.82,1.21,1.14-.4,2.23-.7,3.43-.88l.22.05c0,.46-.25,1.03-.36,1.49-.27,1.13-.54,2.33-.57,3.5-.48.48-2.01,1.92-2.05,2.54.3-.19.59-.7.83-.97.32-.35.68-.68,1.02-1,.04.07.06.08.07.18.03.17-.02.42-.04.61l-.07,1.26.02,2.99c.3,6.65,2.05,13.14,2.04,19.8,0,2.94-.44,5.88-1.18,8.72-1.61,6.18-4.53,11.9-8.65,16.8-2.42,2.88-5.26,5.39-8.26,7.65-1.98,1.49-4.03,2.91-6.17,4.16-1.76,1.03-3.57,1.92-5.5,2.6-5.08,1.81-11.71,2.93-13.36,8.98-.17.63-.18,1.21-.23,1.85.04.29.08.59.17.87.1.3.28.58.36.89l-.04.05c-.54.58-1.38,1.06-2.06,1.45-3.68,2.14-7.94,3.04-12.17,3.03-5.27-.02-10.69-1.33-15.43-3.62-1.56-.76-3.2-1.68-4.42-2.92-.32-.33-.97-.98-.94-1.48.01-.21.09-.42.26-.56,1-.81,6.17-.29,7.59-.2-.35-.52-.92-1.25-.94-1.89,0-.19.06-.42.2-.56.11-.11.29-.2.45-.22.81-.11,1.77.07,2.58.18,3.53.49,6.97,1.46,10.49,2.03,1.81.29,3.59.45,5.42.52l.89-.06c-1.26-2.06-2.19-4.23-2.82-6.57-1.19-4.4-.89-9.07.6-13.35,1.18-3.4,3.08-6.53,5.63-9.08.65-.65,1.37-1.22,2.1-1.78,2.6-2.03,5.56-3.65,8.61-4.89l6.74-2.41c3.94-1.58,7.61-3.57,10.99-6.15,2.1-1.61,4.1-3.44,5.62-5.63,3.57-5.13,4.06-11.34,4.69-17.37.47-4.41,1.07-8.99,3.33-12.9,2.36-4.09,6.29-7.06,10.86-8.26Z"/>
    <path class="cls-3" d="M54.97,51.37c.43-.03.95-.04,1.34.17.26.14.46.36.53.65.12.49-.08,1.02-.35,1.42-.56.84-1.52,1.33-2.48,1.55-.43.05-.92.07-1.31-.11-.27-.12-.53-.38-.61-.67-.13-.46.04-1.07.3-1.46.6-.88,1.58-1.33,2.59-1.55Z"/>
    <path class="cls-6" d="M83.3.53c.45-.18.99-.25,1.47-.33,2.45-.4,5.04-.23,7.35.72,2.06.85,3.82,2.29,5.91,3.1.97.34,1.97.69,3,.79h0s-.15.07-.15.07c.21,1.64,1.18,2.54,2.24,3.69.26.28.47.65.76.89l.19.13c.18.14.13.29.14.5.02-.16.02-.28.1-.43h.31s.09.18.09.18c-.08,1.22-.27,2.38-.88,3.46l1.35.08-.18.3v.04s-.53.77-.53.77c-.94,1.45-2.09,2.54-3.59,3.4-1.96,1.12-5.63,1.75-6.49,4.04-.66,2.33-.77,4.8-.75,7.21l.49,7.21.85,8.01c.32,4.41-.05,8.61-.87,12.94-.72,3.81-1.79,7.58-3.28,11.17-.78,1.89-1.73,3.76-2.67,5.57h-.01c-.55.52-.91,1.41-1.33,2.04l-1.93,2.72c-.82,1.1-1.66,2.21-2.58,3.23-.69.78-1.56,1.53-2.15,2.38l-2.28,2.12c-.63.58-1.36,1.32-2.13,1.71-1.14,6.97-4.26,14.46-10.17,18.69-4.07,2.91-10.05,4.2-14.98,3.35-.79-.14-2.61-.49-3.08-1.2-.11-.17-.09-.3-.05-.5.16-.7,1.51-1.49,2.1-1.82.72-.4,1.51-.65,2.31-.87-.44-.02-1.3,0-1.62-.35-.14-.15-.16-.26-.15-.47.02-.2.16-.37.29-.51.74-.84,1.81-1.58,2.72-2.23,2.75-1.99,5.33-3.96,7.59-6.52.74-.84,1.47-1.71,2.03-2.69-.36.02-.8.18-1.16.26l-2.65.5c-2.43.43-4.89.69-7.35.81-3.96.2-7.97.03-11.89-.59l-2.52-.47c-.63-.15-1.35-.41-1.99-.46h-.1c-.08-.31-.26-.6-.36-.9-.1-.28-.13-.58-.17-.87.05-.64.06-1.23.23-1.85,1.65-6.05,8.28-7.16,13.36-8.98,1.92-.69,3.73-1.58,5.5-2.6,2.14-1.25,4.19-2.67,6.17-4.16,3-2.27,5.84-4.77,8.26-7.65,4.12-4.9,7.04-10.62,8.65-16.8.74-2.84,1.18-5.78,1.18-8.72,0-6.66-1.74-13.15-2.04-19.8l-.02-2.99.07-1.26c.01-.18.07-.43.04-.61-.02-.09-.03-.11-.07-.18-.35.33-.7.65-1.02,1-.25.27-.54.78-.83.97.04-.62,1.57-2.06,2.05-2.54.03-1.17.3-2.37.57-3.5.11-.46.35-1.03.36-1.49l-.22-.05c-1.19.19-2.29.48-3.43.88,1.04-.76,2.59-.98,3.82-1.21.19-.63.49-1.25.76-1.85,1.3-2.89,3.18-5.18,5.41-7.39l-.03-.1Z"/>
    <path class="cls-3" d="M103.48,13.79l.35-.49,1.35.08-.18.3-1.52.11Z"/>
    <path class="cls-5" d="M77.16,9.87c.87-.09,1.79-.11,2.67-.03,1.55.14,3.07.54,4.49,1.16.5.22,1.04.44,1.44.82l-2.27-.89c-2.19-.75-4.44-.95-6.73-.73-1.19.19-2.29.48-3.43.88,1.04-.76,2.59-.98,3.82-1.21Z"/>
    <path class="cls-5" d="M82.02,12.18c1.17-.17,2.38-.26,3.54-.02.4.08.8.17,1.17.35-.9-.09-1.82-.25-2.73-.25-.54,0-1.08.09-1.62.11-2.47.44-4.78,1.6-6.52,3.44h0c-.35.33-.7.66-1.02,1.01-.25.27-.54.78-.83.97.04-.62,1.57-2.06,2.05-2.54,1.9-1.5,3.54-2.64,5.97-3.07Z"/>
    <path d="M104.2,10.1c.02-.16.02-.28.1-.43h.31s.09.18.09.18c-.08,1.22-.27,2.38-.88,3.46l-.35.49c-.81.93-1.83,1.67-3.07,1.87-1.07.17-2.16-.1-3.03-.76-.36-.28-1-.78-1.06-1.25l.21-.21c.06,0,.13-.02.19,0,.06.02.23.25.28.3.66.7,1.48,1.25,2.47,1.32,1.27.09,2.23-.5,3.15-1.31.22-.21.41-.4.59-.65.69-.91.87-1.91,1-3.01Z"/>
    <path d="M87.61,5.25c.72-.06,1.4-.02,2.06.3.82.39,1.41,1.07,1.68,1.94l.04.12.03.1c.22.74.03,1.64-.34,2.3-.52.94-1.41,1.45-2.41,1.76-.74.11-1.47.08-2.14-.27-.8-.41-1.39-1.1-1.65-1.97-.25-.84-.12-1.77.31-2.52.55-.96,1.37-1.46,2.41-1.74Z"/>
    <path class="cls-8" d="M88.09,6.58c.14-.02.28-.05.42-.03.22.03.43.2.54.39.09.16.11.44.04.6-.11.27-.28.4-.54.53-.13.02-.26.04-.39.02-.2-.03-.37-.16-.47-.33-.14-.22-.16-.49-.08-.73.08-.24.26-.35.48-.46Z"/>
    <path class="cls-3" d="M93.64,29.14l-.51-.13c-.77-.21-1.55-.55-2.28-.86-3.12-1.34-6.39-3.48-8.11-6.5,2.92,1.52,6.24,1.97,9.44,1.12.48-.13.96-.27,1.42-.48.28-.13.48-.29.79-.36-.66,2.33-.77,4.8-.75,7.21Z"/>
    <path class="cls-2" d="M98.03,4.03c.97.34,1.97.69,3,.79h0s-.15.07-.15.07c.21,1.64,1.18,2.54,2.24,3.69.26.28.47.65.76.89l.19.13c.18.14.13.29.14.5-.13,1.1-.31,2.11-1,3.01-.18.25-.36.44-.59.65-.23-.16-.72-.14-1.01-.21-.44-.1-.85-.23-1.24-.45-.28.05-.61-.08-.88-.16-1.11-.32-2.1-.87-3.14-1.36-.62-.29-1.24-.57-1.89-.79-1-.34-2.04-.49-3.09-.59l1.8-1.17c.8-.57,1.53-1.24,2.2-1.97.92-1,1.69-2.1,2.67-3.05Z"/>
    <path class="cls-3" d="M100.37,13.1c-.84-.68-1.68-1.67-1.8-2.8,0-.08,0-.15.02-.23l.12-.09c.14.03.17.02.25.15.16.26.23.6.38.88.47.92,1.25,1.59,2.24,1.86.52.14,1.08.19,1.62.23-.18.25-.36.44-.59.65-.23-.16-.72-.14-1.01-.21-.44-.1-.85-.23-1.24-.45Z"/>
  </g>
</svg>