<svg width="42" height="80" viewBox="0 0 42 80" fill="none" xmlns="http://www.w3.org/2000/svg">
<g clip-path="url(#clip0_481_5653)">
<path d="M36.1509 25.3711C37.3061 32.0019 43.1627 47.7721 40.4868 57.8282C37.811 67.8844 34.46 41.7576 31.0656 39.7879C27.6712 37.8182 36.1509 25.3711 36.1509 25.3711Z" fill="#1B2E35"/>
<path d="M39.1488 60.3059C37.8883 60.3059 36.7702 56.6328 35.0823 50.5843C33.7909 45.9666 32.3291 40.7325 30.9726 39.9459C30.5514 39.7012 30.2757 39.3048 30.1518 38.7628C29.3218 35.1145 35.7234 25.6685 35.996 25.2659L36.253 24.8911L36.3305 25.3402C36.6154 26.9723 37.1852 29.165 37.848 31.7015C39.8921 39.534 42.6887 50.2622 40.6632 57.8778C40.2235 59.5348 39.7434 60.3059 39.1519 60.309L39.1488 60.3059ZM36.0517 25.8512C34.8532 27.6754 29.8112 35.5852 30.5142 38.6792C30.6133 39.1221 30.827 39.4318 31.1584 39.6238C32.645 40.4879 34.0015 45.341 35.4385 50.4821C36.6773 54.914 38.0803 59.9343 39.1488 59.9343C39.3656 59.9343 39.8085 59.6493 40.3071 57.7756C42.3078 50.256 39.5235 39.5804 37.4919 31.7883C36.8879 29.4686 36.3583 27.4369 36.0517 25.8481V25.8512Z" fill="#1B2E35"/>
<path d="M36.4575 25.8607C37.749 47.3666 34.463 73.673 32.8711 76.9807C32.1495 78.4797 28.9348 77.1479 27.603 76.7019C24.2768 77.2006 16.7881 77.8386 10.4113 77.8386C3.31285 77.8386 -0.2054 77.6713 0.429496 77.2811C1.06439 76.8909 6.14976 75.3145 6.19621 73.4841C6.36345 66.94 3.99111 61.1764 3.72786 46.6141C3.477 32.8446 7.71996 24.0706 10.5507 19.329C14.1371 13.3145 17.2248 11.3169 20.1515 7.27838C23.0783 3.23983 27.9809 -1.48938 31.9668 0.672368C35.5996 2.64519 37.9937 0.142772 41.354 0.929424C41.707 1.01304 41.7566 1.49618 41.4252 1.64794C38.4304 3.02613 33.8746 6.26874 32.7689 9.27289C34.8594 11.351 36.027 18.6724 36.4575 25.8576V25.8607Z" fill="white"/>
<path d="M10.408 77.9654C0.389075 77.9654 0.293066 77.6217 0.234222 77.4172C0.218737 77.3646 0.21564 77.2655 0.361202 77.1788C0.503666 77.0921 0.835051 76.9558 1.29032 76.77C2.82955 76.1444 6.035 74.8436 6.06907 73.484C6.1403 70.644 5.73769 67.9774 5.22667 64.6016C4.5701 60.2534 3.74938 54.8428 3.60072 46.617C3.4118 36.2419 5.65097 27.2945 10.439 19.2639C12.6379 15.5784 14.6231 13.4228 16.5464 11.3385C17.7635 10.0192 18.9126 8.77104 20.0492 7.20393C21.6534 4.99264 27.256 -2.02529 32.0255 0.560754C34.0757 1.67569 35.6924 1.34121 37.4051 0.988147C38.647 0.731092 39.9292 0.467842 41.3817 0.805421C41.5954 0.854974 41.7471 1.02841 41.7688 1.2483C41.7905 1.46819 41.6759 1.6664 41.4777 1.75931C38.5974 3.08795 34.0602 6.27482 32.9143 9.2418C35.4849 11.93 36.3366 21.7353 36.5843 25.8513C37.8603 47.0568 34.6115 73.6574 32.9856 77.0332C32.2918 78.4764 29.6253 77.5411 28.0334 76.9806C27.8723 76.9248 27.7237 76.8722 27.5936 76.8288C24.4253 77.3027 17.0295 77.9623 10.4111 77.9623L10.408 77.9654ZM0.537734 77.3646C0.974418 77.5318 3.13307 77.7146 10.4111 77.7146C17.0357 77.7146 24.4408 77.0518 27.5843 76.5779H27.6153L27.6432 76.5841C27.7825 76.6306 27.9405 76.6863 28.1139 76.7483C29.5293 77.2438 32.1618 78.1698 32.7595 76.9279C34.3792 73.5676 37.6064 47.0382 36.3366 25.8668C35.8225 17.2941 34.4567 11.1248 32.6821 9.36258L32.6263 9.30683L32.6542 9.2325C33.7784 6.17571 38.4302 2.89284 41.3755 1.53633C41.4994 1.48058 41.5334 1.36599 41.5241 1.27617C41.5149 1.18946 41.4591 1.08416 41.329 1.05319C39.9292 0.724897 38.6749 0.98505 37.4577 1.23591C35.7791 1.58278 34.0417 1.94204 31.9109 0.783741C27.3211 -1.70629 21.83 5.18156 20.2567 7.35259C19.1139 8.92899 17.9587 10.1833 16.7353 11.5088C14.8213 13.5839 12.8423 15.7332 10.6589 19.3939C5.89254 27.3843 3.66885 36.2884 3.85468 46.6139C4.00334 54.8211 4.82096 60.2255 5.47753 64.5645C5.99165 67.9526 6.39426 70.6254 6.32303 73.4902C6.28277 75.0139 3.099 76.3085 1.38942 77.0022C1.00539 77.1571 0.692586 77.2841 0.540831 77.3646H0.537734Z" fill="#1B2E35"/>
<path opacity="0.1" d="M32.7685 9.27263C34.859 11.3508 36.0266 18.6722 36.4571 25.8574C36.4571 25.8574 35.463 29.1433 25.7692 27.9788C16.0785 26.8143 14.5083 20.199 14.5083 20.199C14.5083 20.199 15.5892 13.37 32.7685 9.27263Z" fill="#1B2E35"/>
<path opacity="0.1" d="M26.5839 31.6704C30.3345 29.36 35.0327 29.8586 34.7633 32.776C34.4938 35.6904 21.7247 34.6652 26.5839 31.6704Z" fill="#1B2E35"/>
<path d="M10.4079 77.8415C3.30943 77.8415 -0.208818 77.6743 0.426078 77.284C1.06097 76.8938 6.14634 75.3174 6.19279 73.487C6.36003 66.943 3.98769 61.1793 3.72444 46.617C3.47358 32.8475 7.71654 24.0735 10.5473 19.332C14.1336 13.3175 17.2214 11.3199 20.1481 7.28131C23.0748 3.24276 27.9775 -1.48645 31.9634 0.675298C35.5962 2.64812 37.9902 0.145702 41.3505 0.932354C41.7036 1.01597 41.7532 1.49911 41.4218 1.65087C38.4269 3.02906 33.8712 6.27167 32.7655 9.27582C32.7655 9.27582 34.1375 12.3171 27.2404 12.5401C22.378 12.695 18.5624 15.0983 16.2242 19.3629C15.7193 20.2827 15.3879 21.2583 15.23 22.2463C13.3315 34.1018 5.41234 34.8916 5.96671 46.1493C6.52108 57.4071 10.9592 70.5913 9.1288 74.2117C7.29844 77.8322 10.4048 77.8446 10.4048 77.8446L10.4079 77.8415Z" fill="#1B2E35"/>
<path d="M10.408 77.9654C0.389075 77.9654 0.293066 77.6217 0.234222 77.4172C0.218737 77.3646 0.21564 77.2655 0.361202 77.1788C0.503666 77.0921 0.835051 76.9558 1.29032 76.77C2.82955 76.1444 6.035 74.8436 6.06907 73.484C6.1403 70.644 5.73769 67.9774 5.22667 64.6016C4.5701 60.2534 3.74938 54.8428 3.60072 46.617C3.4118 36.2419 5.65097 27.2945 10.439 19.2639C12.6379 15.5784 14.6231 13.4228 16.5464 11.3385C17.7635 10.0192 18.9126 8.77104 20.0492 7.20393C21.6534 4.99264 27.256 -2.02529 32.0255 0.560754C34.0757 1.67569 35.6924 1.34121 37.4051 0.988147C38.647 0.731092 39.9292 0.467842 41.3817 0.805421C41.5954 0.854974 41.7471 1.02841 41.7688 1.2483C41.7905 1.46819 41.6759 1.6664 41.4777 1.75931C38.585 3.09105 34.0293 6.2934 32.9019 9.26967C32.9701 9.45549 33.1683 10.1337 32.7223 10.8461C32.0317 11.9548 30.1889 12.5649 27.2467 12.6578C22.4494 12.8127 18.6772 15.1479 16.3358 19.4156C15.8434 20.3107 15.5151 21.2677 15.3571 22.2587C14.4683 27.8055 12.2167 31.0172 10.2315 33.8479C7.95208 37.0967 5.80273 40.1628 6.09695 46.137C6.34161 51.083 7.33886 56.4192 8.21843 61.1267C9.37363 67.3116 10.2904 72.1987 9.24355 74.2613C8.63963 75.4537 8.51884 76.3643 8.88429 76.962C9.33337 77.6991 10.3988 77.7146 10.408 77.7146V77.9654ZM0.537734 77.3646C0.952739 77.5256 2.92556 77.696 9.37053 77.7146C9.11038 77.5845 8.85332 77.3894 8.6706 77.0951C8.25559 76.42 8.37328 75.4289 9.02057 74.1498C10.0271 72.1615 9.07321 67.07 7.97066 61.1732C7.088 56.4595 6.09075 51.114 5.84608 46.1494C5.54877 40.0915 7.7229 36.9883 10.0271 33.7054C12.0928 30.7601 14.2298 27.7126 15.1094 22.2215C15.2735 21.2026 15.6111 20.2209 16.1159 19.2979C18.5006 14.9497 22.3472 12.568 27.2374 12.4101C30.7867 12.2955 32.0626 11.4283 32.5055 10.7191C32.9484 10.013 32.6635 9.35019 32.6511 9.32232L32.6294 9.27586L32.648 9.22941C33.7722 6.17262 38.424 2.88974 41.3693 1.53323C41.4932 1.47748 41.5272 1.36289 41.518 1.27308C41.5087 1.18636 41.4529 1.08106 41.3228 1.05009C39.923 0.7218 38.6687 0.981953 37.4515 1.23281C35.7729 1.57968 34.0355 1.93894 31.9047 0.780644C27.3149 -1.70939 21.8238 5.17846 20.2505 7.3495C19.1077 8.9259 17.9525 10.1802 16.7291 11.5057C14.8152 13.5808 12.8361 15.7301 10.6527 19.3908C5.88635 27.3812 3.66266 36.2853 3.84848 46.6108C3.99714 54.818 4.81476 60.2224 5.47134 64.5614C5.98545 67.9496 6.38807 70.6223 6.31684 73.4871C6.27657 75.0108 3.0928 76.3054 1.38323 76.9991C0.999195 77.154 0.686392 77.281 0.534637 77.3615L0.537734 77.3646Z" fill="#1B2E35"/>
<path d="M33.4685 74.5988C34.76 75.6302 39.1485 76.1567 40.9882 77.6216C41.1647 77.764 41.047 78.0087 40.8086 78.0056L31.9262 77.8539C29.6437 77.8136 27.5903 76.8101 27.5903 76.8101C27.5903 76.8101 30.6285 72.3287 33.4716 74.5988H33.4685Z" fill="#1B2E35"/>
<path d="M40.8149 78.1324H40.8087L31.9263 77.9806C29.6407 77.9403 27.5564 76.9338 27.5378 76.9245L27.4077 76.8626L27.4882 76.7449C27.5595 76.6396 29.2443 74.1836 31.3255 73.8677C32.1214 73.7469 32.8709 73.9606 33.5523 74.5026C34.1221 74.9579 35.364 75.3264 36.6772 75.7136C38.2598 76.1812 40.053 76.7139 41.0719 77.5253C41.1896 77.6182 41.233 77.7607 41.1865 77.8939C41.1339 78.0363 40.9883 78.1324 40.8211 78.1324H40.8149ZM27.7794 76.7604C28.2687 76.9772 30.0309 77.6988 31.9294 77.7297L40.8118 77.8815C40.8861 77.8815 40.9295 77.8443 40.9449 77.8072C40.9604 77.7669 40.9356 77.7359 40.9109 77.7173C39.9291 76.9369 38.1607 76.4135 36.6029 75.9489C35.2649 75.5525 34.0013 75.1778 33.3943 74.6915C32.7718 74.1929 32.0874 73.9978 31.3627 74.1062C29.6438 74.3663 28.151 76.2555 27.7825 76.7542L27.7794 76.7604Z" fill="#1B2E35"/>
<path d="M22.5326 77.2901C19.9497 75.9832 19.1754 74.1311 17.1623 74.859C15.1493 75.5868 14.9603 76.8968 14.6661 77.7919C14.375 78.6869 16.2456 79.3528 17.3265 79.4364C18.4074 79.52 19.0732 78.978 21.6097 79.6873C24.1462 80.3934 25.9146 79.0059 22.5295 77.2932L22.5326 77.2901Z" fill="#1B2E35"/>
<path d="M22.9045 80.0002C22.5019 80.0002 22.0497 79.9383 21.5789 79.8082C19.8632 79.3313 19.0363 79.4273 18.3085 79.514C17.9802 79.5542 17.6705 79.5883 17.3174 79.5635C16.5091 79.5016 15.103 79.0959 14.6539 78.4207C14.5115 78.207 14.4743 77.984 14.5486 77.758C14.5796 77.6681 14.6075 77.5721 14.6353 77.4761C14.8955 76.609 15.2517 75.4228 17.1192 74.7476C18.485 74.2552 19.3336 74.9118 20.4083 75.7418C21.006 76.2032 21.6842 76.7266 22.5886 77.185C24.0318 77.9159 24.7194 78.6933 24.4778 79.3158C24.3043 79.7618 23.6973 80.0033 22.9014 80.0033L22.9045 80.0002ZM19.2809 79.1919C19.857 79.1919 20.5972 79.2724 21.6471 79.5666C23.0222 79.9507 24.069 79.6874 24.2486 79.2229C24.3942 78.8512 24.0039 78.1761 22.4771 77.4049C21.5511 76.9372 20.8635 76.4045 20.2565 75.9369C19.1632 75.0914 18.4416 74.5339 17.2059 74.9799C15.4561 75.6117 15.134 76.6833 14.8769 77.5443C14.8459 77.6434 14.8181 77.7394 14.7871 77.8323C14.7375 77.984 14.7623 78.1296 14.8645 78.2783C15.2517 78.8574 16.5524 79.2507 17.3422 79.3127C17.6705 79.3375 17.9554 79.3034 18.2837 79.2662C18.5717 79.2322 18.8907 79.195 19.284 79.195L19.2809 79.1919Z" fill="#1B2E35"/>
<path d="M23.8615 12.2707C28.0209 10.9421 21.483 6.20357 18.1041 10.3784C15.0659 14.132 17.1564 15.6403 19.2376 14.4975C21.3158 13.3516 22.7776 12.6176 23.8615 12.2738V12.2707Z" fill="#1680FB"/>
<path d="M40.2572 1.61962C42.1712 1.16745 32.5022 6.38289 30.1577 5.94001C33.3972 5.02328 36.9712 3.08143 40.2572 1.61962Z" fill="#1680FB"/>
<path d="M27.5098 4.61774C27.6182 4.84073 27.8876 4.93054 28.1075 4.82215C28.3305 4.71375 28.4203 4.44431 28.3119 4.22441C28.2035 4.00143 27.9341 3.91161 27.7142 4.02001C27.4912 4.12841 27.4014 4.39785 27.5098 4.61774Z" fill="#1680FB"/>
<path d="M27.77 4.32038C27.7081 4.32038 27.6493 4.28012 27.6276 4.21817C27.6028 4.14075 27.6462 4.05713 27.7236 4.03235C27.7391 4.02616 28.089 3.90227 28.1231 3.49656C28.1293 3.41604 28.2005 3.3541 28.2842 3.36029C28.3647 3.36648 28.4266 3.43772 28.4204 3.52134C28.3709 4.12836 27.8382 4.30799 27.8165 4.31418C27.801 4.32038 27.7855 4.32038 27.77 4.32038Z" fill="#1680FB"/>
<path d="M14.1182 25.709C13.0714 32.3584 16.7042 49.0391 12.1485 58.3953C7.59271 67.7515 9.31777 41.4668 6.36318 38.8839C3.40859 36.2978 14.1182 25.7121 14.1182 25.7121V25.709Z" fill="#1B2E35"/>
<path d="M10.4884 60.5847C10.4481 60.5847 10.4047 60.5816 10.3645 60.5723C9.12565 60.337 8.73233 56.5152 8.2337 50.2499C7.85276 45.4711 7.42227 40.0543 6.2423 39.0199C5.87684 38.7009 5.68173 38.255 5.66624 37.7006C5.55165 33.9624 13.6474 25.9163 13.9911 25.5756L14.3906 25.1792L14.3039 25.7336C13.9447 28.013 14.1398 31.4724 14.3659 35.4769C14.7902 42.9749 15.3167 52.3094 12.3156 58.4694C11.6188 59.9003 11.0334 60.5785 10.4884 60.5785V60.5847ZM13.861 26.2322C12.2227 27.9108 5.93569 34.5633 6.0317 37.6913C6.04408 38.1466 6.19274 38.4903 6.48387 38.7443C7.77843 39.8747 8.17795 44.9012 8.60225 50.222C8.9677 54.8118 9.38271 60.0118 10.4326 60.21C10.6463 60.2502 11.1325 60.0582 11.9811 58.3146C14.9388 52.2382 14.4154 42.9594 13.9942 35.5017C13.7836 31.7821 13.6009 28.5333 13.861 26.2322Z" fill="#1B2E35"/>
</g>
<defs>
<clipPath id="clip0_481_5653">
<rect width="41.5439" height="80" fill="white" transform="translate(0.228027)"/>
</clipPath>
</defs>
</svg>
