<svg width="70" height="70" viewBox="0 0 70 70" fill="none" xmlns="http://www.w3.org/2000/svg">
<g clip-path="url(#clip0_1519_5065)">
<path d="M69.0642 34.1651C68.737 33.2435 67.9536 32.6982 67.1349 32.3295L62.0336 30.3188V10.4452C62.0336 9.63046 61.71 8.84905 61.1338 8.27291C60.5577 7.69678 59.7763 7.37311 58.9615 7.37311H47.2874V2.4577C47.2874 1.80588 47.0285 1.18075 46.5676 0.719844C46.1067 0.258936 45.4815 0 44.8297 0H25.1681C24.5163 0 23.8911 0.258936 23.4302 0.719844C22.9693 1.18075 22.7104 1.80588 22.7104 2.4577V7.37311H11.0363C10.2215 7.37311 9.44011 7.69678 8.86397 8.27291C8.28784 8.84905 7.96417 9.63046 7.96417 10.4452V30.3311L2.88287 32.3372C2.06414 32.7059 1.25771 33.2589 0.928994 34.1805C0.600276 35.1021 0.443597 35.9946 0.775387 37.099L8.617 60.1676H8.77982C14.0209 60.1676 18.6106 57.4934 21.884 53.4366C25.1589 57.4934 29.7456 59.9065 34.9866 59.9065C40.2277 59.9065 44.8174 57.4857 48.0908 53.4289C51.3657 57.4857 55.9524 60.1676 61.1934 60.1676H61.3562L69.2286 37.1006C69.5604 36.1789 69.3929 35.0883 69.0642 34.1651ZM34.9989 19.6616L12.8796 28.3911V12.9029C12.8796 12.74 12.9443 12.5837 13.0595 12.4685C13.1748 12.3532 13.331 12.2885 13.494 12.2885H56.5038C56.6668 12.2885 56.823 12.3532 56.9383 12.4685C57.0535 12.5837 57.1182 12.74 57.1182 12.9029V28.3803L34.9989 19.6616Z" fill="white"/>
<path d="M48.7175 60.1677C40.6916 65.7374 29.3093 65.7359 21.2834 60.1677C21.2834 60.1677 14.2728 69.8449 6.74609 69.8449L8.79367 69.9985C13.3804 69.9985 17.8027 68.1967 21.8978 66.0677C25.9465 68.1666 30.4401 69.2622 35.0005 69.2622C39.5608 69.2622 44.0545 68.1666 48.1031 66.0677C52.1982 68.1982 56.6206 70 61.2073 70L63.2548 69.8464C55.9355 69.8449 48.7175 60.1677 48.7175 60.1677Z" fill="white"/>
</g>
<defs>
<clipPath id="clip0_1519_5065">
<rect width="70" height="70" fill="white"/>
</clipPath>
</defs>
</svg>
