<svg width="512" height="512" version="1.1" xmlns="http://www.w3.org/2000/svg" desc="Created with imagetracer.js version 1.2.6" ><path fill="rgb(0,0,0)" stroke="rgb(0,0,0)" stroke-width="1" opacity="0" d="M 0 0 L 511.5 0 L 512 0.5 L 512 78.5 L 511 78.5 Q 506.7 53.3 489.5 41 L 467.5 30 L 449.5 28 L 448.5 29 L 440.5 29 L 430.5 32 L 414.5 41 L 255 200.5 Q 235.8 222.3 225 252.5 L 218 282.5 L 217 306.5 Q 218.8 315.8 225.5 320 L 235.5 324 L 243.5 324 L 244.5 323 L 255.5 323 L 256.5 322 L 268.5 321 L 295.5 313 Q 316.1 304.6 332.5 292 L 347.5 279 L 496 130.5 Q 507.9 118.9 511.5 99 L 512 512 L 0.5 512 L 0 511.5 L 0 433.5 L 1 433.5 Q 5.1 457.9 21.5 470 Q 35.7 483.3 62.5 484 L 63.5 483 L 75.5 482 L 91.5 475 L 127.5 444 L 336.5 444 L 337.5 443 L 346.5 443 Q 384 436 405 412.5 Q 422.8 394.8 430 366.5 L 432 355.5 L 432 293.5 Q 429.9 286.1 424.5 282 Q 419.4 277.1 408.5 278 Q 400.2 279.7 396 285.5 L 392 293.5 L 392 346.5 L 391 347.5 L 390 358.5 Q 384.4 378.9 369.5 390 L 356.5 398 L 338.5 403 L 115.5 403 L 108.5 406 L 73.5 438 L 63.5 443 L 56.5 443 L 46 438 L 41 429.5 L 40 424.5 L 40 179.5 L 45 159.5 Q 50.2 148.2 58.5 140 Q 70.4 127.9 90.5 124 L 269.5 124 Q 280.4 122.4 285 114.5 Q 289.3 109.4 288 98.5 Q 285.9 91.1 280.5 87 L 272.5 83 L 89.5 83 L 73.5 86 L 51.5 95 Q 34.8 104.3 23 118.5 Q 5.2 137.7 0.5 170 L 0 0 Z M 96 203 L 89 206 Q 83 210 80 218 L 80 229 L 85 238 L 94 243 L 99 244 L 162 244 L 167 243 L 175 238 L 180 229 Q 182 217 177 212 Q 173 205 165 203 L 96 203 Z M 96 283 L 89 286 Q 83 290 80 298 L 80 309 L 85 318 L 94 323 L 99 324 L 162 324 L 167 323 L 175 318 L 180 309 Q 182 297 177 292 Q 173 285 165 283 L 96 283 Z " /><path fill="rgb(0,0,0)" stroke="rgb(0,0,0)" stroke-width="1" opacity="0" d="M 448.5 69 Q 461.5 68.5 467 75.5 Q 472 80.5 472 90.5 L 468 100.5 L 313.5 255 Q 292.9 273.9 260.5 281 L 260 278.5 Q 266.7 249.7 283 230.5 L 438.5 74 L 448.5 69 Z " /><path fill="rgb(0,0,0)" stroke="rgb(0,0,0)" stroke-width="1" opacity="0.6823529411764706" d="M 411.5 44 L 260.5 196 L 411.5 44 Z " /><path fill="rgb(0,0,0)" stroke="rgb(0,0,0)" stroke-width="1" opacity="0.6823529411764706" d="M 492.5 44 L 496.5 49 L 492.5 44 Z " /><path fill="rgb(0,0,0)" stroke="rgb(0,0,0)" stroke-width="1" opacity="0.6823529411764706" d="M 499.5 52 L 500.5 54 L 499.5 52 Z " /><path fill="rgb(0,0,0)" stroke="rgb(0,0,0)" stroke-width="1" opacity="0.6823529411764706" d="M 450.5 68 L 454 68.5 L 450.5 69 L 450.5 68 Z " /><path fill="rgb(0,0,0)" stroke="rgb(0,0,0)" stroke-width="1" opacity="0.6823529411764706" d="M 511.5 81 L 512 84.5 L 511 84.5 L 511.5 81 Z " /><path fill="rgb(0,0,0)" stroke="rgb(0,0,0)" stroke-width="1" opacity="0.6823529411764706" d="M 93.5 83 L 271 83.5 L 93.5 84 L 93.5 83 Z " /><path fill="rgb(0,0,0)" stroke="rgb(0,0,0)" stroke-width="1" opacity="0.6823529411764706" d="M 84.5 84 L 87 84.5 L 84.5 85 L 84.5 84 Z " /><path fill="rgb(0,0,0)" stroke="rgb(0,0,0)" stroke-width="1" opacity="0.6823529411764706" d="M 511.5 93 L 512 95.5 L 511 95.5 L 511.5 93 Z " /><path fill="rgb(0,0,0)" stroke="rgb(0,0,0)" stroke-width="1" opacity="0.6823529411764706" d="M 287.5 100 L 288 105.5 L 287 105.5 L 287.5 100 Z " /><path fill="rgb(0,0,0)" stroke="rgb(0,0,0)" stroke-width="1" opacity="0.6823529411764706" d="M 42.5 101 L 41.5 103 L 42.5 101 Z " /><path fill="rgb(0,0,0)" stroke="rgb(0,0,0)" stroke-width="1" opacity="0.6823529411764706" d="M 467.5 101 L 314.5 255 L 467.5 101 Z " /><path fill="rgb(0,0,0)" stroke="rgb(0,0,0)" stroke-width="1" opacity="0.6823529411764706" d="M 30.5 111 L 27.5 115 L 30.5 111 Z " /><path fill="rgb(0,0,0)" stroke="rgb(0,0,0)" stroke-width="1" opacity="0.6823529411764706" d="M 283.5 115 L 280.5 119 L 283.5 115 Z " /><path fill="rgb(0,0,0)" stroke="rgb(0,0,0)" stroke-width="1" opacity="0.6823529411764706" d="M 22.5 120 L 21.5 122 L 22.5 120 Z " /><path fill="rgb(0,0,0)" stroke="rgb(0,0,0)" stroke-width="1" opacity="0.6823529411764706" d="M 92.5 123 L 95 123.5 L 92.5 124 L 92.5 123 Z " /><path fill="rgb(0,0,0)" stroke="rgb(0,0,0)" stroke-width="1" opacity="0.6823529411764706" d="M 498.5 126 L 497.5 128 L 498.5 126 Z " /><path fill="rgb(0,0,0)" stroke="rgb(0,0,0)" stroke-width="1" opacity="0.6823529411764706" d="M 63.5 135 L 62.5 137 L 63.5 135 Z " /><path fill="rgb(0,0,0)" stroke="rgb(0,0,0)" stroke-width="1" opacity="0.6823529411764706" d="M 0.5 173 L 1 176.5 L 0 176.5 L 0.5 173 Z " /><path fill="rgb(0,0,0)" stroke="rgb(0,0,0)" stroke-width="1" opacity="0.6823529411764706" d="M 40.5 173 L 41 175.5 L 40 175.5 L 40.5 173 Z " /><path fill="rgb(0,0,0)" stroke="rgb(0,0,0)" stroke-width="1" opacity="0.6823529411764706" d="M 254.5 202 L 252.5 205 L 254.5 202 Z " /><path fill="rgb(0,0,0)" stroke="rgb(0,0,0)" stroke-width="1" opacity="0.6823529411764706" d="M 97.5 203 L 163 203.5 L 97.5 204 L 97.5 203 Z " /><path fill="rgb(0,0,0)" stroke="rgb(0,0,0)" stroke-width="1" opacity="0.6823529411764706" d="M 250.5 207 L 249.5 209 L 250.5 207 Z " /><path fill="rgb(0,0,0)" stroke="rgb(0,0,0)" stroke-width="1" opacity="0.6823529411764706" d="M 173.5 208 L 174.5 210 L 173.5 208 Z " /><path fill="rgb(0,0,0)" stroke="rgb(0,0,0)" stroke-width="1" opacity="0.6823529411764706" d="M 284.5 228 L 283.5 230 L 284.5 228 Z " /><path fill="rgb(0,0,0)" stroke="rgb(0,0,0)" stroke-width="1" opacity="0.6823529411764706" d="M 83.5 234 L 84.5 236 L 83.5 234 Z " /><path fill="rgb(0,0,0)" stroke="rgb(0,0,0)" stroke-width="1" opacity="0.6823529411764706" d="M 176.5 234 L 175.5 236 L 176.5 234 Z " /><path fill="rgb(0,0,0)" stroke="rgb(0,0,0)" stroke-width="1" opacity="0.6823529411764706" d="M 310.5 257 L 309.5 259 L 310.5 257 Z " /><path fill="rgb(0,0,0)" stroke="rgb(0,0,0)" stroke-width="1" opacity="0.6823529411764706" d="M 410.5 278 L 414 278.5 L 410.5 279 L 410.5 278 Z " /><path fill="rgb(0,0,0)" stroke="rgb(0,0,0)" stroke-width="1" opacity="0.6823529411764706" d="M 343.5 281 L 340.5 285 L 343.5 281 Z " /><path fill="rgb(0,0,0)" stroke="rgb(0,0,0)" stroke-width="1" opacity="0.6823529411764706" d="M 97.5 283 L 163 283.5 L 97.5 284 L 97.5 283 Z " /><path fill="rgb(0,0,0)" stroke="rgb(0,0,0)" stroke-width="1" opacity="0.6823529411764706" d="M 218.5 285 L 219 287.5 L 218 287.5 L 218.5 285 Z " /><path fill="rgb(0,0,0)" stroke="rgb(0,0,0)" stroke-width="1" opacity="0.6823529411764706" d="M 173.5 288 L 174.5 290 L 173.5 288 Z " /><path fill="rgb(0,0,0)" stroke="rgb(0,0,0)" stroke-width="1" opacity="0.6823529411764706" d="M 335.5 288 L 334.5 290 L 335.5 288 Z " /><path fill="rgb(0,0,0)" stroke="rgb(0,0,0)" stroke-width="1" opacity="0.6823529411764706" d="M 217.5 299 L 218 304.5 L 217 304.5 L 217.5 299 Z " /><path fill="rgb(0,0,0)" stroke="rgb(0,0,0)" stroke-width="1" opacity="0.6823529411764706" d="M 83.5 314 L 84.5 316 L 83.5 314 Z " /><path fill="rgb(0,0,0)" stroke="rgb(0,0,0)" stroke-width="1" opacity="0.6823529411764706" d="M 176.5 314 L 175.5 316 L 176.5 314 Z " /><path fill="rgb(0,0,0)" stroke="rgb(0,0,0)" stroke-width="1" opacity="0.6823529411764706" d="M 222.5 316 L 224.5 319 L 222.5 316 Z " /><path fill="rgb(0,0,0)" stroke="rgb(0,0,0)" stroke-width="1" opacity="0.6823529411764706" d="M 249.5 322 L 253 322.5 L 249.5 323 L 249.5 322 Z " /><path fill="rgb(0,0,0)" stroke="rgb(0,0,0)" stroke-width="1" opacity="0.6823529411764706" d="M 431.5 349 L 432 353.5 L 431 353.5 L 431.5 349 Z " /><path fill="rgb(0,0,0)" stroke="rgb(0,0,0)" stroke-width="1" opacity="0.6823529411764706" d="M 381.5 377 L 380.5 379 L 381.5 377 Z " /><path fill="rgb(0,0,0)" stroke="rgb(0,0,0)" stroke-width="1" opacity="0.6823529411764706" d="M 378.5 381 L 375.5 385 L 378.5 381 Z " /><path fill="rgb(0,0,0)" stroke="rgb(0,0,0)" stroke-width="1" opacity="0.6823529411764706" d="M 373.5 386 L 370.5 390 L 373.5 386 Z " /><path fill="rgb(0,0,0)" stroke="rgb(0,0,0)" stroke-width="1" opacity="0.6823529411764706" d="M 412.5 402 L 411.5 404 L 412.5 402 Z " /><path fill="rgb(0,0,0)" stroke="rgb(0,0,0)" stroke-width="1" opacity="0.6823529411764706" d="M 117.5 403 L 335 403.5 L 117.5 404 L 117.5 403 Z " /><path fill="rgb(0,0,0)" stroke="rgb(0,0,0)" stroke-width="1" opacity="0.6823529411764706" d="M 408.5 407 L 406.5 410 L 408.5 407 Z " /><path fill="rgb(0,0,0)" stroke="rgb(0,0,0)" stroke-width="1" opacity="0.6823529411764706" d="M 106.5 408 L 103.5 412 L 106.5 408 Z " /><path fill="rgb(0,0,0)" stroke="rgb(0,0,0)" stroke-width="1" opacity="0.6823529411764706" d="M 96.5 417 L 94.5 420 L 96.5 417 Z " /><path fill="rgb(0,0,0)" stroke="rgb(0,0,0)" stroke-width="1" opacity="0.6823529411764706" d="M 398.5 417 L 396.5 420 L 398.5 417 Z " /><path fill="rgb(0,0,0)" stroke="rgb(0,0,0)" stroke-width="1" opacity="0.6823529411764706" d="M 392.5 422 L 391.5 424 L 392.5 422 Z " /><path fill="rgb(0,0,0)" stroke="rgb(0,0,0)" stroke-width="1" opacity="0.6823529411764706" d="M 87.5 425 L 84.5 429 L 87.5 425 Z " /><path fill="rgb(0,0,0)" stroke="rgb(0,0,0)" stroke-width="1" opacity="0.6823529411764706" d="M 0.5 428 L 1 430.5 L 0 430.5 L 0.5 428 Z " /><path fill="rgb(0,0,0)" stroke="rgb(0,0,0)" stroke-width="1" opacity="0.6823529411764706" d="M 77.5 434 L 75.5 437 L 77.5 434 Z " /><path fill="rgb(0,0,0)" stroke="rgb(0,0,0)" stroke-width="1" opacity="0.6823529411764706" d="M 341.5 442 L 344 442.5 L 341.5 443 L 341.5 442 Z " /><path fill="rgb(0,0,0)" stroke="rgb(0,0,0)" stroke-width="1" opacity="0.6823529411764706" d="M 58.5 443 L 62 443.5 L 58.5 444 L 58.5 443 Z " /><path fill="rgb(0,0,0)" stroke="rgb(0,0,0)" stroke-width="1" opacity="0.6823529411764706" d="M 121.5 448 L 119.5 451 L 121.5 448 Z " /><path fill="rgb(0,0,0)" stroke="rgb(0,0,0)" stroke-width="1" opacity="0.6823529411764706" d="M 112.5 456 L 109.5 460 L 112.5 456 Z " /><path fill="rgb(0,0,0)" stroke="rgb(0,0,0)" stroke-width="1" opacity="0.6823529411764706" d="M 16.5 464 L 17.5 466 L 16.5 464 Z " /><path fill="rgb(0,0,0)" stroke="rgb(0,0,0)" stroke-width="1" opacity="0.6823529411764706" d="M 102.5 465 L 100.5 468 L 102.5 465 Z " /><path fill="rgb(0,0,0)" stroke="rgb(0,0,0)" stroke-width="1" opacity="0.6823529411764706" d="M 23.5 470 L 24.5 472 L 23.5 470 Z " /><path fill="rgb(0,0,0)" stroke="rgb(0,0,0)" stroke-width="1" opacity="0.6823529411764706" d="M 50.5 482 L 53 482.5 L 50.5 483 L 50.5 482 Z " /><path fill="rgb(0,0,0)" stroke="rgb(0,0,0)" stroke-width="1" opacity="0.9333333333333333" d="M 415.5 41 L 414.5 43 L 415.5 41 Z " /><path fill="rgb(0,0,0)" stroke="rgb(0,0,0)" stroke-width="1" opacity="0.9333333333333333" d="M 488.5 41 L 489.5 43 L 488.5 41 Z " /><path fill="rgb(0,0,0)" stroke="rgb(0,0,0)" stroke-width="1" opacity="0.9333333333333333" d="M 439.5 72 L 286.5 226 L 439.5 72 Z " /><path fill="rgb(0,0,0)" stroke="rgb(0,0,0)" stroke-width="1" opacity="0.9333333333333333" d="M 464.5 72 L 467.5 76 L 464.5 72 Z " /><path fill="rgb(0,0,0)" stroke="rgb(0,0,0)" stroke-width="1" opacity="0.9333333333333333" d="M 511.5 85 L 512 87.5 L 511 87.5 L 511.5 85 Z " /><path fill="rgb(0,0,0)" stroke="rgb(0,0,0)" stroke-width="1" opacity="0.9333333333333333" d="M 279.5 87 L 280.5 89 L 279.5 87 Z " /><path fill="rgb(0,0,0)" stroke="rgb(0,0,0)" stroke-width="1" opacity="0.9333333333333333" d="M 511.5 89 L 512 92.5 L 511 92.5 L 511.5 89 Z " /><path fill="rgb(0,0,0)" stroke="rgb(0,0,0)" stroke-width="1" opacity="0.9333333333333333" d="M 282.5 90 L 283.5 92 L 282.5 90 Z " /><path fill="rgb(0,0,0)" stroke="rgb(0,0,0)" stroke-width="1" opacity="0.9333333333333333" d="M 36.5 106 L 35.5 108 L 36.5 106 Z " /><path fill="rgb(0,0,0)" stroke="rgb(0,0,0)" stroke-width="1" opacity="0.9333333333333333" d="M 24.5 118 L 23.5 120 L 24.5 118 Z " /><path fill="rgb(0,0,0)" stroke="rgb(0,0,0)" stroke-width="1" opacity="0.9333333333333333" d="M 20.5 123 L 19.5 125 L 20.5 123 Z " /><path fill="rgb(0,0,0)" stroke="rgb(0,0,0)" stroke-width="1" opacity="0.9333333333333333" d="M 500.5 123 L 499.5 125 L 500.5 123 Z " /><path fill="rgb(0,0,0)" stroke="rgb(0,0,0)" stroke-width="1" opacity="0.9333333333333333" d="M 496.5 128 L 344.5 281 L 496.5 128 Z " /><path fill="rgb(0,0,0)" stroke="rgb(0,0,0)" stroke-width="1" opacity="0.9333333333333333" d="M 59.5 138 L 54.5 144 L 59.5 138 Z " /><path fill="rgb(0,0,0)" stroke="rgb(0,0,0)" stroke-width="1" opacity="0.9333333333333333" d="M 0.5 177 L 1 181.5 L 0 181.5 L 0.5 177 Z " /><path fill="rgb(0,0,0)" stroke="rgb(0,0,0)" stroke-width="1" opacity="0.9333333333333333" d="M 256.5 200 L 255.5 202 L 256.5 200 Z " /><path fill="rgb(0,0,0)" stroke="rgb(0,0,0)" stroke-width="1" opacity="0.9333333333333333" d="M 84.5 211 L 83.5 213 L 84.5 211 Z " /><path fill="rgb(0,0,0)" stroke="rgb(0,0,0)" stroke-width="1" opacity="0.9333333333333333" d="M 85.5 236 L 87.5 239 L 85.5 236 Z " /><path fill="rgb(0,0,0)" stroke="rgb(0,0,0)" stroke-width="1" opacity="0.9333333333333333" d="M 174.5 236 L 172.5 239 L 174.5 236 Z " /><path fill="rgb(0,0,0)" stroke="rgb(0,0,0)" stroke-width="1" opacity="0.9333333333333333" d="M 313.5 255 L 312.5 257 L 313.5 255 Z " /><path fill="rgb(0,0,0)" stroke="rgb(0,0,0)" stroke-width="1" opacity="0.9333333333333333" d="M 308.5 259 L 307.5 261 L 308.5 259 Z " /><path fill="rgb(0,0,0)" stroke="rgb(0,0,0)" stroke-width="1" opacity="0.9333333333333333" d="M 337.5 286 L 336.5 288 L 337.5 286 Z " /><path fill="rgb(0,0,0)" stroke="rgb(0,0,0)" stroke-width="1" opacity="0.9333333333333333" d="M 332.5 290 L 331.5 292 L 332.5 290 Z " /><path fill="rgb(0,0,0)" stroke="rgb(0,0,0)" stroke-width="1" opacity="0.9333333333333333" d="M 84.5 291 L 83.5 293 L 84.5 291 Z " /><path fill="rgb(0,0,0)" stroke="rgb(0,0,0)" stroke-width="1" opacity="0.9333333333333333" d="M 85.5 316 L 87.5 319 L 85.5 316 Z " /><path fill="rgb(0,0,0)" stroke="rgb(0,0,0)" stroke-width="1" opacity="0.9333333333333333" d="M 174.5 316 L 172.5 319 L 174.5 316 Z " /><path fill="rgb(0,0,0)" stroke="rgb(0,0,0)" stroke-width="1" opacity="0.9333333333333333" d="M 431.5 345 L 432 348.5 L 431 348.5 L 431.5 345 Z " /><path fill="rgb(0,0,0)" stroke="rgb(0,0,0)" stroke-width="1" opacity="0.9333333333333333" d="M 405.5 410 L 399.5 417 L 405.5 410 Z " /><path fill="rgb(0,0,0)" stroke="rgb(0,0,0)" stroke-width="1" opacity="0.9333333333333333" d="M 102.5 412 L 100.5 415 L 102.5 412 Z " /><path fill="rgb(0,0,0)" stroke="rgb(0,0,0)" stroke-width="1" opacity="0.9333333333333333" d="M 93.5 420 L 90.5 424 L 93.5 420 Z " /><path fill="rgb(0,0,0)" stroke="rgb(0,0,0)" stroke-width="1" opacity="0.9333333333333333" d="M 0.5 425 L 1 427.5 L 0 427.5 L 0.5 425 Z " /><path fill="rgb(0,0,0)" stroke="rgb(0,0,0)" stroke-width="1" opacity="0.9333333333333333" d="M 83.5 429 L 81.5 432 L 83.5 429 Z " /><path fill="rgb(0,0,0)" stroke="rgb(0,0,0)" stroke-width="1" opacity="0.9333333333333333" d="M 44.5 436 L 46.5 439 L 44.5 436 Z " /><path fill="rgb(0,0,0)" stroke="rgb(0,0,0)" stroke-width="1" opacity="0.9333333333333333" d="M 74.5 437 L 72.5 440 L 74.5 437 Z " /><path fill="rgb(0,0,0)" stroke="rgb(0,0,0)" stroke-width="1" opacity="0.9333333333333333" d="M 125.5 444 L 122.5 448 L 125.5 444 Z " /><path fill="rgb(0,0,0)" stroke="rgb(0,0,0)" stroke-width="1" opacity="0.9333333333333333" d="M 115.5 453 L 113.5 456 L 115.5 453 Z " /><path fill="rgb(0,0,0)" stroke="rgb(0,0,0)" stroke-width="1" opacity="0.9333333333333333" d="M 13.5 460 L 14.5 462 L 13.5 460 Z " /><path fill="rgb(0,0,0)" stroke="rgb(0,0,0)" stroke-width="1" opacity="0.9333333333333333" d="M 106.5 461 L 103.5 465 L 106.5 461 Z " /><path fill="rgb(0,0,0)" stroke="rgb(0,0,0)" stroke-width="1" opacity="0.9333333333333333" d="M 21.5 468 L 22.5 470 L 21.5 468 Z " /><path fill="rgb(0,0,0)" stroke="rgb(0,0,0)" stroke-width="1" opacity="0.9333333333333333" d="M 97.5 469 L 96.5 471 L 97.5 469 Z " /><path fill="rgb(0,0,0)" stroke="rgb(0,0,0)" stroke-width="1" opacity="1" d="M 446.5 29 L 463.5 30 L 478.5 35 Q 490 41 498 50.5 L 508 67.5 L 511 78.5 L 511 87.5 L 512 88.5 L 511 89.5 L 511 99.5 L 508 109.5 L 499 125.5 L 338.5 286 Q 318.2 303.7 290.5 314 L 263.5 321 L 247.5 322 L 246.5 323 L 234.5 323 Q 226.2 321.3 222 315.5 L 218 307.5 L 218 290.5 L 219 289.5 L 219 281.5 L 222 265.5 L 227 249.5 Q 235.2 227.7 248 210.5 L 257 199.5 L 413.5 43 L 425.5 35 L 446.5 29 Z M 450 68 L 440 72 L 286 226 Q 266 246 259 280 L 260 282 Q 292 275 313 257 L 469 101 L 472 95 Q 474 81 468 76 Q 463 68 450 68 Z " /><path fill="rgb(0,0,0)" stroke="rgb(0,0,0)" stroke-width="1" opacity="1" d="M 88.5 84 L 272.5 84 L 282 89 L 287 98.5 L 287 108.5 Q 284.8 115.3 279.5 119 L 270.5 123 L 91.5 123 Q 67 127.5 54 143.5 Q 43.8 154.8 40 172.5 L 40 429.5 L 46.5 439 Q 51.7 444.3 62.5 444 L 72.5 440 L 107.5 408 L 115.5 404 L 336.5 404 L 347.5 402 L 360.5 397 Q 372.1 390.6 380 380.5 Q 388.8 369.8 392 353.5 L 392 298.5 Q 394.3 297.3 393 292.5 L 399.5 283 Q 404.5 277.5 416.5 279 L 427 285.5 L 431 292.5 Q 429.8 297.3 432 298.5 L 432 344.5 L 431 345.5 L 431 356.5 L 429 367.5 L 423 384.5 Q 412.6 406.6 394.5 421 Q 382.4 430.9 366.5 437 L 352.5 441 L 339.5 442 L 338.5 443 L 127.5 443 L 98.5 469 L 86.5 477 L 71.5 482 L 54.5 483 L 38.5 479 L 28.5 474 L 15 462.5 L 4 444.5 L 0 424.5 L 0 182.5 L 1 181.5 L 2 163.5 L 8 144.5 Q 17.6 122.7 34.5 108 Q 45.4 98.4 59.5 92 L 73.5 87 L 88.5 84 Z " /><path fill="rgb(0,0,0)" stroke="rgb(0,0,0)" stroke-width="1" opacity="1" d="M 95.5 204 L 164.5 204 Q 171.9 206.1 176 211.5 L 179 217.5 Q 177.7 222.3 180 223.5 L 177 233.5 L 170.5 240 L 162.5 243 L 97.5 243 Q 87.5 241 83 233.5 L 80 223.5 Q 82.3 222.3 81 217.5 L 87.5 208 L 95.5 204 Z " /><path fill="rgb(0,0,0)" stroke="rgb(0,0,0)" stroke-width="1" opacity="1" d="M 95.5 284 L 164.5 284 Q 171.9 286.1 176 291.5 L 179 297.5 Q 177.7 302.3 180 303.5 L 177 313.5 L 170.5 320 L 162.5 323 L 97.5 323 Q 87.5 321 83 313.5 L 80 303.5 Q 82.3 302.3 81 297.5 L 87.5 288 L 95.5 284 Z " /><path fill="rgb(0,0,0)" stroke="rgb(0,0,0)" stroke-width="1" opacity="0.2549019607843137" d="M 449.5 28 L 455 28.5 L 449.5 29 L 449.5 28 Z " /><path fill="rgb(0,0,0)" stroke="rgb(0,0,0)" stroke-width="1" opacity="0.2549019607843137" d="M 440.5 29 L 443 29.5 L 440.5 30 L 440.5 29 Z " /><path fill="rgb(0,0,0)" stroke="rgb(0,0,0)" stroke-width="1" opacity="0.2549019607843137" d="M 461.5 29 L 464 29.5 L 461.5 30 L 461.5 29 Z " /><path fill="rgb(0,0,0)" stroke="rgb(0,0,0)" stroke-width="1" opacity="0.2549019607843137" d="M 418.5 38 L 417.5 40 L 418.5 38 Z " /><path fill="rgb(0,0,0)" stroke="rgb(0,0,0)" stroke-width="1" opacity="0.2549019607843137" d="M 414.5 41 L 412.5 44 L 414.5 41 Z " /><path fill="rgb(0,0,0)" stroke="rgb(0,0,0)" stroke-width="1" opacity="0.2549019607843137" d="M 489.5 41 L 491.5 44 L 489.5 41 Z " /><path fill="rgb(0,0,0)" stroke="rgb(0,0,0)" stroke-width="1" opacity="0.2549019607843137" d="M 497.5 49 L 499.5 52 L 497.5 49 Z " /><path fill="rgb(0,0,0)" stroke="rgb(0,0,0)" stroke-width="1" opacity="0.2549019607843137" d="M 440.5 72 L 439.5 74 L 440.5 72 Z " /><path fill="rgb(0,0,0)" stroke="rgb(0,0,0)" stroke-width="1" opacity="0.2549019607843137" d="M 463.5 72 L 464.5 74 L 463.5 72 Z " /><path fill="rgb(0,0,0)" stroke="rgb(0,0,0)" stroke-width="1" opacity="0.2549019607843137" d="M 467.5 76 L 468.5 78 L 467.5 76 Z " /><path fill="rgb(0,0,0)" stroke="rgb(0,0,0)" stroke-width="1" opacity="0.2549019607843137" d="M 89.5 83 L 93 83.5 L 89.5 84 L 89.5 83 Z " /><path fill="rgb(0,0,0)" stroke="rgb(0,0,0)" stroke-width="1" opacity="0.2549019607843137" d="M 280.5 87 L 283.5 91 L 280.5 87 Z " /><path fill="rgb(0,0,0)" stroke="rgb(0,0,0)" stroke-width="1" opacity="0.2549019607843137" d="M 511.5 96 L 512 98.5 L 511 98.5 L 511.5 96 Z " /><path fill="rgb(0,0,0)" stroke="rgb(0,0,0)" stroke-width="1" opacity="0.2549019607843137" d="M 39.5 103 L 38.5 105 L 39.5 103 Z " /><path fill="rgb(0,0,0)" stroke="rgb(0,0,0)" stroke-width="1" opacity="0.2549019607843137" d="M 35.5 106 L 31.5 111 L 35.5 106 Z " /><path fill="rgb(0,0,0)" stroke="rgb(0,0,0)" stroke-width="1" opacity="0.2549019607843137" d="M 26.5 115 L 23.5 119 L 26.5 115 Z " /><path fill="rgb(0,0,0)" stroke="rgb(0,0,0)" stroke-width="1" opacity="0.2549019607843137" d="M 279.5 119 L 278.5 121 L 279.5 119 Z " /><path fill="rgb(0,0,0)" stroke="rgb(0,0,0)" stroke-width="1" opacity="0.2549019607843137" d="M 20.5 122 L 19.5 124 L 20.5 122 Z " /><path fill="rgb(0,0,0)" stroke="rgb(0,0,0)" stroke-width="1" opacity="0.2549019607843137" d="M 95.5 123 L 270 123.5 L 95.5 124 L 95.5 123 Z " /><path fill="rgb(0,0,0)" stroke="rgb(0,0,0)" stroke-width="1" opacity="0.2549019607843137" d="M 500.5 124 L 499.5 126 L 500.5 124 Z " /><path fill="rgb(0,0,0)" stroke="rgb(0,0,0)" stroke-width="1" opacity="0.2549019607843137" d="M 495.5 130 L 347.5 279 L 495.5 130 Z " /><path fill="rgb(0,0,0)" stroke="rgb(0,0,0)" stroke-width="1" opacity="0.2549019607843137" d="M 61.5 137 L 59.5 140 L 61.5 137 Z " /><path fill="rgb(0,0,0)" stroke="rgb(0,0,0)" stroke-width="1" opacity="0.2549019607843137" d="M 56.5 142 L 53.5 146 L 56.5 142 Z " /><path fill="rgb(0,0,0)" stroke="rgb(0,0,0)" stroke-width="1" opacity="0.2549019607843137" d="M 51.5 148 L 50.5 150 L 51.5 148 Z " /><path fill="rgb(0,0,0)" stroke="rgb(0,0,0)" stroke-width="1" opacity="0.2549019607843137" d="M 0.5 170 L 1 172.5 L 0 172.5 L 0.5 170 Z " /><path fill="rgb(0,0,0)" stroke="rgb(0,0,0)" stroke-width="1" opacity="0.2549019607843137" d="M 40.5 176 L 41 178.5 L 40 178.5 L 40.5 176 Z " /><path fill="rgb(0,0,0)" stroke="rgb(0,0,0)" stroke-width="1" opacity="0.2549019607843137" d="M 259.5 196 L 255.5 201 L 259.5 196 Z " /><path fill="rgb(0,0,0)" stroke="rgb(0,0,0)" stroke-width="1" opacity="0.2549019607843137" d="M 88.5 206 L 86.5 209 L 88.5 206 Z " /><path fill="rgb(0,0,0)" stroke="rgb(0,0,0)" stroke-width="1" opacity="0.2549019607843137" d="M 171.5 206 L 172.5 208 L 171.5 206 Z " /><path fill="rgb(0,0,0)" stroke="rgb(0,0,0)" stroke-width="1" opacity="0.2549019607843137" d="M 248.5 209 L 247.5 211 L 248.5 209 Z " /><path fill="rgb(0,0,0)" stroke="rgb(0,0,0)" stroke-width="1" opacity="0.2549019607843137" d="M 84.5 210 L 83.5 212 L 84.5 210 Z " /><path fill="rgb(0,0,0)" stroke="rgb(0,0,0)" stroke-width="1" opacity="0.2549019607843137" d="M 175.5 210 L 176.5 212 L 175.5 210 Z " /><path fill="rgb(0,0,0)" stroke="rgb(0,0,0)" stroke-width="1" opacity="0.2549019607843137" d="M 289.5 223 L 285.5 228 L 289.5 223 Z " /><path fill="rgb(0,0,0)" stroke="rgb(0,0,0)" stroke-width="1" opacity="0.2549019607843137" d="M 282.5 231 L 281.5 233 L 282.5 231 Z " /><path fill="rgb(0,0,0)" stroke="rgb(0,0,0)" stroke-width="1" opacity="0.2549019607843137" d="M 279.5 235 L 278.5 237 L 279.5 235 Z " /><path fill="rgb(0,0,0)" stroke="rgb(0,0,0)" stroke-width="1" opacity="0.2549019607843137" d="M 98.5 243 L 162 243.5 L 98.5 244 L 98.5 243 Z " /><path fill="rgb(0,0,0)" stroke="rgb(0,0,0)" stroke-width="1" opacity="0.2549019607843137" d="M 312.5 255 L 311.5 257 L 312.5 255 Z " /><path fill="rgb(0,0,0)" stroke="rgb(0,0,0)" stroke-width="1" opacity="0.2549019607843137" d="M 307.5 259 L 306.5 261 L 307.5 259 Z " /><path fill="rgb(0,0,0)" stroke="rgb(0,0,0)" stroke-width="1" opacity="0.2549019607843137" d="M 218.5 282 L 219 284.5 L 218 284.5 L 218.5 282 Z " /><path fill="rgb(0,0,0)" stroke="rgb(0,0,0)" stroke-width="1" opacity="0.2549019607843137" d="M 399.5 282 L 396.5 286 L 399.5 282 Z " /><path fill="rgb(0,0,0)" stroke="rgb(0,0,0)" stroke-width="1" opacity="0.2549019607843137" d="M 424.5 282 L 427.5 286 L 424.5 282 Z " /><path fill="rgb(0,0,0)" stroke="rgb(0,0,0)" stroke-width="1" opacity="0.2549019607843137" d="M 339.5 285 L 337.5 288 L 339.5 285 Z " /><path fill="rgb(0,0,0)" stroke="rgb(0,0,0)" stroke-width="1" opacity="0.2549019607843137" d="M 88.5 286 L 86.5 289 L 88.5 286 Z " /><path fill="rgb(0,0,0)" stroke="rgb(0,0,0)" stroke-width="1" opacity="0.2549019607843137" d="M 171.5 286 L 172.5 288 L 171.5 286 Z " /><path fill="rgb(0,0,0)" stroke="rgb(0,0,0)" stroke-width="1" opacity="0.2549019607843137" d="M 84.5 290 L 83.5 292 L 84.5 290 Z " /><path fill="rgb(0,0,0)" stroke="rgb(0,0,0)" stroke-width="1" opacity="0.2549019607843137" d="M 175.5 290 L 176.5 292 L 175.5 290 Z " /><path fill="rgb(0,0,0)" stroke="rgb(0,0,0)" stroke-width="1" opacity="0.2549019607843137" d="M 333.5 290 L 332.5 292 L 333.5 290 Z " /><path fill="rgb(0,0,0)" stroke="rgb(0,0,0)" stroke-width="1" opacity="0.2549019607843137" d="M 217.5 292 L 218 298.5 L 217 298.5 L 217.5 292 Z " /><path fill="rgb(0,0,0)" stroke="rgb(0,0,0)" stroke-width="1" opacity="0.2549019607843137" d="M 326.5 295 L 325.5 297 L 326.5 295 Z " /><path fill="rgb(0,0,0)" stroke="rgb(0,0,0)" stroke-width="1" opacity="0.2549019607843137" d="M 220.5 314 L 221.5 316 L 220.5 314 Z " /><path fill="rgb(0,0,0)" stroke="rgb(0,0,0)" stroke-width="1" opacity="0.2549019607843137" d="M 253.5 322 L 256 322.5 L 253.5 323 L 253.5 322 Z " /><path fill="rgb(0,0,0)" stroke="rgb(0,0,0)" stroke-width="1" opacity="0.2549019607843137" d="M 98.5 323 L 162 323.5 L 98.5 324 L 98.5 323 Z " /><path fill="rgb(0,0,0)" stroke="rgb(0,0,0)" stroke-width="1" opacity="0.2549019607843137" d="M 235.5 323 L 244 323.5 L 235.5 324 L 235.5 323 Z " /><path fill="rgb(0,0,0)" stroke="rgb(0,0,0)" stroke-width="1" opacity="0.2549019607843137" d="M 391.5 347 L 392 350.5 L 391 350.5 L 391.5 347 Z " /><path fill="rgb(0,0,0)" stroke="rgb(0,0,0)" stroke-width="1" opacity="0.2549019607843137" d="M 368.5 390 L 367.5 392 L 368.5 390 Z " /><path fill="rgb(0,0,0)" stroke="rgb(0,0,0)" stroke-width="1" opacity="0.2549019607843137" d="M 410.5 405 L 409.5 407 L 410.5 405 Z " /><path fill="rgb(0,0,0)" stroke="rgb(0,0,0)" stroke-width="1" opacity="0.2549019607843137" d="M 108.5 406 L 107.5 408 L 108.5 406 Z " /><path fill="rgb(0,0,0)" stroke="rgb(0,0,0)" stroke-width="1" opacity="0.2549019607843137" d="M 404.5 412 L 400.5 417 L 404.5 412 Z " /><path fill="rgb(0,0,0)" stroke="rgb(0,0,0)" stroke-width="1" opacity="0.2549019607843137" d="M 100.5 413 L 97.5 417 L 100.5 413 Z " /><path fill="rgb(0,0,0)" stroke="rgb(0,0,0)" stroke-width="1" opacity="0.2549019607843137" d="M 395.5 420 L 394.5 422 L 395.5 420 Z " /><path fill="rgb(0,0,0)" stroke="rgb(0,0,0)" stroke-width="1" opacity="0.2549019607843137" d="M 91.5 421 L 88.5 425 L 91.5 421 Z " /><path fill="rgb(0,0,0)" stroke="rgb(0,0,0)" stroke-width="1" opacity="0.2549019607843137" d="M 40.5 425 L 41 427.5 L 40 427.5 L 40.5 425 Z " /><path fill="rgb(0,0,0)" stroke="rgb(0,0,0)" stroke-width="1" opacity="0.2549019607843137" d="M 81.5 430 L 78.5 434 L 81.5 430 Z " /><path fill="rgb(0,0,0)" stroke="rgb(0,0,0)" stroke-width="1" opacity="0.2549019607843137" d="M 44.5 435 L 45.5 437 L 44.5 435 Z " /><path fill="rgb(0,0,0)" stroke="rgb(0,0,0)" stroke-width="1" opacity="0.2549019607843137" d="M 47.5 438 L 48.5 440 L 47.5 438 Z " /><path fill="rgb(0,0,0)" stroke="rgb(0,0,0)" stroke-width="1" opacity="0.2549019607843137" d="M 72.5 438 L 71.5 440 L 72.5 438 Z " /><path fill="rgb(0,0,0)" stroke="rgb(0,0,0)" stroke-width="1" opacity="0.2549019607843137" d="M 344.5 442 L 347 442.5 L 344.5 443 L 344.5 442 Z " /><path fill="rgb(0,0,0)" stroke="rgb(0,0,0)" stroke-width="1" opacity="0.2549019607843137" d="M 127.5 443 L 337 443.5 L 127.5 444 L 124.5 447 L 127.5 443 Z " /><path fill="rgb(0,0,0)" stroke="rgb(0,0,0)" stroke-width="1" opacity="0.2549019607843137" d="M 118.5 451 L 115.5 455 L 118.5 451 Z " /><path fill="rgb(0,0,0)" stroke="rgb(0,0,0)" stroke-width="1" opacity="0.2549019607843137" d="M 10.5 457 L 11.5 459 L 10.5 457 Z " /><path fill="rgb(0,0,0)" stroke="rgb(0,0,0)" stroke-width="1" opacity="0.2549019607843137" d="M 108.5 460 L 105.5 464 L 108.5 460 Z " /><path fill="rgb(0,0,0)" stroke="rgb(0,0,0)" stroke-width="1" opacity="0.2549019607843137" d="M 13.5 461 L 15.5 464 L 13.5 461 Z " /><path fill="rgb(0,0,0)" stroke="rgb(0,0,0)" stroke-width="1" opacity="0.2549019607843137" d="M 18.5 466 L 21.5 470 L 18.5 466 Z " /><path fill="rgb(0,0,0)" stroke="rgb(0,0,0)" stroke-width="1" opacity="0.2549019607843137" d="M 99.5 468 L 98.5 470 L 99.5 468 Z " /><path fill="rgb(0,0,0)" stroke="rgb(0,0,0)" stroke-width="1" opacity="0.2549019607843137" d="M 69.5 482 L 72 482.5 L 69.5 483 L 69.5 482 Z " /><path fill="rgb(0,0,0)" stroke="rgb(0,0,0)" stroke-width="1" opacity="0.2549019607843137" d="M 56.5 483 L 63 483.5 L 56.5 484 L 56.5 483 Z " /></svg>