<?xml version="1.0" encoding="utf-8"?>
<!-- Generator: Adobe Illustrator 25.4.1, SVG Export Plug-In . SVG Version: 6.00 Build 0)  -->
<svg version="1.1" id="Capa_1" xmlns="http://www.w3.org/2000/svg" xmlns:xlink="http://www.w3.org/1999/xlink" x="0px" y="0px"
	 viewBox="0 0 1080 1350" style="enable-background:new 0 0 1080 1350;" xml:space="preserve">
<style type="text/css">
	.st0{fill:none;stroke:#FFFFFF;stroke-width:2.1147;stroke-miterlimit:10;}
	.st1{fill:none;stroke:#FFFFFF;stroke-width:1.0573;stroke-miterlimit:10;}
	.st2{fill:#F17B0D;}
	.st3{fill:#008080;}
	.st4{fill:#469297;}
	.st5{fill:#005F69;}
	.st6{fill:#9CD3D1;}
	.st7{fill:#BEEAE7;}
	.st8{fill:#0C260D;}
	.st9{fill:#76B5B0;}
	.st10{fill:#0C5364;}
	.st11{fill:#04404A;}
	.st12{fill:#E26B00;}
	.st13{fill:#BE5900;}
	.st14{fill:#55AFC0;}
	.st15{fill:#71B0AB;}
	.st16{opacity:0.57;}
	.st17{fill:#FFFFFF;}
	.st18{opacity:0.36;fill:#76B5B0;}
	.st19{fill:#003148;}
	.st20{fill:#009996;}
	.st21{opacity:0.36;fill:#009996;}
	.st22{fill:#50C8CF;}
	.st23{opacity:0.61;fill:#FFFFFF;}
	.st24{fill:#014757;}
	.st25{fill:#005167;}
	.st26{opacity:0.24;fill:#FFFFFF;}
	.st27{fill:#F6B484;}
	.st28{opacity:0.21;fill:#FFFFFF;}
</style>
<circle class="st0" cx="932.3" cy="618.1" r="18.6"/>
<circle class="st0" cx="1002.4" cy="687.7" r="18.6"/>
<circle class="st1" cx="903.7" cy="669.1" r="9.3"/>
<g>
	<g>
		<path class="st2" d="M360.2,766c0,0-7-1-7-1v-7.6C355.4,760.2,357.7,763,360.2,766z"/>
		<path class="st2" d="M266.9,616.8c-0.4-0.5-0.5-4.2-0.6-6.8c5.1,3.9,11.8,9,15.9,12.7c7.1,6.4,48.6,100.7,56.8,115.1
			c2.4,4.2,7.3,11.1,13.7,19.1l-8.8-1.3l1.2-8.6l-10.5,2.8c0,0,2.2-11.2,2.1-12.2c-0.1-1-9.2,3-10,2.4c-0.8-0.6,3.7-13.8,3.2-14.5
			c-0.5-0.7-14,5.8-14.4,5.5c-0.4-0.3,6.9-15.4,6.5-17.3c-0.4-1.9-10.4,1.6-11.1,0.9c-0.7-0.6,6.9-9.4,7.2-10.5
			c0.3-1.1-15.4,2.5-17.4,0.6c-1.9-1.9,10.5-17.4,10.5-18.8c0-1.4-17.2-2-17.8-2.8c-0.6-0.8,10.4-12.8,10.4-13.8
			c0-0.9-15.7,2.7-16,2.3c-0.3-0.4,6.2-12.8,5.8-14c-0.4-1.1-10.1-2.1-10.6-2.4c-0.4-0.3,4.6-11.3,4.4-12.2
			c-0.2-0.9-6.7-0.6-7.5-1.4c-0.8-0.8,2.6-9.9,2.1-10.8c-0.5-0.8-8.4-1-9.3-1.8c-0.9-0.7,0.5-9.1,0-10.3
			C272.3,617.6,267.5,617.5,266.9,616.8z"/>
	</g>
	<path class="st3" d="M256.8,597.9c-1.7-0.4-2.7-2.1-2.3-3.8c1.4-6,4.6-19,6.8-21.5c2.8-3.3,64.9-4.9,74.7-4.3
		c22.1,1.2,53,25.7,68.1,43.9c15.1,18.1,45.1,79.6,88,113.1s89.5,36.3,118.7,44.7c29.2,8.4,35.2,26.1,103.7,42.3
		S935,862.9,935,910.8c0,47.9-76.3,52.1-113.7,50.2c-37.4-1.9-130.6-38.6-142.9-24.7c-12.3,14,35.6,26.5,46.6,20.9
		c0,0-10.5,12.1-42.9,0.9c-32.4-11.2-23.9-33.5-4.5-40c19.5-6.4,47.3-9.9,100.3,3.3c53,13.2,90.5,7.9,90.7-2.1
		c0.2-9.9-58-18.4-97.8-15.3c-39.8,3.1-191.9-6-259.9-30.2c-68-24.2-77.6-43.3-101.4-59.5c-23.7-16.3-62.1-62.3-70.3-76.8
		c-8.2-14.4-51.2-105.6-58.3-112c-7.1-6.4-20.1-19.8-21.5-21.7c-1.4-2-2.1-6.1-2.1-6.1L256.8,597.9z"/>
	<path class="st4" d="M419.4,788.3c28.8,10.2,45.5,1,81.2,43.8c35.7,42.9,101.3,52.6,129,6.1c23.2-39,48.7-36,56.3-34
		c0.7,0.2,1.5,0.5,2.2,0.7c0,0,0,0,0,0c7.6,2.4,16.3,4.8,26.3,7.2c68.5,16.3,220.6,50.7,220.6,98.6s-76.3,52.1-113.7,50.2
		c-37.4-1.9-130.6-38.6-142.9-24.7c-12.3,14,35.6,26.5,46.6,20.9c0,0-10.5,12.1-42.9,0.9c-32.4-11.2-24-33.5-4.5-40
		c19.5-6.4,47.3-9.9,100.3,3.3c53,13.2,90.5,7.9,90.7-2.1c0.2-9.9-58-18.4-97.8-15.3c-39.8,3.1-191.9-6-259.9-30.2
		s-77.6-43.3-101.4-59.5c-21.7-14.9-55.5-54.6-67.5-72.3C398.4,728.9,392,778.6,419.4,788.3z"/>
	<path class="st5" d="M280.6,625.7c-7.1-6.4-20.1-19.8-21.5-21.7c-0.7-0.9-1.2-2.4-1.6-3.6c7.9,3.2,38.1,16.2,48.9,33
		c12.5,19.4,12.2,30,18.3,47.4c6,17.4,8.8,11.7,22.6,21.4c13.7,9.7,0,18.5,18.4,22.6c18.4,4,9.6,57.7,9.6,57.7
		c0,0.2-0.1,0.5-0.1,0.7c-16.4-17.8-31.5-36.9-36.3-45.3C330.8,723.3,287.8,632.1,280.6,625.7z"/>
	<g>
		<path class="st2" d="M430.5,631.1c0,0,28.6-13.4,47.3-52.3c0,0-28.6,36.5-54.6,42.7c0,0,19.6-36.3,55.6-49.9
			c0,0-31.5,0.5-66.1,39.1c0,0,10.4-35,44-53.2c0,0-22.7,0.5-53.1,39.9c0,0,23.3-26.2,26.6-47.1c0,0-16.4,29.5-34.7,37.5
			c0,0,8.5-19.8,30.3-34.7c0,0-14.8,0.3-39.1,23.9l9.4,19l16.9,23.7L430.5,631.1z"/>
		<path class="st2" d="M506.3,714.8c0,0,37.3-44.7,42.2-70.2c0,0-20.6,39.7-55.4,56.4L506.3,714.8z"/>
		<path class="st2" d="M533.1,726c0,0,13.4-43.9,38.2-66.1c0,0-23.6,10.2-48.3,60.7c0,0,11.8-52.7,46.8-76c0,0-38.3,12.1-58.5,69.2
			l7.5,10.5L533.1,726z"/>
		<path class="st2" d="M560.6,738.8c0,0,26.3-38.5,22.1-68.2c0,0-7.9,37.4-34.6,63.3c0,0,22.5-64.8,40-77.2c0,0-24.5,9-52.1,71.5
			l7.5,12.9L560.6,738.8z"/>
		<path class="st2" d="M627.9,771.9c0,0,10.8-27.3,9-50.4c0,0-3.3,30.9-16.4,44.1c0,0,0.6-32.3,18.9-50.2c0,0-18.7,9-29.4,45.3
			c0,0,1.1-25.7,15.5-45.3c0,0-13.1,2.9-27.1,40.3c0,0,14.9-43.9,14.8-55.5c0,0-12.8,33.7-25,49.8c0,0,6.1-38.6,23.7-57.8
			c0,0-20.1,11.2-35.3,55.5c0,0,4.3-49.3,24.4-66.9c0,0-23.7,6-39.1,59.8l10.2,18.1l32.1,6.9L627.9,771.9z"/>
		<path class="st2" d="M425.8,639c0,0,36.7-42.6,75.5-52.6c0,0-34,13.9-68,62.7c0,0,62.5-53.5,79.5-57.4c0,0-50.7,41.7-71.4,64.3
			c0,0,63.9-36.3,75.6-60.2c0,0,5.6,17-66.5,68.9c0,0,41.4-14.7,65.1-47.6c0,0-4.4,19.4-57.1,58.6c0,0,56.8-44.5,76.6-49
			c0,0-27,14.3-66.6,60.9c0,0,49.2-32.5,64.7-52.5c0,0-12,28.6-55.5,61.6c0,0,49.8-36.5,66.8-64.8c0,0-4.1,25-58,75.8l-10.3-6.3
			L425.8,639z"/>
		<path class="st2" d="M376,572.7c0,0,7.6-14.6,18.9-15.1c0,0-9.8,3.7-16.9,18.1c0,0,21.6-22.6,41-24.4c0,0-21.7,9.3-35.5,29.6
			l-7.3-3.7L376,572.7z"/>
		<path class="st2" d="M629.5,777.7c0.2-6.2,1-16,4.4-26C639.4,735,647,726,647,726s-3.1,5.7-8.6,23.9c-5.5,18.2-2.9,29.5-2.9,29.5
			s0.6-6,6-17.1c5.4-11.1,6-22.2,6-22.2c2.5,8.6-1.8,20.4-4.1,27.6c-2.2,7.2,1.6,17.7,1.6,17.7s0.7-13.9,3.8-19.9
			c3-6,3.7-14.6,3.7-14.6s1.5,9-0.7,16.6c-2.2,7.7,2.1,18.5,2.1,18.5c-0.5-16.1,4.1-21.1,4.1-21.1c-3.8,13.4,1.6,25.4,1.6,25.4
			c3-8.4,0.6-17.4,0.6-17.4c4.4,6.6,6.1,22,6.1,22c2.2-3.1,1.9-9.4,1.9-9.4c2.9,6.4,2.2,12.9,2.2,13
			C651,790.9,640.5,783.6,629.5,777.7z"/>
	</g>
	<path class="st5" d="M609.7,771.1c-29.2-8.4-76.7-11.6-119.6-45.1c-42.9-33.5-72.6-93.6-87.3-112c-17.4-21.7-42.6-43-66.6-45.7
		c-1.3-0.1-0.2-0.1-2.9-0.1h-3.4c0,0,8.9-2.5,11.1-3c16.2-3.7,28-0.5,41.9,7.6c14.6,8.5,59.8,71.5,68,82.7s35.3,40.3,58.1,56.8
		c22.8,16.4,87.4,39.6,102.6,45.9c15.2,6.3,46.8,35.7,54,38.6C640.1,785.6,629.6,776.8,609.7,771.1z"/>
	<path class="st6" d="M257.1,597.9c-1.8-0.4-3-2.3-2.6-4.1c1.5-6.2,4.6-18.7,6.7-21.2c2.9-3.3,65.4-4.9,74.8-4.3
		c0.2,0,0.6,0.1,0.8,0.1c4.5,0.7,33,6.3,39.2,33.9c6.7,30,14.8,75.3-15.8,83.6c-31.9,8.6-43.5-41.9-53.6-52.4
		c-8.6-9-36.9-24-45.1-28.2c-1.8-0.9-3.1-2.5-3.7-4.5C257.3,599.3,257.1,597.9,257.1,597.9L257.1,597.9z"/>
	<ellipse class="st7" cx="353.8" cy="657.6" rx="19.7" ry="20.1"/>
	<path class="st8" d="M262.8,579.9c0,0,0.9-3.9,1.7-3.9c0.8,0,3.6,4.3,1.3,6.6C264.1,584.3,261.9,582.7,262.8,579.9z"/>
	<path class="st9" d="M372,604.9c0,0-5.8-32.3-40.5-30.1c-25.2,1.6-20.5,8.6-20,13c0.5,4.4,5.1,10.1,15.1,12.9
		c11,3.2,22.4-0.4,27.3,16.1c3.9,13.1,14.3,21.1,18.8,12.1C377.1,620,372,604.9,372,604.9z"/>
	<path class="st8" d="M362.5,619.7c0-1.3,0.4-2.5,1.1-3.5c0.9-1.3,2.5-2.6,5.3-1.8c5.1,1.5,5.2,8.6,3.1,12
		C369.9,629.8,362.3,632,362.5,619.7z"/>
	<path class="st10" d="M319.6,581.4c0,0,9.4-6.1,19.8-4.2c3.6,0.6,7,6.1,7,10.4c0,4.3-4.3,8.7-5.8,9.5c-2.2,1.2-8,2.1-13,1.8
		c-5.5-0.4-9.1-3.1-10-6.2C316.7,589.5,315.1,584.3,319.6,581.4z"/>
	<g>
		<ellipse class="st11" cx="330.8" cy="586.7" rx="7.7" ry="7.9"/>
		<ellipse class="st12" cx="330.8" cy="586.7" rx="6.7" ry="6.8"/>
		<path class="st13" d="M324.1,586.7c0,3.7,3,6.8,6.7,6.8s6.7-3,6.7-6.8s-3-6.8-6.7-6.8S324.1,583,324.1,586.7z M325.2,586.7
			c0-3.1,2.5-5.6,5.5-5.6c3.1,0,5.5,2.5,5.5,5.6c0,3.1-2.5,5.6-5.5,5.6C327.7,592.4,325.2,589.9,325.2,586.7z"/>
		<path class="st8" d="M330.6,582.4c1.2,0.7,2.1,2.5,2.1,4.6c0,2.1-0.9,3.9-2.1,4.6c-1.2-0.7-2.1-2.5-2.1-4.6
			C328.5,584.9,329.4,583.1,330.6,582.4z"/>
		<path class="st14" d="M337,584.3c-6.6-1.2-11.5,1.2-12.9,1.9c0.3-3.5,3.1-6.3,6.6-6.3C333.6,580,336,581.8,337,584.3z"/>
		<path class="st6" d="M323.1,585.9c0,0,4.4-2.9,8.6-3.3c4.2-0.4,5.8,0.5,5.8,0.5s-2.3-5-8.2-4C323.5,579.9,323.1,585.9,323.1,585.9
			z"/>
		<path class="st15" d="M329.5,579.8c-4.2,0.7-5.4,4.1-5.7,5.6c-0.4,0.2-0.7,0.4-0.7,0.4s0.4-5.9,6.3-6.9c5.9-1,8.2,4,8.2,4
			s-0.3-0.2-1.1-0.4C335.6,581.4,333.4,579.2,329.5,579.8z"/>
		<g class="st16">
			<path class="st17" d="M331.4,586.2c0,1.2,1,2.2,2.1,2.2c1.2,0,2.1-1,2.1-2.2s-1-2.2-2.1-2.2C332.3,584.1,331.4,585,331.4,586.2z"
				/>
		</g>
		<g class="st16">
			<path class="st17" d="M331.2,590.1c0,0.6,0.5,1.1,1.1,1.1c0.6,0,1.1-0.5,1.1-1.1c0-0.6-0.5-1.1-1.1-1.1
				C331.7,589.1,331.2,589.5,331.2,590.1z"/>
		</g>
	</g>
	<path class="st7" d="M270,576.9c0,0,1.8-3.5,3-3.6c1.1-0.1,3.7,1.4,3.3,3.6c-0.4,2.2-1.4,5.6-3.7,5.1
		C270.4,581.5,269.5,579.3,270,576.9z"/>
	<path class="st7" d="M301.7,586c0,0,1.8-3.5,3-3.6c1.1-0.1,3.7,1.4,3.3,3.6c-0.4,2.2-1.4,5.6-3.7,5.1
		C302.1,590.6,301.1,588.4,301.7,586z"/>
	<path class="st7" d="M275.7,581.4c0,0,0.4-3.9,2.2-3.7c1.8,0.2,4.3,3.3,3.4,5.7c-0.8,2.4-2.5,3.8-3.7,3.7
		C276.6,586.9,275.7,581.8,275.7,581.4z"/>
	<path class="st7" d="M308.5,593.9c0,0,3.1,2.4,1.9,3.9c-1.1,1.5-5,1.9-6.5-0.1c-1.5-2-1.8-4.2-1.1-5.1
		C303.4,591.7,308.1,593.6,308.5,593.9z"/>
	<path class="st7" d="M272.6,584.2c0,0,1.2-0.7,2.2-0.7s1.8,4.1,1.2,4.6c-0.6,0.6-2.4,1.7-3.9,1.3
		C270.6,589.1,270.7,585.9,272.6,584.2z"/>
	<path class="st7" d="M269.3,581.4c0,0,2.2,0.9,2.1,2c-0.1,1.1-0.9,4.1-2.7,3.7C266.8,586.6,266.6,580.2,269.3,581.4z"/>
	<path class="st7" d="M263.2,585.3c0,0,1.9-1.3,3.1-0.6c1.2,0.7,1.8,4.6,0,4.8c-1.8,0.2-3.6,0.4-4.1-0.9
		C261.8,587.4,261.8,586.4,263.2,585.3z"/>
	<path class="st7" d="M260.8,582.6c0,0,1.4,1,1.2,2.2c-0.2,1.3-0.8,2.4-2,2c-1.2-0.4-1.4-2.8-1.2-3.7S260,581.7,260.8,582.6z"/>
	<path class="st7" d="M277,575.3c0,0-0.9-1.9,0-2.5c0.9-0.7,2.6,0.9,2.7,1.3c0.1,0.4,0.5,1.9-0.2,2.7
		C278.8,577.5,277.4,576.1,277,575.3z"/>
	<path class="st7" d="M305.6,580c0,0-1.1-2.4,0-3.3c1.1-0.8,3.3,1.1,3.5,1.7c0.2,0.6,0.7,2.5-0.2,3.4
		C307.9,582.8,306.1,581.1,305.6,580z"/>
	<path class="st7" d="M266.2,576.3c0,0-0.9-1.9,0-2.5c0.9-0.7,2.6,0.9,2.7,1.3c0.1,0.4,0.5,1.9-0.2,2.7
		C268,578.5,266.7,577.1,266.2,576.3z"/>
	<path class="st9" d="M254.4,594.4c2.5-0.4,9.3-1.2,16.6,0.2c9.3,1.7,20.7,11.2,29.4,13c8.7,1.8,22.4-4,30.3-3.2
		c7.9,0.7,11.1,6.5,11.1,6.5c0.4,4.3-6.3,1.6-10.6,0.7c-4.3-0.9-18.1,4-29,4.2c-10.9,0.2-26.1-10.1-33.1-11.4
		c-3.9-0.7-7.6-1.1-10.1-1.2c-0.5-0.7-1-1.5-1.2-2.4c-0.4-1.5-0.7-2.8-0.7-2.8C255.4,597.6,254.4,596.1,254.4,594.4z"/>
	<path class="st8" d="M347.4,614.1c0,0-9.5-8.9-22.6-6.2c-13.1,2.6-21.7,4.7-30.3,1.1c-8.5-3.6-21.9-10-26-10.6
		c-4.1-0.7-8.1,0.4-11.5-0.3l0.2,0.7c0,0,1.6,0.6,3.8,0.5c2.3-0.1,5.4-0.5,7.7,0.1c8.1,2.1,24.9,11.8,32.8,12.6
		c9.4,0.9,19.5-2.8,27.2-3.7C336.9,607.3,346.9,613.2,347.4,614.1z"/>
	<path class="st7" d="M322,601.3c0,0-2.9-1.6-4-1.1s-0.6,2.4,1.2,2.6c1.8,0.2,3.1,0.1,3.2-0.5C322.6,601.7,322,601.3,322,601.3z"/>
	<path class="st7" d="M316.1,598.6c0,0,1.2,0.5,0.8,1.8c-0.4,1.3-5,1-5.5-1C310.9,597.4,312.5,596.1,316.1,598.6z"/>
	<path class="st7" d="M312,602.9c0,0-0.3-1.2,1.3-1.2c1.6,0,3.5,0.8,3.1,1.6C316.1,604.2,312.4,605.3,312,602.9z"/>
	<path class="st7" d="M308.5,600.9c0,0-5.2-1.9-7.2-1.9c-2,0-3.2,2.3-1.8,5c1.4,2.6,9.4,2.2,10.7,0.4
		C311.4,602.5,310,601.4,308.5,600.9z"/>
	<path class="st7" d="M316.4,573c0,0-1.9,3.8-5,3.6c-3.1-0.2-7.6-2.4-7.6-4.2c0-1.8,7.6-2.8,10-2.6C316.3,570,317.8,571.1,316.4,573
		z"/>
	<path class="st7" d="M326.5,571.1c0,0-1.5,2.5-4.5,2.5c-3,0-4.5-3.1-2.1-3.6C322.4,569.6,328,569.6,326.5,571.1z"/>
	<path class="st7" d="M302.7,578.6c0,0,0.1,2.8-1.4,4.5c-1.5,1.7-4.8,2.1-7.1,1c-2.2-1.2-4.3-7.8-1.5-9.3
		C295.6,573.4,303.1,573.2,302.7,578.6z"/>
	<path class="st7" d="M292.6,571.4c0,0,0.6,2.6-1.9,3.6c-2.4,1-5-0.5-4.9-1.9S292.4,569.2,292.6,571.4z"/>
	<path class="st7" d="M289.2,577.7c0,0,1.8,5.2,0.6,6.4c-1.3,1.2-6.6,0.3-7.5-4.1C281.5,575.6,288.2,575,289.2,577.7z"/>
	<path class="st7" d="M284,571.9c0,0,0.6,1.5-0.9,2c-1.5,0.5-3.9-1-3.2-2S283.5,570.6,284,571.9z"/>
	<path class="st7" d="M301.8,571.4c0,0,0.4,1.4-1.9,1.1c-2.3-0.3-3.4-1.4-2.8-2C297.6,570,301.4,569.3,301.8,571.4z"/>
	<path class="st7" d="M295.5,586.7c0,0,3.1-0.6,4.2,0.3c1,0.9,1.7,6-0.3,7.6s-6.9,1.3-7.7-0.2C290.8,592.8,290.3,587.5,295.5,586.7z
		"/>
	<path class="st7" d="M286.5,585.9c0,0,3.4-0.3,4,0.9c0.6,1.2-1.3,6.4-4,5.9c-2.7-0.5-4.1-1.7-4.3-3.6S283.7,585.7,286.5,585.9z"/>
	<path class="st7" d="M301.1,595.7c0,0,0.6,1,0,1.5c-0.6,0.5-2.3,0.7-2.8,0C297.8,596.6,300.5,594.6,301.1,595.7z"/>
	<path class="st7" d="M293.9,597.2c0,0,3.4,0.6,3.7,2c0.3,1.4-0.8,3.5-3.3,3.1c-2.6-0.3-7.1-2.3-7.2-3.7
		C287,597.4,289.4,596.1,293.9,597.2z"/>
	<path class="st7" d="M284.6,593.5c0,0,2.1,0.8,1.8,2.2c-0.3,1.4-2.3,2.7-3.5,2C281.8,596.9,280.2,592.3,284.6,593.5z"/>
	<path class="st7" d="M279.8,588.4c0,0,2,2,1.5,3.4s-3.7,1.3-4.4,0.2s-0.8-3.3,0-3.6C277.7,588.1,278.6,587.7,279.8,588.4z"/>
	<path class="st7" d="M274.8,590.7c0,0,1,1.5-0.5,2.1c-1.5,0.7-3.2,0-3.4-0.5C270.7,591.8,273.5,589.6,274.8,590.7z"/>
	<path class="st7" d="M270.1,588.8c0,0,0.8,1.5-0.2,2.4c-1,0.9-2.5,0.7-2.6,0C267.1,590.5,269,587.2,270.1,588.8z"/>
	<path class="st7" d="M259.2,588c0,0,2,1.3,1.7,2.1s-1.8,3.4-3.3,2.3C256,591.3,258,587,259.2,588z"/>
	<path class="st7" d="M268.8,607.6c0,0-3.3-0.7-3-1.8c0.2-1.1,5.9,0,6.4,1.3C272.8,608.3,269.3,607.7,268.8,607.6z"/>
	<path class="st7" d="M278.1,612.3c0,0-2.7-1.7-2.1-2.6c0.5-0.9,4.1,0,4.6,0.5c0.5,0.5,1,1.9,0.5,2.5
		C280.6,613.3,278.9,612.8,278.1,612.3z"/>
	<path class="st7" d="M284.5,613.7c0,0-1-0.7-0.8-1.6s3.9,0.6,3.7,1.6C287.1,614.7,285,614.3,284.5,613.7z"/>
	<path class="st7" d="M287.1,617.8c0,0-1.6-0.9-1.2-1.9s4-0.3,5.2,0.9C292.3,618.1,291.2,619.7,287.1,617.8z"/>
	<path class="st7" d="M332.3,637.5c0,0,2.5,2.4,0,7.8c-2.5,5.4-8,7.4-14-2.2c-6.1-9.5-3.1-13.5,0.3-13.1
		C322.1,630.4,326.7,630.4,332.3,637.5z"/>
	<path class="st7" d="M344.4,632.9c0,0-2.8,5.3-8,4.3c-5.1-1-14.6-10.9-9.7-13.7C331.5,620.6,348.7,624.7,344.4,632.9z"/>
	<path class="st7" d="M322.5,651.2c0.6,0,6.7,0.4,7.1,4c0.4,3.6-1.4,6.4-4.6,5.4C321.6,659.7,317,651,322.5,651.2z"/>
	<path class="st7" d="M313,628.4c0,0,1.1,4.2-1.6,5.2c-2.7,1-12.5-7.2-10.4-9.6C303.1,621.5,311.2,623.3,313,628.4z"/>
	<path class="st7" d="M322.5,622.1c0,0,2.1,2.9-1.7,4.7c-3.8,1.8-10.9-3.7-10.7-6S318.7,617.7,322.5,622.1z"/>
	<path class="st7" d="M331.4,617.5c0,0-1.5,3.7-4.4,3.6c-2.9-0.2-9.5-3.8-7.6-5.3C321.3,614.2,333.7,612.3,331.4,617.5z"/>
	<path class="st7" d="M345.1,617.9c0,0,0.8,3.2-1.8,3.7c-2.6,0.6-9-2.9-8.1-5.1C336.2,614.3,345.1,614.7,345.1,617.9z"/>
	<path class="st7" d="M348.7,630c0,0-3.7-6.4-1.2-8c2.4-1.6,10.4,7.2,7.6,9.5C351.2,634.5,348.7,630,348.7,630z"/>
	<path class="st7" d="M304.3,617.6c0,0,3.3-0.3,3.3,1.1c0,1.5-3.9,3.9-7.4,2.4C296.7,619.5,298.1,617.6,304.3,617.6z"/>
	<path class="st7" d="M298.7,622c0,0,0.4,1.8-1.7,1.5c-2.1-0.3-4.7-2.7-3.8-3.7C294,618.8,298.7,620.6,298.7,622z"/>
	<path class="st7" d="M296.4,616.8c0,0-0.7,1.5-2.4,0.7c-1.7-0.8-3.2-2.5-2-2.4C293.2,615.1,297.1,616.1,296.4,616.8z"/>
	<path class="st18" d="M380,601.7c0,0-1.8-5.8,0-6.1s8,6.7,5.3,8.2C382.7,605.2,380.6,603.9,380,601.7z"/>
	<path class="st18" d="M381.9,612.7c0,0-2.1-5.2,0.7-5.1s7.2,6.1,4.7,8.5C384.9,618.4,382.1,613.3,381.9,612.7z"/>
	<path class="st18" d="M391.1,650.5c0,0-0.6-7,2.7-5.9s6.4,10,2.6,11.9C392.6,658.5,391.1,651.4,391.1,650.5z"/>
	<path class="st18" d="M383.9,639.3c0,0-0.4-5.6,2.2-4.7c2.6,0.9,5,8,2,9.5C385,645.6,383.9,640,383.9,639.3z"/>
	<path class="st18" d="M387.8,607.4c0,0-0.2-1.7,2-1.5c2.2,0.2,5,6,1.6,6.2C388.1,612.4,387.8,607.4,387.8,607.4z"/>
	<path class="st18" d="M391.2,636.3c0,0-0.2-1.7,2-1.5c2.2,0.2,5,6,1.6,6.2C391.5,641.3,391.2,636.3,391.2,636.3z"/>
	<path class="st18" d="M392.7,618.7c0,0-1.1-3.2,1.5-3.7c2.6-0.5,7.3,5.9,4.5,8.3C396,625.7,392.9,620,392.7,618.7z"/>
	<path class="st18" d="M383.6,623.1c0,0,0.2-3.5,3.7-2.6c3.5,0.9,6.5,9.5,2.4,10.6C385.6,632.3,383.2,626.7,383.6,623.1z"/>
	<path class="st18" d="M398.2,638.8c0,0,0.2-3.5,3.7-2.6c3.5,0.9,6.5,9.5,2.4,10.6C400.2,648,397.8,642.3,398.2,638.8z"/>
	<path class="st18" d="M393.9,628.4c0,0-0.5-2.5,2.2-2.5c2.7,0,5.4,5.1,2.7,6.6C396.1,634,394.4,630.8,393.9,628.4z"/>
	<path class="st18" d="M401.9,629c0,0-0.5-2.5,2.2-2.5c2.7,0,5.4,5.1,2.7,6.6C404.2,634.6,402.5,631.4,401.9,629z"/>
	<g>
		<path class="st19" d="M846.8,944.8c-1.9-6.5-7.1-12-10.8-15.3c12.9-0.1,22.6-1.8,27.9-4.5c4.6,1.6,11.1,5.6,15.1,15.2
			c3.2,7.7,0.3,13.9-3.7,18.2c-11.8,2-24,2.8-34.9,3C844.3,957.4,848.7,951.2,846.8,944.8z"/>
		<path class="st19" d="M762.9,918.2c4.7,1,9.7,2.1,14.9,3.4c4.1,1,8.2,2,12.1,2.8c0.7,4,1.1,10.3-1.1,17.7
			c-1.8,6.2-4.2,9.8-6.2,11.8c-8.2-2-16.7-4.3-25.3-6.6C760.7,941.6,766.8,928.8,762.9,918.2z"/>
		<path class="st19" d="M710.6,912.7c2.4,3.7,4.6,10.8,0.2,23.2c-6.8-1.3-13-2.2-18.1-2.5c1.5-4.3,3.8-12.7,0.9-19
			C698.7,913.5,704.3,912.9,710.6,912.7z"/>
		<path class="st19" d="M871.7,886.9c-7.1,7.2-9.2,19.4-9.8,26.9c-4.1-1.8-9.8-3.4-16.5-4.8c-3-5.3-6.3-14.8-4.3-28.8
			c2.3-15.8,15.7-22.4,24-25c15.7,6.2,29.9,12.8,41.4,19.9C896.9,875.4,881.1,877.3,871.7,886.9z"/>
		<path class="st19" d="M923.3,938.4c-2.1,1.9-3.8,3.2-4.2,3.6c0,0-0.1,0.1-0.1,0.1c0.1-0.4,6.2-29-17.4-37.3
			c-22.6-7.9-33,14.8-33,14.8s-1.4-28.9,29.4-32.7c19.3-2.4,30.7,9.5,36.4,18.7c0.4,1.7,0.6,3.5,0.6,5.3
			C935,922.4,930.5,931.4,923.3,938.4z"/>
		<path class="st19" d="M803.4,869.4c-1.6,14.5,4.3,28.1,8.1,35.1c-11.7-0.9-23.9-1.1-35-0.6c-6-7.6-15.3-22.7-14.7-42.9
			c0.6-18.7,10-28.4,16.9-33c15,3.9,30.6,8.3,45.8,13.1C817.3,845.4,805,854.8,803.4,869.4z"/>
		<path class="st19" d="M654.4,851.5c7.2-30.9,26.3-42.4,34.8-46.1c7.3,2.3,15.7,4.6,25.2,6.9c4.9,1.2,10.2,2.4,15.9,3.8
			c-9.9,4.7-23.4,15.2-26,38.1c-3.1,27.9,10.1,44,16.6,50.1c-16.1-0.6-34.4-1.7-53.5-3.3C658.7,891.9,648.7,875.8,654.4,851.5z"/>
	</g>
	<path class="st20" d="M384.5,792.7l3.6-70.3l9.9-15.3c0,0,21.9,61.5,21.5,81.2c-0.2,9.4-2.2,21-4.3,30.4c-1.8-1.4-3.8-2.8-5.8-4.2
		C402,809.5,393.3,801.6,384.5,792.7z"/>
	<path class="st21" d="M554.1,770.3c0,0-61.7-10.2-87.4-47.7c-25.7-37.5-36.3-38-43.2-24c-6.9,14,6.4,77.3,83.1,94.9
		c76.7,17.7,93-3.4,85.9-12.7C585.4,771.5,565.9,772.9,554.1,770.3z"/>
	<path class="st22" d="M717.6,928.1c51.1,6.8,66.2,33.5,150.9,25.7c32.4-3,50.5-12.2,60.5-22.4c-18.7,28.5-76.6,31.1-107.8,29.6
		c-37.4-1.9-130.6-38.6-142.9-24.7c-2,2.3-2.4,4.6-1.6,6.8C676.7,943.1,666.4,921.3,717.6,928.1z"/>
	<path class="st20" d="M586.8,855.7c58.5,29.3,216.1,35.5,251.5,41.5c45.4,7.6,30.3,22.4,30.3,22.4c0.2-9.9-58.1-18.4-97.8-15.3
		c-36,2.8-164.2-4.4-238.6-23.7C527.2,851.8,546.5,835.5,586.8,855.7z"/>
	<g>
		<path class="st3" d="M560.8,869.7c0,0,27.4-0.6,36.5-21.5c9.1-20.9-11.6-35.4-32.7-35.8c-21.1-0.4-56.6,13.4-86.7,32.5
			c-30,19-28.3,42.5,42.6,44.9c0,0-10.6,3.7-21.9,4.5c-11.4,0.8-23.3,2.7-25.4,6.2c-2,3.5-0.2,7.4-0.2,7.4s-15.2,3.9-20.7,8.5
			c-5.5,4.5-5.9,17,4.7,18.6c0,0-4.9-3.5-3.2-8.3c1.6-4.8,2.4-2.5,6.3-3.5c3.9-1,17.5-10.1,30.6-11.2c0,0-24.2,15.9-28,27.9
			c-3.9,12,5.1,18,11.2,15.9c0,0-5.9-0.6-6.5-7.9c0,0,5.3-1.7,6.3-5s4.9-12.8,12.6-16.3c7.7-3.5,20.7-7.4,24.6-10.5
			c0,0-2.8,13.6,12.2,15.5c0,0-5.5-3.9-4.3-10.1c1.2-6.2,3.9-5.8,11-6.8c7.1-1,8.7-8.1,18.5-9.1c9.7-1,22.7-0.2,30.9-4.3
			c8.1-4.1,10.8-12,7.7-14.9C583.8,883.6,568.3,872.6,560.8,869.7z"/>
		<path class="st23" d="M560.8,869.7c7.5,2.9,22.9,13.9,26,16.7c0,0-62.9-29-97.6-29.9C489.2,856.5,514.1,850.7,560.8,869.7z"/>
		<path class="st23" d="M567.6,818.7c0,0-24.7-7.4-67,13.4s-40.8,33.4-40.8,33.4S500.6,824.2,567.6,818.7z"/>
		<path class="st20" d="M473.1,934.1c1.8-4.1,1.5-7.1,0.9-8.8c7.9-7.3,16.8-13.2,16.8-13.2c-13.2,1-26.8,10.1-30.6,11.2
			c-3.9,1-4.7-1.2-6.3,3.5c-1.6,4.8,3.2,8.3,3.2,8.3c-5.8-0.9-8.2-5-8.4-9.3c1.1-5.3,6.1-3.2,13.8-6.8c6.9-3.3,7.5-7.8,7.3-10.1
			c2-0.6,3.4-1,3.4-1s-1.8-3.9,0.2-7.4c2-3.5,14-5.4,25.4-6.2c11.4-0.8,21.9-4.5,21.9-4.5s28.7,1.6,42.3-1.3c0,0-2.8,7.4-13.2,8.7
			c-10.4,1.3-28.6,1.9-31.5,7c-1.8,3.2-2.1,4-2.1,4.2c-0.7,0.4-5.3,2.8-5.2,7.9c-3.9,3.1-16.8,7-24.6,10.5
			c-7.7,3.5-11.6,13-12.6,16.3c-1,3.3-6.3,5-6.3,5c0.6,7.2,6.5,7.9,6.5,7.9c-2.7,0.9-5.9,0.3-8.3-1.8
			C461.5,941.5,470.2,940.7,473.1,934.1z"/>
	</g>
	<g>
		<path class="st24" d="M388.4,684.4c0,0-5.2,11.3-14.9,19c-10.9,8.7-10.4,16.4-9.3,20.2c0,0,4.3-11.3,13.4-16.5
			C386.5,701.9,389.2,689.8,388.4,684.4z"/>
		<path class="st25" d="M330.2,888c0,0-0.3,6.5-15.7,3.4c-15.4-3.1-31.7-8.3-39.6-5.8c-7.9,2.5-11.6,11-9.3,19.2
			c0,0,2.8-14.3,11.2-13.7c8.3,0.6,37.2,14.1,49.7,12.2C339,901.5,341,891.1,330.2,888z"/>
		<path class="st3" d="M289.9,891.6c9.7-2.3,34.5,5.9,39.7-1.4c0.1-0.1,0.1-0.2,0.2-0.3v-0.2c1.1-4,3.3-30.9,6.5-39.2
			c3.3-8.8,21.6-47.8,24.1-55.8c2.4-8.1,5.5-51.2,5.5-51.2s-3.8-5-4.3-6.5c-0.5-1.6,2.9-10.2,2.9-10.2c-1.7-5.9,2.1-13.5,12.5-22.6
			c10.4-9.1,11.4-19.7,11.4-19.7c1.8,4.7,0,10.5,0,10.5c3.5,0.6,8.8,5.7,9.6,12.1c0.8,6.4-0.6,74-0.9,80c-0.3,6,0.2,26.5-18.3,67.8
			c-18.4,41.3-24.1,47.3-27.9,48.2c-3.8,0.9-6.5-0.9-10.4-1.6c-0.9-0.1-1.9,0-2.9,0.2c-0.6,0.3-6.2,3.6-13.7,3
			c-7.8-0.6-17.3-6.7-29.5-7c-12.2-0.2-11.8,7-11.8,7S280.2,893.9,289.9,891.6z"/>
		<path class="st24" d="M386.4,708.2c0,0-0.5,4.7-9.6,8.4s-12.3,10.2-12.3,10.2s3.3-9.4,11-11.6
			C383.1,712.9,386.4,708.2,386.4,708.2z"/>
		<path class="st26" d="M368.7,756.9c0,0-0.2-25.2,8.8-27.2c4.4-1,8.8,49.1,0,68.9s-21.9,40.1-25.8,57.1c-4,17-11.3,35.9-14,32.8
			c-2.7-3.1-1-28.8,4.2-39.4c5.2-10.5,29.9-48.4,29.6-58.3S368.4,765.9,368.7,756.9z"/>
		<path class="st24" d="M282.7,904.1c0,0-0.9-8.1,12-8.7c12.9-0.6,24.8,8.6,33.2,8.2c8.4-0.4,8.1-5.2,11.8-6.4
			c3.7-1.2,5.5,2.5,10.1,3.1c4.7,0.6,14-18.3,15.9-21.9c1.9-3.6,4.7-5.4,4.7-5.4c-12,25.1-16.4,29.4-19.5,30.1
			c-3.8,0.9-6.5-0.9-10.4-1.6c-0.9-0.1-1.9,0-2.9,0.2c-0.6,0.3-6.2,3.6-13.7,3c-7.8-0.6-17.3-6.7-29.5-7
			C284.5,897.6,282.9,902.3,282.7,904.1z"/>
	</g>
	<g>
		<path class="st27" d="M433.3,649.1c0.1-0.2,0.2-0.3,0.3-0.4l0.1,0.1C433.4,649,433.3,649.1,433.3,649.1z"/>
		<g>
			<path class="st27" d="M661,780.4c-0.1-4.2-0.9-7.3-0.9-7.3c1.8,2.7,3.1,6.8,4.1,10.8C663.1,782.8,662,781.6,661,780.4z"/>
			<path class="st27" d="M654.7,773c1.2-5.9,3.1-8,3.1-8c-1,3.6-1.3,7-1.3,10.2C655.9,774.5,655.3,773.7,654.7,773z"/>
			<path class="st27" d="M652.3,751c0,0,1.5,9-0.7,16.6c-0.1,0.4-0.2,0.8-0.3,1.2c-0.9-1.1-1.7-2.3-2.6-3.4
				C651.7,759.4,652.3,751,652.3,751z"/>
			<path class="st27" d="M611.9,692.2c-5.9,6.4-10.5,15-14,23.6c-1.6-1-3.2-2-4.8-3C603.3,697,611.9,692.2,611.9,692.2z"/>
			<path class="st27" d="M639.3,715.4c-6.1,5.9-10.2,13.4-13,20.8c-1.3-1.1-2.6-2.3-4.1-3.4C631,719.4,639.3,715.4,639.3,715.4z"/>
			<path class="st27" d="M645.4,760.9c-0.7-1-1.4-2-2.1-3.1c3.6-9.4,4-17.7,4-17.7C649.2,746.3,647.4,754.2,645.4,760.9z"/>
			<path class="st27" d="M613.1,700.2c0.1,4.3-2,13.2-4.6,22.5c-1.3-0.9-2.6-1.7-3.9-2.6C609.7,709.3,613.1,700.2,613.1,700.2z"/>
			<path class="st27" d="M582.7,670.6c1.4,9.6-0.4,20.2-3.5,30c11.5-17.2,21.8-19.8,21.8-19.8c-7.1,6.3-12.3,16.5-15.9,27.1
				c-4.3-2.6-8.7-5.2-13.1-7.8C579.9,683.9,582.7,670.6,582.7,670.6z"/>
			<path class="st27" d="M588.2,656.7c-8,5.7-17,22.2-24.5,38.6c-2.6-1.5-5.2-3.1-7.8-4.6C574.4,661.7,588.2,656.7,588.2,656.7z"/>
			<path class="st27" d="M625.5,715.4c-3.3,4.4-5.8,9.1-7.9,13.8c-1.4-1-2.8-2-4.2-3.1C620.5,716.5,625.5,715.4,625.5,715.4z"/>
			<path class="st27" d="M638.3,749.9c-0.7-1.2-1.6-2.4-2.5-3.7C641,733.1,647,726,647,726S643.8,731.7,638.3,749.9z"/>
			<path class="st27" d="M669.5,789.6c-0.5-0.5-0.9-1-1.4-1.5c0.1-1.4,0-2.4,0-2.4C668.7,787,669.1,788.3,669.5,789.6z"/>
			<path class="st27" d="M635.3,745.4c-0.8-1.1-1.7-2.1-2.7-3.2c3.3-11,4.4-20.8,4.4-20.8C637.5,729.4,636.7,737.8,635.3,745.4z"/>
		</g>
		<g>
			<path class="st27" d="M538.8,680.1c-3.6-2.3-7.2-4.6-10.6-7c13-14.8,20.2-28.6,20.2-28.6c-1.1,5.9-4,12.9-7.7,20
				c15.3-15.7,29-20,29-20C556.2,653.6,546.1,667,538.8,680.1z"/>
			<path class="st27" d="M544.5,631.8c0,0-2,12.4-22,37.3c-2.2-1.6-4.3-3.2-6.3-4.7C527.4,653.9,538.2,642.3,544.5,631.8z"/>
			<path class="st27" d="M571.3,659.9c-8.3,7.5-15.4,17.4-21.1,27.3c-1.7-1-3.4-2.1-5-3.1C560.1,664.7,571.3,659.9,571.3,659.9z"/>
			<path class="st27" d="M515.5,617c0,0-2,8.8-19.5,26.6c-0.9-1.2-1.8-2.4-2.6-3.7C501.3,633.6,509,625.9,515.5,617z"/>
			<path class="st27" d="M533.1,635c0,0-4.7,11.2-18.9,27.7c-1.9-1.6-3.7-3.1-5.4-4.7C518.6,650.1,527.9,641.9,533.1,635z"/>
			<path class="st27" d="M479.9,619.7c-1.2-1.7-2.4-3.5-3.6-5.2c14.8-11.2,29.5-21.2,36.5-22.8C512.7,591.7,497.2,604.4,479.9,619.7
				z"/>
			<path class="st27" d="M516.9,595.7c0,0,3.3,10-27.7,38.1c-1.4-2.1-2.8-4.2-4.2-6.3C499.1,617,512.2,605.3,516.9,595.7z"/>
			<path class="st27" d="M502.5,651.7c-0.4-0.5-0.8-0.9-1.2-1.4c-1-1.2-2-2.4-3-3.7c14.1-9.5,28.6-18.2,36.7-20
				C535,626.6,522.7,633.1,502.5,651.7z"/>
		</g>
		<g>
			<path class="st27" d="M434.6,574.4c-2-1.1-4.1-2.1-6.2-3.1c17.1-13.7,28.3-13.9,28.3-13.9C447.8,562.2,440.5,568.2,434.6,574.4z"
				/>
			<path class="st27" d="M430.2,550.1c-1,6.2-3.7,12.8-7,19.1c-1.6-0.6-3.1-1.1-4.8-1.6C425.5,558.5,430.2,550.1,430.2,550.1z"/>
			<path class="st27" d="M501.2,586.4c0,0-12.8,5.2-30.5,20.5c-1.1-1.5-2.3-2.9-3.5-4.4C477.8,595.5,489.4,589.4,501.2,586.4z"/>
			<path class="st27" d="M411,565.5c-2.9-0.7-5.9-1.2-9-1.7c15-10.7,23.7-10.9,23.7-10.9C419.9,556.9,415,561.3,411,565.5z"/>
			<path class="st27" d="M465.2,599.9c-1.1-1.2-2.1-2.5-3.2-3.7c9.5-9.3,15.9-17.4,15.9-17.4C473.9,586.9,469.6,593.9,465.2,599.9z"
				/>
			<path class="st27" d="M452.5,586.9c-1.8-1.6-3.7-3.1-5.7-4.6c18.7-10.6,31.9-10.8,31.9-10.8C468.7,575.3,460,580.9,452.5,586.9z"
				/>
		</g>
		<g>
			<path class="st27" d="M419,551.4c0,0-9,3.9-19.2,12.1c-2.2-0.3-4.4-0.5-6.7-0.7C400.6,557.4,410,552.2,419,551.4z"/>
			<path class="st27" d="M394.9,557.6c0,0-3.2,1.2-7.3,4.9c-1.2,0-2.4-0.1-3.6-0.1C387,559.9,390.7,557.7,394.9,557.6z"/>
		</g>
	</g>
	<path class="st28" d="M777.8,921.6c30.3,7.6,55.6,9.1,71.7,7.1c13.5-0.8,62.7-17.1,37.2-38.9s-114.3-36.2-170.5-46.5
		c-56.2-10.2-50.6-18-46.7-28.8c3.8-10.7,19.5-9.2,19.7-9.2c7.4,2.3,15.7,4.6,25.2,6.9c55.2,13.1,164.5,38,205,72.2
		c3.9,6.3,6.3,13.2,6.1,20.4c-0.7,33.1-86.5,45.5-151.6,24.6c-65-20.9-96.5-11.1-96.5-11.1C697,911.9,724.8,908.4,777.8,921.6z"/>
</g>
</svg>
