<svg width="40" height="40" viewBox="0 0 40 40" fill="none" xmlns="http://www.w3.org/2000/svg">
<path d="M39.7891 30.1954C39.4408 32.8419 38.1411 35.2712 36.1326 37.0295C34.1242 38.7878 31.5444 39.7549 28.875 39.7501C13.3672 39.7501 0.750018 27.1329 0.750018 11.6251C0.745233 8.95574 1.7123 6.37592 3.47059 4.36747C5.22888 2.35902 7.65816 1.05929 10.3047 0.711031C10.9739 0.629314 11.6517 0.76623 12.2367 1.10134C12.8217 1.43645 13.2827 1.95178 13.5508 2.57041L17.6758 11.7794V11.8028C17.881 12.2764 17.9658 12.7934 17.9225 13.3077C17.8792 13.822 17.7093 14.3175 17.4278 14.7501C17.3926 14.8028 17.3555 14.8517 17.3164 14.9005L13.25 19.7208C14.7129 22.6935 17.8223 25.7755 20.834 27.2423L25.5879 23.1974C25.6346 23.1581 25.6835 23.1216 25.7344 23.088C26.1666 22.7997 26.6639 22.6237 27.1812 22.576C27.6985 22.5283 28.2196 22.6102 28.6973 22.8145L28.7227 22.8263L37.9238 26.9493C38.5436 27.2164 39.0602 27.677 39.3964 28.2621C39.7326 28.8472 39.8704 29.5255 39.7891 30.1954Z" fill="#003C6A"/>
</svg>
