<?xml version="1.0" encoding="utf-8"?>
<!-- Generator: Adobe Illustrator 25.4.1, SVG Export Plug-In . SVG Version: 6.00 Build 0)  -->
<svg version="1.1" id="Capa_1" xmlns="http://www.w3.org/2000/svg" xmlns:xlink="http://www.w3.org/1999/xlink" x="0px" y="0px"
	 viewBox="0 0 1080 1350" style="enable-background:new 0 0 1080 1350;" xml:space="preserve">
<style type="text/css">
	.st0{fill:#1A2E35;}
	.st1{fill:#FFFFFF;}
	.st2{opacity:0.1;fill:#1A2E35;}
	.st3{fill:#007CFF;}
</style>
<g>
	<g>
		<path class="st0" d="M709.7,472.1c16.6,95.1,100.6,321.5,62.2,465.8c-38.4,144.3-86.5-230.6-135.2-258.9
			C588,650.7,709.7,472.1,709.7,472.1z"/>
		<path class="st0" d="M752.7,973.4c-18.1,0-34.1-52.7-58.4-139.5c-18.5-66.3-39.5-141.4-59-152.7c-6-3.5-10-9.2-11.8-17
			c-11.9-52.3,80-187.9,83.9-193.7l3.7-5.4l1.1,6.4c4.1,23.4,12.3,54.9,21.8,91.3c29.3,112.4,69.5,266.3,40.4,375.6
			C768.1,962.3,761.2,973.4,752.7,973.4C752.7,973.4,752.7,973.4,752.7,973.4z M708.2,479c-17.2,26.2-89.6,139.7-79.5,184.1
			c1.4,6.4,4.5,10.8,9.3,13.6c21.3,12.4,40.8,82.1,61.4,155.8c17.8,63.6,37.9,135.6,53.3,135.6c0,0,0,0,0,0c3.1,0,9.4-4.1,16.6-31
			c28.7-107.9-11.2-261.1-40.4-372.9C720.2,530.9,712.6,501.8,708.2,479z"/>
	</g>
	<g>
		<path class="st1" d="M714.1,479.1c18.6,308.6-28.6,686.1-51.5,733.6c-10.3,21.5-56.5,2.4-75.6-4c-47.8,7.2-155.2,16.3-246.7,16.3
			c-101.9,0-152.3-2.4-143.3-8c9.1-5.6,82.1-28.2,82.8-54.5c2.4-93.9-31.6-176.6-35.4-385.6c-3.6-197.6,57.3-323.5,97.9-391.6
			c51.5-86.3,95.8-115,137.8-172.9c42-57.9,112.4-125.8,169.6-94.8c52.1,28.3,86.5-7.6,134.7,3.7c5.1,1.2,5.8,8.1,1,10.3
			c-43,19.8-108.4,66.3-124.2,109.4C691.1,270.9,707.9,376,714.1,479.1z"/>
		<path class="st0" d="M340.2,1226.8c-143.8,0-145.2-4.9-146-7.9c-0.2-0.7-0.2-2.2,1.8-3.4c2.1-1.3,6.8-3.2,13.4-5.8
			c22.1-9,68.1-27.6,68.6-47.2c1-40.8-4.8-79-12.1-127.4c-9.4-62.4-21.2-140-23.3-258.1c-2.7-148.9,29.4-277.3,98.1-392.5
			c31.5-52.9,60.1-83.8,87.6-113.7c17.5-19,34-36.9,50.2-59.3c23-31.8,103.4-132.5,171.9-95.3c29.4,16,52.6,11.2,77.2,6.1
			c17.8-3.7,36.2-7.5,57.1-2.6c3.1,0.7,5.2,3.2,5.6,6.3c0.3,3.1-1.3,6-4.2,7.3c-41.4,19-106.4,64.8-122.9,107.4
			c36.9,38.6,49.1,179.3,52.7,238.3c18.3,304.3-28.3,686-51.7,734.5c-10,20.7-48.2,7.3-71.1-0.7c-2.3-0.8-4.4-1.6-6.3-2.2
			C541.4,1217.3,435.2,1226.8,340.2,1226.8z M198.6,1218.2c6.3,2.4,37.3,5,141.7,5c95.1,0,201.3-9.5,246.5-16.3l0.4-0.1l0.4,0.1
			c2,0.7,4.3,1.5,6.8,2.3c20.3,7.1,58.1,20.4,66.7,2.6c23.2-48.2,69.6-428.9,51.3-732.7c-7.4-123-27-211.6-52.4-236.9l-0.8-0.8
			l0.4-1.1c16.1-43.8,82.9-91,125.2-110.4c1.8-0.8,2.2-2.4,2.1-3.7c-0.1-1.3-0.9-2.8-2.8-3.2c-20.1-4.7-38.1-1-55.5,2.6
			c-24.1,5-49,10.1-79.6-6.5c-65.9-35.8-144.7,63.1-167.3,94.3c-16.4,22.6-33,40.6-50.5,59.6c-27.5,29.8-55.8,60.6-87.2,113.2
			C275.4,501,243.5,628.7,246.1,776.9c2.1,117.8,13.9,195.3,23.3,257.6c7.4,48.6,13.2,87,12.1,128.1c-0.6,21.9-46.2,40.4-70.8,50.4
			C205.2,1215.2,200.7,1217.1,198.6,1218.2z M197.6,1218.8L197.6,1218.8L197.6,1218.8z"/>
	</g>
	<path class="st2" d="M661.1,241.1c30,29.8,46.8,134.9,53,238c0,0-14.3,47.2-153.4,30.5c-139.1-16.7-161.6-111.6-161.6-111.6
		S414.6,299.9,661.1,241.1"/>
	<path class="st2" d="M572.4,562.5c53.8-33.1,121.2-26,117.4,15.8C685.9,620.1,502.6,605.4,572.4,562.5z"/>
	<g>
		<path class="st0" d="M340.2,1225c-101.9,0-152.3-2.4-143.3-8c9.1-5.6,82.1-28.2,82.8-54.5c2.4-93.9-31.6-176.6-35.4-385.6
			c-3.6-197.6,57.3-323.5,97.9-391.6c51.5-86.3,95.8-115,137.8-172.9c42-57.9,112.4-125.8,169.6-94.8c52.1,28.3,86.5-7.6,134.7,3.7
			c5.1,1.2,5.8,8.1,1,10.3c-43,19.8-108.4,66.3-124.2,109.4c0,0,19.7,43.7-79.3,46.8c-69.8,2.2-124.5,36.7-158.1,97.9
			c-7.2,13.2-12,27.2-14.3,41.4c-27.3,170.1-140.9,181.5-132.9,343s71.6,350.8,45.4,402.7C295.7,1224.9,340.2,1225,340.2,1225z"/>
		<path class="st0" d="M340.2,1226.8c-143.8,0-145.2-4.9-146-7.9c-0.2-0.7-0.3-2.2,1.8-3.4c2.1-1.3,6.8-3.2,13.4-5.8
			c22.1-9,68.1-27.6,68.6-47.2c1-40.8-4.8-79-12.1-127.4c-9.4-62.4-21.2-140-23.3-258.1c-2.7-148.9,29.4-277.3,98.1-392.5
			c31.5-52.9,60.1-83.8,87.6-113.7c17.5-19,34-36.9,50.2-59.3c23-31.8,103.4-132.5,171.9-95.3c29.4,16,52.6,11.2,77.2,6.1
			c17.8-3.7,36.2-7.5,57.1-2.6c3.1,0.7,5.3,3.2,5.6,6.3c0.3,3.1-1.3,6-4.2,7.3c-41.5,19.1-106.9,65.1-123.1,107.8
			c1,2.7,3.8,12.4-2.6,22.6c-9.9,15.9-36.4,24.7-78.6,26c-68.8,2.2-123,35.7-156.6,97c-7.1,12.9-11.8,26.6-14.1,40.8
			c-12.8,79.6-45.1,125.7-73.5,166.3c-32.7,46.6-63.6,90.6-59.3,176.4c3.5,71,17.8,147.6,30.4,215.1
			c16.6,88.8,29.7,158.9,14.7,188.5c-8.7,17.1-10.4,30.2-5.2,38.7c6.4,10.6,21.7,10.8,21.9,10.8L340.2,1226.8z M198.6,1218.2
			c6,2.3,34.3,4.8,126.8,5c-3.7-1.8-7.4-4.6-10-8.9c-5.9-9.7-4.3-23.9,5-42.2c14.4-28.5,0.8-101.6-15-186.2
			c-12.7-67.7-27-144.4-30.5-215.6c-4.3-87,26.9-131.5,60-178.6c29.7-42.3,60.3-86,72.9-164.8c2.3-14.6,7.2-28.7,14.5-41.9
			c34.2-62.4,89.4-96.6,159.6-98.8c50.9-1.6,69.2-14.1,75.6-24.3c6.4-10.1,2.3-19.6,2.1-20l-0.3-0.7l0.2-0.7
			c16.1-43.8,82.9-91,125.2-110.4c1.8-0.8,2.2-2.4,2.1-3.7c-0.1-1.3-0.9-2.8-2.8-3.2c-20.1-4.7-38.1-1-55.5,2.6
			c-24.1,5-49,10.1-79.6-6.5c-65.9-35.8-144.7,63.1-167.3,94.3c-16.4,22.6-33,40.6-50.5,59.6c-27.5,29.8-55.8,60.6-87.2,113.2
			C275.4,501,243.5,628.7,246.1,776.9c2.1,117.8,13.9,195.3,23.3,257.6c7.4,48.6,13.2,87,12.1,128.1c-0.6,21.9-46.2,40.4-70.8,50.4
			C205.2,1215.2,200.7,1217.1,198.6,1218.2z"/>
	</g>
	<g>
		<path class="st0" d="M671.2,1178.5c18.5,14.8,81.5,22.4,107.9,43.4c2.5,2,0.9,5.6-2.6,5.5l-127.5-2.2c-32.8-0.6-62.2-15-62.2-15
			S630.4,1145.9,671.2,1178.5z"/>
		<path class="st0" d="M776.6,1229.2c0,0-0.1,0-0.1,0L649,1227c-32.8-0.6-62.7-15-63-15.2l-1.9-0.9l1.2-1.7c1-1.5,25.2-36.7,55-41.3
			c11.4-1.7,22.2,1.3,31.9,9.1l0,0c8.2,6.5,26,11.8,44.8,17.4c22.7,6.7,48.4,14.3,63,26c1.7,1.3,2.3,3.4,1.6,5.3
			C781.1,1227.8,779,1229.2,776.6,1229.2z M589.5,1209.5c7,3.1,32.3,13.5,59.5,13.9l127.5,2.2c1.1,0,1.7-0.5,1.9-1
			c0.2-0.6-0.2-1-0.5-1.3c-14.1-11.2-39.4-18.7-61.8-25.4c-19.2-5.7-37.3-11.1-46.1-18l0,0c-8.9-7.1-18.8-10-29.2-8.4
			C616.3,1175.3,594.8,1202.4,589.5,1209.5z"/>
	</g>
	<g>
		<path class="st0" d="M514.2,1217.1c-37.1-18.8-48.2-45.3-77.1-34.9c-28.9,10.4-31.6,29.2-35.8,42.1c-4.2,12.8,22.7,22.4,38.2,23.6
			c15.5,1.2,25.1-6.6,61.5,3.6C537.4,1261.6,562.8,1241.7,514.2,1217.1z"/>
		<path class="st0" d="M519.6,1256c-5.8,0-12.3-0.9-19-2.8c-24.6-6.9-36.5-5.5-46.9-4.2c-4.7,0.6-9.2,1.1-14.2,0.7
			c-11.6-0.9-31.8-6.7-38.2-16.4c-2.1-3.1-2.6-6.3-1.5-9.5c0.4-1.3,0.8-2.7,1.3-4.1c3.7-12.4,8.8-29.5,35.6-39.1
			c19.6-7.1,31.8,2.3,47.2,14.3c8.6,6.6,18.3,14.1,31.3,20.7c20.7,10.5,30.6,21.6,27.1,30.6C539.7,1252.5,531,1256,519.6,1256z
			 M467.6,1244.4c8.3,0,18.9,1.2,33.9,5.4c19.7,5.5,34.7,1.7,37.3-4.9c2.1-5.3-3.5-15-25.4-26.1l0,0c-13.3-6.7-23.2-14.4-31.9-21.1
			c-15.7-12.1-26.1-20.1-43.8-13.7c-25.1,9.1-29.7,24.4-33.4,36.8c-0.4,1.4-0.8,2.8-1.3,4.1c-0.7,2.2-0.3,4.3,1.1,6.4
			c5.6,8.3,24.2,14,35.5,14.8c4.7,0.4,8.8-0.1,13.5-0.7C457.3,1245,461.9,1244.4,467.6,1244.4z"/>
	</g>
	<path class="st3" d="M533.3,284.1c59.7-19.1-34.1-87.1-82.6-27.2c-43.6,53.9-13.6,75.5,16.3,59.1
		C496.8,299.6,517.7,289.1,533.3,284.1z"/>
	<path class="st3" d="M768.6,131.3c27.5-6.5-111.3,68.3-144.9,62C670.1,180.1,721.4,152.2,768.6,131.3z"/>
	<path class="st3" d="M585.6,174.3c1.6,3.2,5.4,4.5,8.6,2.9c3.2-1.6,4.5-5.4,2.9-8.6c-1.6-3.2-5.4-4.5-8.6-2.9
		C585.4,167.3,584.1,171.1,585.6,174.3z"/>
	<path class="st3" d="M589.4,170c-0.9,0-1.7-0.6-2-1.5c-0.4-1.1,0.2-2.3,1.4-2.7c0.2-0.1,5.3-1.9,5.7-7.7c0.1-1.2,1.1-2.1,2.3-2
		c1.2,0.1,2.1,1.1,2,2.3c-0.7,8.7-8.3,11.3-8.7,11.4C589.8,170,589.6,170,589.4,170z"/>
	<g>
		<path class="st0" d="M393.5,476.9c-15,95.4,37.1,334.8-28.3,469c-65.4,134.3-40.6-242.9-83-280
			C239.8,628.9,393.5,476.9,393.5,476.9z"/>
		<path class="st0" d="M341.4,977.4c-0.6,0-1.2-0.1-1.8-0.2c-17.8-3.4-23.4-58.2-30.6-148.1c-5.5-68.6-11.7-146.3-28.6-161.1
			c-5.3-4.6-8-11-8.3-18.9c-1.6-53.7,114.5-169.1,119.5-174l5.7-5.7l-1.3,8c-5.2,32.7-2.3,82.4,0.9,139.8
			c6.1,107.6,13.7,241.5-29.4,330C357.6,967.7,349.2,977.4,341.4,977.4z M389.8,484.4C366.3,508.5,276.1,604,277.4,648.9
			c0.2,6.5,2.3,11.5,6.5,15.1c18.6,16.2,24.3,88.4,30.4,164.7c5.2,65.9,11.2,140.5,26.3,143.3c3.1,0.6,10.1-2.2,22.2-27.2
			c42.5-87.2,34.9-220.4,28.9-327.4C388.7,564.1,386.1,517.5,389.8,484.4z"/>
	</g>
</g>
</svg>
