<svg width="860" height="830" viewBox="0 0 860 830" fill="none" xmlns="http://www.w3.org/2000/svg">
<g clip-path="url(#clip0_480_1153)">
<g filter="url(#filter0_d_480_1153)">
<path d="M31.3468 163.632C78.3078 41.3548 258.735 47.9098 310.414 163.006C326.113 197.97 329.258 239.636 354.837 268.178C389.082 306.39 450.005 305.4 498.466 288.535C546.926 271.67 591.044 242.225 641.335 232.048C729.252 214.256 802.18 290.366 826.837 368.553C853.955 454.542 829.942 552.457 773.474 622.749C717.006 693.041 631.266 736.634 542.297 751.265C442.834 767.621 334.644 747.437 257.163 682.962C214.612 647.553 183.463 598.158 169.555 544.594C158.52 502.098 166.097 455.092 152.469 413.614C138.321 370.554 93.9288 353.317 65.4568 321.815C32.5408 285.396 14.8618 235.15 24.7238 186.35C26.2878 178.607 28.5158 171.005 31.3468 163.632Z" fill="#00ABA9"/>
<path d="M378.575 150.261C373.923 158.254 371.207 167.239 371.369 176.484C371.704 195.55 384.491 213.19 401.472 221.866C436.833 239.931 480.575 222.056 504.662 193.464C516.934 178.897 523.094 157.624 515.013 140.376C509.556 128.73 498.34 120.458 486.128 116.422C473.916 112.386 460.745 112.189 447.943 113.416C429.814 115.152 411.515 119.875 396.706 130.476C389.416 135.694 383.086 142.511 378.575 150.261Z" fill="#00ABA9"/>
<path d="M670.375 22.5998C644.676 19.4158 611.505 31.7978 599.222 55.8988C579.513 94.5678 620.021 122.307 650.196 137.934C678.257 152.466 701.816 173.008 724.129 195.143C740.264 211.149 756.23 242.949 779.872 248.828C862.391 269.334 786.951 126.88 775.423 108.688C751.955 71.6558 717.039 28.3808 670.375 22.5998Z" fill="#00ABA9"/>
<path d="M356.268 107.43C358.735 93.2908 346.432 78.3108 331.835 79.1908C319.449 79.9378 308.466 91.2078 308.619 103.6C308.765 115.427 318.908 126.283 330.698 127.231C342.488 128.179 354.235 119.083 356.268 107.43Z" fill="#00ABA9"/>
<path d="M33.8488 309.801C12.6318 413.673 30.5748 524.83 79.7938 619.374C244.856 936.445 690.198 819.492 799.879 520.565C818.855 468.846 827.029 407.241 796.243 361.555C761.689 310.278 691.7 298.007 629.88 299.204C568.059 300.4 503.338 309.939 446.555 285.466C351.496 244.496 311.38 133.322 192.304 144.465C97.9918 153.29 51.3438 224.157 33.8488 309.801Z" fill="#0076B0"/>
</g>
<g filter="url(#filter1_d_480_1153)">
<path d="M214.322 58.4042C209.988 58.8692 207.23 61.9144 204.23 64.5693C204.23 66.1737 205.215 67.0721 206.501 67.7552C209.795 69.0668 213.363 69.7958 216.305 71.8738C219.405 74.058 223.853 76.1561 221.841 80.8C220.048 84.9445 215.9 83.5783 212.433 82.4733C208.312 81.6467 204.285 80.3552 200.126 79.7438C184.145 77.3903 172.403 84.3303 166.387 99.3298C165.655 101.152 166.605 104.16 163.374 104.574C156.419 105.627 149.117 105.274 142.955 109.548C140.375 111.43 139.479 114.364 139.353 117.174C139.207 120.483 137.066 124.86 140.88 126.938C144.505 128.912 146.342 124.679 148.716 122.759C158.54 114.811 168.755 116.361 176.84 126.525C183.445 134.828 189.044 144.11 197.603 150.631C200.677 152.973 204.153 157.892 209.009 152.786C208.082 144.937 203.616 138.286 201.544 130.818C200.528 127.162 200.16 124.797 205.55 124.802C215.63 124.814 215.742 124.237 211.233 115.718C210.246 113.85 208.777 112.105 208.932 109.792C211.067 114.47 211.572 120.959 218.521 120.954C222.344 120.954 223.825 117.905 222.1 113.968C224.295 117.607 224.39 122.658 228.408 124.593C231.19 125.93 229.183 126.197 228.799 127.423C226.675 134.176 228.787 137.354 235.968 136.384C240.463 135.778 242.653 137.598 244.978 140.316C252.802 149.46 260.112 158.891 263.315 170.86C264.021 173.503 264.661 177.212 268.206 177.295C271.716 177.378 272.107 173.627 273.596 171.199C279.517 161.543 273.085 154.758 268.393 147.528C259.636 136.63 250.259 126.361 238.796 118.227C250.374 126.298 259.719 136.662 268.565 147.546C270.801 151.096 273.654 154.322 274.974 158.346C277.632 166.44 282.792 166.012 288.558 162.295C295.105 158.076 301.27 153.2 309.878 155.441C311.089 155.757 312.455 155.16 313.371 154.144C317.696 149.348 317.197 129.469 312.645 124.039C302.86 127.486 294.144 125.994 286.759 118.393C280.889 112.352 280.726 106.68 286.228 100.34C294.586 90.7107 308.965 91.7239 314.146 102.326C316.367 111.04 318.632 119.59 317.139 128.875C316.232 134.524 327.148 143.674 334.776 144.592C339.957 145.215 345.146 144.954 350.189 143.421C355.017 141.954 359.115 142.973 362.537 146.73C382.068 168.193 388.601 193.669 385.805 222.029C384.726 232.964 385.271 244 383.612 254.915C383.187 257.699 383.268 261.864 386.261 262.607C390.452 263.646 390.592 259.025 391.898 256.307C396.192 224.032 396.643 191.778 390.004 159.787C386.043 140.703 379.278 122.598 366.928 107.082C361.635 107.122 362.694 110.859 363.627 113.655C365.84 120.291 367.999 126.998 370.648 131.791C362.74 113.692 352.652 95.214 332.566 84.9245C329.048 85.045 327.994 81.7788 325.813 80.0394C316.706 72.7808 307.82 64.8161 294.626 70.1116C293.294 70.6454 292.932 68.5674 292.235 67.56C284.256 59.9139 273.722 61.0447 264.084 59.7847C252.366 58.2549 240.463 56.464 228.701 60.0086C225.751 60.8984 222.992 59.7532 220.177 59.2538C218.305 58.4071 216.179 59.314 214.31 58.4042H214.322Z" fill="#898980"/>
<path d="M208.55 152.08C203.048 155.766 200.519 150.315 198.059 147.807C190.881 140.485 184.736 132.162 177.713 124.673C166.766 112.998 159.255 109.416 145.616 122.862C144.367 124.094 143.971 126.591 140.699 125.862C140.76 120.764 139.689 115.44 143.882 111.003C150.862 104.442 152.338 94.1779 159.522 87.7401C161.152 86.2792 161.838 83.765 165.101 83.2426C168.488 91.4599 159.682 99.0084 163.448 107.076C164.189 107.584 164.774 111.66 165.52 108.339C171.519 81.5923 189.4 78.7365 211.882 84.2873C212.049 84.3275 212.338 83.874 212.571 83.6473C214.155 76.2538 211.386 70.6197 205.542 66.2254C205.106 65.6744 204.669 65.1204 204.233 64.5694C199.951 60.333 194.492 58.2464 188.889 56.7109C182.896 55.0691 176.375 55.5284 173.158 61.0936C168.032 69.9624 159.8 75.8261 153.736 83.6817C152.407 84.8958 150.38 85.4555 150.047 87.6052C149.407 92.3439 146.313 93.7101 142.028 93.4374C141.377 93.8966 141.181 94.3214 141.44 94.7118C141.687 95.082 141.928 95.2686 142.172 95.2686C143.403 95.5183 145.188 95.7508 144.789 97.3006C143.822 101.066 140.484 98.7845 138.268 99.459C137.536 99.8321 137.298 100.197 137.548 100.553C137.795 100.903 138.041 101.081 138.294 101.081C139.878 101.942 145.61 99.0055 141.747 104.855C141.064 106.296 138.676 107.019 139.89 109.263C134.175 114.823 136.503 121.947 136.133 128.548C134.999 130.698 137.066 131.404 137.975 132.632C137.416 137.161 136.856 141.688 136.296 146.217C137.048 149.649 140.102 152.256 139.827 156.056C142.832 169.456 148.116 182.076 154.476 194.085C172.742 228.585 174.492 264.568 166.379 301.986C157.16 344.493 148.076 386.951 147.1 430.842C145.584 499.108 162.857 562.504 193.378 622.875C194.983 626.05 196.865 629.135 196.808 632.881C196.55 649.769 196.799 666.685 195.855 683.536C195.204 695.155 191.151 698.55 179.423 700.206C173.319 701.067 167.171 701.868 161.017 702.118C140.648 702.938 121.133 707.137 102.698 715.998C98.5711 719.628 93.9817 722.857 90.4313 726.982C85.5549 732.647 87.0187 736.247 94.3692 737.415C98.3702 738.049 101.872 739.008 104.69 742.119C105.721 743.258 107.506 744.587 108.815 744.461C119.581 743.425 129.48 749.954 139.313 749.673C170.411 748.789 201.704 747.432 231.689 737.366C242.306 735.394 250.064 728.457 258.123 722.077C260.411 720.266 262.635 718.262 261.811 714.798C257.839 710.659 254.303 713.891 251.617 716.13C228.517 735.374 200.611 738.761 172.228 740.638C162.202 741.301 152.269 742.98 142.226 743.301C138.963 743.405 134.549 744.791 134.752 738.85C140.234 731.562 148.084 727.705 156.066 724.066C158.13 723.124 160.423 722.691 162.429 721.626C164.608 720.469 168.147 719.537 166.958 716.422C165.871 713.569 162.469 714.385 159.987 715.073C148.974 718.127 138.179 721.669 129.641 729.84C126.337 733.003 122.801 735.873 118.404 737.403C115.505 738.411 112.368 738.913 110.525 735.856C108.43 732.38 111.398 730.572 113.72 728.813C118.728 725.019 124.796 723.449 130.421 720.946C133.877 719.407 138.13 719.123 141.015 713.326C123.88 711.302 112.006 720.86 99.3317 727.975C113.358 716.887 129.603 711.913 147.275 710.883C159.671 710.702 171.809 708.343 183.895 706.073C197.437 703.53 202.609 697.003 203.171 683.123C203.619 672.084 203.22 661.028 203.338 649.278C205.771 650.917 206.257 653.506 207.826 655.15C221.905 670.991 232.622 689.575 248.405 704.118C253.356 708.679 259.972 711.078 263.806 716.839C272.741 722.384 280.789 729.479 291.162 732.564C292.502 732.963 293.133 734.068 292.358 735.532C285.929 741.528 278.478 746.608 274.773 755.055C273.12 757.21 273.875 758.591 276.188 759.475C290.478 744.917 308.253 734.108 321.023 717.88C329.162 702.864 331.975 686.234 335.511 669.84C336.16 666.84 335.836 666.619 330.907 662.486C329.909 661.648 330.422 661.671 330.572 660.925C334.332 642.019 330.988 622.887 332.366 603.889C332.348 595.586 332.612 587.291 332.302 578.994C331.763 574.364 333.014 569.206 328.077 564.709C322.664 572.648 322.449 581.054 322.455 589.329C322.466 617.256 322.9 645.185 322.707 673.112C322.679 677.319 323.092 681.559 322.09 685.7C320.371 693.542 317.96 701.176 314.685 708.521C312.338 714.91 308.262 719.999 302.875 724.083C293.837 728.176 288.352 721.919 282.385 717.054C251.634 694.256 226.864 665.79 207.944 632.938C179.277 583.161 161.499 529.644 156.032 471.945C150.98 418.652 159.53 367.044 171.439 315.668C177.145 291.054 179.082 266.255 177.727 241.176C176.869 225.304 170.331 210.947 163.468 196.924C157.315 184.353 151.617 171.609 146.893 158.455C142.978 147.551 142.332 136.8 150.584 127.245C158.546 121.16 163.531 121.657 169.78 130.078C179.024 142.534 188.479 154.661 202.818 161.779C212.252 166.569 221.408 163.521 230.581 160.812C233.595 159.431 235.354 156.598 237.785 154.537C240.406 152.319 242.464 149.506 239.757 146.314C237.464 143.611 234.516 144.882 231.953 146.547C230.607 147.419 229.347 148.41 228.061 149.342C222.694 152.597 217.054 153.777 210.964 151.578C210.077 151.363 209.276 151.561 208.553 152.098L208.55 152.08Z" fill="#28241E"/>
<path d="M214.321 58.4042C214.766 60.7578 216.79 59.9857 218.225 60.376C227.019 61.4609 234.464 56.1913 242.819 55.1552C288.495 49.4953 326.734 63.1543 356.535 98.816C359.003 101.769 360.78 105.449 364.804 106.792C379.711 127.322 387.016 150.479 390.144 175.515C392.805 196.806 391.927 218.051 391.769 239.33C391.723 245.369 390.397 251.399 389.659 257.432C390.761 261.284 392.234 258.862 393.115 257.461C394.676 254.976 394.696 251.902 395.787 249.207C399.845 234.021 399.55 218.714 397.501 203.184C396.131 253.041 417.445 297.75 428.734 344.711C430.984 350.319 432.545 356.2 435.2 361.654C436.558 364.441 437.462 367.859 441.689 367.512C445.55 365.138 443.793 362.033 442.878 358.941C440.34 350.374 437.528 341.901 433.59 332.171C452.444 363.066 479.119 382.706 508.561 399.505C537.656 416.109 568.967 428.388 597.579 445.899C644.119 474.376 684.76 509.395 716.82 553.779C730.399 572.579 741.314 592.885 747.367 615.505C753.262 632.034 755.61 649.284 757.803 666.571C758.136 672.01 757.923 677.448 758.027 682.882C758.113 687.279 759.31 691.079 763.262 693.547C767.131 696.65 769.002 702.149 774.656 703.139C776.95 702.204 777.986 700.832 776.241 698.513C764.157 688.582 765.366 674.811 764.295 661.068C760.291 609.695 739.201 565.552 705.807 526.716C662.161 475.958 608.388 439.323 547.96 411.629C526.095 401.606 504.974 390.197 485.267 376.231C440.935 344.812 417.879 301.099 409.435 248.297C404.412 216.88 400.465 185.211 391.594 154.511C379.152 111.473 356.73 76.3858 314.016 57.5489C299.252 51.0394 283.621 48.3127 267.686 47.0786C264.073 46.7973 260.407 47.3283 259.076 42.782C257.328 42.3773 256.449 42.8508 257.046 44.8025C256.777 48.9844 253.361 47.7473 251.186 47.8679C238.072 48.5854 225.983 52.707 214.324 58.4157L214.321 58.4042Z" fill="#272019"/>
<path d="M776.241 698.504C776.187 700.048 775.914 701.486 774.378 702.304C772.754 708.44 777.16 714.321 775.104 720.469C772.381 731.579 764.712 737.446 754.066 739.664C747.029 741.131 739.816 740.792 732.692 739.854C730.158 739.521 726.369 739.317 726.074 736.645C724.923 726.201 718.539 730.951 714.412 732.836C698.85 739.943 682.731 744.598 665.668 745.798C662.491 746.022 659.11 748.057 656.383 743.479C654.612 740.503 650.388 742.428 647.265 742.928C609.7 748.918 572.159 747.586 534.643 742.546C528.03 741.659 528.03 741.295 519.769 745.158C518.59 745.709 518.099 745.149 517.258 744.994C491.668 740.336 465.776 739.001 439.853 738.628C419.621 738.336 420.026 738.772 422.457 718.844C427.333 678.863 433.883 639.025 433.785 598.573C433.78 595.967 434.015 593.384 434.862 590.884C435.585 582.635 436.658 574.424 437.471 566.189C437.287 559.249 438.145 552.395 439.247 545.57C439.319 536.136 432.577 527.479 436.044 517.626C436.182 516.593 436.162 515.574 436.024 514.547C434.405 511.923 436.294 506.212 430.008 507.675C429.325 508.588 428.849 509.593 428.55 510.692C427.884 534.942 427.124 559.186 424.09 583.293C423.849 585.218 423.826 587.164 423.108 588.996C422.112 593.717 420.809 598.364 419.409 602.988C419.064 604.581 419.05 606.176 419.414 607.766C422.052 610.858 422.603 614.333 422.376 618.423C420.482 652.397 415.359 686.024 411.596 719.794C410.514 729.518 410.382 739.159 410.833 748.86C411.639 754.015 413.272 759.009 415.959 763.401C420.459 770.76 419.483 776.747 412.747 781.956C412.167 783.374 412.141 784.706 413.33 785.857C428.751 782.582 431.024 776.009 422.523 759.271C421.042 752.184 424.535 750.267 431.047 750.1C464.502 749.245 497.747 752.434 531.021 754.977C565.626 757.62 600.183 759.612 634.897 756.538C648.427 755.341 662.106 755.841 675.633 754.087C676.919 753.921 675.364 754.328 676.595 754.01C699.783 748.011 723.324 747.471 747.029 749.354C754.468 748.16 761.431 745.563 768.104 742.136C779.496 736.289 783.847 726.427 783.999 714.183C784.074 707.639 779.717 703.288 776.238 698.501L776.241 698.504Z" fill="#1D262A"/>
<path d="M139.889 109.255C140.509 107.785 141.126 106.316 141.746 104.846C121.187 111.344 99.9053 116.416 84.8312 133.72C84.5384 134.73 84.9115 135.141 85.9477 134.951C102.239 122.839 119.658 113.092 139.889 109.255Z" fill="#7E7E7E"/>
<path d="M138.294 101.075C138.131 100.538 138.119 99.9956 138.265 99.4531C117.948 98.6294 99.4667 104.235 82.7222 115.985C100.127 106.634 119.167 103.687 138.294 101.075Z" fill="#8A8B8D"/>
<path d="M139.829 156.047C140.943 151.945 139.599 148.725 136.299 146.208C129.91 159.158 124.339 172.37 123.317 187.042C127.309 176.362 130.636 165.47 135.552 155.126C139.2 147.448 138.092 157.433 139.829 156.047Z" fill="#9A9A98"/>
<path d="M137.978 132.624C138.816 130.606 136.552 129.989 136.135 128.539C128.429 133.41 122.66 140.123 117.864 147.761L118.028 148.696L118.975 148.622C125.809 143.883 128.598 134.34 137.978 132.624Z" fill="#929291"/>
<path d="M104.084 143.717C110.155 138.381 116.228 133.043 122.298 127.707C113.524 129.926 107.89 135.767 104.084 143.717Z" fill="#8D8C8C"/>
<path d="M117.864 147.761C111.954 153.384 108.536 160.243 108.068 168.601C111.701 161.939 115.338 155.281 118.972 148.619C118.699 148.209 118.329 147.922 117.861 147.761H117.864Z" fill="#A4A4A3"/>
<path d="M84.8314 133.723C80.2793 136.338 76.7777 139.991 75.0183 145.557C78.6605 142.021 82.3028 138.487 85.9479 134.951C85.569 134.55 85.1988 134.139 84.8343 133.72L84.8314 133.723Z" fill="#7E7E7E"/>
<path d="M413.329 785.86C413.335 784.73 413.338 783.602 413.344 782.471C407.176 780.241 400.675 780.089 394.257 779.626C386.232 779.047 380.323 776.647 380.544 767.047C380.601 764.598 380.193 761.059 376.959 761.1C374.206 761.134 373.19 764.251 372.478 766.828C370.112 775.378 364.501 779.656 355.648 779.664C349.489 779.664 343.326 779.767 337.167 779.578C333.76 779.472 330.591 778.86 329.601 774.902C328.324 769.805 325.726 769.816 321.878 772.494C315.15 777.173 307.24 777.416 299.482 777.643C288.452 777.965 287.691 777.164 286.084 766.435C280.671 766.688 276.084 765.884 276.454 758.812C275.895 757.555 275.338 756.298 274.778 755.038C271.15 758.732 269.804 763.361 269.85 768.335C269.885 771.894 271.63 773.481 275.126 775.872C289.706 785.838 305.285 783.633 321.321 783.765C328.915 783.828 337.066 786.598 345.12 786.564C367.858 786.469 390.595 786.11 413.335 785.858L413.329 785.86Z" fill="#263536"/>
<path d="M437.002 544.222C435.521 551.256 433.957 558.285 435.105 565.556C443.856 567.41 443.489 559.709 445.751 555.094C448.142 550.212 448.914 544.316 456.164 543.791C460.908 543.447 464.421 544.121 465.802 549.465C466.858 553.561 469.008 557.284 471.109 560.952C483.419 582.464 504.497 591.789 528.85 586.519C532.384 585.756 535.96 585.75 539.533 585.807C545.124 585.896 550.698 585.334 555.833 583.262C568.482 578.156 580.114 571.003 592.413 564.585C590.378 574.944 583.157 582.142 577.224 590.113C574.994 593.106 570.626 596.08 573.194 600.172C576.099 604.799 581.343 603.289 585.688 602.075C593.314 599.946 599.551 595.038 606.267 591.094C618.655 583.818 623.408 585.047 630.684 597.32C637.067 608.083 637.744 608.398 649.331 604.948C654.095 603.528 656.46 606.874 659.187 609.578C661.323 611.696 662.049 616.432 666.271 614.764C669.936 613.315 670.487 609.288 670.811 605.655C671.009 603.41 670.734 601.134 671.391 599.119C670.938 601.86 670.249 605.525 673.119 607.038C679.844 610.58 680.268 616.352 680.271 622.769C680.271 625.866 680.102 630.177 684.324 630.524C688.58 630.875 688.908 626.848 689.373 623.582C689.476 622.847 688.885 621.704 689.335 621.524C696.568 618.639 696.58 618.668 697.487 609.475C705.698 623.111 720.204 627.887 729.991 638.633C738.492 647.966 745.852 657.426 749.577 669.55C750.527 672.644 751.669 675.712 752.99 678.683C753.928 680.787 755.211 683.252 757.832 682.649C760.943 681.935 759.361 678.887 759.614 676.852C760.088 673.017 758.928 669.071 760.34 665.282C758.231 648.093 756.353 630.86 750.088 614.509C744.528 608.361 743.647 599.98 739.767 592.957C730.422 576.043 719.196 560.702 705.503 547.066C674.167 515.862 642.13 485.467 605.03 461.033C582.462 446.168 557.411 435.79 533.985 422.438C503.056 404.812 473.984 384.931 450.822 357.423C449.775 356.178 448.704 354.935 447.315 354.068C445.96 353.221 444.517 352.108 442.86 353.164C441.245 354.194 441.262 355.928 441.813 357.495C442.869 360.503 444.829 363.379 442.591 366.648C436.081 365.129 437.516 358.637 435.145 354.55C433.423 351.579 432.468 348.161 431.173 344.944C420.76 337.763 416.366 326.448 411.868 315.527C405.936 301.125 402.865 285.841 400.135 270.512C398.849 263.288 398.482 255.688 393.672 249.508C390.506 251.222 393.746 256.181 389.659 257.427C388.79 258.716 387.917 260.001 385.44 263.664C386.849 247.838 388.112 234.463 389.197 221.073C389.613 215.933 390.471 210.62 389.665 205.623C387.122 189.898 384.579 173.951 376.832 159.827C373.222 153.24 367.476 147.661 362.031 142.305C358.811 139.136 354.695 138.473 349.606 140.6C338.375 145.29 325.589 141.065 319.355 131.599C318.106 129.702 316.054 126.677 321.292 128.907C323.201 129.719 323.476 127.971 322.704 126.86C317.334 119.131 321.668 108.758 315.629 101.253C307.937 108.072 310.164 116.416 312.024 124.705C316.459 130.767 318.439 136.714 311.611 142.575C307.472 146.128 313.488 149.592 311.711 153.894C303.322 150.132 296.537 152.784 289.867 158.693C284.729 163.243 278.682 165.92 275.453 155.734C274.333 152.201 271.254 149.291 269.07 146.096C267.766 146.165 267.523 147.345 266.917 148.146C274.913 156.79 275.797 165.946 267.801 176.959C263.731 160.295 255.339 146.96 243.824 135.56C241.548 133.307 240.247 128.545 236.175 134.271C234.237 136.995 231.069 134.535 229.691 132.601C228.161 130.454 229.467 128.057 232.027 127.437C234.008 126.961 236.812 125.6 234.042 124.734C225.435 122.036 225.228 111.347 217.278 108.371C217.114 109.175 216.77 109.815 216.922 110.297C217.8 113.11 223.061 114.039 220.544 118.19C219.826 119.369 217.809 120.411 216.218 119.312C213.205 117.228 210.085 114.022 211.42 110.641C212.636 107.556 213.162 106.227 209.907 104.967C208.331 104.356 206.724 103.782 205.605 105.544C203.923 108.19 206.489 109.602 207.51 111.465C208.449 113.17 209.588 114.835 210.134 116.669C210.731 118.675 214.247 119.918 212.252 122.403C210.599 124.461 208.239 123.169 205.978 122.63C199.646 121.114 195.41 122.145 198.754 130.15C201.842 137.537 203.28 145.663 208.544 152.081C209.121 152.075 209.669 152.195 210.188 152.442C212.473 146.601 208.483 141.958 207.252 136.777C206.747 134.647 203.214 131.875 207.318 130.379C210.323 129.283 214.29 127.492 216.692 132.09C218.339 135.241 220.32 138.2 220.963 141.825C221.732 146.162 223.919 149.655 227.866 151.871C231.961 151.753 234.768 143.918 237.839 147.563C241.714 152.161 232.438 152.215 231.927 156.463C231.798 157.545 230.627 158.504 229.935 159.52C228.115 161.113 227.943 163.214 228.098 165.421C229.565 172.975 231.063 180.532 231.743 188.216C232.928 195.69 231.275 203.04 230.36 210.356C229.533 216.969 225.343 219.968 218.265 220.396C200.929 221.441 193.292 233.983 199.457 250.237C201.825 254.293 206.133 254.743 210.065 255.871C212.41 256.543 215.314 256.19 216.144 259.447C220.679 263.979 226.893 264.628 232.469 264.8C258.068 265.595 283.613 267.042 308.13 270.262C304.619 272.432 299.525 273.79 294.252 274.714C291.612 275.176 289.034 276.186 288.403 279.119C287.734 282.225 290.07 284.079 292.384 285.13C297.487 287.44 298.799 289.854 295.848 295.462C293.675 299.589 299.393 301.616 301.588 304.595C302.693 306.096 306.769 307.629 303.503 309.669C295.575 314.62 302.137 317.043 305.056 319.448C309.329 322.973 313.723 326.236 316.789 330.989C322.945 340.527 322.42 350.17 315.049 358.718C312.093 362.145 308.514 365.138 307.696 369.957C307.421 375.442 306.373 381.119 312.639 384.486C315.586 386.07 314.553 388.142 312.613 389.922C310.431 391.922 307.733 393.105 305.188 394.534C296.256 399.548 296.21 399.801 302.208 407.711C288.182 410.972 278.748 421.913 267.155 429.177C260.844 433.132 261.257 440.6 266.472 446.257C270.683 450.827 269.113 453.086 264.627 455.97C258.967 459.607 252.391 461.802 246.806 466.871C251.157 472.235 256.47 469.575 261.217 469.606C261.697 475.842 265.84 480.782 273.645 484.425C273.088 488.09 269.448 487.969 267.25 489.571C265.648 490.739 263.92 491.838 264.466 494.175C264.988 496.411 266.948 497.005 268.869 497.441C271.745 498.092 274.684 497.975 277.603 497.952C283.386 497.903 288.624 498.644 291.302 504.906C293.939 511.074 293.121 516.238 287.76 520.534C286.48 521.559 285.671 523.003 285.533 524.725C286.377 528.8 289.97 528.832 292.926 529.549C301.293 531.581 308.115 535.795 312.911 543.059C325.193 552.008 333.393 562.849 329.713 579.215C329.613 587.739 329.509 596.263 329.409 604.788C334.323 622.192 335.207 640.125 336.369 658.021C336.576 661.212 336.435 664.51 338.725 667.176C345.909 666.232 342.437 659.536 344.799 655.983C345.726 650.888 346.991 645.84 347.979 640.782C350.189 629.471 356.084 624.397 367.321 619.982C383.781 613.516 394.903 599.716 396.235 580.555C396.892 571.127 396.418 561.755 393.755 552.548C390.494 541.277 389.189 529.627 387.61 518.04C386.996 513.517 387.664 510.061 393.534 510.939C393.855 510.988 394.272 511.14 394.493 511C406.226 503.543 418.55 507.564 430.746 509.108C430.835 508.482 430.892 507.851 430.918 507.22C433.596 503.118 433.429 499.068 431.231 494.918C434.33 501.278 432.29 508.583 434.546 515.061C434.485 515.658 434.491 516.255 434.563 516.852C433.601 519.604 432.947 522.325 435.168 524.776C439.006 524.383 437.126 521.154 438.314 519.329C434.276 527.5 439.313 536.019 436.988 544.219L437.002 544.222Z" fill="#7C8078"/>
<path d="M364.801 106.79C338.47 60.5313 269.365 36.5281 218.225 60.3763C221.678 63.3153 225.478 63.7028 229.866 62.6839C247.963 58.4791 265.666 62.7442 283.449 65.4134C287.132 65.9674 290.266 67.0781 292.456 70.2066C306.465 66.9604 317.423 72.4769 326.944 82.1809C328.27 83.5299 329.323 85.2979 331.478 85.5533C350.835 98.2279 362.215 117.337 372.921 137.179C370.478 126.841 366.118 117.226 364.801 106.79Z" fill="#C9BCAC"/>
<path d="M312.024 124.705C315.285 117.205 312.162 108.721 315.629 101.253C313.084 91.8216 305.638 88.5668 294.405 91.9737C284.144 95.0849 277.287 104.944 279.775 113.009C283.607 125.431 302.125 132.147 312.024 124.705Z" fill="#2F1E1E"/>
<path d="M163.448 107.076C165.193 100.86 166.872 94.6228 168.703 88.4319C169.819 84.6634 169.36 80.4443 166.51 78.6447C163.387 76.6729 162.099 81.3024 160.161 83.1221C152.001 90.7854 147.466 100.633 143.885 111.006C150.478 108.373 156.069 108.514 160.658 111.43C162.942 109.582 157.027 106.769 161.384 105.314C161.826 105.165 162.75 106.457 163.45 107.079L163.448 107.076Z" fill="#B5AEA2"/>
<path d="M266.92 148.146C267.638 147.463 268.352 146.779 269.07 146.096C259.664 132.661 248.031 121.625 233.293 113.867C244.438 125.362 257.072 135.428 266.92 148.146Z" fill="#5B5D54"/>
<path d="M286.31 524.633C291.609 520.543 297.039 517.621 295.36 508.433C291.919 489.62 276.555 497.352 262.689 493.572C266.024 492.398 266.968 492.24 267.72 491.772C271.368 489.513 278.285 490.446 278.191 484.72C278.079 478.018 271.239 481.049 267.439 479.511C258.212 475.777 266.455 471.443 267.603 466.739C261.334 464.649 255.548 469.695 249.366 467.482C256.053 463.693 262.672 460.04 269.187 456.22C273.863 453.476 275.823 451.254 270.083 446.458C261.561 439.337 262.781 433.014 272.634 427.463C279.649 423.511 286.971 420.518 292.214 413.558C295.842 408.739 304.332 413.248 309.051 407.456C305.779 405.593 302.576 403.773 298.555 401.486C304.9 397.542 310.824 394.451 316.022 390.424C319.383 387.818 322.87 383.676 314.564 382.359C306.623 381.099 311.376 374.509 309.742 370.591C303.993 362.902 297.633 368.002 292.605 370.798C279.743 377.947 266.257 381.105 253.522 380.367C262.482 381.3 272.623 378.628 282.571 374.882C285.926 373.619 289.149 372.075 291.721 369.544C294.198 367.101 297.685 364.656 296 360.617C294.198 356.295 290.145 357.681 286.658 358.166C281.236 358.924 275.645 358.347 270.372 360.25C258.921 364.819 247.428 368.628 234.705 368.117C226.072 367.77 217.923 366.915 210.105 360.838C225.477 365.718 240.15 369.518 255.634 365.253C264.968 362.681 273.309 359.004 278.802 350.572C281.534 346.531 283.868 342.286 284.456 337.366C285.378 329.66 281.971 327.002 274.899 329.806C272.792 330.642 270.688 331.652 269.095 333.23C260.872 341.387 250.187 343.64 239.507 346.364C230.945 348.548 223.049 348.471 215.475 343.689C208.262 341.02 201.245 337.949 197.195 335.214C209.419 341.712 223.873 343.273 238.382 333.54C239.24 323.922 230.139 322.034 225.144 317.206C221.683 313.86 218.357 312.488 222.062 306.733C224.978 302.207 220.868 300.491 216.669 300.895C212.481 301.297 208.607 303.404 204.324 303.473C199.471 303.55 198.524 301.352 200.963 297.428C203.027 294.11 206.336 291.771 208.348 288.416C213.004 280.663 210.007 273.098 201.543 271.06C197.944 274.008 195.016 277.613 193.67 281.989C192.143 286.958 191.081 290.491 184.779 286.427C181.36 284.222 179.388 287.727 178.978 290.746C175.184 318.57 164.573 345.635 169.492 374.423C170.379 379.606 169.09 384.101 165.936 388.105C161.958 393.154 160.127 399.06 159.599 405.243C155.997 447.46 156.014 489.493 167.219 530.806C168.155 534.253 168.189 540.364 172.712 539.549C176.871 538.8 175.623 533.068 175.077 529.314C174.282 523.855 173.447 518.399 172.787 512.894C176.498 528.217 177.778 544.023 182.345 559.215C189.463 582.894 196.77 606.59 209.278 627.947C227.266 658.658 247.124 688.16 275.108 711.072C278.156 713.567 281.158 716.006 282.226 720.033C288.951 724.212 294.688 732.053 304.189 725.974C305.233 721.675 301.743 720.357 299.146 718.704C293.586 715.165 288.704 710.791 284.884 705.57C264.029 677.061 241.134 649.817 227.481 616.69C219.944 598.401 212.843 579.952 203.01 562.697C200.972 559.12 199.901 554.93 199.939 549.537C218.443 563.34 237.977 574.002 258.068 583.726C267.014 586.109 275.869 591.579 285.079 584.521C285.515 582.928 285.079 581.571 283.954 580.408C278.837 577.079 273.076 575.05 267.247 572.521C285.366 573.801 295.791 567.817 301.686 552.95C306.379 541.116 304.367 536.969 292.688 531.797C290.022 530.617 282.347 532.279 286.305 524.636L286.31 524.633Z" fill="#BDCAB8"/>
<path d="M282.232 720.033C282.863 709.448 273.059 706.314 267.531 700.496C259.104 691.624 250.494 683.002 242.891 673.353C228.525 655.122 216.149 635.536 205.934 614.859C190.998 584.622 181.397 552.513 177.087 518.921C176.424 513.749 176.136 504.171 172.018 505.052C166.186 506.301 170.7 514.091 170.844 519.197C171.025 525.626 174.624 531.693 172.494 539.345C165.893 519.446 164.366 499.674 161.283 480.117C157.696 457.359 162.116 434.935 161.694 412.358C161.533 403.658 162.805 395.048 169.291 388.111C173.045 384.095 173.329 379.492 172.322 373.763C169.782 359.332 170.336 344.553 173.72 330.372C177.072 316.325 180.307 302.316 181.685 288.137C185.04 287.185 185.261 289.926 186.552 291.079C188.249 292.592 189.738 294.653 192.313 293.952C195.272 293.149 194.916 290.376 194.663 288.267C193.779 280.839 201.546 277.498 202.542 271.026C205.312 263.092 197.422 258.351 196.713 251.457C195.504 247.711 192.29 245.246 190.625 241.79C188.383 236.03 186.383 230.189 185.642 224.044C183.059 202.604 174.813 183.517 162.265 166.078C156.232 157.694 149.329 149.362 154.157 137.784C154.527 135.531 155.689 133.542 156.355 131.404C158.31 125.138 156.06 122.719 149.625 124.547C139.97 132.965 139.674 143.771 142.998 154.735C145.902 164.313 148.996 174.189 154.082 182.694C179.489 225.192 179.621 270.061 168.574 316.426C158.468 358.844 151.16 401.612 151.846 445.522C152.969 517.225 174.44 582.934 211.106 643.667C229.272 673.757 252.976 699.741 282.223 720.033H282.232Z" fill="#D2D3C2"/>
<path d="M284.804 583.009C275.209 588.747 266.343 582.665 257.184 581.31C254.687 579.553 252.537 580.647 251.605 582.869C249.512 587.863 248.353 589.16 242.908 590.121C238.72 590.862 234.51 590.581 230.317 590.084C227.022 589.694 223.652 589.341 221.723 592.842C219.818 596.307 221.818 599.271 223.83 601.717C230.716 610.086 238.961 616.731 249.254 620.585C253.117 622.032 257.219 622.841 261.082 624.879C258.711 626.021 256.538 624.649 254.386 624.974C248.396 625.878 246.774 629.4 248.924 634.718C250.155 637.76 252.733 639.936 255.063 642.18C266.495 653.196 277.1 665.033 288.693 675.893C297.254 683.915 304.74 692.796 309.834 703.521C311.192 706.383 312.412 709.586 316.074 710.481C320.537 703.955 322.403 696.507 323.723 688.866C325.431 665.888 325.279 642.806 323.964 619.917C323.255 607.566 316.484 595.589 309.1 585.5C303.141 577.361 293.239 581.339 284.809 583.009H284.804Z" fill="#6DA7A7"/>
<path d="M316.071 710.482C307.581 688.054 289.221 673.511 273.3 657.034C266.297 649.787 259.082 642.746 251.984 635.591C250.052 633.642 248.62 631.472 250.391 628.691C251.961 626.225 254.085 626.992 256.424 627.531C260.138 628.39 263.981 628.958 268.668 626.475C263.591 621.157 256.892 620.758 251.174 618.743C240.4 614.949 232.131 608.083 225.171 599.364C223.856 597.716 221.551 596.1 223.21 593.451C224.8 590.911 226.993 592.226 229.249 592.415C236.235 592.998 243.402 594.849 249.926 590.15C253.677 587.45 257.933 593.265 262.023 589.763C261.226 586.026 257.437 586.953 255.273 585.461C254.337 584.815 252.15 584.895 253.066 583.296C253.689 582.206 255.761 581.942 257.184 581.31C237.019 569.916 216.167 559.684 197.23 544.369C196.222 552.586 197.735 559.164 201.136 564.414C213.578 583.609 219.252 605.796 229.327 626.039C240.205 647.898 252.905 668.428 268.499 687.124C275.754 695.824 280.829 706.053 289.078 714.133C293.776 718.733 300.687 720.143 304.195 725.969C310.391 722.519 314.022 717.109 316.071 710.482Z" fill="#92B6AF"/>
<path d="M151.927 136.536C145.77 147.956 151.907 156.888 158.319 165.315C172.147 183.495 180.993 203.479 183.338 226.392C183.943 232.296 185.476 238.395 188.771 243.69C192.938 245.177 194.747 251.423 200.582 249.54C196.159 232.247 203.173 223.525 221.281 223.516C225.822 223.516 229.608 221.094 231.175 216.94C234.567 207.943 234.59 198.445 234.056 188.959C226.459 190.348 223.666 186.609 224.915 179.68C225.796 174.795 224.852 169.092 229.837 165.576C229.872 163.556 229.906 161.535 229.941 159.514C225.36 155.657 222.837 162 218.692 161.767C213.253 161.463 207.901 161.185 202.668 159.603C200.28 166.541 202.927 169.434 210.053 170.355C212.332 170.651 217.524 168.552 217.504 173.937C217.49 177.639 218.147 182.86 213.675 183.945C209.244 185.019 206.945 181.25 206.443 176.816C205.963 172.571 204.804 169.477 199.953 173.481C198.142 174.976 196.185 174.29 194.6 173.056C183.005 164.049 171.94 154.569 168.152 139.452C167.07 135.132 167.601 129.338 162.397 128.1C156.424 126.677 155.024 133.146 151.927 136.536Z" fill="#799791"/>
<path d="M261.553 716.31C262.744 716.097 263.932 715.885 265.124 715.673C243.348 698.885 228.076 676.22 210.703 655.457C204.675 667.133 205.255 679.641 206.053 692.166C209.724 707.685 207.482 711.896 192.649 716.93C178.275 721.809 162.716 722.458 148.96 729.817C143.613 732.678 138.507 736.467 132.25 737.503C128.917 744.756 133.518 747.618 139.104 746.731C163.638 742.836 188.72 743.86 213.027 737.833C226.79 734.421 239.117 728.752 250.397 720.222C253.399 717.952 256.065 712.375 261.553 716.31Z" fill="#415E5D"/>
<path d="M276.449 758.814C275.628 762.166 272.6 766.144 275.639 768.765C277.964 770.771 281.641 768.05 284.528 766.69C299.045 759.029 314.145 762.35 329.231 764.133C338.126 765.183 345.987 762.542 351.822 755.445C353.708 753.151 354.724 750.195 353.128 747.244C351.452 744.15 348.616 743.697 345.559 744.828C340.215 746.808 339.426 744.122 339.696 739.63C340.651 723.675 338.47 707.895 336.774 692.1C333.146 687.611 331.935 691.845 330.936 694.069C328.602 699.276 326.869 704.766 324.507 709.95C323.051 713.138 322.693 717.59 317.971 718.414C310.047 727.435 301.146 735.29 291.247 742.15C285.076 746.426 280.544 752.508 276.452 758.811L276.449 758.814Z" fill="#70776F"/>
<path d="M132.249 737.507C132.464 739.224 133.064 741.109 135.114 739.775C154.642 727.043 177.689 724.5 199.141 717.336C210.438 713.564 212.949 706.217 208.314 694.573C192.755 703.989 175.456 707.422 157.693 709.038C153.907 709.383 149.955 709.899 146.189 708.441C128.842 710.186 112.339 714.414 98.1028 725.094C95.6546 726.931 91.467 729.109 94.2339 732.499C96.6993 735.518 99.2796 731.563 101.455 729.985C112.577 721.919 124.422 715.654 138.437 714.5C129.31 718.983 119.276 721.526 110.904 727.579C108.123 729.591 103.878 730.966 106.274 735.665C108.539 740.108 112.138 742.915 117.359 740.621C121.185 738.939 125.473 737.266 128.205 734.33C138.319 723.452 151.683 719.93 165.44 716.856C153.339 722.132 140.908 726.836 132.249 737.507Z" fill="#7C7F76"/>
<path d="M284.804 583.009C290.137 583.675 295.12 585.836 300.926 583.687C306.239 581.718 307.863 587.05 309.714 590.764C319.131 609.673 326.347 628.86 323.804 650.863C322.36 663.365 323.658 676.186 323.721 688.863C326.152 686.108 325.334 682.773 325.339 679.601C325.403 650.538 325.537 621.475 325.454 592.415C325.428 583.994 326.752 575.796 329.108 567.513C329.315 571.414 329.521 575.314 329.728 579.215C334.848 561.529 329.656 549.506 313.784 542.29C311.583 544.133 311.5 546.765 311.106 549.314C308.781 564.434 306.095 567.241 290.688 570.613C288.794 571.026 286.92 571.422 285.106 572.143C280.223 574.083 279.736 577.168 282.634 581.204C283.358 581.807 284.081 582.409 284.804 583.009Z" fill="#69807B"/>
<path d="M151.927 136.536C153.167 135.5 154.375 134.429 155.65 133.436C157.607 131.909 159.025 128.606 161.855 129.602C164.872 130.664 165.064 134.05 165.402 136.981C167.704 156.877 183.126 166.905 196.811 178.024C201.305 181.675 201.549 175.2 205.166 172.312C200.301 183.423 209.25 189.163 213.966 187.837C222.289 185.495 219.272 175.444 219.964 168.217C212.396 168.423 205.148 168.693 202.674 159.609C189.515 151.561 180.009 139.96 171.217 127.59C164.622 118.307 159.226 117.676 149.637 124.547C161.904 126.344 150.627 132.644 151.93 136.536H151.927Z" fill="#B4BEB4"/>
<path d="M317.969 718.414C321.599 719.023 321.906 719.172 323.634 715.622C327.661 707.338 331.361 698.897 335.195 690.519C341.079 683.525 344.308 676.079 339.17 667.205C337.81 646.104 340.258 624.408 329.426 604.788C329.426 623.886 328.014 643.159 330.356 661.964C330.988 667.03 332.354 672.144 331.277 677.305C329.825 684.262 328 691.159 325.962 697.97C323.864 704.985 322.587 712.367 317.971 718.417L317.969 718.414Z" fill="#B5AA9D"/>
<path d="M146.19 708.44C167.613 712.172 187.563 707.292 206.693 697.93C207.571 697.499 207.789 695.723 208.315 694.572C207.439 681.432 210.235 668.514 210.7 655.457C208.185 650.618 205.671 645.779 202.485 639.651C199.681 645.033 200.993 649.467 200.884 653.623C200.634 663.02 200.932 672.431 200.577 681.823C199.994 697.187 195.901 701.836 180.623 704.158C169.194 705.895 157.673 707.037 146.193 708.446L146.19 708.44Z" fill="#C2B9A8"/>
<path d="M227.871 151.871C226.358 146.888 223.319 142.635 222.211 137.314C220.173 127.538 212.751 125.494 203.831 126.918C199.942 127.538 201.494 129.745 202.304 131.837C204.959 138.694 207.568 145.571 210.194 152.442C216.321 159.517 222.027 153.622 227.871 151.871Z" fill="#898980"/>
<path d="M760.34 665.282C756.56 670.084 760.427 676.094 757.344 682.199C753.438 672.776 750.06 664.005 746.199 655.457C740.117 641.993 728.335 633.466 717.498 624.457C711.146 619.179 702.837 616.248 700.328 607.193C699.898 605.643 698.839 603.866 697.019 604.179C694.743 604.569 694.542 606.777 694.315 608.751C693.779 613.45 695.337 618.352 693.098 623.191C688.908 622.209 691.896 617.729 689.135 616.11C687.654 620.436 688.535 625.657 684.054 629.692C681.839 625.496 682.783 621.595 682.674 617.916C682.519 612.686 683.122 608.045 675.809 606.105C669.534 604.44 674.847 597.265 671.922 593.063C668.315 599.34 669.887 607.354 664.839 614.879C663.28 608.622 659.782 605.304 655.344 602.799C651.88 600.841 648.84 596.834 646.203 604.208C644.822 608.071 640.684 606.989 638.247 604.099C635.968 601.395 633.887 598.422 632.271 595.285C625.592 582.32 621.729 580.116 606.135 588.281C598.716 592.165 592.227 597.819 584.001 600.187C580.89 601.082 576.759 602.219 574.813 599.656C572.506 596.616 576.848 594.897 578.496 592.782C584.862 584.61 591.423 576.608 595.255 566.778C596.414 563.802 597.407 561.374 593.756 559.422C589.087 556.925 589.127 560.934 588.151 563.357C586.664 567.057 584.799 569.376 580.166 567.897C577.015 566.89 574.822 569.321 572.569 571.281C563.14 579.484 552.065 583.933 539.62 583.121C528.581 582.4 518.423 586.832 506.518 584.272C485.437 579.737 475.532 566.175 468.081 548.63C466.649 545.261 466.548 538.846 462.507 540.223C456.942 542.123 448.084 537.692 445.811 547.471C444.936 551.233 443.535 554.91 442.037 558.483C440.7 561.672 439.79 565.547 435.103 565.561C433.889 574.028 431.994 582.432 432.755 591.08C432.402 592.081 432.901 593.671 433.406 593.502C444.256 589.825 452.272 598.453 460.722 601.659C469.499 604.991 481.02 610.376 482.762 623.504C483.838 631.612 487.664 638.951 491.78 646.003C493.465 648.888 495.6 651.881 499.426 650.492C503.668 648.954 502.414 645.311 501.412 642.203C500.043 637.955 499.058 633.598 497.379 628.983C499.19 632.895 499.773 636.724 501.053 640.349C504.787 650.92 510.947 655.566 522.269 654.427C526.497 654.002 528.096 654.51 528.727 658.692C529.769 665.603 534.396 669.246 540.834 671.206C548.936 673.674 555.859 679.168 564.128 681.065C586.555 686.214 607.967 682.612 628.376 672.449C632.727 670.282 636.72 667.389 641.427 665.942C646.915 664.254 649.555 665.236 647.905 671.889C644.977 683.691 647.434 686.335 659.512 685.017C665.327 684.383 670.967 682.572 676.779 681.96C685.889 681.005 694.875 681.099 703.574 684.899C711.117 688.194 718.585 689.475 727.133 686.639C739.294 682.603 749.178 688.852 758.122 704.161C765.541 703.633 762.361 695.617 766.276 692.606C762.106 690.215 759.933 687.147 760.521 681.823C761.124 676.384 760.449 670.804 760.335 665.285L760.34 665.282Z" fill="#4A6765"/>
<path d="M442.591 366.651C446.342 362.902 443.495 358.804 442.99 353.967C449.207 356.482 451.09 362.4 454.884 366.283C478.238 390.186 505.026 409.376 534.293 425.311C566.748 442.983 601.127 457.537 629.639 481.744C667.221 513.657 706.347 544.047 733.588 586.358C739.5 595.543 741.865 606.742 750.088 614.506C732.953 560.869 697.441 520.589 655.789 484.775C624.559 457.922 589.586 436.984 552.564 419.22C523.888 405.461 495.316 391.512 470.589 370.967C455.263 358.232 443.001 342.871 430.734 324.824C432.253 340.92 440.06 353.049 442.591 366.651Z" fill="#CDBFAA"/>
<path d="M393.672 249.511C399.142 277.931 402.176 307.069 417.319 332.7C420.246 337.653 423.989 342.168 427.686 346.608C430.037 349.433 430.516 346.608 431.173 344.947C426.871 314.21 411.587 286.556 406.415 255.989C403.335 237.781 401.852 219.257 396.281 200.692C397.555 217.578 396.085 233.573 393.672 249.508V249.511Z" fill="#CABBA8"/>
<path d="M778.167 719.82C773.359 714 769.16 707.794 759.706 709.204C755.633 709.809 756.905 706.391 758.681 704.207C757.625 690.536 739.867 678.639 726.475 683.797C719.759 686.383 714.045 686.745 707.983 683.734C693.4 676.49 678.486 678.347 663.449 681.659C660.944 682.213 658.372 682.526 655.812 682.772C648.746 683.45 645.907 681.492 649.678 674.053C651.392 670.672 655.074 666.398 650.981 662.664C647.196 659.208 642.799 662.46 639.096 663.858C629.734 667.394 622.07 674.509 611.999 676.751C589.807 681.687 568.493 683.369 547.11 671.343C537.432 665.902 528.374 662.848 530.596 649.461C513.627 655.434 505.668 650.914 501.044 633.627C499.859 629.189 499.469 624.181 494.4 620.257C494.268 629.611 498.608 636.769 499.75 644.608C499.977 646.163 501.159 647.969 499.354 648.91C497.187 650.041 495.858 648.431 494.79 646.6C489.521 637.564 485.758 627.924 483.806 617.677C482.807 612.442 480.155 610.631 475.305 607.939C467.567 603.645 461.353 598.011 451.847 595.531C445.96 593.995 441.658 586.734 434.13 592.305C434.032 592.377 433.231 591.504 432.76 591.071C430.011 593.723 430.995 597.173 430.958 600.304C430.568 634.02 426.311 667.351 421.67 700.688C420.112 711.873 419.167 723.164 417.328 734.338C416.277 740.709 417.979 744.283 425.68 742.793C446.704 738.726 467.69 742.673 488.582 744.343C498.849 745.164 510.608 748.123 519.147 745.876C529.307 743.204 537.059 747.512 545.888 747.446C556.84 747.365 567.753 749.633 578.829 749.288C589.867 748.944 600.934 748.958 611.976 749.294C626.651 749.739 641.002 748.111 655.183 743.666C655.953 745.703 650.037 749.702 657.692 749.363C679.405 748.407 699.846 743.238 719.277 733.686C720.66 733.006 722.092 732.432 723.809 731.671C724.489 735.971 718.953 735.015 719.248 738.35C741.041 747.629 761.035 745.238 773.11 731.981C776.278 728.503 778.629 724.766 778.167 719.815V719.82Z" fill="#335558"/>
<path d="M430.763 509.111C429.216 508.672 427.379 508.626 426.168 507.73C416.754 500.761 407.693 500.084 398.537 508.324C397.478 509.277 394.522 509.182 393.035 508.419C383.348 503.448 383.678 510.959 384.425 516.065C386.471 530.057 388.988 544.029 392.251 557.789C397.934 581.749 391.528 601.045 371.833 615.932C367.743 619.023 362.85 619.428 358.183 620.151C354.322 620.751 350.393 621.753 349.742 625.444C347.959 635.558 341.8 644.683 343.005 655.426C341.082 665.135 341.091 675.046 340.259 684.853C339.802 690.229 341.209 695.814 346.934 698.742C349.067 699.127 350.221 697.723 349.942 696.058C348.585 687.976 352.873 683.803 359.187 679.696C365.519 675.577 369.503 668.1 377.978 666.786C379.729 666.513 381.13 664.389 381.887 662.61C386.68 651.353 396.562 644.556 404.998 636.635C413.838 628.334 420.233 619.158 420.979 606.736C421.097 605.413 421.214 604.093 421.332 602.77C420.451 602.267 419.535 602.316 418.568 602.5C415.548 603.08 412.911 607.936 410.144 605.189C407.366 602.434 410.575 598.611 411.866 595.465C413.198 592.222 414.797 589.065 416.768 586.054C420.643 586.08 420.221 592.779 424.897 591.037C429.856 576.1 428.771 560.389 430.439 545.057C431.728 533.203 430.74 521.102 430.763 509.111Z" fill="#4C6764"/>
<path d="M348.906 698.407C341.943 694.142 342.721 686.923 342.508 680.405C342.236 672.093 342.804 663.752 343.008 655.423C339.036 658.471 343.151 664.157 339.168 667.202C340.786 675.477 336.254 682.701 335.192 690.517C333.858 709.198 339.63 727.688 336.234 746.562C335.184 752.403 340.422 750.316 343.694 748.804C346.28 747.61 348.915 743.127 351.641 747.836C353.533 751.103 350.875 754.676 348.358 756.12C342.115 759.699 335.919 762.153 327.747 761.473C313.259 760.267 297.324 752.42 284.523 766.688C281.512 777.815 283.527 780.418 295.894 780.16C302.992 780.011 310.061 778.874 317.162 778.553C321.869 778.341 323.169 774.15 327.431 769.394C324.22 783.068 331.846 782.31 339.058 782.253C347.827 782.181 356.595 782.301 365.361 782.264C372.126 782.235 377.143 780.817 374.571 772.012C373.607 768.705 373.693 764.894 378.21 762.181C378.21 765.293 378.291 767.862 378.196 770.422C377.943 777.086 380.986 781.036 387.731 781.242C396.275 781.506 404.619 786.136 413.338 782.468C421.745 779.517 424.489 774.408 420.023 766.062C417.428 761.214 415.379 756.074 413.086 751.065C412.405 746.832 411.168 742.951 406.84 740.957C406.266 740.693 405.546 740.265 405.373 739.734C400.687 725.32 387.556 721.606 375.768 716.004C368.739 712.663 362.622 707.852 357.092 702.293C354.928 700.117 352.809 697.187 348.9 698.407H348.906Z" fill="#536A65"/>
<path d="M348.906 698.407C357.637 705.548 365.266 714.026 375.765 719.015C379.834 720.949 383.287 723.994 388.172 723.868C391.459 723.785 394.228 725.952 395.239 728.4C399.079 737.728 406.94 743.687 413.088 751.066C412.531 724.135 417.204 697.71 420.596 671.143C422.517 656.109 423.639 640.967 424.856 625.852C425.372 619.446 424.417 612.919 426.908 607.512C424.56 603.101 422.918 613.201 420.972 606.731C415.683 624.971 402.385 636.917 388.336 648.274C384.935 651.024 383.468 655.027 381.399 658.675C379.14 662.656 377.998 668.067 370.934 665.974C367.814 665.05 366.063 668.523 364.562 671.011C362.516 674.41 360.048 677.593 356.328 678.956C346.205 682.67 345.53 689.693 348.9 698.404L348.906 698.407Z" fill="#3F605E"/>
<path d="M424.896 591.039C424.357 590.698 423.828 590.336 423.275 590.023C419.598 587.937 422.801 580.517 418.166 581C413.651 581.467 413.361 587.911 411.157 591.674C409.555 594.409 408.416 597.445 407.342 600.445C406.309 603.329 403.978 606.67 407.509 609.161C410.858 611.524 413.427 608.453 416.002 606.791C417.864 605.591 419.555 604.124 421.323 602.775C423.9 599.285 425.045 595.362 424.89 591.045L424.896 591.039Z" fill="#3F605E"/>
<path d="M437.003 544.222C439.927 535.124 439.345 525.922 439.124 515.853C435.502 518.109 437.479 520.919 435.433 523.092C435.108 520.733 434.844 518.792 434.577 516.852C432.743 523.675 430.421 530.356 436.245 536.791C437.591 538.278 436.805 541.693 437.003 544.222Z" fill="#4C6764"/>
<path d="M434.561 515.063C434.302 507.727 436.621 500.09 430.936 493.216C430.936 497.886 430.936 502.552 430.936 507.222C434.139 508.913 431.843 513.149 434.561 515.063Z" fill="#4C6764"/>
<path d="M194.865 251.322C194.509 259.028 201.165 264 202.548 271.026C210.547 279.444 210.607 283.209 202.858 291.214C202.407 291.679 201.977 292.17 201.483 292.581C197.821 295.623 194.161 300.425 196.113 304.041C198.593 308.63 204.744 306.039 209.327 305.493C213.251 305.026 216.715 301.633 222.481 303.725C211.336 311.555 217.169 314.919 224.545 320.111C229.304 323.461 236.732 325.651 237.561 333.388C246.631 334.528 250.904 326.888 258.648 321.724C255.726 330.88 250.041 335.332 243.1 338.311C236.832 341.003 230.17 342.467 223.293 342.797C220.131 342.949 216.712 342.384 214.244 345.222C227.607 352.498 254.461 349.59 265.703 339.562C270.381 335.389 276.314 327.751 281.265 331.928C286.015 335.937 279.704 343.606 276.931 349.309C278.777 355.555 268.926 356.421 270.786 362.676C277.419 359.854 284.939 362.911 291.526 359.536C292.817 358.875 294.135 359.759 294.743 360.982C295.702 362.908 293.985 363.924 292.938 365.023C283.512 374.902 270.703 376.162 258.327 378.249C254.251 378.935 249.963 378.358 245.695 379.368C254.099 383.722 263.137 382.726 271.946 381.449C278.949 380.433 285.464 377.661 291.755 374.033C297.082 370.959 302.783 366.496 309.748 370.594C310.078 367.058 312.271 364.489 314.874 362.638C329.245 352.412 325.465 332.088 311.534 320.932C308.331 318.366 304.786 316.228 301.238 313.785C303.982 310.459 307.909 313.573 310.357 310.932C305.954 306.392 301.534 301.837 297.128 297.293C302.113 291.618 301.021 286.979 293.853 283.376C292.174 282.532 289.52 282.176 289.7 279.897C289.933 276.97 292.786 277.26 294.979 276.961C303.302 275.825 311.359 274.143 316.043 267.3C286.385 265.308 256.659 263.405 226.956 261.19C223.236 260.911 219.637 258.98 215.983 257.814C209.201 254.821 202.433 251.778 194.87 251.328L194.865 251.322Z" fill="#A1B4A9"/>
<path d="M282.634 581.204C282.68 577.74 281.882 574.445 287.292 573.486C311.361 569.23 313.64 566.322 313.781 542.291C311.161 531.66 301.832 529.803 293.411 526.898C291.075 526.091 288.11 527.231 286.311 524.633C283.484 525.156 279.804 525.667 279.95 529.002C280.065 531.585 283.719 531.823 286.184 532.538C304.088 537.71 306.643 545.637 294.683 560.221C288.736 567.473 282.545 574.841 271.07 569.945C268.18 568.713 264.32 569.761 257.936 569.761C267.353 575.742 274.738 578.991 282.631 581.207L282.634 581.204Z" fill="#849D93"/>
<path d="M229.84 165.582C228.001 166.207 224.892 163.289 224.295 166.833C223.196 173.374 222.702 180.024 222.082 186.643C221.706 190.655 225.127 190.833 227.679 191.91C230.951 193.29 233.264 192.843 234.057 188.965C233.543 181.009 233.485 172.972 229.84 165.582Z" fill="#A0ABA0"/>
<path d="M194.865 251.322C201.957 253.311 208.331 257.622 215.978 257.809C216.882 253.325 212.906 254.284 210.894 253.664C207.324 252.562 203.527 252.192 200.585 249.548C196.125 248.658 193.582 243.891 188.774 243.699C190.806 246.242 192.835 248.785 194.868 251.325L194.865 251.322Z" fill="#4B5549"/>
<path d="M300.601 96.6232C307.96 108.247 307.222 109.556 292.926 112.343C294.901 117.007 298.715 117.32 302.478 116.324C306.947 115.141 307.954 111.304 308.009 107.111C308.069 102.642 308.497 98.0382 300.601 96.6232Z" fill="#C4B7B5"/>
<path d="M214.244 345.219C228.658 345.403 242.733 344.45 254.217 334.06C259.216 329.537 261.645 324.075 261.624 315.843C252.813 322.134 246.817 330.134 237.561 333.385C220.561 339.769 204.198 340.225 188.757 327.226C192.732 336.448 199.204 340.842 214.244 345.219Z" fill="#8A9C8F"/>
<path d="M270.786 362.672C273.493 359.627 276.285 356.651 278.883 353.511C280.975 350.982 280.074 349.547 276.928 349.303C261.705 367.497 242.084 366.22 221.801 361.616C215.92 360.282 210.151 358.45 201.578 356.088C209.784 365.801 217.711 369.736 227.401 370.7C242.661 372.219 256.963 368.806 270.786 362.672Z" fill="#8F9989"/>
<path d="M247.202 716.098C242.076 714.792 236.953 713.484 229.889 711.684C235.624 718.745 241.45 718.136 247.202 716.098Z" fill="#28241E"/>
</g>
</g>
<defs>
<filter id="filter0_d_480_1153" x="6" y="6.10718" width="864" height="833.786" filterUnits="userSpaceOnUse" color-interpolation-filters="sRGB">
<feFlood flood-opacity="0" result="BackgroundImageFix"/>
<feColorMatrix in="SourceAlpha" type="matrix" values="0 0 0 0 0 0 0 0 0 0 0 0 0 0 0 0 0 0 127 0" result="hardAlpha"/>
<feMorphology radius="4" operator="dilate" in="SourceAlpha" result="effect1_dropShadow_480_1153"/>
<feOffset dx="8" dy="8"/>
<feGaussianBlur stdDeviation="10"/>
<feColorMatrix type="matrix" values="0 0 0 0 0 0 0 0 0 0 0 0 0 0 0 0 0 0 0.25 0"/>
<feBlend mode="normal" in2="BackgroundImageFix" result="effect1_dropShadow_480_1153"/>
<feBlend mode="normal" in="SourceGraphic" in2="effect1_dropShadow_480_1153" result="shape"/>
</filter>
<filter id="filter1_d_480_1153" x="57.0183" y="32.6487" width="744.982" height="779.915" filterUnits="userSpaceOnUse" color-interpolation-filters="sRGB">
<feFlood flood-opacity="0" result="BackgroundImageFix"/>
<feColorMatrix in="SourceAlpha" type="matrix" values="0 0 0 0 0 0 0 0 0 0 0 0 0 0 0 0 0 0 127 0" result="hardAlpha"/>
<feMorphology radius="6" operator="dilate" in="SourceAlpha" result="effect1_dropShadow_480_1153"/>
<feOffset dy="8"/>
<feGaussianBlur stdDeviation="6"/>
<feColorMatrix type="matrix" values="0 0 0 0 0 0 0 0 0 0 0 0 0 0 0 0 0 0 0.3 0"/>
<feBlend mode="normal" in2="BackgroundImageFix" result="effect1_dropShadow_480_1153"/>
<feBlend mode="normal" in="SourceGraphic" in2="effect1_dropShadow_480_1153" result="shape"/>
</filter>
<clipPath id="clip0_480_1153">
<rect width="860" height="830" fill="white"/>
</clipPath>
</defs>
</svg>
