<?xml version="1.0" encoding="utf-8"?>
<!-- Generator: Adobe Illustrator 25.4.1, SVG Export Plug-In . SVG Version: 6.00 Build 0)  -->
<svg version="1.1" id="Capa_1" xmlns="http://www.w3.org/2000/svg" xmlns:xlink="http://www.w3.org/1999/xlink" x="0px" y="0px"
	 viewBox="0 0 1080 1350" style="enable-background:new 0 0 1080 1350;" xml:space="preserve">
<style type="text/css">
	.st0{fill:#ABAB93;}
	.st1{fill:none;}
	.st2{fill:#BBD9D9;}
	.st3{fill:#084954;}
	.st4{fill:#000202;}
	.st5{fill:#071519;}
	.st6{fill:#065066;}
	.st7{fill:#042F3D;}
	.st8{fill:#0B3F4F;}
	.st9{fill:#063B44;}
	.st10{fill:#064351;}
	.st11{fill:#0A2428;}
	.st12{fill:#0F5560;}
	.st13{fill:#052A30;}
	.st14{fill:none;stroke:#FFFFFF;stroke-width:2.1147;stroke-miterlimit:10;}
	.st15{fill:none;stroke:#FFFFFF;stroke-width:1.0573;stroke-miterlimit:10;}
</style>
<g>
	<path class="st0" d="M913.4,766.5c0,0,1.1-4.8-0.6-6.6c0,0,0.2,6.4-2.3,6.3c0,0,1.7-3.5,0.3-5.9c0,0-1.4,5.9-2.8,5.8
		c0,0,0.8-4.3-0.2-6c0,0-1.1,5.9-2.1,5.9c0,0,0.6-2.4-1-5.4c0,0,0.6,2.8-1.4,5.2c0,0,0.2-4.1-1.1-5.6c0,0,0.3,3.7-1.3,5.3
		c0,0-0.1-3.9-0.8-4.9c0,0,0.4,3.2-1.3,4.6c0,0,0.5-3.8-1-4.8c0,0,0.1,3.4-1.1,4.5c0,0,0-3.1-1.7-4.5c0,0-0.2,2.6-1,4
		c0,0,0.1-3.2-1.1-4.4c0,0,0.9,2.7-0.8,4c0,0,0.3-2.9-0.9-4c0,0,0.9,1.9-0.8,3.7c0,0,0.6-2.5-1.3-3.9c0,0,0.7,1.8-0.9,3.4
		c0,0,0.6-2.4-1.5-3.8c0,0,1.5,1.7-0.9,3.3c0,0,0.4-1.8-0.6-3.1c0,0,0.2,1-2.2,2.2c0,0,0.9-0.5-0.2-2l-1.3,1.7l-1.3-1.4l-0.5,1.4
		C879.9,761.4,898.1,769.1,913.4,766.5z"/>
	<path class="st1" d="M437.3,864.6"/>
	<g>
		<g>
			<path class="st2" d="M262.5,816.5c0,0,6.9,4,16.3,0.7c0,0,6.8,5.1,10-3c0,0,5.5,4,11.4,3.1c5.9-0.9,7.2-4.3,7.2-4.3l3.2,4.1
				l4-1.2l1.4-2.7l3.1,0.9l4.9,3.1l3.1-5.8l1.6,5.2l2.4-0.7l5.7,0.6l-2.1-7l7.4-2.2l2.1,7c0,0,8.3,3.5,9.2,1.8
				c0.9-1.7,1.3-4.2,1.3-4.2l-1.4-4.4c0,0,4.7-2.3,5.1-1c0.4,1.3,1.3,4.3,1.3,4.3l4.9-1.9l3.4-2.5l-0.3,5.5l2.7,2.7l2-4.4l3.2-1.8
				l3.5,3.8l3-0.9l-6-7.3l3.6-0.7l8.3,4l-2.1,8.7c2.9,3.4,3,3.7,3,3.7l4.6,5.6l5.4-1.6l2.1,6.8l-5.9-1.1l-3.6,4l1.3,6.1
				c0,0,3.7,4.5,12.5-3.8c0,0,10.5-1.3,13-4s-8-6.1-2.8-9.1c5.2-3,4,8.3,8.5,3.1c0,0-0.5-4.6,3.7-4.9c4.2-0.3,8.7,5.4,13.6,1
				c4.8-4.3,7,5.7,13.6,1.2c6.6-4.6,5.9-0.9,8,1.4c2.1,2.4,6.5,1.1,11.2-3.5c4.7-4.6,6.7-4.3,10.6-0.9c3.9,3.3,13.8,1.7,16.7-1.1
				c2.9-2.8,8.5-1.7,10.9,0c2.4,1.6,10.8,1.4,10.3-3.2c-0.4-4.6,6.2-1.6,9,0c2.9,1.6,10,0.3,16.1-3s14.2-3,16.9-0.5
				c2.7,2.5,8.1-3,11.2-3.5c3.2-0.5,5.4,6.9,7.2,6.3c1.7-0.5,6.8-4,9.3-5.2c2.5-1.2,4.5,5.2,7.4,3.9c2.9-1.3,13.7-4.7,19.2-0.7
				c0,0-2.2,2.1,6.4,3.7c0,0,6,1,19.5-1.3s46.8-18.7,51.5-15.8c0,0,18,3,18.7,13.2c0,0,4.1-2.2,7.6,0c3.5,2.2,8,2.8,9.2-0.9
				c1.2-3.7,7.2-7.4,10.3-3.6c0,0,1.6-5.7-2-6.5s-5.6-4.4-11.3-4.6c-5.7-0.1-10-1.7-5.9-5.3c4.1-3.6,8.3,0.8,10.5-6.1
				c2.2-6.8,1.9-12.4,6.6-0.1c0,0,2.9,4.8,5.9,0.6c3-4.2,1.9-9.1,6.9-11.6c4.9-2.5,12.5-7.2,16.2-1.2c3.7,6,4.5,8.6,6.2,0
				c1.6-8.6,13.5-3.7,9.9-0.2c-3.7,3.5,1.9,4.6,7.3,2s15.5,9,29,3.4c13.4-5.6,12.1-13.2,12.4-15.2c0.3-2,0.3-2,0.3-2
				s6.2-1.4,7.2,4.9c0,0,6.7,3.2,9.3,0.9c0,0,12.5-1,22.7-9.3c10.2-8.3,31.4-10.5,48.1-6.7c16.7,3.7,35.5-10.9,37.2-12.9
				s6.8-4,9.7-2.5c2.8,1.5,7.7,4.2,12.3,1c-6.9,4.8-13.9,9.2-13.9,9.2c-15.6,7.8-28.5,9-28.5,9c-19,4.8-29.4,0.4-29.4,0.4
				c-19.5-3.7-31.7,6.9-31.7,6.9c4.4-2.1,8.3,0,8.3,0c17.9,4.6,26.4,3.9,26.4,3.9c7.7,0.5,4.6,4.4,4.6,4.4
				c-30.2,24.7-55.3,27.1-55.3,27.1c-317.1,71.9-406.9,54.9-406.9,54.9C327,840,236.2,826.9,199.2,821.2c8.6-2.1,20-3.6,32-1.7
				C231.2,819.5,256.8,819.6,262.5,816.5z"/>
			<path class="st3" d="M473.4,729.3c3.7-1.3,7.3-2.6,10.8-3.8c11.5-14.5,10.9-23.7,10.9-23.7c3.4-18.1-11.9-67.1-11.9-67.1
				c-13.3-19.4,36.1,6.2,36.1,6.2c10.4,0.9,64.5,47.6,72.8,54.9c11.8-1.9,17.3-2.1,17.3-2.1c250-37.5,383.5,31.8,383.5,31.8
				c-0.4,2.2-6.5,7-12.8,11.5c-4.5,3.3-9.4,0.5-12.3-1c-2.8-1.5-7.9,0.5-9.7,2.5c-1.8,2-20.5,16.6-37.2,12.9
				c-16.7-3.7-37.9-1.6-48.1,6.7c-10.2,8.3-22.7,9.3-22.7,9.3c-2.6,2.2-9.3-0.9-9.3-0.9c-1-6.3-7.2-4.9-7.2-4.9s0,0-0.3,2
				c-0.3,2,1.1,9.6-12.4,15.2c-13.4,5.6-23.6-6-29-3.4s-10.9,1.5-7.3-2c3.7-3.5-8.3-8.4-9.9,0.2c-1.6,8.6-2.4,6-6.2,0
				c-3.7-6-11.3-1.3-16.2,1.2c-4.9,2.5-3.9,7.4-6.9,11.6c-3,4.2-5.9-0.6-5.9-0.6c-4.7-12.3-4.4-6.7-6.6,0.1
				c-2.2,6.8-6.4,2.4-10.5,6.1s0.2,5.2,5.9,5.3c5.7,0.1,7.8,3.8,11.3,4.6s2,6.5,2,6.5c-3.1-3.8-9-0.1-10.3,3.6
				c-1.2,3.7-5.7,3.2-9.2,0.9c-3.5-2.2-8.1,1.7-8.1,1.7c-0.8-10.2-25.4-8.5-25.4-8.5c-4.7-2.8-30.5,10.6-44.3,9.4
				c-4.6-0.4-23.5,8.3-23.5,8.3c-8.6-1.6-2.4-10.7-2.4-10.7c-5.5-4-16.3-0.7-19.2,0.7c-2.9,1.3-4.9-5.1-7.4-3.9
				c-2.5,1.2-7.6,4.7-9.3,5.2c-1.7,0.5-4-6.8-7.2-6.3c-3.2,0.5-8.6,6-11.2,3.5c-2.7-2.5-10.8-2.8-16.9,0.5c-6.1,3.3-13.3,4.6-16.1,3
				s-9.5-4.6-9,0c0.4,4.6-8,4.8-10.3,3.2c-2.4-1.6-8-2.8-10.9,0c-2.9,2.8-12.8,4.4-16.7,1.1c-3.9-3.3-5.9-3.6-10.6,0.9
				c-4.7,4.6-9.1,5.8-11.2,3.5c-2.1-2.4-1.4-6-8-1.4c-6.6,4.6-8.8-5.5-13.6-1.2c-4.8,4.3-9.4-1.4-13.6-1s-3.7,4.9-3.7,4.9
				c-4.6,5.2-3.3-6.1-8.5-3.1c-5.2,3,5.3,6.4,2.8,9.1s-13,4-13,4c-8.8,8.4-12.5,3.9-12.5,3.9l-1.4-6.1l3.7-4.1l5.9,1.1l-2.1-6.8
				l-5.2,1.6l-4.6-5.6c0,0-0.1-0.2-3-3.6l2-8.8l-8.4-4.1l-3.6,0.8l6,7.3l-3,0.9l-3.5-3.8l-3.2,1.8l-2,4.4l-2.7-2.8l0.2-5.5l-3.2,2.4
				l-4.8,1.9c0,0-0.9-3-1.3-4.3c-0.4-1.3-5.5,1.1-5.5,1.1l1.4,4.4c0,0-0.2,2.4-1.1,4.1c-0.9,1.7-9-1.9-9-1.9l-2.1-7l-7.8,2.3l2.1,7
				l-5.5-0.7l-2.2,0.7l-1.6-5.2l-3.2,5.7l-4.8-3.2l-3.1-0.7l-1.5,2.7l-4,1.2l-3.2-4.1c0,0-1.3,3.5-7.2,4.4
				c-5.9,0.9-11.4-3.2-11.4-3.2c-3.2,8.1-10,3-10,3c-9.4,3.4-16.3-0.7-16.3-0.7c-5.7,3.2-31.3,3-31.3,3c-12-1.9-23.4-0.4-32,1.7
				c-12-1.8-18.4-2.9-18.4-2.9C230.3,795.3,473.4,729.3,473.4,729.3z"/>
		</g>
		<path class="st4" d="M926.9,731.8c-0.1,2.5,2.9,4.6,6.6,4.6c3.7,0.1,6.7-1.9,6.8-4.3c0.1-2.5-2.9-4.6-6.6-4.6
			C930,727.4,926.9,729.4,926.9,731.8z"/>
		<path class="st5" d="M949.7,735.9c-0.3,0-0.5,0-0.8,0c-0.1,0-0.3,0-0.4,0l-0.4,0c-0.2,0-0.5-0.1-0.7-0.1l-0.4-0.1l-0.3-0.1
			l-0.3-0.1c-0.1,0-0.2-0.1-0.3-0.1l-0.3-0.1c-0.1,0-0.2-0.1-0.3-0.2l-0.3-0.2c-0.1-0.1-0.2-0.1-0.3-0.2l-0.3-0.2
			c-0.1-0.1-0.2-0.1-0.3-0.2l-0.3-0.2l-0.2-0.2c-0.1-0.1-0.2-0.1-0.2-0.2l-0.2-0.2c-0.1-0.2-0.3-0.3-0.4-0.5
			c-0.1-0.2-0.2-0.4-0.3-0.5c-0.1-0.1-0.1-0.2-0.1-0.3l-0.1-0.3c-0.1-0.2-0.1-0.4-0.2-0.6c-0.1-0.2-0.1-0.4-0.2-0.6l-0.1-0.6
			l-0.1-0.3l-0.2-0.3l-0.2-0.3c-0.1-0.1-0.1-0.2-0.2-0.2c-0.1-0.1-0.3-0.3-0.4-0.4c-0.3-0.3-0.6-0.5-0.9-0.8c-0.3-0.3-0.6-0.5-1-0.7
			c-0.3-0.2-0.7-0.4-1-0.6c-0.3-0.2-0.7-0.4-1.1-0.6l-0.6-0.3l-0.6-0.2c-0.4-0.1-0.8-0.3-1.2-0.4c-0.2-0.1-0.4-0.1-0.6-0.2
			c-0.2,0-0.4-0.1-0.6-0.1c-0.2,0-0.4-0.1-0.6-0.1l-0.6-0.1c-0.2,0-0.4,0-0.6-0.1c-0.2,0-0.4,0-0.6,0c-0.2,0-0.4,0-0.6,0l-0.6,0
			c-0.2,0-0.4,0-0.6,0.1c-0.2,0-0.4,0-0.6,0.1c-0.4,0.1-0.8,0.2-1.2,0.3c-0.2,0-0.4,0.1-0.6,0.2L926,725l-0.3,0.1l-0.3,0.1l-0.6,0.2
			c-0.4,0.1-0.7,0.3-1.1,0.5l0.1-0.1c-0.1,0-0.2,0-0.3,0l-0.3,0.1c-0.2,0.1-0.4,0.2-0.6,0.2c-0.4,0.1-0.8,0.2-1.2,0.3
			c-0.8,0.2-1.7,0.3-2.5,0.4c-0.4,0.1-0.8,0.1-1.3,0.1c-0.4,0-0.9,0.1-1.3,0.1c-0.4,0-0.9,0-1.3,0l-0.6,0l-0.6,0c-0.2,0-0.4,0-0.6,0
			c-0.2,0-0.4,0-0.6-0.1c-0.2,0-0.4,0-0.6-0.1l-0.6-0.1c-0.2,0-0.4-0.1-0.6-0.1c-0.2,0-0.4-0.1-0.6-0.1l-0.6-0.1l-0.6-0.2
			c-0.2-0.1-0.4-0.1-0.6-0.2c-0.2-0.1-0.4-0.1-0.6-0.2c-0.4-0.2-0.8-0.3-1.3-0.5c-0.2-0.1-0.4-0.2-0.6-0.3c-0.2-0.1-0.4-0.2-0.6-0.3
			c-0.4-0.2-0.8-0.4-1.2-0.6c0.2,0.2,0.3,0.3,0.5,0.5c0.2,0.2,0.3,0.3,0.5,0.5c0.3,0.3,0.7,0.6,1.1,0.9c0.4,0.3,0.8,0.5,1.2,0.8
			c0.2,0.1,0.4,0.2,0.6,0.4c0.2,0.1,0.4,0.2,0.6,0.3l0.6,0.3c0.2,0.1,0.4,0.2,0.6,0.3c0.2,0.1,0.4,0.2,0.7,0.3
			c0.2,0.1,0.4,0.2,0.7,0.3l0.7,0.2c0.2,0.1,0.5,0.1,0.7,0.2c0.5,0.1,0.9,0.2,1.4,0.3l0.7,0.1l0.7,0.1c0.5,0.1,1,0.1,1.4,0.1
			c0.5,0,1,0.1,1.4,0.1c0.5,0,1,0,1.4,0l0.7,0c0.2,0,0.5,0,0.7-0.1c0.5,0,1-0.1,1.4-0.2c0.5-0.1,1-0.2,1.4-0.3
			c0.2-0.1,0.5-0.1,0.7-0.2l0.4-0.1c0.1,0,0.2-0.1,0.4-0.1l0.2-0.1l0.9-0.4l0.5-0.2l0.2-0.1l0.2-0.1l0.5-0.1c0.2,0,0.3-0.1,0.5-0.1
			c0.3-0.1,0.6-0.1,0.9-0.2c0.2,0,0.3,0,0.5-0.1c0.2,0,0.3,0,0.5-0.1l0.5,0c0.2,0,0.3,0,0.5,0c0.2,0,0.3,0,0.5,0c0.2,0,0.3,0,0.5,0
			l0.5,0l0.5,0.1c0.2,0,0.3,0.1,0.5,0.1c0.2,0,0.3,0.1,0.5,0.1c0.3,0.1,0.6,0.2,0.9,0.2l0.5,0.2l0.5,0.2l0.5,0.2
			c0.2,0.1,0.3,0.1,0.4,0.2c0.3,0.1,0.6,0.3,0.9,0.4c0.3,0.2,0.6,0.3,0.8,0.5c0.3,0.2,0.6,0.4,0.8,0.6c0.1,0.1,0.3,0.2,0.4,0.3
			l0.3,0.3l-0.3-0.6c0.1,0.3,0.2,0.6,0.3,0.8c0.1,0.3,0.2,0.5,0.4,0.8c0.1,0.3,0.3,0.5,0.4,0.7l0.2,0.4c0.1,0.1,0.2,0.2,0.3,0.3
			c0.2,0.2,0.4,0.4,0.6,0.6c0.2,0.2,0.4,0.4,0.6,0.6l0.3,0.3c0.1,0.1,0.2,0.2,0.4,0.2l0.4,0.2l0.4,0.2c0.1,0.1,0.2,0.1,0.4,0.2
			l0.4,0.1c0.1,0,0.3,0.1,0.4,0.1l0.4,0.1c0.1,0,0.3,0.1,0.4,0.1l0.4,0.1c0.1,0,0.3,0,0.4,0l0.4,0l0.4,0l0.4,0c0.3,0,0.5,0,0.8-0.1
			c0.3-0.1,0.5-0.1,0.8-0.2C949.3,736,949.5,735.9,949.7,735.9z"/>
		<path class="st6" d="M412.1,764.8c0,0,164-82.8,327.7-67.7c0,0,18.5,6.6,2.1,13.4S596.8,688.3,412.1,764.8z"/>
		<g>
			<path class="st7" d="M688.2,804.1c4.5-0.7,9.2-1,13.5-0.6c13.4,1.5,12.5,10.9,12.5,10.9c-47.5,77.5-123.6,91.8-123.6,91.8
				s-3.7-0.5-5.2-2.7C660,870.7,682.7,820.2,688.2,804.1z"/>
			<path class="st8" d="M585.4,903.5c-0.4-0.6-0.6-1.3-0.6-2.1c0-4.1,15.5-34.7,22.5-45c7-10.3,0.9-12.7,0.9-12.7
				c-4.7-1.3-18.7-11.3-10.5-11.8c12.9-0.9,70.5-22.4,70.5-22.4c1.7-0.7,10.4-3.9,20-5.4C682.7,820.2,660,870.7,585.4,903.5z"/>
		</g>
		<g>
			<path class="st7" d="M568.7,701.4c3,0,5,0.7,7.8-0.3c8.7-3,10.1-3.6,10.1-3.6c-69.6-65.4-89.2-60.8-89.2-60.8s-1,3.2-1.8,5.3
				C546.1,658.6,558.8,685.9,568.7,701.4z"/>
		</g>
		<path class="st5" d="M968.4,733.2c0.7-0.4,1.4-0.7,2-0.6l0,0c0,0,2.3-0.1,4.1,0.6c0,0-2.1-0.5-3.2-0.2c0.5,0.4,0.1,1.2-0.8,1.7
			c-1,0.6-2.3,0.7-2.9,0.3S967.4,733.7,968.4,733.2z"/>
		<g>
			<path class="st1" d="M195.5,815.6c0,0.2,0,0.3,0,0.5c-0.1-0.2-0.2-0.3-0.2-0.3C195.4,815.7,195.5,815.7,195.5,815.6z"/>
			<path class="st9" d="M57.7,713.2c0.8-0.7,3.1-0.7,8.8,1.1c0,0,36.3,8.9,67.6,24.1c0,0,41.1,13.3,83,59.8l4.7,5
				c0,0-20.2,5.1-26.3,12.4C190.1,759.5,97.2,725.3,57.7,713.2z"/>
			<path class="st10" d="M110.6,922.8c-0.6,0.1-1.3,0.2-1.9,0.2c0,0-6.8-0.6,2.1-5.9c0,0,9.2-5.9,11.4-21.5c0,0,0.8-23.1,15.4-67.2
				c0,0,3.8-4.7-4.5-21.9c0,0-13.3-33.3-42.9-53.7l-5.3-12.9l-7.9,0.9c0,0-5.3-15.3-17.7-24.2c0,0-2.3-2.5-1.1-3.4
				c39.5,12,132.4,46.2,137.8,102.4c-0.1,0.1-0.1,0.1-0.2,0.2c0,0,0.1,0.1,0.2,0.3C198.5,845.5,176.9,881.1,110.6,922.8z"/>
			<path class="st9" d="M195.6,816.1c1.1,1.4,6.7,7.5,24.4,8.1c0,0-48.3,60.6-83.4,88.1c0,0-12.6,8.7-26.4,10.7
				C176.5,881.2,198.1,845.6,195.6,816.1z"/>
		</g>
		<g>
			<path class="st11" d="M779.8,730.6c-0.6,0.1-1.1,0.2-1.7,0.3c-0.6,0.1-1.1,0.2-1.6,0.4l-1.6,0.4c-0.5,0.1-1.1,0.3-1.6,0.4
				l-1.6,0.4l-1.6,0.4c-1.1,0.3-2.2,0.5-3.3,0.8l-0.9,0.2l0.3,1c0.4,1.2,0.8,2.5,1.2,3.7c0.4,1.2,0.7,2.5,1.1,3.7
				c0.3,1.2,0.7,2.5,1,3.8c0.3,1.3,0.6,2.5,0.8,3.8c0.2,1.3,0.4,2.5,0.5,3.7c0,0.6,0.1,1.2,0.1,1.8l0,0.4l0,0.4c0,0.1,0,0.3,0,0.4
				l0,0.2l0,0.1l0,0c0,0,0,0,0,0l0,0l0,0.1l-0.1,0.5l0,0.1l0,0.1l0,0.2c-0.1,0.3-0.1,0.6-0.2,0.9c-0.2,0.6-0.3,1.2-0.5,1.8
				c-0.4,1.2-0.8,2.5-1.1,3.8c-0.4,1.3-0.7,2.6-1,3.9c-0.3,1.3-0.5,2.7-0.6,4c0,0.3-0.1,0.7-0.1,1l-0.1,1c0,0.3,0,0.7,0,1
				c0,0.3,0,0.7,0,1c0,1.3,0.1,2.7,0.3,4c0.1,0.7,0.2,1.3,0.3,2c0.1,0.7,0.2,1.3,0.4,2c0.1,0.3,0.1,0.6,0.2,1l0.2,1
				c0.2,0.6,0.4,1.3,0.6,1.9c0.2,0.6,0.4,1.3,0.6,1.9c0.2,0.6,0.5,1.2,0.7,1.8c0.3,0.6,0.5,1.2,0.8,1.8c0.3,0.6,0.6,1.2,0.8,1.8
				c-0.2-0.6-0.3-1.3-0.5-1.9l-0.5-1.9c-0.2-0.6-0.3-1.3-0.4-1.9c-0.1-0.6-0.2-1.3-0.4-1.9c-0.1-0.6-0.2-1.3-0.3-1.9l-0.1-1
				c0-0.3-0.1-0.6-0.1-1l-0.1-1c0-0.3-0.1-0.6-0.1-1c0-0.3-0.1-0.6-0.1-1l0-1c0-1.3-0.1-2.6,0-3.8c0.1-1.3,0.2-2.5,0.4-3.8
				c0.2-1.3,0.4-2.5,0.7-3.7c0.3-1.2,0.6-2.5,1-3.7l1.2-3.7c0.2-0.6,0.4-1.3,0.6-1.9c0.1-0.3,0.2-0.7,0.2-1l0.1-0.3l0-0.1l0-0.1
				l0.1-0.5l0-0.1l0-0.1l0,0l0-0.1l0-0.3c0-0.2,0-0.4,0-0.6l0-0.5l0-0.5c0-0.7-0.1-1.4-0.1-2.1c-0.1-1.4-0.4-2.7-0.7-4
				c-0.3-1.3-0.6-2.6-1-3.9c-0.4-1.3-0.8-2.5-1.2-3.8c-0.4-1.3-0.9-2.5-1.3-3.7c-0.5-1.2-1-2.5-1.5-3.7l-0.6,1.2
				c1.1-0.4,2.1-0.8,3.2-1.2l1.6-0.6l1.6-0.6c0.5-0.2,1.1-0.4,1.6-0.6l1.6-0.6c0.5-0.2,1-0.4,1.6-0.6
				C778.8,731,779.3,730.8,779.8,730.6z"/>
			<path class="st11" d="M757.2,733.5c-0.6,0.1-1.1,0.2-1.7,0.4c-0.6,0.1-1.1,0.2-1.7,0.4c-1.1,0.3-2.2,0.5-3.3,0.8
				c-1.1,0.3-2.2,0.5-3.3,0.8l-3.3,0.8l-0.9,0.2l0.3,0.9c0.5,1.3,0.9,2.7,1.3,4.1c0.4,1.4,0.8,2.8,1.2,4.2c0.4,1.4,0.7,2.8,1.1,4.2
				c0.3,1.4,0.6,2.8,0.9,4.2c0.3,1.4,0.5,2.8,0.8,4.2c0.2,1.4,0.4,2.8,0.5,4.2l0.1,1.1l0.1,1.1c0,0.4,0,0.7,0.1,1.1
				c0,0.4,0,0.7,0,1.1c0,0.4,0,0.7,0,1.1l0,1c0,0.7-0.1,1.4-0.1,2.1l-0.3,4.3c-0.1,1.5-0.2,2.9-0.3,4.4c-0.1,1.5-0.1,2.9-0.1,4.4
				c0,0.7,0,1.5,0,2.2c0,0.7,0,1.5,0.1,2.2c0,0.4,0,0.7,0.1,1.1l0.1,1.1c0.1,0.7,0.2,1.5,0.3,2.2l0.1,0.5c0,0.2,0.1,0.4,0.1,0.5
				l0.2,1.1c0,0.2,0.1,0.4,0.1,0.5l0.1,0.5l0.3,1.1c0.1,0.4,0.2,0.7,0.3,1.1l0.4,1c0.1,0.3,0.3,0.7,0.4,1l0.5,1
				c0.3,0.7,0.7,1.3,1,1.9c0.4,0.6,0.8,1.2,1.2,1.8c-0.3-0.7-0.6-1.3-0.9-2c-0.2-0.7-0.5-1.4-0.7-2c-0.2-0.7-0.4-1.4-0.6-2.1l-0.2-1
				c-0.1-0.3-0.2-0.7-0.2-1c-0.2-1.4-0.4-2.8-0.5-4.2c0-0.7-0.1-1.4-0.1-2.1c0-0.7,0-1.4,0-2.1c0-0.7,0-1.4,0.1-2.1
				c0-0.7,0.1-1.4,0.1-2.1c0.1-0.7,0.1-1.4,0.2-2.1c0.1-0.7,0.1-1.4,0.2-2.2l0.4-4.3c0.2-1.4,0.3-2.9,0.4-4.3c0-0.4,0.1-0.7,0.1-1.1
				c0-0.4,0.1-0.8,0.1-1.1l0-1.1c0-0.4,0-0.8,0-1.1c0-1.5-0.1-3-0.2-4.5c-0.2-1.5-0.3-3-0.6-4.4c-0.3-1.5-0.5-2.9-0.9-4.3
				c-0.3-1.4-0.7-2.9-1.1-4.3c-0.4-1.4-0.8-2.8-1.3-4.2c-0.5-1.4-1-2.8-1.5-4.1c-0.5-1.4-1.1-2.7-1.7-4.1l-0.6,1.2l3.2-1.2
				c1.1-0.4,2.1-0.8,3.2-1.2c1.1-0.4,2.1-0.8,3.2-1.2c0.5-0.2,1.1-0.4,1.6-0.6C756.2,734,756.7,733.8,757.2,733.5z"/>
			<path class="st11" d="M734.6,735.9c-0.9,0.2-1.8,0.4-2.6,0.6l-2.6,0.6c-0.9,0.2-1.7,0.4-2.6,0.6l-2.6,0.6l-0.8,0.2l0.3,0.8
				c0.5,1.4,0.9,2.7,1.3,4.1c0.4,1.4,0.9,2.8,1.3,4.1l0.6,2.1l0.6,2.1c0.2,0.7,0.4,1.4,0.6,2.1l0.6,2.1c0.4,1.4,0.7,2.8,1.1,4.2
				c0.2,0.7,0.4,1.4,0.5,2.1l0.5,2.1c0.1,0.3,0.2,0.7,0.2,1l0.2,1.1l0.4,2.1l0.4,2.1l0.2,1.1l0.2,1.1l0.3,2.1l0.2,2.1l0.1,1.1
				l0.1,1.1c0.1,0.7,0.1,1.4,0.2,2.2l0.2,2.2c0.1,0.7,0.2,1.5,0.3,2.2c0.2,1.4,0.4,2.9,0.6,4.3c0.1,0.7,0.3,1.4,0.4,2.2
				c0.1,0.4,0.2,0.7,0.2,1.1c0.1,0.4,0.2,0.7,0.3,1.1c0.4,1.4,0.8,2.8,1.3,4.2c0.5,1.4,1.1,2.7,1.8,4c0.7,1.3,1.4,2.5,2.2,3.8
				c-0.5-1.4-1.1-2.7-1.6-4.1c-0.5-1.4-0.9-2.7-1.3-4.1c-0.3-1.4-0.6-2.8-0.8-4.2c-0.1-0.3-0.1-0.7-0.2-1.1c0-0.4-0.1-0.7-0.1-1.1
				c-0.1-0.7-0.2-1.4-0.2-2.1c-0.1-1.4-0.2-2.9-0.3-4.3l-0.1-2.2L736,781l-0.1-2.2l-0.1-1.1l-0.1-1.1c-0.1-0.7-0.1-1.5-0.2-2.2
				l-0.3-2.2c0-0.4-0.1-0.7-0.1-1.1l-0.2-1.1l-0.4-2.2c-0.1-0.7-0.3-1.4-0.5-2.2l-0.2-1.1c-0.1-0.4-0.2-0.7-0.3-1.1l-0.5-2.1
				c-0.2-0.7-0.4-1.4-0.6-2.1c-0.4-1.4-0.8-2.8-1.2-4.2c-0.2-0.7-0.4-1.4-0.7-2.1c-0.2-0.7-0.5-1.4-0.7-2.1
				c-0.2-0.7-0.5-1.4-0.7-2.1l-0.8-2.1c-0.5-1.4-1-2.7-1.6-4.1c-0.3-0.7-0.6-1.3-0.8-2c-0.3-0.7-0.6-1.3-0.9-2l-0.5,1l2.5-0.9
				c0.8-0.3,1.7-0.6,2.5-1l2.5-1C733,736.5,733.8,736.2,734.6,735.9z"/>
			<path class="st11" d="M714.6,739.2c-0.6,0.1-1.1,0.2-1.7,0.4c-0.6,0.1-1.1,0.2-1.7,0.4c-1.1,0.3-2.3,0.5-3.4,0.8l-0.5,0.1
				l0.2,0.6c0.5,1.5,1,3,1.5,4.5c0.5,1.5,1,3,1.5,4.5l0.7,2.3l0.7,2.3c0.2,0.8,0.5,1.5,0.7,2.3c0.2,0.8,0.4,1.5,0.7,2.3l0.3,1.1
				l0.3,1.1c0.2,0.8,0.4,1.5,0.6,2.3c0.4,1.5,0.7,3,1,4.6l0.2,1.1l0.1,0.6l0.1,0.3l0,0.3l0.3,2.3l0.2,1.2c0.1,0.4,0.1,0.8,0.2,1.2
				c0.2,0.8,0.3,1.6,0.5,2.4l0.6,2.3c0.2,0.8,0.4,1.5,0.6,2.3l0.3,1.2l0.3,1.1l0.7,2.3c0.5,1.5,1,3,1.5,4.5c0.5,1.5,1.1,3,1.6,4.5
				c0.6,1.5,1.1,3,1.7,4.5c0.6,1.5,1.2,2.9,1.8,4.4c0.6,1.5,1.3,2.9,1.9,4.4c0.3,0.7,0.7,1.4,1,2.2c0.4,0.7,0.7,1.4,1.1,2.1
				c-0.5-1.5-0.9-3-1.4-4.5l-1.4-4.6l-1.4-4.6l-1.3-4.5l-0.7-2.3c-0.2-0.8-0.4-1.5-0.7-2.3c-0.5-1.5-0.8-3-1.3-4.6l-0.6-2.3
				l-0.3-1.1l-0.3-1.1c-0.2-0.8-0.4-1.5-0.6-2.3l-0.5-2.3l-0.4-2.2c-0.1-0.4-0.1-0.8-0.2-1.2l-0.2-1.2l-0.3-2.4
				c-0.1-0.8-0.3-1.6-0.5-2.4c-0.4-1.6-0.7-3.1-1.2-4.7c-0.2-0.8-0.4-1.5-0.7-2.3l-0.4-1.1l-0.4-1.1c-0.5-1.5-1-3-1.6-4.5
				c-0.6-1.5-1.2-3-1.7-4.5l-0.9-2.2c-0.3-0.7-0.6-1.5-1-2.2c-0.3-0.7-0.7-1.5-1-2.2c-0.3-0.7-0.7-1.4-1-2.2l-0.3,0.7
				c1.1-0.4,2.2-0.8,3.2-1.2c0.5-0.2,1.1-0.4,1.6-0.6C713.5,739.6,714,739.4,714.6,739.2z"/>
			<path class="st11" d="M700.9,741.3c-0.7-0.1-1.3-0.1-2-0.2c-0.7-0.1-1.3-0.1-2-0.2c-0.7-0.1-1.3-0.1-2-0.2l-2-0.2l-0.8-0.1
				l0.4,0.7c0.3,0.6,0.7,1.3,1,2c0.3,0.7,0.7,1.3,1,2c0.3,0.7,0.6,1.3,0.9,2c0.3,0.7,0.6,1.3,0.9,2l0.9,2c0.3,0.7,0.6,1.3,0.9,2
				c0.3,0.7,0.6,1.4,0.9,2c0.3,0.7,0.6,1.3,0.9,2l0.8,2c0.3,0.7,0.5,1.4,0.8,2c0.5,1.4,1,2.7,1.6,4.1c0.3,0.7,0.5,1.4,0.7,2.1
				c0.2,0.7,0.5,1.4,0.7,2.1c0.5,1.4,0.9,2.8,1.3,4.2l1.3,4.2c0.2,0.7,0.5,1.4,0.7,2.1c0.2,0.7,0.5,1.4,0.8,2.1
				c0.5,1.4,1.1,2.8,1.7,4.1c0.6,1.4,1.3,2.7,2,4c0.3,0.7,0.7,1.3,1.1,2c0.4,0.6,0.7,1.3,1.1,1.9c0.8,1.3,1.6,2.5,2.4,3.8
				c0.8,1.2,1.6,2.5,2.4,3.7c0.4,0.6,0.7,1.3,1,2c0.3,0.7,0.5,1.4,0.5,2.1c0.1-0.7-0.1-1.5-0.3-2.2c-0.2-0.7-0.5-1.4-0.8-2.1
				c-0.6-1.4-1.3-2.7-2-4c-0.7-1.3-1.4-2.6-2.1-3.9c-0.3-0.7-0.7-1.3-1-2l-0.5-1l-0.5-1c-0.6-1.3-1.2-2.7-1.7-4
				c-0.6-1.4-1.1-2.7-1.5-4.1c-0.5-1.4-0.9-2.8-1.3-4.2l-1.2-4.2c-0.4-1.4-0.9-2.8-1.4-4.2c-0.2-0.7-0.5-1.4-0.7-2.1
				c-0.3-0.7-0.5-1.4-0.8-2.1c-0.5-1.4-1.1-2.8-1.6-4.1c-0.3-0.7-0.6-1.4-0.9-2.1l-0.9-2c-0.3-0.7-0.6-1.3-0.9-2
				c-0.3-0.7-0.6-1.3-1-2c-0.3-0.7-0.7-1.3-1-2l-1-2c-0.7-1.3-1.4-2.6-2.1-3.9c-0.7-1.3-1.5-2.6-2.3-3.8l-0.4,0.7l2,0
				c0.7,0,1.3,0,2,0c0.7,0,1.3,0,2,0C699.5,741.4,700.2,741.4,700.9,741.3z"/>
		</g>
		<path class="st12" d="M410.1,846.8c0,0-43.3,15.2-54.6,16.8c0,0,19.3-15,6.5-20.9c0,0,7.1,0.8,12.5-1
			C379.8,839.9,410.1,842.8,410.1,846.8z"/>
		<path class="st13" d="M417.1,848.9c0,0-9.5,9.9-15.9,12.6c0,0-2.1-8.5-5.4-9.5c-3.4-0.9,11.3-4.2,11.3-4.2L417.1,848.9z"/>
		<path class="st10" d="M282,784l-19.1-6.3c0,0-0.2,8.9-6,14C251.2,796.7,282,784,282,784z"/>
		<path class="st12" d="M274.6,831.9c0,0-10,7.2-13.6,8.1c-3.7,1-2-5.7-5.9-10.8L274.6,831.9z"/>
	</g>
</g>
<circle class="st14" cx="932.3" cy="618.1" r="18.6"/>
<circle class="st14" cx="1002.4" cy="687.7" r="18.6"/>
<circle class="st15" cx="903.7" cy="669.1" r="9.3"/>
</svg>
