<svg width="51" height="50" viewBox="0 0 51 50" fill="none" xmlns="http://www.w3.org/2000/svg">
<g clip-path="url(#clip0_593_1707)">
<path fill-rule="evenodd" clip-rule="evenodd" d="M36.7813 29.9626C36.1604 29.6522 33.1167 28.1563 32.55 27.948C31.9833 27.7418 31.5708 27.6397 31.1562 28.2605C30.7437 28.8772 29.5583 30.273 29.1979 30.6855C28.8354 31.1001 28.475 31.1501 27.8562 30.8418C27.2375 30.5293 25.2417 29.8772 22.8771 27.7688C21.0375 26.1272 19.7937 24.1001 19.4333 23.4793C19.0729 22.8605 19.3938 22.5251 19.7042 22.2168C19.9833 21.9397 20.3229 21.4938 20.6333 21.1334C20.9437 20.7709 21.0458 20.5126 21.2521 20.098C21.4604 19.6855 21.3562 19.3251 21.2 19.0147C21.0458 18.7043 19.8083 15.6563 19.2917 14.4168C18.7896 13.2105 18.2792 13.3751 17.9 13.3543C17.5375 13.3376 17.125 13.3334 16.7125 13.3334C16.3 13.3334 15.6292 13.4876 15.0625 14.1084C14.4937 14.7272 12.8958 16.2251 12.8958 19.273C12.8958 22.3188 15.1125 25.2626 15.4229 25.6772C15.7333 26.0897 19.7875 32.3438 25.9979 35.0251C27.4771 35.6626 28.6292 36.0438 29.5271 36.3272C31.0104 36.8001 32.3604 36.7334 33.4271 36.573C34.6146 36.3959 37.0896 35.0751 37.6063 33.6292C38.1208 32.1834 38.1208 30.9438 37.9667 30.6855C37.8125 30.4272 37.4 30.273 36.7792 29.9626H36.7813ZM25.4854 45.3855H25.4771C21.7884 45.3862 18.1674 44.3946 14.9937 42.5147L14.2437 42.0688L6.44792 44.1147L8.52917 36.5147L8.03958 35.7355C5.97737 32.4529 4.88603 28.6538 4.89167 24.7772C4.89583 13.423 14.1333 4.1855 25.4937 4.1855C30.9937 4.1855 36.1646 6.33134 40.0521 10.223C41.9695 12.1325 43.4893 14.4033 44.5235 16.904C45.5577 19.4047 46.0857 22.0857 46.0771 24.7918C46.0729 36.1459 36.8354 45.3855 25.4854 45.3855V45.3855ZM43.0104 7.26675C40.715 4.95618 37.9838 3.12412 34.9752 1.87675C31.9666 0.629385 28.7403 -0.00849218 25.4833 8.53699e-05C11.8292 8.53699e-05 0.7125 11.1147 0.708333 24.7751C0.702006 29.1225 1.84245 33.3946 4.01458 37.1605L0.5 50.0001L13.6333 46.5542C17.2664 48.5337 21.3377 49.5708 25.475 49.5709H25.4854C39.1396 49.5709 50.2562 38.4563 50.2604 24.7938C50.2705 21.5382 49.6349 18.3128 48.3905 15.3043C47.146 12.2958 45.3174 9.56398 43.0104 7.26675" fill="#003C6A"/>
</g>
<defs>
<clipPath id="clip0_593_1707">
<rect width="50" height="50" fill="white" transform="translate(0.5)"/>
</clipPath>
</defs>
</svg>
