<svg width="1920" height="111" viewBox="0 0 1920 111" fill="none" xmlns="http://www.w3.org/2000/svg">
<path d="M0 46.6479C22.31 55.1744 44.966 62.0961 67.085 71.793C81.907 78.3133 97.2291 84.332 111.936 90.8854C128.102 98.0745 145.421 98.7102 164.621 96.9373C179.136 95.5998 191.271 89.4138 204.557 84.3982C226.675 76.0719 251.059 77.2422 272.41 65.5061C282.97 59.6876 289.728 53.3014 302.477 50.5933C311.501 48.6872 321.178 50.1588 329.971 47.7842C348.249 42.9027 355.238 29.8281 376.205 28.9251C425.895 26.7517 467.021 53.2004 506.919 74.8686C523.585 83.9298 537.447 82.9266 555.303 87.0062C572.429 90.9516 590.477 95.2985 607.258 85.8028C618.97 79.1484 624.884 74.9356 638.4 70.823C656.026 65.473 658.637 56.6791 670.31 46.2133C683.251 34.7445 701.491 26.0168 717.58 18.7946C763.122 -1.53518 814.925 -6.65094 862.08 12.1742C878.669 18.7946 893.606 27.2881 910.81 32.7382C923.981 36.8848 936.154 44.174 950.093 46.782C964.224 49.4239 971.059 50.5602 980.659 58.6853C984.844 62.2633 982.31 62.8319 988.3 66.2758C991.218 67.9808 997.478 69.5865 1000.86 70.2552C1017.48 73.4988 1038.49 73.1975 1055.5 73.5319C1080.46 74.0004 1099.28 74.502 1121.39 64.6379C1138.1 57.2146 1155.42 58.6862 1172.35 50.7614C1187.29 43.8065 1197.54 36.3502 1214.36 33.6752C1244.73 28.8267 1272.81 17.1567 1302.6 10.5032C1327.6 4.91896 1364.35 -3.03899 1389.35 4.65163C1402.1 8.53003 1409.89 12.7768 1423.83 13.3123C1435.58 13.7808 1447.64 12.3422 1459.35 13.3123C1481.36 15.1513 1491.03 24.4137 1504.51 36.6184C1518.72 49.5919 1544.95 58.0514 1563.57 66.2105C1576.43 71.8949 1580.31 77.4451 1596.82 81.0231C1606.77 83.1635 1615.83 86.0057 1625.78 86.8747C1644.79 88.5466 1672.82 89.1482 1691.02 83.0294C1709.11 76.9775 1724.77 66.1104 1742.28 59.4891C1752.84 55.4766 1764.48 58.1846 1775.46 55.7108C1785.25 53.5043 1788.06 48.6889 1795.24 43.406C1813.32 30.0641 1834.06 18.3949 1856.64 11.7745C1879.3 5.1201 1897.34 8.83218 1920 9.86839V110.475H0V46.6496V46.6479Z" fill="#0076B0"/>
</svg>
